<svg width="90" height="90" viewBox="0 0 90 90" fill="none" xmlns="http://www.w3.org/2000/svg">
<circle cx="45" cy="45" r="45" fill="#F5F5F5"/>
<path d="M52.0166 68.4087L44.3421 76L13 45L44.3421 14L52.0115 21.5863L28.5297 44.8111L28.5348 44.8161L28.349 45L52.0166 68.4087Z" fill="#377D3F"/>
<path d="M52.0083 21.5848L28.5281 44.8105L28.5335 44.8159L52.0137 21.5901L52.0083 21.5848Z" fill="#00492B"/>
<path d="M56.5949 26.1199L37.1897 45.3148L56.5949 64.5097L76.0001 45.3148L56.5949 26.1199ZM41.6024 45.3148L56.5949 30.4848L71.5874 45.3148L56.5949 60.1448L41.6024 45.3148Z" fill="#174BA7"/>
<path d="M68.2439 45.3144L56.5947 33.7915L44.9456 45.3144L56.5947 56.8374L68.2439 45.3144Z" fill="#174BA7"/>
</svg>
