<svg width="90" height="90" viewBox="0 0 90 90" fill="none" xmlns="http://www.w3.org/2000/svg">
<circle cx="45" cy="45" r="45" fill="#EFEFEF"/>
<g clip-path="url(#clip0_581_466)">
<path d="M64.3611 41.3015C64.3611 45.7348 64.3304 50.1692 64.3823 54.6012C64.3965 55.8074 63.8727 56.4822 62.8335 56.929C61.3118 57.5779 59.7087 57.9047 58.0832 58.121C53.8365 58.6842 49.5746 58.8558 45.2996 58.8628C41.946 58.8687 38.5958 58.8029 35.2516 58.5102C32.8546 58.3021 30.46 58.1034 28.1374 57.4274C27.4384 57.2435 26.7692 56.9617 26.1497 56.5904C25.5198 56.193 25.2142 55.6558 25.2142 54.894C25.2245 45.8715 25.2245 36.8487 25.2142 27.8255C25.2142 27.1083 25.5304 26.6498 26.1048 26.303C27.3269 25.5612 28.7 25.2203 30.0755 24.9699C34.0089 24.2618 38.0025 23.9389 41.999 24.0059C44.5694 24.0459 47.141 23.9624 49.709 24.0259C53.7422 24.1246 57.7564 24.4362 61.6657 25.5318C62.3423 25.721 62.9897 26.0019 63.5896 26.3665C64.1016 26.6804 64.3375 27.0966 64.3375 27.7091C64.321 32.2399 64.3281 36.7707 64.3281 41.3015H64.3611Z" fill="#4A4A4A"/>
<path d="M44.2769 65.9929C41.0601 66.0446 37.4351 65.8354 33.8255 65.4956C29.9139 65.1288 26.0258 64.5975 22.2357 63.5159C21.3534 63.2643 20.4769 62.9904 19.6747 62.5331C19.3503 62.3473 18.9835 62.1298 19.0012 61.7219C19.0165 61.3539 19.3999 61.214 19.7019 61.0812C20.8532 60.5745 22.0847 60.3605 23.3115 60.1301C23.6748 60.0608 24.0417 60.0126 24.4015 59.9291C24.6999 59.8609 24.8993 59.855 24.8545 60.2559C24.7636 61.0577 25.3169 61.3845 25.9303 61.6572C27.2974 62.2662 28.7507 62.5613 30.2111 62.8176C35.8733 63.8145 41.5756 64.1013 47.305 63.9697C52.0058 63.8615 56.69 63.5371 61.2893 62.4731C62.2 62.2615 63.1107 62.0452 63.9565 61.6208C64.5357 61.3304 64.9851 60.9683 64.8943 60.2395C64.8601 59.962 64.9438 59.8386 65.2482 59.8962C66.7958 60.196 68.3777 60.3417 69.8652 60.9131C70.0465 60.9823 70.224 61.0608 70.3972 61.1482C70.6567 61.2811 70.987 61.3974 71.0059 61.7219C71.0259 62.0969 70.698 62.2886 70.4066 62.4508C68.9581 63.2573 67.3561 63.6158 65.7613 63.9791C62.6506 64.6844 59.4987 65.11 56.3243 65.4192C52.3212 65.8186 48.3 66.01 44.2769 65.9929Z" fill="#4A4A4A"/>
</g>
<defs>
<clipPath id="clip0_581_466">
<rect width="52" height="42" fill="white" transform="translate(19 24)"/>
</clipPath>
</defs>
</svg>
