<svg width="90" height="90" fill="none" xmlns="http://www.w3.org/2000/svg"><g clip-path="url(#a)"><circle cx="45" cy="45" r="45" fill="#F5F5F5"/><path d="M49.937 59.064c-1.725-2.56-2.365-1.82-3.28-1.232-.722.462-1.35.682-2.043.674-.693.008-1.322-.212-2.042-.674-.918-.588-1.555-1.328-3.28 1.232-.662.982-.734 2.39-.346 2.986.448.843 1.42 2.015 3.126 3.332.996.77 1.787 1.056 2.518 1.047v.001h.048v-.001c.732.01 1.52-.277 2.518-1.047 1.706-1.317 2.677-2.489 3.125-3.332.387-.596.317-2.004-.344-2.986Z" fill="#3A393A"/><path d="M58.297 54.651c-2.68-.067-2.229 2.386-2.229 2.386 1.05-3.578 4.731-.782 3.015 1.324-1.836 2.253-4.556-.276-6.947-3.577-2.155-2.973-4.555-3.115-6.03-2.818-.34.377-.89.614-1.434.614h-.117c-.543 0-1.094-.237-1.432-.614-1.476-.297-3.877-.155-6.03 2.818-2.392 3.3-5.113 5.83-6.948 3.577-1.717-2.106 1.966-4.902 3.014-1.324 0 0 .45-2.453-2.228-2.386-2.68.067-3.933 4.374-.917 6.23 3.202 1.97 7.086-.985 9.176-3.579.746-.927 1.576-1.502 2.355-1.858 1.818-.587 3.068.719 3.068.719h.003s1.248-1.306 3.067-.72c.78.357 1.609.932 2.356 1.859 2.088 2.594 5.974 5.548 9.176 3.578 3.015-1.855 1.763-6.162-.918-6.229ZM62.229 68.62c-5.276-1.77-9.026-4.606-9.026-4.606 2.107 1.883-1.461 6.053-2.59 7.285-.097-.129-.207-.294-.344-.46-3.002-3.636-4.51-3.413-4.51-3.413H43.47s-1.51-.223-4.513 3.413c-.137.166-.247.331-.34.46-1.132-1.232-4.7-5.402-2.592-7.285 0 0-3.751 2.837-9.026 4.606 0 0 3.28 9.072 17.445 9.37V78h.339v-.01c14.165-.298 17.445-9.37 17.445-9.37ZM41.18 76.748l-.563-.133-1.462-4.553c1.462-3.07 2.701-2.729 2.701-2.729l1.293 2.903-1.969 4.512Zm7.43-.134-.563.134-2.004-4.458 1.328-2.957s1.238-.342 2.7 2.729l-1.462 4.552ZM57.29 35.27c.01.17.021.505-.036.696-.217.904-5.766 2.003-12.66 2.003-6.667 0-12.194-1.051-12.741-1.915-.014-.018-.143-.304-.068-.764-2.373.34-3.8.774-3.8 1.249 0 1.083 7.255 2.757 16.438 2.757 9.186 0 16.82-1.674 16.82-2.757 0-.485-1.491-.927-3.953-1.269ZM56.976 14.261c0-1.062-3.414-2.25-12.493-2.261H44.474c-9.078.011-12.493 1.2-12.493 2.261v18.1c0 .126.04.223.04.223.491 1.513 5.865 2.063 12.42 2.1h.008c6.555-.037 11.994-.587 12.486-2.1 0 0 .04-.097.04-.224V14.261Z" fill="#3A393A"/></g><defs><clipPath id="a"><path fill="#fff" d="M0 0h90v90H0z"/></clipPath></defs></svg>