<svg width="90" height="90" viewBox="0 0 90 90" fill="none" xmlns="http://www.w3.org/2000/svg">
<circle cx="45" cy="45" r="45" fill="#F5F5F5"/>
<path d="M33.0341 62V27.0909H47.0114C49.5795 27.0909 51.7216 27.4716 53.4375 28.233C55.1534 28.9943 56.4432 30.0511 57.3068 31.4034C58.1705 32.7443 58.6023 34.2898 58.6023 36.0398C58.6023 37.4034 58.3295 38.6023 57.7841 39.6364C57.2386 40.6591 56.4886 41.5 55.5341 42.1591C54.5909 42.8068 53.5114 43.267 52.2955 43.5398V43.8807C53.625 43.9375 54.8693 44.3125 56.0284 45.0057C57.1989 45.6989 58.1477 46.6705 58.875 47.9205C59.6023 49.1591 59.9659 50.6364 59.9659 52.3523C59.9659 54.2045 59.5057 55.858 58.5852 57.3125C57.6761 58.7557 56.3295 59.8977 54.5455 60.7386C52.7614 61.5795 50.5625 62 47.9489 62H33.0341ZM40.4148 55.9659H46.4318C48.4886 55.9659 49.9886 55.5739 50.9318 54.7898C51.875 53.9943 52.3466 52.9375 52.3466 51.6193C52.3466 50.6534 52.1136 49.8011 51.6477 49.0625C51.1818 48.3239 50.517 47.7443 49.6534 47.3239C48.8011 46.9034 47.7841 46.6932 46.6023 46.6932H40.4148V55.9659ZM40.4148 41.6989H45.8864C46.8977 41.6989 47.7955 41.5227 48.5795 41.1705C49.375 40.8068 50 40.2955 50.4545 39.6364C50.9205 38.9773 51.1534 38.1875 51.1534 37.267C51.1534 36.0057 50.7045 34.9886 49.8068 34.2159C48.9205 33.4432 47.6591 33.0568 46.0227 33.0568H40.4148V41.6989Z" fill="#E3E3E3"/>
</svg>
