<svg width="90" height="90" viewBox="0 0 90 90" fill="none" xmlns="http://www.w3.org/2000/svg">
<circle cx="45" cy="45" r="45" fill="#F5F5F5"/>
<g clip-path="url(#clip0_527_582)">
<path d="M31.7414 58.9903H26.868C26.7323 58.794 26.6733 58.5548 26.7023 58.3179C26.7023 57.7138 26.7023 57.1097 26.7023 56.5055C26.7023 55.5896 26.6438 55.5311 25.7276 55.5311C24.8114 55.5311 23.8562 55.5311 22.9205 55.5311C22.5157 55.5804 22.1053 55.5506 21.7119 55.4434C21.6829 55.4256 21.6606 55.3988 21.6483 55.3671C21.636 55.3355 21.6343 55.3007 21.6436 55.268C21.6905 55.2202 21.7467 55.1825 21.8087 55.1574C21.8708 55.1322 21.9373 55.1201 22.0043 55.1218C22.3357 55.1218 22.6671 55.1218 22.979 55.1218C23.2909 55.1218 23.7002 55.1218 24.0609 55.1218C24.4215 55.1218 24.7919 55.1218 25.1525 55.1218C25.5132 55.1218 25.6106 55.1218 25.8445 55.1218C26.0785 55.1218 26.4294 55.1218 26.7315 55.1218C27.4918 55.1218 27.5405 55.0439 27.5405 54.2936C27.5405 53.5433 27.5405 52.9781 27.5405 52.3447C27.498 52.1052 27.5467 51.8584 27.677 51.6529C28.1546 51.5652 28.0668 51.955 28.0766 52.1791C28.0766 52.9294 28.0766 53.6797 28.0766 54.43C28.0766 54.888 28.2618 55.1803 28.7686 55.1413C29.061 55.1413 29.3534 55.1413 29.6556 55.1413C29.9577 55.1413 30.1722 55.1413 30.4353 55.1413C30.6985 55.1413 30.9422 55.1413 31.2053 55.1413C31.4685 55.1413 31.7122 55.1413 31.9656 55.1413C32.219 55.1413 32.336 55.1413 32.5212 55.1413C32.677 55.1316 32.8332 55.1316 32.989 55.1413C33.2132 55.1413 33.4276 55.1413 33.6518 55.1413C33.876 55.1413 34.1684 55.1413 34.4218 55.1413C34.6752 55.1413 34.9189 55.0731 34.9774 55.4239C34.8676 55.5072 34.7349 55.5549 34.5972 55.5603C33.9539 55.5603 33.3106 55.5603 32.6479 55.5603C31.7999 55.5603 31.7999 55.5603 31.7999 56.4373V58.3861C31.8452 58.5886 31.8247 58.8003 31.7414 58.9903V58.9903Z" fill="#F9A71C"/>
<path d="M52.5216 50.6102C53.7822 52.754 55.033 54.8977 56.2741 57.0414C56.6543 57.6845 57.0149 58.3471 57.3755 58.9903H55.9135C54.7605 58.8139 53.6689 58.3553 52.736 57.6553C52.5313 57.363 52.0147 57.2655 52.1609 56.7491C52.2779 55.0244 52.1609 53.2899 52.2194 51.5652C52.2194 51.2241 52.1609 50.8538 52.5216 50.6102Z" fill="#FCB616"/>
<path d="M22.9106 55.3557C24.012 55.3557 25.1134 55.3557 26.2051 55.3557C26.7022 55.3557 26.9068 55.5506 26.8971 56.0378C26.8971 57.0122 26.8971 57.9866 26.8971 58.9611H22.9204C22.6389 57.7761 22.6356 56.5422 22.9106 55.3557V55.3557Z" fill="#FAAC1B"/>
<path d="M22.9106 55.3557V58.9903H19.6064C19.6064 58.9903 19.5187 58.9123 19.5187 58.8538C19.3447 57.6896 19.3612 56.5049 19.5674 55.3459C20.2588 55.1069 21.0105 55.1069 21.702 55.3459L22.9106 55.3557Z" fill="#FAAF19"/>
<path d="M19.6066 55.3556V58.9902H16.3999C16.2526 58.7588 16.1938 58.482 16.2342 58.2107C16.2744 57.5238 16.2417 56.8346 16.1367 56.1547C16.2188 55.9492 16.3509 55.7676 16.5212 55.6264C16.6914 55.4851 16.8943 55.3887 17.1114 55.3459C17.9233 55.0855 18.7968 55.0889 19.6066 55.3556V55.3556Z" fill="#FBB218"/>
<path d="M31.7415 58.9903C31.7415 57.9379 31.7415 56.8758 31.7415 55.8234C31.7415 55.4629 31.8487 55.3362 32.2093 55.346C33.0475 55.346 33.8858 55.346 34.724 55.346C35.0165 56.5399 35.0165 57.7867 34.724 58.9806L31.7415 58.9903Z" fill="#F8A41C"/>
<path d="M34.7239 58.9903V55.3557H35.0553C35.117 55.2903 35.1998 55.2489 35.2892 55.2388C35.5471 55.2258 35.8052 55.2622 36.0495 55.346L37.0241 55.6675C37.133 55.6957 37.2326 55.7519 37.313 55.8305C37.3934 55.9092 37.4517 56.0075 37.4822 56.1158C37.5449 56.9164 37.5644 57.7198 37.5407 58.5226C37.5405 58.6869 37.4818 58.8458 37.375 58.9708L34.7239 58.9903Z" fill="#F8A21D"/>
<path d="M16.1853 56.1254C16.4387 56.2424 16.3997 56.4762 16.3997 56.6906V58.9902H11.2144C11.1657 58.8343 11.2924 58.7466 11.3898 58.6882C12.9201 57.8209 14.3724 56.827 15.9514 56.0475C15.9937 56.0433 16.0363 56.0481 16.0767 56.0615C16.117 56.075 16.154 56.0967 16.1853 56.1254Z" fill="#FCB616"/>
<path d="M37.375 58.9902V56.067C37.4084 56.0506 37.445 56.0421 37.4822 56.0421C37.5194 56.0421 37.5561 56.0506 37.5894 56.067C38.4537 56.4366 39.2258 56.9922 39.8507 57.6942C39.8994 57.8696 40.0651 57.9671 40.1529 58.1132L40.6987 58.9902H37.375Z" fill="#F7A01D"/>
<path d="M15.9612 56.1255L11.7505 58.62C11.5653 58.7369 11.3899 58.8734 11.2144 58.9903H11L12.8811 55.8137C13.7494 55.7211 14.625 55.7211 15.4933 55.8137C15.7077 55.7747 15.9417 55.8332 15.9612 56.1255Z" fill="#F79F1E"/>
<path d="M72.0153 58.9903C71.7132 58.7954 71.3135 58.8831 71.0406 58.659C71.0207 58.6058 71.0217 58.5471 71.0434 58.4947C71.0651 58.4422 71.1059 58.3999 71.1576 58.3764C71.7677 57.9487 72.4211 57.5862 73.107 57.2948C73.7113 57.4507 74.1401 57.9477 74.7347 58.1425C75.1931 58.3662 75.669 58.5519 76.1577 58.698C76.3137 58.7564 76.5476 58.698 76.5476 58.9903H72.0153Z" fill="#0772B9"/>
<path d="M76.5574 58.9903C75.9083 58.7995 75.2785 58.5483 74.6763 58.24C74.5496 58.0353 74.6763 57.9184 74.8225 57.8307C75.372 57.4682 75.9451 57.1427 76.5379 56.8563C76.5678 56.8349 76.6035 56.8234 76.6403 56.8234C76.677 56.8234 76.7128 56.8349 76.7426 56.8563L77.9902 58.9513L76.5574 58.9903Z" fill="#2C3791"/>
<path d="M52.8237 57.5481C53.5957 58.0967 54.4562 58.5087 55.3677 58.7661C55.5673 58.7799 55.7579 58.8547 55.9135 58.9805H51.2837C51.2253 58.8051 51.0108 58.9805 50.9328 58.8051C50.9256 58.7882 50.9219 58.7699 50.9219 58.7515C50.9219 58.7331 50.9256 58.7149 50.9328 58.6979C51.3995 58.0944 52.073 57.6848 52.8237 57.5481V57.5481Z" fill="#F37820"/>
<path d="M19.3823 44.5494C20.6494 42.3277 21.9198 40.106 23.1934 37.8843C23.4175 37.4946 23.6612 37.1048 23.9049 36.715C23.9767 36.6575 24.0662 36.6265 24.1583 36.6273C25.4546 36.6955 26.7607 36.6273 28.057 36.6273C28.3202 36.715 28.2422 36.9099 28.174 37.0756C28.0446 37.3974 27.8813 37.7044 27.6867 37.9915C27.3935 38.4283 27.1484 38.8955 26.9556 39.3849C26.6918 39.6805 26.4659 40.0079 26.2831 40.3594C26.0021 40.7832 25.7451 41.2223 25.5131 41.6748C25.2499 42.0841 25.0258 42.5128 24.7821 42.9318C24.5384 43.3508 24.2265 43.8186 24.0023 44.296C23.8269 44.5299 23.8074 44.9684 23.3298 44.832C23.0816 44.7117 22.8053 44.6611 22.5306 44.6858H20.0646C19.8307 44.7053 19.5773 44.7443 19.3823 44.5494Z" fill="#F9A71C"/>
<path d="M28.2129 36.715C27.2719 36.8269 26.3236 36.866 25.3766 36.8319C24.8862 36.8614 24.394 36.822 23.9146 36.715C25.2011 34.3764 26.5462 32.067 27.9108 29.7674C28.0109 29.6855 28.1329 29.6346 28.2617 29.6212C29.5306 29.5384 30.8037 29.5384 32.0727 29.6212C32.3066 29.7284 32.2676 29.9135 32.1994 30.1084C31.9752 30.5079 31.7413 30.9075 31.5074 31.307C31.2555 31.692 31.0276 32.0923 30.8251 32.5055C30.5132 32.983 30.2598 33.4799 29.9576 33.9574C29.6555 34.4349 29.4605 34.8539 29.1876 35.2826C28.9147 35.7114 28.7295 36.0719 28.5151 36.4714C28.4371 36.6176 28.3884 36.7637 28.2129 36.715Z" fill="#F9AB1B"/>
<path d="M15.9611 56.1255C15.7564 55.8819 15.4835 55.9208 15.2106 55.9014C14.4331 55.9504 13.6527 55.921 12.8811 55.8137C14.1222 53.5725 15.4023 51.3606 16.7214 49.1779C17.0406 49.0922 17.3768 49.0922 17.6961 49.1779C18.7123 49.1243 19.7306 49.1243 20.7468 49.1779C20.8041 49.2009 20.8569 49.2339 20.9028 49.2753C21.0587 49.6261 20.7566 49.8502 20.6299 50.1133C20.5032 50.3764 20.4252 50.4641 20.3277 50.6395C20.0451 51.1657 19.6942 51.6139 19.431 52.1888C18.9729 53.0171 18.4563 53.8064 18.008 54.6346C17.9397 54.771 17.7058 54.9075 17.9495 55.0926C18.8169 55.0926 19.6747 55.0926 20.5324 55.0926C20.7238 55.078 20.9161 55.078 21.1075 55.0926C21.2058 55.0757 21.3067 55.081 21.4028 55.1079C21.4989 55.1349 21.5878 55.1829 21.663 55.2485V55.3557H19.5675C19.1487 55.3801 18.7289 55.3801 18.3101 55.3557C17.9144 55.3203 17.5158 55.3718 17.1421 55.5064C16.7683 55.6411 16.4285 55.8557 16.1463 56.1352L15.9611 56.1255Z" fill="#F8A11D"/>
<path d="M46.118 39.5701C47.2194 41.3825 48.2916 43.2241 49.3052 45.0853C49.4222 47.1803 49.3052 49.2753 49.3052 51.3801C49.3129 51.4804 49.2985 51.5812 49.2632 51.6755C49.2278 51.7697 49.1723 51.8551 49.1006 51.9257C48.8666 52.0719 48.7302 51.9257 48.623 51.7406C48.4366 51.4896 48.2735 51.2222 48.1356 50.9416C47.9602 50.4446 47.5801 50.0548 47.3559 49.5774C47.1317 49.0999 46.7321 48.603 46.4884 48.0281C46.2447 47.4531 45.9621 47.1706 45.7281 46.7223C45.67 46.5752 45.67 46.4115 45.7281 46.2643C45.8126 45.7755 45.8388 45.2783 45.8061 44.7832C45.8061 43.2826 45.8061 41.782 45.8061 40.2814C45.8159 40.0086 45.6989 39.6773 46.118 39.5701Z" fill="#FDBC13"/>
<path d="M39.8508 28.6663C40.897 30.3812 41.9107 32.1514 42.8919 33.9769C43.0195 34.2853 43.0794 34.6177 43.0673 34.9513V40.0767C43.0978 40.2465 43.0928 40.4207 43.0525 40.5885C43.0123 40.7562 42.9377 40.9137 42.8334 41.0512C42.6092 41.1973 42.4923 41.0512 42.3753 40.8855C42.1511 40.5152 41.9269 40.1449 41.7125 39.7747C41.4981 39.4044 41.1472 38.8587 40.9035 38.3715C40.6598 37.8843 40.3674 37.5043 40.153 37.0365C40.0068 36.7832 39.8606 36.5396 39.6949 36.296C39.5571 36.0914 39.4825 35.8508 39.4805 35.6041C39.5682 34.2594 39.4805 32.9245 39.4805 31.5895C39.4805 30.8392 39.4805 30.0792 39.4805 29.3289C39.5389 29.056 39.4415 28.7442 39.8508 28.6663Z" fill="#FEC211"/>
<path d="M48.9641 51.9354C49.2468 51.8087 49.1785 51.5456 49.1785 51.3118C49.1785 49.4701 49.1785 47.6187 49.1785 45.777C49.1512 45.539 49.1953 45.2982 49.3052 45.0852C50.4164 46.8976 51.4885 48.7393 52.5217 50.6102C52.4377 50.9079 52.4015 51.2171 52.4145 51.5261C52.4145 53.1437 52.4145 54.7515 52.4145 56.3982C52.4145 56.5931 52.5412 56.8562 52.2001 56.9244C51.8589 56.9926 51.5958 56.4957 51.3521 56.2131C51.1084 55.9305 50.855 55.5018 50.6503 55.1217C50.4456 54.7417 50.2994 54.5273 50.1045 54.2253C49.9096 53.9232 49.7341 53.6309 49.5684 53.3191C49.4027 53.0073 49.0616 52.5493 48.9349 52.101C48.9262 52.0441 48.9365 51.9859 48.9641 51.9354V51.9354Z" fill="#FDB915"/>
<path d="M42.6677 40.9829C42.7601 40.8915 42.8288 40.779 42.8679 40.655C42.907 40.5311 42.9152 40.3995 42.8919 40.2716V33.9379C44.0095 35.7828 45.0849 37.6472 46.1181 39.531C45.9037 39.6967 45.9914 39.9306 45.9914 40.1449C45.9914 41.9671 45.9914 43.799 45.9914 45.6309C45.9914 45.9038 45.9914 46.1863 45.7672 46.3812C45.2994 46.2058 45.2701 45.6894 44.9972 45.4068C44.7243 45.1242 44.5586 44.6662 44.3442 44.2862C44.1297 43.9062 43.9543 43.6334 43.7788 43.3118C43.5839 42.8246 43.2233 42.4446 42.9991 41.9768C42.8919 41.6358 42.4923 41.4214 42.6677 40.9829Z" fill="#FEBF12"/>
<path d="M39.8507 28.6663C39.6558 28.8222 39.7337 29.0365 39.7337 29.2217C39.7337 31.0828 39.7337 32.9537 39.7337 34.8149C39.7442 35.1213 39.7047 35.4274 39.6168 35.7211C39.2659 35.7211 39.2854 35.3216 39.1002 35.1267C38.915 34.9318 38.8175 34.5907 38.6518 34.3471C38.4861 34.1035 38.3789 33.8112 38.1937 33.5676C38.0085 33.324 37.8136 32.7978 37.5504 32.447C37.2873 32.0962 37.1898 31.7844 36.9851 31.4726C36.8618 31.3006 36.7755 31.1048 36.7317 30.8977C36.7317 30.6443 36.527 30.5372 36.449 30.3423C36.4395 30.2809 36.4395 30.2185 36.449 30.1571C36.5563 29.7271 36.6055 29.2847 36.5952 28.8417V24.1644C36.5952 23.8819 36.5368 23.57 36.7902 23.3362C37.8038 25.0804 38.876 26.8538 39.8507 28.6663Z" fill="#FEC50F"/>
<path d="M20.9321 49.2947C19.8307 49.2947 18.7293 49.2947 17.6376 49.2947C17.3281 49.301 17.0194 49.2616 16.7214 49.1778C17.5597 47.609 18.4564 46.0694 19.3921 44.5493H22.8912C23.1446 44.5493 23.4273 44.5493 23.4663 44.8806C23.632 45.1145 23.4663 45.2801 23.3493 45.4653C22.9984 46.0109 22.6963 46.5859 22.3746 47.1413C22.053 47.6967 21.858 48.0377 21.5949 48.486C21.3317 48.7783 21.3317 49.1876 20.9321 49.2947Z" fill="#F8A41C"/>
<path d="M36.7318 23.3265C36.7318 25.1584 36.7318 26.9903 36.7318 28.8222C36.7753 29.3331 36.6985 29.847 36.5076 30.3228C36.4869 30.3394 36.4611 30.3485 36.4345 30.3485C36.4079 30.3485 36.3822 30.3394 36.3614 30.3228C36.0008 30.0013 35.9228 29.4946 35.6304 29.1243C35.1041 28.1499 34.5095 27.3021 34.0709 26.3277C34.0411 26.0036 34.0411 25.6774 34.0709 25.3533C34.0709 23.4921 34.0709 21.631 34.0709 19.7601C34.0708 19.4873 34.1307 19.2179 34.2463 18.9708C34.5335 19.2453 34.7594 19.5773 34.9091 19.9452C35.4842 21.1048 36.108 22.2254 36.7318 23.3265Z" fill="#FEC70E"/>
<path d="M34.1683 25.4702V26.4446C34.1803 26.4671 34.1865 26.4922 34.1865 26.5177C34.1865 26.5432 34.1803 26.5683 34.1683 26.5908C33.7687 27.4288 33.1936 28.1986 32.794 29.0268C32.5698 29.251 32.6088 29.7089 32.1605 29.7479H27.8816L30.3865 25.4507C31.6353 25.1998 32.9222 25.2064 34.1683 25.4702V25.4702Z" fill="#FAAE1A"/>
<path d="M66.7132 39.5895C67.1379 40.2119 67.519 40.8631 67.8536 41.5383C67.9218 41.7429 67.7561 41.8404 67.6196 41.9183C66.6449 42.464 65.719 43.0487 64.7443 43.5846C64.6985 43.5845 64.6532 43.575 64.6112 43.5565C64.5693 43.5381 64.5316 43.5111 64.5006 43.4774C63.9841 42.961 63.9548 42.9512 63.3115 43.3215L61.5571 44.2959C61.3524 44.4129 61.1575 44.5882 60.904 44.4031C60.5413 43.8877 60.2156 43.3471 59.9294 42.7856C59.8709 42.4153 60.1925 42.3471 60.4069 42.2009C61.2943 41.7573 62.1365 41.2286 62.9216 40.6224C63.4772 41.0998 63.9743 40.8465 64.4909 40.5152C65.0075 40.1839 65.5338 39.9208 66.0601 39.6187C66.2941 39.5505 66.489 39.4141 66.7132 39.5895Z" fill="#1F53A1"/>
<path d="M34.1683 25.4702H30.4158C31.6244 23.2875 32.8427 21.1145 34.1781 19L34.1683 25.4702Z" fill="#FAB119"/>
<path d="M63.8572 34.6297C64.3881 35.4432 64.8729 36.2858 65.3095 37.1535C65.2023 37.4361 64.9196 37.5238 64.6955 37.6699C64.0327 38.0792 63.3504 38.43 62.6876 38.8197C62.5959 38.8977 62.4879 38.954 62.3714 38.9843C62.255 39.0147 62.1331 39.0184 62.0151 38.9951C61.7422 38.849 61.6739 38.5274 61.4692 38.3228C61.1281 37.8161 60.9332 37.2412 60.592 36.7442C60.5587 36.6847 60.5413 36.6176 60.5413 36.5493C60.5413 36.4811 60.5587 36.414 60.592 36.3545C61.5667 35.8283 62.5414 35.38 63.4381 34.7369C63.4937 34.6859 63.5611 34.6494 63.6342 34.6307C63.7073 34.612 63.7839 34.6117 63.8572 34.6297V34.6297Z" fill="#1D5BA7"/>
<path d="M61.9859 38.927C62.5557 38.7843 63.0899 38.5255 63.5551 38.1669C64.1594 37.8649 64.7248 37.4946 65.3096 37.1925C65.8262 37.9754 66.2949 38.7889 66.7131 39.6286C65.9703 39.9138 65.261 40.2798 64.5981 40.7199C64.4337 40.798 64.2743 40.8858 64.1205 40.983C64.036 41.0607 63.9341 41.1169 63.8233 41.1467C63.7125 41.1765 63.5961 41.1791 63.4841 41.1542C63.372 41.1293 63.2677 41.0777 63.1799 41.0038C63.0922 40.9299 63.0236 40.8358 62.9801 40.7297C62.5512 40.4081 62.4342 39.8722 62.1223 39.4629C62.0444 39.268 61.8982 39.1316 61.9859 38.927Z" fill="#1D57A4"/>
<path d="M49.5977 27.877C49.9956 27.086 50.4382 26.3182 50.9232 25.5774C52.0636 26.0996 53.1534 26.7259 54.1787 27.4483C54.2372 27.8478 53.9253 28.1011 53.7596 28.4227C53.5939 28.7443 53.5549 28.8417 53.4379 29.0463C53.321 29.251 53.1748 29.7089 52.7946 29.8551C51.8199 29.4361 50.9525 28.8125 50.007 28.3155C49.8511 28.2083 49.5977 28.1791 49.5977 27.877Z" fill="#284297"/>
<path d="M72.9901 50.503C73.487 51.2416 73.9268 52.0169 74.306 52.8222C73.8287 53.2601 73.2819 53.6158 72.688 53.8745C72.1787 54.1602 71.6931 54.486 71.2357 54.849C70.7581 54.7613 70.7191 54.2838 70.4657 54.0012C70.3729 53.7044 70.2383 53.4222 70.0661 53.1632C69.9686 52.9001 69.6859 52.6955 69.7639 52.3642C70.4717 51.8397 71.2253 51.3798 72.0155 50.9902C72.3371 50.8051 72.6003 50.4738 72.9901 50.503Z" fill="#284197"/>
<path d="M61.4207 30.4397C61.9319 31.1676 62.3756 31.9406 62.7462 32.7491C62.6585 33.0122 62.4051 33.0609 62.2102 33.1778C61.5084 33.6066 60.7774 33.9866 60.0756 34.4153C59.9923 34.4874 59.8939 34.5397 59.7875 34.5684C59.6812 34.5971 59.5698 34.6014 59.4615 34.581C59.1841 34.3246 58.959 34.0168 58.7988 33.6748C58.6136 33.2168 58.1652 32.866 58.1847 32.3106C58.7863 31.8376 59.4404 31.4354 60.1341 31.112C60.5178 30.8105 60.954 30.5826 61.4207 30.4397V30.4397Z" fill="#1D61AC"/>
<path d="M66.2745 53.7283C65.7677 52.978 65.3485 52.1888 64.9197 51.3995C65.9138 50.693 66.9866 50.1044 68.1167 49.6455C68.565 49.7917 68.5943 50.2789 68.8672 50.6199C69.0524 51.0877 69.5007 51.4384 69.4715 51.9939C68.4519 52.6532 67.3831 53.2331 66.2745 53.7283V53.7283Z" fill="#1E64AE"/>
<path d="M53.1552 36.6077C52.7881 37.412 52.3442 38.1788 51.8296 38.8976C50.7173 38.3626 49.6921 37.6629 48.7886 36.8221C48.8373 36.2082 49.3052 35.7795 49.5098 35.2338C49.695 35.0194 49.734 34.6784 50.0654 34.5907C51.0401 35.1461 51.9563 35.8087 52.9212 36.3739C53.0132 36.4365 53.0926 36.5158 53.1552 36.6077V36.6077Z" fill="#1E64AE"/>
<path d="M50.0654 34.6199L49.6268 35.2825C49.4319 35.419 49.2759 35.2825 49.12 35.2143C48.3402 34.7564 47.5507 34.3471 46.771 33.8891C46.5858 33.7819 46.3616 33.6845 46.4201 33.4019C46.738 32.7526 47.1029 32.1273 47.5118 31.531C47.7847 31.3654 47.9894 31.531 48.2038 31.6869C49.0713 32.1741 49.9192 32.6613 50.816 33.1291C50.856 33.1676 50.8804 33.2197 50.8842 33.2752C50.7478 33.7935 50.4633 34.2608 50.0654 34.6199V34.6199Z" fill="#264B9C"/>
<path d="M69.7931 44.8806C70.2062 45.5085 70.5837 46.1592 70.9237 46.8295C70.9237 47.0536 70.6898 47.151 70.5241 47.2485C69.7346 47.7162 68.9256 48.1547 68.1458 48.6321C68.0219 48.7165 67.8765 48.7638 67.7267 48.7685C67.3563 48.6224 67.2784 48.2521 67.0932 47.9598C66.908 47.6675 66.5961 47.2485 66.5376 46.81C66.5398 46.7179 66.5686 46.6285 66.6205 46.5524C66.6723 46.4763 66.7451 46.4169 66.83 46.3812C67.678 45.894 68.5065 45.4068 69.3739 44.9196C69.4374 44.8846 69.5073 44.8631 69.5794 44.8564C69.6515 44.8497 69.7243 44.8579 69.7931 44.8806V44.8806Z" fill="#264B9C"/>
<path d="M71.2551 54.81C71.4013 54.2935 71.9178 54.2156 72.2882 53.9817C72.9413 53.553 73.6528 53.2022 74.3448 52.8221C74.7813 53.4464 75.1784 54.0973 75.5339 54.771C75.2518 55.049 74.9215 55.2735 74.5592 55.4336C73.877 55.8039 73.2337 56.2521 72.5221 56.5834C72.2395 56.5834 72.103 56.369 71.9568 56.1839C71.6417 55.8054 71.3914 55.3774 71.2161 54.9172C71.2211 54.879 71.2344 54.8424 71.2551 54.81V54.81Z" fill="#293E95"/>
<path d="M59.4517 34.5128C60.0149 34.3222 60.5469 34.0497 61.0307 33.704C61.6252 33.4312 62.1808 33.0707 62.7461 32.7296C63.1649 33.3266 63.5364 33.9554 63.8573 34.6102L61.2938 36.1109C61.077 36.2823 60.81 36.3781 60.5336 36.3837C60.0462 36.1401 59.9975 35.5847 59.6856 35.2144C59.6174 34.9805 59.3445 34.8149 59.4517 34.5128Z" fill="#1C5EA9"/>
<path d="M67.7268 48.7783L70.9238 46.8295C71.3595 47.4413 71.7349 48.094 72.0447 48.7783C71.4152 49.2754 70.7319 49.7003 70.0076 50.0451C69.6372 50.2692 69.3155 50.6005 68.8282 50.5518C68.4676 50.3471 68.526 49.8599 68.1751 49.665C67.8243 49.4702 67.6196 49.1778 67.7268 48.7783Z" fill="#27489A"/>
<path d="M50.8354 33.1876C50.1933 33.0008 49.5871 32.7076 49.042 32.3204C48.5613 32.0038 48.0483 31.7392 47.5117 31.5311C47.8437 30.8584 48.2181 30.2075 48.6326 29.5823C49.1154 29.689 49.5682 29.902 49.9582 30.2059C50.621 30.5567 51.2545 30.966 51.9076 31.2973C51.9953 31.4239 51.9076 31.5506 51.9076 31.6773C51.7224 32.0086 51.5079 32.3204 51.3422 32.6517C51.196 32.8466 51.1181 33.1097 50.8354 33.1876Z" fill="#27489A"/>
<path d="M54.1493 27.4579L51.1278 25.7722C51.0498 25.7722 51.0011 25.6358 50.9426 25.5773C51.2627 24.926 51.6274 24.2976 52.0343 23.6967C52.087 23.6593 52.15 23.6393 52.2146 23.6393C52.2792 23.6393 52.3422 23.6593 52.3949 23.6967C53.1942 24.1644 54.0226 24.5639 54.7829 25.0901C54.8606 25.5415 54.8606 26.0029 54.7829 26.4543C54.7705 26.5412 54.7476 26.6263 54.7147 26.7076C54.6114 27.0118 54.4133 27.2748 54.1493 27.4579Z" fill="#293E94"/>
<path d="M63.0678 48.1936L61.9956 46.313C62.6336 45.8076 63.3268 45.3761 64.0619 45.0268C64.3891 44.756 64.7771 44.5687 65.1926 44.4811C65.5727 44.6078 65.6312 45.0073 65.8456 45.2704C66.0601 45.5335 66.3914 45.9622 66.333 46.4397C65.3672 47.0797 64.3684 47.6684 63.3407 48.2034C63.2981 48.2249 63.2507 48.2353 63.203 48.2336C63.1552 48.2319 63.1087 48.2182 63.0678 48.1936V48.1936Z" fill="#1D5BA7"/>
<path d="M72.4639 56.5737C73.4314 55.888 74.4591 55.2912 75.5341 54.7905L76.7427 56.8855C76.1677 57.2071 75.5829 57.5092 75.0176 57.86C74.8713 57.9477 74.6764 58.0159 74.6764 58.2497C74.1246 58.0164 73.604 57.7153 73.1267 57.3533C72.8245 57.1584 72.5029 56.9927 72.4639 56.5737Z" fill="#2B3A93"/>
<path d="M65.1927 44.5493L62.0055 46.313C61.6008 45.7141 61.2361 45.0891 60.9138 44.4421C61.6538 44.1397 62.3649 43.7712 63.0386 43.341C63.1751 43.2728 63.2921 43.1851 63.4188 43.1169C64.1205 42.7564 64.1498 42.7661 64.5884 43.419C64.637 43.4719 64.6928 43.5179 64.7541 43.5554C65.0367 43.8282 65.3097 44.0913 65.1927 44.5493Z" fill="#1D57A4"/>
<path d="M65.1925 44.5493C65.1925 44.1693 64.8319 43.9159 64.7539 43.5749C65.5894 42.9706 66.4691 42.4299 67.3856 41.9573C67.5513 41.8502 67.7657 41.8112 67.8534 41.5968C68.2738 42.2097 68.6329 42.8625 68.9256 43.5456C68.5654 43.8784 68.1498 44.1455 67.6975 44.3349C67.0804 44.7515 66.4281 45.1134 65.7481 45.4165L65.1925 44.5493Z" fill="#22509F"/>
<path d="M68.8281 50.62L72.0154 48.8466C72.3994 49.3617 72.7263 49.9172 72.99 50.5031C71.9569 51.1949 70.8652 51.7796 69.7833 52.374C69.5104 52.374 69.4324 52.1791 69.4519 51.9355C69.3252 51.4678 68.9548 51.0975 68.8281 50.62Z" fill="#284598"/>
<path d="M67.7268 48.7783C67.8048 49.1388 68.1361 49.3921 68.1751 49.7527C67.3926 50.099 66.6367 50.5029 65.9139 50.961C65.6122 51.1588 65.284 51.3129 64.9392 51.4189C64.598 50.8245 64.2569 50.2302 63.906 49.6358C64.832 49.0706 65.7969 48.5639 66.7423 48.0182C66.8788 47.9403 67.0348 47.8526 67.1907 48.0182L67.7268 48.7783Z" fill="#1D61AC"/>
<path d="M61.4205 30.4397C60.3989 31.1304 59.3343 31.7553 58.2332 32.3106C57.9506 32.3106 57.9408 32.0377 57.7946 31.9013C57.6484 31.7649 57.4632 31.3556 57.3073 31.0731C57.1513 30.7905 57.1026 30.7223 57.2196 30.5176C58.0968 29.9914 59.0032 29.5432 59.8804 28.978C60.0754 28.8514 60.2996 28.7052 60.5432 28.8903C60.8844 29.3776 61.1781 29.8964 61.4205 30.4397V30.4397Z" fill="#1E64AE"/>
<path d="M51.937 31.3167C51.471 31.2258 51.0333 31.0254 50.6601 30.732L48.623 29.5627C48.9079 28.9786 49.2336 28.4153 49.5977 27.877L52.3366 29.4847L52.8045 29.7673C52.9019 30.0694 52.668 30.2545 52.5608 30.4787C52.4536 30.7028 52.3074 31.151 51.937 31.3167Z" fill="#284598"/>
<path d="M48.8472 36.8319C49.6274 37.4179 50.441 37.958 51.2839 38.4494C51.5023 38.548 51.6907 38.7026 51.8297 38.8977C51.4594 39.7454 50.933 40.5152 50.4457 41.3825L48.2332 37.4848C48.4281 37.2607 48.4378 36.8514 48.8472 36.8319Z" fill="#1D61AC"/>
<path d="M59.4517 34.5128C59.5199 34.7564 59.7539 34.9123 59.7831 35.1754C59.8123 35.4385 59.6466 35.536 59.4712 35.6334L57.1027 36.9879C57.0402 37.0405 56.9648 37.0755 56.8843 37.0892C56.8037 37.1029 56.721 37.0948 56.6446 37.0658C56.2783 36.5357 55.9525 35.9787 55.6699 35.3995C56.6679 34.6939 57.7399 34.0992 58.8669 33.6261L59.4517 34.5128Z" fill="#284498"/>
<path d="M56.6445 37.0852C57.6192 36.559 58.5452 36.0328 59.4809 35.4969C59.5934 35.4087 59.6948 35.3073 59.783 35.1948C60.1339 35.5359 60.2509 36.0328 60.553 36.4031L60.6602 36.7344C60.7967 36.939 60.6602 37.0462 60.514 37.1339C59.6856 37.6796 58.8181 38.1083 57.9506 38.6248C57.8884 38.6659 57.8156 38.6877 57.7411 38.6877C57.6665 38.6877 57.5937 38.6659 57.5315 38.6248L56.6445 37.0852Z" fill="#27489A"/>
<path d="M58.8962 33.626C57.8754 34.2946 56.8069 34.8873 55.6992 35.3995L54.8123 33.9476V33.8794C54.8323 33.8315 54.8622 33.7883 54.9 33.7527C55.6602 33.2947 56.44 32.866 57.21 32.4275C57.4727 32.2732 57.715 32.0866 57.9313 31.8721L58.2626 32.3106C58.3699 32.7978 58.7305 33.1875 58.8962 33.626Z" fill="#294096"/>
<path d="M67.142 47.9695C66.3517 48.3265 65.5864 48.7367 64.8515 49.1973C64.5667 49.416 64.2316 49.56 63.8768 49.6163L63.0581 48.1936L66.2843 46.4202C66.5377 46.4202 66.5182 46.7027 66.6157 46.8684C66.7522 47.2582 67.142 47.5407 67.142 47.9695Z" fill="#1C5DA9"/>
<path d="M66.6255 46.8294L66.2941 46.3812L65.7385 45.2801C66.4514 44.7529 67.2117 44.293 68.0095 43.9062C68.2759 43.6813 68.5888 43.5182 68.9258 43.4287C69.2674 43.8793 69.5584 44.3662 69.7932 44.8806L67.0251 46.4494C66.8594 46.5469 66.645 46.6151 66.6255 46.8294Z" fill="#234E9E"/>
<path d="M62.2101 39.3654C62.5097 39.7807 62.7676 40.2246 62.9801 40.6906C62.9217 41.1096 62.5415 41.1973 62.2589 41.3727C61.6351 41.7429 60.9918 42.0937 60.3582 42.4445C60.1914 42.5235 60.0571 42.6578 59.9781 42.8246C59.6081 42.2865 59.2822 41.7195 59.0034 41.1291C60.005 40.4264 61.0803 39.835 62.2101 39.3654Z" fill="#22509F"/>
<path d="M57.5315 38.6053C58.5902 38.1251 59.6074 37.558 60.5725 36.9099C60.5725 36.9099 60.631 36.7832 60.6602 36.715C61.0225 37.1903 61.3207 37.7112 61.5472 38.2643C61.528 38.3332 61.4947 38.3973 61.4494 38.4527C61.4041 38.5081 61.3478 38.5534 61.284 38.5859C60.4848 39.0731 59.6758 39.5603 58.8668 39.9695C58.7109 40.0475 58.5452 40.1644 58.36 40.028L57.5315 38.6053Z" fill="#264B9C"/>
<path d="M58.8864 26.0353C59.1956 26.4704 59.4632 26.9337 59.6856 27.419C59.7538 27.5846 59.6369 27.6528 59.5296 27.721C58.555 28.2764 57.668 28.8221 56.7128 29.3386C56.6427 29.3586 56.5684 29.3586 56.4984 29.3386C56.3327 29.2801 56.2547 29.1339 56.1475 28.9975C55.9915 28.6175 55.5724 28.3349 55.6601 27.8477C56.7225 27.2436 57.785 26.6004 58.8864 26.0353Z" fill="#1A68B1"/>
<path d="M48.8472 36.8319C48.5353 36.9489 48.623 37.4361 48.2332 37.4945C47.5801 36.3837 46.9466 35.2631 46.2838 34.1718C46.0791 33.8405 46.2253 33.6358 46.4202 33.402C46.6054 33.7917 47.0148 33.86 47.3364 34.0451C48.0638 34.504 48.8191 34.9173 49.5977 35.2826L48.8472 36.8319Z" fill="#234E9F"/>
<path d="M56.4692 29.2899C57.5414 28.6565 58.672 28.1109 59.6857 27.3411C60.0165 27.804 60.3036 28.2965 60.5434 28.8124C59.7693 29.1062 59.0382 29.5028 58.3699 29.9915C58.0068 30.2347 57.6093 30.422 57.1905 30.5469C57.1691 30.562 57.1436 30.5701 57.1174 30.5701C57.0912 30.5701 57.0657 30.562 57.0443 30.5469C56.7209 30.2017 56.519 29.7603 56.4692 29.2899V29.2899Z" fill="#1E66B0"/>
<path d="M54.7051 25.0317C53.9555 24.7546 53.2421 24.3881 52.5803 23.9404C52.4141 23.8277 52.2293 23.7452 52.0344 23.6968C52.3657 23.0217 52.7435 22.3706 53.1651 21.7479C53.8009 21.9035 54.377 22.2424 54.822 22.7223C54.8562 23.3325 54.8562 23.9441 54.822 24.5543C54.8421 24.6374 54.8419 24.7241 54.8215 24.8072C54.8012 24.8903 54.7613 24.9672 54.7051 25.0317V25.0317Z" fill="#2B3A93"/>
<path d="M57.473 23.5798C57.7689 23.9976 58.0266 24.4411 58.243 24.905C58.2613 24.9376 58.2665 24.9759 58.2574 25.0122C58.2483 25.0484 58.2257 25.0798 58.1942 25.0999C57.1887 25.7488 56.1438 26.3346 55.0655 26.8539C54.994 26.8503 54.9258 26.8222 54.8726 26.7742C54.8193 26.7263 54.7842 26.6616 54.7731 26.5908C54.7635 26.5327 54.7635 26.4735 54.7731 26.4154C54.7731 26.0159 54.7731 25.6164 54.7731 25.2071C55.119 24.8657 55.53 24.5973 55.9817 24.4178C56.4554 24.0987 56.9541 23.8185 57.473 23.5798V23.5798Z" fill="#136BB4"/>
<path d="M50.0654 34.62L50.8354 33.3046C51.6241 33.9 52.444 34.453 53.2916 34.9611C53.4963 35.1072 53.74 35.2242 53.7985 35.5068C53.6499 35.9085 53.4322 36.2811 53.1552 36.6079C52.0593 36.0539 51.0238 35.3877 50.0654 34.62V34.62Z" fill="#1A68B1"/>
<path d="M69.4911 51.9354L69.8225 52.3739C69.8225 52.6662 70.1539 52.8416 70.1636 53.1437C69.5394 53.5717 68.8882 53.959 68.2142 54.3033C67.8019 54.5359 67.4017 54.7896 67.0154 55.0633C66.7138 54.6458 66.4558 54.1985 66.2454 53.7284C67.2762 53.0427 68.3618 52.443 69.4911 51.9354Z" fill="#1A68B1"/>
<path d="M71.2455 54.9172L72.0155 56.1255C71.1512 56.7459 70.2349 57.2903 69.2767 57.7528C68.7783 57.4573 68.3521 57.0545 68.0291 56.5737C68.6377 56.1081 69.2906 55.7034 69.9784 55.3654C70.2124 55.2095 70.456 55.0926 70.6997 54.9562C70.9434 54.8198 71.0408 54.7613 71.2455 54.9172Z" fill="#116CB5"/>
<path d="M55.0365 26.7954L58.2432 24.905C58.5005 25.2558 58.7163 25.6351 58.8865 26.0354C58.4651 26.4451 57.9731 26.7752 57.4342 27.0098C56.9015 27.4002 56.3134 27.7089 55.6895 27.9257C55.4693 27.8383 55.285 27.6791 55.1665 27.474C55.048 27.2689 55.0022 27.0298 55.0365 26.7954Z" fill="#1769B3"/>
<path d="M69.2766 57.7528C69.8052 57.2931 70.3999 56.9153 71.0408 56.6322C71.3275 56.3983 71.6593 56.2258 72.0155 56.1255C72.1315 56.3049 72.2844 56.4577 72.4638 56.5737L73.1266 57.3435C72.404 57.737 71.7073 58.1764 71.0408 58.659C70.3939 58.4885 69.7919 58.1792 69.2766 57.7528V57.7528Z" fill="#0B70B8"/>
<path d="M58.3699 40.0086C59.4712 39.4938 60.536 38.9045 61.5571 38.2449C61.8203 38.3813 61.8495 38.6834 61.9957 38.9075L62.2199 39.346C61.1955 40.0114 60.1238 40.6009 59.0132 41.1097C58.7561 40.7692 58.5402 40.3996 58.3699 40.0086V40.0086Z" fill="#244D9E"/>
<path d="M71.2455 54.9171C70.4894 55.1963 69.7669 55.5591 69.0914 55.9987L68.029 56.5736C67.7905 56.3722 67.6062 56.1142 67.4929 55.8233C67.376 55.5992 67.4929 55.4725 67.6781 55.3751C68.4968 54.8586 69.3448 54.4007 70.1928 53.9232C70.2496 53.8782 70.3201 53.8536 70.3926 53.8536C70.4652 53.8536 70.5356 53.8782 70.5924 53.9232L71.2552 54.8099C71.2568 54.8459 71.2535 54.882 71.2455 54.9171V54.9171Z" fill="#146BB4"/>
<path d="M54.8123 33.8502V33.9477C54.5979 34.0841 54.5101 34.3277 54.3639 34.5128C54.2177 34.698 54.1203 34.5128 54.013 34.5128C53.1456 33.9769 52.2781 33.441 51.4301 32.8758C51.3515 32.8237 51.2957 32.7435 51.2742 32.6517C51.3804 32.2878 51.5707 31.954 51.8297 31.6773C52.0344 31.5798 52.1806 31.6773 52.3268 31.8137C53.1358 32.3106 53.9253 32.7881 54.7441 33.3143C54.8317 33.4785 54.856 33.6692 54.8123 33.8502V33.8502Z" fill="#146BB4"/>
<path d="M57.473 23.5797C56.6622 24.2195 55.7667 24.7442 54.8121 25.1388C54.7487 24.5989 54.7291 24.0546 54.7537 23.5115C54.7537 23.3556 54.8609 23.2874 54.9778 23.2289C55.5724 22.9366 56.1085 22.5468 56.703 22.2545C57.002 22.6703 57.2599 23.1141 57.473 23.5797Z" fill="#116DB5"/>
<path d="M51.2741 32.6322L54.0227 34.3472C54.1299 34.4154 54.2176 34.5128 54.3638 34.5128C54.2373 34.8698 54.0456 35.2002 53.7985 35.4873C53.0189 34.8957 52.2017 34.3554 51.352 33.8697C51.1181 33.7236 50.8842 33.5969 50.8354 33.2851V33.1876C50.9914 33.0122 51.0596 32.7589 51.2741 32.6322Z" fill="#1769B3"/>
<path d="M70.5923 53.9232C69.5551 54.4016 68.5577 54.962 67.6098 55.5992C67.5513 55.5992 67.5318 55.7454 67.4928 55.8233C67.2938 55.6027 67.1413 55.3442 67.0444 55.0633C67.0442 54.9992 67.0602 54.9362 67.0908 54.88C67.1215 54.8238 67.1659 54.7762 67.2199 54.7417C68.1582 54.1451 69.1351 53.6113 70.1439 53.1437C70.3866 53.3375 70.5468 53.616 70.5923 53.9232V53.9232Z" fill="#1769B3"/>
<path d="M54.705 22.6053C54.1544 22.3881 53.6362 22.0963 53.165 21.7381L54.6173 19.1948C54.8123 19.1948 54.8318 19.38 54.8415 19.5261C54.8415 20.5005 54.8415 21.3873 54.8415 22.313C54.8358 22.4245 54.7869 22.5293 54.705 22.6053V22.6053Z" fill="#2C3891"/>
<path d="M56.703 22.2448C56.1844 22.778 55.5362 23.1675 54.8219 23.3752C54.7488 22.8654 54.7292 22.3494 54.7634 21.8356C54.9876 21.3776 55.4749 21.2899 55.8843 21.1145C55.9915 21.1145 56.0792 21.1925 56.1377 21.2802C56.3707 21.5735 56.561 21.8983 56.703 22.2448V22.2448Z" fill="#0D6FB7"/>
<path d="M56.1377 21.2802C55.894 21.095 55.7478 21.2802 55.5626 21.3971C55.3337 21.5417 55.0839 21.6502 54.8219 21.7187C54.7244 20.8183 54.7244 19.9101 54.8219 19.0098C55.3182 19.7316 55.7581 20.4907 56.1377 21.2802V21.2802Z" fill="#0B72B9"/>
<path d="M54.8121 19.0098C54.8121 19.9062 54.8121 20.8125 54.8121 21.7187V23.3752C54.8121 23.9598 54.8121 24.5542 54.8121 25.1389V26.5713C54.7977 26.585 54.7785 26.5926 54.7585 26.5926C54.7386 26.5926 54.7194 26.585 54.7049 26.5713V22.6054C54.7049 21.631 54.7049 20.6566 54.7049 19.6821C54.7049 19.5067 54.7634 19.3216 54.627 19.1657C54.6659 19.1072 54.6562 18.9611 54.8121 19.0098Z" fill="#24479C"/>
<path d="M22.3064 47.0828L23.2811 45.4263C23.3506 45.4025 23.426 45.4025 23.4955 45.4263C24.5299 45.947 25.5265 46.5396 26.4781 47.1997C26.2129 47.8187 25.8864 48.4096 25.5034 48.9634C24.3925 48.4168 23.3238 47.7882 22.3064 47.0828V47.0828Z" fill="#FAC015"/>
<path d="M29.8699 33.9574C30.1057 33.4476 30.4001 32.9669 30.7471 32.525C31.2134 32.6789 31.6537 32.9022 32.0532 33.1876C32.6847 33.5119 33.2966 33.8731 33.8856 34.2692L33.0279 35.8381C32.833 36.0037 32.6478 35.8868 32.4723 35.8381L30.2013 34.4836C30.0259 34.3764 29.7334 34.2887 29.8699 33.9574Z" fill="#F5961E"/>
<path d="M46.6735 47.9695L47.5507 49.5091C46.4786 50.162 45.3967 50.7271 44.3245 51.3897C43.9916 50.8989 43.6951 50.3843 43.4376 49.8501C43.3791 49.6163 43.5448 49.4994 43.7007 49.4117C44.5097 48.9634 45.309 48.4372 46.1277 48.0182C46.2836 47.9403 46.4591 47.8039 46.6735 47.9695Z" fill="#F69C1D"/>
<path d="M45.0947 45.3191L45.7575 46.4202L45.8744 46.7515C45.3309 47.1805 44.7427 47.5496 44.12 47.8526C43.6716 48.1254 43.233 48.4275 42.7652 48.6614C42.4313 48.1987 42.1409 47.7061 41.8977 47.19C41.8977 46.9854 41.9854 46.8782 42.1219 46.7905C42.9636 46.2588 43.8323 45.771 44.7243 45.3288C44.779 45.2928 44.8426 45.2728 44.9081 45.2711C44.9736 45.2694 45.0382 45.286 45.0947 45.3191V45.3191Z" fill="#F7A51D"/>
<path d="M28.2131 36.715L28.4373 36.5006C29.4119 37.0171 30.3866 37.6212 31.3613 38.1669C31.4367 38.216 31.4946 38.2876 31.527 38.3715C31.3301 38.8826 31.0645 39.3645 30.7375 39.8039C30.5913 39.9306 30.4646 39.8039 30.3379 39.8039C29.5581 39.3752 28.7881 38.9367 28.0181 38.4787C27.8021 38.3772 27.6343 38.1954 27.5503 37.972L28.2131 36.715Z" fill="#F7A21D"/>
<path d="M41.0204 38.2643C41.2348 38.7613 41.6832 39.1316 41.7904 39.6967C41.2692 40.0886 40.7147 40.4342 40.1334 40.7296C39.6461 41.0122 39.1587 41.3143 38.6811 41.6066C38.3401 41.0969 38.0371 40.5628 37.7747 40.0086C38.1194 39.6516 38.5342 39.3696 38.993 39.1803C39.4706 38.8782 39.9677 38.6151 40.4648 38.3228C40.6305 38.2546 40.8254 38.1182 41.0204 38.2643Z" fill="#FAC015"/>
<path d="M25.4545 41.6846C25.598 41.1904 25.855 40.7366 26.205 40.3594C26.2691 40.3235 26.3412 40.3047 26.4146 40.3047C26.488 40.3047 26.5601 40.3235 26.6242 40.3594C27.5988 40.8953 28.5735 41.3922 29.4313 41.9866C29.1882 42.5365 28.8877 43.0591 28.5345 43.5457C27.5599 43.0098 26.5852 42.4251 25.6105 41.9184C25.5617 41.8892 25.4155 41.86 25.4545 41.6846Z" fill="#F8AE1B"/>
<path d="M44.3245 51.3897C44.6071 50.883 45.1627 50.7758 45.6013 50.5128C46.19 50.078 46.8495 49.7483 47.5507 49.5383C47.8138 49.9768 48.0673 50.4251 48.3207 50.8635C47.2875 51.5456 46.1959 52.1303 45.1237 52.7442C44.8123 52.3208 44.5445 51.867 44.3245 51.3897V51.3897Z" fill="#F5961E"/>
<path d="M22.3064 47.0829C23.4342 47.5938 24.5056 48.2208 25.5034 48.9538C25.2908 49.4197 25.0329 49.8636 24.7334 50.279C23.6176 49.7451 22.5483 49.1193 21.5364 48.4081L22.3064 47.0829Z" fill="#FAC513"/>
<path d="M27.5502 37.933C28.5637 38.6364 29.6292 39.2618 30.7375 39.8039C30.5244 40.2676 30.27 40.7111 29.9772 41.1291C29.831 41.2558 29.6946 41.1291 29.5776 41.1291C28.7978 40.6419 27.9986 40.2131 27.1994 39.7552C27.1233 39.7255 27.0555 39.6782 27.0012 39.6172C26.947 39.5562 26.908 39.4833 26.8875 39.4044C26.9167 38.8002 27.3358 38.4104 27.5502 37.933Z" fill="#F7A71C"/>
<path d="M23.9146 44.218L24.6846 42.8928C24.7446 42.874 24.808 42.8686 24.8703 42.877C24.9326 42.8855 24.9923 42.9075 25.0452 42.9415C25.9127 43.4385 26.7801 43.916 27.6379 44.4421C27.7548 44.5104 27.9108 44.5591 27.8718 44.754C27.6709 45.2197 27.4122 45.6584 27.1018 46.0597C26.938 46.0573 26.7786 46.0064 26.6437 45.9135C25.8737 45.4555 25.0939 45.0268 24.3239 44.5688C24.1624 44.4848 24.0223 44.3647 23.9146 44.218V44.218Z" fill="#FAB717"/>
<path d="M29.8699 33.9574C29.8699 33.9574 29.8699 34.0548 29.8699 34.0646C30.8501 34.7764 31.9099 35.3715 33.0279 35.838L32.2676 37.1632C32.1019 37.2899 31.9557 37.1632 31.8095 37.1632C31.0298 36.7053 30.2403 36.257 29.4508 35.8088C29.2851 35.7016 29.0316 35.6237 29.0901 35.3313L29.8699 33.9574Z" fill="#F69B1D"/>
<path d="M43.116 41.8989L43.886 43.2241C42.943 43.854 41.967 44.433 40.962 44.9586C40.8158 45.0365 40.6793 45.056 40.5818 44.8806C40.2987 44.5065 40.0538 44.105 39.8508 43.6821C40.8071 43.0386 41.807 42.4623 42.8431 41.9573C42.8816 41.9283 42.926 41.9081 42.9731 41.898C43.0203 41.8879 43.069 41.8882 43.116 41.8989Z" fill="#F9B318"/>
<path d="M27.8718 44.754L24.6846 42.9318C24.8924 42.4999 25.1509 42.0943 25.4546 41.7235L28.2909 43.3021C28.4274 43.3703 28.5541 43.4385 28.5541 43.6139C28.3647 44.0154 28.1362 44.3973 27.8718 44.754Z" fill="#F9B318"/>
<path d="M51.391 56.1255C51.6072 56.4196 51.8668 56.6791 52.161 56.8953C52.2877 57.2168 52.6581 57.285 52.8238 57.5579C52.1096 57.8346 51.4644 58.2636 50.9329 58.8149C50.1773 58.6475 49.4682 58.3147 48.8568 57.8405C48.7106 57.5871 48.8568 57.4604 49.0615 57.363C49.7827 56.9342 50.504 56.4958 51.235 56.0963C51.2615 56.0885 51.2894 56.0872 51.3165 56.0922C51.3436 56.0973 51.3691 56.1087 51.391 56.1255V56.1255Z" fill="#F47F20"/>
<path d="M33.9245 34.2887C33.2097 34.03 32.5314 33.6795 31.9069 33.2461C31.4867 33.0645 31.0958 32.8215 30.7471 32.525C30.8976 32.0874 31.1217 31.6788 31.4099 31.3167C31.4476 31.2924 31.4916 31.2794 31.5366 31.2794C31.5815 31.2794 31.6255 31.2924 31.6633 31.3167C32.5584 31.7556 33.4215 32.2571 34.2462 32.8173C34.2949 32.9314 34.3214 33.0538 34.3242 33.1778C34.3242 33.4604 34.3924 33.7528 34.178 33.9964L33.9245 34.2887Z" fill="#F5921E"/>
<path d="M45.0945 52.676C45.1627 52.335 45.4941 52.335 45.7183 52.1986C46.4493 51.7503 47.1901 51.3313 47.9308 50.8831C48.0406 50.8211 48.1654 50.7907 48.2915 50.7954C48.4757 51.1853 48.7012 51.5545 48.964 51.8965V52.0134C48.0319 52.6721 47.0549 53.2647 46.0399 53.7869C46.0003 53.811 45.9548 53.8237 45.9083 53.8237C45.8619 53.8237 45.8164 53.811 45.7768 53.7869C45.5061 53.445 45.277 53.072 45.0945 52.676Z" fill="#F5921E"/>
<path d="M29.1291 35.2826C29.8302 35.8275 30.5884 36.2947 31.3904 36.676C31.6587 36.9001 31.9707 37.066 32.3066 37.1632C32.1152 37.5996 31.8625 38.0065 31.5561 38.3715C30.5814 37.8551 29.6847 37.3386 28.7587 36.8027C28.6493 36.7143 28.5511 36.6129 28.4663 36.5006C28.6227 36.0627 28.8463 35.6518 29.1291 35.2826V35.2826Z" fill="#F69E1D"/>
<path d="M42.7749 48.6613C43.0576 48.2034 43.5644 48.0572 43.9933 47.8038C44.5927 47.4003 45.2253 47.0483 45.8842 46.7515C46.188 47.1296 46.4525 47.5377 46.6737 47.9695C45.5193 48.4561 44.4319 49.0881 43.4377 49.8501C43.1719 49.4806 42.9495 49.0817 42.7749 48.6613V48.6613Z" fill="#F7A11D"/>
<path d="M45.699 53.8258L48.4281 52.2667C48.5693 52.1543 48.7372 52.0805 48.9154 52.0524C49.2029 52.4182 49.433 52.8256 49.5977 53.2607C49.0805 53.6916 48.5107 54.055 47.9018 54.3423C47.4437 54.6443 46.9271 54.8977 46.4885 55.1803C46.1823 54.7552 45.9179 54.3017 45.699 53.8258V53.8258Z" fill="#F58E1F"/>
<path d="M23.9147 44.218C24.9966 44.7832 26.0688 45.3873 27.1019 46.0597C26.9392 46.4676 26.7157 46.8487 26.4392 47.19C25.4645 46.771 24.5678 46.1474 23.6223 45.6407L23.2422 45.4263L23.4664 44.8806C23.7393 44.7345 23.7588 44.4421 23.9147 44.218Z" fill="#FABB15"/>
<path d="M43.1159 41.8989L40.416 43.4385C40.253 43.5567 40.0671 43.6396 39.8702 43.6821C39.6363 43.2729 39.4024 42.8636 39.1587 42.4544C40.1334 41.8307 41.1081 41.3435 42.0828 40.7589C42.1407 40.7121 42.2098 40.6812 42.2833 40.6693C42.3568 40.6573 42.4321 40.6647 42.5019 40.6907L42.7163 41.022C42.6968 41.3728 43.0087 41.5871 43.1159 41.8989Z" fill="#FAB717"/>
<path d="M41.0205 38.2643C40.1043 38.6346 39.3245 39.2388 38.4473 39.6772L37.7748 40.0086C37.5019 39.6176 37.2638 39.2035 37.0632 38.771C38.1159 38.1279 39.1978 37.5433 40.2407 36.9001L41.0205 38.2643Z" fill="#FAC513"/>
<path d="M20.2693 50.6102C20.4614 50.1923 20.6829 49.7885 20.9321 49.4019C20.9835 49.3616 21.047 49.3397 21.1124 49.3397C21.1778 49.3397 21.2412 49.3616 21.2927 49.4019C22.1992 49.9184 23.1251 50.3763 24.0023 50.9707C24.081 51.0249 24.1393 51.1038 24.168 51.1949L24.0218 51.5067C24.0083 51.5812 23.9664 51.6476 23.9049 51.6918C23.5962 51.9298 23.2458 52.1083 22.8717 52.218C22.8234 52.2268 22.7738 52.2268 22.7255 52.218C22.0627 51.7698 21.3414 51.419 20.6592 51C20.513 50.8636 20.357 50.8148 20.2693 50.6102Z" fill="#F9CC0F"/>
<path d="M51.3911 56.1255C50.7576 56.6029 50.0363 56.9537 49.3638 57.363C49.1396 57.4896 48.8862 57.5676 48.8569 57.8697C48.3865 57.6008 47.9754 57.2395 47.6483 56.8075C47.5898 56.5932 47.775 56.5152 47.9017 56.4373C48.662 55.9598 49.432 55.4629 50.2312 55.0828C50.3872 54.9951 50.5529 54.8879 50.7381 55.0244L51.3911 56.1255Z" fill="#F4841F"/>
<path d="M37.5991 32.4178C37.9403 32.7101 37.9988 33.1779 38.2522 33.5189C38.145 33.8015 37.8623 33.8892 37.6381 34.0353C36.9851 34.4349 36.3028 34.7954 35.6888 35.1852C35.5133 35.2826 35.3574 35.4385 35.1332 35.3898C34.892 35.0616 34.6923 34.7049 34.5386 34.3277C34.4606 34.123 34.6069 34.0256 34.7433 33.9379C35.5815 33.3922 36.4588 32.9148 37.336 32.4373C37.3755 32.4144 37.4197 32.4007 37.4653 32.3973C37.5109 32.3939 37.5567 32.4009 37.5991 32.4178V32.4178Z" fill="#FAD60A"/>
<path d="M42.4532 40.6906C41.5565 41.1973 40.65 41.665 39.7631 42.2301C39.5871 42.3609 39.3774 42.4387 39.1587 42.4543C38.9624 42.1943 38.8017 41.9092 38.6812 41.6065C38.8761 41.1583 39.3342 41.0511 39.6558 40.8465C40.3303 40.3925 41.0487 40.0073 41.8002 39.6967C42.0433 40.0105 42.2616 40.3428 42.4532 40.6906V40.6906Z" fill="#FABB15"/>
<path d="M39.1393 35.0682L39.5779 35.7211L39.8021 36.2765C39.6462 36.6078 39.305 36.6858 39.0321 36.8612C38.4181 37.2412 37.7943 37.5822 37.1705 37.933C37.0048 38.0305 36.8391 38.1961 36.6149 38.0402C36.392 37.7367 36.2024 37.41 36.0496 37.0658C36.108 36.8222 36.3225 36.7345 36.5077 36.6273C37.3849 36.1109 38.2718 35.5944 39.1393 35.0682Z" fill="#F9CC0F"/>
<path d="M45.0946 45.3191C43.9442 45.7851 42.8673 46.4153 41.8976 47.19C41.6308 46.8142 41.4023 46.4127 41.2153 45.9914C42.1474 45.3327 43.1245 44.7401 44.1394 44.218C44.1823 44.1986 44.2288 44.1886 44.2758 44.1886C44.3229 44.1886 44.3694 44.1986 44.4123 44.218L45.0946 45.3191Z" fill="#F8AA1C"/>
<path d="M44.4415 44.218L41.8001 45.7479C41.6429 45.8697 41.4593 45.9531 41.2641 45.9915C40.9899 45.6501 40.7576 45.2771 40.572 44.8806C41.0009 44.9488 41.2543 44.6175 41.5467 44.4616C42.294 43.9904 43.076 43.5768 43.886 43.2241L44.4415 44.218Z" fill="#F8AD1B"/>
<path d="M39.8507 57.782C39.1469 57.0573 38.3223 56.4605 37.414 56.0183C37.288 55.8801 37.1133 55.7963 36.9266 55.7844C36.7643 55.3951 36.6906 54.9746 36.7108 54.5532C36.731 54.1319 36.8447 53.7204 37.0436 53.3484C37.5278 53.7444 37.9343 54.2268 38.2425 54.771C38.8175 55.7455 39.3828 56.7199 39.9482 57.7723C39.9355 57.7848 39.9189 57.7926 39.9011 57.7943C39.8834 57.7961 39.8656 57.7918 39.8507 57.782V57.782Z" fill="#F9E70D"/>
<path d="M24.1681 51.1852L21.4195 49.6164C21.276 49.5078 21.1091 49.4344 20.9321 49.402V49.2948L21.4877 48.4081C22.6103 48.9288 23.6808 49.5553 24.6847 50.279C24.551 50.6014 24.3775 50.9059 24.1681 51.1852Z" fill="#FAC811"/>
<path d="M26.8873 39.3654L29.9771 41.1291C29.8457 41.4486 29.6684 41.7473 29.4508 42.0158C28.7602 41.7799 28.1045 41.4522 27.5014 41.0414C27.0628 40.827 26.6534 40.5444 26.1953 40.369C26.2322 40.162 26.3131 39.9653 26.4325 39.7922C26.5518 39.619 26.707 39.4735 26.8873 39.3654V39.3654Z" fill="#F8AA1C"/>
<path d="M37.5991 32.4177C36.7024 32.9244 35.8057 33.3922 34.9285 33.9378C34.7628 34.0353 34.5483 34.1132 34.4899 34.3276L34.1682 33.9476C34.1682 33.6553 34.1682 33.3629 34.1682 33.0803C34.8251 32.5895 35.523 32.1559 36.254 31.7844C36.4762 31.5953 36.7458 31.4706 37.0338 31.4238C37.2654 31.7287 37.4555 32.0629 37.5991 32.4177V32.4177Z" fill="#FAD90B"/>
<path d="M50.7184 55.0244C49.634 55.5072 48.6047 56.105 47.6481 56.8076C47.3576 56.5648 47.1273 56.258 46.9756 55.9111C46.9756 55.7163 47.1803 55.6286 47.3362 55.5311C48.1062 55.0829 48.8665 54.6249 49.6462 54.1962C49.8217 54.0987 49.9971 53.9915 50.1921 54.1377L50.7184 55.0244Z" fill="#F48720"/>
<path d="M23.9048 51.6041L24.0217 51.4969C25.4935 51.5944 26.9458 51.4969 28.4468 51.4969H30.2013L30.1038 51.7016C29.961 51.7806 29.7989 51.8177 29.6359 51.8088C29.1681 51.8088 28.9829 52.0036 28.9927 52.4714C28.9927 53.1827 28.9927 53.9038 28.9927 54.6151C29.0241 54.8551 28.965 55.0983 28.827 55.2972C27.979 55.2972 27.9497 55.2972 27.9497 54.391C27.9497 53.4848 27.9497 52.8904 27.9497 52.1401C27.9497 51.9647 28.057 51.7113 27.7353 51.6723C27.4343 51.8239 27.0917 51.8718 26.7606 51.8088H25.2304C24.8734 51.833 24.5152 51.833 24.1582 51.8088C24.0506 51.7756 23.9598 51.7023 23.9048 51.6041V51.6041Z" fill="#F8AC1C"/>
<path d="M50.1727 54.1376C49.89 54.1376 49.7048 54.313 49.4904 54.4397C48.6424 54.9171 47.8042 55.4141 46.9562 55.911C46.7605 55.697 46.6112 55.4449 46.5176 55.1705C46.5858 54.7905 46.9562 54.771 47.2096 54.6248C47.9806 54.1277 48.7777 53.6723 49.5976 53.2606C49.8315 53.523 50.0252 53.8185 50.1727 54.1376V54.1376Z" fill="#F48A1F"/>
<path d="M35.0845 35.3898L38.2522 33.5189C38.435 33.7546 38.5857 34.0135 38.7006 34.2887C38.759 34.4739 38.6226 34.5616 38.4959 34.6395C37.6771 35.1365 36.8292 35.6237 35.9519 36.1109C35.8155 36.1888 35.6595 36.2863 35.4938 36.1596L35.0845 35.3898Z" fill="#F9D20C"/>
<path d="M35.533 36.1693C36.6435 35.6393 37.7037 35.0099 38.7007 34.2887C38.8805 34.5282 39.028 34.7903 39.1393 35.0682C39.0516 35.3703 38.7787 35.4483 38.5447 35.5847L36.0495 37.0853L35.533 36.1693Z" fill="#F9CF0D"/>
<path d="M36.6147 38.0597C37.5017 37.6797 38.2912 37.0853 39.1392 36.6663L39.8507 36.2765C40.1236 36.4129 40.1431 36.715 40.2893 36.9391C40.2893 36.9391 40.2893 37.0268 40.2893 37.0463C39.2905 37.7646 38.207 38.3569 37.0631 38.81L36.6147 38.0597Z" fill="#FAC811"/>
<path d="M30.2014 51.5749C31.1225 51.497 32.0485 51.497 32.9695 51.5749C32.8775 51.6709 32.7515 51.7269 32.6186 51.7308C32.2775 51.7308 32.2483 52.0329 32.2483 52.296C32.2483 53.0268 32.2483 53.7576 32.2483 54.4884C32.2702 54.6152 32.2669 54.745 32.2385 54.8704C32.2101 54.9958 32.1571 55.1144 32.0826 55.2193H31.3126C31.1669 55.0054 31.1077 54.7442 31.1469 54.4884C31.1469 53.7771 31.1469 53.0755 31.1469 52.3642C31.1469 51.9257 30.9909 51.7211 30.5523 51.7211C30.4861 51.7296 30.4189 51.7207 30.3573 51.695C30.2957 51.6693 30.2419 51.6279 30.2014 51.5749V51.5749Z" fill="#FAC215"/>
<path d="M35.2795 55.346H35.0553C34.8993 55.1706 34.6947 55.268 34.5095 55.2291C34.4437 55.1534 34.3942 55.0651 34.364 54.9696C34.3338 54.874 34.3236 54.7733 34.334 54.6736C34.334 53.9428 34.334 53.2023 34.334 52.4714C34.334 52.2571 34.334 51.9647 34.6264 51.916C34.8506 52.1012 35.1918 51.994 35.3964 52.2278C35.5671 52.5923 35.6248 52.9996 35.5621 53.3971C35.5621 53.8356 35.5621 54.2741 35.5621 54.7126C35.5687 54.833 35.5464 54.9533 35.4973 55.0634C35.4481 55.1735 35.3735 55.2704 35.2795 55.346V55.346Z" fill="#FAD70A"/>
<path d="M34.6263 51.9257C34.4314 52.0816 34.5094 52.296 34.5094 52.4909C34.5094 53.4068 34.5094 54.3228 34.5094 55.2388H33.7296C33.671 55.1935 33.6325 55.127 33.6224 55.0536C33.5201 53.9972 33.5201 52.9334 33.6224 51.877C33.6398 51.8067 33.6812 51.7447 33.7394 51.7016C34.0496 51.697 34.3555 51.7743 34.6263 51.9257V51.9257Z" fill="#F9D10D"/>
<path d="M37.0535 53.3484C36.9141 54.1524 36.8716 54.9703 36.9268 55.7844L36.0398 55.4629C35.9331 55.3379 35.8743 55.179 35.8741 55.0146C35.8741 54.3618 35.8741 53.6992 35.8741 53.0658C35.8686 52.9836 35.8805 52.9012 35.9091 52.824C35.9376 52.7467 35.9822 52.6764 36.0398 52.6176C36.423 52.7912 36.7677 53.0397 37.0535 53.3484V53.3484Z" fill="#F9E00C"/>
<path d="M33.7396 51.7015V55.2387H33.028C32.7452 54.0436 32.7452 52.7991 33.028 51.6041C33.2693 51.553 33.5209 51.5875 33.7396 51.7015V51.7015Z" fill="#F9CC0F"/>
<path d="M36.0495 52.5981V55.4629L35.2795 55.3459C35.4029 54.5173 35.4389 53.6779 35.3868 52.8417C35.3868 52.6371 35.3868 52.4422 35.3868 52.2375C35.6358 52.2968 35.8645 52.4212 36.0495 52.5981V52.5981Z" fill="#FADB0B"/>
<path d="M33.028 51.6139V55.2485H32.5894C32.3019 54.0573 32.3019 52.8149 32.5894 51.6237H32.9305C32.9432 51.6111 32.9598 51.6034 32.9776 51.6016C32.9953 51.5998 33.0131 51.6042 33.028 51.6139V51.6139Z" fill="#FAC910"/>
<path d="M39.8508 57.782H39.9483C40.0541 57.8669 40.1238 57.9888 40.1432 58.123C40.0079 58.0482 39.9041 57.9271 39.8508 57.782V57.782Z" fill="#F9D90F"/>
<path d="M24.129 51.6237H25.2304C25.5229 52.8143 25.5229 54.0579 25.2304 55.2485H24.129C23.8463 54.0568 23.8463 52.8154 24.129 51.6237V51.6237Z" fill="#F5951E"/>
<path d="M24.129 51.6236V55.2485H23.0276C22.9097 55.1069 22.8504 54.9256 22.8619 54.7418C22.8619 53.8843 22.8619 53.0268 22.8035 52.1791L23.9049 51.6139L24.129 51.6236Z" fill="#F58E1F"/>
<path d="M26.7802 51.6237H27.7549V54.2546C27.7549 55.229 27.7549 55.229 26.7802 55.229C26.4909 54.0446 26.4909 52.808 26.7802 51.6237V51.6237Z" fill="#F7A51D"/>
<path d="M26.7802 51.6237V55.2485H25.8932C25.6105 54.0568 25.6105 52.8154 25.8932 51.6237H26.7802Z" fill="#F69E1D"/>
<path d="M28.8757 55.2485V52.4616C28.8757 51.5846 28.8757 51.5846 29.7627 51.6236C30.0454 52.8154 30.0454 54.0567 29.7627 55.2485H28.8757Z" fill="#F9B219"/>
<path d="M22.8033 52.1693C22.967 52.3648 23.0475 52.6167 23.0275 52.8708C23.0275 53.6601 23.0275 54.4494 23.0275 55.2387H22.0528C21.7994 54.9269 21.8871 54.5469 21.8871 54.1961C21.853 53.7452 21.853 53.2925 21.8871 52.8416C21.9464 52.6457 22.0659 52.4735 22.2286 52.3493C22.3913 52.2252 22.589 52.1553 22.7936 52.1498L22.8033 52.1693Z" fill="#F48720"/>
<path d="M30.5327 51.6237C31.3027 51.6237 31.3027 51.6237 31.3027 52.3545V55.2777H30.5327C30.2355 54.0778 30.2355 52.8236 30.5327 51.6237V51.6237Z" fill="#FABC15"/>
<path d="M30.5327 51.6237V55.2485H29.7627V51.6237H30.2013H30.5327Z" fill="#FAB717"/>
<path d="M25.8933 51.6237V55.2485H25.2305V51.6237H25.8933Z" fill="#F69A1E"/>
<path d="M22.0334 52.676V55.2094H21.1464C20.8833 54.8392 21.0197 54.4104 21.0002 54.0012C21.0002 53.7673 21.0002 53.5334 21.0002 53.2996C20.9892 53.2416 20.9892 53.1821 21.0002 53.1242C21.3316 52.939 21.5656 52.5785 22.0334 52.676Z" fill="#F48120"/>
<path d="M32.6283 51.6236V55.2485H32.0532C32.0532 54.2058 32.0532 53.1729 32.0532 52.1401C32.0532 51.7016 32.1994 51.5359 32.6283 51.6236Z" fill="#FAC513"/>
<path d="M34.1683 32.7491C33.3884 32.3935 32.633 31.9866 31.907 31.5311C31.7609 31.4207 31.5904 31.3472 31.4099 31.3167C31.5733 30.9372 31.7899 30.5828 32.0532 30.2643C32.3943 30.2058 32.6283 30.4397 32.8817 30.5956C33.3537 30.8238 33.8039 31.0945 34.2268 31.4044C34.2563 31.4555 34.2762 31.5117 34.2852 31.57C34.3047 31.9403 34.4607 32.3691 34.1683 32.7491Z" fill="#F58F1F"/>
<path d="M34.1585 31.3167C33.4218 31.0406 32.7162 30.6879 32.0532 30.2643L32.1702 29.8259C32.4821 29.6602 32.4626 29.2509 32.716 29.0463C32.9694 28.8417 33.0279 29.0463 33.1644 29.1048C33.5274 29.295 33.8789 29.5065 34.217 29.7382C34.2746 29.8531 34.3046 29.9799 34.3047 30.1084C34.295 30.4787 34.4607 30.927 34.1585 31.3167Z" fill="#F48B1F"/>
<path d="M22.0335 52.676C21.6436 52.676 21.4292 53.1047 21.0588 53.1144C20.5033 52.7831 19.9184 52.5103 19.4019 52.14C19.6283 51.587 19.9266 51.0661 20.2888 50.5907L22.4721 51.799C22.6216 51.869 22.7446 51.9851 22.823 52.1303L22.0335 52.676Z" fill="#F9CF0D"/>
<path d="M19.3823 52.1595C20.0142 52.3248 20.5878 52.6621 21.0393 53.134V53.134C20.9154 53.3621 20.7203 53.5435 20.4837 53.6504C19.7429 54.0694 19.0119 54.5176 18.2711 54.9269C18.0957 55.0243 17.9398 55.151 17.7156 55.0926C17.7156 54.5274 18.1737 54.1181 18.4174 53.6894C18.661 53.2606 19.0606 52.676 19.3823 52.1595Z" fill="#FAD60A"/>
<path d="M17.7253 55.1315L20.4837 53.5822C20.5106 53.5795 20.5378 53.5822 20.5636 53.59C20.5895 53.5979 20.6136 53.6108 20.6344 53.628C20.6552 53.6453 20.6725 53.6664 20.6851 53.6903C20.6977 53.7142 20.7054 53.7404 20.7079 53.7673C20.8491 54.2548 20.8111 54.7768 20.6007 55.2387C19.8112 55.2387 19.0314 55.2387 18.2419 55.2387C18.0665 55.2387 17.8715 55.3069 17.7253 55.1315Z" fill="#F37820"/>
<path d="M20.6006 55.2387C20.5324 54.6931 20.7371 54.1182 20.4836 53.5822L21.049 53.173C21.164 53.8552 21.1968 54.5487 21.1464 55.2387H20.6006Z" fill="#F47D20"/>
<path d="M34.1684 32.7491V31.4239C34.7338 31.0243 35.3673 30.7223 35.9619 30.3617C36.0788 30.2838 36.2153 30.2058 36.3615 30.3617H36.4687V30.4689C36.6636 30.5566 36.6929 30.7613 36.8001 30.9172L37.0243 31.4628C36.1132 32.088 35.1552 32.6418 34.1587 33.1194L34.1684 32.7491Z" fill="#FADE0B"/>
<path d="M36.8194 30.8782C36.6245 30.7905 36.5855 30.5957 36.488 30.43C36.8487 30.4008 36.8292 30.6444 36.8194 30.8782Z" fill="#FEC70E"/>
<path d="M34.1879 29.9914V29.6601C34.1117 29.5801 34.0638 29.4775 34.0514 29.3678C33.9486 28.4371 33.998 27.4958 34.1976 26.5809C34.1976 26.5809 34.1976 26.503 34.1976 26.4738C34.7727 27.3118 35.2405 28.218 35.7376 29.1144C35.5773 29.3822 35.3502 29.6038 35.0786 29.7575C34.8069 29.9113 34.5 29.9918 34.1879 29.9914V29.9914Z" fill="#F9E70C"/>
<path d="M34.1877 29.9915C34.754 29.8104 35.2756 29.5116 35.718 29.1145C35.975 29.4964 36.1968 29.9008 36.3808 30.3228C35.8447 30.6151 35.3086 30.9074 34.7823 31.2095C34.6108 31.3402 34.4032 31.415 34.1877 31.4239V31.3167V29.9915Z" fill="#F9E20C"/>
<path d="M34.1684 26.5811C34.1684 27.6042 34.1684 28.6371 34.1684 29.6602C33.6031 29.6602 33.2717 29.1243 32.7454 28.9976C33.1551 28.1558 33.6309 27.3477 34.1684 26.5811V26.5811Z" fill="#F48720"/>
<path d="M52.5217 30.4397L52.8531 29.7673C53.1065 29.5627 53.0968 29.1632 53.3989 28.9878C53.9434 29.2068 54.4351 29.5389 54.8415 29.9622C54.9145 30.5152 54.9145 31.0755 54.8415 31.6285C54.8245 31.6664 54.7994 31.7001 54.7679 31.7272C54.7365 31.7544 54.6994 31.7742 54.6594 31.7854C54.6194 31.7965 54.5774 31.7987 54.5364 31.7918C54.4954 31.7849 54.4565 31.7691 54.4224 31.7454C53.7531 31.4207 53.1166 31.0324 52.5217 30.5858C52.5079 30.564 52.5005 30.5386 52.5005 30.5128C52.5005 30.4869 52.5079 30.4615 52.5217 30.4397V30.4397Z" fill="#0C6FB7"/>
<path d="M54.6952 29.8842C54.1961 29.6803 53.7447 29.375 53.3696 28.9878C53.5061 28.4129 53.9837 28.0133 54.1494 27.4579C54.2371 27.1656 54.5393 26.9999 54.5977 26.6979C54.8122 26.6979 54.8317 26.8538 54.8317 26.9902C54.8317 27.8769 54.8804 28.7636 54.8317 29.6504C54.8173 29.7428 54.7686 29.8263 54.6952 29.8842V29.8842Z" fill="#0771B9"/>
<path d="M52.5217 30.4397C53.2118 30.9482 53.9495 31.3887 54.7244 31.7552C54.8445 31.994 54.907 32.2576 54.907 32.525C54.907 32.7923 54.8445 33.0559 54.7244 33.2948C54.3632 33.2299 54.0263 33.0683 53.7498 32.827C53.1162 32.447 52.4827 32.0377 51.8491 31.648L51.9563 31.3167L52.5217 30.4397Z" fill="#116DB5"/>
<path d="M54.7049 33.2948C54.7049 32.7881 54.7049 32.3204 54.7049 31.7552V29.8843C54.7049 28.9879 54.7049 28.1011 54.7049 27.2047C54.7049 27.0293 54.7731 26.8344 54.6074 26.698L54.7146 26.5713H54.8219C55.0232 27.6208 55.0789 28.693 54.9876 29.7576C54.9876 30.4885 54.9876 31.229 54.9876 31.9696C55.0676 32.6005 55.0145 33.2411 54.8316 33.8502C54.6269 33.6943 54.7341 33.4799 54.7049 33.2948Z" fill="#1B54A5"/>
<path d="M54.822 33.8502V31.9793C55.0559 31.6382 55.4556 31.5505 55.7967 31.3556C56.1378 31.1608 56.7129 30.8197 57.1613 30.5469H57.2587C57.4535 31.0029 57.6782 31.4456 57.9313 31.8721C57.9424 31.9429 57.9315 32.0154 57.9002 32.0799C57.8688 32.1443 57.8184 32.1976 57.7558 32.2326C56.8164 32.8389 55.8362 33.3794 54.822 33.8502V33.8502Z" fill="#293E95"/>
<path d="M57.132 30.5469C57.0638 30.8392 56.8006 30.9172 56.5862 31.0244C56.0145 31.3836 55.4221 31.709 54.8123 31.9988V29.7674C55.2708 29.4797 55.7497 29.2257 56.245 29.0073L56.4692 29.3289L57.132 30.5469Z" fill="#2B3A93"/>
<path d="M56.245 29.0073C55.8645 29.4119 55.3607 29.6792 54.8123 29.7674V26.5713L55.0364 26.7954C55.1885 27.1976 55.4095 27.5702 55.6895 27.8965C55.7772 28.3155 56.1183 28.6078 56.245 29.0073Z" fill="#2C3791"/>
</g>
<defs>
<clipPath id="clip0_527_582">
<rect width="67" height="40" fill="white" transform="translate(11 19)"/>
</clipPath>
</defs>
</svg>
