<svg width="90" height="90" viewBox="0 0 90 90" fill="none" xmlns="http://www.w3.org/2000/svg">
<g clip-path="url(#clip0_970_930)">
<circle cx="45" cy="45" r="43.2" fill="#112B66" stroke="url(#paint0_linear_970_930)" stroke-width="3.6"/>
<path d="M53.7023 29.1064C58.0957 29.4456 62.6911 30.4794 69.0633 32.555C70.2263 32.9346 71.1793 33.2738 71.1793 33.3141C71.1793 33.3545 71.1389 33.3868 71.0985 33.3868C71.05 33.3868 70.0647 33.1122 68.8937 32.773C64.2579 31.4243 61.1566 30.6894 57.8534 30.1644C53.5488 29.4779 50.5525 29.4375 48.2669 30.0352C47.4189 30.2613 47.1282 30.3986 45.7875 31.2062C44.7619 31.82 43.3 32.5792 42.4278 32.9507C41.1598 33.4757 39.3346 34.0006 38.2282 34.146C37.2348 34.2752 28.779 34.994 25.2658 35.2444C23.9817 35.3332 22.7621 35.4301 22.5602 35.4543C19.5559 35.8178 17.2218 36.5608 15.4451 37.7076C14.8797 38.0711 13.7652 39.1048 13.4906 39.5167C13.4179 39.6298 13.3291 39.6944 13.3049 39.6621C13.1029 39.4602 14.4032 38.0791 15.4451 37.3846C17.1491 36.2539 19.0228 35.5755 21.5184 35.1717C22.9156 34.9536 22.8914 34.9536 26.3157 34.6386C30.1277 34.2833 36.7906 33.6533 37.8567 33.5484C40.0615 33.3222 43.1062 32.1431 45.7552 30.4955C47.4755 29.4214 48.8807 29.0741 51.6024 29.0418C52.1839 29.0337 53.1288 29.058 53.7023 29.1064ZM55.1883 30.1483C57.5869 30.6409 61.5928 31.6827 61.9562 31.9089C62.0935 31.9896 62.1339 32.0866 62.1177 32.24C62.1016 32.4177 61.9885 32.5146 61.5281 32.7569C60.9143 33.0799 60.8417 33.1042 60.8417 32.983C60.8417 32.9346 61.0516 32.765 61.3101 32.6034C61.8673 32.2561 61.8512 32.2642 61.7947 32.2158C61.6977 32.1189 57.8535 31.2951 55.4063 30.8428C53.4277 30.4794 52.0951 30.4955 50.1568 30.8913C48.2992 31.2789 45.9652 32.1754 44.1481 33.2092C43.4696 33.5887 43.2839 33.5241 43.8573 33.1122C45.9571 31.5777 49.1392 30.3017 51.6347 29.9948C52.507 29.8898 54.2918 29.9706 55.1883 30.1483ZM56.2382 33.4676C56.2382 33.508 56.222 33.5484 56.1978 33.5484C56.1736 33.5484 55.6244 33.6049 54.9702 33.6695C45.9087 34.5821 32.4536 35.5432 25.29 35.7855C23.5375 35.842 23.2144 35.7289 24.7247 35.5755C27.196 35.3332 34.8927 34.671 38.0666 34.4367C39.2862 34.3479 40.7641 34.2429 41.3375 34.1945C43.72 34.0087 49.4541 33.6614 52.6039 33.516C55.4063 33.3788 56.2382 33.3707 56.2382 33.4676ZM74.1433 33.9199C74.4582 34.1218 74.4663 34.4125 74.1675 34.9698L73.901 35.4705L74.5551 36.9888C75.3951 38.9675 75.5404 39.3552 75.4516 39.4036C75.4112 39.4359 75.3062 39.3309 75.2174 39.1856C74.8782 38.6202 73.3598 35.5755 73.3598 35.4543C73.3598 35.3817 73.4487 35.1394 73.5618 34.9213C73.6748 34.7033 73.7637 34.4933 73.7637 34.4529C73.7637 34.4125 71.68 34.356 68.9825 34.3237C64.0883 34.2671 63.0949 34.2187 63.0465 34.0652C63.0061 33.936 64.3629 33.8633 67.7872 33.7906C71.3893 33.718 73.901 33.7664 74.1433 33.9199ZM60.777 34.2671C61.1001 34.6306 61.0839 34.9698 60.7124 35.414C60.2198 36.0035 59.711 36.5608 59.711 36.5043C59.711 36.4235 60.1067 35.6563 60.3248 35.309C60.5428 34.9698 60.5671 34.7436 60.4217 34.6144C60.349 34.566 59.9371 34.574 59.1618 34.6386C57.4658 34.7921 55.0995 34.8729 54.1061 34.8002C53.6296 34.7679 53.2581 34.7275 53.2742 34.7113C53.4115 34.574 56.7793 34.146 58.6207 34.0329C60.2844 33.936 60.5025 33.9602 60.777 34.2671ZM72.3907 35.0909C72.6814 35.1394 72.948 35.204 72.9803 35.2363C73.0449 35.3009 72.4553 35.422 71.7446 35.5028L71.5427 35.527L71.8011 35.7935C71.9384 35.9308 72.1161 36.052 72.1969 36.052C72.4795 36.052 73.3598 36.2297 73.3598 36.2862C73.3598 36.375 72.5926 36.5366 72.1565 36.5366C71.7042 36.5366 71.5427 36.4316 70.8966 35.7451C70.0567 34.8406 70.0486 34.889 71.0258 34.9536C71.4862 34.9859 72.1 35.0425 72.3907 35.0909ZM47.7581 35.2363C47.7581 35.2767 47.6612 35.3332 47.5401 35.3574C47.0474 35.4543 43.7604 35.8824 40.8933 36.2135C39.0842 36.4235 35.458 36.7385 33.1401 36.8919C29.6754 37.1181 29.4816 37.1261 29.522 37.0131C29.627 36.7062 39.375 35.6159 44.5276 35.3251C45.3918 35.2767 46.2883 35.2282 46.5063 35.2201C47.427 35.1636 47.7581 35.1636 47.7581 35.2363ZM66.2204 35.8582C68.611 36.3589 70.5816 38.6445 70.6382 40.9947C70.6462 41.3177 70.622 41.6004 70.5816 41.6246C70.5412 41.6488 70.4524 41.3823 70.3959 41.035C70.0486 38.9675 68.6514 37.328 66.6646 36.6416C66.1881 36.472 65.8489 36.4154 65.1625 36.3912C64.0722 36.3508 63.4261 36.4881 62.4569 36.9565C61.8916 37.223 61.6493 37.4088 61.084 37.9822C60.139 38.9352 59.5979 40.0174 59.4283 41.3177C59.3556 41.883 59.2264 41.7861 59.2264 41.1643C59.2264 40.4293 59.4122 39.7025 59.8402 38.8221C60.6317 37.1746 62.4488 35.9228 64.3064 35.737C65.0332 35.6724 65.4451 35.6966 66.2204 35.8582ZM26.5338 36.4477C28.9001 37.0534 30.6446 39.1129 30.7819 41.4388C30.8303 42.3353 30.7011 42.4565 30.5638 41.6408C30.2084 39.549 28.6982 37.7722 26.7599 37.1665C26.2511 37.0131 25.9765 36.9808 25.0639 36.9808C24.0786 36.9808 23.909 37.005 23.3033 37.215C21.3973 37.8691 19.9193 39.6217 19.6286 41.6004C19.5639 42.0123 19.5074 42.1899 19.4267 42.1899C19.3297 42.1899 19.3217 42.0769 19.3701 41.56C19.4993 40.0659 19.9758 39.0402 21.0257 37.9822C21.8011 37.1988 22.6248 36.7223 23.6263 36.4558C24.4339 36.2458 25.7261 36.2458 26.5338 36.4477ZM55.1075 36.69C55.3014 36.7546 55.3014 36.7546 54.9945 36.8919C54.1545 37.2473 51.7155 37.4088 51.7155 37.1019C51.7155 37.0373 52.4585 36.8192 53.0885 36.7062C53.5407 36.6173 54.8329 36.6093 55.1075 36.69ZM70.3797 36.8677C71.4135 37.4249 72.2534 38.6283 72.528 39.977C72.633 40.5101 72.6411 40.7201 72.5684 41.2531C72.4795 41.875 72.3099 42.2788 72.3099 41.875C72.3099 41.4873 71.9707 40.0336 71.7365 39.4279C71.4458 38.6848 70.8804 37.8126 70.2505 37.1584C69.6367 36.5123 69.6529 36.48 70.3797 36.8677ZM73.5052 37.4815C73.6829 37.8772 73.9494 38.5637 74.0867 39.016C74.2321 39.4682 74.4098 39.8882 74.4825 39.9528C74.5551 40.0093 74.8782 40.1628 75.1932 40.2839C75.5162 40.4051 75.7989 40.5424 75.8312 40.5828C75.8796 40.6635 74.8863 40.6797 74.4986 40.607C73.9333 40.4939 73.6264 39.9205 73.2872 38.3537C73.1176 37.538 73.0287 36.7789 73.1176 36.7789C73.1499 36.7789 73.3195 37.0938 73.5052 37.4815ZM39.9161 37.0777C39.0842 38.168 37.4205 39.8801 36.2333 40.8816C35.6195 41.3985 34.6827 42.0607 34.6342 42.0123C34.5696 41.9477 36.0718 40.2436 36.9037 39.444C37.889 38.491 38.3897 38.0549 39.2781 37.3926C39.8919 36.9323 40.1099 36.8273 39.9161 37.0777ZM20.21 37.5219C19.9112 38.281 19.7659 38.596 19.6447 38.6929C19.5155 38.7979 18.0295 39.3875 15.8973 40.179C15.1866 40.4455 14.5567 40.7201 14.5082 40.7927C14.3548 40.9947 14.379 41.1885 14.7182 42.4484C15.1059 43.8617 15.1785 44.209 15.0655 44.209C14.9928 44.209 14.1609 42.2061 13.9186 41.4388C13.7894 41.027 13.8783 40.6312 14.1529 40.3486C14.3709 40.1386 14.9443 39.8882 18.2798 38.6041C18.9178 38.3618 19.2571 38.1841 19.362 38.0387C19.4509 37.9257 19.4993 37.8126 19.4832 37.7884C19.459 37.7722 18.8775 37.8207 18.191 37.9095C16.5677 38.1034 16.2365 38.1276 16.2042 38.0226C16.1719 37.9176 19.5559 37.1342 20.1535 37.11L20.3796 37.1019L20.21 37.5219ZM59.2183 37.6753C58.9195 38.2891 58.4188 39.0483 57.6758 40.0659C57.0943 40.8493 56.2382 41.8184 56.1817 41.7538C56.1251 41.6973 56.5612 40.8574 57.0054 40.1628C57.7727 38.9756 59.3395 37.0211 59.4445 37.1342C59.4606 37.1504 59.3637 37.4007 59.2183 37.6753ZM66.8181 37.7238C66.8181 37.9741 65.4532 40.0497 65.1867 40.2032C64.8636 40.397 64.694 40.3647 64.1852 39.977C63.5795 39.5329 62.3358 38.3295 62.4004 38.2649C62.465 38.2003 63.3453 38.6929 64.1933 39.2583L64.8394 39.6944L65.1059 39.3875C66.39 37.9338 66.8181 37.5219 66.8181 37.7238ZM24.6762 39.6621C24.9104 39.9447 25.1366 40.1709 25.1931 40.1709C25.2496 40.1709 25.5242 40.0094 25.8069 39.8155C26.4368 39.3794 27.5594 38.7656 27.616 38.8221C27.6806 38.8787 26.4611 40.0659 25.9038 40.502C25.29 40.9704 24.9912 40.9785 24.5874 40.5182C24.2401 40.1305 23.2063 38.4264 23.2063 38.2407C23.2063 38.0872 24.0947 38.9433 24.6762 39.6621ZM31.7268 38.7333C32.9059 40.1063 33.1401 42.0446 32.3244 43.6517C32.1952 43.9263 32.066 44.1282 32.0418 44.1121C32.0256 44.0879 32.0418 43.8052 32.0902 43.4741C32.3163 41.7215 32.0983 40.2678 31.3957 38.8625C31.2422 38.5637 31.1211 38.2972 31.1211 38.273C31.1211 38.168 31.4522 38.4183 31.7268 38.7333ZM67.6822 38.9352C67.5692 39.1452 67.2623 39.6621 66.9877 40.074C66.7131 40.4858 66.495 40.8493 66.495 40.8897C66.495 40.93 66.6889 41.1077 66.9231 41.2854C67.5126 41.7538 68.5787 42.836 68.4333 42.836C68.1507 42.836 66.0751 41.4954 65.9297 41.2208C65.7601 40.8977 65.8409 40.5908 66.2204 40.1143C66.7373 39.4682 67.8195 38.3779 67.8518 38.4668C67.868 38.5072 67.7872 38.7172 67.6822 38.9352ZM22.9802 39.7509C24.119 40.93 24.337 41.3339 24.0947 41.7861C23.9413 42.0688 21.8657 43.4014 21.5749 43.4014C21.4457 43.4014 22.5522 42.2869 23.1094 41.8507C23.3356 41.6731 23.5294 41.4792 23.5294 41.4308C23.5294 41.3823 23.3598 41.0835 23.1498 40.7766C22.7702 40.2113 22.1564 39.1613 22.1564 39.0806C22.1564 38.9433 22.3664 39.121 22.9802 39.7509ZM12.7072 40.502C12.788 41.2208 12.8203 41.2935 13.2645 41.988C13.8944 42.9572 13.9186 43.0137 13.9186 43.3852C13.9186 43.6194 13.854 43.789 13.6764 44.0071C13.4987 44.2332 13.4421 44.3786 13.4664 44.524C13.4906 44.637 13.531 44.9116 13.5552 45.1378C13.6037 45.5093 13.5956 45.5335 13.4825 45.3881C13.3291 45.2024 13.0303 44.4271 13.0303 44.2252C13.0303 44.1444 13.1029 43.9506 13.1918 43.781C13.2806 43.6194 13.3533 43.4337 13.3533 43.3852C13.3533 43.3287 13.1676 42.9976 12.9495 42.6422C12.1742 41.4388 12.1823 41.4712 12.2953 40.4616C12.4407 39.129 12.5376 39.1371 12.7072 40.502ZM75.3789 41.0593C75.2255 41.3419 74.3775 42.2142 73.7879 42.6826C73.4729 42.933 72.8187 43.3771 72.3342 43.6679C71.3569 44.2575 69.4267 45.2266 69.3621 45.162C69.3056 45.1135 70.8078 43.2237 71.1712 42.8845C71.4862 42.5857 71.4862 42.6745 71.1793 43.2318C71.042 43.4741 70.9531 43.684 70.9693 43.7002C71.05 43.781 74.4905 41.6246 75.0559 41.1481C75.387 40.8654 75.5001 40.8331 75.3789 41.0593ZM66.4304 42.5857C67.2623 43.2964 67.8357 43.8617 67.7792 43.9263C67.7146 43.9829 66.5112 43.3368 65.962 42.9491C65.6874 42.7553 65.429 42.5938 65.3886 42.5938C65.3482 42.5938 65.0413 42.9087 64.7021 43.2964C63.9268 44.1848 63.4261 44.6774 63.4261 44.5482C63.4261 44.2817 64.5164 42.4645 64.8879 42.1253C65.009 42.0042 65.1786 41.9477 65.3724 41.9477C65.6309 41.9477 65.7843 42.0365 66.4304 42.5857ZM54.6391 42.4968C54.7037 42.5614 54.7037 42.6018 54.6149 42.6261C54.4534 42.6826 52.087 42.8199 49.333 42.933C46.789 43.0379 35.0542 43.0783 34.9492 42.9733C34.8361 42.8603 34.9977 42.8118 35.7407 42.7472C36.621 42.6745 42.2582 42.4403 44.0027 42.3999C46.9586 42.3434 54.5503 42.408 54.6391 42.4968ZM25.6454 43.3529C26.2672 44.2978 26.7114 45.0893 26.6549 45.1539C26.5903 45.2105 25.4435 44.0394 25.0639 43.5387C24.9104 43.3287 24.7408 43.1591 24.6843 43.1591C24.6278 43.1591 24.3047 43.3448 23.9574 43.571C23.069 44.1444 22.3179 44.5563 22.2614 44.4997C22.1322 44.3786 24.0947 42.6261 24.4743 42.5211C24.9023 42.3999 25.1285 42.5695 25.6454 43.3529ZM18.934 43.4821C19.1763 43.6114 19.3136 43.8052 19.8385 44.7905L20.4604 45.9454L19.9516 45.9696C19.0148 46.0181 14.6132 45.6062 14.1206 45.4204C13.8298 45.3074 15.8408 45.2347 17.658 45.2831L19.4186 45.3316L19.362 45.1539C19.2409 44.7663 18.7563 43.886 18.6271 43.8213C18.5463 43.7729 18.1021 43.6437 17.6337 43.5225C17.1653 43.4095 16.7696 43.2883 16.7453 43.2641C16.7211 43.2399 17.1411 43.2479 17.6741 43.2802C18.3606 43.3206 18.7159 43.3772 18.934 43.4821ZM51.9174 43.6437C53.8315 43.7325 55.689 43.886 57.49 44.0959C58.5319 44.2252 58.8388 44.2978 58.7257 44.4109C58.7015 44.4351 57.4012 44.3948 55.8263 44.3301C52.0628 44.1686 43.4131 44.1686 37.9536 44.3301C35.6518 44.4028 33.7458 44.4351 33.7216 44.4109C33.6974 44.3867 33.7135 44.3382 33.7539 44.2978C33.8912 44.1686 38.4058 43.781 41.2164 43.6517C43.4131 43.5548 49.866 43.5548 51.9174 43.6437ZM22.8833 46.325C24.4339 47.068 25.7019 47.0599 27.6321 46.2684C28.0117 46.115 28.3348 46.0019 28.359 46.0181C28.4236 46.0908 27.3898 46.8661 26.9618 47.0761C26.453 47.3103 25.5969 47.5203 25.1043 47.5203C24.2239 47.5203 23.1498 47.0841 22.5441 46.4865C22.2049 46.1554 22.0353 45.9131 22.221 46.0019C22.2533 46.0181 22.5522 46.1635 22.8833 46.325ZM62.6992 46.325C64.161 47.0438 65.5097 47.0518 67.2623 46.3492C67.6661 46.1877 68.0457 46.0342 68.1103 46.01C68.1749 45.9858 68.0699 46.1312 67.868 46.3411C67.4077 46.8176 66.5758 47.2376 65.7278 47.4153C65.1867 47.5203 64.9767 47.5283 64.4437 47.4557C63.7007 47.3426 62.9738 47.0276 62.4731 46.5915C62.1581 46.3169 61.8673 45.9292 62.0289 45.9939C62.0612 46.01 62.3681 46.1635 62.6992 46.325Z" fill="white"/>
<rect x="9.57892" y="48.5312" width="70.9888" height="7.22118" fill="white"/>
<path d="M8.88 52.1999V56.1599H45.2188H81.5576V52.1999V48.2399H45.2188H8.88V52.1999ZM57.0056 48.7601C57.1454 48.83 57.324 48.9698 57.4016 49.0863C57.4793 49.195 57.8598 50.0569 58.248 50.9964C58.6362 51.9359 59.1953 53.2947 59.4981 54.0169C59.8009 54.739 60.0494 55.3601 60.0494 55.399C60.0494 55.43 59.5602 55.4611 58.9701 55.4611H57.8908L57.6268 54.7778L57.3628 54.1023H56.0506H54.7461L54.4976 54.7623L54.2492 55.4223L53.1388 55.4456C52.2692 55.4611 52.044 55.4456 52.0751 55.3679C52.5875 54.0945 53.2087 52.5804 53.5271 51.8505C53.7445 51.338 54.0395 50.6159 54.1871 50.251C54.6918 48.9465 54.8315 48.7757 55.5692 48.6281C55.9807 48.5505 56.6718 48.6126 57.0056 48.7601ZM14.8122 48.7834C14.9908 48.8689 15.1772 49.0086 15.2315 49.094C15.3558 49.3037 17.8871 55.3213 17.8871 55.4223C17.8871 55.4456 17.3901 55.4533 16.7845 55.4456L15.6897 55.4223L15.4489 54.739L15.2082 54.0634L13.8882 54.079L12.576 54.1023L12.3042 54.7856L12.0402 55.4611H10.9609H9.88165L9.936 55.2825C9.96706 55.1893 10.3165 54.3274 10.7202 53.3646C11.124 52.4018 11.6675 51.0896 11.9238 50.4529C12.4906 49.0552 12.5527 48.9543 12.9565 48.7757C13.3991 48.5738 14.3852 48.5738 14.8122 48.7834ZM25.0306 48.7757C25.4033 48.9776 25.6595 49.2881 25.7682 49.6686C25.908 50.119 25.9235 50.8566 25.7993 51.1672C25.6828 51.4778 25.3567 51.7961 25.1005 51.8505C24.9762 51.8816 24.8753 51.9281 24.8753 51.9514C24.8753 51.9825 25.0617 52.0912 25.2791 52.1999C25.9158 52.5027 26.0012 52.6736 26.0012 53.6674C26.0012 54.4439 25.9857 54.5216 25.7838 54.8244C25.3722 55.4456 25.3101 55.4611 22.4372 55.4611C20.6435 55.4611 19.8515 55.4378 19.7118 55.3679C19.3002 55.1816 19.2847 55.0806 19.2847 52.0679C19.2847 49.0164 19.2925 49.0009 19.7506 48.7601C19.9991 48.6359 20.2398 48.6204 22.4294 48.6437C24.2929 48.6592 24.8831 48.6903 25.0306 48.7757ZM34.3094 49.4434V50.2199L33.0515 50.2432L31.7859 50.2587V52.8599V55.4611H30.7377H29.6894V52.8599V50.2587H28.4471H27.2047V49.4434V48.6281L30.7609 48.6437L34.3094 48.667V49.4434ZM40.6609 48.7136C41.8179 48.8921 42.4391 49.3658 42.7341 50.3131C42.8817 50.7634 42.9049 51.0197 42.9049 52.0834C42.9049 53.6674 42.7652 54.1954 42.1906 54.77C41.6082 55.3524 41.2821 55.4223 39.24 55.4223C37.3299 55.4223 36.9339 55.3446 36.3904 54.8787C35.9167 54.475 35.6838 53.9159 35.5751 52.9376C35.4586 51.9126 35.5673 50.6237 35.8158 50.0569C36.1497 49.3114 36.7786 48.8766 37.7647 48.7136C38.3859 48.6126 40.0165 48.6126 40.6609 48.7136ZM49.5671 48.7136C49.9398 48.799 50.3668 49.0785 50.4988 49.327C50.6541 49.6143 50.7473 50.3597 50.6929 50.8333C50.6386 51.2371 50.592 51.3458 50.3435 51.5943C50.1805 51.7573 49.9786 51.8893 49.8854 51.8893C49.7922 51.8893 49.7224 51.9359 49.7224 52.0058C49.7224 52.0757 49.7922 52.1223 49.9165 52.1223C50.5454 52.1223 50.8871 52.658 50.8793 53.6364C50.8793 54.607 50.6696 55.0418 50.0718 55.3136C49.7922 55.4456 49.5205 55.4611 47.2144 55.4611H44.6675L44.6908 54.6613L44.7141 53.8693L46.5932 53.8305C47.9675 53.7994 48.4955 53.7684 48.5732 53.6907C48.6974 53.5665 48.6974 53.0074 48.5732 52.8832C48.4955 52.8056 47.9753 52.7745 46.632 52.7434L44.7918 52.7046L44.7685 52.0213L44.7452 51.3458H46.4767C48.4645 51.3458 48.5576 51.3225 48.5576 50.81C48.5576 50.3131 48.5111 50.3053 46.5078 50.2587L44.7141 50.2199L44.6908 49.5289C44.6753 49.1484 44.6831 48.7912 44.7064 48.7291C44.7374 48.6514 45.1955 48.6281 46.9814 48.6281C48.2315 48.6281 49.3729 48.667 49.5671 48.7136ZM68.2412 48.8921C68.7925 49.3192 68.7847 49.2649 68.7847 52.5105V55.4223H67.7365H66.6882L66.7193 53.3025C66.7426 51.4856 66.7348 51.1905 66.6339 51.1905C66.5718 51.1905 66.3078 51.5477 66.0515 51.9825C64.0327 55.4223 64.1026 55.3213 63.5513 55.4378C62.6739 55.6164 61.9285 55.399 61.68 54.8787C61.5325 54.5759 61.5247 54.4051 61.5247 51.6331V48.7058H62.5807H63.6289L63.6056 50.8178C63.5901 52.5881 63.5979 52.9376 63.6911 52.9376C63.792 52.9376 64.0327 52.5493 65.3915 50.15C66.1758 48.7679 66.3854 48.6126 67.4026 48.6592C67.8685 48.6747 68.0082 48.7136 68.2412 48.8921ZM73.2106 48.7136C73.3814 48.7601 73.6454 48.931 73.8007 49.0863C74.0492 49.3347 74.1501 49.5832 74.6859 51.1905C75.0198 52.1921 75.3381 53.1161 75.4002 53.2404C75.5012 53.4267 75.5322 53.4423 75.6254 53.3569C75.6798 53.2947 76.0214 52.3863 76.3864 51.3303C76.7435 50.282 77.0852 49.3503 77.1473 49.2571C77.4424 48.8378 77.9315 48.6281 78.6381 48.6281C79.2981 48.6281 79.6864 48.7524 79.9814 49.0707L80.2376 49.3347V52.4018V55.4611H79.1816H78.1179L78.1489 53.2714C78.1722 51.4157 78.1645 51.074 78.0713 51.074C78.0014 51.074 77.9082 51.2449 77.8228 51.5011C77.7529 51.734 77.4889 52.5571 77.2482 53.3258C76.7125 55.0185 76.6504 55.1583 76.3398 55.3369C75.9981 55.5465 75.144 55.5387 74.7868 55.3291C74.4607 55.1427 74.4064 55.0263 73.9482 53.5354C73.3969 51.7573 73.1407 51.0663 73.0553 51.1129C73.0087 51.1361 72.9776 51.9437 72.9776 53.287V55.4223L71.9527 55.4456L70.92 55.4689V52.394V49.327L71.1374 49.094C71.2539 48.962 71.4868 48.8067 71.6576 48.7446C72.0304 48.6126 72.7835 48.5971 73.2106 48.7136Z" fill="#112B66"/>
<path d="M55.9807 50.6545C55.9574 50.7166 55.8021 51.1514 55.6235 51.6251C55.4527 52.0987 55.3129 52.5102 55.3129 52.5413C55.3129 52.5646 55.6468 52.5879 56.0506 52.5879C56.6174 52.5879 56.7882 52.5646 56.7882 52.4792C56.7882 52.3317 56.1748 50.7011 56.0894 50.6157C56.0428 50.5691 56.004 50.5846 55.9807 50.6545Z" fill="#112B66"/>
<path d="M13.6475 50.9728C13.5776 51.198 13.4145 51.6561 13.298 51.9822L13.0806 52.5879H13.8804H14.6802L14.354 51.6639C13.8882 50.3672 13.8571 50.3361 13.6475 50.9728Z" fill="#112B66"/>
<path d="M21.4743 50.3523C21.42 50.4067 21.3812 50.6474 21.3812 50.8958V51.3462H22.3518C22.9108 51.3462 23.4 51.3074 23.5087 51.253C23.7727 51.1365 23.8581 50.725 23.6795 50.4533C23.5553 50.2669 23.532 50.2591 22.5614 50.2591C21.8936 50.2591 21.5365 50.2902 21.4743 50.3523Z" fill="#112B66"/>
<path d="M21.3812 53.2248C21.3812 53.6596 21.4045 53.7605 21.5287 53.8304C21.7461 53.9391 23.3922 53.9313 23.6329 53.8071C23.7416 53.7528 23.8503 53.6052 23.8969 53.4577C23.9513 53.248 23.9435 53.1626 23.8115 52.9918C23.6562 52.7822 23.6407 52.7822 22.5148 52.7433L21.3812 52.7045V53.2248Z" fill="#112B66"/>
<path d="M38.5722 50.2585C38.2306 50.3673 37.8579 50.7788 37.7569 51.1515C37.6171 51.6562 37.6948 52.9607 37.8889 53.2868C38.1684 53.7682 38.4713 53.908 39.24 53.908C40.0475 53.908 40.3426 53.7604 40.6221 53.2091C40.7851 52.8908 40.8007 52.7743 40.7774 51.959C40.7541 51.1593 40.7308 51.035 40.56 50.7865C40.459 50.6313 40.2727 50.4449 40.1562 50.375C39.8922 50.2197 38.9216 50.1498 38.5722 50.2585Z" fill="#112B66"/>
</g>
<defs>
<linearGradient id="paint0_linear_970_930" x1="45.12" y1="1.92" x2="45.12" y2="91.44" gradientUnits="userSpaceOnUse">
<stop stop-color="#0868E8"/>
<stop offset="1" stop-color="#DE001B"/>
</linearGradient>
<clipPath id="clip0_970_930">
<rect width="90" height="90" fill="white"/>
</clipPath>
</defs>
</svg>
