<svg width="90" height="90" viewBox="0 0 90 90" fill="none" xmlns="http://www.w3.org/2000/svg">
<circle cx="45" cy="45" r="45" fill="#436785"/>
<g clip-path="url(#clip0_600_425)">
<path d="M44.8801 72.1312V77.1394C42.2006 77.0554 39.5712 76.3901 37.173 75.1892L39.7284 70.861C41.3452 71.6211 43.0961 72.0528 44.8801 72.1312V72.1312Z" fill="#8EBA39"/>
<path d="M37.9435 69.8609L35.37 74.1664C33.3816 72.8763 31.6552 71.2202 30.2819 69.2857L34.5374 66.6344C35.4792 67.8982 36.6315 68.9897 37.9435 69.8609V69.8609Z" fill="#8EBA39"/>
<path d="M33.6533 65.2792L29.3221 67.7772C28.0578 65.5767 27.2567 63.1399 26.968 60.6171H32.0062C32.2657 62.2591 32.824 63.8394 33.6533 65.2792V65.2792Z" fill="#8EBA39"/>
<path d="M65.9984 58.2025V58.1828C65.9984 58.119 65.9984 58.0583 65.9984 57.9961C65.909 53.7092 64.4793 49.5586 61.911 46.1298V46.1298L49.9621 12H40.7441L29.2161 45.9629C26.475 49.5443 24.9926 53.9342 25 58.4484V58.5591C25 58.5986 25 58.6365 25 58.676C25.0305 64.1262 27.2195 69.3411 31.0854 73.1733C34.9513 77.0056 40.1775 79.1414 45.6142 79.1108C51.051 79.0802 56.2529 76.8858 60.0757 73.0102C63.8985 69.1347 66.029 63.8956 65.9984 58.4453C66 58.3664 66 58.2875 65.9984 58.2025ZM57.5072 64.9893C58.2485 63.628 58.7508 62.149 58.9923 60.617H64.035C63.7533 63.0712 62.9865 65.4445 61.7793 67.5981L57.5072 64.9893ZM45.4992 70.4527C42.4045 70.455 39.4294 69.2545 37.1991 67.1037C34.9689 64.9528 33.6572 62.019 33.5397 58.9188V58.9188L36.1768 50.9361L36.855 48.8797H53.998L54.6384 50.7161L57.4618 58.808C57.3688 61.9265 56.0677 64.886 53.8344 67.0589C51.6012 69.2317 48.6113 70.4469 45.4992 70.4467V70.4527ZM45.1964 23.6402L50.3769 38.4901L51.1156 40.6148L51.5774 41.9366H39.15L39.5512 40.7225L40.2567 38.5857L45.1964 23.6402ZM32.0061 60.617C32.2656 62.2591 32.8239 63.8394 33.6532 65.2792L29.322 67.7772C28.0578 65.5767 27.2566 63.1399 26.968 60.617H32.0061ZM30.2879 69.2857L34.5373 66.6344C35.4782 67.9003 36.63 68.9939 37.942 69.8669L35.3684 74.1724C33.3822 72.8798 31.6583 71.2216 30.2879 69.2857V69.2857ZM39.7283 70.8671C41.3442 71.6245 43.0934 72.0541 44.8755 72.1312V77.1394C42.196 77.0554 39.5666 76.3901 37.1684 75.1892L39.7283 70.8671ZM46.7633 77.1136V72.0872C48.3868 71.9399 49.9705 71.4998 51.4381 70.7881L54.1524 75.0269C51.8615 76.2314 49.3445 76.9422 46.7633 77.1136V77.1136ZM55.9282 73.9645L53.0413 69.8669C54.3551 68.994 55.5089 67.9005 56.452 66.6344L60.6545 69.3661C59.3619 71.1664 57.7619 72.7232 55.9282 73.9645V73.9645Z" fill="white"/>
</g>
<defs>
<clipPath id="clip0_600_425">
<rect width="41" height="67" fill="white" transform="translate(25 12)"/>
</clipPath>
</defs>
</svg>
