<svg width="90" height="90" viewBox="0 0 90 90" fill="none" xmlns="http://www.w3.org/2000/svg">
<circle cx="45" cy="45" r="45" fill="#F5F5F5"/>
<g clip-path="url(#clip0_548_459)">
<path d="M45.0379 73.8681C29.1823 73.8681 16.1921 60.8143 16.1921 44.9586C16.1921 41.3927 16.8288 38.0177 18.0387 34.8339L34.9132 68.774C35.1043 69.2197 35.4226 69.6018 35.9321 69.6018C36.4415 69.6018 36.7599 69.2197 36.9509 68.774L44.7195 51.39C44.7832 51.199 44.9106 51.0079 45.1016 51.0079C45.2926 51.0079 45.3563 51.199 45.4837 51.39L53.2523 68.774C53.4434 69.2197 53.7617 69.6018 54.2712 69.6018C54.7806 69.6018 55.099 69.2197 55.29 68.774L72.1645 34.8339C73.3744 38.0177 74.0112 41.3927 74.0112 44.9586C73.8838 60.8143 60.8936 73.8681 45.0379 73.8681ZM45.0379 38.3998C44.8469 38.3998 44.7832 38.2088 44.6559 38.0177L35.6137 17.641C38.5428 16.5585 41.7267 15.9854 45.0379 15.9854C48.3492 15.9854 51.533 16.5585 54.4622 17.641L45.42 38.0177C45.2926 38.2725 45.229 38.3998 45.0379 38.3998ZM35.8047 59.3497C35.6137 59.3497 35.55 59.1587 35.4226 58.9676L20.7768 29.4213C23.3876 25.4096 26.8899 22.0347 31.1563 19.6786L41.7267 43.1756C41.8541 43.5577 42.1724 43.685 42.4908 43.685H47.585C47.9671 43.685 48.2218 43.6214 48.4128 43.1756L58.9833 19.6786C63.186 22.0347 66.7519 25.4096 69.3627 29.4213L54.5895 58.9676C54.5259 59.1587 54.3985 59.3497 54.2075 59.3497C54.0164 59.3497 53.9528 59.1587 53.8254 58.9676L48.2855 46.3595C48.0944 45.9138 47.8397 45.8501 47.4577 45.8501H42.3635C41.9814 45.8501 41.7267 45.9138 41.5357 46.3595L36.1868 58.9676C36.1231 59.1587 35.9957 59.3497 35.8047 59.3497ZM45.0379 76.7973C62.6766 76.7973 76.8766 62.5972 76.8766 44.9586C76.8766 27.3199 62.6766 13.1199 45.0379 13.1199C27.3993 13.1199 13.1992 27.3199 13.1992 44.9586C13.1992 62.5972 27.3993 76.7973 45.0379 76.7973Z" fill="#001E50"/>
</g>
<defs>
<clipPath id="clip0_548_459">
<rect width="64" height="64" fill="white" transform="translate(13 13)"/>
</clipPath>
</defs>
</svg>
