<svg width="90" height="90" viewBox="0 0 90 90" fill="none" xmlns="http://www.w3.org/2000/svg">
<circle cx="45" cy="45" r="45" fill="#FFDF35"/>
<path d="M35.1299 23.9694C38.5313 21.986 42.5379 21 47.1496 21C49.9824 21 52.6535 21.51 55.1576 22.5187C57.7139 23.5274 59.9572 25.0235 61.8979 26.9955C63.8803 28.9789 65.3149 31.6423 66.207 34.9801C67.0939 38.2725 67.24 42.007 66.6296 46.1834C65.8992 51.3289 64.2246 55.6584 61.5953 59.1718C58.966 62.6853 55.9088 65.2184 52.4291 66.7541C48.7914 68.2812 44.9195 69.0427 41.0198 68.9982C36.4863 68.9982 32.4797 67.9611 29 65.8984L30.3355 56.8654C33.1683 59.0188 36.5645 60.0955 40.5346 60.0955C44.416 60.0955 47.8383 59.2172 50.7911 57.4605C53.7856 55.7037 55.8671 52.8873 57.0409 49.0169L37.8009 49.0849L39.0165 40.5846L58.1939 40.5166C58.164 38.7356 57.7265 36.9906 56.9209 35.4391C56.1905 33.9884 55.1993 32.889 53.9473 32.141C52.6952 31.3477 51.3753 30.781 50.0033 30.4296C48.5913 30.0686 47.1447 29.8917 45.6941 29.9026C41.0771 29.9026 37.0914 31.1096 33.7369 33.5294L35.1299 23.9694Z" fill="#3B3D46"/>
</svg>
