<svg width="90" height="90" viewBox="0 0 90 90" fill="none" xmlns="http://www.w3.org/2000/svg">
<circle cx="45" cy="45" r="45" fill="#F5F5F5"/>
<path fill-rule="evenodd" clip-rule="evenodd" d="M43.8176 71.9901H46.3854C47.7487 71.7827 49.1268 71.6345 50.4801 71.3677C55.7099 70.3502 60.2159 67.9248 63.9983 64.2151C68.5093 59.7942 71.2258 54.4544 71.9198 48.1663C72.5742 42.2091 71.7166 36.5582 68.2416 31.4951C68.2019 31.4358 68.1821 31.3568 68.1028 31.169C73.3673 31.2728 77.6057 29.5982 80 24.466C78.8152 24.466 77.7346 24.4413 76.6589 24.4907C76.4606 24.5005 76.2623 24.7969 76.0987 24.9896C75.4344 25.7453 74.8346 26.5653 74.1109 27.2618C72.2321 29.0648 69.813 29.2426 67.384 29.2574C67.0767 29.2574 66.7098 28.8128 66.462 28.5066C64.5584 26.1059 62.3525 24.0165 59.7648 22.3666C55.8289 19.8573 51.531 18.3804 46.8366 18.1334C46.6284 18.1235 46.4301 18.0445 46.2268 18H43.9812C43.773 18.0445 43.5698 18.1186 43.3616 18.1334C38.221 18.4347 33.5315 20.0499 29.3824 23.0779C22.0309 28.4374 18.1841 35.7036 18.0057 44.7629C17.8867 50.6411 19.6415 56.0203 23.1562 60.7821C27.2954 66.3886 32.778 69.9649 39.6387 71.3776C41.0168 71.6592 42.4247 71.7925 43.8176 72V71.9901ZM42.4941 70.8589C36.0101 70.2267 30.6911 67.2234 26.6113 62.2245C21.6888 56.1932 19.7109 49.2382 20.6974 41.5077C21.56 34.775 24.4847 29.0746 29.6798 24.6537C35.0236 20.1092 41.2746 18.2618 48.2295 19.1756C54.426 19.9907 59.4872 22.9742 63.4926 27.7409C64.0677 28.4226 64.5882 29.1537 65.0888 29.8106C63.2596 30.5812 61.4503 31.1789 59.8045 32.0829C58.1389 32.9967 56.6418 34.2119 55.0853 35.2788C54.2921 34.6564 53.5039 33.9352 52.6166 33.3573C46.0632 29.1043 38.5531 30.4923 33.586 35.1504C31.395 37.2053 29.9029 39.6998 29.66 42.7772C29.3675 46.4769 31.5536 49.2431 34.9889 49.584C39.1777 49.9989 43.9118 46.1954 44.4274 42.0066C44.6207 40.416 43.7334 38.6378 42.5189 38.1981C40.7839 37.5659 37.9037 39.0478 37.4477 40.831C37.3981 41.0187 37.4378 41.3496 37.5617 41.4435C38.0425 41.809 38.573 42.1054 39.0042 42.3721C39.2174 41.6806 39.3611 41.0088 39.6387 40.3913C40.0105 39.5516 40.7987 39.1367 41.5621 39.2552C42.266 39.3589 42.8262 40.006 42.9749 40.8952C43.6541 44.8419 39.9957 48.7146 35.9754 48.3096C33.3927 48.0478 31.4792 45.8743 31.4792 43.0686C31.4792 39.4232 33.3382 36.652 36.0646 34.5082C38.91 32.2656 42.3107 31.4951 45.8848 31.9396C49.1813 32.3447 51.6648 34.2415 53.7468 36.6866C52.9934 37.5412 52.2646 38.3167 51.5954 39.1416C49.1714 42.1202 47.4265 45.494 45.7955 48.9418C44.6703 51.3227 43.5648 53.7135 41.5869 55.5708C41.002 56.124 40.4567 56.3019 39.6635 56.1685C37.2097 55.7536 34.7361 55.4473 32.2476 55.8277C31.4941 55.9413 30.7059 56.1339 30.0466 56.4945C29.1643 56.9737 29.2039 57.8924 30.0665 58.3913C30.4977 58.6433 30.9934 58.8161 31.4842 58.9199C33.5166 59.3496 35.5144 59.157 37.4873 58.5148C37.9037 58.3765 38.4292 58.3765 38.8555 58.4852C40.7839 58.9841 42.7171 59.3348 44.7198 59.0285C50.2372 58.174 54.1979 55.1855 56.6369 50.2459C59.056 45.3408 58.818 40.5593 55.6256 35.8913C55.7446 35.7827 55.8636 35.6394 56.0123 35.5357C58.4512 33.8019 61.0735 32.4632 64.0429 31.9199C65.991 31.5642 65.6936 31.3765 66.809 33.1894C68.6332 36.1581 69.3669 39.4923 69.6048 42.9056C70.0758 49.6186 68.4498 55.8178 64.3354 61.197C59.4278 67.6136 53.0677 71.022 45.2602 71.022C44.358 71.022 43.4359 70.9775 42.499 70.8836L42.4941 70.8589ZM41.8149 56.5884C42.4395 56.045 43.0294 55.5906 43.55 55.067C46.1971 52.4094 48.0808 49.2678 49.5729 45.8447C50.599 43.4885 51.8135 41.2113 52.9834 38.9193C53.2759 38.3513 53.7369 37.8672 54.1781 37.2645C54.4061 37.6449 54.5747 37.882 54.6986 38.1339C56.8798 42.5351 56.8054 46.9215 54.659 51.3128C52.6959 55.3238 49.3697 57.0428 45.4932 57.0428C44.3084 57.0428 43.0741 56.8847 41.8149 56.5834V56.5884ZM31.8263 58.0209C31.5734 57.9369 31.4049 57.6158 31.1917 57.4034C31.4644 57.2404 31.7321 56.9539 32.0146 56.9341C33.6852 56.8156 35.2715 57.1811 36.952 57.8875C35.8961 58.1542 34.8898 58.3469 33.8983 58.3469C33.2043 58.3469 32.5153 58.253 31.8263 58.0209Z" fill="url(#paint0_linear_551_322)"/>
<defs>
<linearGradient id="paint0_linear_551_322" x1="18.0007" y1="71.9916" x2="18.0007" y2="17.9951" gradientUnits="userSpaceOnUse">
<stop stop-color="#F8BD01"/>
<stop offset="0.259" stop-color="#FDD40F"/>
<stop offset="0.431" stop-color="#FFEC1E"/>
<stop offset="0.788" stop-color="#FDD40F"/>
<stop offset="1" stop-color="#F8BD01"/>
</linearGradient>
</defs>
</svg>
