<svg width="90" height="90" viewBox="0 0 90 90" fill="none" xmlns="http://www.w3.org/2000/svg">
<circle cx="45" cy="45" r="45" fill="#F5F5F5"/>
<g clip-path="url(#clip0_240_342)">
<path d="M45.5812 74.3903L47.3774 76.0428C48.6548 77.218 50.6092 75.7035 49.7587 74.1962L49.1475 73.3851C48.796 72.9184 49.3573 72.316 49.8562 72.625L50.4572 72.9986C51.6921 74.0083 53.3971 72.5128 52.5336 71.1789L52.2433 70.7302C51.7993 70.0442 52.6645 69.2718 53.3098 69.7766L53.773 70.139C54.9308 71.046 56.4622 69.6089 55.6078 68.4169L55.288 67.9715C54.8639 67.3797 55.5369 66.6253 56.1832 66.9691L56.6323 67.2075C58.196 68.0383 59.7082 66.0295 58.454 64.7848L16.7935 23.4786C15.7639 22.4577 14 23.179 14 24.6218V48.8189C14.0001 49.242 14.0871 49.6606 14.2557 50.0494C14.4243 50.4382 14.671 50.789 14.9809 51.0806L29.7622 64.9666L29.9607 65.1629L34.1847 60.9839" fill="#1A98B1"/>
<path d="M39.5677 62.3315L32.5043 69.3195C31.9707 69.8475 31.9707 70.7034 32.5043 71.2314L33.5792 72.2948C34.1128 72.8227 34.978 72.8227 35.5116 72.2948L42.575 65.3067C43.1087 64.7788 43.1087 63.9228 42.575 63.3949L41.5002 62.3315C40.9665 61.8036 40.1013 61.8036 39.5677 62.3315Z" fill="#F5F5F5"/>
<path d="M42.5731 65.3045L35.5097 72.2925C34.976 72.8205 34.976 73.6764 35.5097 74.2043L36.5845 75.2677C37.1182 75.7957 37.9833 75.7957 38.517 75.2677L45.5804 68.2797C46.114 67.7518 46.114 66.8958 45.5804 66.3679L44.5055 65.3045C43.9719 64.7765 43.1067 64.7765 42.5731 65.3045Z" fill="#F5F5F5"/>
<path d="M45.5775 68.2771L38.5141 75.2652C37.9804 75.7931 37.9804 76.649 38.5141 77.177L39.9562 78.6037C40.4898 79.1316 41.355 79.1316 41.8886 78.6037L48.952 71.6157C49.4857 71.0877 49.4857 70.2318 48.952 69.7039L47.5099 68.2771C46.9763 67.7492 46.1111 67.7492 45.5775 68.2771Z" fill="#F5F5F5"/>
<path d="M35.9357 59.251L29.3902 65.7266C28.7136 66.396 28.7136 67.4814 29.3903 68.1508L30.3144 69.0651C30.991 69.7345 32.0881 69.7345 32.7648 69.0651L39.3102 62.5895C39.9869 61.9201 39.9869 60.8347 39.3102 60.1652L38.3861 59.251C37.7094 58.5815 36.6123 58.5815 35.9357 59.251Z" fill="#F5F5F5"/>
<path d="M46.8507 48.4533L40.3053 54.9289C39.6286 55.5983 39.6286 56.6837 40.3053 57.3532L41.852 58.8834C42.5287 59.5529 43.6258 59.5529 44.3025 58.8834L50.8479 52.4078C51.5245 51.7384 51.5245 50.653 50.8479 49.9835L49.3011 48.4533C48.6245 47.7839 47.5274 47.7839 46.8507 48.4533Z" fill="#F5F5F5"/>
<path d="M36.3025 60.4027L31.2918 65.3599C30.849 65.798 30.849 66.5083 31.2918 66.9465L31.8992 67.5474C32.3421 67.9855 33.0601 67.9855 33.5029 67.5474L38.5136 62.5901C38.9564 62.152 38.9564 61.4417 38.5136 61.0036L37.9062 60.4027C37.4634 59.9645 36.7454 59.9645 36.3025 60.4027Z" fill="#96C908"/>
<path d="M46.48 50.3338L41.4693 55.291C41.0265 55.7291 41.0265 56.4395 41.4693 56.8776L42.0767 57.4785C42.5196 57.9166 43.2376 57.9166 43.6804 57.4785L48.6911 52.5213C49.1339 52.0831 49.1339 51.3728 48.6911 50.9347L48.0837 50.3338C47.6409 49.8957 46.9229 49.8957 46.48 50.3338Z" fill="#96C908"/>
<path d="M39.3077 63.3756L34.297 68.3329C33.8541 68.771 33.8541 69.4813 34.297 69.9194L34.9044 70.5204C35.3472 70.9585 36.0652 70.9585 36.508 70.5204L41.5187 65.5631C41.9616 65.125 41.9616 64.4147 41.5187 63.9766L40.9113 63.3756C40.4685 62.9375 39.7505 62.9375 39.3077 63.3756Z" fill="#96C908"/>
<path d="M42.2559 66.2925L37.2452 71.2497C36.8024 71.6879 36.8024 72.3982 37.2452 72.8363L37.8526 73.4372C38.2954 73.8753 39.0134 73.8753 39.4563 73.4372L44.467 68.48C44.9098 68.0419 44.9098 67.3315 44.467 66.8934L43.8596 66.2925C43.4167 65.8544 42.6987 65.8544 42.2559 66.2925Z" fill="#96C908"/>
<path d="M45.3177 69.3216L40.307 74.2788C39.8641 74.7169 39.8641 75.4272 40.307 75.8654L40.9144 76.4663C41.3572 76.9044 42.0752 76.9044 42.518 76.4663L47.5287 71.5091C47.9716 71.0709 47.9716 70.3606 47.5287 69.9225L46.9213 69.3216C46.4785 68.8835 45.7605 68.8835 45.3177 69.3216Z" fill="#96C908"/>
<path d="M58.9275 63.2494L46.1765 50.6345L73.6918 23.6198C74.5463 22.7784 76 23.3798 76 24.5734V49.2221C76 49.6159 75.9203 50.0057 75.7656 50.3685C75.6108 50.7313 75.3842 51.0598 75.0991 51.3346L62.7042 63.2752C62.1976 63.7628 61.5173 64.0335 60.8105 64.0286C60.1037 64.0238 59.4273 63.7439 58.9275 63.2494V63.2494Z" fill="#96C908"/>
</g>
<defs>
<clipPath id="clip0_240_342">
<rect width="62" height="56" fill="white" transform="translate(14 23)"/>
</clipPath>
</defs>
</svg>
