<svg width="90" height="90" viewBox="0 0 90 90" fill="none" xmlns="http://www.w3.org/2000/svg">
<circle cx="45" cy="45" r="45" fill="#F5F5F5"/>
<path d="M43.8984 71.7456C43.4151 71.7496 42.9323 71.714 42.4549 71.6389C42.064 71.5594 41.6579 71.5645 41.2568 71.5035C40.8558 71.4426 40.4835 71.2767 40.0723 71.3139C40.0519 71.3119 40.0319 71.3067 40.0131 71.2987C39.7271 71.2259 39.4428 71.1379 39.1517 71.0871C38.7279 71.0054 38.3101 70.8952 37.9012 70.7571C37.7628 70.7376 37.6271 70.7024 37.4967 70.6521C37.1938 70.466 36.8199 70.4829 36.5186 70.295C36.2716 70.1494 35.9501 70.1901 35.6996 70.0191C35.5812 69.9379 35.3967 69.9497 35.2986 69.8769C35.0244 69.6721 34.6877 69.64 34.3932 69.4876C34.0988 69.3353 33.8077 69.2253 33.5319 69.0763C33.1478 68.8698 32.7569 68.6752 32.3744 68.4636C32.0597 68.2944 31.7348 68.142 31.4352 67.9372C31.0105 67.6427 30.5604 67.3871 30.1272 67.1062C29.8446 66.9234 29.5653 66.7338 29.298 66.5307C28.8715 66.2074 28.4519 65.8723 28.0356 65.5371C27.7597 65.3154 27.4822 65.092 27.2182 64.8601C27.0016 64.6672 26.8138 64.442 26.5972 64.2525C26.1913 63.8984 25.8086 63.5184 25.4516 63.1151C25.1724 62.7952 24.8694 62.4989 24.6055 62.1672C24.267 61.7491 23.9523 61.3125 23.6054 60.9028C23.3566 60.6083 23.1789 60.263 22.898 59.9888C22.7711 59.8653 22.7186 59.6503 22.5867 59.5132C22.5704 59.4837 22.5618 59.4505 22.5618 59.4167C22.5618 59.383 22.5704 59.3498 22.5867 59.3203C22.665 59.203 22.7656 59.1024 22.8828 59.0241C23.1459 58.8569 23.3869 58.6573 23.6003 58.43C24.0521 57.9984 24.5496 57.626 25.0234 57.2265C25.3788 56.927 25.7376 56.624 26.0997 56.3295C26.5346 55.9757 26.9729 55.6186 27.3925 55.2445C27.5448 55.1091 27.731 54.9889 27.8021 54.7875C27.9222 54.4067 28.1117 54.0563 28.259 53.689C28.3951 53.3336 28.551 52.9861 28.726 52.6481C28.9341 52.2639 29.0644 51.8407 29.2489 51.4413C29.3938 51.1536 29.5226 50.8581 29.6347 50.5561C29.7916 50.1147 29.9729 49.6824 30.1779 49.2612C30.3725 48.8449 30.5417 48.4149 30.7228 47.9935C30.7567 47.9139 30.8227 47.853 30.8362 47.7599C30.8802 47.4468 31.0731 47.1878 31.1746 46.8916C31.2575 46.641 31.3711 46.4016 31.5131 46.179C31.7111 45.8727 31.7077 45.502 31.7652 45.1449C31.7855 45.0264 31.7652 44.9011 31.7872 44.781C31.8904 43.9905 31.8972 43.1916 32.0072 42.3995C32.0867 41.824 32.1138 41.235 32.1443 40.6527C32.1832 39.9215 32.3017 39.1971 32.3135 38.4642C32.3089 38.1868 32.3315 37.9095 32.3812 37.6365C32.4556 37.298 32.3812 37.1152 32.0427 36.9849C31.9257 36.9557 31.8122 36.9137 31.7043 36.8596C31.4485 36.7146 31.1827 36.5879 30.909 36.4805C30.773 36.4408 30.6397 36.3927 30.5096 36.3366C30.2625 36.1674 29.9647 36.1318 29.7109 35.971C29.4012 35.7982 29.0787 35.6494 28.7463 35.5259C28.4874 35.4142 28.2386 35.2855 27.9662 35.1958C27.7055 35.0978 27.4507 34.9848 27.203 34.8573C26.8452 34.7211 26.4944 34.5669 26.1521 34.3952C25.9271 34.2615 25.6445 34.2107 25.4245 34.0821C24.9828 33.8367 24.5022 33.6844 24.0453 33.4762C23.7069 33.3238 23.3498 33.2037 23.03 33.0327C22.568 32.7873 22.0722 32.6333 21.6052 32.4115C21.5239 32.3726 21.4799 32.2914 21.3699 32.2795C21.1246 32.2558 21.0569 32.0967 21.1652 31.8767C21.2735 31.6566 21.4173 31.4095 21.551 31.1996C21.8133 30.7765 22.0435 30.3364 22.3193 29.9234C22.7051 29.3446 23.0757 28.7538 23.5038 28.2071C23.6544 28.0176 23.7746 27.7925 23.9303 27.6215C24.1486 27.3812 24.3449 27.1137 24.5632 26.8802C24.8813 26.5281 25.174 26.1506 25.4871 25.7952C25.8459 25.3873 26.2757 25.0437 26.653 24.6527C26.9559 24.3396 27.2978 24.0722 27.6278 23.7912C28.0143 23.4426 28.4205 23.1165 28.8445 22.8146C29.1068 22.6453 29.3521 22.4168 29.6076 22.234C30.1644 21.8184 30.7484 21.4407 31.3557 21.1034C31.7517 20.8952 32.1104 20.6193 32.5166 20.4263C32.9227 20.2334 33.3034 19.9947 33.7146 19.8102C33.8712 19.7524 34.0215 19.6787 34.1631 19.5902C34.3552 19.4749 34.5618 19.3855 34.7774 19.3244C35.0523 19.1947 35.3349 19.0817 35.6235 18.9859C35.8231 18.9368 35.9738 18.7642 36.1887 18.7744C36.3421 18.7666 36.4904 18.7162 36.6168 18.6288C36.6961 18.5717 36.7877 18.534 36.8842 18.5188C37.2615 18.5035 37.5763 18.2733 37.9469 18.2141C38.2684 18.1633 38.5595 17.9636 38.903 17.9721C38.9482 17.9653 38.9925 17.9533 39.035 17.9365C39.3074 17.8976 39.5528 17.7673 39.8218 17.7216C40.0492 17.6964 40.2751 17.6597 40.4987 17.6115C40.8072 17.5055 41.1304 17.4484 41.4565 17.4423H41.4751C41.9828 17.3153 42.4905 17.3627 42.9981 17.229C43.3112 17.1444 43.6446 17.1918 43.9695 17.1867C44.2216 17.1867 44.3079 17.1021 44.3079 16.8482C44.3079 16.6586 44.3079 16.469 44.3079 16.2795C44.3079 14.3432 44.3079 12.4068 44.3079 10.4705C44.3281 10.3363 44.3024 10.1991 44.2351 10.0812C44.0983 10.0488 43.9577 10.0346 43.8172 10.0389C43.9577 10.0346 44.0983 10.0488 44.2351 10.0812C44.2351 10.0508 44.2351 10.0135 44.2724 9.99829H43.1352V10.0524C42.9699 10.0465 42.8044 10.0567 42.6411 10.0829C42.5074 10.0694 42.3703 10.0271 42.2468 10.1202C42.0088 10.1935 41.759 10.2211 41.5107 10.2014C41.0823 10.2193 40.6563 10.276 40.2381 10.3707C39.7795 10.4553 39.3125 10.4891 38.8624 10.6059C38.4122 10.7227 37.9147 10.7853 37.4511 10.9444C37.2158 11.0223 36.9603 11.0511 36.7166 11.1272C36.3782 11.2322 36.0279 11.2813 35.7013 11.4082C35.4289 11.5165 35.1429 11.5775 34.8704 11.674C34.598 11.7704 34.2849 11.8077 34.0243 11.938C33.7637 12.0683 33.449 12.1631 33.1681 12.2765C32.8432 12.4085 32.5132 12.5524 32.1747 12.6641C31.9023 12.7521 31.6671 12.9366 31.3963 13.05C31.1662 13.1499 30.9242 13.2277 30.7059 13.3496C30.4876 13.4715 30.2219 13.5984 29.9799 13.7186C29.7379 13.8388 29.5061 13.9691 29.2692 14.096C29.0323 14.223 28.7615 14.3922 28.4925 14.5192C28.2234 14.6461 27.956 14.8205 27.6971 14.9779C27.3688 15.1793 27.0558 15.4163 26.7224 15.6041C26.3891 15.792 26.0777 16.0611 25.7409 16.2693C25.4634 16.4386 25.2062 16.6654 24.9388 16.8567C24.4989 17.1732 24.113 17.5506 23.6578 17.8502C23.4248 18.0117 23.2127 18.2016 23.0266 18.4155C22.8613 18.5785 22.6861 18.7311 22.502 18.8725C21.8032 19.4852 21.1483 20.147 20.5137 20.8173C20.1143 21.2371 19.7505 21.6873 19.3461 22.0969C18.8706 22.5776 18.5 23.1395 18.0718 23.6541C17.7334 24.0705 17.4288 24.5308 17.1174 24.9777C16.7282 25.5345 16.3864 26.1236 15.9938 26.6703C15.8246 26.8988 15.7197 27.1662 15.5758 27.4116C15.4066 27.7027 15.2492 28.0057 15.0885 28.3053C14.8837 28.6878 14.6722 29.067 14.486 29.4613C14.2999 29.8557 14.1476 30.2433 13.9496 30.6106C13.7668 30.9491 13.6755 31.3147 13.4961 31.6516C13.3624 31.8987 13.2829 32.1898 13.1695 32.4521C13.0392 32.7534 12.963 33.0716 12.8412 33.3729C12.7715 33.5652 12.7149 33.762 12.672 33.9619C12.6195 34.1735 12.5231 34.3783 12.4774 34.5967C12.4249 34.8421 12.2828 35.052 12.2472 35.3109C12.2365 35.5684 12.1633 35.8193 12.034 36.0421C11.9596 36.1916 11.9252 36.3578 11.9342 36.5245C11.9105 36.8309 11.7649 37.0949 11.726 37.3928C11.6606 37.9287 11.5652 38.4604 11.44 38.9855C11.3842 39.2073 11.413 39.4256 11.3605 39.6389C11.2821 40.007 11.2256 40.3795 11.1913 40.7543C11.1076 41.5714 11.0669 42.3923 11.0694 43.2136C11.0694 43.2881 11.1118 43.3829 11.0068 43.4269V45.4174C11.1168 45.4597 11.0661 45.5545 11.0694 45.6256C11.1067 46.3584 11.0813 47.0896 11.1591 47.8259C11.2387 48.5876 11.3656 49.3391 11.4536 50.0957C11.4976 50.463 11.6228 50.8083 11.6533 51.1789C11.6555 51.4203 11.7008 51.6593 11.7869 51.8847C11.8734 52.1281 11.9302 52.381 11.9562 52.6379C12.0137 52.9037 12.1812 53.1457 12.1694 53.4165C12.1694 53.4267 12.1948 53.4368 12.1948 53.447C12.1948 53.7263 12.4114 53.9429 12.4181 54.2205C12.4284 54.3043 12.4483 54.3867 12.4774 54.4659C12.5214 54.647 12.6297 54.8044 12.6618 54.9737C12.7261 55.3224 12.9021 55.6321 12.9783 55.9757C12.9932 56.1143 13.0346 56.2488 13.1001 56.3718C13.2374 56.6105 13.3465 56.8644 13.425 57.1284C13.5536 57.433 13.7398 57.7208 13.8041 58.0491C13.8294 58.1795 13.953 58.2353 13.9733 58.3572C14.0497 58.6364 14.1635 58.904 14.3117 59.1527C14.4539 59.4371 14.5994 59.7248 14.7365 60.0108C14.9192 60.3934 15.1426 60.7539 15.3389 61.128C15.4737 61.3919 15.6234 61.6479 15.7873 61.8947C15.943 62.1215 16.0682 62.3822 16.2138 62.6242C16.3305 62.8189 16.4659 63.005 16.5861 63.1963C16.7976 63.5348 17.0227 63.8547 17.246 64.1797C17.5049 64.5538 17.8011 64.9041 18.0498 65.285C18.2732 65.6235 18.5575 65.9231 18.7995 66.2446C19.1379 66.6864 19.5288 67.0909 19.9028 67.5124C20.2768 67.9338 20.6474 68.3485 21.0366 68.7497C21.2735 68.9951 21.5595 69.1897 21.793 69.4369C22.1355 69.7902 22.4958 70.1258 22.8726 70.4423C23.2111 70.7334 23.558 71.0161 23.8964 71.3038C24.2349 71.5915 24.6088 71.864 24.9608 72.1501C25.2079 72.3498 25.499 72.5038 25.7494 72.7086C25.9998 72.9134 26.3163 73.0725 26.5837 73.274C27.0693 73.6379 27.6108 73.9104 28.1067 74.2523C28.4518 74.469 28.8089 74.6662 29.1761 74.843C29.5823 75.0613 29.9969 75.2644 30.4064 75.4777C30.6839 75.625 30.975 75.7536 31.266 75.8789C31.5544 75.9919 31.8368 76.1196 32.1121 76.2614C32.1697 76.2935 32.2272 76.3562 32.2813 76.3562C32.6198 76.3562 32.8702 76.5864 33.1731 76.6828C33.5301 76.7975 33.8794 76.9349 34.2189 77.0941C34.3374 77.15 34.4677 77.1483 34.5811 77.2025C34.9185 77.3502 35.27 77.4637 35.6302 77.541C35.8647 77.5898 36.0963 77.6514 36.324 77.7255C36.6912 77.8626 37.0771 77.9184 37.446 78.0454C37.8479 78.1574 38.2558 78.2467 38.6678 78.3128C39.0062 78.389 39.3649 78.438 39.7152 78.4973C40.0909 78.5599 40.4683 78.6496 40.8456 78.7072C41.2602 78.7715 41.6782 78.7546 42.0979 78.8392C42.6682 78.9543 43.2621 78.9187 43.8442 78.9797C44.2165 79.0169 44.2876 78.9357 44.2876 78.5616C44.2876 76.4177 44.2876 74.2782 44.2876 72.1433C44.2978 71.8573 44.1979 71.7591 43.8984 71.7456Z" fill="#0F9BCC"/>
<path d="M79.9881 42.5806C79.9881 42.3369 79.9881 42.0948 79.9762 41.8511C79.9595 41.8475 79.9447 41.838 79.9344 41.8243C79.9242 41.8106 79.9192 41.7937 79.9204 41.7766C79.9204 41.2096 79.7749 40.6561 79.741 40.0942C79.7145 39.7001 79.6653 39.3079 79.5938 38.9195C79.5126 38.4642 79.4466 38.0022 79.3264 37.557C79.2283 37.1965 79.1572 36.8343 79.0726 36.4721C79.0384 36.2368 78.9676 36.0084 78.8628 35.795C78.8523 35.7698 78.8472 35.7427 78.8475 35.7155C78.8222 35.3888 78.6546 35.0977 78.6022 34.7829C78.5218 34.4162 78.4149 34.0558 78.2823 33.7047C78.1334 33.2358 78.02 32.7433 77.7747 32.3252C77.6427 32.1086 77.6664 31.8648 77.5327 31.6668C77.3635 31.4061 77.3415 31.0744 77.1452 30.8205C77.0758 30.7308 77.0961 30.5768 77.0149 30.4735C76.8558 30.267 76.8456 29.9928 76.7221 29.7779C76.6155 29.6002 76.5224 29.4174 76.426 29.2346C76.2991 28.9908 76.1688 28.7505 76.0554 28.4983C75.9674 28.3019 75.8472 28.1191 75.7525 27.9245C75.5715 27.5756 75.3721 27.2366 75.1551 26.9089C74.9521 26.5873 74.7388 26.2708 74.5476 25.9442C74.42 25.7668 74.3069 25.5794 74.2092 25.3839C74.0986 25.1701 73.9616 24.9711 73.8014 24.7915C73.4629 24.3362 73.1346 23.8724 72.786 23.4374C72.5068 23.0989 72.2377 22.7452 71.9399 22.4134C71.6015 22.0428 71.285 21.6636 70.9584 21.2845C70.6928 20.973 70.3865 20.7005 70.1123 20.4026C69.9733 20.2126 69.8157 20.0368 69.6419 19.8779C69.3902 19.6797 69.1501 19.4672 68.9227 19.2415C68.6869 19.0607 68.4744 18.8515 68.2898 18.6187C68.2092 18.5165 68.1091 18.4314 67.9954 18.3681C67.7128 18.1853 67.4995 17.9213 67.2254 17.7385C66.8345 17.4795 66.5113 17.1393 66.1153 16.8922C65.9224 16.7703 65.7464 16.6045 65.5569 16.4691C64.9646 16.0459 64.3723 15.6228 63.7581 15.2369C63.2199 14.8983 62.6446 14.6089 62.1014 14.2738C61.7342 14.047 61.3534 13.8472 60.9727 13.656C60.6683 13.4972 60.356 13.3543 60.0369 13.2278C59.7746 13.1279 59.5292 12.9739 59.2669 12.8791C59.0046 12.7843 58.7813 12.6438 58.5274 12.5406C58.2914 12.4251 58.0418 12.3398 57.7845 12.2867C57.6915 12.2765 57.6559 12.1817 57.5646 12.1547C57.1534 12.0345 56.7692 11.8331 56.3394 11.7586C56.2014 11.7153 56.0663 11.6633 55.935 11.6029C55.5965 11.4929 55.2462 11.3676 54.901 11.2779C54.505 11.1747 54.1091 11.0545 53.7165 10.9529C53.4525 10.8835 53.158 10.9021 52.911 10.7447C52.8517 10.7058 52.7519 10.7346 52.6724 10.7193C52.2815 10.6398 51.8906 10.5501 51.5014 10.4739C51.4879 10.4723 51.4742 10.4723 51.4607 10.4739C51.0191 10.501 50.6146 10.3284 50.1747 10.2827C49.8206 10.2718 49.4674 10.2401 49.117 10.1879C48.5451 10.0542 47.9646 10.0745 47.3893 10.0034H46.8207C46.7434 10.043 46.6796 10.1047 46.6374 10.1806C46.5953 10.2566 46.5766 10.3433 46.5838 10.4299C46.599 10.6263 46.6024 10.8226 46.6024 11.0189C46.6024 12.6483 46.6024 14.2794 46.6024 15.9122C46.6024 16.2169 46.5906 16.5232 46.6109 16.8262C46.621 16.9735 46.665 17.1884 46.8478 17.1816C47.438 17.1905 48.0266 17.2471 48.6077 17.3509C48.8818 17.3848 49.1644 17.3661 49.4335 17.4203C49.7142 17.4563 49.9919 17.5129 50.2644 17.5896C50.6536 17.7283 51.0868 17.6928 51.4878 17.8468C51.8889 18.0009 52.3035 17.9839 52.6978 18.1363C52.911 18.2175 53.175 18.1938 53.3746 18.3055C53.5394 18.4005 53.72 18.4647 53.9077 18.4951C54.2021 18.5323 54.4373 18.6999 54.7166 18.7591C54.8266 18.7828 54.9586 18.7456 55.0449 18.8319C55.1826 18.945 55.3458 19.0229 55.5204 19.0587C55.7776 19.1467 56.028 19.2568 56.2751 19.3702C56.5222 19.4836 56.7337 19.6173 56.9757 19.7087C57.3006 19.8339 57.6153 19.9896 57.9233 20.1454C58.3021 20.3327 58.6709 20.5394 59.0283 20.7649C59.3143 20.9476 59.6206 21.1034 59.9134 21.2726C60.333 21.5231 60.7256 21.8092 61.1199 22.0918C61.5142 22.3745 61.9102 22.6301 62.2858 22.9246C62.56 23.1379 62.8189 23.3731 63.0879 23.6016C63.4264 23.8843 63.7462 24.2008 64.0762 24.497C64.3199 24.7153 64.5517 24.9405 64.7802 25.174C64.9595 25.3585 65.1101 25.5684 65.298 25.7394C65.6052 26.0243 65.8945 26.3278 66.1644 26.6483C66.5638 27.1104 66.9157 27.6147 67.31 28.0836C67.5554 28.373 67.7161 28.7268 67.9987 28.9874C68.0157 29.009 68.0242 29.0362 68.0224 29.0636C68.0389 29.1696 68.0945 29.2656 68.1781 29.3327C68.3067 29.4909 68.42 29.661 68.5166 29.8405C68.6445 30.0162 68.7609 30.1999 68.8652 30.3906C68.983 30.6179 69.1147 30.8378 69.2594 31.049C69.295 31.1049 69.2595 31.1066 69.2425 31.1387C69.1308 31.3367 68.9041 31.308 68.7467 31.3283C68.3067 31.3757 67.882 31.5212 67.4369 31.5246C67.417 31.5257 67.3972 31.5285 67.3777 31.5331C66.9403 31.6463 66.496 31.7311 66.0476 31.787C65.9732 31.787 65.8987 31.787 65.8259 31.809C65.408 31.8885 64.99 31.9782 64.5737 32.0544C64.396 32.0883 64.2183 32.0544 64.0356 32.1069C63.6871 32.1982 63.3333 32.2677 62.9763 32.3151C62.7694 32.3229 62.5638 32.3502 62.362 32.3963C62.0692 32.4911 61.9829 32.6333 62.1251 32.9041C62.1739 32.9908 62.2343 33.0705 62.3045 33.141C62.6547 33.5049 62.9813 33.8942 63.3012 34.2802C63.6007 34.6339 63.9036 34.9877 64.1777 35.3617C64.347 35.6038 64.5822 35.7967 64.7666 36.0387C64.9409 36.2976 65.1404 36.5386 65.3623 36.7581C65.4019 36.7901 65.4344 36.8299 65.458 36.8751C65.4816 36.9202 65.4957 36.9697 65.4994 37.0205C65.5075 37.3427 65.5552 37.6628 65.6415 37.9734C65.7176 38.295 65.6686 38.625 65.7278 38.9534C65.809 39.3935 65.7735 39.8454 65.897 40.2922C65.9918 40.6494 65.9461 41.037 66.0189 41.411C66.0916 41.7851 66.0426 42.2184 66.1542 42.628C66.2524 42.9868 66.2101 43.3846 66.2727 43.7637C66.3573 44.2715 66.2727 44.8013 66.4301 45.3158C66.5316 45.6543 66.4639 46.0199 66.5282 46.3737C66.5925 46.7274 66.5553 47.093 66.6145 47.4434C66.6679 47.6907 66.7052 47.9411 66.7262 48.1932C66.7255 48.4324 66.7481 48.671 66.7939 48.9058C66.8819 49.2849 66.8514 49.6861 66.9428 50.0754C67.0342 50.4647 67.0003 50.8878 67.046 51.294C67.1137 51.9 67.2626 52.4975 67.2457 53.1119C67.2348 53.2249 67.2405 53.339 67.2626 53.4504C67.3896 53.9209 67.3523 54.4135 67.4826 54.8857C67.5858 55.2648 67.4826 55.6711 67.5757 56.0705C67.6688 56.47 67.6535 56.9303 67.7263 57.3636C67.8245 57.934 67.8041 58.5281 67.8752 59.1104C67.8989 59.2898 67.8465 59.5065 67.9294 59.6486C68.058 59.8653 67.9852 59.9872 67.8668 60.1564C67.7428 60.3764 67.6043 60.5879 67.4522 60.7894C67.2085 61.0484 67.0139 61.3429 66.7753 61.6087C66.6348 61.7678 66.5181 61.9472 66.3827 62.1164C66.0341 62.5243 65.633 62.8882 65.2692 63.286C65.0349 63.5815 64.7725 63.8536 64.4857 64.0985C64.2799 64.2604 64.0869 64.438 63.9087 64.6299C63.6554 64.8892 63.3882 65.1344 63.1083 65.3645C62.8798 65.549 62.6294 65.7149 62.4043 65.9011C61.8931 66.3224 61.3611 66.7178 60.8102 67.0859C60.4109 67.355 60.0047 67.6106 59.6071 67.8814C59.1924 68.1441 58.7649 68.3859 58.3261 68.6058C58.0062 68.7751 57.6864 68.9443 57.3581 69.1034C57.1618 69.1948 56.9757 69.2998 56.7845 69.3996C56.5322 69.5229 56.2735 69.6325 56.0094 69.728C55.8674 69.8069 55.7184 69.8727 55.5644 69.9243C55.2259 69.9802 54.9501 70.2155 54.6066 70.2629C54.4103 70.2882 54.2309 70.4321 54.0448 70.449C53.6962 70.493 53.3983 70.6725 53.0667 70.7605C52.7002 70.8868 52.3267 70.9919 51.9481 71.0753C51.6334 71.121 51.3474 71.297 51.0191 71.2598H51.0005C50.6366 71.4155 50.2305 71.38 49.8582 71.5052C49.7601 71.5391 49.6349 71.4967 49.5384 71.5323C49.0697 71.7016 48.5688 71.6101 48.0916 71.7286C47.7886 71.8031 47.457 71.7523 47.1405 71.7811C46.7818 71.8133 46.5449 71.9368 46.599 72.3684C46.6168 72.5642 46.6219 72.761 46.6143 72.9574C46.6041 74.8193 46.6329 76.6811 46.599 78.543C46.599 78.8933 46.7361 79.0338 47.0796 79.0321C47.2725 79.0321 47.4654 79.0017 47.6567 78.9831C48.1976 78.9587 48.7367 78.9021 49.271 78.8138C49.5638 78.7495 49.8819 78.8019 50.1781 78.7444C50.5165 78.6784 50.8549 78.6445 51.1934 78.565C51.5318 78.4854 51.855 78.4685 52.1816 78.3957C52.538 78.2916 52.901 78.2113 53.268 78.1554C53.5416 78.1043 53.8117 78.0364 54.0769 77.9523C54.3703 77.9027 54.659 77.8286 54.9399 77.7305C55.2665 77.6036 55.6253 77.5613 55.9553 77.4242C56.3919 77.2549 56.8538 77.1517 57.282 76.9486C57.5595 76.8182 57.8556 76.7268 58.145 76.6219C58.2897 76.5425 58.4422 76.4784 58.6002 76.4306C58.9133 76.4019 59.1383 76.1954 59.4158 76.0921C59.7962 75.9385 60.1654 75.7586 60.5209 75.5539C60.8051 75.4083 61.0759 75.2323 61.367 75.1104C61.8567 74.9115 62.3259 74.6655 62.7681 74.3758C63.1523 74.1186 63.5584 73.8985 63.9408 73.6379C64.2793 73.4026 64.6752 73.2215 65.0018 72.9608C65.496 72.5648 66.0172 72.2178 66.5248 71.8285C66.8227 71.5966 67.1103 71.3529 67.4099 71.1227C67.7991 70.8231 68.1612 70.488 68.5267 70.1579C68.8922 69.8279 69.2967 69.4639 69.6622 69.095C70.1699 68.5872 70.6369 68.0642 71.131 67.5564C71.4695 67.2179 71.7639 66.8371 72.0719 66.4748C72.3799 66.1126 72.698 65.7064 72.984 65.29C73.27 64.8737 73.5763 64.5165 73.8572 64.1205C74.1381 63.7244 74.3818 63.3283 74.639 62.9356C74.8082 62.6885 74.9571 62.4414 75.1094 62.1892C75.3297 61.861 75.5287 61.519 75.7051 61.1652C75.8286 60.8842 75.9775 60.6117 76.1214 60.3426C76.338 59.9415 76.5326 59.5251 76.7712 59.1358C76.8473 59.0122 76.8033 58.8565 76.8879 58.7685C77.1029 58.5451 77.0978 58.2218 77.2738 57.9831C77.3144 57.9256 77.3855 57.863 77.3804 57.7749C77.3651 57.5414 77.5496 57.3789 77.6021 57.1673C77.6142 57.0622 77.6404 56.9591 77.6799 56.861C77.8502 56.5584 77.9859 56.2376 78.0843 55.9046C78.1187 55.7573 78.1634 55.6125 78.218 55.4713C78.3771 55.1667 78.4092 54.8214 78.5649 54.5116C78.6721 54.2518 78.7554 53.9827 78.8137 53.7077C78.9237 53.315 78.9711 52.9054 79.098 52.5076C79.2046 52.1691 79.2503 51.8187 79.3467 51.4734C79.4686 51.0351 79.5075 50.573 79.6073 50.1194C79.6815 49.6898 79.7317 49.2564 79.7579 48.8212C79.7563 48.7076 79.7665 48.5941 79.7884 48.4826C79.9745 47.941 79.9576 47.3655 79.9881 46.8138C80.0253 45.3852 79.9881 43.9821 79.9881 42.5806Z" fill="#0F9BCC"/>
<path d="M42.6173 34.3056C42.4955 34.3631 42.3601 34.3445 42.2569 34.4156C41.9929 34.5984 41.6747 34.6339 41.3888 34.7541C41.2761 34.821 41.154 34.8706 41.0266 34.9013C40.6526 34.9403 40.3244 35.1349 39.9673 35.2399C39.6422 35.326 39.3261 35.4427 39.023 35.5885C38.8707 35.6664 38.6981 35.6715 38.556 35.7578C38.3909 35.8315 38.2213 35.8948 38.0483 35.9474C37.8656 36.0218 37.671 36.0811 37.4848 36.1488C37.1718 36.2639 36.8553 36.3756 36.5372 36.4721C36.4052 36.5127 36.3087 36.6193 36.1784 36.6329C35.84 36.6701 35.5523 36.8817 35.2257 36.9511C35.0125 36.9968 34.8399 37.1288 34.63 37.183C34.5336 37.2083 34.3559 37.2117 34.3407 37.3522C34.3255 37.4927 34.2493 37.6586 34.2408 37.8211C34.2087 38.3762 34.251 38.9297 34.119 39.4849C34.0005 39.9842 34.0852 40.514 33.9836 41.0285C33.8973 41.4601 33.9362 41.9053 33.8601 42.3487C33.7569 42.9394 33.7738 43.5522 33.7281 44.1547C33.6807 44.7979 33.5504 45.4343 33.5589 46.0826C33.5417 46.2493 33.4836 46.4092 33.3897 46.548C33.2526 46.8104 33.1561 47.088 33.0292 47.3554C32.9023 47.6228 32.8092 47.8869 32.6908 48.1526C32.596 48.3693 32.4911 48.5825 32.3997 48.8009C32.294 49.1057 32.1609 49.4003 32.002 49.681C31.9384 49.7813 31.8926 49.8918 31.8667 50.0077C31.7957 50.2872 31.6815 50.5539 31.5282 50.7981C31.3404 51.1265 31.381 51.3753 31.7144 51.5293C31.7499 51.5463 31.777 51.5818 31.8125 51.5987C32.0308 51.6952 32.2102 51.8594 32.4352 51.9491C32.6601 52.038 32.8783 52.1426 33.0884 52.2622C33.5369 52.5263 34.0259 52.7124 34.4676 52.9833C34.735 53.1525 35.0362 53.2388 35.3035 53.3878C35.62 53.557 35.9331 53.7449 36.258 53.8956C36.6133 54.0648 36.9518 54.2713 37.3054 54.4457C37.517 54.5506 37.7353 54.6657 37.9451 54.7842C38.2746 54.9708 38.6135 55.1403 38.9604 55.292C39.1296 55.3698 39.2549 55.5425 39.4359 55.5712C39.7152 55.6152 39.9098 55.8183 40.1687 55.9097C40.4682 56.0164 40.7322 56.2483 41.0148 56.4294C41.3302 56.6066 41.655 56.7665 41.9878 56.9084C42.2281 57.0285 42.4684 57.1487 42.7154 57.2469C43.0048 57.3721 43.257 57.5854 43.5869 57.6125C43.79 57.6328 44.0134 57.6023 44.0692 57.4178C44.142 57.1775 44.3061 56.9981 44.3874 56.773C44.455 56.5834 44.6869 56.448 44.8341 56.5462C45.1861 56.7814 45.5838 56.9287 45.9425 57.1504C46.3621 57.4095 46.7966 57.6435 47.2438 57.8511C47.4909 57.9662 47.721 58.1152 47.9528 58.2523C48.2101 58.4029 48.4808 58.5197 48.7397 58.6602C48.9686 58.7611 49.2024 58.8504 49.4403 58.9276C49.7144 59.0427 49.8871 58.9987 50.0427 58.7584C50.0613 58.7313 50.0867 58.7076 50.107 58.6805C50.3118 58.4232 50.5199 58.1727 50.7179 57.907C50.7484 57.8707 50.7651 57.8249 50.7651 57.7775C50.7651 57.7302 50.7484 57.6843 50.7179 57.648C50.5606 57.4161 50.2898 57.3705 50.0749 57.2418C49.8227 57.0912 49.5672 56.9541 49.2965 56.8204C49.0257 56.6866 48.8226 56.5715 48.5891 56.4429C48.3827 56.3295 48.1728 56.2212 47.9664 56.1044C47.7006 55.9335 47.423 55.7819 47.1355 55.6508C47.0992 55.6397 47.0673 55.6173 47.0445 55.5869C47.0216 55.5564 47.0091 55.5195 47.0086 55.4815C46.9989 55.4211 47.003 55.3593 47.0206 55.3006C47.0382 55.242 47.0688 55.1881 47.1101 55.143C47.2489 54.9737 47.2946 54.7571 47.4029 54.5658C47.479 54.4304 47.5992 54.3323 47.6618 54.1918C47.7599 53.9768 47.8902 53.9463 48.0899 54.0665C48.3708 54.2358 48.6822 54.3543 48.9563 54.5387C49.1374 54.6606 49.3557 54.7182 49.5368 54.8316C49.8887 55.055 50.2712 55.2209 50.6282 55.4375C50.8888 55.5949 51.1884 55.7168 51.4422 55.8759C51.8602 56.1366 52.3188 56.3143 52.7249 56.5885C52.8112 56.6455 52.9158 56.6678 53.0178 56.6508C53.1198 56.6339 53.2117 56.5789 53.2749 56.4971C53.5219 56.1586 53.7318 55.7845 53.9518 55.4257C54.1717 55.0668 54.3562 54.7486 54.5694 54.4101C54.627 54.343 54.6561 54.256 54.6504 54.1678C54.6447 54.0795 54.6047 53.997 54.539 53.9379C54.4219 53.835 54.2879 53.7531 54.143 53.6958C53.857 53.5266 53.5676 53.3709 53.2969 53.1881C53.0481 53.0307 52.7757 52.9139 52.5168 52.7717C52.3272 52.6667 52.1225 52.5838 51.938 52.4806C51.6926 52.3452 51.4388 52.2199 51.2002 52.0693C50.9616 51.9186 50.7162 51.8035 50.4776 51.6681C50.2045 51.5399 49.9425 51.3893 49.6941 51.2179C49.5131 51.0723 49.4166 50.9302 49.5605 50.7389C49.7369 50.4685 49.8936 50.1856 50.0292 49.8926C50.2475 49.505 50.4201 49.4356 50.7568 49.6963C51.0852 49.9214 51.4303 50.1211 51.7891 50.2937C52.0726 50.4694 52.3697 50.6222 52.6775 50.7507C52.9293 50.8617 53.1668 51.0026 53.3849 51.1705C53.4762 51.2314 53.5828 51.2314 53.6759 51.2958C53.9048 51.4712 54.155 51.6168 54.4205 51.7291C54.6608 51.8171 54.8469 51.9846 55.0805 52.0811C55.3512 52.1928 55.5797 52.4044 55.847 52.5296C56.2582 52.7209 56.6474 52.9528 57.0519 53.1559C57.138 53.204 57.236 53.2268 57.3345 53.2219C57.4716 53.2558 57.5596 53.1627 57.6594 53.0628C57.8031 52.8906 57.9295 52.7046 58.0368 52.5076C58.3363 52.0659 58.5918 51.5953 58.8829 51.1536C59.0521 50.9081 59.1689 50.6458 59.3533 50.4105C59.3796 50.3733 59.3978 50.331 59.4068 50.2864C59.4157 50.2417 59.4152 50.1957 59.4054 50.1512C59.3955 50.1067 59.3764 50.0648 59.3494 50.0281C59.3224 49.9915 59.2879 49.9609 59.2484 49.9383C58.9556 49.7843 58.6629 49.6303 58.36 49.5016C58.1278 49.398 57.9018 49.281 57.6831 49.1512C57.5968 49.1022 57.4986 49.1275 57.4225 49.0598C57.2223 48.916 57.0022 48.802 56.7693 48.7213C56.4698 48.5825 56.1838 48.42 55.8724 48.2982C55.561 48.1763 55.3377 47.98 55.0365 47.875C54.9259 47.8526 54.8196 47.8126 54.7217 47.7566C54.4905 47.6105 54.2484 47.4826 53.9974 47.374C53.7335 47.2285 53.4525 47.11 53.1801 46.9813C52.7689 46.7833 52.3577 46.5768 51.9482 46.3737C51.5387 46.1706 51.1714 45.959 50.7636 45.7932C50.3829 45.6391 50.0292 45.4225 49.6485 45.26C49.2773 45.102 48.9146 44.9246 48.562 44.7285C48.1441 44.4949 47.7159 44.2851 47.2794 44.0904C47.1739 44.0395 47.0534 44.0292 46.9409 44.0616C46.6875 44.1353 46.4403 44.2287 46.2014 44.3409C45.863 44.4916 45.5245 44.6117 45.1861 44.7691C44.9103 44.9012 44.6293 45.0163 44.34 45.1229C44.1933 45.1931 44.0424 45.2541 43.8882 45.3057C43.6997 45.346 43.5194 45.4182 43.3551 45.519C43.0268 45.7356 43.0082 46.1215 42.9033 46.4431C42.7984 46.7647 42.6494 47.0491 42.5496 47.3605C42.465 47.6195 42.355 47.8683 42.2687 48.1255C42.2399 48.2051 42.2687 48.3083 42.2146 48.3794C42.0707 48.5487 42.0978 48.789 41.976 48.9617C41.8541 49.1343 41.8829 49.356 41.6087 49.3984C41.2703 49.4508 40.9555 49.6472 40.5934 49.6607C40.5737 49.6657 40.5549 49.6737 40.5376 49.6844C40.1551 49.8537 39.7388 49.9112 39.3446 50.0365C39.1449 50.1008 38.9469 50.1651 38.7438 50.2057C38.5408 50.2463 38.3546 50.3462 38.1651 50.3868C37.7623 50.4732 37.3782 50.6204 36.9805 50.7084C36.7561 50.7397 36.538 50.8059 36.3341 50.9048C36.1294 51.0216 35.9957 50.9183 36.0075 50.6813C36.0194 50.4444 36.0447 50.243 36.0667 50.0246C36.1158 49.5727 36.1344 49.1191 36.2038 48.6705C36.3077 48.0943 36.3558 47.5093 36.3476 46.9238C36.3324 46.5954 36.4678 46.2959 36.4999 45.976C36.5406 45.5613 36.5304 45.1466 36.5896 44.7302C36.659 44.2343 36.6269 43.7282 36.7369 43.2289C36.8299 42.8074 36.7622 42.3589 36.8688 41.9307C36.8818 41.8746 36.9106 41.8235 36.9518 41.7834C37.1853 41.5397 37.4916 41.3941 37.7437 41.169C37.9959 40.9439 38.2615 40.8017 38.5188 40.6121C39.0467 40.2212 39.5848 39.8403 40.1213 39.4629C40.1957 39.4104 40.2144 39.3139 40.3074 39.2835C40.5307 39.1899 40.7336 39.0536 40.9048 38.8823C41.074 38.7368 41.2686 38.647 41.4344 38.5015C41.6984 38.2696 42.0064 38.0902 42.2805 37.8718C42.5547 37.6535 42.8576 37.4199 43.1588 37.2236C43.46 37.0272 43.7511 36.7598 44.0811 36.577C44.2977 36.4568 44.4364 36.2165 44.6716 36.1268C45.0665 35.9475 45.4953 35.8551 45.929 35.856C45.9694 35.8581 46.0099 35.8541 46.0491 35.8441C46.4637 35.7239 46.8715 35.5648 47.3149 35.5852C47.3552 35.585 47.3953 35.5781 47.4333 35.5648C47.7099 35.4773 47.9928 35.4111 48.2794 35.3668C48.799 35.3076 49.2829 35.0977 49.8024 35.0588C50.0174 35.0418 50.0613 34.9352 50.0529 34.7202C50.0529 34.551 49.9294 34.4393 49.8701 34.2988C49.8078 34.1183 49.6862 33.9643 49.5252 33.8616C49.3643 33.759 49.1733 33.7138 48.9834 33.7335C47.9681 33.7589 46.9409 33.7335 45.9188 33.7436C45.7591 33.7399 45.5996 33.7546 45.4433 33.7876C45.2663 33.8357 45.0786 33.8269 44.9069 33.7622C44.8183 33.7275 44.7208 33.7227 44.6293 33.7487C44.2418 33.8773 43.8154 33.7673 43.4363 33.984C43.2011 34.1448 42.883 34.1837 42.6173 34.3056Z" fill="#0F9BCC"/>
<path d="M63.7396 37.7432C63.7172 37.5561 63.624 37.3846 63.479 37.2642C63.2443 37.0506 63.0297 36.8161 62.8376 36.5635C62.44 36.098 62.0152 35.6562 61.626 35.1857C61.3678 34.9104 61.1249 34.6211 60.8984 34.3191C60.8325 34.1919 60.7241 34.0919 60.592 34.0365C60.46 33.9811 60.3126 33.9739 60.1758 34.0161C60.1047 34.0314 60.032 34.0686 59.9694 34.0771C59.7392 34.1041 59.5446 34.2294 59.3229 34.2802C59.1493 34.3148 58.9793 34.3658 58.8153 34.4325C58.4768 34.5916 58.0825 34.6221 57.7407 34.7829C57.5291 34.8608 57.3103 34.9175 57.0875 34.9521C56.7981 35.0249 56.5359 35.1959 56.2228 35.1925C56.1805 35.1925 56.1365 35.2246 56.0925 35.2416C55.8922 35.3469 55.6742 35.4146 55.4494 35.4413C55.3905 35.4379 55.3318 35.4514 55.2802 35.4802C55.1079 35.5891 54.9138 35.659 54.7116 35.685C54.3669 35.7716 54.0268 35.8761 53.6929 35.9981C53.3443 36.1268 52.989 36.2364 52.6285 36.3265C52.2326 36.4179 51.8603 36.5804 51.4575 36.6566C51.0226 36.7378 50.5759 36.7497 50.1477 36.88C49.8668 36.9663 49.5436 36.9308 49.283 37.0492C48.9835 37.1796 48.6738 37.1762 48.3726 37.232C48.0443 37.293 47.7346 37.4233 47.3945 37.4504C46.9837 37.4931 46.5783 37.5776 46.1846 37.7026C45.9054 37.7855 45.6109 37.7567 45.3385 37.9243C45.0305 38.1139 44.7682 38.3559 44.4687 38.5523C44.2521 38.6944 44.0439 38.8552 43.8307 39.0042C43.5007 39.2344 43.2046 39.512 42.878 39.7422C42.7594 39.856 42.627 39.9544 42.4837 40.035C42.3006 40.1165 42.1342 40.2313 41.993 40.3735C41.6951 40.6308 41.3601 40.8339 41.0487 41.0691C40.6527 41.3687 40.25 41.6649 39.8472 41.9594C39.6487 42.1191 39.4395 42.265 39.2211 42.3961C38.859 42.5908 38.6085 42.8751 38.5798 43.2746C38.5375 43.8585 38.4816 44.4408 38.4461 45.0247C38.4139 45.5799 38.2583 46.1215 38.2769 46.6818C38.2769 46.7004 38.2633 46.7207 38.2633 46.741C38.2481 47.2031 38.1567 47.6618 38.155 48.1255C38.155 48.2779 38.2227 48.354 38.3767 48.3456C38.4557 48.3374 38.5343 48.325 38.6119 48.3083C38.9978 48.2406 39.3514 48.0646 39.7372 47.9969C39.9352 47.9614 40.1028 47.8192 40.3109 47.7904C40.3549 47.7904 40.4074 47.7278 40.4463 47.6787C40.51 47.5778 40.5542 47.4658 40.5766 47.3486C40.7458 46.8578 40.9015 46.3619 41.1113 45.8896C41.2027 45.6814 41.2078 45.458 41.3178 45.2532C41.4059 45.0743 41.4729 44.8857 41.5175 44.6913C41.5358 44.5704 41.5821 44.4554 41.6526 44.3556C41.7231 44.2557 41.8159 44.1736 41.9236 44.1158C42.1943 43.9855 42.4854 43.9127 42.7477 43.7637C42.9592 43.6453 43.2063 43.5945 43.4246 43.4726C43.6429 43.3507 43.8595 43.3558 44.0541 43.2323C44.1302 43.1832 44.1945 43.1036 44.2995 43.1053C44.4958 43.1053 44.6464 42.9767 44.819 42.9141C45.0779 42.8227 45.3165 42.6703 45.5788 42.5959C45.8925 42.4902 46.1975 42.36 46.4909 42.2066C46.6913 42.1432 46.8847 42.0593 47.0679 41.9561C47.0892 41.9456 47.1131 41.9413 47.1367 41.9437C47.1603 41.9461 47.1828 41.9551 47.2016 41.9696C47.4977 42.1389 47.7973 42.2878 48.0934 42.452C48.3083 42.5705 48.5571 42.6212 48.7618 42.7533C48.9666 42.8853 49.2238 42.9784 49.4506 43.1002C49.6773 43.2221 49.9582 43.3355 50.212 43.4591C50.5099 43.6029 50.8026 43.7604 51.1005 43.9059C51.3983 44.0515 51.6504 44.2055 51.9466 44.3324C52.2038 44.4458 52.4542 44.5779 52.7148 44.6879C52.946 44.7713 53.1692 44.8755 53.3816 44.9993C53.6777 45.199 53.9417 45.3514 54.3394 45.2566C54.8276 45.1632 55.3218 45.1038 55.8184 45.0789C56.0127 45.0441 56.2004 44.9796 56.3751 44.8876C56.6611 44.7691 56.8388 44.5085 57.0892 44.3409C57.3836 44.1429 57.6155 43.8585 57.9353 43.6994C58.0284 43.6537 58.0775 43.6622 58.1367 43.7434C58.3806 44.0748 58.6427 44.3924 58.9219 44.6947C59.1148 44.9079 59.108 44.9316 58.9337 45.177C58.8335 45.2796 58.7196 45.3679 58.5953 45.4394C58.1468 45.8067 57.7119 46.1858 57.2804 46.5734C57.1535 46.6868 57.1975 46.7969 57.2686 46.912C57.3397 47.027 57.4666 47.027 57.5698 47.0812C57.8213 47.1965 58.0649 47.3282 58.2991 47.4756C58.4311 47.5636 58.5987 47.5297 58.7087 47.6195C58.9141 47.7494 59.1297 47.8626 59.3534 47.958C59.6918 48.1408 60.0303 48.2965 60.3687 48.4759C60.5295 48.5588 60.7072 48.6689 60.9001 48.6062C61.1841 48.4859 61.4758 48.3847 61.7732 48.3033C61.9753 48.2422 62.1731 48.1682 62.3655 48.0815C62.6515 47.9918 62.9206 47.8496 63.2116 47.7616C63.3944 47.7058 63.5721 47.6228 63.7548 47.5839C63.9376 47.545 64.0933 47.4857 64.2625 47.435C64.327 47.4192 64.3872 47.3893 64.4388 47.3474C64.4903 47.3055 64.5319 47.2527 64.5606 47.1928C64.5892 47.1329 64.6042 47.0673 64.6045 47.0009C64.6047 46.9345 64.5902 46.8688 64.562 46.8087C64.5523 46.7768 64.546 46.7438 64.5434 46.7105C64.4808 46.2281 64.4994 45.7441 64.4029 45.2566C64.2828 44.654 64.3471 44.0227 64.276 43.4066C64.2286 43.0105 64.166 42.6145 64.1271 42.2218C64.034 41.3044 64.0696 40.3735 63.8513 39.4663C63.8145 39.2147 63.8026 38.9602 63.8158 38.7063C63.8834 38.4169 63.7785 38.0817 63.7396 37.7432Z" fill="#0F9BCC"/>
<path d="M46.6007 59.6402C46.4315 59.5353 46.2419 59.471 46.0693 59.3609C45.763 59.1917 45.4246 59.0613 45.142 58.8362C45.0822 58.7854 45.0148 58.7443 44.9423 58.7144C44.7068 58.641 44.4862 58.5263 44.2908 58.3759C44.1216 58.2354 43.7933 58.232 43.7273 58.3894C43.6172 58.6139 43.5201 58.8444 43.4362 59.08C43.3905 59.2408 43.3178 59.3897 43.267 59.5437C43.1723 59.8061 43.2535 59.9787 43.5242 60.0854C43.7509 60.1705 43.9729 60.2677 44.1893 60.3765C44.4431 60.5102 44.7257 60.5779 44.9694 60.737C45.1268 60.8402 45.3264 60.8639 45.4923 60.9689C45.5426 61.0069 45.6007 61.0334 45.6624 61.0466C45.7241 61.0597 45.7879 61.0592 45.8494 61.045C45.9109 61.0308 45.9685 61.0033 46.0182 60.9644C46.0679 60.9255 46.1084 60.8762 46.137 60.8199C46.2208 60.6983 46.316 60.5849 46.4213 60.4814C46.5668 60.3274 46.731 60.1784 46.7445 59.9026C46.754 59.849 46.745 59.7937 46.7188 59.746C46.6926 59.6983 46.651 59.661 46.6007 59.6402V59.6402Z" fill="#0F9BCC"/>
<path d="M40.3041 58.2286C40.2093 58.1931 40.0672 58.1541 40.0147 58.2641C39.9622 58.3742 39.9081 58.4334 39.8692 58.5214C39.7 58.9107 39.5307 59.2983 39.3751 59.6893C39.2735 59.9398 39.3751 60.1107 39.617 60.2377C39.7693 60.3172 39.9369 60.3545 40.0925 60.4239C40.2537 60.5257 40.4385 60.584 40.629 60.5931C40.7491 60.6253 40.8202 60.5576 40.8828 60.4459C40.9657 60.2969 40.9945 60.1294 41.074 59.977C41.2008 59.7088 41.3138 59.4342 41.4125 59.1544C41.5309 58.8582 41.4751 58.7144 41.1823 58.5891C40.8896 58.4639 40.5985 58.3403 40.3041 58.2286Z" fill="#0F9BCC"/>
<path d="M30.1796 54.9737C30.3252 55.0584 30.4893 55.0567 30.623 55.143C30.7699 55.2336 30.9305 55.2999 31.0985 55.3393C31.1379 55.3527 31.1796 55.3581 31.2211 55.3551C31.2627 55.3521 31.3032 55.3408 31.3402 55.3218C31.3773 55.3029 31.4102 55.2767 31.437 55.2448C31.4638 55.2129 31.4839 55.176 31.4962 55.1362C31.6772 54.7114 31.9311 54.3187 32.0631 53.8702C32.1443 53.5977 32.1307 53.5317 31.8617 53.4047C31.6282 53.319 31.4018 53.2148 31.1848 53.0933C30.8988 52.902 30.6298 53.0239 30.4893 53.3438C30.3725 53.6095 30.2761 53.8837 30.1509 54.1478C30.0815 54.2933 29.9427 54.4406 30.0053 54.6031C29.9899 54.6754 29.9986 54.7508 30.0301 54.8178C30.0615 54.8847 30.1141 54.9395 30.1796 54.9737Z" fill="#0F9BCC"/>
<path d="M37.3309 56.5224C37.1262 56.431 36.9384 56.4598 36.8757 56.6206C36.8267 56.751 36.7471 56.8644 36.693 56.9896C36.5762 57.2536 36.4476 57.5143 36.3545 57.7851C36.2859 57.9634 36.2741 58.1585 36.3207 58.3437C36.3647 58.496 36.5153 58.4859 36.6371 58.5129C36.6566 58.5161 36.6751 58.5236 36.6913 58.5349C36.8431 58.654 37.0256 58.7274 37.2176 58.7465C37.5949 58.8447 37.688 58.7888 37.8082 58.4283C37.8928 58.171 38.0603 57.9561 38.1601 57.709C38.2545 57.5312 38.3164 57.338 38.3429 57.1386C38.3717 57.0472 38.2667 56.9541 38.1551 56.8982C37.8843 56.7611 37.6068 56.6477 37.3309 56.5224Z" fill="#0F9BCC"/>
<path d="M34.8128 55.0905C34.6169 54.9719 34.4114 54.8699 34.1985 54.7858C34.116 54.7455 34.0212 54.7387 33.9338 54.7668C33.8464 54.7949 33.7733 54.8557 33.7297 54.9365C33.6841 55.0905 33.5825 55.2124 33.5453 55.3698C33.5136 55.5206 33.46 55.666 33.3862 55.8014C33.2839 55.9914 33.2125 56.1965 33.1747 56.409C33.1658 56.4655 33.1749 56.5234 33.2007 56.5744C33.2265 56.6254 33.2678 56.6671 33.3185 56.6934C33.5267 56.8305 33.7653 56.888 33.9717 57.02C34.2459 57.1893 34.5555 57.1165 34.6351 56.8508C34.7146 56.585 34.8805 56.3769 34.9735 56.1263C34.9963 56.0108 35.0405 55.9006 35.1038 55.8014C35.3103 55.5593 35.2138 55.2716 34.9109 55.1616C34.875 55.1427 34.8419 55.1188 34.8128 55.0905V55.0905Z" fill="#0F9BCC"/>
</svg>
