<svg width="90" height="90" fill="none" xmlns="http://www.w3.org/2000/svg"><circle cx="45" cy="45" r="45" fill="#F5F5F5"/><path d="M27.285 29.137h34.43v33.166l-1.987 5.2-6.532 4.36-7.059 2.599-2.458.502-7.762-3.018-6.1-4.024-2.532-4.88V29.138Z" fill="#00C11F"/><path d="m44.5 10-6.332 5.035s-2.918 2.123-1.682 5.43c0 0-6.826-1.086-9.2 4.245l8.656 1.728-4.353-2.764s2.276-3.752 11.674 1.974c0 0-4.55-4.047-4.452-7.01 0-2.27 5.739-5.627 5.739-5.627M24.664 29.795s-4.057.79-4.947 5.628c-.89 4.837-1.088 5.528-6.332 7.207 0 0 .297 1.974 5.342 3.554 0 0 .198 2.962-6.727 4.147 0 0 .693 4.541 7.519 5.33 0 0-3.307 6.389-1.979 10.565C19.52 72.446 27.73 76 27.73 76a40.173 40.173 0 0 0 4.848-2.37s-3.462.79-4.847-.296c-1.386-1.086-6.728-4.64-7.717-7.503-.99-2.863 1.385-9.182 3.166-12.637 0 0-5.64.69-7.618-1.58 0 0 5.045-.099 7.024-7.503a8.597 8.597 0 0 1-5.046-.79s2.177-.494 3.265-3.06c1.088-2.568-.396-6.22 3.859-10.466Z" fill="#000"/><path d="M23.279 57.143s-5.936 7.503 3.76 14.02c0 0-6.827-5.135-3.76-14.02Z" fill="#000"/><path d="M44.55 28.018H26.443v34.851S24.96 71.656 44.45 76v-2.468s-14.84-2.863-15.73-10.663c-.75-6.572 0-32.482 0-32.482h15.83v-2.37ZM44.5 10l6.332 5.035s2.918 2.123 1.682 5.43c0 0 6.826-1.086 9.2 4.245l-8.656 1.728 4.353-2.764s-2.276-3.752-11.674 1.974c0 0 4.55-4.047 4.452-7.01 0-2.27-5.739-5.627-5.739-5.627M64.336 29.795s4.057.79 4.947 5.628c.89 4.837 1.088 5.528 6.332 7.207 0 0-.297 1.974-5.343 3.554 0 0-.197 2.962 6.728 4.147 0 0-.692 4.541-7.519 5.33 0 0 3.307 6.389 1.979 10.565C69.48 72.446 61.27 76 61.27 76a40.173 40.173 0 0 1-4.848-2.37s3.462.79 4.847-.296c1.386-1.086 6.728-4.64 7.717-7.503.99-2.863-1.385-9.182-3.166-12.637 0 0 5.64.69 7.618-1.58 0 0-5.045-.099-7.024-7.503a8.597 8.597 0 0 0 5.046-.79s-2.177-.494-3.265-3.06c-1.088-2.568.396-6.22-3.859-10.466Z" fill="#000"/><path d="M65.721 57.143s5.936 7.503-3.76 14.02c0 0 6.827-5.135 3.76-14.02Z" fill="#000"/><path d="M44.45 28.018h18.105v34.851S63.942 71.656 44.45 76v-2.468s14.94-2.863 15.83-10.663c.75-6.572 0-32.482 0-32.482H44.45v-2.37ZM44.5 23.723s-1.088-3.949 0-7.7c0 0 .99 3.455 0 7.7Z" fill="#000"/><path d="M41.188 45.182h-2.989l4.981-12.517h1.37v2.984l-3.362 9.533Z" fill="#000"/><path d="M42.46 40.143h2.09v2.06h-3.176l1.086-2.06ZM47.911 45.182h2.99l-4.982-12.517h-1.37v2.984l3.362 9.533Z" fill="#000"/><path d="M46.64 40.143h-2.09v2.06h3.175l-1.086-2.06ZM50.244 47.97h-11.39v2.381h11.39V47.97ZM44.55 54.278v-.837h-5.696l-3.739 5.475v5.72h9.434v-1.663h-3.175v-2.12h3.175v-3.71h-7.107l1.817-2.863 5.29-.002Zm-6.044 6.609c1.316.78 1.326 2.012 1.326 2.012s-4.221.871-4.591-1.67v-.334s1.947-.788 3.264-.008Z" fill="#000"/><path d="M38.7 63.728h-2.392a.546.546 0 0 0-.546.545v1.67c0 .302.245.546.546.546h2.393a.546.546 0 0 0 .546-.546v-1.67c0-.3-.245-.545-.546-.545ZM36.705 56.335H35.1a.54.54 0 0 0-.54.54v.56c0 .298.242.54.54.54h1.604a.54.54 0 0 0 .54-.54v-.56a.54.54 0 0 0-.54-.54ZM49.84 54.278l1.817 2.863H44.55v3.71h3.175v2.12H44.55v1.66h9.434v-5.718l-3.739-5.472H44.55v.84l5.29-.003Zm4.018 6.615v.334c-.37 2.542-4.591 1.67-4.591 1.67s.01-1.232 1.326-2.012c1.317-.78 3.265.01 3.265.01v-.002Z" fill="#000"/><path d="M50.398 66.487h2.393a.546.546 0 0 0 .546-.544v-1.671a.545.545 0 0 0-.546-.545h-2.392a.545.545 0 0 0-.547.545v1.67c0 .302.245.546.547.546ZM52.394 57.974h1.604a.54.54 0 0 0 .54-.539v-.56a.54.54 0 0 0-.54-.54h-1.604a.54.54 0 0 0-.54.54v.56c0 .298.242.54.54.54Z" fill="#000"/></svg>