<svg width="90" height="90" viewBox="0 0 90 90" fill="none" xmlns="http://www.w3.org/2000/svg">
<circle cx="45" cy="45" r="45" fill="#323232"/>
<g clip-path="url(#clip0_527_329)">
<path d="M60.5495 21.3939C60.5581 21.3319 60.5839 21.2737 60.6239 21.2262C60.9098 20.763 61.1976 20.3018 61.4835 19.8407C61.507 19.8047 61.5286 19.7708 61.5541 19.7389C61.5639 19.7252 61.5784 19.7158 61.5947 19.7124C61.611 19.7091 61.6279 19.7121 61.6422 19.7209C61.6774 19.7389 61.7107 19.7628 61.746 19.7848C63.3331 20.8279 64.8254 22.0138 66.2049 23.3284C68.79 25.8021 70.9394 28.7098 72.5594 31.9249C73.674 34.1372 74.5285 36.4759 75.1051 38.8924C75.3421 39.8746 75.5281 40.8668 75.6691 41.869C75.8042 42.8373 75.9002 43.8115 75.9452 44.7878C75.9707 45.3268 75.9922 45.8658 75.9902 46.4049C75.9902 47.3252 75.9472 48.2436 75.8669 49.1619C75.8023 49.9046 75.7161 50.6453 75.6006 51.3819C75.4012 52.676 75.1206 53.9556 74.7605 55.213C73.7009 58.9314 71.9804 62.4198 69.6847 65.5045C67.6459 68.2467 65.1797 70.6295 62.3844 72.5578C60.1228 74.1232 57.6672 75.3753 55.0821 76.2811C53.561 76.8169 52.0006 77.2288 50.4156 77.5129C49.5657 77.6666 48.7138 77.7804 47.8542 77.8662C46.6397 77.982 45.4195 78.024 44.2001 77.992C43.3541 77.974 42.5101 77.9082 41.67 77.8163C39.6087 77.5927 37.5749 77.1573 35.5995 76.5167C34.1742 76.0564 32.784 75.4899 31.4402 74.8217C28.7366 73.4835 26.239 71.7503 24.0263 69.677C22.2368 68.0056 20.648 66.1239 19.2932 64.0711C17.721 61.6985 16.4744 59.1178 15.5882 56.4009C15.098 54.9011 14.7178 53.3663 14.4504 51.8091C14.3134 51.0106 14.2096 50.212 14.1332 49.3935C14.0229 48.2051 13.9772 47.0114 13.9961 45.8179C13.9961 45.219 14.0392 44.6201 14.0803 44.0212C14.1214 43.4222 14.1802 42.8812 14.2507 42.3142C14.3271 41.6814 14.4289 41.0505 14.5483 40.4236C14.8202 38.9924 15.1873 37.5817 15.6469 36.2012C16.5445 33.5061 17.7961 30.9474 19.3676 28.5949C20.3516 27.1199 21.4568 25.7327 22.6711 24.4484C23.9504 23.0889 25.35 21.8525 26.852 20.755C27.2436 20.4676 27.6529 20.1881 28.0563 19.9066C28.1523 19.8387 28.164 19.8407 28.2384 19.9245C28.6301 20.3737 29.0354 20.8229 29.431 21.2741C29.4858 21.336 29.4819 21.3679 29.4192 21.4158C29.3566 21.4638 29.3233 21.4797 29.2763 21.5117C27.8315 22.4579 26.4723 23.5336 25.2149 24.7259C23.2305 26.6102 21.5165 28.7703 20.1235 31.1424C18.992 33.0616 18.0781 35.1057 17.3995 37.2354C16.9457 38.6539 16.5981 40.1054 16.3597 41.5776C16.2448 42.2883 16.1561 43.0037 16.0934 43.7237C16.0366 44.3745 16.0111 45.0294 15.9818 45.6842C15.9546 46.4876 15.9677 47.2918 16.0209 48.0938C16.1369 50.1562 16.4651 52.2004 17.0001 54.1929C17.8942 57.5185 19.3522 60.6589 21.3082 63.4722C22.3538 64.9852 23.5387 66.3931 24.8467 67.6766C26.8965 69.6971 29.2279 71.3977 31.7652 72.7235C33.783 73.7804 35.9158 74.5913 38.1197 75.1392C39.0023 75.3614 39.8952 75.5384 40.7986 75.6702C41.5819 75.784 42.377 75.8698 43.174 75.9237C43.9377 75.9717 44.7014 75.9856 45.4651 75.9776C46.2288 75.9697 47.0102 75.9277 47.7798 75.8499C49.8516 75.6458 51.896 75.2154 53.8777 74.5662C56.3099 73.7698 58.6283 72.6495 60.7727 71.2342C62.3035 70.2241 63.7374 69.069 65.0554 67.7844C67.2776 65.6213 69.1482 63.1118 70.5972 60.3498C71.391 58.8372 72.0535 57.2566 72.577 55.6263C73.007 54.2963 73.3427 52.9366 73.5816 51.5576C73.7383 50.6572 73.8499 49.7608 73.9282 48.8465C74.0065 47.9321 74.032 47.0078 74.0281 46.0875C74.0281 45.2756 73.9876 44.4644 73.9067 43.6538C73.7007 41.3916 73.2408 39.1611 72.5359 37.0058C71.7329 34.5424 70.6135 32.1982 69.2069 30.0343C68.1806 28.4598 67.0088 26.9891 65.7075 25.6422C64.5712 24.4657 63.3411 23.3872 62.0299 22.418C61.6148 22.1106 61.1839 21.8191 60.759 21.5356L60.5495 21.3939Z" fill="#FAECB5"/>
<path d="M51.7883 55.4625C52.0208 55.7163 52.2184 56.0011 52.3758 56.309C52.4116 56.3739 52.426 56.4488 52.4169 56.5226C52.3022 57.4454 51.859 58.293 51.1715 58.9043L51.0951 58.9642C51.0866 58.9695 51.0769 58.9724 51.0669 58.9726C51.057 58.9728 51.0472 58.9704 51.0385 58.9655C51.0298 58.9607 51.0224 58.9536 51.0172 58.9449C51.0121 58.9363 51.0092 58.9265 51.0089 58.9163C51.0089 58.7007 51.0089 58.4831 51.0089 58.2695C50.9703 57.6987 50.8379 57.1385 50.6173 56.6125C50.6075 56.5905 50.5859 56.5766 50.5585 56.5466C50.5585 56.8121 50.5585 57.0637 50.5428 57.3152C50.4595 58.3572 50.037 59.341 49.3424 60.1102C49.1461 60.3324 48.9276 60.5332 48.6904 60.7091C48.6649 60.7284 48.6364 60.7432 48.6062 60.753C48.6003 60.7544 48.5942 60.7542 48.5884 60.7527C48.5827 60.7511 48.5773 60.7481 48.5729 60.744C48.5685 60.7399 48.5651 60.7348 48.5631 60.729C48.561 60.7233 48.5603 60.7172 48.5611 60.7111C48.5767 60.6559 48.5977 60.6024 48.6238 60.5514C48.8299 60.144 48.931 59.6899 48.9175 59.2318C48.9096 58.9087 48.8432 58.5899 48.7217 58.2915C48.7217 58.2795 48.7001 58.2735 48.6884 58.2635C48.6296 58.2875 48.6414 58.3454 48.6316 58.3893C48.4862 59.0213 48.2189 59.6175 47.8454 60.1432C47.4719 60.669 46.9996 61.1138 46.456 61.4518C46.3601 61.5141 46.2607 61.5708 46.1584 61.6215C45.9198 61.739 45.7067 61.9039 45.5315 62.1065C45.3563 62.3091 45.2225 62.5453 45.1381 62.8013C45.1048 62.8932 45.0793 63.001 45.0461 63.0848C45.0461 63.1008 45.0108 63.1128 44.9893 63.1188C44.9677 63.1247 44.9579 63.1048 44.954 63.0928C44.9364 63.0449 44.9227 62.997 44.909 62.9511C44.7852 62.4831 44.509 62.072 44.1257 61.7852C44.0531 61.7313 43.9757 61.6845 43.8946 61.6454C43.2776 61.3317 42.7349 60.885 42.3041 60.3362C41.8733 59.7874 41.5647 59.1496 41.3998 58.4671C41.3841 58.4112 41.3724 58.3533 41.3567 58.2974C41.35 58.2822 41.3422 58.2675 41.3332 58.2535C41.2764 58.2815 41.2666 58.3414 41.249 58.3933C41.1254 58.7365 41.0722 59.102 41.0928 59.467C41.1133 59.832 41.2071 60.1889 41.3685 60.5155C41.3959 60.5754 41.4233 60.6352 41.4468 60.6951C41.4476 60.7029 41.4466 60.7107 41.4439 60.718C41.4411 60.7253 41.4368 60.7318 41.4311 60.7371C41.4245 60.7407 41.4171 60.7426 41.4096 60.7426C41.4021 60.7426 41.3947 60.7407 41.388 60.7371C41.3385 60.7082 41.2908 60.6761 41.2451 60.6412C40.7203 60.2322 40.2898 59.7109 39.984 59.114C39.6189 58.4154 39.4343 57.6335 39.4474 56.8421C39.4474 56.7602 39.4474 56.6764 39.4474 56.5965C39.3809 56.5746 39.3789 56.6304 39.3671 56.6604C39.2198 57.0194 39.1133 57.3946 39.0499 57.7784C38.9977 58.1083 38.9761 58.4425 38.9853 58.7766C38.9853 58.8245 38.9853 58.8744 38.9853 58.9243C38.9838 58.9322 38.9806 58.9397 38.976 58.9463C38.9714 58.9528 38.9654 58.9583 38.9585 58.9623C38.9516 58.9663 38.944 58.9687 38.9361 58.9694C38.9282 58.9701 38.9203 58.969 38.9128 58.9662C38.8858 58.9485 38.8602 58.9285 38.8365 58.9063C38.1636 58.3159 37.7221 57.498 37.593 56.6025C37.5706 56.4803 37.5907 56.3539 37.6498 56.2451C37.8115 55.9546 38.0089 55.6862 38.2372 55.4466C38.244 55.4227 38.2555 55.4005 38.271 55.3812C38.2865 55.362 38.3056 55.3462 38.3273 55.3348C38.3136 55.3348 38.3097 55.3348 38.2999 55.3448C38.249 55.3867 38.1785 55.3667 38.1256 55.4026C37.6184 55.6511 37.167 56.0039 36.7999 56.4388C36.747 56.4967 36.7235 56.6105 36.6041 56.5825C36.5669 56.4907 36.6354 56.4268 36.6648 56.3569C36.8945 55.782 37.2587 55.2732 37.7257 54.8748C38.1926 54.4763 38.7481 54.2004 39.3436 54.0711C40.969 53.6648 42.4714 52.8571 43.7184 51.7193C43.8339 51.6155 43.9436 51.5037 44.0532 51.3939C44.2807 51.164 44.5868 51.0331 44.907 51.0285C45.1348 51.0094 45.3639 51.0436 45.5767 51.1284C45.7224 51.1885 45.8553 51.2766 45.9684 51.3879C46.4322 51.8652 46.9457 52.2896 47.4997 52.6536C48.3741 53.2441 49.3334 53.692 50.3431 53.9812C50.5938 54.0531 50.8483 54.113 51.0931 54.1988C51.6165 54.3734 52.095 54.665 52.4937 55.0522C52.8925 55.4393 53.2014 55.9124 53.398 56.4368C53.4098 56.4674 53.4196 56.4987 53.4274 56.5306C53.4307 56.5423 53.4298 56.5548 53.4248 56.5659C53.4197 56.5769 53.4109 56.5857 53.3999 56.5905C53.3928 56.5935 53.3852 56.5951 53.3774 56.5951C53.3697 56.5951 53.362 56.5935 53.3549 56.5905C53.3099 56.5426 53.2668 56.4947 53.2237 56.4448C52.9745 56.1483 52.6858 55.8889 52.366 55.6742C52.2133 55.5646 52.0483 55.4741 51.8745 55.4046C51.802 55.3827 51.7609 55.3747 51.7883 55.4625Z" fill="#FAECB5"/>
<path d="M62.4411 61.879C62.429 64.0858 62.0386 66.2735 61.2877 68.3434C61.2035 68.5924 61.0578 68.8152 60.8647 68.9902C59.3249 70.4154 57.5176 71.5075 55.552 72.2004C55.4286 72.2443 55.3072 72.2883 55.1839 72.3262C55.1725 72.3287 55.1606 72.3284 55.1494 72.3253C55.1381 72.3222 55.1278 72.3163 55.1192 72.3082C55.114 72.2973 55.1113 72.2854 55.1113 72.2733C55.1113 72.2612 55.114 72.2492 55.1192 72.2384C55.1662 72.1705 55.2171 72.1066 55.268 72.0387C56.6546 70.2452 57.7447 68.233 58.4953 66.0814C58.921 64.8717 59.2369 63.6247 59.4391 62.3561C59.5429 61.7033 59.6134 61.0445 59.6584 60.3817C59.7074 59.669 59.7074 58.9563 59.6917 58.2435C59.6841 58.0609 59.6658 57.8789 59.6369 57.6985C59.539 56.9678 59.492 56.2312 59.4548 55.5025C59.4176 54.7738 59.4039 54.0271 59.4254 53.2885C59.445 52.6097 59.4744 51.9309 59.537 51.2541C59.5919 50.6552 59.6584 50.0563 59.7466 49.4574C59.7798 49.2198 59.819 48.9822 59.8582 48.7446C59.8625 48.7336 59.8692 48.7235 59.8776 48.7153C59.886 48.707 59.8961 48.7007 59.9071 48.6967C59.9287 48.6967 59.9502 48.7087 59.9561 48.7367C59.9816 48.8744 60.009 49.0122 60.0286 49.1519C60.1598 50.0543 60.3282 50.9487 60.5103 51.8411C60.7923 53.2385 61.1343 54.6201 61.5364 55.9856C61.7322 56.6664 61.9281 57.3531 62.0632 58.0519C62.1826 58.6788 62.2786 59.3096 62.3393 59.9445C62.4 60.5793 62.4372 61.1723 62.4411 61.879Z" fill="#FAECB5"/>
<path d="M30.5648 53.9552C30.5804 54.7299 30.5491 55.4925 30.4982 56.2531C30.459 56.8241 30.41 57.3931 30.3258 57.9601C30.3154 58.0335 30.3089 58.1075 30.3063 58.1816C30.272 59.0765 30.2936 59.9727 30.3709 60.8648C30.6038 63.479 31.3109 66.0264 32.4564 68.3773C33.0014 69.4978 33.643 70.5668 34.3735 71.5715C34.5224 71.7712 34.6829 71.9708 34.8357 72.1705C34.8562 72.1964 34.874 72.2245 34.8886 72.2543C34.8918 72.2612 34.8936 72.2687 34.8936 72.2763C34.8936 72.2839 34.8918 72.2914 34.8886 72.2982C34.8767 72.3089 34.8613 72.3146 34.8455 72.3142C34.7985 72.3022 34.7515 72.2903 34.7045 72.2743C32.8593 71.665 31.1452 70.7021 29.6542 69.4374C29.4153 69.2378 29.1901 69.0201 28.957 68.8145C28.8845 68.7486 28.8298 68.6647 28.7984 68.571C28.3672 67.426 28.0452 66.2413 27.8369 65.0333C27.7351 64.4344 27.6626 63.8195 27.6156 63.2086C27.5566 62.4061 27.5474 61.6006 27.5882 60.7969C27.6307 59.9363 27.7321 59.0798 27.8918 58.2336C28.0621 57.3192 28.3265 56.4368 28.5811 55.5424C28.957 54.2368 29.2743 52.9178 29.5328 51.5855C29.6444 51.0086 29.7541 50.4316 29.8559 49.8526C29.9185 49.5013 29.9655 49.1479 30.0184 48.7965C30.0235 48.764 30.0313 48.7319 30.0419 48.7007C30.046 48.6941 30.0514 48.6886 30.0579 48.6844C30.0643 48.6803 30.0715 48.6777 30.0791 48.6768C30.0928 48.6768 30.1144 48.6768 30.1183 48.6967C30.1339 48.7347 30.1456 48.7741 30.1535 48.8145C30.2769 49.5751 30.3826 50.3378 30.4492 51.1064C30.5386 52.0532 30.5772 53.0042 30.5648 53.9552V53.9552Z" fill="#FAECB5"/>
<path d="M46.2034 74.3626H43.8065C43.5226 74.3626 43.2367 74.3626 42.9527 74.3486C42.9208 74.3483 42.889 74.3429 42.8587 74.3326C42.8516 74.3296 42.8453 74.325 42.8402 74.3191C42.8351 74.3132 42.8314 74.3062 42.8294 74.2987C42.8286 74.2909 42.8296 74.2831 42.8323 74.2758C42.835 74.2685 42.8394 74.262 42.845 74.2568C42.9006 74.2233 42.9582 74.1933 43.0173 74.1669C44.6055 73.4203 46.1086 72.4984 47.4998 71.4179C50.1514 69.3778 52.3702 66.8114 54.0227 63.8735C55.2933 61.6224 56.2129 59.1836 56.7486 56.6445C56.7916 56.4448 56.8308 56.2452 56.8719 56.0356C56.8779 56.0032 56.8878 55.9716 56.9013 55.9417C56.9052 55.9349 56.9106 55.929 56.9171 55.9245C56.9235 55.92 56.9308 55.917 56.9385 55.9158C56.9385 55.9158 56.9698 55.9277 56.9718 55.9377C56.9852 55.986 56.9937 56.0355 56.9973 56.0855C57.0423 56.8381 57.0736 57.5907 57.0462 58.3454C57.0227 58.9762 56.9835 59.6051 56.9111 60.23C56.7553 61.6056 56.4754 62.9635 56.0749 64.2867C55.2283 67.0822 53.8533 69.6819 52.0272 71.9389C51.4111 72.6988 50.7472 73.4171 50.0396 74.0891C49.9653 74.1654 49.865 74.2097 49.7596 74.2129C48.9156 74.2528 48.0716 74.3167 47.2256 74.3306C46.8242 74.3386 46.4267 74.3546 46.2034 74.3626Z" fill="#FAECB5"/>
<path d="M68.5331 59.1219C68.5331 59.3036 68.5331 59.4873 68.5331 59.669C68.5369 59.7847 68.5077 59.8992 68.4489 59.9984C67.9359 60.9307 67.3683 61.8307 66.7492 62.6935C66.1288 63.5673 65.4573 64.4019 64.7381 65.193C64.7146 65.217 64.693 65.2429 64.6715 65.2669C64.6499 65.2908 64.6147 65.3128 64.5873 65.2908C64.5599 65.2689 64.5638 65.233 64.5736 65.199C64.5834 65.1651 64.5971 65.1212 64.6069 65.0812C64.7009 64.7379 64.8027 64.3965 64.8869 64.0511C65.0852 63.2473 65.2311 62.4309 65.3236 61.6075C65.3726 61.1882 65.4195 60.767 65.4274 60.3437C65.4274 59.8726 65.4274 59.3994 65.3961 58.9263C65.3647 58.4531 65.3275 57.968 65.2766 57.4909C65.2081 56.864 65.1219 56.2411 65.0083 55.6203C64.788 54.4068 64.4864 53.2101 64.1056 52.0387C63.8764 51.328 63.5886 50.6412 63.3066 49.9565C62.5781 48.1837 61.9091 46.3869 61.2994 44.5662C61.2054 44.2847 61.1036 44.0032 61.0135 43.7217C61.0005 43.6828 60.9913 43.6426 60.9861 43.6019C60.9861 43.6019 61.0018 43.572 61.0135 43.568C61.0202 43.5645 61.0275 43.5626 61.035 43.5626C61.0425 43.5626 61.0499 43.5645 61.0566 43.568C61.0894 43.6048 61.1201 43.6434 61.1486 43.6837C62.5788 45.7088 63.9076 47.8064 65.1297 49.9684C65.9483 51.4098 66.6963 52.8852 67.4209 54.3825C67.7869 55.1696 68.061 55.9978 68.2375 56.85C68.399 57.5974 68.4979 58.3575 68.5331 59.1219V59.1219Z" fill="#FAECB5"/>
<path d="M21.4727 59.2677C21.5102 57.6524 21.8547 56.0598 22.487 54.5781C22.538 54.4564 22.5967 54.3386 22.6535 54.2188C23.5543 52.3522 24.5256 50.5234 25.5909 48.7426C26.6131 47.0177 27.6921 45.3308 28.8533 43.6997C28.8905 43.6478 28.912 43.53 29.0002 43.5799C29.0883 43.6298 29.0001 43.7017 28.9806 43.7616C28.2188 46.0615 27.3866 48.3354 26.4486 50.5674C25.9424 51.8066 25.5408 53.0876 25.2482 54.3965C25.0656 55.1785 24.9218 55.9694 24.8173 56.7662C24.7429 57.3172 24.6881 57.8682 24.647 58.4232C24.6058 58.9782 24.5843 59.5153 24.5725 60.0623C24.5729 60.5518 24.6056 61.0407 24.6705 61.5256C24.7546 62.2749 24.8801 63.0188 25.0465 63.7536C25.1502 64.2048 25.2756 64.652 25.4028 65.0972C25.4146 65.1451 25.4283 65.193 25.4381 65.241C25.4402 65.2466 25.4411 65.2526 25.4407 65.2586C25.4404 65.2646 25.4387 65.2704 25.436 65.2758C25.4332 65.2811 25.4293 65.2857 25.4246 65.2893C25.4199 65.293 25.4145 65.2955 25.4087 65.2969C25.4016 65.2999 25.3939 65.3014 25.3862 65.3014C25.3785 65.3014 25.3708 65.2999 25.3637 65.2969C25.3331 65.2703 25.3043 65.2416 25.2775 65.211C24.7175 64.5961 24.1881 63.9559 23.6894 63.2905C22.9156 62.2648 22.2129 61.1855 21.5862 60.0603C21.5094 59.9335 21.4718 59.786 21.4785 59.637C21.4805 59.4993 21.4727 59.3655 21.4727 59.2677Z" fill="#FAECB5"/>
<path d="M33.328 56.5127C33.3417 56.5127 33.3652 56.5127 33.3672 56.5326C33.3907 56.6125 33.4141 56.6924 33.4318 56.7722C34.3086 60.9088 36.2182 64.7446 38.9756 67.9082C40.0796 69.1854 41.3145 70.3385 42.6591 71.348C42.7707 71.4318 42.8823 71.5137 42.99 71.6015C43.0977 71.6893 43.0781 71.6894 43.0233 71.7872C42.6953 72.353 42.2591 72.8459 41.7406 73.2366C41.3695 73.5208 40.9616 73.7512 40.5285 73.9213C40.4935 73.9398 40.4532 73.9454 40.4147 73.937C40.3761 73.9286 40.3416 73.9068 40.317 73.8754C39.3351 72.8807 38.4395 71.8013 37.6401 70.6492C36.2619 68.6643 35.1864 66.4781 34.4501 64.1649C34.0616 62.9516 33.7688 61.7085 33.5747 60.4476C33.4533 59.649 33.3698 58.8505 33.3241 58.0519C33.2967 57.5787 33.2908 57.1076 33.2869 56.6344C33.2869 56.6025 33.2869 56.5686 33.2869 56.5366C33.2869 56.5047 33.3084 56.5087 33.328 56.5127Z" fill="#FAECB5"/>
<path d="M18.4198 49.9604C18.4198 49.7029 18.4511 49.3296 18.4962 48.9622C18.5046 48.9049 18.521 48.8491 18.5451 48.7965C19.357 46.8907 20.6868 45.2614 22.3774 44.101C22.9159 43.7277 23.4251 43.3124 23.9303 42.9031C25.2541 41.8156 26.5104 40.6455 27.6921 39.3995C28.4676 38.5836 29.2078 37.7345 29.9127 36.852C30.0733 36.6524 30.138 36.6025 30.1497 36.6524C30.1889 36.7722 30.091 36.852 30.0459 36.9419C29.4178 38.2057 28.7155 39.4297 27.9428 40.6073C27.0001 42.0504 25.9597 43.4246 24.8291 44.7199C24.735 44.8229 24.6314 44.9165 24.5198 44.9994C23.6241 45.7187 22.8226 46.552 22.1346 47.4789C20.9064 49.1182 20.0473 51.013 19.6183 53.0289C19.5028 53.5628 19.4204 54.1036 19.3715 54.648C19.3714 54.6813 19.3661 54.7143 19.3559 54.7458C19.3528 54.7511 19.3488 54.7558 19.344 54.7595C19.3392 54.7631 19.3337 54.7658 19.3278 54.7673C19.322 54.7688 19.3159 54.7691 19.31 54.7681C19.304 54.7672 19.2983 54.765 19.2932 54.7618C19.2625 54.7352 19.2407 54.6997 19.2305 54.66C18.8987 53.8131 18.666 52.9292 18.5373 52.0267C18.441 51.3426 18.4017 50.6513 18.4198 49.9604V49.9604Z" fill="#FAECB5"/>
<path d="M71.5803 50.21C71.5986 51.7066 71.3326 53.1926 70.797 54.5861C70.797 54.5861 70.797 54.6041 70.797 54.6101C70.7618 54.656 70.7794 54.7638 70.6874 54.7419C70.6247 54.7259 70.6502 54.642 70.6443 54.5881C70.5561 53.7086 70.3863 52.8396 70.1371 51.9928C69.4747 49.7171 68.2573 47.6496 66.5986 45.9836C66.2215 45.6058 65.8233 45.2505 65.406 44.9195C65.3229 44.8525 65.2456 44.7784 65.1749 44.6979C63.7591 43.0735 62.4853 41.326 61.3681 39.4753C60.8472 38.6149 60.3674 37.7305 59.9151 36.8321C59.8916 36.7882 59.872 36.7423 59.8524 36.6963C59.8478 36.6852 59.8477 36.6727 59.8521 36.6615C59.8565 36.6503 59.8651 36.6413 59.8759 36.6364C59.8829 36.6329 59.8906 36.6311 59.8984 36.6311C59.9062 36.6311 59.9139 36.6329 59.9209 36.6364C59.9601 36.6764 59.9993 36.7183 60.0365 36.7642C60.2656 37.0437 60.4928 37.3252 60.7238 37.6027C61.4092 38.4252 62.1272 39.2151 62.8779 39.9725C64.2831 41.4004 65.7884 42.7222 67.3819 43.9273C67.5777 44.0751 67.7853 44.2088 67.9811 44.3566C69.4978 45.49 70.6936 47.0121 71.4472 48.7686C71.4846 48.8508 71.5097 48.9383 71.5216 49.0281C71.5648 49.4205 71.5844 49.8152 71.5803 50.21V50.21Z" fill="#FAECB5"/>
<path d="M29.7581 34.7478C29.7424 34.8217 29.6876 34.8457 29.6445 34.8796C28.0709 36.1384 26.4098 37.2794 24.6745 38.2935C23.9487 38.7037 23.2554 39.171 22.6007 39.6909C20.9238 41.0438 19.5644 42.7612 18.6215 44.7179C18.5667 44.8297 18.5079 44.9375 18.4512 45.0473C18.4464 45.0538 18.4402 45.059 18.433 45.0624C18.4258 45.0659 18.418 45.0676 18.41 45.0673C18.3905 45.0573 18.3611 45.0373 18.3611 45.0213C18.3611 44.8556 18.3611 44.6899 18.3611 44.5242C18.3611 44.3585 18.3787 44.1948 18.3865 44.0291C18.4179 43.3324 18.4864 42.6317 18.5687 41.9489C18.6764 41.0605 18.833 40.182 19.0269 39.3096C19.0621 39.1399 19.1352 38.9808 19.2403 38.8445C20.1379 37.6698 21.4071 36.8486 22.8318 36.5206C23.2665 36.4168 23.7091 36.347 24.1399 36.2332C25.5978 35.8575 27.0032 35.2954 28.3227 34.5602L28.3442 34.5482C28.6399 34.3845 28.6399 34.3845 28.963 34.4524C29.2091 34.5061 29.4482 34.5885 29.6758 34.6979C29.7043 34.7126 29.7318 34.7293 29.7581 34.7478V34.7478Z" fill="#FAECB5"/>
<path d="M71.6175 44.4145C71.6175 44.6041 71.6293 44.8037 71.6391 45.0014C71.64 45.0136 71.637 45.0258 71.6307 45.0362C71.6244 45.0466 71.615 45.0547 71.6038 45.0593C71.5985 45.0623 71.5926 45.0641 71.5866 45.0646C71.5805 45.0651 71.5744 45.0643 71.5687 45.0622C71.5629 45.0601 71.5577 45.0569 71.5533 45.0526C71.5489 45.0483 71.5454 45.0431 71.5431 45.0373C71.504 44.9675 71.4648 44.8936 71.4296 44.8197C70.9985 43.907 70.4733 43.0437 69.863 42.2444C68.7346 40.7374 67.3234 39.4745 65.7115 38.5291C64.224 37.6708 62.7856 36.727 61.4034 35.7021C61.0509 35.4366 60.7043 35.1631 60.3537 34.8916C60.3211 34.8673 60.2897 34.8413 60.2597 34.8137C60.2147 34.7718 60.2225 34.7299 60.2832 34.6999C60.528 34.589 60.7824 34.5014 61.043 34.4384C61.1399 34.4139 61.2407 34.4096 61.3393 34.4257C61.4379 34.4418 61.5323 34.4781 61.6168 34.5322C63.118 35.3786 64.7323 35.9974 66.4086 36.3689C66.5829 36.4089 66.7592 36.4428 66.9354 36.4747C67.7284 36.6216 68.4843 36.9299 69.158 37.3811C69.7972 37.7966 70.3572 38.3269 70.8107 38.9463C70.86 39.0121 70.8953 39.0875 70.9145 39.1679C71.0849 39.9185 71.2337 40.6732 71.3395 41.4358C71.4354 42.1346 71.5138 42.8333 71.5568 43.536C71.5921 43.8255 71.6234 44.115 71.6175 44.4145Z" fill="#FAECB5"/>
<path d="M48.7746 67.7025C48.7642 67.732 48.7518 67.7607 48.7373 67.7884C48.6747 67.8742 48.612 67.9621 48.5415 68.0459C47.9326 68.828 47.1607 69.4621 46.2817 69.9026C46.2539 69.9185 46.222 69.9255 46.1902 69.9226C46.1584 69.9198 46.1282 69.9072 46.1035 69.8866C45.5448 69.5317 45.0043 69.1479 44.484 68.7367C42.5346 67.1846 40.929 65.23 39.7725 63.001C39.1831 61.8659 38.7125 60.6708 38.3684 59.4354C38.3684 59.3955 38.3508 59.3555 38.343 59.3136C38.3402 59.3017 38.3415 59.2892 38.3469 59.2782C38.3523 59.2672 38.3613 59.2586 38.3724 59.2537C38.3998 59.2417 38.4193 59.2537 38.435 59.2777C38.4507 59.3016 38.5075 59.3675 38.5427 59.4134C38.7386 59.665 38.9344 59.9205 39.1302 60.1681C41.4384 62.991 44.2673 65.3249 47.4567 67.0377C47.7935 67.2194 48.1381 67.3851 48.4808 67.5568L48.7001 67.6646L48.7746 67.7025Z" fill="#FAECB5"/>
<path d="M50.7582 64.1649C49.3262 64.1477 47.9313 63.6982 46.7497 62.8732C46.6165 62.7814 46.4873 62.6736 46.3581 62.5797C46.3501 62.5735 46.3439 62.5651 46.3403 62.5555C46.3367 62.5459 46.3357 62.5355 46.3376 62.5253C46.3394 62.5152 46.3439 62.5058 46.3506 62.4982C46.3574 62.4905 46.366 62.4849 46.3757 62.4819C46.4286 62.458 46.4814 62.438 46.5343 62.418C47.6434 61.9894 48.7195 61.4769 49.7537 60.8848C49.7826 60.8705 49.8107 60.8545 49.8379 60.8369C49.871 60.8138 49.9099 60.8006 49.95 60.7988C49.9902 60.7971 50.03 60.8068 50.065 60.8269C50.4156 60.9811 50.7803 61.0995 51.1538 61.1803C51.6319 61.2836 52.1203 61.3285 52.6088 61.314C52.6401 61.314 52.6734 61.314 52.7067 61.314C52.74 61.314 52.7968 61.356 52.7713 61.4119C52.7047 61.5536 52.6342 61.6933 52.5637 61.8331C52.1936 62.5618 51.8098 63.2825 51.4045 63.9892C51.3867 64.0176 51.3703 64.0469 51.3555 64.077C51.3424 64.1075 51.3202 64.133 51.2921 64.1499C51.264 64.1667 51.2313 64.1741 51.1989 64.1709L50.7582 64.1649Z" fill="#FAECB5"/>
<path d="M25.4734 29.1759C25.4834 29.1754 25.4933 29.1773 25.5025 29.1813C25.5117 29.1853 25.5199 29.1913 25.5265 29.199C25.5331 29.2067 25.5379 29.2157 25.5405 29.2256C25.5432 29.2354 25.5437 29.2457 25.5419 29.2557C25.5419 29.3056 25.5262 29.3556 25.5145 29.4035C25.3479 30.1581 25.3266 30.9385 25.4518 31.7013C25.4518 31.7253 25.4518 31.7492 25.4655 31.7732C25.4694 31.7851 25.4706 31.7978 25.4693 31.8102C25.4679 31.8227 25.464 31.8348 25.4576 31.8456C25.4513 31.8563 25.4428 31.8656 25.4327 31.8728C25.4226 31.8799 25.4111 31.8848 25.399 31.887L25.1875 31.9429C23.5222 32.355 21.9817 33.1777 20.7011 34.3386C20.5915 34.4384 20.4877 34.5382 20.38 34.644C20.3573 34.668 20.3316 34.6888 20.3036 34.7059C20.2969 34.7093 20.2895 34.711 20.2821 34.711C20.2746 34.711 20.2672 34.7093 20.2605 34.7059C20.2605 34.688 20.237 34.658 20.2429 34.642C20.2624 34.5963 20.2867 34.5528 20.3153 34.5123C20.7788 33.7616 21.2599 33.0223 21.7586 32.2943C22.346 31.4298 22.9629 30.5833 23.5915 29.7488C23.6522 29.6617 23.7397 29.5978 23.8402 29.5672C24.3596 29.3982 24.8895 29.2649 25.4264 29.1679L25.4734 29.1759Z" fill="#FAECB5"/>
<path d="M64.5404 31.7792C64.558 31.6235 64.5776 31.4678 64.5952 31.3121C64.665 30.677 64.6293 30.0344 64.4895 29.4115C64.4895 29.3716 64.4719 29.3316 64.464 29.2897C64.4464 29.1979 64.464 29.1619 64.562 29.1799C64.8792 29.2478 65.1984 29.3117 65.5137 29.3895C65.733 29.4434 65.9484 29.5173 66.1677 29.5892C66.2609 29.6161 66.3424 29.6745 66.3988 29.7549C67.0176 30.5754 67.6227 31.4059 68.2043 32.2564C68.7147 33.003 69.2082 33.7623 69.6847 34.5343C69.718 34.5882 69.8179 34.658 69.7376 34.7219C69.6867 34.7639 69.6318 34.67 69.5888 34.6261C69.0206 34.0676 68.3911 33.5779 67.7128 33.1667C66.8008 32.607 65.8102 32.193 64.7754 31.9389L64.609 31.899C64.5959 31.8972 64.5835 31.8925 64.5726 31.885C64.5617 31.8776 64.5525 31.8678 64.5459 31.8562C64.5393 31.8447 64.5354 31.8317 64.5344 31.8184C64.5335 31.805 64.5355 31.7916 64.5404 31.7792V31.7792Z" fill="#FAECB5"/>
<path d="M37.5948 35.4007C37.5197 35.4001 37.4456 35.3838 37.3769 35.3529C37.3082 35.322 37.2463 35.2772 37.1952 35.2211C37.1441 35.1651 37.1047 35.099 37.0794 35.0269C37.0542 34.9548 37.0437 34.8782 37.0485 34.8018C37.0497 34.7269 37.0657 34.653 37.0956 34.5846C37.1254 34.5161 37.1685 34.4546 37.2223 34.4035C37.276 34.3524 37.3393 34.3129 37.4084 34.2874C37.4774 34.2618 37.5508 34.2507 37.6242 34.2548C37.6994 34.2555 37.7736 34.2717 37.8424 34.3026C37.9112 34.3334 37.9732 34.3782 38.0245 34.4342C38.0758 34.4903 38.1153 34.5563 38.1408 34.6284C38.1663 34.7006 38.177 34.7772 38.1725 34.8537C38.17 34.9283 38.153 35.0017 38.1226 35.0697C38.0922 35.1376 38.0489 35.1988 37.9952 35.2496C37.9415 35.3004 37.8785 35.34 37.8098 35.3659C37.7411 35.3918 37.668 35.4036 37.5948 35.4007V35.4007Z" fill="#FAECB5"/>
<path d="M52.3894 35.4007C52.2422 35.4012 52.1007 35.3427 51.9955 35.2377C51.8904 35.1327 51.8299 34.9897 51.8274 34.8396C51.8235 34.7629 51.8354 34.6862 51.8621 34.6144C51.8889 34.5425 51.93 34.4772 51.9828 34.4224C52.0356 34.3676 52.099 34.3245 52.169 34.296C52.239 34.2675 52.3141 34.2541 52.3894 34.2567C52.4632 34.2528 52.537 34.2645 52.6061 34.2912C52.6753 34.3179 52.7382 34.3588 52.791 34.4116C52.8439 34.4643 52.8854 34.5276 52.913 34.5975C52.9406 34.6674 52.9537 34.7424 52.9514 34.8177C52.9552 34.8944 52.9434 34.9712 52.9166 35.043C52.8899 35.1148 52.8488 35.1802 52.796 35.235C52.7431 35.2898 52.6797 35.3328 52.6097 35.3613C52.5397 35.3899 52.4647 35.4032 52.3894 35.4007V35.4007Z" fill="#FAECB5"/>
<path d="M38.3664 55.3029C38.3539 55.3349 38.3351 55.364 38.3112 55.3884C38.2873 55.4127 38.2588 55.4319 38.2274 55.4446C38.1999 55.4007 38.1529 55.4147 38.1157 55.4007C38.1688 55.3466 38.2374 55.311 38.3115 55.2989C38.3153 55.2953 38.3198 55.2925 38.3246 55.2907C38.3295 55.2889 38.3347 55.2882 38.3398 55.2885C38.345 55.2889 38.35 55.2904 38.3546 55.2929C38.3592 55.2953 38.3632 55.2987 38.3664 55.3029V55.3029Z" fill="#694B42"/>
<path d="M51.7882 55.4626C51.7259 55.4327 51.6754 55.382 51.6453 55.3188C51.6845 55.3142 51.7244 55.3194 51.7612 55.334C51.7981 55.3486 51.8309 55.3722 51.8568 55.4027L51.7882 55.4626Z" fill="#323232"/>
<path d="M62.3374 28.4193C62.3576 28.4301 62.3772 28.442 62.3961 28.4552C62.4023 28.4598 62.4075 28.4658 62.4112 28.4727C62.4149 28.4796 62.4171 28.4873 62.4176 28.4951C62.4176 28.5231 62.3863 28.5271 62.3648 28.5231C62.3432 28.5191 62.2845 28.5231 62.2571 28.4811C62.2825 28.4592 62.3276 28.4632 62.3374 28.4193Z" fill="#6A4B40"/>
<path d="M62.684 29.663C62.7021 29.6873 62.7179 29.7134 62.731 29.7409C62.731 29.7609 62.731 29.7848 62.731 29.8068C62.7109 29.8021 62.6916 29.794 62.6742 29.7828C62.6577 29.7667 62.6433 29.7486 62.6311 29.7289L62.684 29.663Z" fill="#4F4F45"/>
<path d="M62.5724 31.2062C62.5743 31.2361 62.5743 31.2662 62.5724 31.2961C62.5724 31.2961 62.5547 31.3121 62.5449 31.316C62.5352 31.32 62.5312 31.316 62.5273 31.3021C62.5201 31.2886 62.5164 31.2735 62.5164 31.2581C62.5164 31.2428 62.5201 31.2277 62.5273 31.2142L62.5724 31.2062Z" fill="#66796C"/>
<path d="M38.3664 55.3028H38.3115C38.3295 55.2883 38.3492 55.2762 38.3703 55.2669C38.3703 55.2669 38.3898 55.2669 38.4016 55.2849L38.3664 55.3028Z" fill="#A28473"/>
<path d="M63.9979 14.0311C63.9336 14.014 63.8681 14.002 63.802 13.9952C63.3974 13.9523 62.99 13.9443 62.584 13.9712C61.6734 14.0422 60.7897 14.3191 59.9972 14.7818C59.2274 15.2221 58.5596 15.826 58.0389 16.5526C57.9941 16.6358 57.9351 16.7101 57.8646 16.7722L57.8333 16.7502L57.7628 16.6803C57.4428 16.3579 57.0456 16.1264 56.6108 16.0088C56.1759 15.8911 55.7184 15.8914 55.2837 16.0096C54.6739 16.1648 54.139 16.5379 53.7761 17.061C53.4132 17.5841 53.2464 18.2226 53.3059 18.8604C53.3235 19.0835 53.373 19.3028 53.4527 19.5113C53.456 19.5183 53.4609 19.5243 53.4671 19.5289C53.4732 19.5334 53.4804 19.5363 53.488 19.5372C53.4956 19.5379 53.5032 19.5367 53.5103 19.534C53.5174 19.5312 53.5238 19.5269 53.5291 19.5212C53.5624 19.4554 53.5918 19.3875 53.6231 19.3216C54.0245 18.4831 54.9057 18.0698 55.7909 18.4671C56.0408 18.569 56.2615 18.7334 56.4326 18.9452C56.6038 19.157 56.7198 19.4094 56.77 19.679C56.8164 19.9027 56.817 20.1337 56.7718 20.3577C56.7267 20.5816 56.6367 20.7937 56.5076 20.9806C56.1316 21.5585 55.591 22.0051 54.9586 22.2603C54.9057 22.2823 54.8509 22.3002 54.8 22.3242C54.7491 22.3482 54.7177 22.3901 54.7569 22.4619C54.904 22.7205 55.0919 22.9525 55.3131 23.1487C55.3718 23.2026 55.4521 23.2366 55.4912 23.3284C55.2236 23.2922 54.9608 23.2252 54.7079 23.1288C54.4639 23.038 54.2275 22.9271 54.001 22.7973C53.9599 22.7734 53.9227 22.7355 53.8698 22.7414C53.855 22.7459 53.8415 22.7542 53.8307 22.7654C53.8288 22.7691 53.8278 22.7732 53.8278 22.7774C53.8278 22.7816 53.8288 22.7857 53.8307 22.7894C53.8439 22.8191 53.8603 22.8472 53.8796 22.8732C54.083 23.1225 54.3196 23.3416 54.5826 23.524C54.7177 23.6139 54.8568 23.6997 54.9939 23.7856C55.0213 23.8175 55.0663 23.8095 55.0937 23.8375C55.1212 23.8654 55.1427 23.8654 55.0937 23.8914C55.005 23.8953 54.9161 23.8873 54.8294 23.8674C54.4367 23.7967 54.0611 23.6496 53.723 23.4342C53.6838 23.4082 53.6466 23.3703 53.5918 23.3983C53.5369 23.4262 53.578 23.4642 53.6564 23.532C53.9946 23.829 54.3525 24.1018 54.7275 24.3486C54.7549 24.3665 54.8098 24.3745 54.7843 24.4344H54.7119C53.8418 24.4551 52.9727 24.3639 52.125 24.1629C50.6079 23.8153 49.1815 23.14 47.9422 22.1825C47.8678 22.1246 47.8091 22.0327 47.7014 22.0307C47.6191 22.1226 47.6602 22.2304 47.6641 22.3342C47.6863 22.7062 47.752 23.0741 47.86 23.4302C47.8815 23.4602 47.86 23.4981 47.8756 23.532L47.8874 23.554L47.8698 23.538C47.8544 23.515 47.8335 23.4964 47.8091 23.4841C47.5078 23.0495 47.2954 22.5577 47.1844 22.0377C47.0734 21.5178 47.0661 20.9804 47.1628 20.4576C47.3281 19.4472 47.8679 18.5401 48.6707 17.9241C48.8336 17.7916 49.0259 17.702 49.2308 17.663C49.4357 17.624 49.6468 17.6369 49.8456 17.7005C50.1938 17.8017 50.4899 18.0364 50.672 18.3553C50.7911 18.5407 50.8463 18.7612 50.8289 18.982C50.8115 19.2028 50.7226 19.4115 50.5761 19.5751C50.5428 19.6111 50.5075 19.645 50.4742 19.683C50.4652 19.6964 50.4617 19.7128 50.4644 19.7289C50.4662 19.7346 50.4691 19.74 50.4729 19.7447C50.4768 19.7493 50.4814 19.7531 50.4867 19.7559C50.492 19.7587 50.4978 19.7604 50.5037 19.7609C50.5096 19.7614 50.5156 19.7607 50.5212 19.7588C50.6208 19.7251 50.7183 19.6851 50.813 19.639C51.1185 19.4733 51.3821 19.2375 51.5828 18.9501C51.7836 18.6628 51.9161 18.3318 51.9698 17.9833C52.0235 17.6347 51.9971 17.2783 51.8925 16.942C51.7879 16.6057 51.6081 16.2988 51.3672 16.0455C51.1277 15.7823 50.8234 15.5893 50.486 15.4865C50.0451 15.3622 49.5809 15.3512 49.1348 15.4546C48.5678 15.5838 48.0487 15.8754 47.6387 16.2951C47.2452 16.6931 46.9225 17.1579 46.685 17.6686C46.5226 18.0199 46.3916 18.3854 46.2934 18.7606C46.2797 18.8185 46.2797 18.8884 46.2072 18.9303C46.1884 18.6123 46.2022 18.2931 46.2483 17.978C46.4082 16.8921 46.9599 15.9061 47.7954 15.213L47.9285 15.1032C47.9488 15.0899 47.9651 15.0711 47.9755 15.0489C47.9859 15.0266 47.99 15.0019 47.9873 14.9774C47.9736 14.8197 47.9696 14.662 47.9481 14.5063C47.8545 13.7986 47.6461 13.1118 47.3313 12.4739C47.1756 12.1448 46.978 11.8381 46.7438 11.5616C46.1932 10.9161 45.7524 10.1812 45.4396 9.38747C45.292 9.01933 45.1722 8.64025 45.0812 8.25352C45.0662 8.17998 45.0473 8.10732 45.0244 8.0359C45.0244 8.01793 44.9892 8.00596 44.9676 7.99798C44.9461 7.98999 44.9402 8.01196 44.9344 8.02593C44.9187 8.07185 44.905 8.11975 44.8932 8.16767C44.8658 8.27947 44.8423 8.39327 44.811 8.50507C44.5082 9.63711 43.9594 10.6852 43.2052 11.5716C42.9881 11.8294 42.8033 12.1137 42.655 12.418C42.2782 13.1549 42.0505 13.9614 41.9852 14.7898C41.9617 15.0972 41.9206 15.0133 42.1517 15.203C42.661 15.62 43.0685 16.1516 43.3423 16.7562C43.6532 17.4269 43.7971 18.1654 43.7614 18.9063C43.7418 18.9423 43.7281 18.9782 43.7614 19.0161C43.7241 18.9922 43.7614 18.9363 43.7163 18.9143C43.6987 18.8584 43.683 18.8045 43.6674 18.7486C43.4895 18.0657 43.1872 17.423 42.7764 16.854C42.592 16.5903 42.3799 16.348 42.1439 16.1313C41.6055 15.6515 40.9144 15.3875 40.1993 15.3887C39.8236 15.369 39.4497 15.4546 39.1184 15.6362C38.7524 15.8329 38.4487 16.1316 38.2428 16.4974C38.0369 16.8632 37.9371 17.2811 37.9552 17.7025C37.9624 18.1451 38.0984 18.5754 38.3459 18.9391C38.5935 19.3027 38.9414 19.5831 39.3455 19.7448C39.3759 19.7559 39.4074 19.7633 39.4395 19.7668C39.4474 19.7667 39.4551 19.7648 39.4622 19.7614C39.4693 19.7579 39.4756 19.753 39.4806 19.7468C39.4841 19.7397 39.4859 19.7318 39.4859 19.7239C39.4859 19.7159 39.4841 19.7081 39.4806 19.7009L39.3671 19.5711C39.2544 19.4445 39.1768 19.2895 39.1424 19.1221C39.108 18.9547 39.1179 18.781 39.1712 18.6189C39.2334 18.4206 39.3397 18.2397 39.4816 18.0901C39.6236 17.9405 39.7975 17.8263 39.9898 17.7564C40.2018 17.6569 40.4374 17.6215 40.6686 17.6545C40.8997 17.6874 41.1168 17.7872 41.294 17.9421C41.7857 18.322 42.1828 18.8145 42.4533 19.3798C42.7237 19.9451 42.8599 20.5673 42.8508 21.1962C42.8557 22.0405 42.5964 22.8643 42.1106 23.548C42.0929 23.548 42.0714 23.5839 42.0596 23.548C42.1324 23.3198 42.1906 23.0871 42.2339 22.8513C42.276 22.606 42.2976 22.3576 42.2985 22.1086C42.2989 22.0962 42.2957 22.0839 42.2893 22.0734C42.2829 22.0628 42.2737 22.0544 42.2626 22.0491C42.2516 22.0438 42.2394 22.0419 42.2273 22.0436C42.2153 22.0453 42.2039 22.0505 42.1948 22.0587C42.134 22.0986 42.0753 22.1445 42.0185 22.1884C41.4512 22.6339 40.8394 23.0173 40.1934 23.3324C38.6528 24.0995 36.9553 24.482 35.241 24.4484C35.2136 24.4484 35.1745 24.4624 35.1608 24.4045L35.3742 24.2547C35.6933 24.0399 35.9982 23.8038 36.2867 23.548C36.3174 23.5214 36.3462 23.4928 36.3729 23.4621C36.3767 23.4555 36.3787 23.4479 36.3787 23.4402C36.3787 23.4325 36.3767 23.4249 36.3729 23.4182C36.3679 23.412 36.3617 23.407 36.3546 23.4035C36.3474 23.4001 36.3397 23.3983 36.3318 23.3983C36.2613 23.3983 36.2143 23.4502 36.1595 23.4841C35.8224 23.6861 35.4511 23.8216 35.0648 23.8834C34.981 23.905 34.8938 23.9098 34.8083 23.8974C34.8083 23.8774 34.8083 23.8634 34.8083 23.8614L34.9375 23.7955C35.3171 23.6029 35.6589 23.341 35.946 23.0229C36.0146 22.9471 36.1124 22.8852 36.1262 22.7674C35.995 22.7155 35.9186 22.8293 35.8226 22.8772C35.435 23.0881 35.0164 23.2337 34.5831 23.3084C34.5302 23.3084 34.5106 23.3084 34.5341 23.2465C34.792 23.043 35.0099 22.7918 35.1764 22.5059C35.1946 22.4787 35.2091 22.4492 35.2195 22.418C35.2211 22.4066 35.2202 22.3949 35.2168 22.3838C35.2134 22.3728 35.2076 22.3626 35.1999 22.3541C35.1502 22.3268 35.0985 22.3035 35.0452 22.2843C34.6132 22.1084 34.2183 21.8494 33.882 21.5216C33.6917 21.34 33.5288 21.1308 33.3983 20.9008C33.2049 20.5848 33.1216 20.2116 33.1618 19.8415C33.2019 19.4713 33.3632 19.1257 33.6196 18.8604C33.8084 18.646 34.0497 18.4866 34.3187 18.3985C34.5878 18.3105 34.875 18.297 35.151 18.3593C35.4122 18.4097 35.6575 18.5242 35.8657 18.6929C36.0738 18.8616 36.2385 19.0794 36.3455 19.3276C36.3631 19.3635 36.3749 19.4034 36.3925 19.4414C36.4101 19.4793 36.4199 19.5492 36.4786 19.5412C36.5374 19.5332 36.5315 19.4673 36.5472 19.4214C36.5628 19.3755 36.5648 19.3735 36.5707 19.3495C36.7578 18.6812 36.6812 17.9647 36.3572 17.3531C36.0979 16.8552 35.6909 16.4535 35.1944 16.2054C34.6978 15.9573 34.1371 15.8755 33.5922 15.9716C33.0997 16.0543 32.6409 16.2795 32.2704 16.6204C32.2163 16.6855 32.1496 16.7385 32.0746 16.7762C32.0217 16.7043 31.9747 16.6364 31.9277 16.5765C31.1124 15.433 29.9454 14.6003 28.6124 14.2108C27.977 14.0214 27.3154 13.9398 26.6541 13.9692C26.4583 13.9692 26.2625 13.9972 26.0667 14.0211C25.9041 14.0411 25.8943 14.0731 25.9922 14.1968C26.0901 14.3206 26.1548 14.3965 26.237 14.5063C28.3602 17.1518 30.2526 19.9815 31.8924 22.963C32.1783 23.4821 32.4643 24.0032 32.7208 24.5402C32.7246 24.5641 32.734 24.5867 32.7482 24.6061C32.756 24.6069 32.7639 24.6069 32.7717 24.6061C32.7717 24.6061 32.756 24.6221 32.756 24.6261C32.7501 24.6196 32.7427 24.6146 32.7346 24.6115C32.7264 24.6084 32.7177 24.6072 32.709 24.6081L32.4956 24.4444C31.8962 23.9616 31.2124 23.5992 30.4805 23.3763C30.2651 23.3084 30.0419 23.2665 29.8206 23.2126C29.6074 23.2905 29.4016 23.3881 29.2057 23.5041C28.4525 23.9161 27.7963 24.4904 27.2827 25.187C27.276 25.2069 27.2619 25.2233 27.2436 25.233V25.233L27.2103 25.2829C27.2073 25.2857 27.2049 25.2891 27.2033 25.2929C27.2017 25.2966 27.2009 25.3007 27.2009 25.3048C27.2009 25.3089 27.2017 25.313 27.2033 25.3168C27.2049 25.3206 27.2073 25.324 27.2103 25.3268C27.2119 25.3314 27.2147 25.3354 27.2182 25.3387C27.2218 25.3419 27.226 25.3442 27.2307 25.3454C27.2353 25.3466 27.2401 25.3466 27.2448 25.3454C27.2494 25.3443 27.2537 25.342 27.2573 25.3388L27.3415 25.2729C27.3617 25.2621 27.3813 25.2501 27.4002 25.2369C27.4248 25.2329 27.449 25.2269 27.4727 25.219C27.9876 25.0127 28.5304 24.8882 29.0824 24.8497C29.6506 24.8046 30.2222 24.851 30.7762 24.9874C31.611 25.183 32.3916 25.5686 33.0596 26.1154C33.0909 26.1433 33.1516 26.1573 33.1359 26.2292C32.9148 26.2807 32.6891 26.3094 32.4623 26.315C31.6573 26.3669 30.8495 26.2791 30.0732 26.0555C29.9012 26.0057 29.7233 25.9796 29.5445 25.9776C29.3333 25.972 29.1222 25.9874 28.9139 26.0235C28.4428 26.1025 27.9954 26.2899 27.6059 26.5715C27.2164 26.8531 26.8949 27.2214 26.6659 27.6486C26.6361 27.7076 26.6131 27.7699 26.5974 27.8343C26.4339 28.4332 26.3477 29.0513 26.3408 29.673C26.3356 30.0545 26.3618 30.4358 26.4191 30.8129C26.5049 31.412 26.6628 31.9981 26.8891 32.5578C26.9186 32.6341 26.9724 32.6981 27.0419 32.7395C27.6742 33.131 28.3534 33.4376 29.0628 33.6518C29.4518 33.7712 29.8491 33.8599 30.2514 33.9173C30.2867 33.9173 30.32 33.9173 30.3219 33.8714C30.3239 33.8255 30.2984 33.8295 30.2808 33.8175C30.2588 33.8071 30.2359 33.7991 30.2123 33.7935C29.7586 33.6391 29.3516 33.3683 29.0302 33.0071C28.7089 32.6459 28.4841 32.2066 28.3774 31.7313C28.3774 31.6993 28.3637 31.6674 28.3559 31.6354C28.348 31.6035 28.3245 31.5715 28.2912 31.5755C28.2579 31.5795 28.2521 31.6095 28.2481 31.6314C28.2211 31.7869 28.2145 31.9454 28.2286 32.1026C28.2286 32.1605 28.3147 32.2463 28.1757 32.2523C28.0978 32.0811 28.0323 31.9043 27.9799 31.7233C27.8747 31.3418 27.8441 30.9429 27.8898 30.5494C27.8898 30.5095 27.9074 30.4615 27.8526 30.4476C27.7977 30.4336 27.7938 30.4676 27.7762 30.4935C27.714 30.5801 27.6565 30.6701 27.6039 30.763C27.5276 30.9172 27.4716 31.081 27.4374 31.2501C27.4261 31.27 27.4213 31.2931 27.4237 31.316C27.4218 31.2929 27.4137 31.2708 27.4002 31.2521C27.3488 31.0003 27.3538 30.7399 27.4148 30.4903C27.4758 30.2408 27.5913 30.0084 27.7527 29.8107C27.7938 29.7588 27.8389 29.7109 27.88 29.659C27.9211 29.6071 27.88 29.5752 27.835 29.5712C27.6636 29.5668 27.4955 29.6186 27.3552 29.7189C27.3203 29.7287 27.2893 29.7497 27.2671 29.7788C27.2655 29.7819 27.2647 29.7853 27.2647 29.7888C27.2647 29.7922 27.2655 29.7956 27.2671 29.7987V29.7987C27.2654 29.793 27.2654 29.7869 27.2672 29.7812C27.2689 29.7755 27.2723 29.7705 27.2769 29.7668C27.2925 29.7329 27.2768 29.6949 27.2945 29.659C27.3696 29.472 27.4803 29.3021 27.6201 29.1588C27.7599 29.0156 27.9261 28.902 28.1091 28.8245C28.16 28.8005 28.2168 28.7866 28.2677 28.7646C28.3186 28.7426 28.3265 28.6927 28.2795 28.6488C28.2131 28.5882 28.1341 28.5439 28.0484 28.5191C27.9475 28.4885 27.8422 28.4757 27.737 28.4811C27.6783 28.5031 27.6195 28.523 27.643 28.4172C27.8381 28.2282 28.0734 28.0877 28.3306 28.0066C28.5877 27.9256 28.8597 27.9062 29.1254 27.9501C29.1574 27.9521 29.1894 27.9521 29.2214 27.9501C29.2284 27.9477 29.2349 27.9438 29.2403 27.9386C29.2457 27.9335 29.25 27.9271 29.2527 27.9201C29.256 27.913 29.2578 27.9051 29.2578 27.8972C29.2578 27.8892 29.256 27.8814 29.2527 27.8742C29.2338 27.8479 29.2122 27.8238 29.1881 27.8023C29.0347 27.6666 28.8633 27.5537 28.679 27.4669C28.6418 27.449 28.5791 27.451 28.5811 27.3751C29.3907 27.3485 30.1902 27.5651 30.88 27.998L31.0445 28.1038C31.0567 28.1147 31.0723 28.1208 31.0886 28.1208C31.1048 28.1208 31.1205 28.1147 31.1326 28.1038C31.1561 28.0838 31.1444 28.0599 31.1326 28.0379C31.0515 27.7766 30.9181 27.5353 30.741 27.3292C30.6999 27.2793 30.6431 27.2414 30.6255 27.1735C30.6607 27.1276 30.6999 27.1595 30.7371 27.1735C31.1179 27.2467 31.4751 27.4148 31.7768 27.6628C32.0785 27.9108 32.3153 28.231 32.4662 28.5949C32.4936 28.6548 32.5093 28.7207 32.5367 28.7806C32.5866 28.8904 32.669 28.9815 32.7722 29.0413C32.8754 29.101 32.9944 29.1265 33.1124 29.114C33.2259 29.1024 33.3342 29.0596 33.4258 28.9902C33.5961 28.8644 33.7684 28.7427 33.9408 28.6209C33.9878 28.6329 33.9545 28.6528 33.9408 28.6708C33.9361 28.6865 33.9302 28.7019 33.9231 28.7167C33.3496 29.8618 32.5494 30.8733 31.5732 31.6874C31.5106 31.7393 31.4479 31.7911 31.3774 31.847C31.3721 31.8501 31.3676 31.8542 31.364 31.8592C31.3604 31.8642 31.3579 31.8699 31.3566 31.8759C31.3553 31.8819 31.3552 31.8881 31.3565 31.8942C31.3577 31.9002 31.3602 31.9059 31.3637 31.9109C31.3701 31.9212 31.3792 31.9294 31.3899 31.9346C31.4006 31.9399 31.4126 31.9421 31.4244 31.9409C31.6413 31.9175 31.8556 31.8741 32.0648 31.8111H32.0883C32.0892 31.8193 32.0878 31.8275 32.0844 31.8349C32.0809 31.8423 32.0755 31.8486 32.0687 31.853C31.5116 32.4235 31.1966 33.1942 31.1914 33.9992C31.1914 34.0471 31.1483 34.131 31.2384 34.1369C31.2971 34.1369 31.2952 34.0651 31.3089 34.0211C31.3713 33.8319 31.472 33.6582 31.6046 33.5113C31.7372 33.3645 31.8987 33.2477 32.0785 33.1687C32.0883 33.1611 32.1004 33.1569 32.1127 33.1569C32.1251 33.1569 32.1371 33.1611 32.147 33.1687C32.1039 33.2365 32.0569 33.3024 32.0178 33.3683C31.8121 33.7091 31.7042 34.1019 31.7063 34.502C31.7084 34.9021 31.8204 35.2937 32.0295 35.6323C32.0369 35.6468 32.0485 35.6586 32.0628 35.6662C32.0843 35.6662 32.1157 35.6841 32.1274 35.6662C32.1431 35.6287 32.153 35.589 32.1568 35.5484C32.1936 35.1924 32.3016 34.848 32.474 34.5362C32.716 34.0593 33.0808 33.6586 33.5294 33.3773C33.9779 33.0959 34.4931 32.9444 35.0198 32.9391C35.2963 32.9407 35.5717 32.9755 35.8403 33.0429C36.5516 33.1831 37.2265 33.4727 37.822 33.8934C38.4722 34.3452 39.2514 34.5637 40.0368 34.5142C40.2973 34.4927 40.5445 34.3879 40.7431 34.2148C40.9418 34.0416 41.0818 33.809 41.1432 33.55C41.1588 33.4821 41.2196 33.3883 41.1569 33.3503C41.0942 33.3124 41.0257 33.4102 40.9611 33.4462C40.94 33.4588 40.9197 33.4728 40.9004 33.4881C40.6679 33.6586 40.3869 33.7464 40.1006 33.7381C39.8144 33.7298 39.5388 33.6258 39.3161 33.4422C39.2261 33.3603 39.1321 33.2785 39.0439 33.1946C38.6731 32.8341 38.2521 32.5314 37.7946 32.2962C37.3685 32.0907 36.9194 31.9391 36.4571 31.8451C36.4431 31.8354 36.4316 31.8224 36.4238 31.8071C36.5732 31.7606 36.7321 31.7558 36.884 31.7931C37.2893 31.8389 37.678 31.9826 38.0178 32.2124C38.0977 32.269 38.1822 32.3184 38.2704 32.3601C38.7286 32.5613 39.2369 32.6116 39.7244 32.5043C40.212 32.3969 40.6546 32.1372 40.9905 31.7612L41.0218 31.7233C41.0433 31.6953 41.0531 31.6634 41.0218 31.6354C40.9904 31.6075 40.9787 31.6235 40.9572 31.6354C40.8436 31.6993 40.732 31.7692 40.6145 31.8231C40.254 32.0035 39.8471 32.0635 39.4513 31.9948C38.7448 31.8526 38.0767 31.5563 37.493 31.1263C37.085 30.8254 36.6283 30.5997 36.1438 30.4596C35.697 30.3363 35.2358 30.2758 34.773 30.2799C34.7333 30.2689 34.6914 30.2689 34.6516 30.2799H34.6222H34.6555C34.7068 30.2686 34.7546 30.2446 34.7946 30.21C35.2808 30.0355 35.8066 30.0112 36.3063 30.1401C36.5526 30.1952 36.7878 30.2932 37.0015 30.4296C37.4893 30.7386 38.0164 30.9777 38.5681 31.1403C38.6059 31.1535 38.6458 31.1589 38.6856 31.1563C38.7267 31.1563 38.7306 31.1164 38.7111 31.0824C38.7017 31.0695 38.6912 31.0575 38.6797 31.0465C38.6562 30.9686 38.5857 30.9407 38.527 30.8968C38.5035 30.8788 38.4819 30.8608 38.4565 30.8448C38.4446 30.8395 38.4341 30.8315 38.4257 30.8215C38.4172 30.8115 38.411 30.7997 38.4075 30.787C38.4182 30.8055 38.4329 30.8212 38.4506 30.8329C38.4819 30.8528 38.5113 30.8808 38.5426 30.9028C38.6004 30.9482 38.6673 30.9803 38.7385 30.9966L38.9186 31.0704C39.3681 31.2571 39.8713 31.2571 40.3207 31.0704C40.5998 30.963 40.849 30.7877 41.0466 30.5599C41.2442 30.332 41.3842 30.0584 41.4546 29.7628C41.4643 29.7289 41.4546 29.677 41.5016 29.669L41.527 29.679C41.5372 29.6914 41.5464 29.7048 41.5544 29.7189C41.9988 30.6767 42.1581 31.7462 42.0127 32.7953C41.9443 33.3034 41.8127 33.8006 41.621 34.2747C41.2764 35.1411 40.9571 36.0195 40.681 36.9119C40.2008 38.4513 39.8394 40.0266 39.6001 41.6235C39.6001 41.6614 39.6001 41.7073 39.5276 41.6993C39.512 41.4538 39.4885 41.2062 39.4787 40.9567C39.4538 40.4242 39.4637 39.8907 39.508 39.3595C39.5452 38.9222 39.604 38.4871 39.6843 38.0559C39.7685 37.5987 39.8801 37.1515 40.0133 36.7063C40.0267 36.6591 40.0372 36.6111 40.0446 36.5626C40.0446 36.5526 40.0309 36.5326 40.0191 36.5286C40.0121 36.5251 40.0044 36.5233 39.9966 36.5233C39.9888 36.5233 39.9811 36.5251 39.9741 36.5286C39.9386 36.5731 39.9059 36.6197 39.8762 36.6684C39.4748 37.3547 38.929 37.9418 38.2783 38.3873C38.0764 38.5408 37.8559 38.6669 37.6223 38.7626C37.5772 38.7746 37.5263 38.7626 37.4872 38.8045V38.8245V38.8045C37.5067 38.7913 37.5236 38.7743 37.5367 38.7544C37.5498 38.7345 37.5589 38.7122 37.5635 38.6887C37.5792 38.6708 37.5909 38.6488 37.6086 38.6308C38.2698 37.9788 38.8256 37.2241 39.2555 36.3949C39.2738 36.3587 39.2883 36.3205 39.2985 36.2811C39.2992 36.2732 39.298 36.2652 39.2949 36.2578C39.2918 36.2505 39.287 36.2441 39.2809 36.2391C39.2747 36.2353 39.2676 36.2332 39.2603 36.2332C39.2531 36.2332 39.246 36.2353 39.2398 36.2391C39.1771 36.2771 39.1164 36.319 39.0577 36.3629C38.7057 36.6303 38.3245 36.8554 37.9219 37.0337C37.3434 37.2984 36.7261 37.4643 36.0948 37.5248C35.9886 37.5338 35.8819 37.5338 35.7756 37.5248C35.8086 37.5182 35.842 37.5135 35.8755 37.5109C35.9119 37.5067 35.9454 37.4889 35.9695 37.4609C36.0064 37.4437 36.0443 37.429 36.0831 37.417C37.1745 37.1041 38.1221 36.4075 38.758 35.4506C38.7972 35.3927 38.807 35.3268 38.7737 35.3228C38.7536 35.3217 38.7336 35.3263 38.7159 35.3362C38.6983 35.3461 38.6837 35.3608 38.6738 35.3787L38.6562 35.3967C38.3155 35.7697 37.863 36.0168 37.3697 36.0994C37.1054 36.1692 36.825 36.1328 36.5864 35.9976C36.4498 35.9178 36.3325 35.808 36.2428 35.6762C36.1531 35.5444 36.0933 35.3939 36.0678 35.2356C36.0423 35.0773 36.0517 34.9152 36.0953 34.7611C36.1389 34.607 36.2157 34.4647 36.32 34.3446C36.3611 34.2946 36.4121 34.2507 36.4552 34.2028C36.4708 34.1868 36.4943 34.1629 36.4767 34.1389C36.4618 34.1214 36.4406 34.1107 36.4179 34.109C36.3513 34.1154 36.2856 34.1294 36.2221 34.1509C36.0348 34.2173 35.8671 34.331 35.7345 34.4813C35.602 34.6317 35.5089 34.8138 35.4639 35.0106C35.419 35.2075 35.4236 35.4128 35.4774 35.6074C35.5312 35.8019 35.6325 35.9794 35.7717 36.1234C35.8266 36.1813 35.8853 36.2332 35.946 36.2931C35.6056 36.3559 35.2549 36.3227 34.9316 36.1972C35.0639 36.1504 35.1806 36.0667 35.2684 35.9557C35.243 35.8698 35.1686 35.8399 35.1118 35.7979C34.9233 35.6524 34.7615 35.474 34.634 35.2709C34.5321 35.1211 34.448 34.9596 34.3833 34.7897C34.35 34.6999 34.3168 34.6919 34.2365 34.7378C34.2221 34.7453 34.2083 34.754 34.1953 34.7638C32.7717 35.6111 31.6454 36.8934 30.976 38.4292C30.6274 39.216 30.4071 40.0556 30.3239 40.9147C30.2841 41.3688 30.2756 41.825 30.2984 42.2803C30.2984 42.4639 30.3337 42.6436 30.3552 42.8253C30.3639 42.8825 30.3757 42.9391 30.3905 42.995C30.3905 42.995 30.414 43.017 30.4257 43.017C30.4331 43.0157 30.4402 43.0127 30.4463 43.0082C30.4524 43.0037 30.4574 42.9978 30.461 42.991C30.4733 42.9351 30.4818 42.8784 30.4864 42.8213C30.528 42.3166 30.6463 41.8216 30.8369 41.3539C30.8487 41.322 30.8565 41.2701 30.9172 41.2941C30.9206 41.46 30.9356 41.6254 30.9623 41.7892C31.0563 42.4227 31.2843 43.0277 31.6306 43.5624C31.9769 44.0971 32.433 44.5486 32.9675 44.8856C33.0783 44.958 33.1927 45.0247 33.3102 45.0852C33.3239 45.0852 33.3533 45.0852 33.3729 45.0633C33.3925 45.0413 33.3729 45.0293 33.3729 45.0193C33.2906 44.9275 33.2045 44.8397 33.1242 44.7458C32.4632 43.9941 32.052 43.0488 31.9492 42.0447C31.8856 41.4084 31.9475 40.7656 32.1314 40.1541C32.1411 40.1182 32.1313 40.0443 32.2136 40.0523C32.2136 40.1761 32.2136 40.2999 32.2136 40.4236C32.2091 40.6647 32.2295 40.9056 32.2743 41.1423C32.4736 42.3839 33.122 43.5044 34.0916 44.2827C34.1394 44.3275 34.1927 44.3657 34.2502 44.3965C34.7599 44.6866 35.3603 44.7632 35.9245 44.6101C36.3799 44.477 36.7944 44.2275 37.1288 43.8854C37.4702 43.5402 37.7557 43.1419 37.9748 42.7055C38.0063 42.6877 38.03 42.6585 38.0413 42.6236C38.0531 42.6236 38.0413 42.6356 38.0413 42.6416C38.0237 42.6935 38.0668 42.7534 38.0237 42.8053C38.0256 42.8299 38.0256 42.8546 38.0237 42.8792C37.7901 43.8311 37.205 44.6543 36.3905 45.1771C35.9266 45.486 35.3968 45.677 34.8455 45.7341C34.8005 45.7328 34.7564 45.7474 34.7208 45.7754C34.6851 45.8034 34.66 45.8431 34.6497 45.8878C34.5879 46.0415 34.5528 46.205 34.5459 46.3709C34.5505 46.4112 34.5399 46.4518 34.5163 46.4844C34.4926 46.517 34.4577 46.5393 34.4186 46.5466C33.8274 46.7536 33.2553 47.0135 32.709 47.3232C32.5387 47.421 32.3722 47.5228 32.2038 47.6207C32.1842 47.6326 32.1627 47.6506 32.1725 47.6806C32.1749 47.6884 32.1791 47.6955 32.1846 47.7015C32.1901 47.7075 32.1968 47.7122 32.2043 47.7153C32.2118 47.7183 32.2198 47.7196 32.2278 47.7192C32.2359 47.7187 32.2437 47.7164 32.2508 47.7125C32.3272 47.6846 32.4035 47.6566 32.4779 47.6247C33.5607 47.1942 34.6958 46.9154 35.852 46.7961C36.5069 46.7243 37.1663 46.7063 37.824 46.7422C37.8768 46.7702 37.9375 46.7422 37.9904 46.7722C38.039 46.7806 38.088 46.7859 38.1373 46.7882C38.1099 46.7852 38.0824 46.7852 38.055 46.7882C38.0237 46.7895 37.9938 46.8022 37.9708 46.8241C37.1294 46.9158 36.3047 47.1275 35.5211 47.453C35.1285 47.6115 34.7498 47.8039 34.3892 48.0279C34.3574 48.0449 34.3295 48.0686 34.3075 48.0976C34.2856 48.1265 34.27 48.16 34.2619 48.1956C34.1646 48.5813 34.0991 48.9747 34.0661 49.3715C34.0504 49.5871 34.0485 49.8027 34.0465 50.0183C34.0465 50.1761 34.068 50.188 34.1953 50.1122C34.4264 49.9744 34.6516 49.8267 34.8886 49.6989C36.2555 48.955 37.7698 48.536 39.3181 48.4731C39.4025 48.4602 39.4883 48.4602 39.5727 48.4731C39.557 48.529 39.5178 48.5191 39.4904 48.529C39.2652 48.6009 39.04 48.6708 38.8168 48.7446C36.8081 49.4106 34.8785 50.3025 33.0635 51.4039C32.7619 51.5855 32.476 51.7772 32.1725 51.9668C32.1648 51.9697 32.158 51.9744 32.1525 51.9806C32.147 51.9867 32.143 51.9941 32.1409 52.0021C32.1388 52.0101 32.1386 52.0185 32.1404 52.0266C32.1421 52.0347 32.1457 52.0423 32.1509 52.0487C32.1583 52.0585 32.169 52.0652 32.181 52.0674C32.1929 52.0696 32.2052 52.0672 32.2155 52.0607C32.2612 52.0429 32.3057 52.0223 32.3487 51.9988C32.5949 51.8719 32.8502 51.7645 33.1124 51.6774C33.4314 51.5733 33.7592 51.4998 34.0916 51.4578C34.1836 51.4438 34.1914 51.4578 34.2208 51.5556C34.2932 51.8191 34.3696 52.0807 34.4401 52.3542C34.5106 52.6277 34.5439 52.5538 34.7123 52.456C35.4094 52.0307 36.1366 51.659 36.8879 51.344C37.2666 51.1742 37.6558 51.0302 38.0531 50.9127C38.1295 50.8908 38.2117 50.8848 38.2881 50.8608C38.2625 50.8676 38.2386 50.8796 38.2178 50.8961C38.1969 50.9126 38.1795 50.9332 38.1667 50.9567C38.1099 50.9886 38.055 51.0226 37.9963 51.0505C37.094 51.5084 36.2261 52.0336 35.3997 52.6217C34.3972 53.3321 33.4558 54.1282 32.5857 55.0014C32.5563 55.0313 32.525 55.0613 32.5622 55.1052C32.5994 55.1491 32.6229 55.1052 32.6483 55.1052C32.7149 55.0732 32.7776 55.0353 32.8441 54.9994C33.5523 54.5956 34.2965 54.2614 35.0668 54.0012C35.1921 53.9593 35.194 53.9573 35.2626 54.0631C35.4173 54.3067 35.5887 54.5389 35.7756 54.7578C35.9264 54.9335 35.9147 54.9575 36.0811 54.7578C36.5377 54.2382 37.0653 53.7884 37.6477 53.4222C38.509 52.8675 39.4751 52.5036 40.4833 52.3542C40.5961 52.3393 40.708 52.3173 40.8181 52.2883C41.7742 52.0219 42.6495 51.5153 43.3638 50.8149C43.602 50.5877 43.8053 50.3252 43.967 50.0363C44.5192 49.0716 44.6748 47.9233 44.3997 46.8421C44.293 46.3897 44.108 45.9604 43.8534 45.5743C43.8032 45.4941 43.7366 45.4258 43.6583 45.3741C43.5799 45.3225 43.4915 45.2886 43.3991 45.2749C43.2867 45.254 43.1709 45.2651 43.0642 45.3068C42.9715 45.339 42.8729 45.3491 42.7758 45.3362C42.6787 45.3234 42.5858 45.2881 42.5042 45.233C42.3443 45.1485 42.2083 45.0239 42.1089 44.8709C42.0095 44.7179 41.9501 44.5415 41.9363 44.3585C41.9363 44.3326 41.9363 44.3086 41.9363 44.2827C41.9249 44.193 41.8894 44.1082 41.8338 44.0378C41.7782 43.9673 41.7045 43.9139 41.621 43.8834C41.5336 43.8471 41.4379 43.8373 41.3452 43.855C41.2525 43.8727 41.1667 43.9172 41.0981 43.9832C40.937 44.1271 40.8384 44.3303 40.824 44.5482C40.824 44.6041 40.8377 44.662 40.8064 44.7139C40.775 44.7139 40.7613 44.6999 40.7457 44.684C40.3728 44.2523 40.1157 43.7296 39.9996 43.1667C39.9677 43.0016 39.9948 42.8304 40.076 42.684C40.1572 42.5375 40.287 42.4255 40.4421 42.3681C40.5028 42.3462 40.5655 42.3302 40.638 42.3142C40.8827 42.2503 41.1275 42.1964 41.3762 42.1485C42.0709 42.0118 42.7745 41.9277 43.4813 41.897C43.7736 41.881 44.0664 41.881 44.3586 41.897C44.7497 41.9262 45.1424 41.9262 45.5336 41.897C45.7603 41.879 45.9879 41.875 46.215 41.885C46.9631 41.9109 47.7085 41.991 48.4455 42.1245C48.7902 42.1824 49.1309 42.2624 49.4657 42.3641C49.6308 42.4153 49.7706 42.5285 49.8568 42.6809C49.943 42.8333 49.9691 43.0134 49.9298 43.1847C49.8172 43.7224 49.5765 44.2237 49.2288 44.644C49.2053 44.674 49.1837 44.7139 49.1289 44.7099C49.1152 44.6161 49.1074 44.5103 49.0878 44.4224C49.069 44.3157 49.027 44.2147 48.965 44.1266C48.903 44.0385 48.8226 43.9657 48.7294 43.9133C48.6618 43.875 48.5863 43.8535 48.509 43.8506C48.4317 43.8477 48.3548 43.8634 48.2846 43.8965C48.2144 43.9295 48.1528 43.979 48.1048 44.0409C48.0569 44.1029 48.024 44.1754 48.0088 44.2527C47.997 44.3266 47.9892 44.4025 47.9755 44.4743C47.9481 44.6478 47.8788 44.8116 47.7738 44.951C47.6689 45.0904 47.5316 45.201 47.3743 45.2729C47.2976 45.3201 47.2113 45.3488 47.122 45.3567C47.0328 45.3647 46.9429 45.3517 46.8593 45.3188C46.8206 45.3059 46.7805 45.2978 46.7399 45.2948C46.6153 45.2689 46.4859 45.2824 46.3691 45.3334C46.2522 45.3844 46.1534 45.4706 46.0858 45.5803C46.0369 45.6562 45.9859 45.7321 45.9428 45.8119C45.6476 46.3394 45.467 46.9254 45.4133 47.5302C45.3596 48.1351 45.434 48.7446 45.6315 49.3176C45.7745 49.7777 46.0084 50.203 46.3188 50.5674C46.7416 51.0524 47.2447 51.4578 47.8051 51.7652C48.3671 52.1019 48.991 52.3173 49.638 52.3981C51.2514 52.6975 52.7237 53.5286 53.8287 54.7638C53.8709 54.8245 53.9257 54.875 53.9893 54.9115C54.0352 54.893 54.0743 54.8602 54.1009 54.8177C54.3047 54.5805 54.4918 54.329 54.6609 54.0651C54.7236 53.9672 54.7275 53.9672 54.8372 54.0052C55.6078 54.2661 56.3526 54.6003 57.0618 55.0034C57.1401 55.0473 57.2184 55.0912 57.2987 55.1311C57.3038 55.1348 57.3095 55.1373 57.3156 55.1386C57.3217 55.1399 57.3279 55.1399 57.334 55.1386C57.3401 55.1372 57.3458 55.1347 57.3509 55.131C57.3559 55.1273 57.3602 55.1226 57.3633 55.1172C57.3712 55.1081 57.3755 55.0964 57.3755 55.0842C57.3755 55.0721 57.3712 55.0604 57.3633 55.0513C57.1891 54.8776 57.0167 54.6999 56.8385 54.5322C55.6763 53.4426 54.4012 52.4854 53.0356 51.6774C52.6205 51.4338 52.1936 51.2102 51.7706 50.9826C51.7197 50.9068 51.6355 50.8928 51.5611 50.8588C51.5297 50.842 51.4969 50.828 51.4631 50.8169C51.4555 50.8173 51.4479 50.8155 51.4413 50.8116C51.4347 50.8077 51.4293 50.8019 51.4259 50.795C51.4375 50.8043 51.4508 50.8111 51.4651 50.8149C51.5113 50.8278 51.5559 50.8459 51.5983 50.8688C51.6864 50.9227 51.7941 50.8988 51.8822 50.9327C52.1934 51.0261 52.4993 51.1368 52.7987 51.2641C53.6111 51.5939 54.3968 51.9885 55.1486 52.444C55.2249 52.4899 55.3033 52.5298 55.3933 52.5798C55.4227 52.5039 55.4521 52.446 55.4717 52.3801C55.5559 52.1106 55.6362 51.8411 55.6969 51.5676C55.7145 51.4857 55.736 51.4678 55.8144 51.4817C56.0317 51.5177 56.2491 51.5516 56.4606 51.6035C56.8402 51.6977 57.2076 51.837 57.5552 52.0188C57.6081 52.0579 57.6703 52.0821 57.7354 52.0886C57.7472 52.0886 57.7589 52.0726 57.7687 52.0607C57.7785 52.0487 57.7687 52.0447 57.7687 52.0367C57.7687 51.9988 57.7315 51.9848 57.7041 51.9688L57.332 51.7313C55.2545 50.4083 53.0161 49.368 50.674 48.6369L50.3352 48.527C50.4072 48.4949 50.4859 48.4812 50.5643 48.4871C51.1086 48.5085 51.6502 48.5753 52.1838 48.6868C53.3985 48.9305 54.5592 49.3987 55.6087 50.0683C55.6499 50.0942 55.691 50.1202 55.7341 50.1441C55.8202 50.194 55.8535 50.1761 55.8555 50.0783C55.866 49.6883 55.843 49.2982 55.7869 48.9123C55.7556 48.6827 55.7008 48.4572 55.6577 48.2296C55.6524 48.1869 55.6367 48.1463 55.6121 48.1115C55.5875 48.0766 55.5547 48.0486 55.5167 48.0299C55.3875 47.9621 55.2661 47.8782 55.1368 47.8103C54.1452 47.2884 53.0679 46.9568 51.9586 46.8321C51.927 46.8048 51.8863 46.7912 51.845 46.7941C51.8281 46.7921 51.811 46.7921 51.7941 46.7941C51.8274 46.7802 51.8665 46.7941 51.9018 46.7941C51.937 46.7941 52.0408 46.7822 52.0976 46.7562C52.6663 46.7309 53.2359 46.7416 53.8032 46.7882C54.6127 46.8592 55.4142 47.0042 56.1982 47.2214C56.6447 47.3458 57.0841 47.4958 57.5141 47.6706C57.5741 47.6941 57.6356 47.7134 57.6982 47.7285C57.6982 47.7285 57.7295 47.7145 57.7334 47.7025C57.7374 47.6905 57.7334 47.6666 57.7334 47.6606C57.7038 47.6327 57.6709 47.6086 57.6355 47.5887C57.3731 47.441 57.1107 47.2893 56.8522 47.1475C56.4112 46.9121 55.9529 46.7118 55.4815 46.5486C55.4498 46.5428 55.4214 46.5253 55.4016 46.4996C55.3817 46.4738 55.3718 46.4416 55.3738 46.4089C55.3664 46.2258 55.328 46.0455 55.2602 45.8758C55.2472 45.8378 55.2232 45.8047 55.1914 45.7808C55.1596 45.7569 55.1214 45.7434 55.082 45.7421C54.1733 45.6414 53.3348 45.1968 52.7321 44.4963C52.3159 44.0374 52.0272 43.4737 51.8959 42.8632C51.8528 42.8053 51.8959 42.7394 51.8842 42.6796C51.8842 42.6676 51.8646 42.6596 51.8842 42.6436C51.9 42.6875 51.9255 42.7271 51.9586 42.7594L52.0585 42.9311C52.2927 43.3492 52.5946 43.7238 52.9514 44.0391C53.2182 44.297 53.5412 44.4868 53.8938 44.593C54.2464 44.6992 54.6187 44.7187 54.9801 44.65C55.3196 44.5977 55.6382 44.4506 55.9005 44.2248C56.065 44.075 56.2295 43.9273 56.3783 43.7636C57.0291 43.0584 57.4628 42.1741 57.6257 41.2202C57.6851 40.8769 57.7113 40.5285 57.7041 40.18C57.7041 40.1401 57.6904 40.0902 57.7315 40.0563C57.7491 40.0702 57.7569 40.0742 57.7589 40.0802C58.0163 40.88 58.0595 41.7353 57.8842 42.5578C57.6959 43.4555 57.2557 44.2781 56.6172 44.9255C56.5827 44.9597 56.5506 44.9964 56.5213 45.0353C56.5213 45.0353 56.5213 45.0693 56.5213 45.0772C56.527 45.0827 56.5338 45.087 56.5412 45.0897C56.5486 45.0924 56.5565 45.0936 56.5644 45.0932C56.5952 45.0854 56.6249 45.0733 56.6525 45.0573C57.2689 44.7306 57.7986 44.2568 58.1965 43.6762C58.5944 43.0957 58.8487 42.4257 58.9378 41.7233C58.9495 41.6514 58.9573 41.5755 58.9652 41.5017C58.973 41.4278 58.9808 41.3639 58.9887 41.302C59.022 41.302 59.0298 41.302 59.0357 41.33C59.2141 41.7487 59.3309 42.1921 59.3823 42.6456C59.394 42.7694 59.4136 42.8912 59.4312 43.015C59.4312 43.0369 59.4489 43.0449 59.4665 43.0349C59.4807 43.0293 59.4934 43.0205 59.5037 43.009C59.5115 42.9949 59.5162 42.9792 59.5174 42.9631C59.5685 42.6272 59.5993 42.2886 59.6094 41.9489C59.6326 40.9435 59.4706 39.9426 59.1316 38.9982C58.5087 37.2362 57.2995 35.7527 55.7145 34.8057C55.6803 34.7845 55.645 34.7652 55.6087 34.7478C55.5715 34.7279 55.5441 34.7478 55.5265 34.7798C55.5109 34.8083 55.4985 34.8384 55.4893 34.8696C55.3339 35.2673 55.0728 35.613 54.7354 35.8678C54.7082 35.8854 54.6826 35.9054 54.659 35.9277C54.6512 35.9345 54.6449 35.9429 54.6406 35.9524C54.6362 35.9618 54.634 35.9722 54.634 35.9826C54.634 35.9931 54.6362 36.0034 54.6406 36.0129C54.6449 36.0223 54.6512 36.0308 54.659 36.0375C54.7487 36.1206 54.8513 36.188 54.9625 36.2371C54.6382 36.3587 54.2877 36.3884 53.9481 36.323L54.0578 36.2252C54.2127 36.094 54.3306 35.9232 54.3994 35.7302C54.4683 35.5373 54.4855 35.3291 54.4495 35.1272C54.4201 34.9034 54.3266 34.6934 54.1806 34.5237C54.0346 34.3539 53.8427 34.2318 53.629 34.1729C53.5722 34.1529 53.4782 34.083 53.4331 34.1729C53.3881 34.2627 53.4978 34.2727 53.5408 34.3186C53.7165 34.4949 53.8254 34.7288 53.8483 34.9791C53.8712 35.2293 53.8067 35.4797 53.6662 35.6861C53.5802 35.8332 53.4571 35.954 53.3096 36.0358C53.1622 36.1176 52.9958 36.1575 52.828 36.1513C52.6493 36.1475 52.4718 36.1214 52.2993 36.0735C51.9123 35.967 51.5609 35.7551 51.283 35.4606C51.2497 35.4246 51.2144 35.3906 51.1772 35.3587C51.1685 35.3503 51.1569 35.3456 51.1449 35.3456C51.1329 35.3456 51.1213 35.3503 51.1126 35.3587C51.1092 35.3648 51.1074 35.3717 51.1074 35.3787C51.1074 35.3857 51.1092 35.3926 51.1126 35.3987C51.1217 35.4214 51.1335 35.4429 51.1479 35.4625C51.6872 36.2807 52.4584 36.9117 53.3587 37.2713C53.5682 37.3571 53.7895 37.419 54.0049 37.4929C54.0507 37.5229 54.0993 37.5483 54.1499 37.5688C54.1784 37.5781 54.208 37.5835 54.238 37.5847H54.3026C54.3026 37.5847 54.3026 37.5967 54.3026 37.5987C54.2181 37.5907 54.1342 37.576 54.0519 37.5548C53.9733 37.5718 53.8916 37.5677 53.815 37.5428C53.7425 37.5428 53.6701 37.5428 53.5976 37.5288C52.7268 37.4007 51.8932 37.0827 51.1537 36.5965C51.0108 36.5007 50.8737 36.3969 50.7347 36.299C50.7087 36.2799 50.6795 36.2657 50.6485 36.2571C50.6424 36.256 50.6362 36.2564 50.6303 36.2583C50.6244 36.2602 50.6191 36.2636 50.6148 36.2682C50.6105 36.2728 50.6074 36.2783 50.6058 36.2844C50.6041 36.2905 50.604 36.2969 50.6054 36.303C50.6138 36.3343 50.6256 36.3644 50.6407 36.3929C50.8398 36.7819 51.0677 37.1549 51.3222 37.5089C51.6475 37.9641 52.0125 38.3884 52.4129 38.7766C52.4257 38.8224 52.4542 38.8621 52.4932 38.8884C52.4488 38.8619 52.4006 38.843 52.3502 38.8325C52.3346 38.8293 52.3194 38.8239 52.3052 38.8165C51.3607 38.3532 50.5693 37.6192 50.0277 36.7043C49.999 36.6551 49.9677 36.6071 49.9337 36.5606C49.9271 36.5571 49.9197 36.5552 49.9122 36.5552C49.9047 36.5552 49.8973 36.5571 49.8907 36.5606C49.8789 36.5606 49.8593 36.5825 49.8613 36.5925C49.8686 36.6498 49.8797 36.7065 49.8946 36.7622C50.1286 37.5384 50.2873 38.3361 50.3685 39.1439C50.4488 39.8525 50.4586 40.5675 50.3978 41.2781C50.3489 41.4178 50.4096 41.5696 50.345 41.7073C50.3332 41.7333 50.345 41.7612 50.3215 41.7832C50.3242 41.7687 50.3242 41.7538 50.3215 41.7393C50.3294 41.7201 50.3314 41.6989 50.3272 41.6786C50.323 41.6583 50.3128 41.6397 50.298 41.6254C50.2529 41.3639 50.204 41.1044 50.1589 40.8429C49.9001 39.3755 49.5382 37.9291 49.076 36.5146C48.8332 35.76 48.5552 35.0174 48.2614 34.2807C47.8937 33.3997 47.7515 32.438 47.8482 31.4857C47.9103 30.875 48.0759 30.2798 48.3378 29.7269C48.3378 29.7089 48.3495 29.6789 48.3965 29.6969C48.422 29.7728 48.4494 29.8586 48.4768 29.9425C48.6023 30.3175 48.8397 30.6431 49.1557 30.8736C49.4717 31.1042 49.8506 31.2281 50.2392 31.2282C50.5069 31.2215 50.7716 31.1695 51.0225 31.0744C51.164 31.051 51.2941 30.9809 51.3926 30.8748C51.4142 30.8528 51.4338 30.8309 51.4573 30.8109L51.5141 30.755L51.563 30.7051V30.6871V30.7031C51.5523 30.7107 51.5425 30.7194 51.5336 30.7291L51.4827 30.781C51.4651 30.8029 51.3927 30.8968 51.3711 30.9187C51.3182 31.0245 51.2301 31.0285 51.1537 31.1843C51.2017 31.1837 51.2495 31.179 51.2967 31.1703C51.8639 31.004 52.4061 30.7595 52.9083 30.4436C52.9886 30.3876 53.0738 30.3395 53.1629 30.2998C53.7829 30.039 54.475 30.0177 55.1094 30.24C55.1218 30.2502 55.1319 30.2632 55.1388 30.2779C55.1681 30.2639 55.1583 30.2779 55.127 30.2958C54.9449 30.3418 54.7589 30.2839 54.5768 30.3278C54.3946 30.3717 54.2693 30.3597 54.1185 30.3917C53.5095 30.503 52.9327 30.752 52.4305 31.1204C51.9013 31.5152 51.3032 31.8039 50.6681 31.9708C50.458 32.0341 50.2383 32.0578 50.0199 32.0407C49.6877 32.0107 49.3657 31.9078 49.076 31.7393C49.0192 31.7053 48.9625 31.6774 48.9037 31.6494C48.9037 31.6494 48.8783 31.6614 48.8665 31.6714C48.8637 31.6791 48.8637 31.6876 48.8665 31.6953C48.878 31.7245 48.8931 31.752 48.9115 31.7772C49.1393 32.037 49.4199 32.2431 49.7337 32.381C50.0476 32.5189 50.3872 32.5854 50.7288 32.5757C51.1536 32.5811 51.5701 32.4551 51.9233 32.2144C52.2568 31.9912 52.6386 31.8541 53.0356 31.8151C53.1879 31.7818 53.3458 31.7866 53.4958 31.8291C53.4898 31.8455 53.4779 31.8591 53.4625 31.867L53.2256 31.9229C52.4197 32.1016 51.6725 32.4886 51.0558 33.0469C50.9422 33.1527 50.8287 33.2585 50.7112 33.3623C50.5905 33.4859 50.4493 33.5866 50.2941 33.6598C50.0751 33.7526 49.836 33.7845 49.601 33.7522C49.366 33.72 49.1436 33.6247 48.9566 33.4761C48.9115 33.4422 48.8704 33.4003 48.8234 33.3683C48.8133 33.3624 48.8018 33.3592 48.7901 33.3592C48.7784 33.3592 48.767 33.3624 48.7568 33.3683C48.7486 33.3765 48.7425 33.3866 48.7387 33.3977C48.735 33.4088 48.7338 33.4206 48.7353 33.4322C48.7667 33.7183 48.8936 33.9846 49.0947 34.1867C49.2957 34.3887 49.5588 34.5142 49.8398 34.5422C49.9768 34.5422 50.1159 34.5422 50.2529 34.5422C50.9471 34.511 51.6173 34.2745 52.1818 33.8614C52.5372 33.6095 52.9246 33.408 53.3333 33.2625C53.6411 33.1591 53.9559 33.0783 54.2752 33.0209C54.9587 32.8711 55.6725 32.9849 56.2785 33.3404C56.6774 33.5617 57.0194 33.876 57.2767 34.2576C57.5339 34.6392 57.6992 35.0774 57.7589 35.5364C57.7639 35.5857 57.7731 35.6345 57.7863 35.6822C57.7892 35.6876 57.7933 35.6923 57.7983 35.696C57.8032 35.6997 57.8088 35.7022 57.8148 35.7033C57.8208 35.7045 57.827 35.7042 57.8329 35.7027C57.8388 35.7011 57.8443 35.6981 57.849 35.6941C57.8727 35.6733 57.8926 35.6482 57.9077 35.6203C58.1211 35.2639 58.2267 34.8513 58.2113 34.4341C58.196 34.0169 58.0605 33.6136 57.8216 33.2745C57.8039 33.2465 57.7589 33.2226 57.7922 33.1667C57.9749 33.2383 58.1406 33.3487 58.2783 33.4905C58.4161 33.6322 58.5227 33.8022 58.5912 33.9892C58.6068 34.0271 58.6166 34.0671 58.6303 34.107C58.644 34.1469 58.6577 34.1629 58.7008 34.1529C58.7439 34.1429 58.7321 34.117 58.7321 34.095C58.7342 33.871 58.7126 33.6475 58.6675 33.4282C58.5448 32.8415 58.2625 32.3018 57.8529 31.871C57.8529 31.851 57.8235 31.8271 57.8666 31.8231C58.028 31.8787 58.1947 31.9168 58.364 31.9369C58.4267 31.9369 58.5109 31.9928 58.5442 31.9369C58.5775 31.881 58.4834 31.8171 58.4325 31.7752C57.8041 31.2608 57.2451 30.664 56.77 30.0004C56.4929 29.6246 56.2504 29.2236 56.0454 28.8025C56.0239 28.7287 56.0552 28.7147 56.1159 28.7407C56.2648 28.8425 56.4097 28.9403 56.5605 29.0461C56.6297 29.094 56.7084 29.1258 56.791 29.1392C56.8736 29.1526 56.9581 29.1473 57.0384 29.1237C57.1188 29.1 57.1931 29.0586 57.256 29.0025C57.3189 28.9463 57.3689 28.8766 57.4025 28.7985C57.4221 28.7526 57.4377 28.7067 57.4573 28.6608C57.5834 28.3405 57.7759 28.0518 58.0216 27.8144C58.2674 27.577 58.5605 27.3965 58.881 27.2853C59.0148 27.2265 59.1583 27.1939 59.304 27.1894C59.304 27.2653 59.253 27.2952 59.2178 27.3332C59.0423 27.5291 58.9089 27.7604 58.8261 28.012C58.8105 28.0559 58.7694 28.1058 58.8261 28.1437C58.8829 28.1817 58.9025 28.1437 58.9358 28.1118L58.9574 28.0978C59.5156 27.7219 60.1557 27.4909 60.8216 27.425C61.0167 27.4029 61.2133 27.3989 61.4091 27.413L61.1662 27.5468C61.0135 27.625 60.8714 27.7229 60.7433 27.8383C60.7204 27.8605 60.7 27.8853 60.6826 27.9121C60.6769 27.9262 60.6769 27.942 60.6826 27.9561C60.6912 27.9693 60.7046 27.9785 60.7198 27.982C60.736 27.985 60.7525 27.985 60.7687 27.982C61.0416 27.9314 61.3223 27.9472 61.588 28.028C61.8538 28.1088 62.0971 28.2524 62.2981 28.4472C62.3236 28.537 62.2766 28.533 62.2178 28.5111C62.0968 28.498 61.9744 28.5123 61.8595 28.553C61.7733 28.5787 61.696 28.6285 61.6362 28.6967C61.6304 28.7026 61.626 28.7098 61.6235 28.7177C61.621 28.7256 61.6203 28.7341 61.6217 28.7423C61.623 28.7505 61.6263 28.7583 61.6312 28.7649C61.6361 28.7716 61.6426 28.777 61.6499 28.7806C61.6852 28.7985 61.7243 28.8085 61.7615 28.8245C61.9595 28.8993 62.1402 29.0151 62.2922 29.1646C62.4442 29.314 62.5642 29.4939 62.6447 29.6929C62.6702 29.7588 62.633 29.7648 62.584 29.7588C62.451 29.6634 62.2941 29.6087 62.1317 29.6011C62.1003 29.6011 62.0651 29.6011 62.0474 29.629C62.0298 29.657 62.0475 29.6929 62.067 29.7189C62.1419 29.8051 62.2125 29.895 62.2785 29.9884C62.5167 30.3559 62.6103 30.8014 62.5409 31.2362C62.527 31.2544 62.5194 31.2769 62.5194 31.3C62.5204 31.2888 62.5181 31.2776 62.5129 31.2676C62.5077 31.2577 62.4997 31.2495 62.49 31.2441C62.4377 31.0614 62.3682 30.8842 62.2824 30.7151C62.2366 30.6274 62.1763 30.5484 62.1042 30.4815C62.0886 30.4675 62.0749 30.4655 62.0612 30.4815C62.0475 30.4975 62.0318 30.5075 62.0318 30.5195C62.0318 30.5694 62.0318 30.6173 62.0474 30.6672C62.0971 31.1984 62.0037 31.7333 61.7772 32.2144C61.7576 32.2583 61.7439 32.3062 61.6832 32.3122C61.6832 32.2463 61.7008 32.1805 61.7048 32.1126C61.7165 31.955 61.7027 31.7964 61.6636 31.6434C61.6617 31.6361 61.6582 31.6293 61.6535 31.6235C61.6488 31.6176 61.6429 31.6129 61.6362 31.6095C61.6243 31.6064 61.6116 31.6083 61.601 31.6146C61.5904 31.621 61.5827 31.6313 61.5794 31.6434C61.5663 31.682 61.5552 31.7214 61.5461 31.7612C61.4805 32.0617 61.3653 32.3486 61.2054 32.6097C60.8709 33.1653 60.3604 33.5879 59.7583 33.8075C59.7074 33.8255 59.6427 33.8215 59.6075 33.8774C59.6075 33.8774 59.6075 33.8934 59.6075 33.8994C59.6075 33.9053 59.6231 33.9353 59.6349 33.9373C59.6661 33.9413 59.6977 33.9413 59.7289 33.9373C60.857 33.7653 61.9394 33.3626 62.911 32.7534C62.9732 32.7141 63.0202 32.6542 63.0442 32.5837C63.337 31.8632 63.5148 31.0996 63.571 30.3218C63.6333 29.5012 63.5558 28.6758 63.3419 27.8822C63.323 27.8016 63.2926 27.7242 63.2518 27.6526C63.0041 27.1969 62.6509 26.8098 62.2229 26.5252C61.7949 26.2405 61.3051 26.067 60.7961 26.0195C60.5056 25.9749 60.2092 25.9905 59.9247 26.0655C59.4711 26.1973 59.0062 26.2849 58.5363 26.327C58.0092 26.3736 57.4788 26.3622 56.9541 26.2931C56.9003 26.284 56.8472 26.2706 56.7954 26.2531C56.7954 26.1952 56.8346 26.1753 56.864 26.1513C57.1075 25.9453 57.3698 25.7634 57.6473 25.6083C58.323 25.2246 59.0676 24.9836 59.8366 24.8996C60.3546 24.8389 60.8785 24.8564 61.3914 24.9515C61.8426 25.0061 62.2794 25.1484 62.678 25.3707C62.678 25.3707 62.7054 25.3607 62.7191 25.3528C62.7328 25.3448 62.7191 25.3388 62.7191 25.3328C62.7079 25.2848 62.6835 25.2412 62.6486 25.207C62.4279 24.9207 62.1842 24.6536 61.9202 24.4084C61.4099 23.9317 60.8247 23.5457 60.1891 23.2665C60.1374 23.2433 60.0797 23.2377 60.0246 23.2505C59.2821 23.4016 58.5732 23.6906 57.9332 24.103C57.706 24.2487 57.4965 24.4184 57.2791 24.5781C57.2438 24.5859 57.2125 24.6065 57.191 24.636C57.191 24.648 57.191 24.654 57.191 24.654C57.1872 24.6496 57.185 24.6439 57.185 24.638C57.185 24.6321 57.1872 24.6265 57.191 24.6221C57.2086 24.5921 57.191 24.5522 57.2165 24.5222C57.2199 24.5057 57.2252 24.4897 57.2321 24.4743C58.2959 22.4041 59.4794 20.4001 60.7765 18.4731C61.7439 17.0357 62.7759 15.6482 63.8588 14.3026C63.8999 14.2507 63.9411 14.1988 63.9783 14.1449C64.0155 14.091 64.037 14.0411 63.9979 14.0311ZM36.5824 27.3791C36.4442 27.382 36.3068 27.357 36.1781 27.3055C36.0493 27.254 35.9319 27.177 35.8325 27.079C35.7331 26.9811 35.6537 26.864 35.5989 26.7345C35.5441 26.6051 35.515 26.466 35.5132 26.325C35.5114 26.1838 35.537 26.0436 35.5886 25.9126C35.6402 25.7815 35.7167 25.6622 35.8137 25.5614C35.9107 25.4606 36.0264 25.3804 36.1539 25.3254C36.2815 25.2704 36.4185 25.2417 36.557 25.2409C36.8319 25.2435 37.0949 25.3553 37.2902 25.5525C37.4855 25.7497 37.5976 26.0169 37.6027 26.2971C37.6049 26.5768 37.4999 26.8464 37.3101 27.0485C37.1203 27.2506 36.8606 27.3692 36.5864 27.3791H36.5824ZM38.3899 30.7051L38.4016 30.6911L38.3899 30.7051ZM38.4193 30.7191V30.7291V30.7191ZM38.5583 50.799C38.5192 50.8095 38.4806 50.8221 38.4428 50.8369L38.3821 50.8569H38.4056C38.4545 50.8389 38.5054 50.8189 38.5563 50.8049C38.5766 50.7901 38.5991 50.7786 38.6229 50.771C38.5999 50.7816 38.5764 50.7909 38.5524 50.799H38.5583ZM38.6288 50.759V50.743V50.755V50.759ZM49.1074 24.7798C49.3823 24.7803 49.6459 24.8916 49.8407 25.0894C50.0355 25.2873 50.1457 25.5556 50.1472 25.8359C50.148 25.977 50.1213 26.1168 50.0688 26.2474C50.0162 26.3779 49.9388 26.4965 49.841 26.5964C49.7433 26.6963 49.6271 26.7754 49.4991 26.8292C49.3712 26.883 49.234 26.9105 49.0956 26.9099C48.9588 26.9105 48.8231 26.8833 48.6966 26.8301C48.5701 26.7769 48.4552 26.6987 48.3585 26.5999C48.2618 26.5012 48.1853 26.3839 48.1333 26.2548C48.0814 26.1257 48.055 25.9874 48.0558 25.8479C48.0531 25.707 48.0784 25.5671 48.1299 25.4364C48.1815 25.3057 48.2584 25.187 48.356 25.0873C48.4536 24.9876 48.57 24.909 48.6981 24.8561C48.8261 24.8033 48.9633 24.7773 49.1015 24.7798H49.1074ZM44.9696 24.3006C45.1061 24.3006 45.2413 24.3282 45.3674 24.3816C45.4935 24.4351 45.6079 24.5134 45.7042 24.6121C45.8004 24.7108 45.8766 24.8279 45.9284 24.9567C45.9801 25.0856 46.0063 25.2235 46.0055 25.3627C46.0074 25.5039 45.9815 25.6439 45.9294 25.7747C45.8773 25.9055 45.8001 26.0244 45.7023 26.1243C45.6045 26.2242 45.4881 26.3031 45.3599 26.3564C45.2317 26.4098 45.0943 26.4364 44.9559 26.4348C44.8176 26.4335 44.6808 26.4043 44.5536 26.349C44.4263 26.2936 44.3111 26.2132 44.2145 26.1122C44.1178 26.0113 44.0417 25.8919 43.9905 25.7609C43.9393 25.6298 43.914 25.4898 43.9161 25.3488C43.9217 25.0691 44.0345 24.8029 44.2303 24.607C44.4261 24.4111 44.6894 24.3011 44.9637 24.3006H44.9696ZM40.9239 24.7738C41.1982 24.7805 41.4592 24.8957 41.6518 25.095C41.8444 25.2943 41.9534 25.5621 41.9559 25.8419C41.9574 26.1234 41.8495 26.3941 41.6557 26.5946C41.4619 26.7952 41.198 26.9093 40.9219 26.9119C40.7832 26.913 40.6458 26.886 40.5174 26.8326C40.389 26.7792 40.2723 26.7003 40.174 26.6007C40.0756 26.501 39.9976 26.3824 39.9445 26.2518C39.8914 26.1213 39.8642 25.9812 39.8645 25.8399C39.8665 25.5564 39.9784 25.2852 40.1758 25.0855C40.3731 24.8858 40.6399 24.7738 40.918 24.7738H40.9239ZM50.3372 27.6666C49.8749 27.6971 49.4203 27.8015 48.9899 27.976C48.0072 28.3836 47.219 29.1656 46.7927 30.1561L46.7203 30.3118C46.593 30.2499 46.6596 30.1481 46.6694 30.0583C46.7158 29.6966 46.8287 29.3471 47.0023 29.0281C47.0355 28.9622 47.0688 28.8964 47.0982 28.8285C47.0987 28.8208 47.0976 28.813 47.0949 28.8058C47.0922 28.7986 47.088 28.792 47.0826 28.7866C47.0826 28.7866 47.0493 28.7686 47.0395 28.7746C47.0036 28.7928 46.9689 28.8135 46.9357 28.8365C45.9816 29.4782 45.3091 30.4723 45.0597 31.6095C45.0597 31.6554 45.0597 31.7093 44.9872 31.7393L44.9226 31.4877C44.6547 30.3987 43.9957 29.4519 43.076 28.8345C43.042 28.8122 43.0067 28.7921 42.9702 28.7746C42.957 28.7691 42.9423 28.7691 42.9291 28.7746C42.9193 28.7846 42.9095 28.8065 42.9154 28.8165C42.9409 28.8764 42.9702 28.9363 42.9996 28.9942C43.1907 29.3507 43.3136 29.7409 43.3619 30.1441C43.3619 30.22 43.4363 30.3118 43.307 30.3438C43.1709 29.989 42.9906 29.6535 42.7705 29.3456C42.4487 28.9007 42.0421 28.5268 41.575 28.2462C41.1079 27.9655 40.59 27.784 40.0524 27.7125C39.931 27.6945 39.8116 27.6826 39.6902 27.6666C39.7137 27.5328 39.841 27.6426 39.886 27.5767C40.4242 27.4883 40.9717 27.4755 41.5133 27.5388C42.2576 27.6101 42.9853 27.8057 43.6674 28.1178C44.0627 28.2922 44.4393 28.5076 44.7914 28.7606C44.8364 28.7946 44.8834 28.8265 44.9304 28.8584C44.9502 28.8737 44.9742 28.8819 44.999 28.8819C45.0237 28.8819 45.0478 28.8737 45.0675 28.8584L45.1478 28.8005C46.0234 28.1761 47.0287 27.7662 48.0852 27.6027C48.8086 27.4869 49.5452 27.4869 50.2686 27.6027C50.2919 27.609 50.3143 27.6184 50.3352 27.6306C50.3509 27.6306 50.3548 27.6526 50.3509 27.6626C50.3469 27.6726 50.3352 27.6666 50.3313 27.6666H50.3372ZM53.4703 27.3771C53.3305 27.3814 53.1913 27.3571 53.0609 27.3057C52.9304 27.2544 52.8113 27.1769 52.7106 27.078C52.6099 26.9791 52.5296 26.8606 52.4745 26.7296C52.4193 26.5985 52.3904 26.4576 52.3894 26.315C52.3899 26.0303 52.5003 25.7571 52.6967 25.5547C52.8931 25.3522 53.1597 25.2366 53.439 25.233C53.7144 25.2366 53.9775 25.3496 54.1724 25.5479C54.3674 25.7463 54.4787 26.0143 54.4827 26.2951C54.4864 26.576 54.3815 26.847 54.1905 27.0496C53.9995 27.2521 53.738 27.3698 53.4625 27.3771H53.4703ZM62.5664 31.2721C62.5674 31.2938 62.5714 31.3153 62.5781 31.336C62.5665 31.3167 62.5598 31.2947 62.5586 31.2721H62.5664Z" fill="#FAECB5"/>
</g>
<defs>
<clipPath id="clip0_527_329">
<rect width="62" height="70" fill="white" transform="translate(14 8)"/>
</clipPath>
</defs>
</svg>
