<svg width="90" height="90" viewBox="0 0 90 90" fill="none" xmlns="http://www.w3.org/2000/svg">
<circle cx="45" cy="45" r="45" fill="#282E3E"/>
<g clip-path="url(#clip0_506_372)">
<path d="M56.9989 20.0568C55.1233 18.1463 51.7472 17.0001 46.8756 17.0001C43.5907 16.9656 40.3149 17.3576 37.1273 18.1667C34.5014 18.9309 32.6258 19.313 31.5004 20.0771C31.0032 20.5727 30.6129 21.1685 30.3546 21.8264C30.0962 22.4843 29.9754 23.1899 29.9999 23.898C29.9999 26.1905 30.7502 28.483 31.5004 30.7705C35.5822 29.2388 39.8998 28.4625 44.2497 28.4779C45.4181 28.4614 46.5742 28.7231 47.6258 29.2421C48.3772 30.073 48.7809 31.1696 48.7512 32.2988V39.5533C46.6186 38.6042 44.3255 38.0852 41.9989 38.025C38.2527 38.025 35.6268 39.5533 33.3761 41.8408C31.1253 44.5171 29.9999 49.1021 29.9999 55.5959C29.9999 60.1809 30.7502 63.6146 31.8756 65.9071C33.3761 68.5817 34.8766 70.11 37.1273 70.8742C39.0029 71.6384 41.6288 72.0205 44.6298 72.0205C51.0069 72.0205 55.8786 70.8742 59.6348 68.5817C60.0099 63.2325 60.0099 52.1571 60.0099 34.9581V29.991C59.9999 25.406 59.2497 21.9672 56.9989 20.0568ZM48.3761 61.3221C47.6258 62.0862 46.8756 62.4683 45.3751 62.4683C44.8468 62.4578 44.3295 62.3124 43.8707 62.0454C43.4119 61.7783 43.0263 61.3983 42.7492 60.94C42.2076 59.081 41.9544 57.1472 41.9989 55.2087C41.9989 52.152 42.3741 49.8612 43.1243 48.3362C43.4994 47.19 44.6248 46.8079 45.7502 46.8079C46.8756 46.8079 48.0009 46.8079 48.7512 47.5721C48.7512 55.1934 48.4011 59.7784 48.4011 61.3068L48.3761 61.3221Z" fill="#00BD58"/>
</g>
<defs>
<clipPath id="clip0_506_372">
<rect width="30" height="55" fill="white" transform="translate(30 17)"/>
</clipPath>
</defs>
</svg>
