<svg width="90" height="90" viewBox="0 0 90 90" fill="none" xmlns="http://www.w3.org/2000/svg">
<circle cx="45" cy="45" r="45" fill="url(#paint0_linear_252_806)"/>
<path d="M30.7693 38.9315C30.5891 39.7989 30.4983 40.6825 30.4983 41.5684V42.6328C30.1026 42.633 29.7163 42.7536 29.3908 42.9788C29.0654 43.204 28.8163 43.5229 28.6767 43.8932L27.1816 43.2691C26.9556 43.1749 26.7504 43.037 26.5778 42.8634C26.4051 42.6899 26.2683 42.4839 26.1753 42.2575C26.0823 42.031 26.0348 41.7884 26.0357 41.5435C26.0365 41.2987 26.0856 41.0564 26.1801 40.8306L26.8163 39.3041C27.0067 38.8476 27.3705 38.4855 27.8277 38.2972C28.285 38.109 28.7983 38.11 29.2548 38.3001L30.7693 38.9315Z" fill="white"/>
<path d="M45.9157 32.0417V29.25H44.0263C41.0899 29.2525 38.2433 30.263 35.9623 32.1123C33.6814 33.9617 32.1045 36.538 31.495 39.4105C31.3145 40.2795 31.2237 41.1647 31.2241 42.0522V43.1167C30.8283 43.1168 30.442 43.2375 30.1166 43.4626C29.7911 43.6878 29.542 44.0068 29.4024 44.3771C29.3185 44.5964 29.2758 44.8293 29.2766 45.0641V54.8859C29.2766 55.3992 29.4805 55.8915 29.8435 56.2544C30.2064 56.6174 30.6987 56.8213 31.212 56.8213H35.6608C36.1741 56.8213 36.6664 56.6174 37.0293 56.2544C37.3922 55.8915 37.5961 55.3992 37.5961 54.8859V53.9183H45.9157V42.3063H33.8029C33.8593 41.697 33.9539 41.0918 34.0859 40.4943C36.1035 31.4297 45.9157 32.0417 45.9157 32.0417ZM34.5286 45.831H38.2251C38.7814 45.8497 39.3087 46.0838 39.6957 46.484C40.0826 46.8841 40.2989 47.419 40.2989 47.9756C40.2989 48.5322 40.0826 49.0671 39.6957 49.4672C39.3087 49.8674 38.7814 50.1015 38.2251 50.1202H34.5286C34.2409 50.1298 33.9543 50.0815 33.6856 49.9781C33.417 49.8747 33.1719 49.7182 32.965 49.5182C32.758 49.3181 32.5935 49.0784 32.4811 48.8134C32.3687 48.5483 32.3108 48.2634 32.3108 47.9756C32.3108 47.6877 32.3687 47.4028 32.4811 47.1378C32.5935 46.8728 32.758 46.6331 32.965 46.433C33.1719 46.2329 33.417 46.0765 33.6856 45.9731C33.9543 45.8696 34.2409 45.8213 34.5286 45.831Z" fill="white"/>
<path d="M61.062 38.9315C61.2422 39.7989 61.333 40.6825 61.333 41.5684V42.6328C61.7287 42.633 62.115 42.7536 62.4404 42.9788C62.7659 43.204 63.015 43.5229 63.1546 43.8932L64.6496 43.2691C64.8756 43.1749 65.0808 43.037 65.2535 42.8634C65.4262 42.6899 65.5629 42.4839 65.6559 42.2575C65.749 42.031 65.7964 41.7884 65.7956 41.5435C65.7948 41.2987 65.7457 41.0564 65.6512 40.8306L65.0149 39.3041C64.8246 38.8476 64.4608 38.4855 64.0035 38.2972C63.5463 38.109 63.0329 38.11 62.5764 38.3001L61.062 38.9315Z" fill="white"/>
<path d="M57.7455 40.4967C57.8776 41.0942 57.9721 41.6994 58.0286 42.3087H45.9158V53.9207H54.2353V54.8884C54.2353 55.4016 54.4392 55.8939 54.8021 56.2568C55.1651 56.6198 55.6573 56.8237 56.1706 56.8237H60.6195C61.1328 56.8237 61.625 56.6198 61.988 56.2568C62.3509 55.8939 62.5548 55.4016 62.5548 54.8884V45.0665C62.5556 44.8317 62.513 44.5988 62.429 44.3795C62.2894 44.0092 62.0403 43.6902 61.7149 43.4651C61.3894 43.2399 61.0031 43.1192 60.6074 43.1191V42.0547C60.6074 41.1687 60.5166 40.2852 60.3364 39.4178C59.727 36.5452 58.15 33.969 55.8691 32.1196C53.5882 30.2702 50.7416 29.2598 47.8051 29.2572H45.9158V32.0417C45.9158 32.0417 55.7279 31.4297 57.7455 40.4967ZM59.4389 47.9719C59.4389 48.5406 59.2132 49.0861 58.8113 49.4884C58.4094 49.8908 57.8642 50.1171 57.2955 50.1178H53.6087C53.321 50.1274 53.0343 50.0791 52.7657 49.9757C52.4971 49.8722 52.252 49.7158 52.0451 49.5157C51.8381 49.3156 51.6736 49.0759 51.5612 48.8109C51.4488 48.5459 51.3909 48.261 51.3909 47.9732C51.3909 47.6853 51.4488 47.4004 51.5612 47.1354C51.6736 46.8704 51.8381 46.6307 52.0451 46.4306C52.252 46.2305 52.4971 46.0741 52.7657 45.9706C53.0343 45.8672 53.321 45.8189 53.6087 45.8286H57.3052C57.8737 45.8286 58.4189 46.0544 58.8208 46.4563C59.2228 46.8583 59.4486 47.4035 59.4486 47.9719H59.4389Z" fill="white"/>
<path opacity="0.15" d="M44.9987 74.7304C39.1183 74.7304 33.37 72.9867 28.4807 69.7197C23.5914 66.4528 19.7806 61.8093 17.5303 56.3766C15.28 50.9438 14.6912 44.9658 15.8384 39.1984C16.9856 33.4311 19.8172 28.1334 23.9753 23.9754C28.1333 19.8173 33.431 16.9857 39.1984 15.8385C44.9657 14.6913 50.9438 15.2801 56.3765 17.5304C61.8092 19.7807 66.4527 23.5915 69.7196 28.4808C72.9866 33.3701 74.7303 39.1184 74.7303 44.9988C74.7239 52.8821 71.5894 60.4408 66.015 66.0151C60.4407 71.5895 52.882 74.724 44.9987 74.7304V74.7304ZM44.9987 17.6864C39.5968 17.6864 34.3162 19.2882 29.8247 22.2893C25.3332 25.2905 21.8325 29.5561 19.7653 34.5468C17.6981 39.5375 17.1572 45.0291 18.2111 50.3272C19.2649 55.6253 21.8662 60.4919 25.6859 64.3116C29.5056 68.1313 34.3722 70.7326 39.6703 71.7864C44.9684 72.8403 50.46 72.2994 55.4507 70.2322C60.4414 68.165 64.707 64.6643 67.7082 60.1728C70.7093 55.6813 72.3111 50.4007 72.3111 44.9988C72.3073 37.7554 69.4288 30.8096 64.3078 25.6868C59.1869 20.564 52.2421 17.6831 44.9987 17.6767V17.6864Z" fill="white"/>
<path opacity="0.15" d="M44.9988 82C24.5979 82 8 65.4021 8 44.9988C8 24.5955 24.5979 8 44.9988 8C65.3997 8 82.0121 24.5979 82.0121 44.9988C82.0121 65.3997 65.4021 82 44.9988 82ZM44.9988 10.4192C25.9309 10.4192 10.4192 25.9309 10.4192 44.9988C10.4192 64.0667 25.9309 79.5929 44.9988 79.5929C64.0667 79.5929 79.5929 64.0788 79.5929 45.0109C79.5929 25.943 64.0667 10.4192 44.9988 10.4192Z" fill="white"/>
<defs>
<linearGradient id="paint0_linear_252_806" x1="14" y1="12" x2="45" y2="90" gradientUnits="userSpaceOnUse">
<stop stop-color="#4E51D6"/>
<stop offset="1" stop-color="#4178CB"/>
</linearGradient>
</defs>
</svg>
