<svg width="90" height="90" fill="none" xmlns="http://www.w3.org/2000/svg"><circle cx="45" cy="45" r="45" fill="#F5F5F5"/><path d="M79.826 48.983H77.27c-.31.049-.366-.133-.366-.345V31.729a.73.73 0 0 1 .02-.182c.044-.179 0-.229-.187-.229H70.045c-1.265 1.99-9.978 15.657-12.146 18.982a.079.079 0 0 0 .014.018c.101.11.17.246.276.346.196.21.377.434.543.669.18.22.337.468.527.686.083.095.16.199.242.293.12.137.171.317.308.442.22.196.352.455.538.675.13.154.247.316.376.471.129.155.235.273.353.409.04.052.097.086.161.096.143.02.288.023.432.008h8.939a.514.514 0 0 1 .254.054.23.23 0 0 1 .11.234c0 1.37-.002 2.74-.006 4.11 0 .165 0 .168.168.168 1.868.011 3.743-.024 5.614.018.16 0 .21-.06.18-.221a1.504 1.504 0 0 1-.026-.29v-3.591c0-.422.06-.482.48-.482H79.8c.162 0 .175-.016.175-.188v-4.878c-.003-.062 0-.123.006-.185.037-.158.016-.179-.154-.179Zm-7.54-11.603-1.116 5.053v6.245a.278.278 0 0 1-.276.278H65.18a.275.275 0 0 1-.276-.283.28.28 0 0 1 .04-.14l6.898-11.332a.24.24 0 0 1 .444.182v-.003Z" fill="#454F68"/><path d="M58.073 53.178v5.726H41.821a1.841 1.841 0 0 0-.19.022l-2.014-4.214 3.187-3.652.01-.015.05-.056.634-.726.032-.033c.081-.087.313-.376.35-.431.11-.15.233-.288.369-.412l.076-.072a4.64 4.64 0 0 0 .236-.27c.132-.172.277-.332.423-.487l.22-.234c.074-.079.14-.167.209-.255 0 0 2.546-2.902 3.361-3.853l1.815-2.081s.58-.848.686-1.02c.075-.124.411-.693.286-1.733-.066-.545-.46-1.07-.989-1.604-.584-.587-1.53-.733-2.3-.721-2.433.04-3.393 2.468-3.396 2.469l-4.668-2.505a.111.111 0 0 1 .012-.031c.09-.157.694-1.428 1.234-2.018.129-.14 1.765-3.77 7.81-3.77.394 0 .787.037 1.18.068.236.018 3.115.174 5.636 2.93.67.734 1.099 1.57 1.428 2.38.392.952.464 2.322.472 2.564a12.42 12.42 0 0 1-.242 2.047c-.161.642-.489 1.495-.524 1.604-.05.154-.77 1.516-.86 1.676-.117.205-1.53 1.97-1.927 2.345-.134.127-2.929 3.291-4.804 4.996l-2.704.935a.22.22 0 0 0-.161.25.221.221 0 0 0 .233.185h11.082v-.004Z" fill="#454F68"/><path d="M37.967 56.395a.2.2 0 0 1-.015-.053c-2.156-6.26-6.646-20.346-8.303-25.34h-9.18a.245.245 0 0 0-.098.016l-.082.242a.242.242 0 0 1-.016.05l-.194.574a.445.445 0 0 1-.037.11l-.198.586a.366.366 0 0 1-.034.103l-2.922 8.686a.14.14 0 0 1-.01.031l-.428 1.271v.008a.475.475 0 0 1-.034.1l-1.287 3.826a.458.458 0 0 1-.049.146l-.184.547a.279.279 0 0 1-.029.085l-.199.59a.3.3 0 0 1-.025.078l-.211.624-3.426 10.19c.022.024.076.03.174.03h7.015a.454.454 0 0 0 .181-.361.583.583 0 0 1 .067-.319.739.739 0 0 0 .154-.448.324.324 0 0 1 .067-.237c.13-.126.136-.283.142-.45.005-.166 0-.343.11-.48a.654.654 0 0 0 .127-.325c.021-.142.015-.293.128-.407a.386.386 0 0 0 .086-.23c.025-.162.03-.331.153-.466a.385.385 0 0 0 .08-.297.38.38 0 0 1 .119-.332.36.36 0 0 0 .055-.09c.076-.124.054-.264.058-.4a.655.655 0 0 1 .09-.392.652.652 0 0 0 .149-.442.288.288 0 0 1 .069-.234.413.413 0 0 0 .117-.244c.017-.095.036-.19.05-.285a.362.362 0 0 1 .34-.326c.104-.007.21-.007.314 0h8.301a.22.22 0 0 1 .202.14 2.8 2.8 0 0 1 .18.545c.066.235.157.467.242.694.11.29.159.599.297.884.04.062.068.132.084.204.03.323.23.594.275.91.026.169.165.296.172.464.024.179.081.351.169.508.034.062.056.13.066.2.016.166.067.327.15.473.034.076.06.154.077.236.038.189.038.393.149.552.072.105.109.231.104.36a.386.386 0 0 0 .098.291.285.285 0 0 1 .061.1c.084.208.083.208.303.204h7.027l.011-.017-.852-2.483ZM27.584 46.25h-5.338a.257.257 0 0 1-.254-.212.26.26 0 0 1 .005-.12l2.782-10.002a.261.261 0 0 1 .253-.191.259.259 0 0 1 .249.196l2.555 10.003a.263.263 0 0 1-.138.3.26.26 0 0 1-.114.026Z" fill="#158ADC"/></svg>