<svg width="90" height="90" viewBox="0 0 90 90" fill="none" xmlns="http://www.w3.org/2000/svg">
<circle cx="45" cy="45" r="45" fill="#F5F5F5"/>
<path d="M27.2854 29.1375H61.7146V62.3034L59.728 67.5024L53.1964 71.8623L46.1374 74.4618L43.6789 74.9644L35.9174 71.9462L29.8161 67.922L27.2854 63.0429V49.1607V29.1375Z" fill="#00C11F"/>
<path d="M44.5 10L38.1682 15.0352C38.1682 15.0352 35.2496 17.1578 36.4863 20.4652C36.4863 20.4652 29.6598 19.3792 27.2854 24.7105L35.9422 26.4383L31.5891 23.6739C31.5891 23.6739 33.8645 19.9222 43.2633 25.6485C43.2633 25.6485 38.7123 21.6006 38.8113 18.6387C38.8113 16.368 44.5495 13.0112 44.5495 13.0112" fill="black"/>
<path d="M24.6636 29.7951C24.6636 29.7951 20.6073 30.5849 19.7169 35.4226C18.8265 40.2603 18.6286 40.9514 13.3851 42.6298C13.3851 42.6298 13.6819 44.6043 18.7275 46.184C18.7275 46.184 18.9254 49.1459 12 50.3306C12 50.3306 12.6925 54.8721 19.519 55.6619C19.519 55.6619 16.2116 62.0497 17.5403 66.2259C19.519 72.4458 27.7306 76 27.7306 76C29.398 75.3196 31.0176 74.528 32.5784 73.6305C32.5784 73.6305 29.1157 74.4203 27.7306 73.3343C26.3455 72.2483 21.003 68.6941 20.0137 65.831C19.0243 62.9678 21.3988 56.6492 23.1796 53.1937C23.1796 53.1937 17.5403 53.8848 15.5616 51.6141C15.5616 51.6141 20.6073 51.5153 22.586 44.1107C20.8628 44.3646 19.1029 44.0891 17.5403 43.3209C17.5403 43.3209 19.7169 42.8272 20.8052 40.2603C21.8934 37.6934 20.4094 34.0404 24.6636 29.7951Z" fill="black"/>
<path d="M23.2786 57.1429C23.2786 57.1429 17.3426 64.6462 27.0381 71.1623C27.0381 71.1623 20.2117 66.0284 23.2786 57.1429Z" fill="black"/>
<path d="M44.5494 28.0179H26.4444V62.8691C26.4444 62.8691 24.9604 71.6559 44.4505 76V73.5318C44.4505 73.5318 29.6103 70.6687 28.7199 62.8691C27.9699 56.2967 28.7199 30.3874 28.7199 30.3874H44.5494V28.0179Z" fill="black"/>
<path d="M44.4999 10L50.8317 15.0352C50.8317 15.0352 53.7503 17.1578 52.5136 20.4652C52.5136 20.4652 59.3401 19.3792 61.7145 24.7105L53.0577 26.4383L57.4109 23.6739C57.4109 23.6739 55.1354 19.9222 45.7366 25.6485C45.7366 25.6485 50.2876 21.6006 50.1886 18.6387C50.1886 16.368 44.4504 13.0112 44.4504 13.0112" fill="black"/>
<path d="M64.3364 29.7951C64.3364 29.7951 68.3927 30.5849 69.2831 35.4226C70.1735 40.2603 70.3714 40.9514 75.6149 42.6298C75.6149 42.6298 75.3181 44.6043 70.2725 46.184C70.2725 46.184 70.0746 49.1459 77 50.3306C77 50.3306 76.3075 54.8721 69.481 55.6619C69.481 55.6619 72.7884 62.0497 71.4597 66.2259C69.481 72.4458 61.2694 76 61.2694 76C59.602 75.3196 57.9824 74.528 56.4216 73.6305C56.4216 73.6305 59.8843 74.4203 61.2694 73.3343C62.6545 72.2483 67.997 68.6941 68.9863 65.831C69.9757 62.9678 67.6012 56.6492 65.8204 53.1937C65.8204 53.1937 71.4597 53.8848 73.4384 51.6141C73.4384 51.6141 68.3927 51.5153 66.414 44.1107C68.1373 44.3646 69.8971 44.0891 71.4597 43.3209C71.4597 43.3209 69.2831 42.8272 68.1948 40.2603C67.1066 37.6934 68.5906 34.0404 64.3364 29.7951Z" fill="black"/>
<path d="M65.7214 57.1429C65.7214 57.1429 71.6575 64.6462 61.9619 71.1623C61.9619 71.1623 68.7884 66.0284 65.7214 57.1429Z" fill="black"/>
<path d="M44.4504 28.0179H62.5555V62.8691C62.5555 62.8691 63.9406 71.6559 44.4504 76V73.5318C44.4504 73.5318 59.3896 70.6687 60.28 62.8691C61.0299 56.2967 60.28 30.3874 60.28 30.3874H44.4504V28.0179Z" fill="black"/>
<path d="M44.5 23.7233C44.5 23.7233 43.4118 19.7741 44.5 16.0224C44.5 16.0224 45.4894 19.4779 44.5 23.7233Z" fill="black"/>
<path d="M41.1878 45.1819H38.199L43.1803 32.6651H44.5496V35.6487L41.1878 45.1819Z" fill="black"/>
<path d="M42.4601 40.1428H44.5496V42.2033H41.3738L42.4601 40.1428Z" fill="black"/>
<path d="M47.9114 45.1819H50.9002L45.9188 32.6651H44.5496V35.6487L47.9114 45.1819Z" fill="black"/>
<path d="M46.6391 40.1428H44.5496V42.2033H47.7254L46.6391 40.1428Z" fill="black"/>
<path d="M50.2441 47.97H38.8538V50.3513H50.2441V47.97Z" fill="black"/>
<path d="M44.5494 54.2778V53.4406H38.8537L35.115 58.916V64.6354H44.5494V62.9728H41.3736V60.8521H44.5494V57.1429H37.4419L39.2594 54.2797L44.5494 54.2778ZM38.5055 60.8866C39.8223 61.6666 39.8322 62.8987 39.8322 62.8987C39.8322 62.8987 35.6107 63.7705 35.2406 61.2292V60.8945C35.2406 60.8945 37.1877 60.1067 38.5055 60.8866Z" fill="black"/>
<path d="M38.7006 63.7281H36.3083C36.0067 63.7281 35.7622 63.9721 35.7622 64.273V65.9435C35.7622 66.2445 36.0067 66.4885 36.3083 66.4885H38.7006C39.0022 66.4885 39.2467 66.2445 39.2467 65.9435V64.273C39.2467 63.9721 39.0022 63.7281 38.7006 63.7281Z" fill="black"/>
<path d="M36.7049 56.3353H35.1012C34.8029 56.3353 34.561 56.5766 34.561 56.8743V57.4351C34.561 57.7328 34.8029 57.9742 35.1012 57.9742H36.7049C37.0033 57.9742 37.2451 57.7328 37.2451 57.4351V56.8743C37.2451 56.5766 37.0033 56.3353 36.7049 56.3353Z" fill="black"/>
<path d="M49.8396 54.2778L51.657 57.1409H44.5496V60.8501H47.7254V62.9708H44.5496V64.6304H53.984V58.9131L50.2452 53.4406H44.5496V54.2807L49.8396 54.2778ZM53.8583 60.8926V61.2273C53.4883 63.7685 49.2668 62.8968 49.2668 62.8968C49.2668 62.8968 49.2767 61.6646 50.5935 60.8847C51.9103 60.1047 53.8583 60.8945 53.8583 60.8945V60.8926Z" fill="black"/>
<path d="M50.3985 66.4875H52.7908C53.0924 66.4875 53.3369 66.2435 53.3369 65.9425V64.272C53.3369 63.971 53.0924 63.7271 52.7908 63.7271H50.3985C50.0969 63.7271 49.8524 63.971 49.8524 64.272V65.9425C49.8524 66.2435 50.0969 66.4875 50.3985 66.4875Z" fill="black"/>
<path d="M52.3939 57.9742H53.9977C54.296 57.9742 54.5378 57.7328 54.5378 57.4351V56.8743C54.5378 56.5766 54.296 56.3353 53.9977 56.3353H52.3939C52.0956 56.3353 51.8537 56.5766 51.8537 56.8743V57.4351C51.8537 57.7328 52.0956 57.9742 52.3939 57.9742Z" fill="black"/>
</svg>
