<svg width="90" height="90" fill="none" xmlns="http://www.w3.org/2000/svg"><g clip-path="url(#a)"><circle cx="45" cy="45" r="45" fill="#EFEFEF"/><path fill="#33322D" d="M16.954 47.725h56.951v7.65H16.954z"/><path d="M23.432 46.113h1.013l-1.866-4.174h-.954l-1.86 4.174h.99l.369-.895h1.938l.37.895Zm-1.998-1.628.662-1.598.662 1.598h-1.324Zm6.457-.549c.37-.179.59-.495.59-.918 0-.692-.572-1.08-1.538-1.08h-1.944v4.175h2.057c1.055 0 1.622-.447 1.622-1.175 0-.507-.28-.853-.787-1.002Zm-1.932-1.282h.9c.418 0 .638.18.638.507 0 .334-.22.507-.638.507h-.9v-1.014Zm1.061 2.743H25.96v-1.055h1.061c.447 0 .68.167.68.519 0 .363-.233.536-.68.536Zm5.554-3.458h-3.62v.787h1.33v3.387h.954v-3.387h1.336v-.787Zm2.54 4.245c1.311 0 2.283-.912 2.283-2.158 0-1.247-.972-2.159-2.283-2.159-1.318 0-2.284.919-2.284 2.159 0 1.24.966 2.158 2.284 2.158Zm0-.823c-.746 0-1.306-.542-1.306-1.335 0-.793.56-1.336 1.306-1.336.745 0 1.305.543 1.305 1.336s-.56 1.335-1.305 1.335Zm3.424-3.422-.06 1.693c-.041 1.068-.167 1.688-.656 1.688a.576.576 0 0 1-.173-.024l-.06.817c.18.041.335.065.478.065.978 0 1.21-.942 1.264-2.582l.03-.87h1.43v3.387h.955v-4.174h-3.208Zm6.242 4.245c1.312 0 2.284-.912 2.284-2.158 0-1.247-.972-2.159-2.284-2.159-1.318 0-2.284.919-2.284 2.159 0 1.24.966 2.158 2.284 2.158Zm0-.823c-.745 0-1.306-.542-1.306-1.335 0-.793.56-1.336 1.306-1.336.745 0 1.306.543 1.306 1.336s-.56 1.335-1.306 1.335Zm7.732.752-.005-4.174h-.8l-1.538 2.594-1.562-2.594h-.8v4.174h.907v-2.451l1.229 2.01h.429l1.228-2.058.006 2.499h.906Zm1.037 0h1.98c1.073 0 1.688-.483 1.688-1.318 0-.8-.543-1.228-1.55-1.228h-1.158v-.859h2.41v-.77h-3.37v4.175Zm.96-.716v-1.12h.966c.507 0 .764.178.764.548 0 .375-.269.572-.764.572h-.966Zm6.604.716h1.013l-1.866-4.174h-.954l-1.86 4.174h.99l.37-.895h1.937l.37.895Zm-1.998-1.628.662-1.598.662 1.598h-1.324Zm5.372-2.546H62.68v4.174h.966v-1.151h.84c1.116 0 1.813-.579 1.813-1.509 0-.936-.697-1.514-1.812-1.514Zm-.054 2.236h-.787v-1.45h.787c.59 0 .888.27.888.728 0 .453-.298.722-.888.722Zm6.026 1.15V41.94h-3.208l-.047 1.306c-.042 1.168-.18 2.063-.722 2.08h-.167l-.006 1.652h.895v-.864h2.945v.864h.895v-1.651h-.585Zm-2.403-1.99.018-.61h1.431v2.6H67.64c.286-.34.382-1.103.417-1.99Z" fill="#F02E3C"/><path d="M23.383 50.163v3.412h-1.15v-1.257h-1.064v1.257h-1.15v-3.412h1.15v1.209h1.063v-1.21h1.15Zm3.015 2.818H25.1l-.23.594h-1.17l1.493-3.412h1.13l1.492 3.412h-1.19l-.228-.594Zm-.317-.83-.332-.857-.331.858h.663Zm6.559 1.424-.01-1.555-.741 1.248h-.507l-.741-1.194v1.501h-1.048v-3.412h.946l1.111 1.818 1.082-1.818h.946l.01 3.412H32.64Zm4.055-.594h-1.297l-.229.594H34l1.492-3.412h1.131l1.492 3.412h-1.19l-.229-.594Zm-.317-.83-.331-.857-.332.858h.663Zm4.849-1.988v3.412h-1.131v-.809h-.307l-.522.81h-1.204l.673-.976a1.191 1.191 0 0 1-.512-.438 1.276 1.276 0 0 1-.176-.678c0-.27.064-.504.19-.702a1.26 1.26 0 0 1 .551-.458 2.02 2.02 0 0 1 .839-.161h1.599Zm-1.58.887c-.292 0-.438.138-.438.414 0 .29.146.434.438.434h.449v-.848h-.449Zm4.57.77 1.009 1.755h-1.297l-.653-1.233h-.322v1.233h-1.15v-3.412h1.15v1.272h.351l.726-1.272h1.2l-1.014 1.657Zm2.955 1.833c-.367 0-.697-.076-.99-.229a1.727 1.727 0 0 1-.687-.634 1.74 1.74 0 0 1-.248-.92 1.715 1.715 0 0 1 .935-1.556c.293-.153.623-.23.99-.23s.697.077.99.23a1.716 1.716 0 0 1 .936 1.555c0 .341-.083.648-.249.921-.166.27-.395.481-.687.634-.293.153-.623.23-.99.23Zm0-.93a.733.733 0 0 0 .663-.4.96.96 0 0 0 .102-.454.932.932 0 0 0-.102-.448.724.724 0 0 0-.278-.298.708.708 0 0 0-.385-.107.733.733 0 0 0-.663.405.933.933 0 0 0-.102.448c0 .172.034.323.102.453a.78.78 0 0 0 .273.298.76.76 0 0 0 .39.102Zm4.963-.937c.191.068.337.17.438.307.101.134.151.298.151.493a.854.854 0 0 1-.365.726c-.24.176-.582.263-1.024.263h-1.823v-3.412h1.73c.423 0 .75.078.98.234a.747.747 0 0 1 .351.658.786.786 0 0 1-.117.429.85.85 0 0 1-.322.302Zm-1.492-.312h.487c.189 0 .283-.083.283-.248 0-.173-.094-.259-.283-.259h-.487v.507Zm.638 1.297c.189 0 .283-.091.283-.273 0-.176-.094-.263-.283-.263h-.638v.536h.638Zm3.57.882c-.361 0-.686-.074-.975-.224a1.736 1.736 0 0 1-.683-.634 1.776 1.776 0 0 1-.243-.926c0-.344.08-.652.243-.921a1.69 1.69 0 0 1 .683-.634c.289-.153.614-.23.975-.23.331 0 .627.06.887.176.26.117.474.286.644.507l-.727.649c-.211-.267-.46-.4-.746-.4a.758.758 0 0 0-.58.234c-.146.153-.22.36-.22.62s.074.467.22.623c.146.153.34.23.58.23.286 0 .535-.134.746-.4l.727.648c-.17.22-.384.39-.644.507a2.14 2.14 0 0 1-.887.175Zm4.262-1.833 1.01 1.755h-1.298l-.653-1.233h-.322v1.233H56.7v-3.412h1.15v1.272h.351l.727-1.272h1.199l-1.014 1.657Zm2.955 1.833c-.367 0-.697-.076-.99-.229a1.727 1.727 0 0 1-.687-.634 1.74 1.74 0 0 1-.248-.92 1.715 1.715 0 0 1 .936-1.556c.292-.153.622-.23.99-.23.367 0 .697.077.99.23a1.715 1.715 0 0 1 .935 1.555c0 .341-.083.648-.249.921-.165.27-.394.481-.687.634-.292.153-.622.23-.99.23Zm0-.93a.734.734 0 0 0 .663-.4.96.96 0 0 0 .103-.454.932.932 0 0 0-.103-.448.723.723 0 0 0-.277-.298.709.709 0 0 0-.386-.107.733.733 0 0 0-.663.405.933.933 0 0 0-.102.448c0 .172.034.323.102.453a.78.78 0 0 0 .273.298.76.76 0 0 0 .39.102Zm4.939-1.668h-1.468v2.52h-1.13v-3.412h2.597v.892Zm1.874 2.598c-.367 0-.697-.076-.99-.229a1.726 1.726 0 0 1-.687-.634 1.74 1.74 0 0 1-.249-.92 1.714 1.714 0 0 1 .936-1.556c.293-.153.623-.23.99-.23s.697.077.99.23a1.716 1.716 0 0 1 .936 1.555c0 .341-.083.648-.249.921-.166.27-.395.481-.687.634-.293.153-.623.23-.99.23Zm0-.93a.734.734 0 0 0 .663-.4.962.962 0 0 0 .102-.454.933.933 0 0 0-.102-.448.724.724 0 0 0-.278-.298.709.709 0 0 0-.385-.107.733.733 0 0 0-.663.405.932.932 0 0 0-.102.448.96.96 0 0 0 .102.453c.068.127.16.226.273.298a.76.76 0 0 0 .39.102Z" fill="#fff"/><path fill-rule="evenodd" clip-rule="evenodd" d="M32.632 32.459c-3.41.483-5.397.951-9.128 2.147-4.186 1.343-5.29 1.541-9.895 1.773-1.91.096-3.532.234-3.605.307-.198.198 6.727.144 9.182-.072 1.593-.14 2.843-.424 4.994-1.138 4.93-1.636 9.2-2.313 14.662-2.326 2.807-.007 3.939.083 5.672.45 3.767.8 7.716 2.337 10.479 4.27l1.168.723 5.95.636c6.959.665 11.28 1.267 13.057 1.82 1.753.546 3.133 1.399 3.541 2.188.316.611.316.792 0 2.277-.225 1.059-.282 1.831-.165 2.25l.178.637.157-.826c.086-.454.341-1.17.566-1.59.673-1.254.724-2.023.207-3.09-1.232-2.546-4.63-3.462-17.428-4.702l-5.625-.545-1.284-.81c-2.808-1.773-5.532-2.946-9.035-3.888-2.318-.623-2.68-.884-7.013-.945-3.506-.049-5.246.257-6.635.454Z" fill="#000"/></g><defs><clipPath id="a"><path fill="#fff" d="M0 0h90v90H0z"/></clipPath></defs></svg>