<svg width="90" height="90" viewBox="0 0 90 90" fill="none" xmlns="http://www.w3.org/2000/svg">
<circle cx="45" cy="45" r="45" fill="#F5F5F5"/>
<path d="M41.7997 16.961C43.2706 16.5313 44.7752 16.2266 46.2974 16.0501H46.5465C47.4574 15.9362 48.0694 15.865 48.3826 17.6228C48.4893 18.1708 48.5961 18.7046 48.7028 19.2098C48.9163 20.2702 49.1796 21.3448 49.45 22.3838C49.9505 24.3827 50.5683 26.3503 51.3004 28.2764C51.7496 28.2025 52.1922 28.0931 52.6241 27.949L53.0582 27.8209C53.6782 27.6555 54.3081 27.5295 54.9441 27.4437C55.976 27.337 58.2889 27.1875 58.2177 28.5753C58.0922 29.1408 57.7724 29.6445 57.3139 29.9986C57.1075 30.1836 56.9438 30.3544 56.7801 30.5252C56.5843 30.7373 56.3776 30.9392 56.161 31.1301C55.4735 31.6927 54.7456 32.2041 53.9833 32.6602C53.7997 32.7638 53.6238 32.8804 53.4567 33.0089C53.5558 33.4978 53.7061 33.9748 53.905 34.4322C53.9981 34.6245 54.0743 34.8245 54.1328 35.03C54.1328 35.0727 54.1328 35.1297 54.1684 35.1937C54.1831 35.3313 54.2191 35.4657 54.2751 35.5922C54.4317 35.7417 54.9868 36.3039 54.5953 36.8377C53.7698 37.9194 54.389 38.6026 55.3568 39.6843L55.7838 40.154C56.0756 40.4885 56.3104 40.7447 56.5382 40.9866L57.079 41.5915C58.0327 42.6092 56.8157 43.2639 56.2179 43.5842C56.135 43.6251 56.0543 43.6703 55.976 43.7194C55.6771 43.94 55.4778 44.1393 55.7127 44.6161C55.7723 44.7489 55.8412 44.8773 55.919 45.0004C56.0178 45.1458 56.0968 45.3038 56.1539 45.4701C56.1676 45.6049 56.1467 45.7411 56.0931 45.8656C56.0396 45.9901 55.9552 46.0989 55.8479 46.1817C55.8049 46.2269 55.7645 46.2744 55.7269 46.3241C55.7956 46.5289 55.8838 46.7267 55.9902 46.9148C56.0278 46.9761 56.0543 47.0435 56.0685 47.114C56.0685 47.1994 56.0187 47.2919 55.8763 47.5126L55.6557 47.8541C55.5027 48.1276 55.4441 48.4439 55.4891 48.754C55.5342 49.0641 55.6803 49.3507 55.9048 49.5692C56.1041 49.8049 56.2438 50.0851 56.3119 50.3861C56.38 50.6871 56.3747 51.0001 56.2962 51.2986C55.8336 52.3163 54.5882 52.7931 53.6275 53.0493C53.414 53.1062 53.172 53.1631 52.9158 53.213C52.5707 53.273 52.2306 53.3587 51.8982 53.4691C51.3889 53.6565 50.9577 54.01 50.6741 54.4726L50.6243 54.5438C50.2966 54.9532 50.0106 55.3942 49.7703 55.8603C49.7703 55.8603 49.7703 55.8603 49.8628 55.9386L50.8093 56.4297C51.4832 56.8478 52.0683 57.3943 52.5315 58.038C52.8731 58.5006 52.8233 58.5931 52.7166 58.7497C52.6177 58.9135 52.5614 59.0994 52.5529 59.2905C53.274 59.8075 53.9144 60.4286 54.453 61.1337L54.7163 61.5607L55.1647 62.2724L55.8763 63.4395C55.0092 64.2378 54.0542 64.9349 53.0297 65.5176C51.971 66.1387 50.8499 66.6467 49.6849 67.0334C47.0218 67.9305 44.1629 68.0758 41.4225 67.4533C37.329 66.3184 33.7026 63.9107 31.0679 60.5786L30.8899 60.3722C30.5487 59.9962 30.2437 59.5887 29.979 59.1553C30.1187 58.9243 30.2708 58.701 30.4345 58.4864C30.5199 58.3725 30.6053 58.2586 30.6764 58.1519L30.8259 57.9313C31.3383 57.184 32.5979 55.3266 32.7189 55.0206L32.6691 54.9636C32.3133 54.5793 32.299 54.5722 32.7758 53.9602C32.9375 53.7552 33.0804 53.5361 33.2028 53.3055C33.47 52.8322 33.6961 52.337 33.8789 51.8252L34.3059 50.7008C34.5692 49.9891 34.6546 49.7045 34.8254 49.6262C34.9521 49.5991 35.0831 49.5991 35.2097 49.6262C35.4111 49.6398 35.6132 49.6398 35.8146 49.6262C35.8146 49.5337 35.8502 49.4483 35.8716 49.3558C36.058 48.7081 36.0921 48.0261 35.9712 47.3631C35.9171 46.9776 35.7428 46.619 35.473 46.3383C35.3082 46.1561 35.165 45.9555 35.046 45.7405C34.74 45.157 34.3344 44.1962 34.0497 43.4134C33.8941 42.989 33.716 42.5733 33.516 42.168C33.198 42.2093 32.8839 42.276 32.5766 42.3673C31.7574 42.6026 30.9151 42.7482 30.0644 42.8014C29.0325 42.8796 27.1822 42.659 27.5167 41.2357C27.8298 39.9547 29.4453 38.7734 30.7049 37.8482L31.2529 37.4426L31.502 37.2504C31.6225 37.1488 31.7484 37.0538 31.8792 36.9657C31.9448 36.3686 31.894 35.7644 31.7297 35.1866C31.566 34.66 31.4237 34.2187 31.2671 33.7277C30.9469 32.7812 30.5555 31.8489 30.1783 30.9593L30.0858 30.7458C29.5164 29.4577 28.9969 28.2764 28.4703 26.9812V26.91C28.1074 26.0418 27.7159 25.1024 28.8404 24.2626H28.8831C31.3169 22.3316 33.9148 20.6171 36.6473 19.1387C38.2915 18.2505 40.0168 17.5213 41.7997 16.961Z" fill="#701C2B"/>
<path d="M71.2412 38.5883C70.7631 37.9998 70.368 37.3485 70.067 36.6526C69.3598 34.917 69.2106 33.0042 69.64 31.1799C69.7866 30.3781 70.0707 29.6077 70.4797 28.9026C71.0847 29.472 71.9529 32.2261 72.0952 33.4074C72.2197 34.3761 72.2197 35.3566 72.0952 36.3252C72.024 36.9088 71.5615 38.3677 71.2412 38.5883Z" fill="#701C2B"/>
<path d="M28.3848 65.0265L28.3279 64.9767C28.1482 64.8016 27.9445 64.6531 27.723 64.5355C26.1431 63.6245 24.8051 63.8238 23.2039 64.3362C23.1475 64.3666 23.0878 64.3905 23.026 64.4074L22.9548 64.4643C23.6197 65.296 24.536 65.8902 25.5666 66.158C26.4606 66.3802 27.4041 66.2846 28.2354 65.8876C28.4774 65.8039 28.6967 65.665 28.8758 65.482C28.742 65.3009 28.5754 65.1464 28.3848 65.0265Z" fill="#701C2B"/>
<path d="M33.5088 69.0616C32.84 68.4192 31.9759 68.0185 31.0535 67.923C30.4306 67.8632 29.802 67.926 29.2032 68.108H29.1249C28.6431 68.2236 28.1822 68.4133 27.7585 68.6702C28.1001 69.3107 29.5733 70.0935 30.4842 70.2216C31.0573 70.3039 31.6412 70.2687 32.2003 70.1182C32.7594 69.9677 33.2821 69.7051 33.7365 69.3463C33.7297 69.296 33.7122 69.2478 33.6852 69.2048C33.6582 69.1619 33.6223 69.1252 33.5799 69.0972L33.5088 69.0616Z" fill="#701C2B"/>
<path d="M25.2892 61.6532C25.0995 61.1429 24.8358 60.6633 24.5063 60.2299C23.9487 59.583 23.2535 59.069 22.4716 58.7255C21.6897 58.382 20.8409 58.2176 19.9873 58.2444C20.1598 58.7934 20.4298 59.3069 20.7844 59.7602C21.4098 60.656 22.3165 61.3172 23.3606 61.639C23.9382 61.7805 24.5383 61.8047 25.1255 61.7102H25.2251L25.2892 61.6532Z" fill="#701C2B"/>
<path d="M67.0421 64.4643C66.2905 64.0691 65.4518 63.8685 64.6027 63.8809C63.7536 63.8933 62.9212 64.1184 62.1814 64.5355C61.7484 64.7841 61.3726 65.1212 61.0784 65.5247C61.5 65.8764 62.0006 66.1206 62.5373 66.2363C63.1566 66.3892 63.8038 66.3892 64.4232 66.2363C65.2985 65.9944 66.793 65.119 67.0421 64.4643Z" fill="#701C2B"/>
<path d="M30.3063 64.3647C30.2791 63.7041 30.1519 63.0514 29.9291 62.429C29.6444 61.6248 28.6481 60.0235 27.9934 59.8243C27.7798 61.1887 27.8697 62.5835 28.2567 63.9092C28.4358 64.4443 28.6745 64.9575 28.9684 65.4393C29.1605 65.7311 29.68 66.4214 30.0358 66.4997C30.2484 65.8089 30.3399 65.0866 30.3063 64.3647Z" fill="#701C2B"/>
<path d="M62.1888 68.6773C61.7569 68.3875 61.2739 68.1823 60.7655 68.0724C59.6377 67.7438 58.4266 67.8637 57.3851 68.4069C56.9315 68.627 56.5346 68.9484 56.2251 69.3463C56.3617 69.5316 56.5498 69.6727 56.766 69.7519C56.8012 69.7642 56.8347 69.7809 56.8656 69.8018C57.6539 70.2314 58.5612 70.3914 59.4489 70.2572C60.3385 70.058 61.9184 69.2965 62.1888 68.6773Z" fill="#701C2B"/>
<path d="M61.349 60.3082C60.61 61.1269 60.0916 62.1203 59.8426 63.1948C59.5936 64.2693 59.6222 65.3895 59.9257 66.4498C60.374 66.4142 61.1711 65.1546 61.4415 64.6493C61.8393 63.8027 62.0505 62.8804 62.0607 61.945C62.1208 61.233 62.0969 60.5164 61.9895 59.81C61.7798 59.8833 61.5982 60.0201 61.47 60.2014L61.349 60.3082Z" fill="#701C2B"/>
<path d="M21.2326 54.2733C20.5923 53.3766 19.6898 52.7003 18.6493 52.3376C18.0791 52.1201 17.4792 51.9905 16.8701 51.9533C17.0165 52.5296 17.257 53.0778 17.5818 53.5759C18.0104 54.3349 18.6463 54.9561 19.4151 55.367C20.1838 55.7778 21.0537 55.9613 21.9229 55.8959C21.8082 55.3129 21.5731 54.7603 21.2326 54.2733Z" fill="#701C2B"/>
<path d="M19.8236 50.039C19.7999 48.7759 19.3567 47.5567 18.564 46.5732C17.8633 45.7139 16.9646 45.0375 15.9451 44.6019C15.9716 45.8963 16.3801 47.1541 17.1193 48.2171C17.6886 48.9999 19.0408 50.1315 19.8236 50.039Z" fill="#701C2B"/>
<path d="M67.932 44.4382C67.6972 45.0511 67.5603 45.6971 67.5263 46.3526C67.4669 47.0692 67.5271 47.7906 67.7042 48.4875C67.9177 49.3629 68.8927 51.2274 69.4264 51.263C69.6829 50.6384 69.8042 49.9666 69.7823 49.2917C69.7787 48.3135 69.5803 47.3458 69.1987 46.4451C68.8849 45.7135 68.4574 45.0362 67.932 44.4382Z" fill="#701C2B"/>
<path d="M26.1432 62.2795C26.7097 61.0551 26.8837 59.6854 26.6414 58.3583C26.4634 57.426 25.8016 55.6539 25.1824 55.3123L25.0188 55.7322C24.7018 56.89 24.6052 58.0971 24.7341 59.2905C24.8285 59.8832 25.0033 60.4602 25.2536 61.0056C25.3959 61.3615 25.8229 62.2297 26.1432 62.2795Z" fill="#701C2B"/>
<path d="M68.8071 38.7449C68.4319 40.0832 68.4492 41.5011 68.8569 42.8298C69.1629 43.6696 70.0525 45.2139 70.7072 45.4559C70.9136 44.9335 71.0058 44.3729 70.9776 43.8119C70.9765 42.7794 70.7506 41.7595 70.3158 40.8229C70.1241 40.4379 69.9053 40.0669 69.6611 39.7128L69.476 39.4566C69.402 39.3656 69.3331 39.2706 69.2696 39.1719L69.2269 39.1221C69.1316 38.9541 68.9843 38.8217 68.8071 38.7449Z" fill="#701C2B"/>
<path d="M66.6723 59.1553C65.9037 59.6535 64.8362 60.7779 64.6938 61.639H64.7792H64.886C65.4454 61.7164 66.0146 61.682 66.5607 61.5378C67.1067 61.3937 67.6188 61.1426 68.0671 60.7993C68.729 60.2869 69.9174 58.771 69.953 58.1732C68.7838 58.151 67.6369 58.4943 66.6723 59.1553Z" fill="#701C2B"/>
<path d="M69.8393 53.1204C69.092 53.6898 68.0601 54.9281 68.0032 55.8746C68.6015 55.9473 69.2084 55.8868 69.7806 55.6973C70.3527 55.5078 70.8758 55.1941 71.3124 54.7786C71.9315 54.2164 72.9848 52.7575 73.0346 51.932C71.8797 52.0232 70.7731 52.4347 69.8393 53.1204Z" fill="#701C2B"/>
<path d="M66.601 50.0389C66.1833 50.9269 65.9579 51.8931 65.9395 52.8742C65.9211 53.8553 66.1101 54.8292 66.4943 55.7322C66.6508 56.0809 67.0778 56.9349 67.3981 57.0488C67.7998 56.2375 68.0023 55.3422 67.9888 54.437V54.4014C67.9779 53.5428 67.8264 52.6918 67.5404 51.8821C67.4257 51.5251 67.2829 51.1777 67.1134 50.8431C67.0423 50.6937 66.9782 50.5727 66.907 50.4446L66.8643 50.3734V50.3307C66.8418 50.2671 66.807 50.2087 66.7618 50.1586C66.7166 50.1085 66.662 50.0679 66.601 50.0389Z" fill="#701C2B"/>
<path d="M71.4046 46.5732C70.6278 47.5727 70.1913 48.7948 70.1592 50.0603C70.7228 49.9479 71.2519 49.7041 71.7035 49.3486C72.4224 48.7788 73.005 48.0557 73.4088 47.232C73.8126 46.4083 74.0275 45.5049 74.0377 44.5876C73.4471 44.6446 71.9027 45.9184 71.4046 46.5732Z" fill="#701C2B"/>
<path d="M63.2916 60.5786C63.3624 61.1832 63.5562 61.7668 63.861 62.2937C64.2356 61.9202 64.5309 61.4748 64.7292 60.9843C64.9587 60.4405 65.1143 59.8685 65.1918 59.2834C65.3341 58.3725 65.1562 55.8959 64.7861 55.3123H64.7007C64.6817 55.3487 64.6578 55.3822 64.6296 55.412C64.0698 56.1385 63.6627 56.9708 63.4328 57.8586C63.2029 58.7465 63.1549 59.6717 63.2916 60.5786Z" fill="#701C2B"/>
<path d="M20.3216 44.3172C21.049 43.2759 21.4231 42.0287 21.389 40.7589C21.3834 40.1287 21.3239 39.5002 21.2111 38.8801L21.1044 38.7449C20.7264 39.1209 20.3987 39.5443 20.1294 40.0045C19.4804 41.0287 19.0829 42.192 18.9694 43.3992C18.8988 44.0947 18.9839 44.7973 19.2185 45.4559C19.5245 45.406 20.1792 44.5165 20.3216 44.3172Z" fill="#701C2B"/>
<path d="M22.2645 48.5089C22.5596 47.1574 22.4859 45.7514 22.051 44.4382C21.6755 44.8391 21.3635 45.2951 21.1259 45.7903C20.495 46.8952 20.1684 48.1476 20.1794 49.4198C20.1274 50.0781 20.2501 50.7385 20.5352 51.3342C21.0689 51.1705 22.051 49.3629 22.2645 48.5089Z" fill="#701C2B"/>
<path d="M72.8992 37.8411C72.2879 38.5594 71.8339 39.398 71.5667 40.3026C71.2994 41.2073 71.2249 42.1579 71.3478 43.0931C71.6681 43.143 72.3228 42.4598 72.5648 42.2107L72.6146 42.1609C73.4045 41.2747 73.9016 40.1662 74.0379 38.9869C74.1196 38.2538 74.1196 37.5138 74.0379 36.7807C73.9834 36.7722 73.9276 36.7807 73.8779 36.8048C73.8283 36.829 73.7873 36.8678 73.7604 36.9159L73.6821 37.0013L73.4045 37.2646C73.2203 37.4424 73.0513 37.6352 72.8992 37.8411Z" fill="#701C2B"/>
<path d="M23.9868 53.9602C24.1282 52.6317 23.9274 51.2892 23.4032 50.0603C23.2894 50.0603 23.2609 50.1315 23.2182 50.224L23.1542 50.3521L23.0474 50.53C23.0474 50.5798 22.9834 50.6296 22.9407 50.715C22.229 52.2807 21.7807 53.5047 22.0511 55.4049C22.0983 55.9959 22.281 56.5681 22.5848 57.0773C22.9536 56.6731 23.254 56.2116 23.4744 55.7109C23.7369 55.1582 23.9099 54.5672 23.9868 53.9602Z" fill="#701C2B"/>
<path d="M17.9732 39.2431C17.653 38.6026 16.4076 36.9088 15.9094 36.8021C15.6762 38.1528 15.8496 39.5424 16.4076 40.7945C16.7848 41.6343 17.9732 43.1074 18.6137 43.1287C18.8013 41.7985 18.5778 40.4427 17.9732 39.2431Z" fill="#701C2B"/>
<path d="M34.0567 66.1082C33.5941 65.5033 32.3701 64.3006 31.4236 64.2081C31.5416 65.4707 31.9508 66.6887 32.6192 67.7664C32.975 68.3357 34.256 69.8302 35.1811 69.7591C35.1833 68.4565 34.7913 67.1838 34.0567 66.1082Z" fill="#701C2B"/>
<path d="M57.0791 64.9553C56.3475 65.5288 55.7627 66.2679 55.3729 67.1118C54.9832 67.9556 54.7996 68.8801 54.8374 69.8089C55.8693 69.6452 56.9723 68.5136 57.3993 67.7451C58.0449 66.6574 58.4502 65.4441 58.5878 64.1868C58.0322 64.3227 57.5157 64.5858 57.0791 64.9553Z" fill="#701C2B"/>
<path d="M20.5211 34.1191C20.6098 33.1421 20.5426 32.1572 20.3219 31.2013C20.1664 30.3982 19.8905 29.6233 19.5035 28.9026C19.086 29.546 18.7512 30.2394 18.5071 30.9664C17.8232 32.6771 17.6095 34.5397 17.888 36.3608C18.0096 37.1505 18.2878 37.9078 18.7064 38.5883C18.9474 38.3513 19.1492 38.0774 19.3042 37.777L19.3611 37.6774C20.0235 36.5996 20.421 35.3802 20.5211 34.1191Z" fill="#701C2B"/>
<path d="M50.3184 68.8766C49.5052 69.7466 48.9507 70.826 48.7171 71.9937H47.5785C47.5287 71.8442 47.5002 71.709 47.4646 71.5667C47.4199 71.3439 47.3506 71.1267 47.2582 70.9191C47.0568 70.4752 46.7385 70.0944 46.3374 69.8173C45.9362 69.5403 45.4674 69.3775 44.9809 69.3463C44.3107 69.3933 43.6817 69.6875 43.216 70.1718C42.8598 70.5547 42.6139 71.0269 42.5043 71.5382C42.4718 71.7007 42.4192 71.8584 42.3478 72.0079H41.2589C41.2162 71.9012 41.1807 71.7517 41.1308 71.5951C41.0913 71.4254 41.039 71.2588 40.9743 71.097C40.7084 70.2889 40.2519 69.5566 39.6435 68.962C38.7935 68.1304 37.6767 67.6262 36.4908 67.5387C36.7905 68.5764 37.2937 69.544 37.9711 70.3853C38.4537 70.9689 39.0619 71.4359 39.7502 71.7517C39.8241 71.7833 39.9002 71.8094 39.978 71.83C40.1437 71.8655 40.3009 71.9332 40.4405 72.0292C40.0574 72.1146 39.6618 72.1291 39.2734 72.072H39.1453C39.1228 72.0343 39.106 71.9935 39.0955 71.951C39.0955 71.951 39.0955 71.9083 38.9674 71.7944C38.3518 71.3153 37.6099 71.0259 36.8324 70.9618C35.4637 70.8446 34.0988 71.2263 32.9895 72.0364L32.9041 72.0862C34.5907 73.659 36.6189 74.0219 38.9887 73.2747L42.547 73.417C42.615 73.515 42.6723 73.6199 42.7178 73.7301C42.7804 73.8756 42.8541 74.016 42.9385 74.15C43.2021 74.542 43.5732 74.8496 44.0073 75.036C44.4414 75.2224 44.92 75.2795 45.3858 75.2006C45.8516 75.1218 46.2847 74.9102 46.6332 74.5913C46.9818 74.2724 47.2309 73.8597 47.3508 73.4028C48.0624 73.3529 48.8808 73.4028 49.6637 73.4028H50.7881C52.7807 74.3706 54.8445 73.9151 56.9795 72.0862C56.7788 71.9992 56.5838 71.8994 56.396 71.7873C55.4183 71.1572 54.2602 70.8671 53.101 70.9618C52.3225 71.0521 51.5838 71.3549 50.966 71.8371C50.845 71.9581 50.8592 72.015 50.8592 72.015L49.685 72.0862C49.6138 72.0862 49.6067 72.0862 49.5925 72.0862L50.3041 71.7588L50.4038 71.7019C50.5851 71.6075 50.7609 71.503 50.9304 71.3888C51.7431 70.7606 52.3884 69.9417 52.8092 69.0047C53.085 68.5382 53.2935 68.0351 53.4283 67.5102C52.2636 67.5873 51.1629 68.0708 50.3184 68.8766Z" fill="#701C2B"/>
</svg>
