<svg xmlns="http://www.w3.org/2000/svg" width="90" height="90" fill="none"><circle cx="45" cy="45" r="45" fill="#F5F5F5"/><path fill="#701C2B" d="M41.8 16.961a27.22 27.22 0 0 1 4.497-.91h.25c.91-.115 1.522-.186 1.836 1.572.106.548.213 1.082.32 1.587.213 1.06.477 2.135.747 3.174a52.422 52.422 0 0 0 1.85 5.892c.45-.073.892-.183 1.324-.327l.434-.128c.62-.166 1.25-.292 1.886-.377 1.032-.107 3.345-.256 3.274 1.131A2.476 2.476 0 0 1 57.314 30c-.206.185-.37.355-.534.526a8.414 8.414 0 0 1-.619.605 18.167 18.167 0 0 1-2.178 1.53c-.183.104-.36.22-.526.349.099.489.25.966.448 1.423.093.192.17.392.228.598 0 .043 0 .1.035.164.015.137.051.272.107.398.157.15.712.712.32 1.246-.825 1.081-.206 1.765.762 2.846l.427.47c.292.334.526.59.754.833l.541.605c.954 1.017-.263 1.672-.861 1.992-.083.041-.164.086-.242.135-.299.221-.498.42-.263.897.06.133.128.261.206.384.099.146.178.304.235.47a.797.797 0 0 1-.306.712 1.657 1.657 0 0 0-.121.142c.069.205.157.403.263.59a.612.612 0 0 1 .078.2c0 .085-.05.178-.192.399l-.22.341a1.424 1.424 0 0 0 .249 1.715 1.922 1.922 0 0 1 .391 1.73c-.462 1.017-1.708 1.494-2.669 1.75-.213.057-.455.114-.711.164-.345.06-.685.146-1.018.256-.51.188-.94.541-1.224 1.004l-.05.07c-.327.41-.613.851-.854 1.317l.093.079.946.49a6.054 6.054 0 0 1 1.723 1.609c.341.463.291.555.185.712-.1.163-.156.35-.164.54a8.962 8.962 0 0 1 1.9 1.844l.263.427.449.711.711 1.168a15.561 15.561 0 0 1-2.846 2.078 17.513 17.513 0 0 1-3.345 1.515 15.28 15.28 0 0 1-8.263.42 20.019 20.019 0 0 1-10.354-6.874l-.178-.207a8.077 8.077 0 0 1-.911-1.217c.14-.23.292-.454.456-.669.085-.113.17-.227.241-.334l.15-.22c.512-.748 1.772-2.605 1.893-2.911l-.05-.057c-.356-.385-.37-.392.107-1.004a4.35 4.35 0 0 0 .427-.654c.267-.474.493-.969.676-1.48l.427-1.125c.263-.712.349-.996.52-1.075a.918.918 0 0 1 .384 0c.201.014.403.014.605 0 0-.092.035-.178.057-.27a4.37 4.37 0 0 0 .1-1.993 1.85 1.85 0 0 0-.499-1.025 3.204 3.204 0 0 1-.427-.598c-.306-.583-.712-1.544-.996-2.327a12.67 12.67 0 0 0-.534-1.245 6.033 6.033 0 0 0-.94.2c-.819.235-1.66.38-2.512.433-1.032.079-2.882-.142-2.547-1.565.313-1.281 1.928-2.463 3.188-3.388l.548-.405.249-.193c.12-.101.246-.196.377-.284a4.649 4.649 0 0 0-.15-1.78c-.163-.526-.305-.967-.462-1.458-.32-.947-.712-1.88-1.089-2.769l-.092-.213c-.57-1.288-1.09-2.47-1.616-3.765v-.071c-.363-.868-.754-1.808.37-2.647h.043a53.295 53.295 0 0 1 7.764-5.124A29.362 29.362 0 0 1 41.8 16.96ZM71.241 38.588a8.288 8.288 0 0 1-1.174-1.935 9.024 9.024 0 0 1-.427-5.473c.147-.802.43-1.572.84-2.277.605.569 1.473 3.323 1.615 4.504.125.97.125 1.95 0 2.918-.071.584-.534 2.043-.854 2.263ZM28.385 65.026l-.057-.05a2.642 2.642 0 0 0-.605-.44c-1.58-.912-2.918-.712-4.52-.2a.844.844 0 0 1-.177.071l-.071.057a4.932 4.932 0 0 0 2.612 1.694 3.97 3.97 0 0 0 2.668-.27c.242-.084.462-.223.64-.406a1.806 1.806 0 0 0-.49-.456ZM33.509 69.062a4.163 4.163 0 0 0-2.456-1.139 4.789 4.789 0 0 0-1.85.185h-.078a4.792 4.792 0 0 0-1.366.562c.341.64 1.814 1.424 2.725 1.552a4.268 4.268 0 0 0 3.252-.876.356.356 0 0 0-.156-.249l-.071-.035ZM25.29 61.653c-.19-.51-.454-.99-.784-1.423a5.728 5.728 0 0 0-4.519-1.986c.173.55.443 1.063.797 1.516a4.903 4.903 0 0 0 2.577 1.879 4.447 4.447 0 0 0 1.764.071h.1l.064-.057ZM67.042 64.464a5.082 5.082 0 0 0-4.86.072 3.557 3.557 0 0 0-1.104.989c.422.351.923.596 1.46.711.619.153 1.266.153 1.885 0 .876-.242 2.37-1.117 2.62-1.772ZM30.306 64.365a6.542 6.542 0 0 0-.377-1.936c-.285-.804-1.28-2.406-1.936-2.605a9.393 9.393 0 0 0 .264 4.085c.179.535.417 1.048.711 1.53.192.292.712.982 1.068 1.06.212-.69.304-1.412.27-2.134ZM62.189 68.677a4.115 4.115 0 0 0-1.423-.605 4.555 4.555 0 0 0-3.38.335c-.455.22-.851.541-1.16.94.136.185.324.326.54.405a.432.432 0 0 1 .1.05c.788.43 1.695.59 2.583.455.89-.199 2.47-.96 2.74-1.58ZM61.349 60.308a6.497 6.497 0 0 0-1.423 6.142c.448-.036 1.245-1.295 1.515-1.8a6.526 6.526 0 0 0 .62-2.705 9.108 9.108 0 0 0-.072-2.135c-.21.073-.39.21-.519.391l-.121.107ZM21.233 54.273a5.33 5.33 0 0 0-2.584-1.935 6.022 6.022 0 0 0-1.779-.385c.146.577.387 1.125.712 1.623a4.59 4.59 0 0 0 4.34 2.32 4.27 4.27 0 0 0-.69-1.623ZM19.824 50.039a5.693 5.693 0 0 0-1.26-3.466c-.7-.86-1.6-1.535-2.619-1.971a6.568 6.568 0 0 0 1.174 3.615c.57.783 1.922 1.915 2.705 1.822ZM67.932 44.438a6.257 6.257 0 0 0-.406 1.915c-.06.716.001 1.438.178 2.134.214.876 1.189 2.74 1.722 2.776a4.781 4.781 0 0 0 .356-1.971 7.367 7.367 0 0 0-.583-2.847 7.55 7.55 0 0 0-1.267-2.007ZM26.143 62.28a6.54 6.54 0 0 0 .498-3.922c-.178-.932-.84-2.704-1.459-3.046l-.163.42a9.58 9.58 0 0 0-.285 3.559c.094.592.27 1.17.52 1.715.142.355.569 1.224.89 1.273ZM68.807 38.745a7.252 7.252 0 0 0 .05 4.085c.306.84 1.195 2.384 1.85 2.626a3.936 3.936 0 0 0 .27-1.644 7.117 7.117 0 0 0-.661-2.99 9.1 9.1 0 0 0-.655-1.11l-.185-.255a3.168 3.168 0 0 1-.206-.285l-.043-.05a.89.89 0 0 0-.42-.377ZM66.672 59.155c-.768.498-1.836 1.623-1.978 2.484h.192a4.268 4.268 0 0 0 3.181-.84c.662-.512 1.85-2.028 1.886-2.626a5.615 5.615 0 0 0-3.28.982ZM69.84 53.12c-.748.57-1.78 1.808-1.837 2.755a4.086 4.086 0 0 0 3.31-1.096c.618-.563 1.672-2.022 1.722-2.847a6.227 6.227 0 0 0-3.196 1.188ZM66.601 50.039a6.968 6.968 0 0 0-.107 5.693c.157.349.584 1.203.904 1.317a5.695 5.695 0 0 0 .59-2.612v-.036a7.864 7.864 0 0 0-.448-2.519 7.116 7.116 0 0 0-.427-1.039 6.787 6.787 0 0 0-.206-.398l-.043-.072v-.042a.511.511 0 0 0-.263-.292ZM71.405 46.573a5.928 5.928 0 0 0-1.246 3.487 3.651 3.651 0 0 0 1.544-.711 6.162 6.162 0 0 0 2.335-4.761c-.59.057-2.135 1.33-2.633 1.985ZM63.292 60.579c.07.604.264 1.188.569 1.715.375-.374.67-.82.868-1.31.23-.544.385-1.116.463-1.7.142-.911-.036-3.388-.406-3.972h-.085a.444.444 0 0 1-.071.1 6.802 6.802 0 0 0-1.338 5.167ZM20.322 44.317a5.935 5.935 0 0 0 1.067-3.558 11.046 11.046 0 0 0-.178-1.879l-.107-.135c-.378.376-.705.8-.975 1.26a7.687 7.687 0 0 0-1.16 3.394c-.07.696.015 1.398.25 2.057.305-.05.96-.94 1.103-1.139ZM22.265 48.509a7.714 7.714 0 0 0-.214-4.07c-.375.4-.688.856-.925 1.351a7.194 7.194 0 0 0-.947 3.63 3.75 3.75 0 0 0 .356 1.914c.534-.164 1.516-1.971 1.73-2.825ZM72.9 37.841a6.747 6.747 0 0 0-1.552 5.252c.32.05.975-.633 1.217-.882l.05-.05a5.765 5.765 0 0 0 1.423-3.174 9.96 9.96 0 0 0 0-2.206.271.271 0 0 0-.278.135l-.078.085-.278.264a4.6 4.6 0 0 0-.505.576ZM23.987 53.96a7.828 7.828 0 0 0-.584-3.9c-.114 0-.142.072-.185.164l-.064.128-.107.178c0 .05-.064.1-.106.185-.712 1.566-1.16 2.79-.89 4.69.047.59.23 1.163.534 1.672a5.04 5.04 0 0 0 .89-1.366 5.772 5.772 0 0 0 .512-1.75ZM17.973 39.243c-.32-.64-1.565-2.334-2.064-2.44a6.917 6.917 0 0 0 .499 3.992c.377.84 1.565 2.312 2.206 2.334a6.589 6.589 0 0 0-.64-3.886ZM34.057 66.108c-.463-.605-1.687-1.807-2.633-1.9a8.198 8.198 0 0 0 1.195 3.558c.356.57 1.637 2.064 2.562 1.993a6.454 6.454 0 0 0-1.124-3.65ZM57.08 64.955a5.865 5.865 0 0 0-2.243 4.854c1.032-.164 2.135-1.295 2.562-2.064a8.86 8.86 0 0 0 1.189-3.558 3.694 3.694 0 0 0-1.509.768ZM20.521 34.12a9.252 9.252 0 0 0-.2-2.919 8.123 8.123 0 0 0-.818-2.298 9.13 9.13 0 0 0-.996 2.063 10.327 10.327 0 0 0-.619 5.395c.122.79.4 1.547.818 2.227.241-.237.443-.51.598-.811l.057-.1a8.005 8.005 0 0 0 1.16-3.558Z"/><path fill="#701C2B" d="M50.318 68.877a6.405 6.405 0 0 0-1.6 3.117h-1.14c-.05-.15-.078-.285-.113-.427a3.085 3.085 0 0 0-.207-.648 2.69 2.69 0 0 0-2.277-1.573c-.67.047-1.3.341-1.765.826a2.898 2.898 0 0 0-.712 1.366 2 2 0 0 1-.156.47h-1.09c-.042-.107-.077-.256-.127-.413a3.446 3.446 0 0 0-.157-.498 5.303 5.303 0 0 0-1.33-2.135 5.038 5.038 0 0 0-3.153-1.423 8.14 8.14 0 0 0 1.48 2.846 5.03 5.03 0 0 0 1.78 1.367c.073.031.15.057.227.078.166.035.323.103.462.2-.383.085-.778.1-1.167.042h-.128a.444.444 0 0 1-.05-.121s0-.043-.128-.157a4.013 4.013 0 0 0-2.135-.832 5.693 5.693 0 0 0-3.843 1.074l-.085.05c1.687 1.573 3.715 1.936 6.085 1.189l3.558.142c.068.098.125.203.17.313.063.146.137.286.221.42a2.455 2.455 0 0 0 4.413-.747c.711-.05 1.53 0 2.313 0h1.124c1.993.968 4.056.512 6.192-1.317a5.082 5.082 0 0 1-.584-.299 5.288 5.288 0 0 0-3.295-.825 4.27 4.27 0 0 0-2.135.875c-.121.121-.107.178-.107.178l-1.174.071h-.093l.712-.327.1-.057c.181-.094.357-.199.526-.313a6.25 6.25 0 0 0 1.88-2.384c.275-.467.483-.97.618-1.495a4.981 4.981 0 0 0-3.11 1.367Z"/></svg>