<svg width="90" height="90" viewBox="0 0 90 90" fill="none" xmlns="http://www.w3.org/2000/svg">
<circle cx="45" cy="45" r="45" fill="#EFEFEF"/>
<g clip-path="url(#clip0_583_488)">
<path d="M28 69.1301V21.6C28 21.5204 28.0159 21.4416 28.0467 21.3681C28.0774 21.2946 28.1225 21.228 28.1792 21.1722C28.236 21.1163 28.3033 21.0723 28.3772 21.0428C28.4512 21.0132 28.5303 20.9987 28.6099 21.0001H48.3201C51.4521 20.9102 54.5711 21.4369 57.5 22.5501C59.745 23.4045 61.6819 24.9128 63.0601 26.8801C64.3248 28.7862 64.9771 31.033 64.93 33.32C64.9688 35.0588 64.5663 36.779 63.76 38.32C62.9398 39.7242 61.8487 40.9514 60.5501 41.9301C59.088 42.9564 57.4978 43.7868 55.8201 44.4001C57.742 44.488 59.6146 45.0367 61.2801 46.0001C62.9393 46.9619 64.3182 48.3408 65.2801 50.0001C66.3314 51.8576 66.8569 53.9664 66.8001 56.1C66.8409 58.5799 66.1448 61.0161 64.8001 63.1C63.3756 65.2351 61.37 66.9179 59.0201 67.95C56.1289 69.2135 52.994 69.8214 49.8401 69.73H28.5801C28.4245 69.7248 28.277 69.6594 28.1687 69.5474C28.0605 69.4355 27.9999 69.2858 28 69.1301ZM39.7801 40.3701C39.7801 40.5451 39.8496 40.713 39.9734 40.8367C40.0972 40.9605 40.2649 41.0301 40.44 41.0301H46.3001C47.4751 41.0534 48.6424 40.8355 49.73 40.3901C50.6717 40.0065 51.4839 39.361 52.0701 38.5301C52.6462 37.6675 52.9396 36.6469 52.9099 35.61C52.9449 34.876 52.8064 34.1441 52.5059 33.4734C52.2053 32.8028 51.7511 32.2125 51.18 31.7501C49.8251 30.7561 48.1681 30.2614 46.49 30.35H40.44C40.2649 30.35 40.0972 30.4196 39.9734 30.5434C39.8496 30.6672 39.7801 30.835 39.7801 31.0101V40.3701ZM39.7801 59.58C39.7827 59.7533 39.8533 59.9187 39.9768 60.0403C40.1003 60.162 40.2666 60.2301 40.44 60.23H47.0601C49.6201 60.23 51.5033 59.7468 52.71 58.7801C53.3062 58.3032 53.7817 57.6925 54.0979 56.9975C54.4141 56.3025 54.5622 55.5429 54.5301 54.7801C54.5627 53.6338 54.2565 52.5033 53.6499 51.5301C53.0399 50.5958 52.1713 49.8592 51.1499 49.4101C49.93 48.881 48.6093 48.625 47.2801 48.6601H40.44C40.2657 48.6627 40.0993 48.733 39.9761 48.8563C39.8529 48.9795 39.7826 49.1458 39.7801 49.32V59.58Z" fill="#E20B12"/>
</g>
<defs>
<clipPath id="clip0_583_488">
<rect width="38.83" height="48.73" fill="white" transform="translate(28 21)"/>
</clipPath>
</defs>
</svg>
