<svg width="90" height="90" viewBox="0 0 90 90" fill="none" xmlns="http://www.w3.org/2000/svg">
<circle cx="45" cy="45" r="45" fill="url(#paint0_linear_252_858)"/>
<path fill-rule="evenodd" clip-rule="evenodd" d="M45.3321 24.1119C32.1288 25.7801 23.2236 37.1406 23.0029 50.5742C22.8352 61.0147 29.8782 68.0044 40.6677 68C55.9141 67.9868 66.1343 56.0409 66.3947 41.3089C66.452 37.8976 65.693 34.7285 64.1706 32.0479L52.9354 37.4927C53.3591 38.7163 53.54 40.0676 53.5179 41.4145C53.4032 48.5582 49.3301 58.4794 42.5829 58.4926C37.7728 58.5014 35.8003 54.65 35.8929 50.2925C36.0518 42.5457 40.1469 34.2091 46.9957 33.4036L46.3558 36.9161L70 23.8742L43.5404 21L45.3321 24.1119Z" fill="white"/>
<defs>
<linearGradient id="paint0_linear_252_858" x1="45" y1="0" x2="45" y2="90" gradientUnits="userSpaceOnUse">
<stop stop-color="#2F81F6"/>
<stop offset="1" stop-color="#4AA5F8"/>
</linearGradient>
</defs>
</svg>
