<svg width="90" height="90" viewBox="0 0 90 90" fill="none" xmlns="http://www.w3.org/2000/svg">
<g clip-path="url(#clip0_2420_1482)">
<circle cx="45" cy="45" r="45" fill="#F5F5F5"/>
<mask id="mask0_2420_1482" style="mask-type:luminance" maskUnits="userSpaceOnUse" x="19" y="19" width="52" height="52">
<path d="M19 19H71V71H19V19Z" fill="white"/>
</mask>
<g mask="url(#mask0_2420_1482)">
<path d="M45 19C51.5687 19 57.5673 21.4366 62.1451 25.4536L57.1216 29.725C53.6769 26.9831 49.4027 25.4933 45 25.5C34.2304 25.5 25.5 34.2304 25.5 45C25.5 55.7696 34.2304 64.5 45 64.5C49.5797 64.5 53.7917 62.9214 57.1197 60.2769L62.1433 64.5483C57.4055 68.7152 51.3095 71.0094 45 71C30.6406 71 19 59.3594 19 45C19 30.6406 30.6406 19 45 19Z" fill="#67A42B"/>
<path d="M62.0299 54.503C63.6543 51.5987 64.5048 48.3257 64.4999 44.9981C64.4999 41.5494 63.6029 38.3087 62.0318 35.4988L67.0553 31.2274C69.6401 35.3555 71.0074 40.1294 70.9999 45C70.9999 50.0588 69.555 54.7815 67.0553 58.7744L62.0299 54.503Z" fill="#F0851A"/>
<path d="M45.0002 56.1429C51.1542 56.1429 56.143 51.1541 56.143 45C56.143 38.846 51.1542 33.8572 45.0002 33.8572C38.8461 33.8572 33.8573 38.846 33.8573 45C33.8573 51.1541 38.8461 56.1429 45.0002 56.1429Z" fill="#7FB344"/>
</g>
</g>
<defs>
<clipPath id="clip0_2420_1482">
<rect width="90" height="90" fill="white"/>
</clipPath>
</defs>
</svg>
