<svg width="90" height="90" viewBox="0 0 90 90" fill="none" xmlns="http://www.w3.org/2000/svg">
<circle cx="45" cy="45" r="45" fill="#F5F5F5"/>
<path fill-rule="evenodd" clip-rule="evenodd" d="M27.4957 51.509C26.3521 50.7623 25.4137 49.7449 24.765 48.5485C24.1163 47.3522 23.7778 46.0144 23.7799 44.6558C23.7468 40.035 27.2972 36.2843 31.6801 36.2843C34.0039 36.2843 36.8927 37.4251 37.7886 39.6H43.128C42.0998 35.4143 36.9892 32 31.6801 32C28.3088 32.013 25.0803 33.3529 22.7031 35.7255C20.3259 38.0981 18.9942 41.3098 19 44.6558C19.0167 47.2392 19.8438 49.7533 21.3663 51.8488C22.8888 53.9443 25.0311 55.5171 27.4957 56.3486V51.509Z" fill="#2156DF"/>
<path fill-rule="evenodd" clip-rule="evenodd" d="M63.6919 56.6221H67.9728V46.8444C67.9728 44.601 69.7452 42.7599 71.9174 42.7599V38.6397C70.4812 38.6397 68.7088 39.4112 67.9728 40.3824V39.1431H63.6919V56.6221Z" fill="#2156DF"/>
<path fill-rule="evenodd" clip-rule="evenodd" d="M57.5363 39.414V41.1321C56.4337 39.9092 54.1596 38.9161 52.4395 38.9161C47.3427 38.9161 43.4036 43.0198 43.4036 48.0126C43.4036 53.0656 47.3427 57.1693 52.4395 57.1693C54.2919 57.1693 56.5743 56.1762 57.5363 54.9506V56.6714H61.7731V39.414H57.5363ZM52.6297 43.017C55.3449 43.017 57.5281 45.2686 57.5281 48.0454C57.5281 50.8223 55.3532 53.0656 52.671 53.0656C49.9889 53.0656 47.8058 50.825 47.8058 48.0454C47.8058 45.2659 49.9559 43.017 52.6297 43.017Z" fill="#2156DF"/>
<path fill-rule="evenodd" clip-rule="evenodd" d="M28.3225 52.8796V55.2105C28.3666 55.3063 28.3749 55.4431 28.4107 55.5498C28.5871 56.0969 28.7911 55.9957 28.7911 56.3869C28.7911 56.8301 28.7084 57.3417 29.1963 57.6016C29.4306 57.7275 30.3734 57.7439 30.6766 57.681C31.1424 57.5879 31.3189 57.2706 31.3299 56.7344H39.8559C39.8338 56.9669 39.8911 57.2001 40.0185 57.3964C40.4127 57.9436 41.8599 57.67 41.9977 57.5961C42.4387 57.3417 42.3836 56.9396 42.3864 56.3596C42.3768 56.3042 42.3819 56.2474 42.4012 56.1946C42.4206 56.1418 42.4534 56.0949 42.4966 56.0586C42.6755 55.8055 42.7977 55.5172 42.855 55.2133V52.8386L42.8329 52.7921C42.8262 52.777 42.8207 52.7615 42.8164 52.7456L42.7502 52.472C42.7186 52.3555 42.679 52.2412 42.6317 52.13C42.356 51.4269 41.9894 51.178 41.5291 50.7184C41.5291 50.7184 41.4877 50.6746 41.4767 50.6582C41.4599 50.643 41.4468 50.6243 41.4381 50.6034C41.7937 50.4338 41.9205 50.4256 42.1355 50.163C42.1909 50.1124 42.2336 50.0497 42.2603 49.98C42.2871 49.9102 42.2971 49.8351 42.2896 49.7608C42.2822 49.6865 42.2574 49.615 42.2172 49.5518C42.1771 49.4887 42.1227 49.4357 42.0583 49.397C41.7761 49.2392 41.4518 49.1714 41.1294 49.2027C40.7572 49.2328 40.647 49.4407 40.6167 49.8019L39.7318 48.962C39.4785 48.6477 39.161 48.3904 38.8001 48.2069C38.3535 47.999 37.794 48.0537 37.262 48.0537H33.8852C33.3615 48.0537 32.8184 48.0017 32.3774 48.2069C32.0101 48.3926 31.6876 48.6549 31.4319 48.9756L30.5608 49.7964C30.5277 49.4243 30.4147 49.2164 30.0233 49.1972C29.2625 49.1562 28.5403 49.5611 29.053 50.1712C29.268 50.4256 29.3948 50.4448 29.7366 50.598L29.6787 50.6773C29.5354 50.836 29.2074 51.1123 29.0447 51.3038L28.8463 51.5774C28.3446 52.3516 28.4741 52.5595 28.3225 52.8796ZM30.6518 50.7922C30.7125 50.7059 30.7881 50.6309 30.8751 50.5706C30.9522 50.5022 31.0156 50.4338 31.0901 50.36L31.9694 49.5091C32.6916 48.7841 32.6282 48.8416 33.899 48.8416H37.3198C38.6099 48.8416 38.5134 48.8142 39.2494 49.5365C39.3983 49.6842 39.5251 49.8101 39.6905 49.9523L40.3327 50.598C40.4149 50.654 40.4852 50.7256 40.5395 50.8086L30.6518 50.7922ZM30.2521 53.6812C29.9567 53.7094 29.6587 53.6787 29.3755 53.5909C28.6478 53.2517 28.8077 51.9932 29.7504 51.9932C30.1942 51.9932 32.1761 53.1559 31.4484 53.5335C31.0627 53.6578 30.6567 53.708 30.2521 53.6812V53.6812ZM41.3278 52.0124C41.9122 51.8619 42.4305 52.5595 42.1851 53.1587C41.9398 53.7578 41.3361 53.7058 40.5312 53.6785C40.2556 53.6785 39.7814 53.6238 39.6271 53.476C39.2301 53.0657 40.7104 52.1738 41.3278 52.0124ZM37.9345 54.4746C37.1517 54.4746 36.3606 54.4746 35.5777 54.4746C34.7949 54.4746 34.001 54.4746 33.2209 54.4746C32.5455 54.4746 32.2781 53.7633 32.2561 53.0684H38.9186C38.8883 53.766 38.6182 54.4637 37.9456 54.4746H37.9345ZM32.5262 55.0546H38.6512C38.649 55.1838 38.6179 55.3109 38.5602 55.4268C38.5025 55.5427 38.4197 55.6445 38.3177 55.7249C38.0669 55.9109 37.8849 55.9027 37.5183 55.9027H33.6288C33.3512 55.9458 33.0677 55.8779 32.8405 55.7139C32.7446 55.6319 32.6672 55.5308 32.613 55.4173C32.5589 55.3037 32.5293 55.1802 32.5262 55.0546V55.0546ZM39.186 55.9082C39.437 55.5758 39.7048 55.2563 39.9882 54.9506C40.0984 54.833 40.1012 54.7071 40.3272 54.7071H41.7551C41.8764 54.9807 41.9674 55.2352 41.7331 55.5279C41.5352 55.7202 41.2835 55.8489 41.0108 55.8972L39.186 55.9082ZM30.1666 55.9082C29.8878 55.8594 29.6308 55.7267 29.4306 55.5279C29.2101 55.2215 29.3066 54.9807 29.4306 54.7071H30.831C31.1066 54.7071 31.1287 54.8904 31.4705 55.2543C31.5614 55.3501 31.6552 55.4786 31.7461 55.5826C31.8529 55.6788 31.9457 55.7893 32.0218 55.9109L30.1666 55.9082Z" fill="#2156DF"/>
</svg>
