<svg width="90" height="90" fill="none" xmlns="http://www.w3.org/2000/svg"><circle cx="45" cy="45" r="45" fill="#F5F5F5"/><g clip-path="url(#a)"><path d="M80.913 42.366 47.637 9.09a3.734 3.734 0 0 0-5.272 0L9.101 42.366a3.735 3.735 0 0 0 0 5.273l33.276 33.274a3.734 3.734 0 0 0 5.272 0L80.913 47.64a3.735 3.735 0 0 0 0-5.273Zm-10.785 8.246v3.932l-.78.13c-1.08.18-2.183.18-3.264 0l-.78-.13v-3.932l-.594-1.03-1.559 1.574c.26.7.416 1.435.463 2.18l.044.671-.622.255a10.388 10.388 0 0 1-3.608.647L45.001 69.464 27.9 52.21a6.65 6.65 0 0 1-1.942-.113l-.507-.109-.393-.087-.072 2.647-.756.127a9.35 9.35 0 0 1-3.15 0l-.812-.136.592-14.525.759-.118a11.206 11.206 0 0 1 3.45 0l.537.084.104.018 6.107-6.163c-.094-.576-.14-1.16-.139-1.743 0-3.545 1.88-7.685 7.169-7.685.704 0 1.407.072 2.097.213l4.056-4.082 7.67 7.74c.729-.074 1.869-.18 2.352-.18h.058c.127 0 .34-.016.615-.016 3.265 0 5.214 1.514 5.214 4.054a4.065 4.065 0 0 1-.934 2.661l.925 1.783 7.631 7.699.412-.713.432-.074c1.118-.18 2.258-.18 3.376 0l1.337.215-3.959 6.905Z" fill="#FC0"/><path d="M38.813 38.759c-2.971 0-6.197-1.728-6.197-6.677 0-2.775 1.343-6.752 6.243-6.752a8.415 8.415 0 0 1 3.31.629 7.807 7.807 0 0 1-.743 2.595s-5.501-2.366-5.501 3.542c0 5.795 5.638 3.45 5.638 3.45.412.817.675 1.7.777 2.609a9.38 9.38 0 0 1-3.527.604Zm9.312-6.21c0-.64-.28-1.204-1.762-1.204a7.137 7.137 0 0 0-2.296.423 5.29 5.29 0 0 1-.557-2.188s7.342-2.557 7.342 3.284v5.319s-7.962 2.426-7.962-2.648c0-2.884 3.085-2.979 5.235-2.979v-.006Zm-2.652 2.919c0 1.619 2.648 1.003 2.648 1.003v-2.08c-.925 0-2.646-.133-2.646 1.084l-.002-.007Zm-15.206 5.344-2.715 6.873-2.623-6.873a10.377 10.377 0 0 0-3.165 0l-.525 12.95c.94.16 1.9.16 2.84 0l.198-7.44.093-.013 1.785 4.88a5.598 5.598 0 0 0 2.352 0l1.998-4.954.092.016.255 7.511c.995.16 2.01.16 3.006 0l-.618-12.95a9.019 9.019 0 0 0-2.971 0h-.002Zm24.826-9.435s.323-.028.585-.028c1.033 0 1.218.63 1.218 1.207 0 1.18-1.348 1.742-1.348 1.742l1.998 4.262c1.108.164 2.234.164 3.342 0l-2.07-3.964s1.156-.71 1.156-2.47c0-3.568-4.645-3.096-4.953-3.096-.666 0-2.881.231-2.881.231v9.292a8.89 8.89 0 0 0 2.948 0l.005-7.176ZM44.039 49.144c0 3.469-2.171 4.84-4.655 4.84-2.483 0-4.638-1.371-4.638-4.84s2.13-4.93 4.638-4.93c2.51 0 4.655 1.457 4.655 4.93Zm-2.967-.04c0-.841-.164-2.564-1.688-2.564-1.523 0-1.67 1.73-1.67 2.565s.08 2.557 1.67 2.557c1.591 0 1.688-1.718 1.688-2.557Zm31.547-4.682a9.712 9.712 0 0 0-3.083 0l-1.817 3.166-1.818-3.166a9.712 9.712 0 0 0-3.082 0l3.422 5.94v3.39a8.94 8.94 0 0 0 2.957 0v-3.39l3.42-5.94Zm-9.407 4.135c-.017.492-.06.983-.13 1.47h-5.575s.074 1.46 1.9 1.46c.911 0 1.813-.172 2.66-.507a6.51 6.51 0 0 1 .615 2.412 9.48 9.48 0 0 1-3.263.583c-2.643 0-4.9-1.217-4.9-4.815 0-2.312 1.156-4.949 4.625-4.949 2.849.003 4.068 2.179 4.068 4.346Zm-2.701-.523s-.021-1.591-1.471-1.591c-1.52 0-1.547 1.591-1.547 1.591h3.018Zm-15.336-3.21v8.929a8.983 8.983 0 0 0 2.985 0v-6.878c.255-.043.512-.07.77-.078.937 0 1.515.344 1.515 1.873v5.087a9.108 9.108 0 0 0 2.985 0V48.11c-.002-5.857-8.255-3.286-8.255-3.286Z" fill="#000"/></g><defs><clipPath id="a"><path fill="#fff" transform="translate(8 8)" d="M0 0h74v74H0z"/></clipPath></defs></svg>