<svg width="90" height="90" fill="none" xmlns="http://www.w3.org/2000/svg"><circle cx="45" cy="45" r="45" fill="#F6C289"/><g clip-path="url(#a)"><path fill-rule="evenodd" clip-rule="evenodd" d="M56.118 23.586c1.289 0 2.534.508 3.436 1.397l11.939 11.765a4.753 4.753 0 0 1 0 6.771L46.971 67.683a4.913 4.913 0 0 1-3.436 1.397 4.914 4.914 0 0 1-3.435-1.397L28.16 55.92a4.753 4.753 0 0 1 0-6.771l24.523-24.165a4.914 4.914 0 0 1 3.435-1.397Zm7.43 12.442c-.258 0-.558-.084-.773-.296l-4.724-4.655c-.43-.423-.43-1.1 0-1.481.43-.423 1.116-.423 1.503 0l4.724 4.655c.43.423.43 1.1 0 1.481-.172.17-.472.296-.73.296Zm3.006.847c0 .584-.48 1.058-1.074 1.058a1.066 1.066 0 0 1-1.073-1.058c0-.584.48-1.058 1.073-1.058s1.074.474 1.074 1.058Z" fill="#40BAB5"/><path d="m17.855 43.857 6.987 6.886a6.88 6.88 0 0 1 1.817-3.077l9.89-9.764c-3.114-.518-6.42-1.984-7.4-2.763l1.374-1.65c1.117.889 6.7 3.09 9.32 2.327l.73-.211.43.592c3.564 4.698 10.95 4.867 12.668 4.317.344-.127.43-.381.473-.508.043-.127.086-.423-.215-.72l-9.412-9.253-.073-.07-6.233-6.165c-1.16-1.143-2.663-1.693-4.209-1.693-1.503 0-3.049.55-4.208 1.693l-11.94 11.807a5.84 5.84 0 0 0 0 8.252Z" fill="#F9A056"/><path d="m39.753 38.063-.039-.046-.022.003.06.043ZM40.53 62.181a2.425 2.425 0 0 1 1.718-.719c.644 0 1.245.212 1.718.72l3.178 3.131a2.376 2.376 0 0 1 0 3.386l-.516.508a2.462 2.462 0 0 1-3.435 0l-3.178-3.132a2.377 2.377 0 0 1 0-3.386l.515-.508ZM46.07 56.045c-.73 0-1.417.254-1.975.804-1.074 1.058-1.074 2.836 0 3.894l4.294 4.232c1.074 1.058 2.877 1.058 3.951 0 1.074-1.058 1.074-2.836 0-3.894l-4.294-4.232c-.559-.508-1.246-.804-1.976-.804ZM48.604 51.136a2.747 2.747 0 0 1 1.975-.804c.73 0 1.46.296 1.976.804l5.282 5.205c1.074 1.058 1.074 2.836 0 3.894-1.074 1.058-2.877 1.058-3.95 0l-5.283-5.206c-1.074-1.058-1.074-2.835 0-3.893ZM56.291 46.65c-.73 0-1.417.254-1.975.804-1.074 1.058-1.074 2.836 0 3.894l4.295 4.232c1.073 1.058 2.877 1.058 3.95 0 1.074-1.058 1.074-2.836 0-3.894l-4.294-4.232c-.558-.508-1.245-.804-1.976-.804Z" fill="#F9A056"/><path d="M62.775 35.732c.215.212.516.296.773.296.258 0 .559-.127.73-.296.43-.38.43-1.058 0-1.481l-4.724-4.655c-.386-.424-1.073-.424-1.503 0-.43.38-.43 1.058 0 1.48l4.724 4.656ZM66.555 36.875c0 .584-.481 1.058-1.074 1.058a1.066 1.066 0 0 1-1.074-1.058c0-.585.48-1.058 1.074-1.058.593 0 1.074.473 1.074 1.058Z" fill="#00475D"/><path fill-rule="evenodd" clip-rule="evenodd" d="m16.351 45.339 8.32 8.213a6.856 6.856 0 0 0 1.987 3.89l11.939 11.765a7.059 7.059 0 0 0 3.555 1.892c.801.609 1.794.901 2.758.901 1.16 0 2.362-.466 3.264-1.312l.515-.508a4.501 4.501 0 0 0 1.262-2.302c.138.011.276.017.413.017a4.943 4.943 0 0 0 3.522-1.439 4.828 4.828 0 0 0 1.448-3.329 5.082 5.082 0 0 0 4.049-1.369 4.825 4.825 0 0 0 1.445-3.264 4.932 4.932 0 0 0 3.279-1.433 4.828 4.828 0 0 0 1.32-4.56l7.57-7.459a6.826 6.826 0 0 0 0-9.776l-11.94-11.764c-1.33-1.354-3.134-2.032-4.938-2.032a6.978 6.978 0 0 0-4.939 2.032l-5.132 5.057-6.334-6.242c-3.135-3.09-8.289-3.09-11.424 0L16.351 34.082c-3.135 3.09-3.135 8.167 0 11.257Zm28.167-15.304v.001l-6.307-6.238c-1.16-1.142-2.663-1.693-4.209-1.693-1.503 0-3.05.55-4.209 1.693L17.854 35.605a5.84 5.84 0 0 0 0 8.253l6.988 6.885a6.88 6.88 0 0 1 1.816-3.077l9.906-9.762c-3.12-.515-6.434-1.985-7.415-2.764l1.374-1.65c.953.758 5.16 2.472 8 2.484.488.002.935-.046 1.32-.157l.73-.212.429.593a10.42 10.42 0 0 0 .13.167c3.611 4.534 10.842 4.693 12.539 4.15a.738.738 0 0 0 .472-.509c.043-.127.086-.423-.214-.719l-9.41-9.252Zm3.033.005 7.88 7.766c.73.72.988 1.693.774 2.666a2.763 2.763 0 0 1-1.89 2.031c-.558.254-1.589.381-2.791.381-3.436 0-8.633-1.1-11.81-4.867a6.877 6.877 0 0 1-.293.035L28.16 49.147a4.752 4.752 0 0 0 0 6.772l9.02 8.888a4.462 4.462 0 0 1 1.33-3.64l.515-.509a4.61 4.61 0 0 1 2.163-1.205 4.827 4.827 0 0 1 1.402-4.127 4.963 4.963 0 0 1 3.127-1.415 4.827 4.827 0 0 1 1.382-4.256 4.991 4.991 0 0 1 4.384-1.35 4.834 4.834 0 0 1 1.328-2.374 5.003 5.003 0 0 1 7 0l4.295 4.232c.108.107.21.218.307.332l7.08-6.976a4.752 4.752 0 0 0 0-6.771l-11.94-11.765a4.914 4.914 0 0 0-3.435-1.397 4.914 4.914 0 0 0-3.436 1.397l-5.132 5.057Zm-4.359 39.167c.945.93 2.491.93 3.436 0l.515-.508c.42-.414.653-.944.7-1.488a4.625 4.625 0 0 1-.958-.755l-4.294-4.232a4.917 4.917 0 0 1-.621-.746 2.44 2.44 0 0 0-1.44.704l-.516.508a2.376 2.376 0 0 0 0 3.385l3.178 3.132Zm5.982-3.694c1.035.47 2.324.29 3.166-.538a2.754 2.754 0 0 0 .703-2.696 4.606 4.606 0 0 1-.66-.563L47.1 56.553a4.959 4.959 0 0 1-.389-.43 2.71 2.71 0 0 0-.642-.078c-.73 0-1.417.254-1.975.804-1.074 1.059-1.074 2.836 0 3.894l4.295 4.232c.232.229.499.408.785.538Zm5.377-4.797a2.709 2.709 0 0 1-.665-.48l-5.283-5.206c-1.073-1.058-1.073-2.836 0-3.894a2.747 2.747 0 0 1 1.976-.804c.31 0 .619.054.912.154a4.835 4.835 0 0 0 1.321 2.343l4.295 4.232c.446.46.97.807 1.529 1.044a2.733 2.733 0 0 1-.8 2.13c-.275.272-.599.474-.946.606a2.903 2.903 0 0 1-2.339-.125Zm7.19-4.582c.3-.131.578-.316.82-.554 1.073-1.058 1.073-2.835 0-3.893l-4.295-4.232c-.558-.508-1.245-.804-1.975-.804s-1.417.253-1.976.803c-1.073 1.059-1.073 2.836 0 3.894l4.295 4.232c.11.108.226.205.35.29a2.887 2.887 0 0 0 2.781.264Z" fill="#00475D"/></g><defs><clipPath id="a"><path fill="#fff" transform="translate(14 20)" d="M0 0h62v52H0z"/></clipPath></defs></svg>