<svg width="90" height="90" viewBox="0 0 90 90" fill="none" xmlns="http://www.w3.org/2000/svg">
<circle cx="45" cy="45" r="45" fill="#EFEFEF"/>
<path d="M64.775 33.5688H26.9009C26.6697 33.5712 26.4404 33.5257 26.2274 33.4353C26.0143 33.3449 25.822 33.2113 25.6623 33.043C25.5026 32.8747 25.379 32.6751 25.299 32.4567C25.2191 32.2383 25.1846 32.0057 25.1976 31.7734L25.7678 21.6041C25.792 21.1714 25.9796 20.7643 26.2921 20.4661C26.6047 20.1679 27.0185 20.0012 27.4491 20H65.3232C65.5519 20.0007 65.7781 20.0481 65.9881 20.1395C66.198 20.2308 66.3874 20.3641 66.5446 20.5313C66.7018 20.6985 66.8237 20.8961 66.9027 21.1122C66.9818 21.3282 67.0164 21.5582 67.0046 21.7881L66.4563 31.9573C66.4339 32.3914 66.2471 32.8003 65.9344 33.1C65.6217 33.3998 65.2068 33.5675 64.775 33.5688V33.5688Z" fill="#01D435"/>
<path d="M63.5688 51.7807H25.6947C25.466 51.78 25.2398 51.7326 25.0298 51.6413C24.8199 51.5499 24.6305 51.4166 24.4733 51.2494C24.3161 51.0822 24.1943 50.8846 24.1152 50.6685C24.0361 50.4525 24.0015 50.2226 24.0134 49.9926L24.5616 39.8234C24.5841 39.3893 24.7708 38.9804 25.0835 38.6807C25.3963 38.381 25.8112 38.2132 26.243 38.2119H64.117C64.3464 38.2125 64.5732 38.2602 64.7837 38.352C64.9942 38.4438 65.1839 38.5778 65.3412 38.7458C65.4985 38.9138 65.6202 39.1123 65.6988 39.3292C65.7774 39.5461 65.8113 39.7768 65.7984 40.0074L65.2501 50.1692C65.2277 50.6033 65.0409 51.0122 64.7282 51.3119C64.4155 51.6117 64.0006 51.7794 63.5688 51.7807V51.7807Z" fill="#01D435"/>
<path d="M62.56 70.0368H24.6932C24.4603 70.0364 24.2299 69.9877 24.0164 69.8938C23.803 69.7998 23.6111 69.6626 23.4526 69.4907C23.2942 69.3188 23.1726 69.1159 23.0956 68.8946C23.0185 68.6733 22.9875 68.4384 23.0046 68.2046L23.5528 58.0353C23.5771 57.6013 23.7657 57.1932 24.0798 56.8948C24.3939 56.5964 24.8096 56.4305 25.2415 56.4312H63.1082C63.3376 56.4309 63.5646 56.4776 63.7754 56.5685C63.9862 56.6594 64.1764 56.7926 64.3344 56.9599C64.4924 57.1272 64.6149 57.3251 64.6944 57.5417C64.7739 57.7582 64.8088 57.9888 64.7969 58.2193L64.2486 68.3885C64.2353 68.8304 64.0515 69.2496 63.7363 69.5573C63.421 69.865 62.9991 70.037 62.56 70.0368V70.0368Z" fill="#01D435"/>
</svg>
