<svg width="90" height="90" viewBox="0 0 90 90" fill="none" xmlns="http://www.w3.org/2000/svg">
<circle cx="45" cy="45" r="45" fill="#EFEFEF"/>
<g clip-path="url(#clip0_591_289)">
<path d="M74.619 26.2395V26.1836H71.8144L67.1401 26.1117V26.2075L59.9489 26.2555L50.7285 26.1196L50.5685 25.984L50.3687 26.3112H50.3209V26.3672L37.6005 46.9722L41.5956 26.2155L31.7118 26.0719L27.7885 48.3453H26.8777C25.8056 48.3166 24.7485 48.0863 23.7616 47.6667C23.2353 47.4475 22.765 47.1128 22.386 46.6871C22.007 46.2614 21.7289 45.7558 21.5723 45.2079C21.2504 43.8411 21.2123 42.4228 21.4604 41.0407L23.6977 26.0959L14.3012 25.952L12.2957 40.9208C11.9696 42.9087 11.9995 44.9387 12.3837 46.9163C12.6761 48.4076 13.3474 49.7987 14.3332 50.9559C15.3001 52.0342 16.5187 52.857 17.8808 53.3509C19.4452 53.9135 21.0858 54.2364 22.7469 54.3089C24.0783 54.3806 25.4131 54.3619 26.742 54.2529L23.6257 71.9681H32.8384L46.1021 51.1635L42.4346 71.9681H51.6392L58.6546 35.3165L65.5261 35.3804L59.0781 71.9681H68.2908L77.04 26.2395H74.619Z" fill="#50CBEB"/>
</g>
<defs>
<clipPath id="clip0_591_289">
<rect width="65" height="46" fill="white" transform="translate(12 26)"/>
</clipPath>
</defs>
</svg>
