<svg width="90" height="90" viewBox="0 0 90 90" fill="none" xmlns="http://www.w3.org/2000/svg">
<circle cx="45" cy="45" r="45" fill="#EFEFEF"/>
<g clip-path="url(#clip0_572_341)">
<path d="M31.3347 43.2769C31.1577 43.0751 30.94 42.9134 30.696 42.8025C30.452 42.6916 30.1873 42.6341 29.9194 42.6338C29.6411 42.63 29.3651 42.6851 29.1094 42.7954C28.8537 42.9057 28.624 43.0688 28.4352 43.274C28.0341 43.716 27.8104 44.2915 27.8072 44.8892C27.8041 45.487 28.0217 46.0648 28.418 46.5111C28.6118 46.7177 28.8472 46.8806 29.1085 46.989C29.3698 47.0974 29.6511 47.1488 29.9337 47.1399C30.2034 47.1463 30.4713 47.0939 30.7189 46.9864C30.9665 46.8788 31.1878 46.7186 31.3677 46.5169C31.7575 46.0661 31.9696 45.4879 31.9641 44.8912C31.9585 44.2944 31.7357 43.7203 31.3376 43.2769H31.3347ZM31.3347 43.2769C31.1577 43.0751 30.94 42.9134 30.696 42.8025C30.452 42.6916 30.1873 42.6341 29.9194 42.6338C29.6411 42.63 29.3651 42.6851 29.1094 42.7954C28.8537 42.9057 28.624 43.0688 28.4352 43.274C28.0341 43.716 27.8104 44.2915 27.8072 44.8892C27.8041 45.487 28.0217 46.0648 28.418 46.5111C28.6118 46.7177 28.8472 46.8806 29.1085 46.989C29.3698 47.0974 29.6511 47.1488 29.9337 47.1399C30.2034 47.1463 30.4713 47.0939 30.7189 46.9864C30.9665 46.8788 31.1878 46.7186 31.3677 46.5169C31.7575 46.0661 31.9696 45.4879 31.9641 44.8912C31.9585 44.2944 31.7357 43.7203 31.3376 43.2769H31.3347ZM31.3347 43.2769C31.1577 43.0751 30.94 42.9134 30.696 42.8025C30.452 42.6916 30.1873 42.6341 29.9194 42.6338C29.6411 42.63 29.3651 42.6851 29.1094 42.7954C28.8537 42.9057 28.624 43.0688 28.4352 43.274C28.0341 43.716 27.8104 44.2915 27.8072 44.8892C27.8041 45.487 28.0217 46.0648 28.418 46.5111C28.6118 46.7177 28.8472 46.8806 29.1085 46.989C29.3698 47.0974 29.6511 47.1488 29.9337 47.1399C30.2034 47.1463 30.4713 47.0939 30.7189 46.9864C30.9665 46.8788 31.1878 46.7186 31.3677 46.5169C31.7575 46.0661 31.9696 45.4879 31.9641 44.8912C31.9585 44.2944 31.7357 43.7203 31.3376 43.2769H31.3347ZM31.3347 43.2769C31.1577 43.0751 30.94 42.9134 30.696 42.8025C30.452 42.6916 30.1873 42.6341 29.9194 42.6338C29.6411 42.63 29.3651 42.6851 29.1094 42.7954C28.8537 42.9057 28.624 43.0688 28.4352 43.274C28.0341 43.716 27.8104 44.2915 27.8072 44.8892C27.8041 45.487 28.0217 46.0648 28.418 46.5111C28.6118 46.7177 28.8472 46.8806 29.1085 46.989C29.3698 47.0974 29.6511 47.1488 29.9337 47.1399C30.2034 47.1463 30.4713 47.0939 30.7189 46.9864C30.9665 46.8788 31.1878 46.7186 31.3677 46.5169C31.7575 46.0661 31.9696 45.4879 31.9641 44.8912C31.9585 44.2944 31.7357 43.7203 31.3376 43.2769H31.3347ZM31.3347 43.2769C31.1577 43.0751 30.94 42.9134 30.696 42.8025C30.452 42.6916 30.1873 42.6341 29.9194 42.6338C29.6411 42.63 29.3651 42.6851 29.1094 42.7954C28.8537 42.9057 28.624 43.0688 28.4352 43.274C28.0341 43.716 27.8104 44.2915 27.8072 44.8892C27.8041 45.487 28.0217 46.0648 28.418 46.5111C28.6118 46.7177 28.8472 46.8806 29.1085 46.989C29.3698 47.0974 29.6511 47.1488 29.9337 47.1399C30.2034 47.1463 30.4713 47.0939 30.7189 46.9864C30.9665 46.8788 31.1878 46.7186 31.3677 46.5169C31.7575 46.0661 31.9696 45.4879 31.9641 44.8912C31.9585 44.2944 31.7357 43.7203 31.3376 43.2769H31.3347ZM31.3347 43.2769C31.1577 43.0751 30.94 42.9134 30.696 42.8025C30.452 42.6916 30.1873 42.6341 29.9194 42.6338C29.6411 42.63 29.3651 42.6851 29.1094 42.7954C28.8537 42.9057 28.624 43.0688 28.4352 43.274C28.0341 43.716 27.8104 44.2915 27.8072 44.8892C27.8041 45.487 28.0217 46.0648 28.418 46.5111C28.6118 46.7177 28.8472 46.8806 29.1085 46.989C29.3698 47.0974 29.6511 47.1488 29.9337 47.1399C30.2034 47.1463 30.4713 47.0939 30.7189 46.9864C30.9665 46.8788 31.1878 46.7186 31.3677 46.5169C31.7575 46.0661 31.9696 45.4879 31.9641 44.8912C31.9585 44.2944 31.7357 43.7203 31.3376 43.2769H31.3347ZM31.3347 43.2769C31.1577 43.0751 30.94 42.9134 30.696 42.8025C30.452 42.6916 30.1873 42.6341 29.9194 42.6338C29.6411 42.63 29.3651 42.6851 29.1094 42.7954C28.8537 42.9057 28.624 43.0688 28.4352 43.274C28.0341 43.716 27.8104 44.2915 27.8072 44.8892C27.8041 45.487 28.0217 46.0648 28.418 46.5111C28.6118 46.7177 28.8472 46.8806 29.1085 46.989C29.3698 47.0974 29.6511 47.1488 29.9337 47.1399C30.2034 47.1463 30.4713 47.0939 30.7189 46.9864C30.9665 46.8788 31.1878 46.7186 31.3677 46.5169C31.7575 46.0661 31.9696 45.4879 31.9641 44.8912C31.9585 44.2944 31.7357 43.7203 31.3376 43.2769H31.3347ZM31.3347 43.2769C31.1577 43.0751 30.94 42.9134 30.696 42.8025C30.452 42.6916 30.1873 42.6341 29.9194 42.6338C29.6411 42.63 29.3651 42.6851 29.1094 42.7954C28.8537 42.9057 28.624 43.0688 28.4352 43.274C28.0341 43.716 27.8104 44.2915 27.8072 44.8892C27.8041 45.487 28.0217 46.0648 28.418 46.5111C28.6118 46.7177 28.8472 46.8806 29.1085 46.989C29.3698 47.0974 29.6511 47.1488 29.9337 47.1399C30.2034 47.1463 30.4713 47.0939 30.7189 46.9864C30.9665 46.8788 31.1878 46.7186 31.3677 46.5169C31.7575 46.0661 31.9696 45.4879 31.9641 44.8912C31.9585 44.2944 31.7357 43.7203 31.3376 43.2769H31.3347ZM31.3347 43.2769C31.1577 43.0751 30.94 42.9134 30.696 42.8025C30.452 42.6916 30.1873 42.6341 29.9194 42.6338C29.6411 42.63 29.3651 42.6851 29.1094 42.7954C28.8537 42.9057 28.624 43.0688 28.4352 43.274C28.0341 43.716 27.8104 44.2915 27.8072 44.8892C27.8041 45.487 28.0217 46.0648 28.418 46.5111C28.6118 46.7177 28.8472 46.8806 29.1085 46.989C29.3698 47.0974 29.6511 47.1488 29.9337 47.1399C30.2034 47.1463 30.4713 47.0939 30.7189 46.9864C30.9665 46.8788 31.1878 46.7186 31.3677 46.5169C31.7575 46.0661 31.9696 45.4879 31.9641 44.8912C31.9585 44.2944 31.7357 43.7203 31.3376 43.2769H31.3347ZM31.3347 43.2769C31.1577 43.0751 30.94 42.9134 30.696 42.8025C30.452 42.6916 30.1873 42.6341 29.9194 42.6338C29.6411 42.63 29.3651 42.6851 29.1094 42.7954C28.8537 42.9057 28.624 43.0688 28.4352 43.274C28.0341 43.716 27.8104 44.2915 27.8072 44.8892C27.8041 45.487 28.0217 46.0648 28.418 46.5111C28.6118 46.7177 28.8472 46.8806 29.1085 46.989C29.3698 47.0974 29.6511 47.1488 29.9337 47.1399C30.2034 47.1463 30.4713 47.0939 30.7189 46.9864C30.9665 46.8788 31.1878 46.7186 31.3677 46.5169C31.7575 46.0661 31.9696 45.4879 31.9641 44.8912C31.9585 44.2944 31.7357 43.7203 31.3376 43.2769H31.3347ZM31.3347 43.2769C31.1577 43.0751 30.94 42.9134 30.696 42.8025C30.452 42.6916 30.1873 42.6341 29.9194 42.6338C29.6411 42.63 29.3651 42.6851 29.1094 42.7954C28.8537 42.9057 28.624 43.0688 28.4352 43.274C28.0341 43.716 27.8104 44.2915 27.8072 44.8892C27.8041 45.487 28.0217 46.0648 28.418 46.5111C28.6118 46.7177 28.8472 46.8806 29.1085 46.989C29.3698 47.0974 29.6511 47.1488 29.9337 47.1399C30.2034 47.1463 30.4713 47.0939 30.7189 46.9864C30.9665 46.8788 31.1878 46.7186 31.3677 46.5169C31.7575 46.0661 31.9696 45.4879 31.9641 44.8912C31.9585 44.2944 31.7357 43.7203 31.3376 43.2769H31.3347ZM31.3347 43.2769C31.1577 43.0751 30.94 42.9134 30.696 42.8025C30.452 42.6916 30.1873 42.6341 29.9194 42.6338C29.6411 42.63 29.3651 42.6851 29.1094 42.7954C28.8537 42.9057 28.624 43.0688 28.4352 43.274C28.0341 43.716 27.8104 44.2915 27.8072 44.8892C27.8041 45.487 28.0217 46.0648 28.418 46.5111C28.6118 46.7177 28.8472 46.8806 29.1085 46.989C29.3698 47.0974 29.6511 47.1488 29.9337 47.1399C30.2034 47.1463 30.4713 47.0939 30.7189 46.9864C30.9665 46.8788 31.1878 46.7186 31.3677 46.5169C31.7575 46.0661 31.9696 45.4879 31.9641 44.8912C31.9585 44.2944 31.7357 43.7203 31.3376 43.2769H31.3347ZM60.1572 47.0909C60.3144 46.1521 60.7986 45.2997 61.5237 44.6855C62.2487 44.0714 63.1674 43.7353 64.1163 43.7373H72.0503L73.7439 33.7885H73.7109C73.1889 33.777 72.0174 33.7568 70.9864 33.7568L37.2139 33.7928H25.7064C25.6646 33.7926 25.624 33.7792 25.5903 33.7544C25.5566 33.7296 25.5316 33.6947 25.5189 33.6548C25.5061 33.6148 25.5063 33.5719 25.5194 33.5321C25.5325 33.4923 25.5578 33.4576 25.5917 33.4331L32.9809 28.1012L33.0669 28.0379H26.4707C25.0881 28.0384 23.7503 28.5298 22.6941 29.4251C21.638 30.3205 20.9318 31.5619 20.7005 32.9296L16.0846 60.1445C15.9421 60.9868 15.9845 61.8501 16.2089 62.6743C16.4332 63.4985 16.834 64.2636 17.3834 64.9163C17.9328 65.569 18.6175 66.0937 19.3898 66.4535C20.1621 66.8134 21.0033 66.9999 21.8548 67H68.117L69.799 57.0728H63.2287C62.6444 57.0729 62.0672 56.9451 61.5373 56.6983C61.0073 56.4514 60.5375 56.0916 60.1605 55.6437C59.7835 55.1959 59.5085 54.6709 59.3546 54.1054C59.2007 53.5399 59.1717 52.9475 59.2695 52.3696L60.1572 47.0909ZM36.6618 46.9125C36.4553 47.6017 36.0051 48.6131 35.2852 50.0072L30.6278 59.1676L25.1329 59.146L28.8023 51.9941C27.2762 51.8088 25.8619 51.0967 24.8016 49.9799C23.4623 48.6088 22.784 46.8866 22.784 44.8595C22.7799 43.9278 22.9596 43.0046 23.3128 42.143C23.666 41.2813 24.1857 40.4984 24.8419 39.8393C25.4982 39.1802 26.278 38.6579 27.1364 38.3027C27.9948 37.9474 28.9148 37.7662 29.8434 37.7694C31.8724 37.7694 33.5874 38.4888 34.9425 39.9074C36.2976 41.326 36.9744 42.9719 36.9744 44.8163C36.9734 45.5263 36.8696 46.2325 36.6661 46.9125H36.6618ZM45.6656 60.3013H40.5894V43.1718H38.0528V38.2917H45.6656V60.3013ZM55.6588 60.3013H50.5826V43.1718H48.046V38.2917H55.6588V60.3013ZM29.9194 42.6338C29.6411 42.63 29.3651 42.6851 29.1094 42.7954C28.8537 42.9057 28.624 43.0688 28.4352 43.274C28.0341 43.716 27.8104 44.2915 27.8072 44.8892C27.8041 45.487 28.0217 46.0648 28.418 46.5111C28.6118 46.7177 28.8472 46.8806 29.1085 46.989C29.3698 47.0974 29.6511 47.1488 29.9337 47.1399C30.2034 47.1463 30.4713 47.0939 30.7189 46.9864C30.9665 46.8788 31.1878 46.7186 31.3677 46.5169C31.7575 46.0661 31.9696 45.4879 31.9641 44.8912C31.9585 44.2944 31.7357 43.7203 31.3376 43.2769C31.1603 43.0747 30.9421 42.9128 30.6976 42.8019C30.453 42.691 30.1877 42.6337 29.9194 42.6338ZM31.3347 43.2769C31.1577 43.0751 30.94 42.9134 30.696 42.8025C30.452 42.6916 30.1873 42.6341 29.9194 42.6338C29.6411 42.63 29.3651 42.6851 29.1094 42.7954C28.8537 42.9057 28.624 43.0688 28.4352 43.274C28.0341 43.716 27.8104 44.2915 27.8072 44.8892C27.8041 45.487 28.0217 46.0648 28.418 46.5111C28.6118 46.7177 28.8472 46.8806 29.1085 46.989C29.3698 47.0974 29.6511 47.1488 29.9337 47.1399C30.2034 47.1463 30.4713 47.0939 30.7189 46.9864C30.9665 46.8788 31.1878 46.7186 31.3677 46.5169C31.7575 46.0661 31.9696 45.4879 31.9641 44.8912C31.9585 44.2944 31.7357 43.7203 31.3376 43.2769H31.3347ZM31.3347 43.2769C31.1577 43.0751 30.94 42.9134 30.696 42.8025C30.452 42.6916 30.1873 42.6341 29.9194 42.6338C29.6411 42.63 29.3651 42.6851 29.1094 42.7954C28.8537 42.9057 28.624 43.0688 28.4352 43.274C28.0341 43.716 27.8104 44.2915 27.8072 44.8892C27.8041 45.487 28.0217 46.0648 28.418 46.5111C28.6118 46.7177 28.8472 46.8806 29.1085 46.989C29.3698 47.0974 29.6511 47.1488 29.9337 47.1399C30.2034 47.1463 30.4713 47.0939 30.7189 46.9864C30.9665 46.8788 31.1878 46.7186 31.3677 46.5169C31.7575 46.0661 31.9696 45.4879 31.9641 44.8912C31.9585 44.2944 31.7357 43.7203 31.3376 43.2769H31.3347ZM31.3347 43.2769C31.1577 43.0751 30.94 42.9134 30.696 42.8025C30.452 42.6916 30.1873 42.6341 29.9194 42.6338C29.6411 42.63 29.3651 42.6851 29.1094 42.7954C28.8537 42.9057 28.624 43.0688 28.4352 43.274C28.0341 43.716 27.8104 44.2915 27.8072 44.8892C27.8041 45.487 28.0217 46.0648 28.418 46.5111C28.6118 46.7177 28.8472 46.8806 29.1085 46.989C29.3698 47.0974 29.6511 47.1488 29.9337 47.1399C30.2034 47.1463 30.4713 47.0939 30.7189 46.9864C30.9665 46.8788 31.1878 46.7186 31.3677 46.5169C31.7575 46.0661 31.9696 45.4879 31.9641 44.8912C31.9585 44.2944 31.7357 43.7203 31.3376 43.2769H31.3347ZM31.3347 43.2769C31.1577 43.0751 30.94 42.9134 30.696 42.8025C30.452 42.6916 30.1873 42.6341 29.9194 42.6338C29.6411 42.63 29.3651 42.6851 29.1094 42.7954C28.8537 42.9057 28.624 43.0688 28.4352 43.274C28.0341 43.716 27.8104 44.2915 27.8072 44.8892C27.8041 45.487 28.0217 46.0648 28.418 46.5111C28.6118 46.7177 28.8472 46.8806 29.1085 46.989C29.3698 47.0974 29.6511 47.1488 29.9337 47.1399C30.2034 47.1463 30.4713 47.0939 30.7189 46.9864C30.9665 46.8788 31.1878 46.7186 31.3677 46.5169C31.7575 46.0661 31.9696 45.4879 31.9641 44.8912C31.9585 44.2944 31.7357 43.7203 31.3376 43.2769H31.3347ZM31.3347 43.2769C31.1577 43.0751 30.94 42.9134 30.696 42.8025C30.452 42.6916 30.1873 42.6341 29.9194 42.6338C29.6411 42.63 29.3651 42.6851 29.1094 42.7954C28.8537 42.9057 28.624 43.0688 28.4352 43.274C28.0341 43.716 27.8104 44.2915 27.8072 44.8892C27.8041 45.487 28.0217 46.0648 28.418 46.5111C28.6118 46.7177 28.8472 46.8806 29.1085 46.989C29.3698 47.0974 29.6511 47.1488 29.9337 47.1399C30.2034 47.1463 30.4713 47.0939 30.7189 46.9864C30.9665 46.8788 31.1878 46.7186 31.3677 46.5169C31.7575 46.0661 31.9696 45.4879 31.9641 44.8912C31.9585 44.2944 31.7357 43.7203 31.3376 43.2769H31.3347ZM31.3347 43.2769C31.1577 43.0751 30.94 42.9134 30.696 42.8025C30.452 42.6916 30.1873 42.6341 29.9194 42.6338C29.6411 42.63 29.3651 42.6851 29.1094 42.7954C28.8537 42.9057 28.624 43.0688 28.4352 43.274C28.0341 43.716 27.8104 44.2915 27.8072 44.8892C27.8041 45.487 28.0217 46.0648 28.418 46.5111C28.6118 46.7177 28.8472 46.8806 29.1085 46.989C29.3698 47.0974 29.6511 47.1488 29.9337 47.1399C30.2034 47.1463 30.4713 47.0939 30.7189 46.9864C30.9665 46.8788 31.1878 46.7186 31.3677 46.5169C31.7575 46.0661 31.9696 45.4879 31.9641 44.8912C31.9585 44.2944 31.7357 43.7203 31.3376 43.2769H31.3347ZM70.8831 28.0422L72.4117 30.8923C72.9752 31.9656 73.5202 32.9641 73.7955 33.4619L74.7132 28.0422H70.8831ZM31.3347 43.2769C31.1577 43.0751 30.94 42.9134 30.696 42.8025C30.452 42.6916 30.1873 42.6341 29.9194 42.6338C29.6411 42.63 29.3651 42.6851 29.1094 42.7954C28.8537 42.9057 28.624 43.0688 28.4352 43.274C28.0341 43.716 27.8104 44.2915 27.8072 44.8892C27.8041 45.487 28.0217 46.0648 28.418 46.5111C28.6118 46.7177 28.8472 46.8806 29.1085 46.989C29.3698 47.0974 29.6511 47.1488 29.9337 47.1399C30.2034 47.1463 30.4713 47.0939 30.7189 46.9864C30.9665 46.8788 31.1878 46.7186 31.3677 46.5169C31.7575 46.0661 31.9696 45.4879 31.9641 44.8912C31.9585 44.2944 31.7357 43.7203 31.3376 43.2769H31.3347ZM31.3347 43.2769C31.1577 43.0751 30.94 42.9134 30.696 42.8025C30.452 42.6916 30.1873 42.6341 29.9194 42.6338C29.6411 42.63 29.3651 42.6851 29.1094 42.7954C28.8537 42.9057 28.624 43.0688 28.4352 43.274C28.0341 43.716 27.8104 44.2915 27.8072 44.8892C27.8041 45.487 28.0217 46.0648 28.418 46.5111C28.6118 46.7177 28.8472 46.8806 29.1085 46.989C29.3698 47.0974 29.6511 47.1488 29.9337 47.1399C30.2034 47.1463 30.4713 47.0939 30.7189 46.9864C30.9665 46.8788 31.1878 46.7186 31.3677 46.5169C31.7575 46.0661 31.9696 45.4879 31.9641 44.8912C31.9585 44.2944 31.7357 43.7203 31.3376 43.2769H31.3347ZM31.3347 43.2769C31.1577 43.0751 30.94 42.9134 30.696 42.8025C30.452 42.6916 30.1873 42.6341 29.9194 42.6338C29.6411 42.63 29.3651 42.6851 29.1094 42.7954C28.8537 42.9057 28.624 43.0688 28.4352 43.274C28.0341 43.716 27.8104 44.2915 27.8072 44.8892C27.8041 45.487 28.0217 46.0648 28.418 46.5111C28.6118 46.7177 28.8472 46.8806 29.1085 46.989C29.3698 47.0974 29.6511 47.1488 29.9337 47.1399C30.2034 47.1463 30.4713 47.0939 30.7189 46.9864C30.9665 46.8788 31.1878 46.7186 31.3677 46.5169C31.7575 46.0661 31.9696 45.4879 31.9641 44.8912C31.9585 44.2944 31.7357 43.7203 31.3376 43.2769H31.3347ZM31.3347 43.2769C31.1577 43.0751 30.94 42.9134 30.696 42.8025C30.452 42.6916 30.1873 42.6341 29.9194 42.6338C29.6411 42.63 29.3651 42.6851 29.1094 42.7954C28.8537 42.9057 28.624 43.0688 28.4352 43.274C28.0341 43.716 27.8104 44.2915 27.8072 44.8892C27.8041 45.487 28.0217 46.0648 28.418 46.5111C28.6118 46.7177 28.8472 46.8806 29.1085 46.989C29.3698 47.0974 29.6511 47.1488 29.9337 47.1399C30.2034 47.1463 30.4713 47.0939 30.7189 46.9864C30.9665 46.8788 31.1878 46.7186 31.3677 46.5169C31.7575 46.0661 31.9696 45.4879 31.9641 44.8912C31.9585 44.2944 31.7357 43.7203 31.3376 43.2769H31.3347Z" fill="#136B36"/>
<path d="M64.1206 45.4637H72.8476C73.1606 45.4637 73.4697 45.5322 73.7536 45.6644C74.0374 45.7966 74.2891 45.9894 74.491 46.2293C74.693 46.4691 74.8403 46.7503 74.9228 47.0532C75.0052 47.3561 75.0208 47.6734 74.9684 47.983L74.0765 53.2544C73.9912 53.7568 73.7315 54.2126 73.3433 54.5412C72.9551 54.8699 72.4636 55.0501 71.9557 55.05H63.2287C62.9156 55.05 62.6063 54.9815 62.3223 54.8492C62.0383 54.7169 61.7866 54.524 61.5846 54.284C61.3827 54.0439 61.2354 53.7626 61.153 53.4595C61.0707 53.1564 61.0553 52.839 61.1079 52.5293L61.9998 47.2593C62.0851 46.7569 62.3448 46.3011 62.733 45.9725C63.1212 45.6439 63.6127 45.4636 64.1206 45.4637Z" fill="#136B36"/>
<path d="M68.0382 53.4961C69.8208 53.4961 71.266 52.0462 71.266 50.2576C71.266 48.4689 69.8208 47.019 68.0382 47.019C66.2555 47.019 64.8103 48.4689 64.8103 50.2576C64.8103 52.0462 66.2555 53.4961 68.0382 53.4961Z" fill="#F26722"/>
<path d="M71.0997 32.0505L36.1929 32.0879C36.1899 32.0879 36.187 32.0867 36.1848 32.0845C36.1827 32.0824 36.1815 32.0794 36.1815 32.0764C36.1815 32.0733 36.1827 32.0704 36.1848 32.0682C36.187 32.0661 36.1899 32.0649 36.1929 32.0649L50.9798 28.0364L65.3552 24.126C65.7273 24.0246 66.1225 24.0527 66.4766 24.2055C66.8308 24.3583 67.1229 24.627 67.3054 24.9676L68.9516 28.0364L71.0997 32.0505Z" fill="#136B36"/>
<path d="M58.3073 24.1375L44.1485 28.0422L31.0121 31.6635L35.9391 28.0422L50.5855 17.2777C50.862 17.074 51.2021 16.9765 51.5442 17.0029C51.8862 17.0293 52.2075 17.1778 52.4497 17.4215L58.4852 23.4642C58.5357 23.5137 58.5723 23.5757 58.5911 23.644C58.6099 23.7123 58.6102 23.7844 58.5921 23.8529C58.574 23.9214 58.5382 23.9838 58.4881 24.0339C58.4381 24.0839 58.3757 24.1196 58.3073 24.1375Z" fill="#136B36"/>
</g>
<defs>
<clipPath id="clip0_572_341">
<rect width="59" height="50" fill="white" transform="translate(16 17)"/>
</clipPath>
</defs>
</svg>
