<svg width="90" height="90" fill="none" xmlns="http://www.w3.org/2000/svg"><g clip-path="url(#a)"><circle cx="45" cy="45" r="45" fill="#EFEFEF"/><path d="M73.727 43.037a3.176 3.176 0 0 0-4.448-.344l-14.37 12.218a4.7 4.7 0 0 1 1.733 1.595 4.713 4.713 0 0 1 .68 3.534 4.748 4.748 0 0 1-2 3.019 4.717 4.717 0 0 1-3.541.742l-11.331-2.09a.975.975 0 0 1 .35-1.918l11.331 2.09a2.833 2.833 0 0 0 3.28-2.228 2.838 2.838 0 0 0-2.152-3.3l-.502-.11h-.028L36.874 52.72a19.011 19.011 0 0 0-7.452-.172 19.073 19.073 0 0 0-6.951 2.681L14 60.783 20.566 71l7.652-5.033a.966.966 0 0 1 .777-.13l18.172 4.606a9.253 9.253 0 0 0 5.08-.15 9.209 9.209 0 0 0 4.23-2.82l17.27-20.31a3.16 3.16 0 0 0-.014-4.126h-.006Z" fill="#005BA8"/><circle cx="44.169" cy="32.251" r="17.251" fill="#005BA8"/><path d="M41.982 41.483c0 .5-.4.9-.893.9a.895.895 0 0 1-.893-.9v-2.908h-1.158a.897.897 0 0 1-.893-.9c0-.496.4-.9.893-.9h1.158v-2.032h-1.158a.897.897 0 0 1-.893-.9c0-.497.4-.9.893-.9h1.158v-9.402c0-.468.353-.853.807-.896 4.163-.616 6.682-.04 8.186 1.061 1.626 1.188 2.069 2.919 2.097 4.495.047 2.378-.743 4.027-2.168 5.092-1.358 1.018-3.255 1.45-5.517 1.45h-1.619v2.033h3.888c.493 0 .893.403.893.9s-.4.9-.893.9h-3.888v2.907Zm0-17.154v8.614h1.619c1.894 0 3.433-.323 4.455-1.09.954-.716 1.483-1.882 1.45-3.624-.02-1.104-.306-2.296-1.364-3.07-1.083-.79-2.97-1.212-6.16-.83Z" fill="#fff"/></g><defs><clipPath id="a"><path fill="#fff" d="M0 0h90v90H0z"/></clipPath></defs></svg>