<svg width="90" height="90" fill="none" xmlns="http://www.w3.org/2000/svg"><circle cx="45" cy="45" r="45" fill="#44A1DA"/><g clip-path="url(#a)" fill="#fff"><path d="M31.818 42.571c-1.75 0-3.475-.423-5.026-1.234a10.807 10.807 0 0 1-3.875-3.42 10.766 10.766 0 0 1-1.219-9.946 10.784 10.784 0 0 1 2.936-4.25 10.85 10.85 0 0 1 14.342-.021.392.392 0 0 1 .018.557l-3.4 3.566a.445.445 0 0 1-.602.038 5.066 5.066 0 0 0-7.484 1.286 5.03 5.03 0 0 0 .084 5.41 5.07 5.07 0 0 0 7.521 1.052.443.443 0 0 1 .604.019l3.512 3.458a.394.394 0 0 1 0 .566 10.755 10.755 0 0 1-7.411 2.92ZM61.472 69c-1.75 0-3.475-.423-5.026-1.234a10.807 10.807 0 0 1-3.875-3.42 10.766 10.766 0 0 1-1.22-9.947 10.785 10.785 0 0 1 2.936-4.25 10.85 10.85 0 0 1 14.342-.021.386.386 0 0 1 .021.556l-3.403 3.57a.442.442 0 0 1-.599.036 5.065 5.065 0 0 0-7.484 1.285 5.031 5.031 0 0 0 2.233 7.237 5.07 5.07 0 0 0 5.37-.772.448.448 0 0 1 .606.016l3.51 3.457a.39.39 0 0 1 0 .564A10.751 10.751 0 0 1 61.472 69ZM64.806 21.278 21.337 64.617a.454.454 0 0 0 0 .644l3.352 3.342a.458.458 0 0 0 .646 0l43.469-43.34a.454.454 0 0 0 0-.643l-3.352-3.342a.458.458 0 0 0-.646 0Z"/></g><defs><clipPath id="a"><path fill="#fff" transform="translate(21 21)" d="M0 0h48v48H0z"/></clipPath></defs></svg>