<svg width="90" height="90" viewBox="0 0 90 90" fill="none" xmlns="http://www.w3.org/2000/svg">
<circle cx="45" cy="45" r="45" fill="#79BA3F"/>
<path d="M47.1862 14.0198C50.4222 14.2526 53.6036 14.9782 56.6206 16.1714C63.4721 18.8857 69.1355 23.9473 72.5994 30.4521C72.7154 30.6577 72.7787 30.6947 72.9632 30.5259C73.3429 30.1726 73.7015 29.8034 74.076 29.3868C74.3765 30.3413 74.6033 31.2695 74.809 32.2082C75.4557 35.2443 75.898 38.3204 76.1326 41.4157C76.1326 41.5581 76.1326 41.7005 76.1326 41.8376C76.1326 41.9747 76.2381 42.0908 76.0641 42.1751C74.5558 38.4046 72.0615 35.3195 69.2454 32.4244C69.7439 32.2924 70.2351 32.134 70.7167 31.9498C70.9751 31.8443 70.9804 31.7652 70.8116 31.5542C67.1566 26.9868 62.4155 23.4079 57.0214 21.1443C53.9138 19.8006 50.6394 18.8818 47.2864 18.4126C41.4004 17.5221 35.3841 18.167 29.8205 20.2847C26.3545 21.5832 23.1867 23.5689 20.5075 26.1225C20.4547 26.17 20.4178 26.2438 20.2913 26.2438C20.7184 25.6584 21.1667 25.1205 21.6307 24.5985C25.922 19.6987 31.6381 16.2636 37.9787 14.7739C39.6317 14.3922 41.312 14.14 43.0043 14.0198C43.3207 14.0198 43.9799 13.9881 44.3491 14.0198H45.7624C45.9892 13.9934 46.6958 13.9934 47.1862 14.0198Z" fill="white"/>
<path d="M69.2085 64.7827C68.9765 64.9937 68.7445 65.2046 68.5019 65.405C63.5817 69.5184 57.8494 71.6172 51.5317 72.2606C48.4534 72.5572 45.3497 72.4544 42.2977 71.9547C37.1876 71.1452 32.295 69.3063 27.9168 66.5494C26.5645 65.6829 25.2633 64.7391 24.0197 63.7227L23.909 63.6067C22.4678 62.3871 21.1356 61.0443 19.9274 59.5936C19.6743 59.293 19.4317 58.9818 19.1733 58.6602C19.7376 58.3899 20.3301 58.183 20.94 58.0432C18.1344 55.1269 15.6401 52.063 14.1266 48.2713C14.0527 48.2291 14.0369 48.2713 14 48.3346V48.6616C14.0791 48.7565 14 48.8883 14.0633 48.9832C14.2854 51.7366 14.6568 54.4758 15.176 57.1889C15.4204 58.4978 15.732 59.7932 16.1094 61.0702C16.4778 60.6486 16.8705 60.2489 17.2854 59.8731C17.4331 59.7412 17.4911 59.7623 17.5755 59.9311C17.9762 60.701 18.4192 61.4499 18.8886 62.1776C19.7318 63.5056 20.6881 64.7583 21.7468 65.9218C22.2395 66.5125 22.7679 67.0725 23.3289 67.5988C26.533 70.7508 30.3861 73.166 34.6195 74.6759C37.3236 75.6335 40.1435 76.2259 43.0044 76.4372C43.3841 76.4741 45.3195 76.4372 45.7624 76.4372L47.4236 76.395C48.3939 76.3107 49.3643 76.1999 50.324 76.0259C58.0328 74.7232 64.9687 70.5662 69.7517 64.3819C69.7888 64.3493 69.8191 64.3097 69.8408 64.2654C69.8625 64.221 69.8753 64.1728 69.8783 64.1235C69.6462 64.3767 69.43 64.5823 69.2085 64.7827Z" fill="white"/>
<path d="M27.1839 39.7757C27.7956 38.6577 28.3757 37.603 28.9558 36.5535C29.8276 34.9785 30.6943 33.3964 31.5556 31.8074C31.5929 31.7147 31.6595 31.6367 31.7451 31.5853C31.8308 31.5339 31.9309 31.5119 32.0302 31.5226C33.1904 31.5226 34.3506 31.5226 35.5107 31.5226C35.7639 31.5226 35.7006 31.6702 35.7006 31.7968C35.7006 32.8937 35.7006 33.9906 35.7006 35.0822C35.7006 38.9284 35.7006 42.771 35.7006 46.6101C35.7006 46.8844 35.6268 46.9529 35.3578 46.9529C34.2187 46.9529 33.0797 46.9529 31.9406 46.9529C31.7982 46.9529 31.6716 46.9846 31.6769 46.7525C31.7296 45.3392 31.7613 43.9312 31.7982 42.5337C31.8351 41.1362 31.8773 39.7809 31.9142 38.4045C31.9142 38.336 31.9511 38.2569 31.8667 38.1567L30.8753 39.8337C29.578 42.1118 28.2843 44.397 26.994 46.6892C26.9525 46.8051 26.8718 46.9028 26.7658 46.9654C26.6599 47.028 26.5354 47.0515 26.4139 47.032C26.1016 47.0057 25.7876 47.0057 25.4752 47.032C25.4339 47.0413 25.3911 47.0414 25.3498 47.0324C25.3085 47.0234 25.2696 47.0055 25.2359 46.9798C25.2023 46.9542 25.1746 46.9215 25.1549 46.8841C25.1352 46.8466 25.1239 46.8053 25.1219 46.7631C24.4469 43.9962 23.7701 41.2276 23.0916 38.4573C23.0916 38.3834 23.0916 38.2991 22.9809 38.2358L22.2478 40.6827C21.6713 42.6831 21.0753 44.6976 20.4601 46.7262C20.4021 46.9266 20.323 47.0268 20.091 47.0268H16.5788C16.294 47.0268 16.4311 46.8633 16.468 46.7473C17.0657 44.8804 17.6634 43.0118 18.261 41.1415C19.2525 38.0688 20.2421 34.9961 21.23 31.9234C21.2986 31.7072 21.3777 31.6122 21.6256 31.6122C22.7435 31.6122 23.8615 31.6122 24.9742 31.5806C25.2221 31.5806 25.3065 31.6492 25.3592 31.8917C25.9235 34.4072 26.5036 36.9227 27.0784 39.4329C27.0995 39.5067 27.1258 39.6016 27.1839 39.7757Z" fill="white"/>
<path d="M42.245 39.8337L49.5435 31.6861C49.6119 31.5988 49.7004 31.5293 49.8013 31.4834C49.9023 31.4375 50.0128 31.4166 50.1236 31.4224C51.0465 31.4224 51.9693 31.4224 52.8922 31.4224C53.119 31.4224 53.1717 31.4593 53.1348 31.7125C52.509 35.7836 51.8902 39.8565 51.2785 43.9312C51.1467 44.8066 51.0043 45.6873 50.883 46.568C50.8513 46.7895 50.7722 46.8686 50.5297 46.8686C49.3976 46.8686 48.2603 46.8686 47.1177 46.8686C46.8646 46.8686 46.8171 46.8106 46.854 46.5627C47.1968 44.3795 47.529 42.1909 47.8665 40.0077C47.9509 39.4487 48.0247 38.8897 48.1091 38.3307C48.1091 38.2674 48.1829 38.1672 48.03 38.1883L43.5317 43.3406L40.5627 46.7578C40.5257 46.8097 40.4765 46.8517 40.4195 46.8802C40.3626 46.9087 40.2994 46.9228 40.2357 46.9213C39.2496 46.9213 38.2634 46.9213 37.2773 46.9213C37.0716 46.9213 37.0347 46.8738 37.0664 46.6629C37.664 42.8132 38.2547 38.9688 38.8383 35.1297C39.0017 34.075 39.1705 32.9675 39.3181 31.8812C39.3551 31.5753 39.4553 31.4751 39.7769 31.4857C40.8949 31.4857 42.0129 31.4857 43.1256 31.4857C43.3418 31.4857 43.3946 31.5226 43.3629 31.7546C42.9674 34.3018 42.5877 36.8541 42.208 39.4065C42.208 39.5014 42.1817 39.6016 42.1659 39.6966C42.15 39.7915 42.0973 39.8337 42.245 39.8337Z" fill="white"/>
<path d="M61.8943 34.7922C61.0136 34.7922 60.1382 34.7922 59.2575 34.7922C59.0044 34.7922 58.9464 34.8871 58.9147 35.098C58.6722 36.7364 58.4261 38.3764 58.1765 40.0182C57.846 42.198 57.5155 44.3742 57.185 46.5469C57.1587 46.7209 57.1165 46.8264 56.8897 46.8264C55.7295 46.8264 54.5694 46.8369 53.4092 46.858C53.1719 46.858 53.1244 46.8053 53.1613 46.568C53.541 44.1158 53.9049 41.6583 54.2793 39.185C54.6537 36.7117 55.0493 34.1752 55.4237 31.665C55.4553 31.4593 55.5186 31.396 55.7243 31.396C58.8462 31.396 61.9892 31.3802 65.1533 31.3486C65.3379 31.3486 65.3695 31.4013 65.3432 31.5753C65.1885 32.5492 65.0426 33.5248 64.9055 34.5021C64.8738 34.7078 64.7842 34.7605 64.5838 34.7605C63.6978 34.7605 62.8066 34.7605 61.9207 34.7605L61.8943 34.7922Z" fill="white"/>
<path d="M63.2652 53.9562C62.0997 55.301 60.9132 56.6246 59.7794 57.9905C59.6374 58.2162 59.4323 58.3955 59.1896 58.506C58.9469 58.6166 58.6771 58.6537 58.4135 58.6127C58.1558 58.5864 57.8961 58.5864 57.6383 58.6127C57.4538 58.6127 57.3905 58.5811 57.4169 58.3807C57.8212 55.7756 58.2202 53.1705 58.6139 50.5653C58.6456 50.365 58.7141 50.3228 58.904 50.3228C59.4313 50.3228 59.9587 50.3228 60.486 50.3228C60.7286 50.3228 60.8077 50.3702 60.7655 50.6286C60.523 51.9628 60.3911 53.3129 60.1274 54.6418C60.1228 54.675 60.1228 54.7087 60.1274 54.742C60.2856 54.742 60.3278 54.626 60.3964 54.5469C61.5952 53.2179 62.7906 51.8855 63.9824 50.5495C64.0438 50.4698 64.1243 50.4068 64.2165 50.3662C64.3086 50.3257 64.4094 50.3089 64.5097 50.3175C64.9105 50.3175 65.3113 50.3175 65.7121 50.3175C65.9494 50.3175 66.0285 50.3439 65.9863 50.6128C65.6805 52.8171 65.3271 55.0373 64.9896 57.2364C64.9369 57.5897 64.8631 57.9377 64.8314 58.2911C64.8314 58.5284 64.7101 58.5653 64.5045 58.56C63.9771 58.56 63.4181 58.56 62.875 58.56C62.6482 58.56 62.6376 58.4967 62.664 58.3069C62.8802 56.9569 63.0806 55.6068 63.2863 54.2568L63.3337 53.9404L63.2652 53.9562Z" fill="white"/>
<path d="M30.5799 53.9035C31.4975 52.8909 32.3729 51.9734 33.1903 51.0083C33.3286 50.8205 33.5142 50.6728 33.7282 50.5801C33.9422 50.4875 34.177 50.4533 34.4085 50.4809C35.0308 50.5284 35.6583 50.4809 36.3439 50.4809L35.0571 51.7941C34.2767 52.5904 33.4751 53.3761 32.7052 54.1777C32.6661 54.2035 32.6335 54.2379 32.6095 54.2781C32.5856 54.3183 32.5711 54.3635 32.5671 54.4101C32.563 54.4567 32.5695 54.5037 32.5861 54.5474C32.6027 54.5912 32.629 54.6306 32.663 54.6629C33.512 55.9443 34.3927 57.2363 35.2575 58.5231L35.3577 58.676C35.305 58.7815 35.2154 58.7446 35.1521 58.7446C34.4032 58.7446 33.6544 58.7446 32.9055 58.7446C32.8117 58.7546 32.717 58.7351 32.6348 58.6888C32.5526 58.6424 32.4868 58.5716 32.4468 58.4862C31.8403 57.4842 31.218 56.4928 30.5957 55.5013C30.543 55.4117 30.4797 55.322 30.3795 55.1744C30.2741 55.8758 30.1739 56.5086 30.0737 57.1467C30.0051 57.6108 29.9313 58.0695 29.868 58.5283C29.868 58.6813 29.8047 58.7604 29.6307 58.7551C29.0559 58.7551 28.4811 58.7551 27.9062 58.7551C27.7217 58.7551 27.6742 58.7182 27.7059 58.5178C28.1119 55.9127 28.5022 53.3128 28.8924 50.7077C28.9188 50.5284 28.9768 50.4651 29.1561 50.4704C29.7203 50.4704 30.2846 50.4704 30.8489 50.4704C31.0809 50.4704 31.0809 50.5548 31.0545 50.7393C30.9016 51.678 30.7645 52.622 30.6221 53.566C30.6063 53.6556 30.601 53.7294 30.5799 53.9035Z" fill="white"/>
<path d="M44.9503 58.6971C44.2648 58.6971 43.5845 58.6971 42.8989 58.6971C42.6722 58.6971 42.6036 58.6549 42.6405 58.4123C43.0378 55.8389 43.4298 53.2654 43.8165 50.6919C43.8429 50.502 43.9009 50.4229 44.1171 50.4229C45.5058 50.4229 46.8927 50.4124 48.2779 50.3913C48.5152 50.3913 48.5732 50.4493 48.5311 50.6813C48.4414 51.119 48.3834 51.562 48.3254 51.9997C48.3254 52.179 48.2305 52.2318 48.0564 52.2318C47.3709 52.2318 46.6906 52.2318 46.005 52.2318C45.7994 52.2318 45.7203 52.2898 45.6992 52.4954C45.6623 52.796 45.6148 53.0966 45.5621 53.3919C45.5251 53.5712 45.5621 53.6081 45.7572 53.6029C46.3953 53.6029 47.0386 53.6029 47.6767 53.6029C47.9141 53.6029 47.9404 53.6767 47.9088 53.8824C47.8297 54.3201 47.7611 54.7578 47.7084 55.2008C47.7084 55.4011 47.6029 55.4433 47.4183 55.4433C46.7908 55.4433 46.1632 55.4433 45.5357 55.4433C45.3142 55.4433 45.2298 55.4961 45.2087 55.7176C45.1897 56.0112 45.1438 56.3024 45.0716 56.5877C45.0031 56.8514 45.1138 56.8725 45.33 56.8672C45.9892 56.8672 46.6484 56.8672 47.3129 56.8355C47.5291 56.8355 47.5924 56.8777 47.5449 57.1098C47.4553 57.5422 47.3972 57.9852 47.3445 58.4282C47.3445 58.618 47.2601 58.676 47.065 58.676C46.3584 58.676 45.657 58.676 44.9556 58.676L44.9503 58.6971Z" fill="white"/>
<path d="M67.9798 52.1316C67.4524 52.1316 66.9725 52.1316 66.4768 52.1316C66.2606 52.1316 66.2184 52.0683 66.2553 51.8732C66.3292 51.4249 66.3977 50.9714 66.4504 50.5179C66.4768 50.3333 66.5612 50.2964 66.7299 50.2964H70.5322C70.9962 50.2964 71.4656 50.2964 71.9296 50.2964C72.1248 50.2964 72.2039 50.3386 72.1617 50.5495C72.0826 50.9978 72.0193 51.4513 71.9613 51.8995C71.9613 52.0841 71.8664 52.1579 71.6712 52.1527C71.2599 52.1527 70.8486 52.1527 70.4372 52.1527C70.2263 52.1527 70.1314 52.2054 70.0997 52.4322C69.815 54.3517 69.5144 56.266 69.2401 58.1909C69.1927 58.5178 69.0925 58.6444 68.7128 58.618C68.2262 58.5917 67.7386 58.5917 67.252 58.618C67.0305 58.618 66.9831 58.56 67.0147 58.3438C67.31 56.4559 67.5948 54.5679 67.8848 52.6853L67.9798 52.1316Z" fill="white"/>
<path d="M76.0798 42.1646C76.1853 42.0697 76.0798 41.9378 76.1484 41.8271C76.2062 42.0146 76.2259 42.2119 76.2064 42.4072C76.1673 42.38 76.1354 42.3437 76.1133 42.3014C76.0913 42.2592 76.0798 42.2122 76.0798 42.1646Z" fill="white"/>
<path d="M48.03 38.1937C48.03 38.1462 48.0933 38.0724 48.125 38.0987C48.1566 38.1251 48.1513 38.2622 48.125 38.336L48.03 38.1937Z" fill="white"/>
<path d="M42.2449 39.8337C42.2449 39.8864 42.1764 39.9444 42.1395 39.9075C42.1025 39.8706 42.1395 39.7598 42.1395 39.6913C42.1869 39.7387 42.1764 39.802 42.2449 39.8337Z" fill="white"/>
<path d="M56.7156 56.8935C56.5574 56.8935 56.3939 56.8935 56.2304 56.8935C56.067 56.8935 55.9193 56.8935 55.9615 56.5982C56.2779 54.6101 56.5732 52.6114 56.8844 50.6233C56.9213 50.3755 56.8422 50.3333 56.6207 50.3386C55.6873 50.3386 54.7591 50.3386 53.8257 50.3386V50.3807C52.8817 50.3807 51.9378 50.3807 50.9991 50.3807C50.7723 50.3807 50.7091 50.4598 50.6827 50.6655C50.5456 51.6253 50.3926 52.5745 50.2555 53.529C50.1664 54.5604 49.788 55.5456 49.1639 56.3715C49.0446 56.5542 48.8809 56.7037 48.6882 56.806C48.4955 56.9084 48.2799 56.9603 48.0617 56.9568C47.8614 56.9568 47.8877 57.0834 47.8719 57.1889C47.7084 58.2436 47.5555 59.3299 47.3815 60.4004C47.3551 60.5797 47.3815 60.6272 47.566 60.6219C48.0565 60.6219 48.5416 60.6219 49.0321 60.6219C49.2483 60.6219 49.3063 60.5376 49.3327 60.353C49.4012 59.8573 49.4803 59.3668 49.5436 58.8711C49.5436 58.7129 49.6174 58.6496 49.7862 58.6496C51.3682 58.6496 52.9503 58.6496 54.5324 58.6496C54.738 58.6496 54.7591 58.7182 54.7275 58.8922C54.6431 59.3774 54.5798 59.8573 54.4954 60.3372C54.4638 60.5217 54.4955 60.6219 54.7064 60.6114C55.1916 60.6114 55.682 60.6114 56.1724 60.6114C56.3728 60.6114 56.415 60.527 56.4414 60.3477C56.5996 59.293 56.7578 58.2383 56.9318 57.1836C56.9476 56.9463 56.9213 56.8672 56.7156 56.8935ZM54.4744 52.3056C54.2529 53.74 54.0314 55.1744 53.8257 56.614C53.7888 56.8514 53.7202 56.9568 53.446 56.9463C52.6339 56.9463 51.8218 56.9463 50.9464 56.9463C52.0011 55.8494 52.2542 54.4888 52.4704 53.1177C52.4704 53.0175 52.4704 52.9226 52.5126 52.8277C52.6444 52.0841 52.6444 52.0841 53.4144 52.0841C53.6939 52.0841 53.9786 52.0841 54.2581 52.0841C54.4216 52.0683 54.4902 52.0999 54.4585 52.3056H54.4744Z" fill="white"/>
<path d="M40.6682 50.4915C39.4395 50.3702 38.2002 50.4915 36.9768 50.4915C36.7764 50.4915 36.7922 50.6233 36.7711 50.7446C36.3984 53.2056 36.0205 55.6824 35.6373 58.175C35.5476 58.7551 35.5424 58.7551 36.1646 58.7551H36.6498C36.9135 58.7551 37.1772 58.7551 37.4303 58.7551C37.6834 58.7551 37.7467 58.6865 37.7783 58.4545C37.8733 57.7267 38.0051 56.999 38.0948 56.2713C38.1264 56.0339 38.2213 55.9865 38.4323 55.997C38.7645 55.997 39.102 55.997 39.4395 55.997C40.0374 56.0086 40.6292 55.8746 41.1639 55.6068C41.62 55.3436 42.0001 54.9667 42.2672 54.513C42.5343 54.0592 42.6792 53.544 42.688 53.0175C42.8567 51.4829 42.1923 50.6391 40.6682 50.4915ZM39.2549 54.2251H38.9332C38.4059 54.262 38.4059 54.262 38.4639 53.7347C38.5219 53.2073 38.5957 52.8329 38.659 52.3847C38.659 52.2845 38.659 52.1895 38.8172 52.1948C39.1699 52.1782 39.5232 52.1977 39.8719 52.2528C40.0314 52.2789 40.1749 52.3649 40.273 52.4934C40.371 52.6219 40.4162 52.7829 40.3993 52.9437C40.4243 53.106 40.4131 53.2718 40.3665 53.4293C40.3198 53.5868 40.2389 53.732 40.1295 53.8545C40.0201 53.977 39.885 54.0737 39.7338 54.1378C39.5826 54.2019 39.419 54.2317 39.2549 54.2251V54.2251Z" fill="white"/>
</svg>
