<svg width="90" height="90" viewBox="0 0 90 90" fill="none" xmlns="http://www.w3.org/2000/svg">
<circle cx="45" cy="45" r="45" fill="#EFEFEF"/>
<g clip-path="url(#clip0_593_295)">
<path d="M64.7009 61.0009H15.9153C15.0196 61.0009 14.1355 60.7953 13.3299 60.3995C12.5243 60.0038 11.8182 59.4283 11.265 58.7164C10.7118 58.0046 10.3259 57.1751 10.1364 56.2905C9.94693 55.4059 9.95887 54.4893 10.1713 53.6101L14.2589 36.6862C14.7194 34.7793 15.8001 33.0838 17.3278 31.8715C18.8556 30.6591 20.7419 30.0001 22.6845 30H79L73.1266 54.3166C72.6657 56.2231 71.5849 57.9182 70.0571 59.1301C68.5294 60.3421 66.6433 61.0009 64.7009 61.0009Z" fill="#08A540"/>
<path d="M35.0497 55.2574H16.1034C15.7454 55.2574 15.402 55.1137 15.1488 54.8579C14.8956 54.602 14.7533 54.2551 14.7533 53.8933C14.7533 53.5315 14.8956 53.1845 15.1488 52.9287C15.402 52.6728 15.7454 52.5291 16.1034 52.5291H35.0497C35.4078 52.5291 35.7512 52.6728 36.0044 52.9287C36.2576 53.1845 36.3998 53.5315 36.3998 53.8933C36.3998 54.2551 36.2576 54.602 36.0044 54.8579C35.7512 55.1137 35.4078 55.2574 35.0497 55.2574Z" fill="#EBEBEB"/>
<path d="M19.6007 55.2574C19.4573 55.2576 19.3149 55.2344 19.1789 55.1887C19.0104 55.1327 18.8546 55.0437 18.7202 54.9268C18.5857 54.81 18.4754 54.6675 18.3955 54.5075C18.3157 54.3475 18.2677 54.1732 18.2545 53.9946C18.2413 53.8159 18.2631 53.6363 18.3185 53.4661L22.3987 40.9536C22.4541 40.7834 22.5422 40.6259 22.6579 40.4901C22.7735 40.3543 22.9146 40.2429 23.0729 40.1622C23.2312 40.0814 23.4037 40.033 23.5805 40.0197C23.7574 40.0063 23.9351 40.0283 24.1035 40.0843C24.4434 40.1971 24.7252 40.4415 24.887 40.7639C25.0488 41.0863 25.0775 41.4604 24.9667 41.8041L20.8856 54.3166C20.797 54.5903 20.625 54.8287 20.3943 54.9977C20.1635 55.1667 19.8857 55.2576 19.6007 55.2574Z" fill="#EBEBEB"/>
<path d="M31.8643 55.2574C31.7207 55.2571 31.5781 55.2339 31.4416 55.1887C31.1016 55.0754 30.82 54.8303 30.6589 54.5073C30.4977 54.1842 30.4701 53.8097 30.5822 53.4661L34.1204 42.6C34.2326 42.2564 34.4751 41.9719 34.7948 41.8089C35.1145 41.6459 35.4851 41.6178 35.8253 41.7307C36.1653 41.844 36.4469 42.0891 36.6081 42.4122C36.7692 42.7352 36.7968 43.1097 36.6847 43.4533L33.1465 54.3166C33.0581 54.5899 32.8865 54.828 32.6563 54.9969C32.426 55.1658 32.1489 55.257 31.8643 55.2574Z" fill="#EBEBEB"/>
<path d="M35.4072 44.2586C35.2718 44.2585 35.1372 44.2379 35.0078 44.1975C34.6658 44.0904 34.3799 43.8505 34.2129 43.5304C34.046 43.2104 34.0117 42.8364 34.1176 42.4909C34.8746 40.0185 33.599 38.9958 32.396 38.5725C30.1167 37.7719 26.1781 38.6364 24.9406 41.8652C24.8766 42.0323 24.7807 42.1851 24.6583 42.3147C24.5358 42.4443 24.3893 42.5483 24.2271 42.6206C24.0648 42.693 23.8901 42.7323 23.7128 42.7363C23.5355 42.7404 23.3592 42.7091 23.1939 42.6442C23.0285 42.5797 22.8774 42.4828 22.7491 42.3592C22.6208 42.2356 22.5179 42.0876 22.4463 41.9238C22.3747 41.7599 22.3358 41.5834 22.3318 41.4044C22.3277 41.2253 22.3587 41.0472 22.4229 40.8802C24.1538 36.3644 29.5366 34.6785 33.2834 35.9956C34.7229 36.5018 35.8178 37.4068 36.4491 38.6082C36.9333 39.5311 37.37 41.0938 36.6949 43.2971C36.6098 43.5752 36.4389 43.8184 36.2072 43.9914C35.9756 44.1644 35.6953 44.258 35.4072 44.2586Z" fill="#EBEBEB"/>
<path d="M40.5628 55.2574C40.4195 55.2571 40.2772 55.234 40.141 55.1887C39.9726 55.1327 39.8167 55.0437 39.6823 54.9269C39.5479 54.81 39.4376 54.6675 39.3577 54.5075C39.2778 54.3476 39.2299 54.1733 39.2166 53.9946C39.2034 53.8159 39.2252 53.6363 39.2807 53.4661L43.3617 40.9536C43.4172 40.7834 43.5052 40.6259 43.6209 40.4901C43.7366 40.3543 43.8776 40.2429 44.0359 40.1622C44.1943 40.0814 44.3668 40.033 44.5436 40.0197C44.7205 40.0063 44.8982 40.0283 45.0666 40.0843C45.4066 40.1976 45.6882 40.4428 45.8494 40.7658C46.0105 41.0889 46.0381 41.4634 45.926 41.8069L41.845 54.3195C41.756 54.5922 41.5843 54.8296 41.3541 54.998C41.1239 55.1664 40.847 55.2572 40.5628 55.2574Z" fill="#EBEBEB"/>
<path d="M53.185 48.4292L56.9392 45.635L54.1105 54.3166C54.0221 54.5899 53.8505 54.828 53.6203 54.9969C53.39 55.1658 53.1129 55.257 52.8284 55.2574C52.6848 55.2571 52.5421 55.2339 52.4056 55.1887C52.0656 55.0754 51.7841 54.8303 51.6229 54.5073C51.4617 54.1842 51.4341 53.8097 51.5462 53.4662L53.185 48.4292Z" fill="#EBEBEB"/>
<path d="M55.2557 41.7458C55.5649 39.8068 54.4326 38.9507 53.3581 38.5725C51.0788 37.7719 47.1402 38.6364 45.9027 41.8652C45.7731 42.2024 45.5164 42.4739 45.1888 42.6199C44.8613 42.766 44.4898 42.7747 44.1559 42.6442C43.9906 42.5797 43.8395 42.4828 43.7112 42.3592C43.5829 42.2356 43.48 42.0876 43.4084 41.9238C43.3368 41.7599 43.2979 41.5834 43.2939 41.4044C43.2898 41.2253 43.3208 41.0472 43.385 40.8802C45.1169 36.3644 50.4987 34.6785 54.2455 35.9956C55.685 36.5018 56.78 37.4068 57.4112 38.6082C57.6094 38.9879 57.7586 39.3917 57.8554 39.8096L55.2557 41.7458Z" fill="#EBEBEB"/>
<path d="M57.9969 41.4579C57.9594 42.0827 57.8459 42.7004 57.6589 43.2971C57.5735 43.5754 57.4023 43.8188 57.1703 43.9917C56.9383 44.1647 56.6576 44.2582 56.3693 44.2586C56.2339 44.2585 56.0992 44.2379 55.9699 44.1974C55.6354 44.093 55.3544 43.8608 55.1868 43.5502C55.0604 43.3209 55.0034 43.0592 55.0229 42.7976L57.9811 40.5952C58.007 40.882 58.0123 41.1703 57.9969 41.4579Z" fill="#EBEBEB"/>
<path d="M65.484 38.3965L57.3163 44.4768L53.563 47.272L49.373 50.3907C49.0072 50.665 48.564 50.8134 48.1085 50.814C47.5944 50.813 47.0981 50.6235 46.7118 50.2806L42.4213 46.4986C42.1517 46.2606 41.9866 45.9241 41.9624 45.5632C41.9381 45.2023 42.0566 44.8464 42.2918 44.5738C42.4084 44.4388 42.5502 44.3283 42.709 44.2487C42.8679 44.1691 43.0407 44.1218 43.2176 44.1097C43.3945 44.0976 43.572 44.1207 43.74 44.1779C43.9081 44.2351 44.0633 44.3252 44.1969 44.443L48.1411 47.9239L55.0248 42.7985L57.9829 40.5961L63.8834 36.2035C64.1718 35.989 64.5326 35.8989 64.8867 35.9531C65.2408 36.0072 65.5591 36.2012 65.7717 36.4924C65.9827 36.7837 66.0708 37.1476 66.0169 37.5045C65.963 37.8613 65.7714 38.1821 65.484 38.3965Z" fill="#EBEBEB"/>
<path d="M66.6144 51.0323C66.472 51.0323 66.3306 51.0094 66.1954 50.9646C66.0268 50.909 65.8708 50.8205 65.7361 50.704C65.6015 50.5875 65.4909 50.4453 65.4106 50.2856C65.3304 50.1259 65.2821 49.9517 65.2684 49.7732C65.2548 49.5946 65.2762 49.415 65.3313 49.2448L69.4477 36.4999C69.5027 36.3296 69.5903 36.1719 69.7056 36.0359C69.8209 35.8998 69.9616 35.7881 70.1197 35.707C70.2778 35.6259 70.4501 35.5771 70.6269 35.5633C70.8036 35.5496 70.9813 35.5712 71.1498 35.6269C71.4902 35.739 71.7726 35.9832 71.9348 36.3057C72.097 36.6283 72.1258 37.0027 72.0148 37.3466L67.8974 50.0915C67.8091 50.365 67.6374 50.6032 67.407 50.7722C67.1765 50.9412 66.8991 51.0322 66.6144 51.0323Z" fill="#EBEBEB"/>
<path d="M65.2661 55.2575C65.1401 55.2568 65.0147 55.2385 64.8937 55.2029C64.7231 55.1529 64.5639 55.0695 64.4253 54.9573C64.2867 54.8451 64.1714 54.7063 64.0859 54.549C64.0005 54.3917 63.9466 54.2189 63.9273 54.0406C63.9081 53.8622 63.9238 53.6817 63.9737 53.5095L64.1925 52.7493C64.242 52.5769 64.3246 52.4161 64.4356 52.276C64.5467 52.1359 64.6839 52.0194 64.8396 51.9329C64.9953 51.8465 65.1663 51.7919 65.3428 51.7724C65.5194 51.7528 65.698 51.7686 65.8686 51.8189C66.0391 51.8689 66.1981 51.9524 66.3367 52.0647C66.4752 52.1769 66.5905 52.3156 66.676 52.4729C66.7614 52.6302 66.8153 52.8029 66.8346 52.9813C66.8539 53.1596 66.8383 53.3401 66.7885 53.5123L66.5697 54.2734C66.4879 54.5583 66.3164 54.8086 66.0811 54.9861C65.8459 55.1637 65.5598 55.259 65.2661 55.2575Z" fill="#EBEBEB"/>
</g>
<defs>
<clipPath id="clip0_593_295">
<rect width="69" height="31" fill="white" transform="translate(10 30)"/>
</clipPath>
</defs>
</svg>
