<svg width="90" height="90" viewBox="0 0 90 90" fill="none" xmlns="http://www.w3.org/2000/svg">
<circle cx="45" cy="45" r="45" fill="#CC3541"/>
<path fill-rule="evenodd" clip-rule="evenodd" d="M80.2977 37.5039C81.1094 37.5039 81.7732 38.1384 81.7732 38.9138C81.7732 39.6893 81.1094 40.3238 80.2977 40.3238C79.4867 40.3238 78.8223 39.6893 78.8223 38.9138C78.8223 38.1384 79.4867 37.5039 80.2977 37.5039ZM80.2487 38.0914C80.2241 38.0914 80.1996 38.0914 80.175 38.0914C80.1505 38.0914 80.1259 38.0914 80.1014 38.0914C80.0763 38.0914 80.0517 38.0914 80.0272 38.0914C80.0027 38.0914 79.9781 38.0914 79.9781 38.0914V38.7963H80.1996C80.3223 38.7963 80.4456 38.7728 80.5192 38.7024C80.5928 38.6319 80.6419 38.5379 80.6419 38.4204C80.6419 38.3264 80.6174 38.2324 80.5438 38.1854C80.4701 38.1149 80.3714 38.0914 80.2487 38.0914ZM79.7321 37.9504C79.8063 37.9269 79.8799 37.9269 79.9781 37.9269C80.0768 37.9269 80.1505 37.9269 80.2241 37.9269C80.3223 37.9269 80.3965 37.9269 80.4701 37.9504C80.5438 37.9739 80.6174 37.9974 80.6665 38.0444C80.7161 38.0914 80.7652 38.1384 80.8143 38.2089C80.8388 38.2794 80.8634 38.3499 80.8634 38.4439C80.8634 38.5849 80.8143 38.7024 80.7407 38.7963C80.6665 38.8903 80.5437 38.9608 80.421 38.9843L80.5683 39.0783L81.0603 39.8303H80.7898L80.2487 39.0078L79.9781 38.9608V39.8303H79.7321V37.9504ZM23.6463 53.9765L23.3512 51.6971L13.0241 51.7206L12.7536 54H10.4177V48.9948H12.016C13.983 46.6214 14.3273 42.6266 14.3519 39.1958C14.3765 35.624 15.8026 36.047 17.868 36.0235L24.1626 36L24.1872 48.9713L25.9575 48.9478L25.9821 53.9765H23.6463ZM67.6596 51.6266C68.397 51.4151 69.1841 51.0861 69.651 50.8277L68.889 48.6423C67.8314 49.2063 66.6019 49.7233 65.3976 49.7233C64.9547 49.7233 64.5859 49.5118 64.3154 49.3473C64.045 49.1828 63.922 48.9008 63.9466 48.5248C63.9466 48.2193 64.0941 47.9843 64.3646 47.7964C64.635 47.6084 64.9792 47.4438 65.3725 47.3029C65.7663 47.1619 66.2087 46.9974 66.6761 46.8329C67.143 46.6684 67.5859 46.4569 67.9792 46.175C68.3725 45.893 68.7167 45.5405 69.0118 45.1175C69.3068 44.6945 69.4547 44.1305 69.4792 43.4726C69.5283 42.3681 69.2087 41.5222 68.5448 40.9347C67.2412 39.7833 64.7828 39.9478 63.1598 40.3473C62.4221 40.5352 61.8566 40.7232 61.4386 40.9582L62.0287 43.0731C63.0122 42.7206 64.0449 42.2741 65.0779 42.2507C65.9872 42.2507 66.4301 42.7441 66.4056 43.4021C66.4056 43.6841 66.2577 43.8956 65.9872 44.0601C65.7172 44.2245 65.3725 44.389 64.9792 44.53C64.5859 44.671 64.1433 44.8355 63.6761 45C63.2089 45.1645 62.7663 45.376 62.3729 45.6344C61.9795 45.893 61.6353 46.2454 61.3403 46.6684C61.0452 47.0914 60.8976 47.6319 60.8731 48.2898C60.8239 49.4178 61.1681 50.3107 61.9057 50.9687C63.3073 52.1906 65.9136 52.0966 67.6596 51.6266ZM70.7087 41.0287C71.3228 40.7467 72.0854 40.5352 72.9461 40.3943C73.8063 40.2298 74.7161 40.1593 75.6505 40.1593C76.4621 40.1593 77.1505 40.2533 77.6916 40.4413C78.2327 40.6292 78.675 40.8877 78.9947 41.2402C79.3143 41.5927 79.5357 41.9921 79.683 42.4622C79.8308 42.9321 79.8799 43.4726 79.8799 44.0836C79.8799 44.7415 79.8554 45.3995 79.8063 46.0574C79.7567 46.7154 79.7321 47.3734 79.7321 48.0313C79.7321 48.6658 79.7567 49.3003 79.8063 49.9112C79.8554 50.5222 79.9781 51.0861 80.175 51.6266H77.6916L77.1996 50.0757H77.0768C76.7572 50.5457 76.3394 51.0392 75.7737 51.3682C75.2081 51.6971 74.4952 51.8851 73.6345 51.8851C73.0934 51.8851 72.6019 51.8146 72.159 51.6502C70.8068 51.1567 70.0443 49.8877 70.0443 48.5248C70.0443 47.8433 70.2167 47.2559 70.5118 46.7859C70.8314 46.3159 71.2983 45.9399 71.8885 45.6344C72.4787 45.3525 73.2167 45.141 74.0523 45.0235C74.8885 44.906 75.8228 44.8825 76.8554 44.906C76.9536 44.0601 76.9045 43.4726 76.659 43.0966C76.413 42.7206 75.8965 42.5562 75.0854 42.5562C74.4707 42.5562 73.8314 42.6266 73.1425 42.7442C72.4541 42.8616 71.913 43.0261 71.4707 43.2141L70.7087 41.0287ZM74.6179 49.3707C75.2327 49.3707 75.7247 49.2298 76.0688 48.9713C76.4376 48.7128 76.6836 48.4308 76.8554 48.1253V46.6684C76.3639 46.6214 75.8965 46.6214 75.4541 46.6449C75.0112 46.6684 74.6179 46.7389 74.2737 46.8564C73.9296 46.9739 73.659 47.1149 73.4621 47.3029C73.2657 47.4909 73.167 47.7493 73.167 48.0548C73.167 48.4778 73.2903 48.8068 73.5608 49.0418C73.8063 49.2533 74.151 49.3707 74.6179 49.3707ZM53.9883 49.6057C54.5538 49.6762 55.021 49.6762 55.4636 49.5353C56.3488 49.2767 56.9389 48.7363 56.9389 47.7964C56.9389 46.8329 56.2505 46.3394 54.8735 46.3394C54.3571 46.3394 53.8407 46.4804 53.472 46.6449V48.4308C53.472 48.9948 53.3982 49.5353 53.9883 49.6057ZM53.472 44.577C54.1604 44.342 54.9227 44.2716 55.6603 44.2481C56.4718 44.2481 57.1602 44.342 57.7257 44.5065C58.2913 44.671 58.7585 44.9295 59.1027 45.235C59.4469 45.5405 59.7174 45.9164 59.8649 46.3394C60.0125 46.7624 60.1108 47.2324 60.1108 47.7259C60.1108 49.0888 59.6928 50.0992 58.8568 50.7807C58.0208 51.4622 56.5455 51.9556 54.5293 51.9556C52.5376 51.9556 50.4722 51.5562 50.4476 49.0653L50.423 40.4413H53.472V44.577ZM45.2594 46.8564H41.4236V51.6502H38.3747V40.4648H41.4236V44.6945H45.2594V40.4648H48.3084L48.333 51.6971H45.284L45.2594 46.8564ZM36.4322 50.7102C35.9651 51.0627 35.3257 51.3681 34.5143 51.6266C33.7029 51.8851 32.8423 52.0026 31.9326 52.0026C30.0392 52.0026 28.6623 51.4856 27.7771 50.4282C26.8919 49.3707 26.4493 47.9373 26.4493 46.081C26.4493 44.107 26.9411 42.6266 27.9246 41.6397C28.9082 40.6527 30.2851 40.1593 32.0801 40.1593C32.6702 40.1593 33.2603 40.2298 33.8258 40.3708C34.3914 40.5118 34.8831 40.7702 35.3257 41.0992C35.7683 41.4517 36.1125 41.8981 36.383 42.4856C36.6535 43.0731 36.7765 43.8016 36.7765 44.671C36.7765 45.611 36.383 46.8094 34.9815 46.8094L29.4983 46.8329C29.5475 47.7728 29.7933 48.4778 30.2605 48.9713C30.7277 49.4413 31.4654 49.6762 32.4981 49.6762C33.1374 49.6762 33.7029 49.5822 34.2193 49.3943C34.7356 49.2063 35.1044 49.0183 35.3749 48.8303L36.4322 50.7102ZM32.0555 42.4856C31.2686 42.4856 30.6785 42.7206 30.2851 43.1671C29.8917 43.6371 29.6704 44.2245 29.5967 45H32.6948C33.5062 45 34.0717 45.0705 33.9488 44.1305C33.8996 43.7311 33.7767 43.4021 33.5799 43.1201C33.2357 42.6971 32.744 42.4856 32.0555 42.4856ZM20.9661 48.9713L20.9415 38.2559H18.7778C17.6959 38.2559 17.327 38.0444 17.2533 39.5013C17.1549 41.7337 16.9337 43.8486 16.6386 45.282C16.2943 46.9739 15.6797 48.3603 15.2125 48.9713H20.9661ZM80.2977 37.5979C81.0603 37.5979 81.675 38.1854 81.675 38.9138C81.675 39.6423 81.0603 40.2298 80.2977 40.2298C79.5357 40.2298 78.921 39.6423 78.921 38.9138C78.921 38.1854 79.5357 37.5979 80.2977 37.5979Z" fill="white"/>
</svg>
