<svg width="90" height="90" viewBox="0 0 90 90" fill="none" xmlns="http://www.w3.org/2000/svg">
<circle cx="45" cy="45" r="45" fill="#EFEFEF"/>
<path d="M31 57L49 50.1947L45.1689 26L42.0748 46.9084L31 57Z" fill="#0D783A"/>
<path d="M75.4304 38.7171L68.7767 41.3967C68.9127 42.4302 68.9797 43.4716 68.9772 44.514C68.9834 50.0303 67.136 55.3888 63.7315 59.7294C60.327 64.0699 55.5629 67.1407 50.2039 68.4488C44.8448 69.757 39.2017 69.2267 34.1802 66.943C29.1587 64.6593 25.0501 60.7548 22.5138 55.856C19.9776 50.9572 19.1608 45.3483 20.1946 39.9296C21.2283 34.511 24.0528 29.5968 28.2144 25.9758C32.3761 22.3549 37.6336 20.2371 43.1432 19.9626C48.6528 19.688 54.0948 21.2726 58.5958 24.4619L54.2208 28.8369L61.0384 28.9189L67.8561 29.0009L67.7741 22.1832L67.7012 15.3655L63.6088 19.458C57.7591 14.9942 50.5312 12.7192 43.1794 13.0277C35.8275 13.3362 28.8156 16.2087 23.3604 21.1468C17.9052 26.085 14.3509 32.7772 13.3142 40.0621C12.2776 47.3471 13.8239 54.765 17.6851 61.0289C21.5462 67.2928 27.4783 72.0074 34.4522 74.3545C41.4261 76.7016 49.0017 76.5333 55.8644 73.8785C62.7272 71.2238 68.444 66.2502 72.023 59.8209C75.6019 53.3916 76.8171 45.9123 75.4577 38.6806L75.4304 38.7171Z" fill="#0D783A"/>
</svg>
