<svg width="90" height="90" viewBox="0 0 90 90" fill="none" xmlns="http://www.w3.org/2000/svg">
<circle cx="45" cy="45" r="45" fill="#F5F5F5"/>
<path fill-rule="evenodd" clip-rule="evenodd" d="M60.2837 17.3485C65.6171 20.103 68.7389 26.4566 69 30.9068C66.7288 23.8079 62.6426 20.5269 58.366 18.6055C56.8811 19.6963 56.4805 19.9752 56.4805 19.9752L53.3579 19.2684C53.3579 19.2684 53.1909 18.7488 52.6163 17.0343C40.6801 16.3964 31.6642 23.8252 26.4445 32.5908C27.4621 34.2348 27.8173 34.8891 27.8173 34.8891L26.0478 38.9499C26.0478 38.9499 25.4159 39.0517 23.4324 39.2516C17.1253 60.2716 30.5008 68.4487 30.5008 68.4487L33.1837 67.1933L36.3235 68.6203C36.3235 68.6203 36.4435 69.114 36.8824 71.2329C43.9987 73.0345 53.8463 70.3678 61.9363 62.3599C55.8698 72.4373 40.419 77.0639 30.4028 71.6717C18.1837 65.0956 15.2719 47.2196 23.681 32.1394C32.09 17.0601 48.5905 11.3083 60.2837 17.3485Z" fill="#C51617"/>
<path fill-rule="evenodd" clip-rule="evenodd" d="M43.0385 19.5207C43.4047 19.5207 43.7009 19.8177 43.7009 20.1844C43.7009 20.5504 43.4047 20.8474 43.0385 20.8474C42.6724 20.8474 42.3752 20.5504 42.3752 20.1844C42.376 19.8177 42.6724 19.5207 43.0385 19.5207Z" fill="#C51617"/>
<path fill-rule="evenodd" clip-rule="evenodd" d="M46.5878 68.3562C46.954 68.3562 47.2502 68.6532 47.2502 69.0192C47.2502 69.3859 46.954 69.6821 46.5878 69.6821C46.2217 69.6821 45.9246 69.3852 45.9246 69.0192C45.9246 68.6532 46.2209 68.3562 46.5878 68.3562Z" fill="#C51617"/>
<path fill-rule="evenodd" clip-rule="evenodd" d="M33.7296 25.9841C34.1568 25.9841 34.5026 26.3304 34.5026 26.7583C34.5026 27.1861 34.1561 27.5325 33.7296 27.5325C33.3032 27.5325 32.9565 27.1861 32.9565 26.7583C32.9565 26.3312 33.3023 25.9841 33.7296 25.9841Z" fill="#C51617"/>
<path fill-rule="evenodd" clip-rule="evenodd" d="M23.8182 47.1748C24.2455 47.1748 24.5912 47.5212 24.5912 47.9491C24.5912 48.3761 24.2455 48.7225 23.8182 48.7225C23.391 48.7225 23.0444 48.3761 23.0444 47.9491C23.0444 47.5212 23.391 47.1748 23.8182 47.1748Z" fill="#C51617"/>
<path fill-rule="evenodd" clip-rule="evenodd" d="M25.7543 58.9096C26.1815 58.9096 26.5273 59.256 26.5273 59.683C26.5273 60.1109 26.1807 60.4573 25.7543 60.4573C25.327 60.4573 24.9805 60.1109 24.9805 59.683C24.9805 59.256 25.327 58.9096 25.7543 58.9096Z" fill="#C51617"/>
<path fill-rule="evenodd" clip-rule="evenodd" d="M64.9119 25.3336C65.2168 25.3336 65.4646 25.5813 65.4646 25.8861C65.4646 26.1917 65.2168 26.4393 64.9119 26.4393C64.6069 26.4393 64.3599 26.1917 64.3599 25.8861C64.3599 25.5813 64.6069 25.3336 64.9119 25.3336Z" fill="#C51617"/>
<path fill-rule="evenodd" clip-rule="evenodd" d="M58.6125 62.6515C58.9175 62.6515 59.1653 62.8982 59.1653 63.2047C59.1653 63.5096 58.9175 63.7572 58.6125 63.7572C58.3076 63.7572 58.0598 63.5096 58.0598 63.2047C58.0606 62.8982 58.3076 62.6515 58.6125 62.6515Z" fill="#C51617"/>
<path fill-rule="evenodd" clip-rule="evenodd" d="M36.7439 62.7338V28.4117H49.947C52.7834 28.4117 55.2835 28.8631 57.4434 29.7658C59.6033 30.6679 61.4096 31.8918 62.86 33.4395C64.3104 34.9864 65.4072 36.7989 66.148 38.8779C66.8896 40.956 67.2613 43.1713 67.2613 45.5245C67.2613 48.1348 66.8497 50.4958 66.0273 52.607C65.2057 54.7172 64.0368 56.5227 62.5212 58.021C61.0051 59.5186 59.1839 60.679 57.0569 61.5011C54.9285 62.3223 52.5584 62.7338 49.947 62.7338H36.7439ZM57.6849 45.5245C57.6849 44.2034 57.5077 42.995 57.1526 41.8995C56.7981 40.8032 56.291 39.8691 55.6292 39.0957C54.9692 38.3222 54.1546 37.7173 53.1872 37.2823C52.2197 36.8475 51.1394 36.6297 49.947 36.6297H46.1744V54.5151H49.947C51.1723 54.5151 52.2683 54.2902 53.235 53.8388C54.2024 53.3874 55.0162 52.759 55.6779 51.9542C56.3379 51.1486 56.839 50.1973 57.1769 49.101C57.5155 48.0063 57.6849 46.8136 57.6849 45.5245Z" fill="#005C32"/>
<path fill-rule="evenodd" clip-rule="evenodd" d="M47.1214 59.6666H28.7761C29.1642 60.719 29.6157 61.7432 30.1308 62.7329H47.1214V59.6666ZM47.1214 28.4156H34.8347C34.2005 29.1844 33.5922 29.9875 33.0142 30.826C32.8637 31.0439 32.7171 31.2626 32.5729 31.482H47.1214V28.4156ZM47.1214 33.4128H31.393C30.8207 34.4198 30.3064 35.4439 29.8486 36.4792H47.1214V33.4128ZM47.1214 54.6695H27.4441C27.6213 55.7094 27.8557 56.7328 28.1442 57.7357H47.1214V54.6695Z" fill="#005C32"/>
</svg>
