<svg width="90" height="90" viewBox="0 0 90 90" fill="none" xmlns="http://www.w3.org/2000/svg">
<circle cx="45" cy="45" r="45" fill="#F5F5F5"/>
<path d="M26.142 67.4205V53.1193H28.5114C29.3182 52.5398 30.0568 51.7216 30.7273 50.6648C31.3977 49.5966 31.9716 48.125 32.4489 46.25C32.9261 44.3636 33.267 41.8977 33.4716 38.8523L34.4602 24.0909H57.5568V53.1193H61.375V67.3864H54.2841V59H33.233V67.4205H26.142ZM37.0341 53.1193H50.4659V30.1761H41.108L40.5625 38.8523C40.4148 41.1591 40.1705 43.2045 39.8295 44.9886C39.5 46.7727 39.0966 48.3352 38.6193 49.6761C38.1534 51.0057 37.625 52.1534 37.0341 53.1193Z" fill="#E3E3E3"/>
</svg>
