<svg width="90" height="90" viewBox="0 0 90 90" fill="none" xmlns="http://www.w3.org/2000/svg">
<circle cx="45" cy="45" r="45" fill="#F5F5F5"/>
<path d="M26.142 66.4205V52.1193H28.5114C29.3182 51.5398 30.0568 50.7216 30.7273 49.6648C31.3977 48.5966 31.9716 47.125 32.4489 45.25C32.9261 43.3636 33.267 40.8977 33.4716 37.8523L34.4602 23.0909H57.5568V52.1193H61.375V66.3864H54.2841V58H33.233V66.4205H26.142ZM37.0341 52.1193H50.4659V29.1761H41.108L40.5625 37.8523C40.4148 40.1591 40.1705 42.2045 39.8295 43.9886C39.5 45.7727 39.0966 47.3352 38.6193 48.6761C38.1534 50.0057 37.625 51.1534 37.0341 52.1193Z" fill="#E3E3E3"/>
</svg>
