<svg width="90" height="90" viewBox="0 0 90 90" fill="none" xmlns="http://www.w3.org/2000/svg">
<circle cx="45" cy="45" r="45" fill="#F5F5F5"/>
<path fill-rule="evenodd" clip-rule="evenodd" d="M67.5741 39.48L60.2007 47.7867V62.2533H29.4007V37.0533C29.4007 28.6533 36.4007 21.7467 44.8941 21.7467C47.3207 21.7467 49.5607 22.3067 51.7074 23.24H51.8007C53.7607 24.2667 55.6274 25.76 57.0274 27.44L57.7741 26.88L62.3474 21.7467C60.2007 19.6 57.8674 17.7333 55.0674 16.3333H54.9741C51.9874 14.84 48.5341 14 44.8941 14C32.2007 14 21.6541 24.2667 21.6541 37.0533V70H67.9474V39.48H67.5741Z" fill="#78B943"/>
<path d="M46.1074 48.5333L67.1074 24.5467C67.2007 24.4533 67.2007 24.4533 67.2941 24.5467C68.2274 25.5733 67.9474 26.6 67.1074 27.5333L46.2941 50.8667C46.1074 51.0533 45.9207 51.0533 45.7341 50.96L34.1607 44.3333C33.3207 43.7733 32.6674 42.9333 33.5074 41.6267C33.6007 41.5333 33.6007 41.5333 33.6941 41.6267L45.9207 48.72C46.0141 48.72 46.1074 48.6267 46.1074 48.5333Z" fill="#015293"/>
<path d="M46.1074 44.4267L67.2007 20.44C67.2941 20.3467 67.2941 20.3467 67.3874 20.44C68.3207 21.4667 68.0407 22.4933 67.2007 23.4267L46.2941 46.76C46.1074 46.9467 45.9207 46.9467 45.7341 46.8533L34.1607 40.1333C33.3207 39.5733 32.6674 38.7333 33.5074 37.4267C33.6007 37.3333 33.6007 37.3333 33.6941 37.4267L45.9207 44.52C46.0141 44.6133 46.1074 44.52 46.1074 44.4267Z" fill="#015293"/>
<path d="M46.1074 52.7333L67.1074 28.7467C67.2007 28.6533 67.2007 28.6533 67.2941 28.7467C68.2274 29.7733 67.9474 30.8 67.1074 31.7333L46.2941 54.9733C46.1074 55.16 45.9207 55.16 45.7341 55.0667L34.1607 48.44C33.3207 47.88 32.6674 47.04 33.5074 45.7333C33.6007 45.64 33.6007 45.64 33.6941 45.7333L45.9207 52.8267C46.0141 52.8267 46.1074 52.7333 46.1074 52.7333Z" fill="#015293"/>
<path d="M46.1074 56.84L67.1074 32.8533C67.2007 32.76 67.2007 32.76 67.2941 32.8533C68.2274 33.88 67.9474 34.9067 67.1074 35.84L46.2941 59.08C46.1074 59.2667 45.9207 59.2667 45.7341 59.1733L34.1607 52.5467C33.3207 51.9867 32.6674 51.1467 33.5074 49.84C33.6007 49.7467 33.6007 49.7467 33.6941 49.84L45.9207 56.9333C46.0141 56.9333 46.1074 56.9333 46.1074 56.84Z" fill="#015293"/>
</svg>
