<svg width="90" height="90" viewBox="0 0 90 90" fill="none" xmlns="http://www.w3.org/2000/svg">
<circle cx="45" cy="45" r="45" fill="#EFEFEF"/>
<g clip-path="url(#clip0_593_360)">
<path d="M77.9492 42.9332C77.2232 30.2363 70.8321 20.9469 59.6118 15.5359C47.446 9.68834 35.6517 11.1695 24.8873 19.3031C18.0572 24.4401 14.1904 31.572 13 40.1336C15.6932 34.2689 17.8461 28.2244 23.0215 23.7552C31.1349 16.7603 45.4029 14.8939 55.4159 20.0908C65.4288 25.2877 70.5029 35.1764 69.3378 47.1627C68.3584 57.2911 59.6878 65.9299 49.7171 66.3579C46.627 66.4949 43.2584 66.6661 40.4301 63.601L44.7867 62.7449C49.008 61.8887 53.2293 61.0326 56.9863 58.7552C60.414 56.7004 62.5922 53.7637 62.2714 49.6285C61.959 45.673 59.8483 42.7791 56.2939 40.8442C50.1055 37.4966 43.7651 37.5908 37.3825 39.8682C29.0242 42.8391 23.4266 51.0497 23.9839 59.149C24.5664 67.6079 30.527 74.2004 39.4255 76.2723C59.2067 80.81 79.1397 63.6866 77.9492 42.9332ZM39.0456 54.6199C38.4378 51.6832 41.9752 46.6147 44.9048 46.1781C45.362 46.065 45.8392 46.063 46.2973 46.1722C46.7555 46.2815 47.1817 46.499 47.5413 46.8069C47.9009 47.1149 48.1836 47.5045 48.3666 47.9442C48.5495 48.384 48.6277 48.8613 48.5943 49.3374C48.5943 52.3768 42.2454 56.8544 39.7126 55.5702C39.3774 55.3529 39.1382 55.0123 39.0456 54.6199Z" fill="#087DC4"/>
<path d="M48.5605 30.5102C48.6032 29.2178 49.1313 27.9908 50.037 27.0804C50.9426 26.17 52.1572 25.645 53.4319 25.613C54.0919 25.6163 54.7447 25.7521 55.3526 26.0126C55.9605 26.2731 56.5114 26.6532 56.9737 27.1308C57.436 27.6084 57.8005 28.1741 58.0461 28.7953C58.2917 29.4165 58.4135 30.0808 58.4046 30.75C58.337 33.0787 55.6101 35.7244 53.339 35.6387C51.0679 35.5531 48.569 32.8818 48.5605 30.5102Z" fill="#F22D55"/>
<path d="M33.1948 30.6729C33.1665 30.0357 33.2624 29.3992 33.4772 28.7997C33.6921 28.2002 34.0215 27.6495 34.4466 27.1794C34.8717 26.7093 35.3842 26.329 35.9546 26.0602C36.525 25.7914 37.1422 25.6394 37.7707 25.613C39.0421 25.6521 40.2524 26.1749 41.1612 27.0775C42.0699 27.9801 42.6108 29.1964 42.6759 30.4846C42.5929 31.7722 42.0691 32.99 41.1952 33.9279C40.3212 34.8657 39.1518 35.4648 37.8888 35.6216C37.2574 35.6185 36.6332 35.4869 36.0529 35.2348C35.4725 34.9826 34.948 34.615 34.5103 34.1536C34.0726 33.6922 33.7306 33.1463 33.5046 32.5484C33.2787 31.9505 33.1734 31.3128 33.1948 30.6729Z" fill="#F22D55"/>
</g>
<defs>
<clipPath id="clip0_593_360">
<rect width="65" height="65" fill="white" transform="translate(13 12)"/>
</clipPath>
</defs>
</svg>
