<svg width="90" height="90" viewBox="0 0 90 90" fill="none" xmlns="http://www.w3.org/2000/svg">
<circle cx="45" cy="45" r="45" fill="#F5F5F5"/>
<path fill-rule="evenodd" clip-rule="evenodd" d="M45.1 11L46.4 15.1H50.7L47.3 17.6L48.6 21.7L45.1 19.2L41.6 21.7L43 17.6L39.5 15.1H43.7L45.1 11Z" fill="#4D4C7F"/>
<path fill-rule="evenodd" clip-rule="evenodd" d="M45.1 68.7L46.4 72.7H50.7L47.3 75.3L48.6 79.4L45.1 76.9L41.6 79.4L43 75.3L39.5 72.7H43.7L45.1 68.7Z" fill="#CD5A44"/>
<path fill-rule="evenodd" clip-rule="evenodd" d="M31.2999 65.3L32.6 69.3H36.9L33.4 71.9L34.7999 76L31.2999 73.5L27.7999 76L29.1 71.9L25.7 69.3H30L31.2999 65.3Z" fill="#C54B43"/>
<path fill-rule="evenodd" clip-rule="evenodd" d="M30.6 15.4L31.9 19.5H36.2L32.7 22L34.1 26.1L30.6 23.6L27.1 26.1L28.5 22L25 19.5H29.3L30.6 15.4Z" fill="#3D4773"/>
<path fill-rule="evenodd" clip-rule="evenodd" d="M58.9001 15.4L60.2001 19.5H64.6001L61.1001 22L62.4001 26.1L58.9001 23.6L55.4001 26.1L56.8 22L53.3 19.5H57.6001L58.9001 15.4Z" fill="#695181"/>
<path fill-rule="evenodd" clip-rule="evenodd" d="M69.7001 25.5L71.1001 29.6H75.4001L71.9001 32.1L73.2001 36.2L69.7001 33.7L66.2001 36.2L67.6001 32.1L64.1001 29.6H68.4001L69.7001 25.5Z" fill="#7B465E"/>
<path fill-rule="evenodd" clip-rule="evenodd" d="M73.4001 39.7L74.8 43.7H79.1001L75.6001 46.3L76.9001 50.4L73.4001 47.9L69.9001 50.4L71.3 46.3L67.8 43.7H72.1001L73.4001 39.7Z" fill="#9B5170"/>
<path fill-rule="evenodd" clip-rule="evenodd" d="M69.7001 54.2L71.1001 58.3H75.4001L71.9001 60.8L73.2001 64.9L69.7001 62.4L66.2001 64.9L67.6001 60.8L64.1001 58.3H68.4001L69.7001 54.2Z" fill="#BB697D"/>
<path fill-rule="evenodd" clip-rule="evenodd" d="M59.2001 64.6L60.6001 68.7H64.9001L61.4001 71.2L62.7001 75.3L59.2001 72.8L55.8001 75.3L57.1001 71.2L53.6001 68.7H57.9001L59.2001 64.6Z" fill="#CC6145"/>
</svg>
