<svg width="90" height="90" viewBox="0 0 90 90" fill="none" xmlns="http://www.w3.org/2000/svg">
<circle cx="45" cy="45" r="45" fill="#F5F5F5"/>
<path d="M19.4002 62C18.7636 62 18.1531 61.7468 17.703 61.296C17.2529 60.8452 17 60.2338 17 59.5964V30.4036C17 29.7661 17.2529 29.1548 17.703 28.704C18.1531 28.2532 18.7636 28 19.4002 28H35.6961C36.3327 28 36.9432 28.2532 37.3933 28.704C37.8434 29.1548 38.0963 29.7661 38.0963 30.4036C38.0963 31.0411 37.8434 31.6525 37.3933 32.1033C36.9432 32.554 36.3327 32.8073 35.6961 32.8073H21.8004V59.5964C21.8004 60.2338 21.5475 60.8452 21.0974 61.296C20.6472 61.7468 20.0367 62 19.4002 62V62Z" fill="#A50297"/>
<path d="M33.3035 46.131H19.4002C18.7636 46.131 18.1531 45.8777 17.703 45.427C17.2529 44.9762 17 44.3648 17 43.7273C17 43.0899 17.2529 42.4785 17.703 42.0277C18.1531 41.5769 18.7636 41.3237 19.4002 41.3237H33.296C33.9325 41.3237 34.543 41.5769 34.9931 42.0277C35.4433 42.4785 35.6961 43.0899 35.6961 43.7273C35.6961 44.3648 35.4433 44.9762 34.9931 45.427C34.543 45.8777 33.9325 46.131 33.296 46.131H33.3035Z" fill="#A50297"/>
<path d="M70.5998 62C69.9632 62 69.3527 61.7468 68.9026 61.296C68.4525 60.8452 68.1996 60.2339 68.1996 59.5964V35.5904L60.3674 59.7406C60.1981 60.2648 59.8673 60.7217 59.4224 61.0458C58.9776 61.3699 58.4416 61.5445 57.8915 61.5445C57.3413 61.5445 56.8054 61.3699 56.3605 61.0458C55.9157 60.7217 55.5848 60.2648 55.4155 59.7406L48.2427 37.6499V59.5964C48.2427 60.2339 47.9899 60.8452 47.5397 61.296C47.0896 61.7468 46.4791 62 45.8426 62C45.206 62 44.5955 61.7468 44.1454 61.296C43.6953 60.8452 43.4424 60.2339 43.4424 59.5964V31.8964C43.4506 30.9749 43.7847 30.086 44.3854 29.3878C44.9861 28.6896 45.8144 28.2273 46.7233 28.0828C47.6322 27.9384 48.5628 28.1213 49.3498 28.599C50.1368 29.0767 50.7293 29.8183 51.0219 30.6921L57.8763 51.8162L64.6549 30.9603C64.974 29.9962 65.6248 29.177 66.4911 28.6489C67.3574 28.1209 68.3829 27.9182 69.3846 28.0772C70.3863 28.2362 71.299 28.7464 71.9598 29.5169C72.6207 30.2874 72.9866 31.2679 72.9924 32.2835V59.609C72.9891 60.243 72.7358 60.85 72.2876 61.2978C71.8395 61.7456 71.2329 61.998 70.5998 62V62Z" fill="#03AC1F"/>
</svg>
