<svg width="90" height="90" viewBox="0 0 90 90" fill="none" xmlns="http://www.w3.org/2000/svg">
<circle cx="45" cy="45" r="45" fill="#F5F5F5"/>
<path d="M32.1451 46.3818V52.9112H31.0968C30.809 52.9112 30.5212 52.9112 30.2376 52.8908C27.7135 52.7721 25.2424 52.1298 22.9836 51.0052C20.7249 49.8806 18.7285 48.2987 17.1233 46.3615L32.1451 46.3818Z" fill="#996666"/>
<path d="M32.1451 17V23.5293H17.1233C18.7285 21.5921 20.7249 20.0102 22.9836 18.8856C25.2424 17.761 27.7135 17.1187 30.2376 17C30.5212 17 30.809 17 31.0968 17H32.1451Z" fill="#996666"/>
<path d="M60.7623 52.9275V52.9071C65.4409 52.7355 69.8702 50.7699 73.119 47.4237C76.3679 44.0774 78.1831 39.6111 78.1831 34.9638C78.1831 30.3164 76.3679 25.8501 73.119 22.5038C69.8702 19.1576 65.4409 17.192 60.7623 17.0204V17.0204H35.5574V23.5497H42.4763V46.4023H35.5574V52.9316H42.4763V58.5223H35.5574V65.0516H42.4763V77.9878H49.3911V65.0516H71.8334V58.5223H49.3911V52.9316L60.7623 52.9275ZM49.3911 23.5456H59.9031C62.956 23.5456 65.8838 24.7495 68.0426 26.8923C70.2013 29.0352 71.4141 31.9415 71.4141 34.9719C71.4141 38.0023 70.2013 40.9087 68.0426 43.0515C65.8838 45.1943 62.956 46.3982 59.9031 46.3982H49.3911V23.5456Z" fill="#B3D15A"/>
<path d="M31.0969 23.5456H32.1452V17.0163C31.7999 16.9959 31.4505 16.9878 31.0969 16.9878C30.8092 16.9878 30.5214 16.9878 30.2377 16.9878C25.5591 17.1593 21.1298 19.1249 17.881 22.4712C14.6321 25.8174 12.8169 30.2838 12.8169 34.9311C12.8169 39.5784 14.6321 44.0448 17.881 47.391C21.1298 50.7373 25.5591 52.7028 30.2377 52.8744C30.5214 52.8744 30.8092 52.8948 31.0969 52.8948C31.4505 52.8948 31.7999 52.8948 32.1452 52.8663V46.337H31.0969C28.044 46.337 25.1162 45.1331 22.9574 42.9903C20.7987 40.8474 19.586 37.9411 19.586 34.9107C19.586 31.8803 20.7987 28.9739 22.9574 26.8311C25.1162 24.6883 28.044 23.4844 31.0969 23.4844V23.5456Z" fill="#262C3F"/>
</svg>
