<svg width="90" height="90" viewBox="0 0 90 90" fill="none" xmlns="http://www.w3.org/2000/svg">
<circle cx="45" cy="45" r="45" fill="#EFEFEF"/>
<path d="M44.5 15L16 33.4632V44.6994L44.5 26.2362V15Z" fill="url(#paint0_linear_600_384)"/>
<path d="M25.1817 52.8116L16 46.3662V69.3614H25.1817V52.8116Z" fill="#243516"/>
<path d="M16 44.6994L25.1817 51.1817V38.7496L16 44.6994Z" fill="#4F6739"/>
<path d="M44.5 15L73 33.4632V44.6994L44.5 26.2362V15Z" fill="url(#paint1_linear_600_384)"/>
<path d="M63.8159 52.8116L73 46.3662V69.3614H63.8159V52.8116Z" fill="#243516"/>
<path d="M73 44.6994L63.8159 51.1817V38.7496L73 44.6994Z" fill="#809C67"/>
<path d="M57.126 45.3282H51.1873C51.1828 43.6753 50.5557 42.0836 49.4291 40.8653C48.3024 39.647 46.7574 38.8898 45.0969 38.7423V32.8419C48.3356 32.9932 51.3914 34.3743 53.631 36.699C55.8705 39.0236 57.122 42.1135 57.126 45.3282V45.3282Z" fill="url(#paint2_linear_600_384)"/>
<path d="M43.6967 64.1119V70C40.3964 69.9297 37.2551 68.5805 34.9461 66.2414C32.6371 63.9023 31.3441 60.7595 31.3442 57.4866H37.2855C37.2859 59.1976 37.9532 60.8422 39.148 62.0769C40.3427 63.3116 41.9725 64.0407 43.6967 64.1119V64.1119Z" fill="url(#paint3_linear_600_384)"/>
<path d="M43.6967 38.7644V32.8467C40.4922 33.0465 37.4848 34.4494 35.2868 36.77C33.0887 39.0906 31.8652 42.1545 31.8652 45.338C31.8652 48.5215 33.0887 51.5854 35.2868 53.906C37.4848 56.2266 40.4922 57.6295 43.6967 57.8293V51.9116C42.9541 51.8251 42.2318 51.6142 41.5605 51.2877C40.2647 50.6592 39.2087 49.6321 38.5499 48.3597C37.8912 47.0873 37.6651 45.6379 37.9054 44.2276C38.1457 42.8174 38.8394 41.5219 39.8832 40.5347C40.9269 39.5474 42.2646 38.9213 43.6967 38.7496V38.7644Z" fill="url(#paint4_linear_600_384)"/>
<path d="M50.8963 47.0098C52.7513 48.237 54.2568 49.9165 55.2683 51.8869C56.1874 53.7114 56.6431 55.7308 56.5959 57.7696C56.5487 59.8085 56.0001 61.805 54.9976 63.5858C53.9952 65.3665 52.5692 66.8776 50.8438 67.9878C49.1183 69.0979 47.1455 69.7734 45.0969 69.9556V64.0231C46.6534 63.7601 48.066 62.9596 49.0846 61.7633C50.1032 60.567 50.6621 59.0521 50.6626 57.4865C50.6633 57.0987 50.6283 56.7117 50.5581 56.3301C50.3749 55.302 49.9495 54.3314 49.3164 53.4971C48.6833 52.6629 47.8604 51.9887 46.9148 51.5294V51.5294C46.3403 51.2501 45.7279 51.055 45.0969 50.95V45.0101C45.0969 45.0101 47.8623 44.8597 50.8963 47.0098Z" fill="url(#paint5_linear_600_384)"/>
<defs>
<linearGradient id="paint0_linear_600_384" x1="16" y1="29.8485" x2="44.5" y2="29.8485" gradientUnits="userSpaceOnUse">
<stop stop-color="#819D68"/>
<stop offset="1" stop-color="#A9C790"/>
</linearGradient>
<linearGradient id="paint1_linear_600_384" x1="44.5" y1="29.8485" x2="73" y2="29.8485" gradientUnits="userSpaceOnUse">
<stop stop-color="#4F6739"/>
<stop offset="1" stop-color="#263718"/>
</linearGradient>
<linearGradient id="paint2_linear_600_384" x1="51.1102" y1="45.3158" x2="51.1102" y2="32.8419" gradientUnits="userSpaceOnUse">
<stop stop-color="#6C8555"/>
<stop offset="1" stop-color="#809C67"/>
</linearGradient>
<linearGradient id="paint3_linear_600_384" x1="37.5217" y1="70" x2="37.5217" y2="57.4866" gradientUnits="userSpaceOnUse">
<stop stop-color="#243515"/>
<stop offset="1" stop-color="#3D512C"/>
</linearGradient>
<linearGradient id="paint4_linear_600_384" x1="37.7854" y1="57.8367" x2="37.7854" y2="32.8541" gradientUnits="userSpaceOnUse">
<stop stop-color="#425630"/>
<stop offset="1" stop-color="#809C67"/>
</linearGradient>
<linearGradient id="paint5_linear_600_384" x1="50.8466" y1="69.9556" x2="50.8466" y2="45.0076" gradientUnits="userSpaceOnUse">
<stop stop-color="#243515"/>
<stop offset="1" stop-color="#6D8758"/>
</linearGradient>
</defs>
</svg>
