<svg width="90" height="90" viewBox="0 0 90 90" fill="none" xmlns="http://www.w3.org/2000/svg">
<circle cx="45" cy="45" r="45" fill="#F5F5F5"/>
<path d="M40.8409 30.8409H48.6477C51.4432 30.8409 53.9205 31.4318 56.0795 32.6136C58.25 33.7955 59.9489 35.4602 61.1761 37.608C62.4148 39.7443 63.0341 42.2557 63.0341 45.142C63.0341 47.9375 62.4148 50.375 61.1761 52.4545C59.9489 54.5341 58.25 56.1534 56.0795 57.3125C53.9205 58.4602 51.4432 59.0341 48.6477 59.0341H40.8409C38.0341 59.0341 35.5455 58.4659 33.375 57.3295C31.2045 56.1818 29.5 54.5682 28.2614 52.4886C27.0341 50.4091 26.4205 47.9545 26.4205 45.125C26.4205 42.2386 27.0398 39.7273 28.2784 37.5909C29.5284 35.4432 31.2386 33.7841 33.4091 32.6136C35.5795 31.4318 38.0568 30.8409 40.8409 30.8409ZM40.8409 37.0114C39.3409 37.0114 38.017 37.3125 36.8693 37.9148C35.733 38.5057 34.8466 39.4034 34.2102 40.608C33.5739 41.8125 33.2557 43.3182 33.2557 45.125C33.2557 46.8523 33.5795 48.2898 34.2273 49.4375C34.8864 50.5852 35.7841 51.4432 36.9205 52.0114C38.0568 52.5795 39.3636 52.8636 40.8409 52.8636H48.6989C50.1875 52.8636 51.4886 52.5739 52.6023 51.9943C53.7273 51.4148 54.5966 50.5511 55.2102 49.4034C55.8352 48.2557 56.1477 46.8352 56.1477 45.142C56.1477 43.3352 55.8352 41.8295 55.2102 40.625C54.5966 39.4205 53.7273 38.517 52.6023 37.9148C51.4886 37.3125 50.1875 37.0114 48.6989 37.0114H40.8409ZM48.2386 26.4773V63.4318H41.233V26.4773H48.2386Z" fill="#E3E3E3"/>
</svg>
