<svg xmlns="http://www.w3.org/2000/svg" width="90" height="90" fill="none"><circle cx="45" cy="45" r="45" fill="#303030"/><g clip-path="url(#a)"><path fill="#B5E61D" d="M65 31.57V21.544a.517.517 0 0 0-.154-.367.54.54 0 0 0-.373-.155H26.535a.545.545 0 0 0-.378.152.523.523 0 0 0-.157.37v49.962c.002.137.06.268.16.365.1.096.234.15.375.15h13.488c.14 0 .274-.054.372-.15a.51.51 0 0 0 .155-.365v-19.42a.518.518 0 0 1 .16-.365.54.54 0 0 1 .374-.151h19.984a.54.54 0 0 0 .373-.156.517.517 0 0 0 .154-.367V41.022a.51.51 0 0 0-.154-.365.533.533 0 0 0-.373-.15H41.085a.54.54 0 0 1-.376-.151.518.518 0 0 1-.16-.365v-7.34c0-.139.057-.272.157-.37a.54.54 0 0 1 .378-.153h23.389a.537.537 0 0 0 .389-.166.513.513 0 0 0 .138-.392Z"/></g><defs><clipPath id="a"><path fill="#fff" d="M26 21h39v51H26z"/></clipPath></defs></svg>