<svg width="90" height="90" fill="none" xmlns="http://www.w3.org/2000/svg"><circle cx="45" cy="45" r="45" fill="#F5F5F5"/><g clip-path="url(#a)"><path d="m56.706 35.46-18.31-11.868a3.286 3.286 0 0 0-2.771-.38c-10.664 3.343-18.4 13.308-18.4 25.081A26.267 26.267 0 0 0 29.05 70.244a26.195 26.195 0 0 1-10.597-9.664 26.213 26.213 0 0 1-3.922-13.8c0-13.24 9.813-24.185 22.558-25.957a.543.543 0 0 0-.152-1.075C23.411 21.598 12.991 33.207 13 47.25a27.687 27.687 0 0 0 8.128 19.648 27.658 27.658 0 0 0 20.574 8.061 23.355 23.355 0 0 0 1.856-.232l-.053-.255c.158-1.558 2.303-20.769 13.559-37.198a1.291 1.291 0 0 0-.358-1.815ZM38.29 46.74c-.604-2.173-2.858-2.858-4.83-1.247a16.303 16.303 0 0 0-2.398 2.428.152.152 0 0 1-.262-.047.152.152 0 0 1 .003-.106c.833-1.999 2.955-6.128 6.202-5.86 4.273.359 3.456 8.658 3.017 10.544-.397 1.7-.867 4.022-2.59 3.863a.385.385 0 0 1-.291-.59c.254-.402.444-.84.563-1.3.264-1.04 1.19-5.51.586-7.685Zm14.34-8.967c-1.65 2.688-7.472 12.751-10.01 24.88 0 0-2.838-6.874 5.896-24.032a.687.687 0 0 0-.25-.893l-12.075-7.48a.724.724 0 0 0-1.03.29c-1.263 2.503-5.508 11.591-8.266 25.588a.352.352 0 0 1-.606.16.352.352 0 0 1-.089-.237c.143-5.496 1.372-16.815 8.133-29.588a.975.975 0 0 1 1.381-.367l16.649 10.523a.845.845 0 0 1 .268 1.156Z" fill="url(#b)"/><path d="m45.51 75.167.014-.02v.019l-.014.001Z" fill="#701C2B"/><path d="m57.795 56.9.012-.025.53-.97c.845-1.502 2.26-3.823 4.45-6.874a120.078 120.078 0 0 1 2.617-3.504c2.816-3.633 6.515-8.001 11.311-13.003a1.021 1.021 0 0 0-.176-1.563L49.424 13.157a.956.956 0 0 0-1.133.062l-1.927 1.59a.55.55 0 0 0 .047.884l25.905 17.09a.328.328 0 0 1 .063.494c-.901 1.005-4.09 4.558-7.485 8.697a194.151 194.151 0 0 0-2.816 3.513c-2.122 2.724-4.1 5.464-5.419 7.73-3.358 5.768-8.666 16.414-10.935 21.015 0 .006 0 .013-.009.018.774-3.359 4.158-15.683 15.148-32.059a153.442 153.442 0 0 1 5.22-7.293 1.097 1.097 0 0 0-.28-1.59L43.256 18.902a.93.93 0 0 0-1.276.269l-.596.901a.93.93 0 0 0 .252 1.285l19.472 13.255a.847.847 0 0 1 .226 1.181c-.472.687-1.255 1.84-2.203 3.274-2.883 4.357-7.29 11.314-9.077 15.69-2.295 5.634-5.287 14.05-6.797 18.55-.196.585-.367 1.103-.51 1.54.27-.035.54-.075.806-.119a20.62 20.62 0 0 0 2.14-.458h.005c.172-.046.338-.093.512-.142l.041-.061a27.31 27.31 0 0 0 4.178-1.72l.112.006c.05-.03.377-.192.755-.373.713-.338 1.566-.564 2.17-.366.345.112 2.628 1.437 3.29 7.173a.24.24 0 0 0 .373.17c.427-.304 1.19-1.057 1.867-2.833 1.006-2.636 1.352-4.892 1.215-7.911-.138-3.02-.45-2.454.595-4.122 0 0 4.762-8.661 4.674-13.614l-.07-.737a.618.618 0 0 0-1.09-.338l-7.283 8.863.244-.357s.161-.34.513-1.009Zm-7.282 15.41a.35.35 0 0 1 .033.037.276.276 0 0 1-.033-.037Z" fill="url(#c)"/></g><defs><linearGradient id="b" x1="35.123" y1="20.52" x2="35.181" y2="74.298" gradientUnits="userSpaceOnUse"><stop stop-color="#8BB653"/><stop offset=".18" stop-color="#90B956"/><stop offset=".38" stop-color="#9EC15F"/><stop offset=".6" stop-color="#B4CF6D"/><stop offset=".83" stop-color="#D4E381"/><stop offset="1" stop-color="#F2F594"/></linearGradient><linearGradient id="c" x1="59.115" y1="79" x2="59.115" y2="13" gradientUnits="userSpaceOnUse"><stop stop-color="#FCE462"/><stop offset=".09" stop-color="#F6CC59"/><stop offset=".21" stop-color="#F0B250"/><stop offset=".35" stop-color="#EB9E48"/><stop offset=".5" stop-color="#E89043"/><stop offset=".69" stop-color="#E68840"/><stop offset="1" stop-color="#E5853F"/></linearGradient><clipPath id="a"><path fill="#fff" transform="translate(13 13)" d="M0 0h64v66H0z"/></clipPath></defs></svg>