<svg xmlns="http://www.w3.org/2000/svg" width="90" height="90" fill="none"><circle cx="45" cy="45" r="45" fill="#F5F5F5"/><g clip-path="url(#a)"><path fill="#990511" d="M54.326 76.484s-2.125 0-2.251-1.216c-.07-.666.95-1.543 1.57-2.002a4.908 4.908 0 0 1 1.048-.574 6.441 6.441 0 0 0-2.544.838 6.937 6.937 0 0 1-2.154.803c-.419.09-.83.208-1.232.355-.166.063-.401.184-.682.322-.9.453-2.137 1.072-3.122 1.072a1.518 1.518 0 0 1-1.29-.573c-1.197-1.607 1.65-4.469 2.235-5.025a7.923 7.923 0 0 1 1.896-1.262c.304-.167.614-.333.911-.522.929-.574 1.81-1.09 2.67-1.532l-.172.069c-.848.327-1.73.562-2.63.7l-.779.154a2.324 2.324 0 0 0-.825.39l-.223.144c-.417.24-.87.41-1.34.505l-.396.103a7.444 7.444 0 0 0-2.292 1.285l-.693.488c-.573.39-1.146.82-1.72 1.244l-.904.677a9.71 9.71 0 0 0-.705.574c-.945.768-2.017 1.64-3.335 1.64a2.86 2.86 0 0 1-.802-.109.613.613 0 0 1-.218-.114c-1.375-1.148-.16-2.748.361-3.442.627-.86 1.19-1.765 1.685-2.708a12.295 12.295 0 0 1 2.24-3.046 16.435 16.435 0 0 1 1.719-1.376c.401-.293.785-.574 1.146-.867 1.856-1.525 3.535-2.925 5.1-4.41l-1.261.63a57.295 57.295 0 0 0-4.355 2.501 20.472 20.472 0 0 0-2.423 1.905c-.304.264-.608.527-.917.786l-.728.573c-1.031.86-2.102 1.721-3.105 2.662-.384.35-.762.728-1.146 1.147a18.2 18.2 0 0 1-2.2 2.002 3.71 3.71 0 0 1-.527.304 1.45 1.45 0 0 0-.464.293c-.155.202-.275.429-.356.67-.068.179-.148.35-.234.523-.407.774-1.192 2.076-1.886 2.076a.687.687 0 0 1-.44-.16c-.488-.413-.178-.924.853-2.605.138-.229.246-.407.28-.476a13 13 0 0 1 1.026-1.72c-.573.573-1.879 1.847-2.778 1.847a.967.967 0 0 1-.608-.213c-.475-.395-.464-1.284-.263-3 0-.212.046-.378.051-.459 0-.508-.034-1.016-.103-1.52a13.33 13.33 0 0 1-.103-1.508v-.42a3.69 3.69 0 0 0 0-.71 1.759 1.759 0 0 0-.075-.184 1.616 1.616 0 0 1-.16-.447 1.333 1.333 0 0 1 0-.522v-.092c.014-.115.038-.229.075-.339.03-.1.049-.204.057-.31v-.728a12.07 12.07 0 0 0-.069-1.606 2.882 2.882 0 0 0-.051-.321 1.177 1.177 0 0 1 .573-1.469 1.3 1.3 0 0 1 .573-.12h.492c.132-.103.063-.866.04-1.119-.023-.252-.04-.315-.04-.459v-.768a6 6 0 0 1 .23-2.628c0-.074.062-.143.091-.206a.603.603 0 0 0 .046-.413 4.535 4.535 0 0 0-.206-.671c-.058-.16-.115-.316-.16-.482a2.58 2.58 0 0 1-.098-.625 2.336 2.336 0 0 0-.04-.35 1.28 1.28 0 0 0-.258-.373 1.893 1.893 0 0 1-.493-.918 1.068 1.068 0 0 1 .75-1.147l.087-.04c.017-.285.017-.57 0-.855v-.407a9.145 9.145 0 0 1 .034-.97c.046-.871.046-1.744 0-2.616a17.024 17.024 0 0 1 0-2.294c0-.488.057-.993.057-1.486-.046-.4-.21-.777-.47-1.084a2.806 2.806 0 0 1-.624-1.503.574.574 0 0 1 .476-.574 3.703 3.703 0 0 1-.453-1.45l-.04-.236a.573.573 0 0 1 .475-.66l.413-.046c.312.001.619-.076.894-.223.16-.235.274-.498.338-.775.04-.153.09-.305.149-.453.286-.723.573-1.445.876-2.162.252-.614.499-1.222.745-1.836a534.07 534.07 0 0 0 1.513-3.826l.727-1.859c.235-.614.235-.614-.04-1.032a.573.573 0 0 1 .378-.878c.087-.009.173-.022.258-.04a3.231 3.231 0 0 0 0-.665v-.81a2.75 2.75 0 0 0 0-.613s-.04-.19-.04-.207l-.183-.103a.573.573 0 0 1-.27-.367.573.573 0 0 1 .07-.442l.148-.24a4.59 4.59 0 0 1 .418-.626c.102-.112.211-.218.327-.315l.224-.195v-.046a1.63 1.63 0 0 1-.098-.574 1.52 1.52 0 0 1 .275-.763.773.773 0 0 0 .086-.149 2.407 2.407 0 0 0 0-.407 3.257 3.257 0 0 1 .052-1.056c.156-.68.347-1.352.573-2.013a.573.573 0 0 1 .527-.39.572.572 0 0 1 .532.424l.155.574c.27.832.442 1.692.516 2.564a.534.534 0 0 1-.052.264c.035.057.07.115.098.172a.669.669 0 0 1 .057.15.54.54 0 0 0 .057.177c.08.181.127.376.138.574v.31c0 .194 0 .194.172.395a1.4 1.4 0 0 0 .154.166c.311.268.533.624.636 1.022a.774.774 0 0 1-.234.774.518.518 0 0 1-.155.16v2.295l.332.063a.573.573 0 0 1 .418.694.653.653 0 0 1-.086.195c-.04.062-.084.121-.131.178a.999.999 0 0 0-.172.264c.034.183.098.36.189.522l.132.287.343.895c.2.487.396.975.573 1.462l1.146 3.023.573 1.457c.287.746.573 1.492.865 2.232l.08.195c.063.16.115.333.167.493.172.574.269.798.538.867h.224c.272-.004.54.057.785.177a.875.875 0 0 1 .475 1.148 1.885 1.885 0 0 1-.057.229v.138c-.035.212-.092.42-.172.62h.814c.71 0 1.512 0 2.045-.052h13.247c.432.009.864-.007 1.295-.046.012-.248.085-.488.212-.7.057-.126.108-.212.154-.298.076-.113.129-.24.155-.373a1.917 1.917 0 0 0-.487-1.297.574.574 0 0 1-.075-.573.574.574 0 0 1 .424-.356c.45-.08.907-.116 1.364-.109.527 0 1.066.035 1.587.069.521.034.968.069 1.41.069a.572.572 0 0 1 .504.304.574.574 0 0 1 0 .573c-.31.396-.465.892-.436 1.394.023.104.075.2.15.276.115.135.212.285.286.447.108.25.132.527.069.792a.573.573 0 0 1 .455.474c.012.08.007.16-.014.237-.115.367-.281.717-.493 1.038a1.918 1.918 0 0 0-.378.935l-.04.574a13.335 13.335 0 0 0 0 2.788 20.512 20.512 0 0 1 0 3.751c-.029.443-.029.888 0 1.331v.218c.005.084.005.168 0 .252v.23h.35a.573.573 0 0 1 .503.66 2.204 2.204 0 0 1-.613 1.147c-.145.13-.25.3-.303.487-.04.247-.052.497-.035.746.11.093.225.179.344.258.093.06.181.127.264.201a.574.574 0 0 1-.144.958c-.091.04-.097.046-.183.258a2.433 2.433 0 0 1-.172.373 1.616 1.616 0 0 1-1.249.849l-.573.138c-.527.12-1.054.24-1.575.378l-.482.11a3.774 3.774 0 0 0-1.146.338v.23c.041.311-.004.629-.131.917a2.12 2.12 0 0 1-1.146.912 2.03 2.03 0 0 0-.298.143c-.27.15-.527.31-.79.47-.703.447-1.443.831-2.213 1.148-.779.304-1.506.666-2.291 1.05l-.7.476-.515.247c-.856.366-1.669.825-2.424 1.37-.326.259-.624.574-.933.844a9.575 9.575 0 0 1-1.628 1.336c-.372.202-.704.47-.98.792a6.863 6.863 0 0 1 1.106-.442 7.65 7.65 0 0 1 1.146-.224c.404-.04.801-.125 1.186-.252a35.41 35.41 0 0 1 5.071-1.6 41.35 41.35 0 0 1 4.274-.574l1.146-.12h.235a9.004 9.004 0 0 0 2.091-.448 6.809 6.809 0 0 1 2.475-.573h.327a.571.571 0 0 1 .527.653v.115l.321.224c.358.196.643.502.814.872.43 1.073-.402 2.03-1.364 2.467-.43.175-.88.294-1.34.355a4.52 4.52 0 0 0-.917.207 9.168 9.168 0 0 0-1.547.797c-.276.166-.573.327-.831.476-.791.406-1.556.86-2.292 1.36a9.648 9.648 0 0 1-2.865 1.376c-.4.15-.785.343-1.146.574.464-.086.94-.16 1.438-.23l1.467-.212a45.39 45.39 0 0 1 4.739-.545c.178-.013.356-.036.532-.068.647-.104 1.3-.161 1.954-.173.573 0 1.347.058 1.719.574a1.148 1.148 0 0 1 .16 1.073c-.309 1.084-1.57 1.302-2.4 1.451l-.453.086c-.92.23-1.82.538-2.687.924l-.453.177a.573.573 0 0 1 .132.155c.026.044.047.09.063.138a14.61 14.61 0 0 0 1.673-.16l.917-.11.229-.034c.216-.052.437-.08.659-.086a.869.869 0 0 1 1.003.734v.069c.045.47-.361.93-.94 1.526-.063.055-.12.117-.172.183a.573.573 0 0 1-.441.207h-.12a.573.573 0 0 1-.43-.402 1.15 1.15 0 0 1-.04-.481c-1.343.23-2.658.6-3.925 1.1a13.635 13.635 0 0 1-4.223.856l-.063-.07ZM34.434 63.732a31.425 31.425 0 0 0-2.693 2.834 58.189 58.189 0 0 1 2.693-2.834Zm.252-36.276a.126.126 0 0 0-.127.068c-.012.213.002.427.04.637 0 .12.035.241.04.333 0 .195.035.39.052.573.058.45.08.902.069 1.354-.01.12-.03.239-.057.356a.413.413 0 0 1 0 .178c.2-.04.458-.104.641-.155v-1.147c.01-.243.036-.484.075-.723.046-.275.063-.554.052-.832a.964.964 0 0 0-.785-.642ZM33 28.029a7.26 7.26 0 0 0-.057 1.962v.356c-.012.16-.012.321 0 .481h.086v-2.695L33 28.029Z"/><path fill="#fff" d="M34.113 11.147c.326.973.545 1.98.653 3a.292.292 0 0 0-.057.402l.149.258c.085.212.144.434.177.66 0 .573-.074.573.315 1.05.2.24.608.573.66.9.05.327-.035.126-.144.379l-.252.137v2.295c0 .132-.08.682 0 .774.243.086.495.145.75.178-.189.264-.418.476-.412.78.062.357.184.7.36 1.015.299.763.643 1.55.952 2.34l1.719 4.475c.31.815.624 1.624.94 2.432.269.689.332 1.51 1.1 1.721.229.063.653 0 .859.138.395.23.246.293.149.786a1.946 1.946 0 0 1-.264.774c-.126.178-.39.132-.332.43.04.178.842.23 1.759.23 1.106 0 2.378-.069 2.687-.069h9.85c.899 0 1.827.052 2.755.052a13.9 13.9 0 0 0 1.954-.115c-.12-.574-.143-.505.08-.98.162-.255.28-.534.35-.827a2.503 2.503 0 0 0-.573-1.72 6.53 6.53 0 0 1 1.254-.098c1.003 0 2.057.137 2.997.137a2.532 2.532 0 0 0-.522 1.83c.08.402.327.51.476.843.149.333-.04.632-.16 1.01l.636.109c-.212.803-.831 1.216-.888 2.082a16.856 16.856 0 0 0-.046 3.442c.109 1.212.109 2.43 0 3.643a12.512 12.512 0 0 0 0 1.606c0 .143-.063.843.046.946.108.104.658.075.802.092-.12.752-.78.947-.911 1.618a3.233 3.233 0 0 0 0 1.101c.097.218.573.5.767.654-.44.19-.418.505-.624.872a1.147 1.147 0 0 1-.934.574c-.71.166-1.42.32-2.12.504-.493.132-1.432.241-1.822.574-.39.333-.046.86-.275 1.342-.23.482-.808.574-1.192.803a23.03 23.03 0 0 1-2.933 1.595c-1.06.419-2.034.935-3.06 1.434a16.638 16.638 0 0 0-3.036 1.67c-.883.694-1.524 1.543-2.504 2.139a3.003 3.003 0 0 0-1.719 2.427c.752-.405 1.53-.756 2.332-1.05.785-.23 1.61-.201 2.39-.488a33.841 33.841 0 0 1 4.99-1.577c1.758-.367 3.575-.505 5.357-.7.834-.05 1.66-.203 2.458-.453a6.44 6.44 0 0 1 2.291-.517h.287c-.063.477 0 .517.412.798.308.163.566.407.745.705.315.775-.43 1.44-1.066 1.721-.635.281-1.506.287-2.222.574-.844.381-1.661.818-2.447 1.308-.82.425-1.615.9-2.378 1.422a8.823 8.823 0 0 1-2.681 1.308c-.8.336-1.578.72-2.332 1.148-.86.372-1.581.883-2.4 1.325-.196.097-1.594.803-.671.803.275 0 .79-.436 1.06-.574a16.454 16.454 0 0 1 4.864-1.29c2.046-.288 4.085-.66 6.154-.752.355 0 1.5-.253 2.446-.253.946 0 1.564.195 1.358.935-.258.913-1.719.959-2.435 1.148-.938.245-1.853.573-2.733.98-.407.173-3.736 1.372-3.615 1.722 0 .045.074.063.172.063.538 0 2.171-.648 2.704-.648.08 0 .132 0 .155.045a.574.574 0 0 1-.224.408h.413c.997 0 2.028-.178 3.008-.276.274-.057.551-.097.83-.12.224 0 .396.063.413.275.034.31-.814 1.079-.98 1.285-.114-.39.19-.711.27-1.061-1.713.25-3.393.69-5.008 1.313-1.286.48-2.64.753-4.01.81h-.08c-.47 0-1.628-.173-1.685-.7-.035-.356 1.025-1.251 1.346-1.492.72-.423 1.473-.787 2.252-1.09l1.232-.694c.35-.19.859-.43.252-.574a.465.465 0 0 0-.178 0c-.403.08-.79.225-1.146.43a6.621 6.621 0 0 1-1.375.27 7.596 7.596 0 0 0-3.203.987c-1.054.654-2.177.671-3.288 1.107-.677.264-2.447 1.354-3.599 1.354a.98.98 0 0 1-.83-.356c-.831-1.147 1.45-3.574 2.171-4.262.722-.688 1.8-1.147 2.716-1.72a30.75 30.75 0 0 1 3.02-1.722 16.88 16.88 0 0 1 3.042-1.376c.636-.172 2.572-.259 2.779-1.027a18.029 18.029 0 0 0-6.876 1.629c-1.073.378-2.18.653-3.306.82a3.521 3.521 0 0 0-1.232.603c-.502.251-1.039.429-1.592.527-1.18.333-2.138 1.148-3.152 1.853-.905.608-1.718 1.29-2.624 1.933-1.106.815-2.292 2.088-3.701 2.088-.219 0-.436-.029-.648-.086-.933-.786-.114-1.91.442-2.644.64-.88 1.214-1.807 1.718-2.77a11.643 11.643 0 0 1 2.126-2.91c.865-.814 1.925-1.462 2.865-2.22 1.862-1.53 3.759-3.103 5.495-4.783.773-.746 1.827-1.062 2.784-1.578 1.106-.573 2.246-1.095 3.34-1.72a.71.71 0 0 0-.338-.075c-.481.064-.95.205-1.386.419a23.63 23.63 0 0 0-2.292.935 73.65 73.65 0 0 0-4.36 2.065 60.164 60.164 0 0 0-4.395 2.518 33.14 33.14 0 0 0-3.397 2.736c-1.3 1.078-2.607 2.145-3.862 3.281-1.083.993-2.114 2.237-3.306 3.098-.36.258-.762.333-1.071.671-.294.41-.527.86-.694 1.337-.137.263-1.014 1.772-1.38 1.772h-.07c-.154-.126 1.147-2.094 1.273-2.375.435-.888.974-1.721 1.604-2.484 1.604-1.944 3.226-3.774 5.013-5.552.75-.74 1.524-1.452 2.292-2.192.768-.74 1.616-1.01 2.452-1.571.837-.563 1.507-1.474 2.435-2.037.785-.476 1.977-1.05 2.51-1.818-.441.19-1.587 1.067-2.366 1.067a.683.683 0 0 1-.505-.195c-.223-.235-.12-1.147-.131-1.417 0-.54-.04-1.084-.04-1.623 0-1.056.177-2.094.16-3.15 0-.246-.155-.809 0-1.06.155-.253.51-.167.573-.443-.447.104-.659.058-.837.465-.063.342-.08.691-.051 1.038-.046.878-.19 1.721-.23 2.616-.045 1.09-.498 3.723.5 4.354-.849.637-1.794 1.147-2.613 1.824-.516.43-.854.671-1.25.671a2.083 2.083 0 0 1-1.03-.39 3.754 3.754 0 0 0-2.006-.573 5.44 5.44 0 0 0-1.146.137 5.46 5.46 0 0 0-2.687 1.555c.482-.16.953-.352 1.41-.574a9.115 9.115 0 0 1 1.718-.287c.353-.052.71-.08 1.066-.08a3.881 3.881 0 0 1 2.177.574c-3.535 1.898-6.062 5.426-8.594 8.466-.304.362-1.874 1.962-2.636 1.962a.35.35 0 0 1-.286-.103c-.419-.344 0-2.604 0-3.006 0-1.027-.207-2.019-.207-3.04a8.71 8.71 0 0 0 0-1.222c-.04-.224-.206-.442-.24-.63a1.01 1.01 0 0 1 0-.454c.068-.238.114-.482.137-.729v-.728c.012-.55-.01-1.1-.069-1.646-.068-.574-.314-.993.172-1.222a.734.734 0 0 1 .333-.063h.407c.149.01.298-.028.424-.11.498-.344.246-1.49.246-2.064 0-.958-.224-2.295.155-3.167.177-.277.252-.608.212-.935a11.107 11.107 0 0 0-.367-1.222c-.098-.32-.052-.613-.126-.94-.103-.454-.688-.815-.745-1.24-.08-.625.504-.516.762-.825.172-.213.04-1.308.046-1.595 0-1.205.12-2.432.034-3.637s.086-2.484.08-3.734c-.051-1.062-1.065-1.635-1.105-2.57.247.013.494-.012.733-.075.332-.332-.195-.573-.292-.705a3.68 3.68 0 0 1-.464-1.566c.504-.08 1.226-.052 1.616-.425.286-.435.492-.92.607-1.428.527-1.337 1.088-2.662 1.621-4.016.533-1.353 1.02-2.547 1.519-3.826l.722-1.864c.292-.757.355-.872-.092-1.555.573-.108.619 0 .722-.522a7.68 7.68 0 0 0 0-1.147 6.409 6.409 0 0 0 0-1.147c-.103-.453-.04-.413-.504-.683a7.5 7.5 0 0 1 .527-.809c.25-.224.488-.463.71-.717.057-.143-.16-.573-.137-.751 0-.316.338-.574.378-.809-.021-.482-.008-.965.04-1.445.149-.664.34-1.317.573-1.957l-.04.006Zm.802 9.018a.496.496 0 0 0 .246-.092c.298-.19.12-1.004.12-1.308 0-.728.092-.906-.653-.906-.091.327-.303 2.294.287 2.294v.012Zm-.883-.138c.155-.344.574-2.036-.148-2.036h-.035c-.412 0-.36.808-.384 1.147-.046.62-.051.906.573.906l-.005-.017Zm-2.194 7.228a2.686 2.686 0 0 1 2.063-.654h1.054c.212-.012.424.017.625.086a4.2 4.2 0 0 1 1.02.809c-.407-1.147-1.192-1.451-2.407-1.48h-.109c-.768 0-2.52.166-2.246 1.256v-.017Zm1.037 4.199c.26-.013.513-.092.733-.23-.034-1.026.03-2.053-.034-3.08a4.265 4.265 0 0 0-.12-1.147.366.366 0 0 0-.258-.11c-.344 0-.613.574-.682.804a7.112 7.112 0 0 0-.143 2.386c0 .287-.08 1.004.114 1.233a.517.517 0 0 0 .39.15v-.006Zm1.604.126c.467-.064.928-.16 1.381-.287.057-.522 0-1.027 0-1.554 0-.528.11-1.102.126-1.652a1.498 1.498 0 0 0-1.329-1.182.704.704 0 0 0-.573.293c-.235.315-.057.998-.034 1.359.074.619.114 1.241.12 1.864 0 .316-.28.918.109 1.148.06.011.123.011.183 0l.017.011Zm-.968.338h-.642c-.527 0-.968.098-.721.792.38.04.763.058 1.145.057.734 0 1.467-.051 2.2-.086h.688c.373 0 .745 0 .848-.177.28-.425-.149-.574-.481-.666a4.006 4.006 0 0 0-.74-.057c-.75 0-1.575.137-2.291.149h-.052l.046-.012ZM29.3 36.806c.464 0 .922-.04 1.22-.052.688 0 1.352-.051 2.028-.051.34-.006.681.005 1.02.034h.178c.32 0 .613-.075.934-.08.413 0 .87.126 1.3.126h.86c.648.011 1.295-.029 1.936-.12 0-.253-2.366-.31-2.738-.345-.911-.08-1.81-.298-2.716-.378h-.258c-.785 0-1.61.286-2.395.35-.9-.023-1.799.056-2.681.235a2.17 2.17 0 0 0 1.306.28h.006Zm15.366.24h-.229c-1.34 0-2.675.035-4.01.115s-2.596.253-3.88.327l-.767.046c-.991 0-2-.097-2.95-.189a12.28 12.28 0 0 0-1.1-.052c-1.102.01-2.2.128-3.278.35 2.51.075 5.053.339 7.574.339h1.049c2.75-.086 5.494-.155 8.25-.172 2.292 0 4.584-.184 6.876-.184H55.73c.681 0 1.363 0 2.056.069 1.364.115 2.756.126 4.12.126-1.353-.424-2.905-.419-4.309-.62a13.363 13.363 0 0 0-1.914-.103h-.573c-.574.008-1.148-.019-1.718-.08a23.355 23.355 0 0 0-2.762-.15c-1.977 0-3.965.173-5.93.173l-.035.006Zm-3.431 10.085c.162-1.524.215-3.057.16-4.589a17.734 17.734 0 0 0-.298-4.446c-.401.075-.355 3.86-.361 4.383 0 .728.08 1.468.143 2.197.063.728 0 1.778.355 2.438v.017Zm-7.816-1.595c.23-1.325.326-2.67.287-4.015v-.895c0-.505-.109-.573.28-.746.39-.172.94.11 1.273-.355h-.11c-.406 0-.899-.155-1.323-.155a1.052 1.052 0 0 0-.4.063c-.379.143-.305.184-.316.631-.011.447 0 .763 0 1.147a27.367 27.367 0 0 0 .31 4.325Zm3.306-.091c.12-1.02.179-2.048.178-3.075a7.236 7.236 0 0 0-.132-2.604c.174.058.356.085.539.08.478 0 .952-.098 1.392-.287-.39-.099-.79-.153-1.192-.16-.21-.004-.42.02-.624.074-.482.144-.43 0-.482.643 0 .401 0 .803-.034 1.204 0 .666-.051 1.325-.057 1.99 0 .402.051 1.991.412 2.135Zm-6.554 0c.103-1.148.126-2.197.143-3.333a7.259 7.259 0 0 0 0-1.578c-.063-.286-.27-.481-.218-.751.224.2.333.264.482.264.148-.017.295-.042.44-.075.327-.074.866-.034 1.147-.252a11.505 11.505 0 0 0-1.983-.207h-.447a22.52 22.52 0 0 0 .424 5.914l.012.018Zm18.443-1.165c.148-.635.236-1.282.264-1.933.173-.587.199-1.208.074-1.807l4.779-.327c-.12-.355-.573-.442-1.055-.442-.48 0-.865.063-1.146.063-.572 0-1.334-.154-2.005-.154a2.357 2.357 0 0 0-.802.109c-.607.2-.43.235-.338.71.087.397.137.8.149 1.206 0 .854.086 1.72.069 2.575h.011Zm6.538.184c.527-.631.802-3.574.189-4.09h.35c.727 0 1.443-.178 2.17-.241 0-.287-.607-.408-1.26-.408-.745 0-1.564.155-1.719.396-.189.344.086 1.538.109 1.95l.16 2.393Zm-10.188.034a8.766 8.766 0 0 0 .293-2.18 5.5 5.5 0 0 0-.058-1.962c.237.058.479.087.722.087a4.01 4.01 0 0 0 1.37-.236 12.649 12.649 0 0 0-1.519-.35 4.835 4.835 0 0 0-.573-.034.756.756 0 0 0-.418.075c-.132.114-.092.768-.097.923a14.3 14.3 0 0 0 .31 3.694l-.03-.017Zm-11.951 4.033h-.241c-.665 0-1.415-.132-2.131-.132a3.566 3.566 0 0 0-1.364.218h.355c.997 0 2.023.333 3.014.396.418 0 .842.034 1.26.034.848 0 1.72-.04 2.55-.08a69.473 69.473 0 0 1 3.1-.063h15.928c.722 0 1.593.097 2.423.097.531.017 1.06-.051 1.57-.2-1.197-.38-2.532-.247-3.775-.316a106.903 106.903 0 0 0-4.011-.16c-2.292-.047-4.584-.104-6.876-.104h-.704c-2.561 0-5.157.04-7.7.138-1.147.04-2.247.195-3.381.195l-.017-.023Zm10.983 5.008c.516 0 .212-1.635.069-1.882.239.04.48.059.722.057a8.723 8.723 0 0 0 1.278-.109c.28-.04.658-.183.813-.2h.338c.134 0 .269-.012.401-.035a20.603 20.603 0 0 1 4.933-.476 5.19 5.19 0 0 0-2.062-.367 9.26 9.26 0 0 0-1.043.04c-.96.017-1.919.11-2.865.276-.653.149-1.432.217-2.154.332-.573.098-.648.19-.573.723l.16.166v1.48l-.017-.005Zm-12.364-2.633h-.47l-.36.063c-.139 0-.201.178-.35.178-.127 0-.27-.127-.413-.127-.04 0-.08.012-.115.035-.4.246-.137 1.279-.137 1.663 0 .671-.052 1.337 0 2.002 0 .276.143 1.985.355 2.077.304-.981.04-2.22.132-3.247a9.83 9.83 0 0 1 .069-1.423c.086-.32 0-.212.252-.441a.573.573 0 0 1 .338-.212c.074 0 .143.051.206.166l.258-.212c.527 0 .78-.322 1.312-.35h1.908c1.028.019 2.047.199 3.02.533-.574-1.061-2.911-.992-3.954-1.01-.235 0-.573-.068-.9-.068a1.197 1.197 0 0 0-.349.046c-.223.08-.361.27-.63.332h-.172v-.005Zm-1.444 7.56a3.596 3.596 0 0 0 1.547-.574c.171-.161.353-.31.544-.447.281-.155.676-.235.98-.361 1.215.252 2.435 0 3.638.384a8.81 8.81 0 0 1 1.72.665c.343.195.801.717 1.23.717h.098a6.513 6.513 0 0 0-2.377-1.623 7.785 7.785 0 0 0-2.688-.625h-.189a4.94 4.94 0 0 0-2.475.424 7.17 7.17 0 0 0-2.04 1.469l.012-.029Zm-2.75.97c.609 0 1.217-.053 1.816-.161 0-.356-1.014-.574-1.885-.574-.573 0-1.048.086-1.146.276-.183.35.47.447 1.22.447l-.005.011ZM34.136 10a1.145 1.145 0 0 0-1.083.769c-.23.677-.42 1.366-.573 2.065a3.835 3.835 0 0 0-.063 1.227v.207a2.077 2.077 0 0 0-.39.975c-.011.166.006.333.052.493-.13.103-.249.218-.355.345a5.574 5.574 0 0 0-.465.688l-.137.23a1.147 1.147 0 0 0-.19.9c.074.295.262.549.522.706.012.139.012.279 0 .418v1.061a1.146 1.146 0 0 0-.573 1.721l.11.172a.999.999 0 0 1-.11.287v.052l-.131.35c-.195.505-.39 1.004-.573 1.508a262.791 262.791 0 0 0-1.536 3.804c-.246.62-.498 1.233-.75 1.852-.293.712-.573 1.429-.871 2.146-.063.16-.115.333-.167.493-.049.176-.11.349-.183.516-.189.041-.38.068-.573.08l-.453.058a1.146 1.146 0 0 0-.933.875 1.15 1.15 0 0 0-.012.45l.034.235c.051.392.145.777.281 1.148a1.148 1.148 0 0 0-.303.82c.052.659.302 1.286.716 1.801.183.206.308.458.36.729.009.482-.008.965-.05 1.445-.052.789-.052 1.58 0 2.37.045.848.045 1.698 0 2.546l-.035.981v.912a1.565 1.565 0 0 0-.837 1.68c.083.456.299.877.619 1.211l.149.184v.206c.016.254.064.505.143.746.052.178.11.35.178.522.07.187.127.379.172.574l-.04.086a2.984 2.984 0 0 0-.103.23 6.49 6.49 0 0 0-.27 2.867v.769c-.006.182.005.365.035.545.017.16.017.322 0 .482a1.855 1.855 0 0 0-.825.172 1.72 1.72 0 0 0-.797 2.094c.021.083.037.167.046.252.04.499.052 1.004.063 1.543v.763l-.04.143c-.04.14-.069.281-.086.425v.074c-.04.23-.04.465 0 .694.04.2.11.394.206.574l.035.075c.017.19.017.382 0 .573v.448c.011.524.051 1.046.12 1.566.058.481.09.966.097 1.451a1.57 1.57 0 0 1-.046.402c-.2 1.72-.28 2.868.465 3.51.275.224.62.345.974.344.258-.007.512-.061.75-.16-.928 1.537-1.3 2.294-.498 2.96.227.189.512.294.808.298.315 0 1.146 0 2.395-2.386.094-.187.178-.378.252-.574.06-.186.15-.362.263-.522a1.39 1.39 0 0 1 .298-.172 4.9 4.9 0 0 0 .607-.35 18.637 18.637 0 0 0 2.292-2.065c.39-.396.756-.774 1.146-1.113.997-.906 2.063-1.79 3.094-2.65l.728-.574.888-.808a19.91 19.91 0 0 1 2.36-1.859c.35-.224.705-.442 1.066-.66-.401.333-.808.671-1.226 1.01-.418.338-.722.574-1.146.849-.626.435-1.223.91-1.788 1.423-.94.934-1.73 2.008-2.343 3.183a22.316 22.316 0 0 1-1.644 2.639c-.51.671-2.063 2.707-.27 4.216.129.105.277.183.436.23.31.084.63.127.95.126 1.525 0 2.728-.981 3.697-1.767.24-.2.47-.384.681-.574.31-.223.613-.453.917-.682.573-.436 1.106-.844 1.667-1.222.24-.16.476-.333.716-.5a6.929 6.929 0 0 1 2.109-1.198l.378-.098c.212-.046.435-.103.67-.177-.252.17-.49.362-.71.573-1.146 1.107-3.707 3.89-2.292 5.782a2.064 2.064 0 0 0 1.748.815c1.117 0 2.423-.654 3.38-1.147.258-.132.504-.253.636-.304a8.724 8.724 0 0 1 1.146-.333c.554-.122 1.096-.291 1.621-.505-.194.281-.28.624-.24.964.137 1.36 1.833 1.72 2.819 1.72h.149a14.227 14.227 0 0 0 4.417-.9 16.767 16.767 0 0 1 3.197-.94 1.147 1.147 0 0 0 1.089.837 1.145 1.145 0 0 0 .882-.419l.138-.143c.687-.712 1.146-1.268 1.106-1.98a1.435 1.435 0 0 0-1.341-1.302c.928-.166 2.292-.493 2.653-1.824a1.723 1.723 0 0 0-.253-1.571 2.675 2.675 0 0 0-2.205-.82c-.678.014-1.354.077-2.023.189l-.481.063c-1.255.057-2.504.212-3.719.39l.424-.281a19.706 19.706 0 0 1 2.223-1.32c.293-.16.573-.327.854-.493.457-.298.943-.55 1.45-.751.267-.085.541-.146.819-.184a5.788 5.788 0 0 0 1.484-.396c1.467-.67 2.143-1.985 1.65-3.206a2.38 2.38 0 0 0-1.026-1.148l-.045-.034a1.148 1.148 0 0 0-.253-.631 1.147 1.147 0 0 0-.802-.407h-.366a7.631 7.631 0 0 0-2.676.573 8.4 8.4 0 0 1-1.948.367h-.24c-.379.046-.757.08-1.147.12a42.34 42.34 0 0 0-4.325.575c-1.758.41-3.481.953-5.157 1.623-.221.078-.45.133-.682.166l.43-.407a9.93 9.93 0 0 1 .894-.803c.71-.522 1.48-.96 2.291-1.302l.522-.253.756-.372c.756-.373 1.467-.729 2.223-1.022.796-.339 1.563-.744 2.292-1.21.258-.155.516-.31.78-.459.079-.046.16-.086.246-.12a2.613 2.613 0 0 0 1.415-1.193c.145-.318.21-.667.189-1.016.212-.063.487-.114.647-.149l.516-.115c.51-.137 1.043-.258 1.558-.378l.533-.126h.052a2.13 2.13 0 0 0 1.616-1.148c.079-.142.148-.29.206-.441a1.145 1.145 0 0 0 .166-1.865 5.092 5.092 0 0 0-.304-.23l-.108-.074a1.207 1.207 0 0 1 0-.35c.05-.08.109-.153.177-.218.398-.394.668-.9.774-1.45a1.148 1.148 0 0 0-.831-1.291v-.201a11.6 11.6 0 0 1 0-1.262c.12-1.286.12-2.58 0-3.867a12.966 12.966 0 0 1 0-2.667 2.87 2.87 0 0 1 .04-.574c.038-.243.139-.472.292-.665.252-.365.446-.768.573-1.193a1.15 1.15 0 0 0-.137-.918 1.412 1.412 0 0 0-.247-.275 1.804 1.804 0 0 0-.154-.694 2.464 2.464 0 0 0-.356-.574l-.046-.057c.018-.342.142-.669.356-.935a1.148 1.148 0 0 0-.952-1.79c-.423 0-.882 0-1.375-.063-.492-.063-1.071-.075-1.621-.075a7.83 7.83 0 0 0-1.467.12 1.145 1.145 0 0 0-.922 1.278c.025.192.098.374.212.53.367.499.395.768.384.883a.91.91 0 0 1-.086.166 3.848 3.848 0 0 0-.16.31 3.5 3.5 0 0 0-.184.425H45.262c-.573 0-1.323.051-2.022.051h-.069v-.086c.011-.066.028-.132.052-.195a1.458 1.458 0 0 0-.74-1.801c-.32-.17-.679-.26-1.042-.258h-.08a2.924 2.924 0 0 1-.138-.413 9.59 9.59 0 0 0-.178-.534c-.315-.808-.63-1.617-.94-2.42l-.572-1.44c-.378-1.01-.774-2.042-1.146-3.063-.195-.494-.395-.987-.573-1.48l-.361-.89a6.632 6.632 0 0 0-.138-.315 1.378 1.378 0 0 1-.085-.19 2.45 2.45 0 0 0 .143-.194 1.149 1.149 0 0 0-.533-1.744v-1.566a1.301 1.301 0 0 0 .378-1.256 2.53 2.53 0 0 0-.796-1.331l-.126-.138-.052-.046v-.321a2.21 2.21 0 0 0-.178-.769v-.097a1.099 1.099 0 0 0-.103-.27 1.392 1.392 0 0 0 0-.218 11.97 11.97 0 0 0-.538-2.696l-.155-.573a1.147 1.147 0 0 0-1.077-.826L34.136 10Z"/></g><defs><clipPath id="a"><path fill="#fff" d="M24 10h43v67H24z"/></clipPath></defs></svg>