<svg width="68" height="33" fill="none" xmlns="http://www.w3.org/2000/svg"><g clip-path="url(#a)"><path fill-rule="evenodd" clip-rule="evenodd" d="M68 32.432H0C1.037 14.554 15.863.377 34 .377s32.963 14.177 34 32.055Z" fill="url(#b)"/><mask id="c" style="mask-type:alpha" maskUnits="userSpaceOnUse" x="0" y="0" width="68" height="33"><path fill-rule="evenodd" clip-rule="evenodd" d="M68 32.432H0C1.037 14.554 15.863.377 34 .377s32.963 14.177 34 32.055Z" fill="#fff"/></mask><g mask="url(#c)"><path d="m0 32.431-.46-.026-.03.488H0v-.462Zm68 0v.462h.489l-.029-.489-.46.027Zm-68 .462h68v-.923H0v.923Zm.46-.435C1.484 14.823 16.109.838 34 .838v-.923C15.617-.085.59 14.285-.46 32.405l.92.053ZM34 .838c17.891 0 32.516 13.985 33.539 31.62l.921-.053C67.41 14.284 52.383-.086 34-.086v.923Z" fill="#fff"/></g><path d="M20.966 24.267v.133c-.15.004-.266.022-.346.053a.24.24 0 0 0-.153.16c-.026.075-.04.195-.04.359v3.299c0 .16.014.279.04.359a.24.24 0 0 0 .153.16c.08.026.195.044.346.053v.133a5.468 5.468 0 0 0-.432-.014 23.658 23.658 0 0 0-1.164 0c-.19 0-.348.005-.473.014v-.133c.173-.01.304-.027.393-.054a.261.261 0 0 0 .18-.16c.03-.08.046-.199.046-.358v-3.3c0-.163-.015-.285-.046-.365a.24.24 0 0 0-.147-.16.717.717 0 0 0-.293-.046h-.06a.676.676 0 0 0-.279.047c-.066.026-.115.082-.146.166-.027.08-.047.2-.06.359-.022.261-.044.543-.066.845a21.75 21.75 0 0 1-.073.91 7.585 7.585 0 0 1-.127.878c-.058.28-.133.53-.226.752-.093.217-.213.39-.36.519a.787.787 0 0 1-.538.193.807.807 0 0 1-.479-.147.476.476 0 0 1-.206-.412c0-.155.051-.28.153-.372a.557.557 0 0 1 .38-.14c.132 0 .239.033.318.1.08.066.12.157.12.272a.482.482 0 0 1-.126.346.728.728 0 0 1-.32.2.53.53 0 0 0 .16.026.657.657 0 0 0 .512-.232 1.73 1.73 0 0 0 .333-.632 5.41 5.41 0 0 0 .206-.918c.049-.341.087-.698.113-1.07.027-.378.051-.75.073-1.118a.928.928 0 0 0-.02-.353.24.24 0 0 0-.16-.166c-.08-.03-.199-.049-.358-.053v-.133c.093.004.203.009.332.013.129.005.246.007.352.007.102 0 .2-.002.293-.007.098-.009.195-.013.293-.013.168 0 .321.004.459.013.137.005.301.007.492.007h.332c.12-.005.235-.007.346-.007.111-.004.202-.009.273-.013Zm3.287-.093c.452 0 .849.095 1.19.286.341.19.605.465.791.824.191.355.286.787.286 1.297 0 .497-.097.931-.292 1.304-.19.372-.46.663-.805.871a2.214 2.214 0 0 1-1.177.313c-.452 0-.85-.096-1.19-.286a1.988 1.988 0 0 1-.799-.825c-.186-.36-.28-.791-.28-1.297 0-.496.099-.931.294-1.303.195-.373.463-.663.804-.872a2.214 2.214 0 0 1 1.178-.312Zm-.027.12c-.262 0-.49.1-.685.299-.19.2-.34.474-.446.825-.106.35-.16.755-.16 1.216 0 .47.06.88.18 1.23.12.347.282.615.486.806.204.186.428.279.671.279.262 0 .488-.1.679-.3.195-.199.346-.474.452-.824.107-.355.16-.76.16-1.217 0-.474-.06-.885-.18-1.23-.12-.346-.281-.612-.485-.799a.949.949 0 0 0-.672-.285Zm8.882-.027v.133a.971.971 0 0 0-.325.053.24.24 0 0 0-.153.16 1.392 1.392 0 0 0-.034.359v3.299c0 .16.014.279.04.359a.24.24 0 0 0 .146.16c.076.026.185.044.326.053v.133a5.9 5.9 0 0 0-.438-.014 21.72 21.72 0 0 0-1.105 0c-.173 0-.312.005-.419.014v-.133a1.32 1.32 0 0 0 .34-.054.24.24 0 0 0 .16-.16c.026-.08.04-.199.04-.358v-3.618l.046.006-1.65 4.337h-.106l-1.756-4.303v3.298c0 .213.014.38.04.5.027.114.084.199.173.252.093.049.233.082.419.1v.133a3.222 3.222 0 0 0-.326-.014 11.5 11.5 0 0 0-.705 0c-.106 0-.195.005-.266.014v-.133a.745.745 0 0 0 .326-.1.351.351 0 0 0 .146-.24c.027-.11.04-.263.04-.459v-3.072c0-.164-.013-.284-.04-.36a.222.222 0 0 0-.146-.159.93.93 0 0 0-.326-.053v-.133a8.221 8.221 0 0 0 .592.02c.164 0 .324-.002.479-.007l.412-.013 1.43 3.571-.146.12 1.39-3.671h.419a21.724 21.724 0 0 0 .977-.02Zm4.378 0c-.018.182-.031.359-.04.532-.005.168-.007.297-.007.386a4.474 4.474 0 0 0 .02.439h-.153c-.044-.306-.108-.546-.193-.719a.75.75 0 0 0-.319-.372 1.03 1.03 0 0 0-.512-.113h-.246c-.133 0-.235.01-.306.033a.22.22 0 0 0-.146.14c-.023.07-.034.18-.034.326v3.352c0 .15.01.268.027.352.022.084.062.142.12.173a.563.563 0 0 0 .26.047c.247 0 .438-.051.571-.153a.804.804 0 0 0 .273-.44c.053-.19.08-.407.08-.651 0-.27-.032-.503-.093-.698a.785.785 0 0 0-.313-.446c-.146-.102-.353-.153-.619-.153-.057 0-.133.002-.226.007h-.485l-.014-.127h.5c.163-.004.292-.006.385-.006.333 0 .614.037.845.113.23.07.416.173.558.306.147.128.253.277.32.445.066.169.1.348.1.539 0 .186-.034.363-.1.532a1.153 1.153 0 0 1-.313.446c-.142.128-.33.23-.565.306a2.885 2.885 0 0 1-.872.113c-.106 0-.232-.003-.379-.007a9.555 9.555 0 0 0-.565-.013c-.15 0-.315.002-.492.006-.173 0-.315.005-.426.014v-.133c.146-.01.255-.027.326-.054a.222.222 0 0 0 .146-.16c.027-.08.04-.199.04-.358v-3.3c0-.163-.013-.283-.04-.358a.222.222 0 0 0-.146-.16.93.93 0 0 0-.326-.053v-.133l.559.013c.2 0 .395.002.585.007h1.576c.24-.005.453-.011.639-.02Zm3.406-.02 1.616 4.17c.066.16.137.27.213.332.08.058.153.09.22.094v.133a5.57 5.57 0 0 0-.42-.014 17.87 17.87 0 0 0-1.037 0c-.169 0-.306.005-.413.014v-.133c.226-.01.37-.047.433-.113.062-.071.048-.22-.04-.446l-1.17-3.16.119-.145-1.064 2.76a2.479 2.479 0 0 0-.153.545.59.59 0 0 0 .033.332c.04.08.107.138.2.173.093.031.208.05.345.054v.133a6.589 6.589 0 0 0-.412-.014 12.073 12.073 0 0 0-.399-.006c-.098 0-.19.002-.28.006-.084 0-.159.005-.225.014v-.133a.6.6 0 0 0 .286-.173c.097-.094.19-.255.279-.486l1.523-3.937a2.06 2.06 0 0 0 .346 0Zm.578 2.813v.133h-1.982l.067-.133h1.915Zm2.204-2.793a32.459 32.459 0 0 0 .944.02c.217 0 .423-.002.618-.007.196-.004.333-.007.413-.007.594 0 1.035.122 1.323.366.293.244.44.559.44.945 0 .16-.03.328-.087.505a1.315 1.315 0 0 1-.3.486 1.569 1.569 0 0 1-.585.359c-.244.093-.556.14-.938.14h-.665v-.134h.599c.28 0 .492-.06.639-.18.15-.119.25-.276.299-.471.053-.195.08-.406.08-.632 0-.421-.07-.736-.207-.945-.137-.208-.374-.312-.711-.312-.182 0-.302.038-.36.113-.053.075-.08.228-.08.459v3.272c0 .169.019.295.054.38.035.083.104.139.206.165.102.027.248.042.44.047v.14a7.512 7.512 0 0 0-.5-.014 29.293 29.293 0 0 0-1.17 0c-.173 0-.324.005-.452.014v-.133a1.2 1.2 0 0 0 .325-.054.222.222 0 0 0 .147-.16c.026-.08.04-.199.04-.358v-3.3c0-.163-.014-.283-.04-.358a.222.222 0 0 0-.147-.16.93.93 0 0 0-.325-.053v-.133Zm7.998 0v.133c-.15.004-.266.022-.346.053a.24.24 0 0 0-.153.16c-.026.075-.04.195-.04.359v3.299c0 .16.014.281.04.365.027.08.075.136.146.167.076.026.184.04.326.04h.206a9.571 9.571 0 0 0-.04.478c-.004.16-.006.28-.006.36 0 .084.002.161.007.232.004.076.009.14.013.193h-.153a2.156 2.156 0 0 0-.186-.672.737.737 0 0 0-.333-.352 1.16 1.16 0 0 0-.532-.106h-1.71c-.216 0-.396.035-.538.106a.746.746 0 0 0-.326.352 2.43 2.43 0 0 0-.186.672h-.153c.009-.053.013-.117.013-.193.005-.07.007-.148.007-.232 0-.08-.004-.2-.013-.36a6.02 6.02 0 0 0-.034-.478h2.002c.151 0 .264-.014.34-.04a.26.26 0 0 0 .16-.167c.026-.084.04-.206.04-.365v-3.3c0-.163-.016-.285-.047-.365a.24.24 0 0 0-.147-.16.716.716 0 0 0-.292-.046h-.087a.608.608 0 0 0-.266.047c-.062.026-.106.082-.133.166-.026.08-.046.2-.06.359a69.25 69.25 0 0 0-.066.818c-.018.293-.042.59-.073.891a8.466 8.466 0 0 1-.133.858c-.054.27-.127.514-.22.732a1.433 1.433 0 0 1-.359.512.804.804 0 0 1-.539.186v-.126a.665.665 0 0 0 .512-.227c.138-.155.249-.363.333-.625.089-.261.157-.558.206-.89.049-.338.087-.688.113-1.052.027-.363.051-.722.073-1.077a.928.928 0 0 0-.02-.353.24.24 0 0 0-.16-.166c-.08-.03-.199-.049-.358-.053v-.133c.093.004.203.009.332.013.129.005.246.007.353.007.102 0 .2-.002.292-.007a3.22 3.22 0 0 1 .293-.013c.168 0 .321.004.459.013.137.005.301.007.492.007h.333a9.42 9.42 0 0 1 .345-.007c.111-.004.202-.009.273-.013Z" fill="#FFD644"/><path fill-rule="evenodd" clip-rule="evenodd" d="m33.314 14.11-.01.005-.012.005-.011.005-.011.005-.01.005-.012.006-.01.005-.011.005-.011.006-.01.005-.011.006-.01.005-.011.006-.01.006-.011.005-.01.006-.005.002-.148-.281.007-.004.012-.006.011-.006.012-.006.011-.006.012-.006.012-.006.012-.006.012-.005.011-.006.013-.006.011-.006.013-.005.012-.006.012-.005.012-.006.013-.005.012-.005.012-.006.013-.005.012-.005.013-.006.012-.005.013-.005.013-.005.013-.005.012-.005.013-.005.013-.005.013-.004.012-.005h.002l.002-.001h.002l.002-.002h.002l.002-.001h.002l.002-.002h.002l.005-.002.004-.002.005-.001.005-.002.01-.003.005-.002.004-.002.005-.001.005-.002.005-.002.005-.001.003-.001.101.296-.004.001-.006.002-.005.002-.01.004-.006.002-.005.002-.01.003-.006.002-.005.002-.005.002h-.002l-.015.006-.012.005-.012.005-.012.004-.012.005-.011.004-.012.005-.011.005-.012.005-.011.005-.012.005-.011.005-.011.005-.012.005Zm1.63-.951-.007.086-.018.198c.05.004.1.009.149.015l.018-.139.008-.064-.006-.001.05-.38.096-.143.155.022-.027.15.016.003.008-.038.093-.1.007.002.132.026.006.001-.028.115.117-.095c.051.011.102.024.152.038l-.133.44-.008-.002-.026.086-.058.19.097.028.06-.182h-.002l-.008-.004.023-.07.1-.305.202-.107c.055.018.11.037.163.057l-.033.083.119-.05.122.052-.036.077.118-.04.143.071-.27.392-.017-.01-.037.07-.11.21-.037.069-.165.313-.18.343-.022.04-.003-.002-.008-.006c-.002 0-.003-.002-.005-.003a.774.774 0 0 0-.011-.007l-.002-.001-.028-.017a1.486 1.486 0 0 0-.06-.035h-.001a1.97 1.97 0 0 0-.343-.14c-.001-.002-.003-.002-.004-.002l-.01-.004c-.005 0-.009-.002-.012-.003a.376.376 0 0 1-.01-.003c-.004 0-.008-.002-.011-.003l-.01-.003-.01-.002-.007-.002-.016-.005h-.001l-.02-.005h-.002l-.019-.005-.02-.005h-.002l-.018-.005h-.002a2.897 2.897 0 0 0-.608-.068H34.577a2.898 2.898 0 0 0-.608.068h-.002l-.018.004-.003.001a1.298 1.298 0 0 0-.019.005l-.02.005a2.04 2.04 0 0 0-.045.012l-.01.002-.01.003-.011.003-.01.003-.012.004-.007.002-.007.002a1.966 1.966 0 0 0-.331.135l-.027.014c-.03.017-.06.034-.087.053l-.003.001-.011.008h-.002l-.031-.059-.17-.323-.166-.313-.037-.07-.11-.208-.036-.07a2.71 2.71 0 0 0-.018.009l-.27-.392.143-.07.119.039-.036-.077c.04-.018.08-.035.121-.051l.119.049-.033-.083c.053-.02.108-.04.164-.058l.201.108.1.306.023.07-.008.002h-.001l.06.183.096-.028-.053-.175-.03-.101-.01.002-.132-.44c.05-.014.1-.027.152-.038l.117.095-.028-.115.006-.001c.044-.01.088-.018.133-.026l.006-.001.094.099.007.038.016-.003-.027-.15.155-.022.097.144.049.379h-.006l.008.065.018.138c.05-.006.1-.01.15-.014l-.015-.16-.011-.124h-.006l-.044-.453c.06-.005.132-.008.194-.01l.025.13.001.02.087-.003-.003-.15c.06-.002.117-.002.177 0l-.003.15.087.003.001-.02.025-.13c.062.002.134.005.194.01l-.043.453h-.007Zm-.024.073.006-.075a4.168 4.168 0 0 0-.317-.012h-.016c-.103 0-.212.004-.316.012l.006.075c.096-.007.194-.01.292-.011v.227a4.058 4.058 0 0 0-.51.036c-.077.01-.152.022-.226.037l-.048-.223a4.01 4.01 0 0 1 .232-.039l-.01-.075c-.179.025-.351.06-.517.104l.023.073a3.88 3.88 0 0 1 .223-.053l.052.222a3.607 3.607 0 0 0-.639.2l-.094-.212c.062-.026.125-.05.19-.074l-.027-.072c-.15.053-.292.113-.426.182l.037.07c.059-.03.119-.06.18-.087l.097.213a2.8 2.8 0 0 0-.167.082l.037.07c.117-.064.243-.12.377-.169a3.578 3.578 0 0 1 .094-.033l.114.33a2.371 2.371 0 0 0-.42.184l.033.063c.044-.025.09-.05.137-.072l.138.307.02-.01.024-.011-.135-.307c.16-.072.34-.13.535-.173l.074.317.033-.007.014-.002-.07-.318c.197-.04.407-.06.625-.063v.324h.053v-.324c.218.002.428.024.625.063l-.07.318.014.002.033.007.075-.317c.193.042.373.1.534.173l-.134.307.023.011.02.01.138-.307c.048.023.094.047.138.072l.032-.063a2.371 2.371 0 0 0-.42-.184l.113-.33a3.404 3.404 0 0 1 .094.033h.001c.134.049.26.105.378.168l.036-.07a2.77 2.77 0 0 0-.167-.081l.097-.213c.061.027.122.056.18.086l.037-.07a3.424 3.424 0 0 0-.426-.181l-.027.072a3.5 3.5 0 0 1 .19.074l-.094.213a3.124 3.124 0 0 0-.417-.146 3.598 3.598 0 0 0-.222-.055l.052-.222c.076.015.15.033.224.053l.022-.073a4.11 4.11 0 0 0-.516-.104l-.011.075c.079.011.156.024.233.039l-.049.223a3.938 3.938 0 0 0-.736-.073v-.227c.098 0 .196.004.292.011Zm.242.025.011-.076h-.001l-.001.001-.062.057-.003.018-.006.051.062-.05Zm-2.319.382.094.177.006-.004.011-.005.012-.006.011-.006.012-.006.01-.006.012-.005.012-.006.012-.006.011-.005.012-.006.012-.005.011-.006.008-.003-.082-.18-.01.004-.005.003-.007.002-.006.003-.006.003-.006.003-.007.003-.006.003-.006.002-.006.003-.006.003-.012.006-.007.003-.006.003-.012.006-.006.003-.006.003-.006.003-.006.003-.006.003-.006.003-.012.006-.008.004Zm.508.934.001-.001.002-.001.008-.005.008-.005.008-.005.002-.001h.001v-.001l.006-.003.008-.005.008-.005.008-.005.009-.004.008-.005.009-.005.003-.001-.132-.292-.003.002-.01.005-.01.004-.01.005-.009.005-.01.005-.009.005-.01.005-.009.005-.01.005-.008.005-.01.005-.009.005-.003.002.023.043.129.245.006-.004.005-.003Zm.164-.09.001-.001.008-.004.009-.004.009-.004.008-.003.001-.001.014-.006.002-.001.01-.004.01-.005.005-.002.014-.006.006-.002.007-.003h.001l.014-.006.006-.002.008-.004.008-.003.007-.002.014-.005h.002l.006-.003.005-.002h.002l.015-.006.014-.005h.002l.003-.002.01-.003.016-.005.005-.002.004-.001.004-.001.002-.001.015-.005.016-.005h.002l.004-.002.009-.002.016-.005.008-.002.003-.001h.002l.002-.001.016-.005.016-.004h.002l.003-.001.004-.001.007-.002.016-.004.012-.003h.002l.002-.001.017-.004.015-.004-.07-.3h-.002l-.018.005-.018.004-.017.004-.018.005-.018.004-.017.004-.017.005-.018.005-.017.004-.017.005-.017.005-.017.005-.017.005-.017.006-.017.005-.016.005-.017.006-.016.006-.016.005-.017.006-.016.006-.016.006-.015.006-.016.006-.016.006-.016.006-.015.007-.015.006-.016.007-.014.006.128.29Zm.527-.169.007-.001.006-.002.014-.002.017-.003h.001l.005-.001.007-.002h.003l.017-.003.008-.001.01-.002h.007l.008-.002.017-.003h.004l.008-.001.009-.002.013-.001.012-.002.01-.001.011-.002h.001l.018-.002h.006l.01-.002h.01l.008-.002.018-.001.01-.001.014-.002h.01l.01-.001.013-.001.012-.001h.001l.018-.002h.016l.014-.001h.006l.013-.002h.027l.013-.001h.006l.015-.001H34.541l.012-.001h.005v-.306h-.023l-.02.001h-.02l-.02.002h-.02l-.02.001-.02.001-.02.001-.02.002-.02.001-.02.001-.02.002-.02.002-.019.002-.02.001-.019.002-.02.002-.018.003-.02.002-.019.003-.019.002-.019.003-.019.002-.019.003-.019.003-.018.003-.02.004-.018.003-.018.003-.019.004.065.3h.005Zm.603-.052h.053l.015.002h.033l.013.002h.02l.014.001.013.001h.002l.018.002h.014l.012.002h.01l.01.002h.014l.01.002.018.001.008.001.01.001.01.002h.007l.017.002h.001l.01.002.011.001.012.002.013.002h.01l.007.002h.004l.017.003.008.001.008.001.009.002.008.001.017.003h.003l.007.002h.007l.016.004.014.003h.006l.007.002.005.001.066-.3h-.001l-.018-.004-.019-.003-.019-.003-.018-.004-.019-.003-.019-.003-.019-.003-.019-.002-.019-.003-.019-.002-.02-.003-.018-.002-.02-.003-.019-.002-.02-.002-.019-.002-.02-.001-.02-.002-.019-.002-.02-.001-.02-.001-.02-.002h-.02l-.02-.002h-.02l-.02-.001-.02-.001h-.02l-.02-.001h-.023v.305Zm.636.078h.002l.012.004.016.004.007.002h.005l.002.002h.002l.016.004.016.005h.004l.003.002.009.002.015.005.009.002.004.001.003.001.015.005.015.005h.003l.003.002.004.001.006.002.015.005.01.003.003.001.002.001.014.005.015.005h.002l.005.003.007.002.015.006.007.002.008.003.008.004.006.002.014.006h.001l.007.003.006.002.014.006.005.002.01.005.01.004h.003l.013.007h.002l.007.004.01.004.008.004.008.004h.002l.127-.29-.014-.005-.015-.007-.016-.006-.015-.007-.016-.006-.016-.006-.015-.006-.016-.006-.016-.006-.016-.006-.016-.006-.017-.005-.016-.006-.017-.006-.016-.005-.017-.005-.017-.006-.017-.005-.017-.005-.017-.005-.017-.005-.017-.004-.017-.005-.018-.005-.017-.004-.018-.005-.017-.004-.018-.004-.018-.004-.018-.004-.072.3.016.003.016.004h.002Zm.54.214h.001l.003.002.008.005.008.005.008.005.002.001.002.001.004.003.007.004.14-.266.011-.022-.003-.002-.01-.005-.008-.005-.01-.005-.009-.005-.01-.005-.009-.005-.01-.005-.009-.005-.01-.005-.01-.005-.009-.004-.01-.005-.003-.002-.131.292.002.001.009.005.008.005.009.004.008.005.008.005.009.005.004.003Zm.244-.356.148-.281-.007-.004-.012-.006-.011-.006-.012-.006-.011-.006-.012-.006-.012-.006-.012-.006-.011-.005-.012-.006-.012-.006-.012-.006-.012-.005-.012-.006-.013-.005-.012-.006-.012-.005-.013-.005-.012-.006-.013-.005-.012-.005-.013-.006-.012-.005-.013-.005-.012-.005-.013-.005-.013-.005-.013-.005-.013-.005-.013-.004-.012-.005h-.002l-.002-.001h-.002l-.002-.002h-.002l-.002-.001h-.002l-.001-.002h-.002l-.005-.002-.005-.002-.005-.001-.005-.002-.01-.003-.004-.002-.005-.002-.005-.001-.005-.002-.005-.002-.005-.001-.002-.001-.102.296.005.001.005.002.005.002.01.004.006.002.005.002.01.003.006.002.005.002.005.002h.003l.015.006.012.005.011.005.012.004.012.005.011.004.012.005.012.005.011.005.012.005.011.005.011.005.012.005.01.005.012.005.011.005.011.005.011.005.011.005.011.006.01.005.012.005.01.006.011.005.01.006.011.005.01.006.01.006.011.005.01.006.005.002Zm.202-.382.093-.177-.008-.004-.012-.006-.006-.003-.006-.003-.006-.003-.006-.003-.006-.003-.006-.003-.012-.006-.006-.003-.006-.003-.013-.006-.006-.003-.006-.002-.006-.003-.006-.003-.006-.003-.007-.003-.006-.003-.006-.003-.006-.002-.007-.003-.008-.004-.083.18.008.003.011.006.012.005.012.006.012.005.011.006.012.006.011.005.012.006.011.006.011.006.012.006.011.005.007.004Zm-2.237-.635v.001l.011.075.063.051-.007-.051-.003-.018-.062-.057h-.002Zm-.79.184.028.073v.003l.146.034-.019-.058-.003-.01-.152-.043Zm.039.153-.022-.057-.01.003-.006.003-.007.002-.006.003-.007.002-.013.005-.012.004-.007.003-.007.002-.006.003-.007.002-.012.005-.007.003-.006.002-.013.005-.006.003-.007.002-.006.003-.006.002-.007.003-.006.003-.008.003.08.18.007-.003.006-.002.006-.003.006-.002.006-.003.006-.002.006-.002.006-.003.006-.002.012-.005.012-.005.006-.002.006-.003.006-.002.007-.002.012-.005.012-.005.013-.004.006-.003.006-.002.006-.002h.002l-.047-.127Zm.176.082a3.022 3.022 0 0 0-.112.039l-.067-.18.144.034.035.107Zm.668-.141a4.492 4.492 0 0 0-.05.006l-.02-.131-.01-.06.063.052.017.133Zm1.625.142c.038.011.076.024.113.037l.067-.18-.145.035-.035.107Zm-.668-.142.051.007.02-.132.008-.06-.062.052-.017.133Zm-.861.083.039.344a3.544 3.544 0 0 1 .687 0l.04-.344a3.934 3.934 0 0 0-.766 0Zm.481.31h.011l.011.001h.022l.01.001h.011l.011.001h.011l.01.002h.022l.011.001.01.001h.011l.011.002h.01l.011.001.011.001.01.001h.011l.01.002h.005l.035-.308h-.006l-.012-.002h-.011l-.012-.002h-.012l-.011-.002h-.012l-.012-.001-.012-.001-.012-.001h-.011l-.012-.001-.012-.001h-.012l-.012-.001h-.012l-.012-.001h-.012l-.012-.001h-.012l-.012-.001h-.024l-.012-.001h-.06l-.012-.001H34.517l-.012.001h-.024l-.012.001h-.012l-.012.001h-.012l-.012.001h-.012l-.012.001h-.012l-.011.002h-.012l-.012.001h-.012l-.012.002h-.011l-.012.001-.012.001-.012.001-.012.001-.011.001-.012.001h-.005l.035.31.003-.001.011-.001.01-.001h.011l.01-.002h.011l.011-.001.01-.001h.011l.011-.002H34.394l.012-.002H34.427l.01-.001h.012l.01-.001h.022l.011-.001H34.513l.012-.001H34.7Zm-.277-1.006h-.013l-.006-.112.018.094.002.018Zm.376-.112-.005.113h-.014l.001-.02.018-.093Zm-.27.394H34.728l.01.001h.022l.01.001h.012l.01.001h.011l.011.001h.01l.012.001.01.001h.011l.011.001h.01l.011.002h.011l.01.001h.011l.011.002h.004l.04-.418h-.017l-.006-.001h-.012l-.006-.001h-.006l-.006-.001H34.909l-.006-.001h-.012l-.007-.001H34.866l-.006-.001H34.847l-.006-.001H34.823l-.005-.001-.007.152-.025-.002h-.027l-.007-.001H34.726l-.007-.001H34.693l-.024-.001.003-.151h-.141l.003.151H34.484l-.007.001H34.459l-.007.001h-.02l-.007.001h-.007l-.024.002-.008-.152h-.023l-.006.001H34.343l-.006.001h-.012l-.006.001H34.306l-.006.001h-.012l-.006.001H34.269l-.006.001h-.012l-.006.001h-.006l-.005.001h-.005l.04.418h.003l.01-.001h.011l.011-.002h.01l.011-.001h.011l.01-.001.012-.001h.01l.011-.001h.01l.012-.001h.01l.011-.001h.011l.01-.001h.022l.011-.001h.032l.011-.001h.01Zm1.405.313-.145.034.019-.058.004-.01.15-.043v.002l-.003.009-.024.063v.003Zm-.014-.396.186-.1-.025.069-.122.335-.008.003-.146.041.016-.048.099-.3Zm.114.448-.007-.002-.006-.003-.007-.002-.007-.003-.012-.004-.013-.005-.007-.002-.006-.003-.007-.002-.006-.003-.01-.003-.069.183h.002l.006.003.007.002.006.003.012.004.012.005.013.005.006.002.006.002.006.003.006.002.012.005.012.005.007.002.005.003.007.002.005.002.007.003.005.002.007.003.005.002.006.003h.002l.08-.18-.009-.003-.006-.003-.007-.003-.006-.002-.006-.003-.007-.002-.006-.003-.013-.005-.006-.002-.006-.003-.013-.005Zm.406-.33.118-.04-.062.126-.08-.037.024-.05Zm-.204-.079.118-.048-.056.126-.08-.032.018-.046Zm.013-.088-.01-.004-.01-.004-.01-.003-.01-.004-.01-.004-.01-.003-.011-.004-.01-.004-.01-.003-.01-.004-.011-.003-.01-.004-.005-.001-.145.401.015.005.016.006.016.006.016.006.016.006.016.006.015.006.016.006.015.006.016.006.016.006.015.007.015.006.016.007.015.006.015.007.015.006.015.007.015.007.015.006.015.007.015.007.015.007.014.007.015.007.014.008.015.007.014.007.015.007.014.008.25-.362-.008-.004-.01-.005-.008-.004-.009-.005-.009-.004-.009-.005-.008-.004-.01-.004-.008-.005-.01-.004-.008-.004-.01-.005h-.002l-.069.14-.112-.052.067-.14-.006-.003-.008-.004-.007-.003-.008-.003-.007-.003-.008-.003-.008-.004-.007-.003-.008-.003-.007-.003-.008-.003-.007-.003-.063.142-.113-.045.058-.143-.003-.001Zm-1.145.227.057-.053.008-.007.061-.405-.081.121-.045.344Zm.373-.008-.018-.004-.018-.003-.018-.004-.017-.003-.018-.003-.018-.004-.018-.003-.018-.003-.019-.003-.018-.003-.018-.003-.018-.002-.019-.003-.018-.003-.018-.002-.019-.003.062-.415h.002l.01.002.01.001.01.001.01.002.009.001.01.001.01.002.009.001.01.002.01.001.009.002h.01v.001l-.026.15.12.02.031-.149.006.001.008.002.009.001.008.002.008.002.008.001.009.002.008.001.008.002.008.002.008.001.009.002.008.002h.004l-.035.149.12.026.039-.147h.002l.01.003.01.002.009.002.01.003.009.002.01.002.009.003.01.002.009.003.01.002.009.003.009.002h.001l-.123.406-.017-.005-.017-.004-.017-.005-.017-.004-.018-.004-.017-.005-.017-.004-.018-.004-.017-.004-.018-.004-.017-.004-.018-.004-.018-.003-.017-.004Zm-.246.07-.008-.001-.008-.002h-.008l-.008-.002h-.008l-.008-.002h-.006l-.028.189h.004l.008.002h.007l.008.002h.007l.008.002.007.001.008.001.007.001.008.001.007.002h.007l.008.002.007.001.008.002h.007l.007.002.008.001.007.002h.007l.008.002.007.001.007.002.008.001.014.003.008.001.004.001.041-.188h-.005l-.007-.002-.008-.002-.008-.001-.008-.002-.007-.001-.008-.001-.008-.002-.015-.002-.008-.002-.008-.001-.015-.003-.016-.002-.016-.003-.015-.002-.008-.001Zm.287.053-.007-.001-.008-.002-.015-.003-.008-.002-.006-.001-.043.188h.004l.007.002.007.002.007.001.008.002.007.002.007.001.007.002.007.001.007.002.008.002.007.002.007.001.007.002.014.004.007.001.007.002.007.002.007.002.007.002.007.001.007.002.007.002.014.004.011.003.056-.186-.011-.003-.008-.002-.007-.002-.008-.002-.007-.002-.007-.002-.008-.002-.007-.001-.008-.002-.007-.002-.008-.002-.007-.002-.008-.002-.007-.001-.008-.002-.015-.004-.007-.002-.008-.001-.015-.004Zm-.677-.093h-.02l-.01-.001h-.009l-.01-.001h-.019l-.01-.001h-.009l-.01-.001H34.715l-.01-.001h-.039l-.01-.001h-.011v.191h.048l.008.001H34.73l.009.001H34.756l.01.001H34.783l.009.001h.009l.009.001h.009l.009.001h.009l.009.001h.009l.009.001h.009l.009.002h.018l.017-.19h-.01l-.01-.001h-.01l-.009-.001-.01-.001h-.01l-.009-.001h-.01Zm.736.747.098-.297h-.002l-.02-.006-.019-.006-.02-.005-.019-.006-.02-.005-.019-.005-.02-.005-.02-.005-.02-.005-.02-.005-.02-.005-.02-.005-.02-.004-.02-.005-.02-.004-.02-.004-.021-.004-.02-.004-.021-.004-.021-.004-.02-.003-.022-.004-.02-.003-.022-.004-.02-.003-.022-.003-.021-.003-.021-.003-.022-.002-.021-.003h-.004l-.038.308h.001l.02.002.02.003.019.002.019.003.02.003.019.003.019.003.019.003.019.003.019.004.019.003.018.004.02.003.018.004.018.004.019.004.018.004.019.004.018.004.018.005.018.004.018.004.018.005.018.005.018.005.017.004.018.005.017.005.018.006.017.005Zm.011.022.11-.33a3.571 3.571 0 0 0-.656-.136L35 13.89c.208.024.406.066.588.123Zm-.198-1.106.059.01.026-.127-.078.082-.007.035Zm.202.023-.004.014.087.02.033-.129-.116.095Zm-2.309.114-.185-.1.024.069.122.335.008.003.146.041-.016-.048-.099-.3Zm-.52.117-.118-.038.062.125.08-.037-.023-.05Zm.204-.078-.118-.048.057.126.08-.032-.019-.046Zm-.013-.088.01-.004.01-.004.01-.003.01-.004.01-.004.011-.003.01-.004.01-.004.01-.003.01-.004.011-.003.01-.004.005-.001.145.401-.015.005-.016.006-.016.006-.016.006-.015.006-.016.006-.016.006-.016.006-.015.006-.016.006-.015.006-.016.007-.015.006-.015.007-.016.006-.015.007-.015.006-.015.007-.015.007-.015.006-.015.007-.015.007-.014.007-.015.007-.015.007-.014.008-.015.007-.014.007-.014.007-.015.008-.25-.362.009-.004.008-.005.01-.004.008-.005.009-.004.009-.005.009-.004.009-.004.009-.005.008-.004.01-.004.008-.005h.003l.069.14.112-.052-.066-.14.005-.003.008-.004.007-.003.008-.003.008-.003.007-.003.008-.004.007-.003.008-.003.008-.003.007-.003.007-.003.063.142.113-.045-.058-.143.003-.001Zm1.145.227-.057-.053-.008-.007-.06-.405.08.121.045.344Zm-.372-.008.017-.004.018-.003.018-.004.018-.003.018-.003.018-.004.018-.003.018-.003.018-.003.018-.003.018-.003.018-.002.019-.003.018-.003.018-.002.019-.003-.062-.415h-.002l-.01.002-.01.001-.01.001-.009.002-.01.001-.01.001-.009.002-.01.001-.01.002-.009.001-.01.002h-.01v.001l.027.15-.121.02-.031-.149-.006.001-.008.002-.008.001-.009.002-.008.002-.008.001-.008.002-.009.001-.008.002-.008.002-.008.001-.008.002-.009.002h-.004l.036.149-.121.026-.039-.147h-.002l-.01.003-.009.002-.01.002-.009.003-.01.002-.01.002-.009.003-.009.002-.01.003-.009.002-.01.003-.009.002.122.406.017-.005.017-.004.017-.005.018-.004.017-.004.017-.005.018-.004.017-.004.017-.004.018-.004.017-.004.018-.004.018-.003.017-.004Zm.245.07.008-.001.008-.002h.008l.008-.002h.008l.008-.002h.006v.005l.028.184h-.004l-.008.002h-.007l-.008.002h-.007l-.008.002-.007.001-.008.001-.007.001-.007.001-.008.002h-.007l-.008.002-.007.001-.007.002h-.008l-.007.002-.008.001-.007.002h-.007l-.008.002-.007.001-.007.002-.008.001-.014.003-.007.001-.005.001-.041-.188h.005l.008-.002.007-.002.008-.001.008-.002.008-.001.007-.001.008-.002.015-.002.008-.002.008-.001.016-.003.015-.002.016-.003.016-.002.007-.001Zm-.287.053.008-.001.007-.002.015-.003.008-.002.006-.001.043.188h-.003l-.008.002-.007.002-.007.001-.007.002-.008.002-.007.001-.007.002-.007.001-.007.002-.007.002-.007.002-.008.001-.007.002-.014.004-.007.001-.007.002-.007.002-.007.002-.007.002-.007.001-.007.002-.007.002-.014.004-.011.003-.056-.186.011-.003.008-.002.007-.002.008-.002.007-.002.008-.002.007-.002.007-.001.008-.002.007-.002.008-.002.007-.002.008-.002.007-.001.008-.002.015-.004.007-.002.008-.001.015-.004Zm.677-.093h.02l.01-.001h.009l.01-.001h.019l.01-.001h.01l.009-.001H34.488l.01-.001h.039l.01-.001h.01v.191H34.51l-.01.001H34.475l-.009.001h-.018l-.01.001H34.42l-.008.001h-.01l-.009.001h-.009l-.009.001h-.009l-.009.001h-.009l-.009.001h-.009l-.009.002h-.018l-.017-.19h.01l.01-.001h.01l.01-.001.009-.001h.01l.009-.001h.01Zm-.735.747-.098-.297h.002l.019-.006.019-.006.02-.005.019-.006.02-.005.019-.005.02-.005.02-.005.02-.005.02-.005.02-.005.02-.005.02-.004.02-.005.02-.004.02-.004.021-.004.02-.004.022-.004.02-.004.021-.003.02-.004.022-.003.02-.004.022-.003.021-.003.021-.003.022-.003.02-.002.022-.003h.004l.039.308h-.002l-.02.002-.02.003-.019.002-.019.003-.02.003-.018.003-.02.003-.019.003-.019.003-.019.004-.018.003-.02.004-.018.003-.019.004-.018.004-.019.004-.018.004-.018.004-.019.004-.018.005-.018.004-.018.004-.018.005-.018.005-.017.005-.018.004-.018.005-.017.005-.018.006-.017.005Zm-.012.022-.109-.33c.205-.064.424-.11.655-.136l.043.343a3.153 3.153 0 0 0-.589.123Zm.198-1.106-.058.01-.027-.127.079.082.006.035Zm-.201.023.003.014-.086.02-.034-.129.117.095Z" fill="#1F1A17"/><path fill-rule="evenodd" clip-rule="evenodd" d="m35.177 13.278-.028.19.023-.157m-1.445-.095.017-.004.018-.003.018-.004.018-.003.018-.004.018-.003.018-.003.018-.003.018-.003.018-.003.018-.003.019-.003.018-.002.018-.003.019-.003.018-.002-.062-.415h-.002l-.01.001-.01.002-.01.001-.009.001-.01.002-.01.001-.009.001-.01.002-.01.001-.009.002-.01.001-.009.002h-.001l.027.15-.121.02-.031-.149-.006.001-.008.002-.008.001-.008.002-.009.001-.008.002-.008.002-.008.001-.009.002-.008.001-.008.002-.008.002-.008.002H33.6l.036.148-.121.027-.038-.147h-.003l-.01.002-.009.003-.01.002-.009.002-.01.003-.009.002-.01.002-.009.003-.01.002-.009.003-.01.002-.009.003.122.406.017-.005.017-.004.018-.005.017-.004.017-.005.017-.004.018-.004.017-.004.018-.004.017-.004.018-.004.017-.004.018-.004.018-.003Zm1.453.044.011-.075c.178.024.35.06.516.104l-.022.073a3.86 3.86 0 0 0-.224-.054l-.051.223a3.598 3.598 0 0 1 .638.2l.094-.213a3.5 3.5 0 0 0-.19-.073l.027-.072c.15.052.293.113.426.182l-.037.069a3.097 3.097 0 0 0-.18-.086l-.097.212c.057.026.113.054.167.082l-.036.07a2.881 2.881 0 0 0-.378-.168 2.98 2.98 0 0 0-.094-.032l-.113.329.084.03c.12.044.233.096.336.154l-.033.062a2.101 2.101 0 0 0-.137-.071l-.139.307-.02-.01-.023-.012.135-.307a2.708 2.708 0 0 0-.535-.172l-.075.317-.032-.007-.014-.003.07-.318a3.36 3.36 0 0 0-.626-.062v.323h-.052v-.323a3.36 3.36 0 0 0-.626.062l.07.318-.014.003-.033.007-.074-.317c-.194.042-.374.1-.535.172l.135.307-.024.012-.02.01-.138-.307a2.127 2.127 0 0 0-.137.071l-.028-.052-.005-.01c.103-.058.215-.11.336-.155l.084-.03-.113-.329a2.98 2.98 0 0 0-.094.032c-.135.05-.261.106-.378.169l-.037-.07c.054-.028.11-.056.168-.082l-.097-.212a3.097 3.097 0 0 0-.18.086l-.037-.07c.133-.068.275-.129.425-.181l.027.072a3.566 3.566 0 0 0-.19.073l.094.214a3.132 3.132 0 0 1 .42-.147c.071-.02.144-.038.219-.054l-.052-.223a3.88 3.88 0 0 0-.223.054l-.005-.016-.017-.057c.165-.045.337-.08.515-.104l.012.075c-.08.01-.157.024-.233.039l.048.223a3.938 3.938 0 0 1 .736-.073v-.227c-.098 0-.195.004-.291.011l-.007-.075c.104-.008.213-.012.317-.012h.015c.104 0 .213.004.318.012l-.007.075a4.385 4.385 0 0 0-.292-.011v.226a4.058 4.058 0 0 1 .51.036c.077.01.152.023.226.038l.049-.223a4.096 4.096 0 0 0-.233-.039Zm-.96.282.038.344a3.544 3.544 0 0 1 .687 0l.04-.344a3.935 3.935 0 0 0-.766 0Zm1.368.473.11-.33a3.571 3.571 0 0 0-.655-.136l-.043.343c.208.024.406.066.588.123Zm-1.973 0-.109-.33c.205-.064.425-.11.655-.136l.043.343a3.153 3.153 0 0 0-.589.123Zm1.085-.162h.022l.011.001h.01l.012.001h.01l.011.001h.011l.011.001h.01l.011.002H34.84l.012.002h.01l.01.001.012.001h.01l.01.002h.011l.011.002h.004l.035-.309h-.006l-.011-.001-.012-.001-.012-.001-.011-.001-.012-.001h-.012l-.012-.002h-.012l-.012-.001-.011-.001h-.012l-.012-.001-.012-.001h-.012l-.012-.001h-.012l-.012-.001h-.012l-.012-.001h-.023l-.012-.001H34.662l-.012-.001h-.145l-.012.001h-.024l-.012.001h-.012l-.012.001h-.012l-.012.001-.011.001h-.012l-.012.001-.012.001h-.012l-.012.002h-.012l-.011.001-.012.001h-.012l-.012.002h-.011l-.012.002h-.012l-.005.001.035.309h.004l.01-.001.01-.001.011-.001.011-.001h.01l.011-.002h.011l.01-.001h.011l.011-.002h.022l.01-.001h.011l.011-.001h.01l.012-.001h.01l.011-.001h.022l.011-.001H34.557l.012-.001H34.689l.011.001Zm.777-.637-.018-.004-.018-.003-.018-.004-.017-.003-.018-.004-.018-.003-.018-.003-.018-.003-.018-.003-.019-.003-.018-.003-.018-.003-.018-.002-.019-.003-.018-.003-.018-.002.061-.415h.003l.01.001.01.002.009.001.01.001.01.002.009.001.01.001.01.002.009.001.01.002.009.001.01.002-.026.15.12.02.032-.149.005.001.008.002.009.001.008.002.008.001.009.002.008.002.008.001.008.002.009.001.008.002.008.002.008.002h.005l-.036.148.12.027.039-.147h.002l.01.002.01.003.009.002.01.002.009.003.01.002.009.002.01.003.009.002.01.003.009.002.01.003-.122.406-.018-.005-.017-.004-.017-.005-.017-.004-.017-.005-.018-.004-.017-.004-.018-.004-.017-.004-.018-.004-.017-.004-.018-.004-.017-.004-.018-.003Zm-.947-.088h.164l.011.001h.033l.01.001h.011l.011.001h.01l.012.001h.01l.011.001h.011l.01.001h.012l.01.001.011.001h.01l.012.001.01.001h.011l.01.002h.015l.04-.417h-.011l-.006-.001h-.012l-.006-.001h-.012l-.006-.001h-.006l-.007-.001h-.012l-.006-.001H34.872l-.006-.001h-.012l-.006-.001H34.83l-.006-.001h-.006l-.007.151h-.025l-.007-.001H34.766l-.007-.001h-.02l-.006-.001h-.039l-.025-.001.003-.152h-.141l.003.152H34.478l-.007.001h-.02l-.006.001h-.021l-.007.001-.024.001-.007-.151h-.03l-.006.001H34.337l-.006.001h-.012l-.006.001H34.3l-.006.001h-.012l-.006.001h-.012l-.007.001h-.005l-.007.001h-.011l-.005.001.04.418h.003l.011-.001.01-.001h.011l.01-.002h.011l.011-.001h.011l.01-.001h.011l.011-.002H34.4l.012-.001H34.433l.011-.001h.01l.012-.001h.031l.012-.001H34.53Zm-.126-.393.018.093.002.019h-.014l-.005-.112Zm.395 0-.018.093-.001.019h.014l.005-.112Zm1.09 1.375.011.005.011.005.011.006.011.005.011.005.011.005.011.006.01.005.011.006.011.005.01.006.011.005.01.006.011.005.01.006.01.006.005.002.149-.281-.008-.004-.011-.006-.012-.006-.011-.006-.012-.006-.012-.006-.012-.006-.011-.006-.012-.006-.012-.005-.012-.006-.012-.006-.012-.005-.012-.006-.012-.005-.013-.006-.012-.005-.012-.006-.013-.005-.012-.005-.013-.006-.012-.005-.013-.005-.013-.005-.012-.005-.013-.005-.013-.005-.013-.005-.013-.005-.013-.005-.011-.004h-.002l-.002-.002h-.004l-.002-.002h-.002l-.002-.001h-.002l-.002-.001-.005-.002-.005-.002-.005-.002-.005-.001-.01-.004-.004-.001-.005-.002-.005-.002-.005-.001-.005-.002-.004-.002h-.003l-.102.296.005.001.005.002.005.002.01.003.006.002.006.002.01.004.005.002.005.002.006.002h.002l.015.006.012.005.012.004.011.005.012.004.012.005.011.005.012.005.011.005.012.004.011.005.012.005.01.005.012.005Zm-.312-.117.098-.297h-.002l-.02-.006-.019-.006-.019-.005-.02-.006-.019-.005-.02-.005-.02-.006-.02-.005-.019-.005-.02-.005-.02-.004-.02-.005-.02-.004-.02-.005-.02-.004-.021-.004-.02-.004-.021-.004-.021-.004-.02-.004-.022-.003-.02-.004-.021-.004-.021-.003-.021-.003-.022-.003-.02-.003-.022-.003-.021-.003-.022-.002h-.004l-.038.307h.002l.019.003.02.003.019.002.02.003.018.003.02.003.019.003.019.003.019.003.019.003.019.004.019.003.018.004.019.004.018.004.019.004.018.003.019.005.018.004.018.004.018.005.018.004.018.005.018.004.018.005.018.005.017.005.018.005.017.005.017.006Zm-.931.27H34.701l.018.001.018.001.018.001h.018l.018.002.018.001.017.001.018.002.018.001.017.002.018.001.017.002.017.002.018.002.017.002.017.002.017.002.017.003.017.002.017.003.017.002.017.003.016.003.017.003.017.003.016.003.015.003.066-.3-.02-.004-.018-.004-.018-.003-.02-.003-.018-.003-.019-.003-.019-.003-.019-.003-.019-.002-.019-.003-.019-.002-.02-.003-.018-.002-.02-.002-.02-.002-.019-.002-.02-.002-.019-.001-.02-.002-.02-.001-.02-.002h-.02l-.019-.002-.02-.001h-.02l-.02-.002h-.04l-.02-.001h-.023v.304Zm1.17.289.009.005.008.004.008.005.008.005.008.005.007.005.152-.288-.004-.002-.009-.005-.01-.005-.008-.005-.01-.005-.01-.005-.009-.005-.01-.005-.009-.005-.01-.005-.009-.005-.01-.005-.01-.005-.003-.001-.131.291.002.002.009.005.008.004.009.005.008.005.009.005.008.005Zm-.076-.39-.015-.006-.016-.007-.016-.005-.016-.007-.016-.005-.016-.006-.017-.006-.016-.005-.016-.006-.017-.005-.017-.006-.017-.005-.016-.005-.017-.005-.017-.005-.017-.005-.018-.005-.017-.004-.017-.005-.018-.004-.018-.005-.017-.004-.018-.004-.018-.005-.018-.004-.071.3.015.004.016.004.016.004.016.004.016.004.016.004.016.004.016.005.015.004.016.005.015.005.016.005.015.005.015.005.015.005.015.005.014.005.015.005.015.006.014.005.014.006.014.005.014.006.014.006.014.006.014.006.013.006.014.006.013.006.01.005.127-.29-.014-.007-.015-.006-.015-.007-.016-.006-.016-.006Zm-.578-.904.012-.076h-.002l-.063.058-.003.017-.006.052.062-.051Zm-.064.068-.018.134.051.006.029-.19-.062.05Zm-.257-.08h-.01l-.01-.001h-.009l-.01-.001h-.019l-.01-.001h-.019l-.01-.001h-.019l-.01-.001h-.039l-.01-.001h-.02v.19h.01l.009.001h.037l.009.001H34.739l.008.001h.019l.009.001h.009l.009.001h.018l.009.001h.009l.01.001h.008l.01.001.008.001h.01l.008.001h.01l.008.001.017-.19h-.01l-.01-.002h-.019l-.01-.001h-.009l-.01-.002h-.01Zm.867-.41-.116.096-.004.014.019.004.068.015.033-.128Zm-.233-.045-.078.083-.007.034.059.01.026-.127Zm-.37.433.057-.053.008-.007.06-.405-.081.12-.044.345Zm1.144-.228-.01-.003-.01-.004-.01-.004-.01-.003-.01-.004-.01-.004-.01-.003-.011-.004-.01-.003-.01-.004-.01-.003-.011-.004-.004-.001-.146.4.015.006.016.006.016.006.016.006.016.005.016.006.015.006.016.006.016.007.015.006.016.006.015.006.016.007.015.006.015.007.015.006.015.007.015.007.016.006.014.007.015.007.015.007.015.007.014.007.015.007.015.007.014.007.014.008.015.007.014.007.25-.361-.008-.005-.009-.004-.009-.005-.009-.004-.008-.004-.01-.005-.008-.004-.01-.005-.008-.004-.01-.004-.008-.005-.01-.004-.001-.001-.07.14-.111-.051.066-.141-.006-.003-.008-.003-.007-.003-.008-.003-.007-.004-.008-.003-.007-.003-.008-.003-.008-.003-.007-.003-.008-.004-.007-.002-.063.141-.113-.044.058-.144h-.003Zm-.013.089.118-.049-.056.126-.08-.031.018-.046Zm.204.078.118-.039-.062.126-.08-.037.024-.05Zm-.477.202-.151.043-.004.01-.019.058.146-.035v-.002l.028-.074Zm-.18.128-.035.108.113.038.067-.18-.145.034Zm.137-.448.186-.099-.025.068-.122.335-.008.003-.146.042.016-.048.099-.3Zm.114.449-.007-.002-.006-.003-.007-.002-.006-.003-.013-.005-.013-.004-.006-.003-.007-.002-.007-.003-.006-.002-.01-.003-.068.183h.001l.007.003.006.002.006.002.012.005.013.005.012.004.006.003.006.002.006.002.006.003.012.005.013.004.006.003.006.002.006.003.006.002.006.003.006.002.006.003.006.002.006.003h.001l.08-.18-.009-.004-.006-.002-.006-.003-.007-.002-.006-.003-.006-.002-.007-.003-.013-.005-.006-.002-.006-.003-.013-.005Zm.258.112-.006-.003-.006-.003-.012-.006-.007-.003-.006-.003-.006-.003-.006-.003-.006-.002-.006-.003-.007-.003-.006-.003-.006-.003-.006-.003-.01-.004-.081.18.007.004.012.005.011.006.012.005.012.006.011.006.012.005.011.006.012.006.011.006.012.005.011.006.011.006.007.004.093-.177-.008-.004-.012-.006-.006-.003-.006-.003-.006-.003-.006-.003-.006-.003-.006-.003-.012-.006Zm-1.061-.32-.008-.002h-.008l-.008-.002-.008-.001-.007-.001-.008-.001-.007-.001-.028.19h.005l.007.001.008.001.007.001.008.002h.007l.008.002h.007l.007.002.008.001.007.001.008.002h.007l.007.002.008.001.007.001.008.002h.007l.007.002.008.002h.007l.007.002.008.002h.007l.015.004h.007l.005.002.04-.188-.005-.001-.007-.002-.008-.001-.008-.002h-.007l-.008-.002-.008-.002-.008-.001-.015-.003-.008-.001-.008-.001-.015-.003-.016-.003-.015-.002-.016-.002-.008-.002Zm.287.053-.007-.002-.008-.001-.015-.004-.008-.001-.005-.002-.044.188.004.001.007.002.007.001.008.002.007.002.007.001.007.002.007.002.007.001.008.002.007.002.007.001.007.002.007.002.014.003.007.002.007.002.008.002.007.001.007.002.007.002.007.002.007.002.014.004.01.003.057-.186-.012-.003-.008-.002-.007-.002-.007-.002-.008-.002-.007-.002-.008-.002-.007-.002-.008-.002-.007-.001-.007-.002-.008-.002-.007-.002-.008-.002-.007-.002-.015-.003-.008-.002-.008-.002-.015-.003Zm-2.203.771-.012.005-.01.005-.012.006-.01.005-.012.005-.01.005-.011.006-.011.005-.01.006-.011.005-.011.006-.01.005-.011.006-.01.005-.01.006-.011.006-.004.002-.149-.281.007-.004.012-.006.011-.006.012-.006.012-.006.011-.006.012-.006.012-.006.012-.006.012-.005.012-.006.012-.006.012-.005.012-.006.012-.005.012-.006.013-.005.012-.006.012-.005.013-.005.012-.006.013-.005.013-.005.012-.005.013-.005.013-.005.012-.005.013-.005.013-.005.013-.005.012-.004h.002l.002-.002h.004l.002-.002h.002l.002-.001h.002l.002-.001.005-.002.005-.002.004-.002.005-.001.01-.004.005-.001.005-.002.004-.002.005-.001.005-.002.005-.002h.003l.101.296-.004.001-.005.002-.006.002-.01.003-.006.002-.005.002-.01.004-.006.002-.005.002-.005.002h-.002l-.015.006-.012.005-.012.004-.012.005-.011.004-.012.005-.012.005-.011.005-.012.005-.011.004-.012.005-.011.005-.011.005-.011.005Zm.312-.117-.098-.297h.002l.019-.006.02-.006.019-.005.019-.006.02-.005.02-.005.019-.006.02-.005.02-.005.02-.005.02-.004.02-.005.02-.004.02-.005.02-.004.021-.004.02-.004.021-.004.02-.004.021-.004.021-.003.021-.004.021-.004.021-.003.021-.003.021-.003.022-.003.02-.003.022-.003.022-.002h.003l.039.307h-.002l-.02.003-.019.003-.02.002-.019.003-.019.003-.02.003-.018.003-.02.003-.018.003-.02.003-.018.004-.019.003-.019.004-.018.004-.019.004-.018.004-.019.003-.018.005-.018.004-.019.004-.018.005-.018.004-.018.005-.017.004-.018.005-.018.005-.018.005-.017.005-.017.005-.018.006Zm.93.27H34.503l-.018.001-.018.001-.018.001h-.018l-.018.002-.018.001-.018.001-.017.002-.018.001-.018.002-.017.001-.018.002-.017.002-.017.002-.017.002-.018.002-.017.002-.017.003-.017.002-.017.003-.016.002-.017.003-.017.003-.016.003-.017.003-.016.003-.016.003-.065-.3.019-.004.018-.004.019-.003.019-.003.019-.003.018-.003.02-.003.018-.003.02-.002.018-.003.02-.002.019-.003.02-.002.018-.002.02-.002.02-.002.019-.002.02-.001.02-.002.019-.001.02-.002h.02l.02-.002.02-.001h.02l.02-.002h.04l.02-.001h.023v.304Zm-1.17.289-.008.005-.008.004-.009.005-.008.005-.007.005-.007.005-.152-.288.003-.002.01-.005.009-.005.01-.005.008-.005.01-.005.01-.005.009-.005.01-.005.009-.005.01-.005.01-.005.009-.005.003-.001.132.291-.003.002-.008.005-.009.004-.008.005-.009.005-.008.005-.008.005Zm.076-.39.016-.006.016-.007.016-.005.015-.007.017-.005.016-.006.016-.006.017-.005.016-.006.017-.005.016-.006.017-.005.017-.005.017-.005.017-.005.017-.005.017-.005.018-.004.017-.005.018-.004.017-.005.018-.004.018-.004.018-.005.017-.004h.001l.071.3-.015.004-.017.004-.016.004-.016.004-.016.004-.016.004-.016.004-.015.005-.016.004-.015.005-.016.005-.015.005-.015.005-.015.005-.015.005-.015.005-.015.005-.014.005-.015.006-.014.005-.015.006-.014.005-.014.006-.014.006-.014.006-.013.006-.014.006-.013.006-.014.006-.01.005-.127-.29.014-.007.016-.006.015-.007.016-.006.015-.006Zm.578-.904-.011-.076h.003l.061.058.003.017.007.052-.063-.051Zm.065.068.018.133a4.492 4.492 0 0 0-.052.007l-.028-.19.062.05Zm.257-.08h.01l.009-.001h.01l.01-.001h.019l.01-.001h.019l.01-.001h.019l.01-.001h.038l.01-.001h.02v.19h-.01l-.008.001h-.037l-.01.001H34.467l-.01.001h-.018l-.009.001h-.01l-.008.001H34.393l-.01.001h-.008l-.01.001h-.009l-.009.001-.008.001h-.01l-.008.001h-.01l-.008.001-.018-.19h.01l.01-.002h.02l.009-.001h.01l.01-.002h.009Zm-.867-.41.116.096.003.014-.018.004-.068.015-.034-.128Zm.232-.045.079.083.006.034-.058.01-.027-.127Zm.371.433-.057-.053-.008-.007-.06-.405.08.12.045.345Zm-1.145-.228.01-.003.01-.004.01-.004.01-.003.011-.004.01-.004.01-.003.01-.004.01-.003.011-.004.01-.003.01-.004.005-.001.145.4-.014.006-.017.006-.016.006-.015.006-.016.005-.016.006-.016.006-.015.006-.016.007-.016.006-.015.006-.016.006-.015.007-.015.006-.016.007-.015.006-.015.007-.015.007-.015.006-.015.007-.015.007-.014.007-.015.007-.015.007-.014.007-.015.007-.014.007-.015.008-.014.007-.014.007-.25-.361.008-.005.009-.004.008-.005.01-.004.008-.004.009-.005.009-.004.009-.005.009-.004.009-.004.009-.005.009-.004.002-.001.07.14.111-.051-.066-.141.006-.003.007-.003.008-.003.007-.003.008-.004.007-.003.008-.003.008-.003.007-.003.008-.003.007-.004.007-.002.064.141.112-.044-.058-.144h.003Zm.013.089-.117-.049.056.126.08-.031-.019-.046Zm-.203.078-.118-.039.061.126.08-.037-.023-.05Zm.477.202.15.043.004.01.02.058-.146-.035v-.002l-.028-.074Zm.18.128.034.108a2.793 2.793 0 0 0-.112.038l-.067-.18.144.034Zm-.137-.448-.186-.099.025.068.121.335.008.003.146.042-.016-.048-.098-.3Zm-.114.449.006-.002.007-.003.006-.002.007-.003.013-.005.012-.004.007-.003.007-.002.006-.003.007-.002.01-.003.068.183h-.002l-.006.003-.006.002-.006.002-.013.005-.012.005-.012.004-.006.003-.006.002-.007.002-.006.003-.012.005-.012.004-.006.003-.006.002-.006.003-.006.002-.006.003-.006.002-.006.003-.006.002-.006.003h-.002l-.08-.18.01-.004.006-.002.006-.003.006-.002.007-.003.006-.002.006-.003.013-.005.007-.002.006-.003.013-.005Zm-.258.112.006-.003.006-.003.012-.006.006-.003.006-.003.007-.003.006-.003.006-.002.006-.003.006-.003.006-.003.007-.003.006-.003.009-.004.082.18-.007.004-.012.005-.012.006-.012.005-.011.006-.012.006-.011.005-.012.006-.011.006-.012.006-.011.005-.011.006-.012.006-.006.004-.093-.177.007-.004.012-.006.006-.003.006-.003.006-.003.006-.003.006-.003.007-.003.012-.006Zm1.06-.32.008-.002h.008l.008-.002.008-.001.008-.001.008-.001.006-.001.029.19h-.005l-.008.001-.007.001-.007.001-.008.002h-.007l-.008.002h-.007l-.008.002-.007.001-.008.001-.007.002h-.007l-.008.002-.007.001-.008.001-.007.002h-.007l-.008.002-.007.002h-.007l-.008.002-.007.002h-.007l-.015.004h-.007l-.005.002-.041-.188.005-.001.008-.002.008-.001.007-.002h.008l.008-.002.007-.002.008-.001.016-.003.008-.001.007-.001.016-.003.015-.003.016-.002.016-.002.008-.002Zm-.287.053.008-.002.007-.001.015-.004.008-.001.006-.002.044.188-.004.001-.008.002-.007.001-.007.002-.007.002-.007.001-.008.002-.007.002-.007.001-.007.002-.007.002-.007.001-.007.002-.008.002-.014.003-.007.002-.007.002-.007.002-.007.001-.007.002-.007.002-.007.002-.007.002-.014.004-.011.003-.056-.186.012-.003.007-.002.008-.002.007-.002.007-.002.008-.002.007-.002.008-.002.007-.002.008-.001.007-.002.008-.002.007-.002.007-.002.008-.002.015-.003.008-.002.007-.002.015-.003Z" fill="#F0CE7D"/><path fill-rule="evenodd" clip-rule="evenodd" d="m36.538 18.977-.016.027-.017.025-.019.025-.019.022-.02.022-.023.02-.023.019-.025.018-.025.016-.027.015-.028.014-.03.012-.03.012-.032.01-.033.008-.034.008-.036.006-.036.004-.038.004-.039.002H34.86l-.012.002-.013.002-.012.003-.012.004-.012.005-.011.005-.012.007-.01.006-.012.008-.01.007-.01.009-.01.009-.01.01-.01.01-.008.01-.009.01-.008.011-.009.012-.007.011-.008.012-.007.013-.007.012-.006.013-.006.013-.006.013-.006.014-.004.011-.004-.011-.006-.014-.006-.013-.006-.013-.006-.013-.007-.012-.007-.012-.008-.013-.008-.011-.008-.012-.008-.01-.009-.012-.009-.01-.01-.01-.009-.01-.01-.008-.01-.009-.01-.008-.011-.007-.011-.006-.012-.007-.011-.005-.012-.005-.012-.004-.012-.003-.013-.002-.013-.001h-1.087l-.04-.001-.04-.002-.037-.004-.037-.004-.035-.006-.034-.008-.033-.008-.032-.01-.03-.012-.03-.012-.028-.014-.027-.015-.026-.016-.024-.018-.023-.019-.022-.02-.021-.022-.02-.022-.018-.024-.017-.026-.016-.027-.014-.027-.013-.03-.012-.03-.01-.032-.01-.033-.008-.035-.006-.036-.005-.037-.004-.038-.002-.04V14.6h4.018v4.038l-.003.04-.003.04-.005.036-.007.036-.008.035-.009.033-.01.032-.012.03-.013.03-.014.027Z" fill="#F5161C"/><path fill-rule="evenodd" clip-rule="evenodd" d="M36.64 14.581v4.016c0 .452-.253.686-.691.686h-1.075c-.125 0-.226.145-.26.285-.035-.14-.137-.285-.261-.285h-1.075c-.439 0-.692-.234-.692-.686v-4.016h4.054Zm-.102 4.396-.016.026-.017.026-.018.024-.02.023-.02.021-.023.02-.023.02-.024.017-.026.016-.027.015-.028.014-.03.013-.03.011-.032.01-.033.009-.034.007-.035.006-.037.005-.038.003-.038.002h-1.116l-.012.001-.013.002-.012.002-.013.003-.012.004-.012.004-.011.006-.012.006-.01.006-.011.008-.01.008-.011.008-.01.009-.01.01-.009.01-.009.01-.009.01-.008.012-.008.011-.008.012-.008.012-.007.012-.007.013-.006.012-.006.014-.006.013-.006.013-.004.011-.004-.011-.006-.013-.005-.014-.007-.013-.006-.012-.007-.013-.007-.012-.008-.012-.008-.012-.008-.011-.008-.012-.009-.01-.009-.01-.01-.01-.009-.01-.01-.009-.01-.008-.01-.008-.011-.008-.011-.006-.011-.006-.012-.006-.012-.004-.012-.004-.012-.003-.013-.003h-.012l-.013-.001h-1.075l-.04-.001-.04-.002-.037-.003-.036-.005-.036-.006-.034-.007-.033-.01-.032-.009-.03-.011-.03-.013-.028-.014-.027-.015-.025-.016-.025-.018-.023-.019-.022-.02-.02-.021-.02-.023-.019-.024-.017-.026-.015-.026-.015-.028-.013-.03-.012-.03-.01-.032-.01-.033-.007-.035-.007-.035-.005-.038-.003-.038-.002-.04-.001-.041v-3.998h4.019v3.998l-.001.041-.002.04-.004.038-.005.038-.006.035-.008.035-.01.033-.01.032-.012.03-.013.03-.014.028Z" fill="#1F1A17"/><path fill-rule="evenodd" clip-rule="evenodd" d="M39.224 19.234c-.39.352-.652.414-1.573.266-.204-.005-.585-.062-.664.165a.305.305 0 0 0-.001.144.452.452 0 0 1 .135-.076c.082-.029.17.03.257.032.086.002.172-.032.259-.023.09.01.169.067.258.078.084.01.169-.025.253-.019.087.007.17.058.257.056.083-.002.159-.05.24-.067.071-.014.15.006.215-.023.063-.027.102-.094.156-.137.047-.039.1-.09.15-.115l.023-.09c.03-.129.005-.06.035-.19Z" fill="#004696"/><path fill-rule="evenodd" clip-rule="evenodd" d="M37.33 20.21h.061l.053.001.056.003.057.003.059.005.06.004.062.005.063.006.064.005.065.005.065.005.066.005.066.004.066.003.067.003h.066l.066.001.066-.001.065-.003.064-.005.063-.006.062-.009.06-.01.06-.014.057-.015.055-.018.054-.021.052-.024.05-.027.046-.03.044-.034.032-.029-.003-.002-.007-.006-.006-.007-.007-.006-.006-.006-.006-.007-.006-.006-.006-.007-.005-.006-.006-.007-.005-.007-.005-.007-.005-.007-.005-.007-.004-.007-.004-.007-.004-.007-.004-.007-.004-.008-.003-.007-.003-.007-.003-.008-.002-.007-.003-.007-.002-.008-.002-.007-.001-.008-.001-.007v-.007l-.006.005c-.038.031-.13.096-.171.154-.05.069-.215.054-.285.062-.083.01-.15.056-.234.061-.087.005-.171-.05-.259-.053-.084-.004-.167.037-.251.029-.09-.009-.172-.07-.261-.078-.087-.008-.172.034-.258.035-.085.001-.174-.06-.253-.03l-.009.003c.062.063.138.125.212.197Z" fill="#F5161C"/><path fill-rule="evenodd" clip-rule="evenodd" d="m36.996 19.842.002.005v.002c.024.06.067.112.12.165a.061.061 0 0 0 .003-.001c.08-.035.171.029.258.027.086 0 .171-.042.258-.035.09.008.171.07.26.079.085.008.168-.034.253-.03.087.004.17.059.258.054.083-.005.151-.052.234-.061.07-.008.236.006.285-.062.052-.072.18-.154.187-.17a.623.623 0 0 1 .03-.247c-.042.027-.087.07-.128.103-.054.043-.092.11-.156.138-.066.028-.144.008-.214.022-.082.016-.158.065-.241.067-.088.002-.17-.05-.257-.055-.084-.007-.169.027-.252.018-.09-.01-.17-.069-.26-.078-.085-.009-.172.025-.258.023-.086-.001-.175-.06-.257-.033a.445.445 0 0 0-.125.069Z" fill="#fff"/><path fill-rule="evenodd" clip-rule="evenodd" d="m37.325 20.21.005.006.008.006h.002c.533-.004 1.465.225 1.9-.2-.07-.057-.12-.133-.125-.204v-.004a.061.061 0 0 1-.011.012v.006l.002.008.001.007.002.007.002.008.002.007.003.008.002.007.004.007.003.008.004.007.003.007.004.007.005.007.004.007.005.008.005.006.005.007.005.007.005.007.006.006.006.007.005.007.007.006.006.006.006.007.007.006.006.006.004.002-.032.029-.044.034-.047.03-.05.027-.051.024-.054.02-.056.02-.057.015-.06.013-.06.01-.062.009-.063.006-.064.005-.065.003-.065.001h-.066l-.066-.001-.067-.003-.066-.003-.066-.004-.066-.005-.066-.005-.065-.005-.063-.005-.063-.006-.062-.005-.06-.004-.06-.005-.057-.003-.055-.003-.053-.001h-.067Z" fill="#1F1A17"/><path fill-rule="evenodd" clip-rule="evenodd" d="M37.34 20.918a.204.204 0 0 0-.026-.074c-.034-.055-.105-.076-.148-.125-.048-.055-.073-.129-.121-.184-.043-.049-.113-.071-.15-.124-.037-.05-.037-.12-.065-.175a.325.325 0 0 0-.009-.017l.052-.199c.01.015.02.03.028.045.03.055.032.124.07.173.039.052.109.073.153.12.05.054.077.127.127.181.043.047.115.067.15.12.028.043.031.096.04.147a.498.498 0 0 1-.101.112Z" fill="#fff"/><path fill-rule="evenodd" clip-rule="evenodd" d="M36.988 19.654c-.065.251.153.371.357.573.144.107.217.24.154.473a.75.75 0 0 1-.03.063l-.004.004c-.007-.047-.012-.095-.037-.133-.036-.054-.107-.073-.151-.12-.05-.055-.077-.127-.127-.181-.044-.048-.114-.068-.154-.12-.037-.05-.04-.119-.069-.174a.448.448 0 0 0-.04-.06l.015-.052.086-.273Z" fill="#004696"/><path fill-rule="evenodd" clip-rule="evenodd" d="m37.2 20.996-.002-.001-.003-.003-.002-.002-.002-.002-.008-.008-.008-.007-.008-.008-.008-.008-.008-.008-.008-.008-.007-.008-.008-.008-.008-.008-.008-.008-.008-.008-.008-.008-.008-.008-.04-.041-.007-.009-.008-.008-.008-.008-.008-.008-.008-.008-.008-.008-.008-.009-.008-.008-.008-.007-.008-.008-.008-.008-.007-.008-.008-.008-.007-.006-.015-.02-.014-.02-.013-.02-.012-.018-.012-.018-.01-.018-.01-.018-.008-.017-.007-.017-.007-.016-.006-.016-.005-.016-.004-.015-.004-.015-.003-.015-.002-.015-.002-.015-.002-.014v-.043l.001-.015.001-.014.002-.014.002-.015.003-.014.003-.015.003-.015.003-.015.004-.015.004-.015.001-.004v.001c.028.056.028.125.065.175.037.053.107.076.15.124.048.055.073.13.122.185.042.048.113.07.147.124a.203.203 0 0 1 .026.074l.002-.002a.468.468 0 0 1-.143.08Zm.15-.085.005-.004-.005.004Zm.012-.011.003-.003-.003.003Z" fill="#F5161C"/><path fill-rule="evenodd" clip-rule="evenodd" d="M37.441 20.806c-.009-.05-.012-.104-.04-.146-.035-.053-.107-.073-.15-.12-.05-.054-.077-.127-.127-.18-.044-.049-.114-.069-.154-.12-.037-.05-.04-.12-.069-.174a.422.422 0 0 0-.028-.045l.013-.043c.015.02.03.041.04.062.03.055.032.124.07.173.04.052.11.072.154.12.05.054.077.127.126.18.044.048.115.068.151.121.026.039.03.087.038.134a.627.627 0 0 1-.024.038Z" fill="#C2C1C1"/><path fill-rule="evenodd" clip-rule="evenodd" d="m37.377 20.886-.005.005.005-.005Zm-.19.114-.005-.004c-.083-.08-.169-.176-.252-.256-.17-.223-.154-.35-.108-.52l.008.016v.003l-.005.016-.004.015-.003.015-.003.015-.003.014-.003.015-.002.014-.002.015v.014l-.002.014v.043l.002.015.002.015.002.014.003.015.004.015.004.016.005.016.006.016.007.016.008.017.008.017.01.017.01.018.01.018.013.02.013.019.014.02.015.02.007.006.008.008.008.007.008.008.008.008.007.008.008.008.008.008.008.008.008.008.008.009.008.008.008.008.008.008.04.041.007.009.008.008.008.008.008.008.008.008.008.008.008.008.008.008.007.008.008.008.008.007.008.008.008.007.002.002.002.003.003.003h.001a.93.93 0 0 1-.012.005Zm.178-.103Zm.002-.001Zm.004-.005Z" fill="#1F1A17"/><path fill-rule="evenodd" clip-rule="evenodd" d="M30.003 19.234c.39.352.651.414 1.572.266.205-.005.586-.062.665.165.012.053.012.1.001.144a.45.45 0 0 0-.135-.076c-.082-.029-.17.03-.257.032-.086.002-.172-.032-.259-.023-.09.01-.17.067-.259.078-.083.01-.168-.025-.252-.019-.087.007-.17.058-.257.056-.083-.002-.159-.05-.24-.067-.071-.014-.15.006-.215-.023-.064-.027-.102-.094-.156-.137-.048-.039-.1-.09-.15-.115l-.023-.09c-.03-.129-.005-.06-.035-.19Z" fill="#004696"/><path fill-rule="evenodd" clip-rule="evenodd" d="M31.897 20.21h-.062l-.053.001-.056.003-.057.003-.059.005-.06.004-.062.005-.063.006-.064.005-.065.005-.065.005-.066.005-.066.004-.067.003-.066.003H30.9l-.066.001-.066-.001-.065-.003-.064-.005-.063-.006-.062-.009-.06-.01-.06-.014-.057-.015-.055-.018-.054-.021-.052-.024-.05-.027-.046-.03-.044-.034-.032-.029.003-.002.007-.006.006-.007.007-.006.006-.006.006-.007.006-.006.006-.007.005-.006.006-.007.005-.007.005-.007.005-.007.005-.007.004-.007.004-.007.004-.007.004-.007.004-.008.003-.007.003-.007.003-.008.002-.007.003-.007.002-.008.002-.007.001-.008.001-.007v-.007l.006.005c.038.031.13.096.171.154.05.069.215.054.285.062.083.01.15.056.234.061.087.005.171-.05.259-.053.084-.004.167.037.251.029.09-.009.172-.07.261-.078.087-.008.172.034.259.035.084.001.173-.06.252-.03l.009.003c-.062.063-.138.125-.212.197Z" fill="#F5161C"/><path fill-rule="evenodd" clip-rule="evenodd" d="m32.23 19.843-.002.005-.001.002a.513.513 0 0 1-.119.165l-.004-.001c-.08-.035-.17.029-.257.027-.087 0-.172-.042-.258-.035-.09.008-.172.07-.261.078-.084.009-.168-.033-.252-.029-.088.004-.171.059-.259.054-.083-.005-.15-.052-.233-.061-.07-.008-.236.006-.285-.062-.052-.072-.18-.154-.188-.17a.623.623 0 0 0-.03-.247c.043.027.088.07.129.103.054.043.092.11.155.137.066.03.144.01.215.023.082.016.157.065.24.067.088.002.17-.05.258-.056.084-.006.168.028.252.019.09-.01.17-.069.259-.078.086-.01.172.025.259.023.086-.001.175-.06.256-.032a.443.443 0 0 1 .125.068Z" fill="#fff"/><path fill-rule="evenodd" clip-rule="evenodd" d="M30.061 19.516c.05.025.102.076.15.114.053.043.091.11.155.137.066.029.144.01.214.023.082.016.158.065.241.067.088.002.17-.05.257-.056.084-.006.169.028.252.019.09-.01.17-.069.26-.078.085-.01.172.025.258.023.086-.002.175-.06.257-.033a.45.45 0 0 1 .135.077.283.283 0 0 1-.01.033.443.443 0 0 0-.125-.069c-.082-.028-.17.031-.257.033-.086.001-.173-.033-.259-.024-.09.01-.17.068-.259.078-.083.01-.168-.024-.252-.018-.087.006-.17.057-.257.055-.083-.001-.159-.05-.24-.066-.071-.014-.15.006-.215-.023-.064-.027-.102-.094-.156-.137-.041-.034-.086-.076-.13-.104l-.018-.051Z" fill="#fff"/><path fill-rule="evenodd" clip-rule="evenodd" d="M31.901 20.21a.262.262 0 0 0-.005.006l-.008.006h-.002c-.533-.004-1.464.225-1.9-.2.07-.057.12-.133.125-.204v-.004a.058.058 0 0 0 .011.012v.006l-.001.008-.002.007-.002.007-.002.008-.002.007-.003.008-.002.007-.003.007-.004.008-.003.007-.004.007-.004.007-.004.007-.005.007-.005.008-.004.006-.005.007-.006.007-.005.007-.006.006-.005.007-.006.007-.007.006-.006.006-.006.007-.007.006-.006.006-.004.002.032.029.045.034.047.03.049.027.051.024.054.02.056.02.057.015.06.013.06.01.062.009.063.006.064.005.065.003.065.001h.066l.067-.001.066-.003.067-.003.066-.004.066-.005.065-.005.065-.005.064-.005.062-.006.062-.005.06-.004.06-.005.057-.003.055-.003.054-.001h.066Z" fill="#1F1A17"/><path fill-rule="evenodd" clip-rule="evenodd" d="M31.884 20.918a.204.204 0 0 1 .026-.074c.034-.055.105-.076.147-.125.048-.055.073-.129.122-.184.043-.049.112-.071.15-.124.036-.05.037-.12.065-.175a.325.325 0 0 1 .008-.017l-.051-.199a.412.412 0 0 0-.029.045c-.029.055-.031.124-.069.173-.039.052-.109.073-.153.12-.05.054-.077.127-.127.181-.044.047-.115.067-.15.12-.029.043-.032.096-.04.147.027.042.06.08.101.112Z" fill="#fff"/><path fill-rule="evenodd" clip-rule="evenodd" d="M32.236 19.654c.066.251-.152.371-.356.573-.144.107-.217.24-.154.473l.03.063.004.004c.007-.047.012-.095.037-.133.036-.054.107-.073.151-.12.05-.055.077-.127.127-.181.044-.048.114-.068.153-.12.038-.05.04-.119.07-.174a.448.448 0 0 1 .04-.06l-.015-.052-.087-.273Z" fill="#004696"/><path fill-rule="evenodd" clip-rule="evenodd" d="m32.025 20.996.002-.001.002-.003.003-.002.002-.002.008-.008.008-.007.007-.008.008-.008.008-.008.008-.008.008-.008.008-.008.008-.008.008-.008.007-.008.008-.008.008-.008.04-.041.008-.009.008-.008.008-.008.008-.008.008-.008.007-.008.008-.009.008-.008.008-.007.008-.008.008-.008.008-.008.008-.008.007-.006.015-.02.014-.02.013-.02.012-.018.011-.018.01-.018.01-.018.008-.017.008-.017.006-.016.006-.016.005-.016.005-.015.004-.015.003-.015.002-.015.002-.015.001-.014V20.372l-.002-.014-.002-.014-.002-.015-.002-.014-.003-.015-.003-.015-.004-.015-.003-.015-.005-.015v-.004.001c-.029.056-.029.125-.065.175-.038.053-.107.076-.15.124-.049.055-.074.13-.122.185-.042.048-.113.07-.148.124a.203.203 0 0 0-.025.074l-.003-.002c.04.033.088.06.143.08Zm-.15-.085-.005-.004.004.004Zm-.013-.011-.003-.003.003.003Z" fill="#F5161C"/><path fill-rule="evenodd" clip-rule="evenodd" d="M31.783 20.806c.01-.05.012-.104.04-.146.036-.053.107-.073.151-.12.05-.054.077-.127.127-.18.044-.049.114-.069.154-.12.037-.05.04-.12.069-.174a.42.42 0 0 1 .028-.045 3.803 3.803 0 0 0-.013-.043.443.443 0 0 0-.041.062c-.03.055-.032.124-.07.173-.039.052-.108.072-.153.12-.05.054-.077.127-.127.18-.043.048-.115.068-.15.121-.026.039-.03.087-.038.134a.625.625 0 0 0 .023.038Z" fill="#fff"/><path fill-rule="evenodd" clip-rule="evenodd" d="m31.847 20.886.005.005-.005-.005Zm.19.114.005-.004c.083-.08.169-.176.252-.256.17-.223.154-.35.108-.52a.326.326 0 0 0-.008.016v.003l.005.016.004.015.003.015.003.015.003.014.002.015.003.014.001.015.002.014v.014l.001.015v.028l-.002.015-.002.015-.002.014-.003.015-.004.015-.004.016-.006.016-.005.016-.007.016-.008.017-.008.017-.01.017-.01.018-.01.018-.013.02-.013.019-.014.02-.015.02-.007.006-.008.008-.008.007-.008.008-.008.008-.008.008-.007.008-.008.008-.008.008-.008.008-.008.009-.008.008-.008.008-.008.008-.04.041-.008.009-.007.008-.008.008-.008.008-.008.008-.008.008-.008.008-.008.008-.008.008-.007.008-.008.007-.008.008-.008.007-.002.002-.002.003-.003.003h-.001l.012.005Zm-.179-.103v-.001Zm0-.001Zm-.005-.005Z" fill="#1F1A17"/><path fill-rule="evenodd" clip-rule="evenodd" d="M31.719 20.69c.123.296.409.512 1.246.151a4.342 4.342 0 0 1 1.645-.367c.531.012 1.07.12 1.645.367.837.361 1.123.145 1.246-.151a7.705 7.705 0 0 1-.05.293l-.016.067a.553.553 0 0 0-.09.092l-.002.003-.003.002-.002.003-.002.003-.002.003-.002.003-.003.003-.002.002-.002.003-.002.003-.002.002-.002.003-.002.003-.002.003-.002.002-.003.003-.002.003-.002.002-.002.003-.002.003-.002.002-.002.003-.002.002-.002.003-.002.002-.003.003-.002.002-.002.003-.002.002-.002.003-.002.002-.002.003-.002.002-.003.002-.002.002-.002.003-.002.002-.003.002-.002.002-.003.003-.002.002-.002.002-.003.002-.002.002-.002.002-.003.002-.002.002-.003.002-.002.002-.003.002-.003.002-.003.001-.002.002-.003.002a.068.068 0 0 1-.006.003l-.002.002-.004.002-.002.001-.004.002-.003.001-.003.002a.04.04 0 0 0-.003.001l-.003.002c-.067.028-.19.019-.266.015-.082-.004-.172.026-.26.005-.084-.02-.162-.084-.257-.115-.08-.027-.163-.022-.249-.055-.085-.033-.174-.107-.266-.14-.082-.031-.168-.022-.257-.05-.082-.027-.168-.09-.257-.113-.082-.02-.167 0-.254-.015-.083-.014-.169-.064-.257-.071h-.008l-.004-.001h-.016c-.075 0-.152.023-.232.028-.08-.005-.157-.029-.232-.029h-.016l-.004.001h-.008c-.088.008-.174.058-.257.072-.087.015-.172-.005-.254.015-.089.022-.174.086-.257.112-.089.029-.174.02-.257.05-.092.035-.18.108-.266.141-.086.033-.169.027-.25.055-.093.031-.172.094-.256.115-.087.021-.177-.009-.26-.005-.075.004-.199.013-.266-.015a.049.049 0 0 0-.003-.002.04.04 0 0 0-.003-.001l-.003-.002-.003-.001-.003-.002-.003-.001-.003-.002-.003-.002-.003-.001a.068.068 0 0 1-.006-.004l-.002-.002-.003-.001-.003-.002-.002-.002-.003-.002-.003-.002-.002-.002-.002-.002-.003-.002-.002-.002-.003-.002-.002-.002-.002-.002-.003-.003-.002-.002-.003-.002s0-.002-.002-.002l-.002-.003-.002-.002-.002-.002-.003-.002c0-.001 0-.002-.002-.003l-.002-.002-.002-.003-.002-.002-.002-.003-.002-.002-.002-.003-.002-.002-.003-.003-.002-.002a.06.06 0 0 0-.002-.003l-.002-.002-.002-.003-.002-.003-.002-.002-.002-.003-.002-.003-.002-.002-.002-.003-.003-.003-.002-.003-.002-.002-.002-.003-.002-.003-.002-.003-.002-.002a.068.068 0 0 0-.003-.003l-.002-.003-.002-.003-.002-.003-.003-.002a.553.553 0 0 0-.093-.095l-.015-.067a7.702 7.702 0 0 1-.05-.293Z" fill="#004696"/><path fill-rule="evenodd" clip-rule="evenodd" d="M34.611 21.027c-.09-.005-.176-.034-.26-.026-.088.007-.174.057-.257.071-.087.015-.172-.005-.254.015-.089.022-.174.086-.257.112-.089.029-.175.02-.257.05-.092.035-.18.108-.266.14-.086.034-.169.028-.25.056-.093.031-.172.094-.256.115-.087.021-.184-.008-.261-.016-.074-.007-.188.006-.265-.047-.062-.043-.103-.1-.152-.16a1.44 1.44 0 0 0-.016-.02l-.004-.009-.018-.053a1.62 1.62 0 0 1-.042-.153.574.574 0 0 1 .08.083c.049.061.083.117.152.146.067.028.19.02.266.016.083-.004.173.026.26.004.084-.02.163-.083.257-.115.08-.027.163-.021.249-.055.085-.033.174-.106.266-.14.082-.03.168-.022.257-.05.083-.026.168-.09.257-.112.082-.02.167 0 .254-.015.083-.014.169-.064.257-.072.084-.007.17.022.26.027.09-.005.176-.034.26-.027.088.008.174.058.257.072.087.015.172-.006.254.015.089.022.174.085.257.112.089.028.175.02.257.05.092.034.18.107.267.14.085.034.168.028.248.055.094.032.173.095.257.115.088.022.178-.008.26-.004.075.003.199.012.266-.016.07-.03.103-.085.152-.146a.569.569 0 0 1 .08-.083v.004a2.37 2.37 0 0 1-.042.149l-.018.053-.004.01c-.004.01-.01.012-.016.02-.049.06-.09.116-.152.159-.077.053-.191.04-.265.047-.077.008-.173.037-.261.016-.084-.02-.163-.084-.257-.115-.08-.028-.163-.022-.248-.055-.086-.033-.175-.107-.267-.14-.082-.031-.168-.022-.257-.05-.083-.027-.168-.09-.257-.113-.082-.02-.167 0-.254-.015-.083-.014-.169-.064-.257-.071-.084-.008-.17.021-.26.026Z" fill="#fff"/><path fill-rule="evenodd" clip-rule="evenodd" d="M34.611 20.963c-.09-.005-.177-.034-.262-.027-.089.008-.175.058-.258.072-.088.015-.174-.005-.256.015-.09.022-.176.086-.26.113-.089.028-.175.02-.258.05-.093.034-.182.107-.268.14-.087.034-.17.028-.251.055-.095.032-.174.095-.258.115-.089.022-.186-.007-.264-.015-.074-.008-.19.006-.266-.047-.062-.043-.104-.1-.153-.16a1.452 1.452 0 0 0-.017-.02l-.003-.01-.019-.053a1.61 1.61 0 0 1-.03-.103c-.004-.015-.003-.03-.006-.045l-.002-.012c.026.021.047.054.077.09.049.061.083.117.153.146.067.028.192.02.268.016.083-.004.173.026.262.005.084-.02.163-.084.258-.116.081-.027.164-.021.25-.054.087-.034.176-.107.269-.141.083-.03.17-.022.258-.05.084-.027.17-.09.26-.113.082-.02.168 0 .256-.014.083-.015.17-.065.258-.072.085-.008.172.021.262.027.09-.005.177-.034.262-.027.089.007.175.057.258.072.089.015.174-.006.257.014.089.023.175.086.259.113.09.028.175.02.259.05.092.034.181.107.268.14.086.034.17.028.25.055.095.032.174.095.258.116.089.021.18-.009.262-.005.076.004.201.012.268-.016.07-.029.104-.085.154-.146.029-.036.047-.064.073-.085a.063.063 0 0 0-.002.008c0 .017.001.029-.003.044-.008.034-.019.069-.03.103-.004.011-.01.032-.019.053l-.003.01a.96.96 0 0 0-.016.02c-.05.06-.091.117-.154.16-.077.053-.192.04-.266.047-.078.008-.175.037-.264.015-.084-.02-.163-.083-.258-.115-.08-.027-.164-.021-.25-.055-.087-.033-.176-.106-.268-.14-.084-.03-.17-.022-.26-.05-.083-.027-.169-.09-.258-.113-.083-.02-.168 0-.257-.015-.083-.014-.17-.064-.258-.072-.085-.007-.172.022-.262.027Z" fill="#fff"/><path fill-rule="evenodd" clip-rule="evenodd" d="M31.86 21.32Zm5.501 0Zm.01-.026.001-.005-.002.005Zm-5.52 0-.002-.005.002.005Zm2.76-.053c-.666.021-1.235.295-1.884.497-.289.09-.6.01-.761-.183a1.742 1.742 0 0 1-.085-.178l-.021-.058v.001c.006.006.01.013.016.018.045.058.084.11.14.153a.035.035 0 0 0 .012.009c.076.053.19.04.264.047.077.008.174.037.262.016.084-.02.162-.084.256-.116.08-.028.163-.022.25-.055.085-.034.173-.108.265-.142.083-.03.169-.022.257-.05.083-.027.169-.091.258-.114.082-.02.166 0 .254-.014.083-.015.168-.065.256-.073.084-.007.171.022.26.027.09-.005.176-.034.26-.027.089.008.174.058.257.073.088.015.172-.006.255.014.088.023.174.087.257.114.088.028.174.02.257.05.092.034.18.108.266.142.086.033.168.027.249.055.094.032.172.095.256.116.088.021.185-.008.262-.016.073-.008.188.006.264-.047a.036.036 0 0 0 .012-.01c.056-.041.095-.094.14-.151.007-.006.01-.013.015-.019h.001l-.021.057a1.785 1.785 0 0 1-.085.178c-.161.192-.459.274-.748.183-.648-.202-1.231-.476-1.896-.497Z" fill="#fff"/><path fill-rule="evenodd" clip-rule="evenodd" d="m37.34 21.343-.012.03-.004.01-.005.012-.005.011-.005.012-.005.01-.005.012-.005.011-.005.011-.006.012-.005.01-.005.011-.006.011-.006.011-.005.011-.006.011-.005.01-.015.016-.015.017-.017.016-.018.015-.018.015-.018.014-.02.013-.02.012-.02.012-.022.011-.021.01-.022.01-.023.01-.023.007-.024.008-.023.006-.025.006-.024.005-.025.004-.026.003-.025.002-.026.002h-.052l-.026-.001-.027-.002-.026-.003-.027-.004-.027-.005-.026-.006-.027-.007-.027-.008-.06-.019-.06-.02-.06-.02-.06-.02-.06-.02-.058-.02-.06-.02-.058-.02-.058-.021-.059-.02-.058-.02-.058-.02-.058-.02-.059-.02-.058-.018-.058-.018-.058-.018-.058-.018-.059-.016-.059-.016-.058-.015-.06-.014-.058-.014-.06-.012-.06-.012-.06-.01-.06-.01-.06-.007-.062-.007-.061-.006-.062-.004-.063-.002-.063.002-.062.004-.06.006-.062.007-.06.008-.06.009-.06.01-.06.012-.058.012-.059.014-.058.014-.058.015-.058.016-.058.016-.058.018-.058.017-.057.019-.058.019-.057.019-.058.02-.057.02-.058.02-.058.02-.058.02-.058.02-.059.021-.058.02-.06.02-.059.02-.06.02-.06.02-.06.02-.027.007-.026.007-.027.006-.027.005-.027.004-.027.003-.027.002-.027.001h-.053l-.026-.002-.026-.002-.026-.003-.026-.004-.025-.005-.025-.006-.025-.006-.024-.008-.023-.008-.024-.009-.022-.01-.023-.01-.021-.01-.021-.013-.02-.012-.02-.014-.02-.013-.018-.015-.017-.015-.017-.016-.017-.017-.014-.016-.005-.01-.006-.01-.005-.012-.006-.01-.006-.012-.005-.01-.005-.011-.006-.012-.005-.01-.005-.012-.005-.011-.005-.011-.005-.012-.005-.011-.005-.011-.004-.012-.011-.029c.046.058.087.111.146.153.077.053.191.04.265.047.077.008.173.037.261.015.084-.02.163-.083.257-.115.08-.027.163-.021.249-.054.085-.034.174-.107.266-.14.082-.031.168-.023.257-.051.083-.026.168-.09.257-.112.082-.02.167 0 .254-.015.083-.014.169-.064.257-.072.084-.007.17.022.26.027.09-.005.176-.034.26-.027.088.008.174.058.257.072.087.015.172-.006.254.015.089.022.174.086.257.112.089.028.175.02.257.05.092.034.18.107.266.14.086.034.169.028.25.055.093.032.172.095.256.115.087.022.184-.007.261-.015.074-.008.188.006.265-.047.06-.041.1-.095.146-.153Z" fill="#F5161C"/><path fill-rule="evenodd" clip-rule="evenodd" d="M34.61 21.241c-.665.021-1.235.295-1.883.497-.29.09-.6.01-.762-.183a1.742 1.742 0 0 1-.084-.178l-.022-.058v.001h.001l.005.003a.8.8 0 0 1 .01.013l.006.007.01.03.005.01.005.012.005.011.005.012.005.01.005.012.005.011.005.011.005.012.006.01.005.011.006.011.006.011.005.011.006.011.005.01.014.016.017.017.016.016.018.015.018.015.02.014.02.013.02.012.02.012.023.011.022.01.022.01.024.01.023.007.024.008.025.006.025.006.025.005.026.004.026.003.026.002.026.002h.053l.027-.001.027-.002.027-.003.027-.004.027-.005.026-.006.027-.007.027-.008.06-.019.06-.02.06-.02.06-.02.059-.02.058-.02.059-.02.058-.02.058-.021.058-.02.057-.02.058-.02.058-.02.057-.02.058-.018.057-.018.058-.018.058-.018.058-.016.058-.016.058-.015.058-.014.059-.014.059-.012.06-.012.059-.01.06-.01.06-.007.061-.007.061-.006.062-.004.063-.002.063.002.062.004.061.006.061.007.061.008.06.009.06.01.06.012.06.012.059.014.059.014.058.015.06.016.058.016.058.018.058.017.058.019.059.019.058.019.058.02.058.02.058.02.059.02.058.02.059.02.059.021.059.02.06.02.059.02.06.02.06.02.06.02.027.007.027.007.026.006.027.005.027.004.026.003.027.002h.026l.026.001h.026l.026-.002.025-.002.026-.003.025-.004.024-.005.024-.006.024-.006.024-.008.023-.008.023-.009.022-.01.021-.01.022-.01.02-.013.02-.012.02-.013.018-.014.018-.015.018-.015.016-.016.016-.017.015-.016.005-.01.006-.01.005-.012.006-.01.005-.012.006-.01.005-.011.006-.012.005-.01.005-.012.005-.011.005-.011.005-.012.005-.011.005-.011.004-.012.011-.029a.366.366 0 0 1 .019-.023h.002l-.02.057a1.785 1.785 0 0 1-.085.178c-.162.192-.46.273-.748.183-.649-.202-1.232-.476-1.897-.497Z" fill="#1F1A17"/><path fill-rule="evenodd" clip-rule="evenodd" d="M31.254 14.638c.038-.003.152.035.196.008.041-.034.084-.045.113 0 .026.02.07-.004.099-.007-.004.044-.03.099-.09.086-.038-.005-.043-.037-.085-.041-.036.002-.05.03-.081.031-.022-.004-.027-.023-.057-.027-.048-.006-.098-.022-.095-.05Z" fill="#DA251D"/><path fill-rule="evenodd" clip-rule="evenodd" d="M31.22 15.838h.002c-.1-.296-.282-.567-.564-.836-.11-.13-.181-.261-.185-.431 0-.112.062-.26.193-.327-.006.041-.01.09.011.13-.006-.117-.007-.215.075-.275.076-.041.169.021.194.117.003-.04.033-.12.065-.11.041 0 .025.088.056.129.14.045.249.119.359.198.047.037.048.044.054.094.01.125-.069.13-.217.103-.033.027.047.053.08.058.003.023-.005.045-.028.052-.094.014-.133.008-.228.003-.06.004-.077.106.03.158.359.148.566.328.763.534l.007.003c.228.083.548.074.482-.374-.113-.175.01-.305.087-.309-.001.014.01.03.03.03l.015-.016c.01 0 .02.003.029.008a.084.084 0 0 0-.022.007c-.024.012-.01.046.018.046.011-.011.019-.021.027-.027a.16.16 0 0 1 .016.037.075.075 0 0 0-.039.006c-.02.01-.01.04.015.04.012-.012.018-.022.029-.026.03.153-.026.459-.044.607-.062.24-.375.44-.377.434a1.278 1.278 0 0 0-.21-.394c.128.187.182.356.252.55.056.124.135.055.171-.043.025-.073.074-.213.18-.226a.116.116 0 0 1 .086.004c-.016.015-.019.028-.006.042.011.006.026.004.044 0a.096.096 0 0 1 .006.024c-.01 0-.02 0-.032.003-.014.016-.015.03-.001.042.01.004.021.002.035-.001l.001.02a.106.106 0 0 0-.026-.002c-.02.015-.025.029-.012.046.01.006.023.007.039.007v.02a.093.093 0 0 0-.034-.001c-.016.015-.019.028-.006.042.009.005.021.004.035.003-.005.04-.016.07-.033.08-.037.031-.117.019-.162.064-.08.09-.06.343-.217.341-.14-.014-.23-.145-.375-.336.034.08.048.145.127.207-.116.453-.242.515-.403.75-.123.197-.27.35-.281.683-.015.168.045.296.019.491-.012.098-.036.302-.21.412-.15.127-.386.05-.553.142-.058.046-.102.2-.074.347-.003.037.034.08.071.076.164-.019.29.016.315.124.007.1-.277.204-.383.179-.114-.024-.188-.2-.208-.324l.004-.407c.019-.254.357-.114.3-.542-.048-.186-.027-.276.039-.443.005-.238-.013-.452.138-.667.227-.44.543-.844.43-1.375Zm-1.047-.678c.036-.062.114-.1.18-.055.075.067.066.085.122.178.022.036.072.08.122.14.109.13.231.386.258.558.064.3-.048.568-.165.785-.08.129-.17.25-.242.386-.053.107-.106.194-.105.336.003.086.027.166.14.146.047-.006.086-.046.129-.099.01-.012.029-.025.038-.038-.015.127.005.257-.045.355a.283.283 0 0 1-.225.095c-.124.013-.245-.054-.296-.2-.176-.495.102-1.358.109-1.712.007-.438-.156-.696-.02-.875Zm1.201 2.89c-.048-.449.06-.625.22-.848-.041.178-.053.29.12.338.445.233.492.454.331 1.113-.049.102.059.278.183.38.145.018.321-.033.369.122 0 .133-.115.233-.313.212-.309-.089-.31-.386-.516-.592.011-.134.082-.206-.013-.322-.089-.133-.323-.137-.38-.403Z" fill="#1F1A17"/><path fill-rule="evenodd" clip-rule="evenodd" d="M32.617 14.864c-.045-.016-.05-.001-.072.021-.025 0-.036-.028-.015-.04a.078.078 0 0 1 .087.02Zm-1.966 4.686c.014-.016.03-.015.053-.003.02.043-.003.074-.022.106-.006-.043-.04-.079-.031-.103Zm1.7-.224c.013-.02.03-.02.053-.003.02.054-.003.093-.022.134-.006-.054-.04-.1-.032-.13Zm.076-.002c.004-.032.053-.037.062-.01.017.057-.017.088-.036.129.007-.073-.018-.064-.026-.12Zm.076-.049c.002-.02.047-.035.056-.008.016.058-.022.083-.04.124.02-.07-.014-.065-.016-.116Zm.058-.057c.002-.018.027-.046.045-.007.02.052-.02.077-.037.114.026-.077-.019-.075-.008-.107Zm-1.701.247c.002-.015.027-.036.044-.006.02.041-.02.06-.036.09.025-.061-.019-.059-.008-.084Zm-.058.045c.002-.016.047-.028.055-.007.016.046-.021.066-.039.098.02-.055-.014-.051-.016-.091Zm-.08.03c.004-.026.056-.031.066-.008.018.049-.019.075-.039.11.008-.062-.02-.054-.027-.102Zm1.917-3.506c-.012-.014-.009-.027.007-.042.044-.006.07.018.097.04-.041-.005-.082.013-.104.002Zm-.013-.2c-.013-.014-.01-.027.005-.042.045-.007.07.017.099.037-.042-.003-.082.016-.104.005Zm.016.07c-.014-.013-.012-.027.002-.043.044-.011.072.01.101.028-.042 0-.08.023-.103.014Zm-.002.062c-.012-.017-.007-.031.012-.046.05-.001.075.028.103.054-.045-.01-.092.007-.115-.008Zm-1.843-1.77c.029-.018.071.016.07.065-.051-.01-.067.014-.076.087-.037-.036-.038-.126.006-.151Zm.242.59c.011-.042.04-.046.104-.04-.038.004-.042.048-.02.075.068.081.265.184.416.307a2.181 2.181 0 0 0-.445-.24c-.04-.025-.063-.054-.055-.103Zm.396-.35c.03.01.063.009.086.04.026.063-.034.107-.04.093 0-.021.002-.053-.01-.059-.013-.005-.02.015-.024.027-.014-.025-.016-.049-.012-.1Zm-.262-.073c.042.018.06.041.057.075-.003.034-.063.027-.105.009-.042-.018-.058-.05-.047-.077.01-.026.053-.025.095-.007Zm-.009.011c.018 0 .032.014.032.03 0 .017-.014.03-.032.03-.018 0-.032-.013-.032-.03 0-.016.014-.03.032-.03Zm1.407.386c-.053-.02-.059-.002-.085.024-.029 0-.042-.033-.018-.046a.091.091 0 0 1 .102.022Zm.04.045c-.054-.02-.06-.002-.085.025-.03 0-.042-.034-.018-.046a.091.091 0 0 1 .102.021Z" fill="#fff"/><path fill-rule="evenodd" clip-rule="evenodd" d="M37.97 14.638c-.038-.003-.152.035-.196.008-.04-.034-.083-.045-.113 0-.026.02-.069-.004-.099-.007.004.044.03.099.09.086.039-.005.043-.037.085-.041.036.002.051.03.081.031.023-.004.027-.023.057-.027.048-.006.099-.022.095-.05Z" fill="#DA251D"/><path fill-rule="evenodd" clip-rule="evenodd" d="M38.006 15.838h-.002c.1-.296.282-.567.563-.836.11-.13.182-.261.185-.431a.378.378 0 0 0-.193-.327c.007.041.011.09-.01.13.006-.117.007-.215-.075-.275-.076-.041-.17.021-.195.117-.002-.04-.032-.12-.064-.11-.041 0-.025.088-.056.129a1.25 1.25 0 0 0-.36.198c-.046.037-.048.044-.053.094-.01.125.068.13.217.103.032.027-.047.053-.08.058-.004.023.005.045.028.052.093.014.132.008.227.003.06.004.078.106-.03.158a2.082 2.082 0 0 0-.762.534l-.007.003c-.228.083-.548.074-.482-.374.113-.175-.01-.305-.088-.309.002.014-.01.03-.03.03l-.014-.016c-.011 0-.02.003-.029.008a.084.084 0 0 1 .021.007c.024.012.011.046-.017.046-.012-.011-.019-.021-.028-.027a.156.156 0 0 0-.015.037.075.075 0 0 1 .039.006c.02.01.01.04-.015.04-.012-.012-.019-.022-.029-.026-.03.153.026.459.044.607.062.24.375.44.377.434.06-.167.115-.273.21-.394-.129.187-.182.356-.252.55-.056.124-.136.055-.171-.043-.026-.073-.075-.213-.18-.226a.116.116 0 0 0-.086.004c.015.015.018.028.005.042-.01.006-.026.004-.043 0a.106.106 0 0 0-.006.024c.01 0 .02 0 .031.003.014.016.016.03.002.042-.01.004-.021.002-.035-.001a.663.663 0 0 0-.001.02.106.106 0 0 1 .026-.002c.02.015.024.029.012.046-.01.006-.023.007-.04.007l.002.02a.093.093 0 0 1 .033-.001c.015.015.019.028.006.042-.01.005-.021.004-.036.003.006.04.017.07.034.08.036.031.117.019.162.064.08.09.06.343.216.341.141-.014.231-.145.375-.336-.033.08-.047.145-.126.207.116.453.242.515.403.75.123.197.27.35.28.683.016.168-.044.296-.018.491.012.098.036.302.209.412.15.127.387.05.554.142.058.046.101.2.074.347.002.037-.034.08-.072.076-.163-.019-.289.016-.314.124-.007.1.277.204.383.179.114-.024.188-.2.207-.324l-.004-.407c-.018-.254-.356-.114-.299-.542.047-.186.027-.276-.04-.443-.004-.238.014-.452-.138-.667-.227-.44-.542-.844-.43-1.375Zm1.046-.678c-.035-.062-.114-.1-.18-.055-.075.067-.065.085-.121.178-.022.036-.072.08-.122.14a1.39 1.39 0 0 0-.258.558c-.064.3.047.568.165.785.08.129.17.25.242.386.053.107.106.194.104.336-.002.086-.026.166-.14.146-.046-.006-.085-.046-.128-.099-.01-.012-.03-.025-.038-.038.015.127-.006.257.045.355a.283.283 0 0 0 .225.095c.124.013.244-.054.296-.2.176-.495-.103-1.358-.109-1.712-.008-.438.156-.696.02-.875Zm-1.2 2.89c.047-.449-.06-.625-.22-.848.04.178.053.29-.12.338-.445.233-.492.454-.332 1.113.05.102-.058.278-.183.38-.145.018-.32-.033-.368.122-.001.133.115.233.313.212.309-.089.31-.386.516-.592-.012-.134-.083-.206.013-.322.089-.133.323-.137.38-.403Z" fill="#1F1A17"/><path fill-rule="evenodd" clip-rule="evenodd" d="M36.608 14.864c.046-.016.05-.001.073.021.025 0 .036-.028.015-.04a.078.078 0 0 0-.088.02Zm1.967 4.686c-.014-.016-.03-.015-.053-.003-.02.043.003.074.021.106.007-.043.04-.079.032-.103Zm-1.7-.224c-.013-.02-.03-.02-.053-.003-.02.054.002.093.021.134.007-.054.04-.1.033-.13Zm-.077-.002c-.004-.032-.052-.037-.061-.01-.017.057.017.088.036.129-.007-.073.018-.064.025-.12Zm-.075-.049c-.002-.02-.047-.035-.056-.008-.016.058.022.083.04.124-.02-.07.014-.065.016-.116Zm-.058-.057c-.003-.018-.028-.046-.045-.007-.02.052.02.077.037.114-.026-.077.018-.075.008-.107Zm1.701.247c-.002-.015-.027-.036-.044-.006-.02.041.02.06.036.09-.026-.061.019-.059.008-.084Zm.058.045c-.003-.016-.047-.028-.056-.007-.016.046.022.066.04.098-.02-.055.014-.051.016-.091Zm.08.03c-.004-.026-.056-.031-.066-.008-.018.049.018.075.039.11-.008-.062.019-.054.027-.102Zm-1.917-3.506c.012-.014.009-.027-.007-.042-.045-.006-.07.018-.097.04.041-.005.082.013.104.002Zm.013-.2c.013-.014.01-.027-.006-.042-.044-.007-.07.017-.098.037.042-.003.082.016.104.005Zm-.017.07c.015-.013.013-.027-.001-.043-.044-.011-.072.01-.102.028.042 0 .08.023.103.014Zm.002.062c.013-.017.008-.031-.011-.046-.05-.001-.076.028-.103.054.045-.01.092.007.114-.008Zm1.844-1.77c-.03-.018-.071.016-.07.065.051-.01.066.014.075.087.038-.036.038-.126-.005-.151Zm-.243.59c-.01-.042-.039-.046-.103-.04.038.004.042.048.02.075-.069.081-.265.184-.416.307.133-.097.284-.172.445-.24.04-.025.063-.054.054-.103Zm-.395-.35c-.03.01-.063.009-.087.04-.025.063.035.107.04.093.001-.021-.001-.053.011-.059.013-.005.02.015.024.027.014-.025.016-.049.012-.1Zm.262-.073c-.042.018-.061.041-.057.075.003.034.063.027.105.009.042-.018.057-.05.047-.077-.011-.026-.053-.025-.095-.007Zm.009.011c-.018 0-.032.014-.032.03 0 .017.014.03.032.03a.031.031 0 0 0 .032-.03c0-.016-.015-.03-.032-.03Zm-1.407.386c.053-.02.059-.002.085.024.029 0 .041-.033.017-.046a.091.091 0 0 0-.102.022Zm-.04.045c.054-.02.059-.002.085.025.029 0 .042-.034.018-.046a.091.091 0 0 0-.102.021Z" fill="#fff"/><path d="M13.108 13.84c.127.143.251.28.374.408l.29.283c.075.07.146.133.213.191l.179.15-.105.111a3.12 3.12 0 0 0-.708-.393c-.2-.072-.377-.085-.533-.036-.158.045-.318.154-.48.325l-.086.091a1.08 1.08 0 0 0-.186.246.22.22 0 0 0 .002.202c.036.065.107.148.214.248l2.438 2.3c.116.11.214.18.294.212.079.032.159.025.239-.02.083-.05.186-.133.308-.25l.097.091a6.85 6.85 0 0 0-.334.335 24.923 24.923 0 0 0-.785.832 5.551 5.551 0 0 0-.282.319l-.097-.091c.094-.113.156-.204.185-.274a.222.222 0 0 0-.016-.216 1.213 1.213 0 0 0-.234-.275l-2.4-2.264a1.174 1.174 0 0 0-.288-.217.222.222 0 0 0-.217-.003.93.93 0 0 0-.262.2l-.097-.09.393-.398c.137-.145.272-.286.406-.421l.37-.392a495.936 495.936 0 0 0 .703-.745c.155-.171.29-.324.405-.46ZM16.07 11.104c.357-.277.729-.445 1.116-.503a1.947 1.947 0 0 1 1.13.166c.368.164.709.447 1.021.85.304.393.493.796.567 1.21.078.41.044.805-.102 1.181a2.213 2.213 0 0 1-.739.969c-.357.277-.73.444-1.116.503a1.99 1.99 0 0 1-1.136-.163c-.367-.17-.706-.454-1.015-.854-.304-.392-.494-.795-.568-1.21a2.183 2.183 0 0 1 .103-1.18c.142-.375.388-.697.739-.969Zm.052.11a.928.928 0 0 0-.358.657c-.029.275.022.583.153.925.13.342.337.695.62 1.06.287.371.586.659.895.862.307.2.599.313.877.338a.976.976 0 0 0 .702-.19.907.907 0 0 0 .353-.652c.032-.278-.018-.587-.148-.93a4.24 4.24 0 0 0-.62-1.059c-.29-.375-.589-.662-.895-.862-.307-.2-.598-.311-.873-.334a.949.949 0 0 0-.706.186ZM19.477 8.958a29.944 29.944 0 0 0 .838-.437c.19-.104.37-.205.54-.303.168-.098.288-.166.358-.204.52-.286.966-.39 1.336-.316.374.073.653.279.839.617.077.14.132.302.167.485.033.18.023.37-.029.57a1.569 1.569 0 0 1-.34.596c-.17.199-.42.39-.755.573l-.583.32-.064-.116.524-.288c.245-.135.403-.29.474-.465a.847.847 0 0 0 .035-.558 2.393 2.393 0 0 0-.234-.592c-.202-.37-.414-.612-.634-.729-.221-.117-.48-.094-.775.068-.16.088-.246.178-.26.272-.01.092.04.239.15.44l1.574 2.87c.081.147.157.25.229.307a.285.285 0 0 0 .26.046c.103-.026.239-.082.408-.17l.067.122c-.117.054-.265.13-.444.228a28.928 28.928 0 0 0-1.416.793l-.064-.117c.124-.078.21-.146.26-.203.053-.06.07-.13.052-.21a1.214 1.214 0 0 0-.138-.335L20.266 9.33a1.173 1.173 0 0 0-.208-.296.222.222 0 0 0-.205-.07.93.93 0 0 0-.312.11l-.064-.116ZM26.472 5.591c.428-.145.834-.183 1.219-.112.384.07.723.246 1.015.526.294.274.524.653.688 1.136.16.47.207.913.142 1.328-.06.414-.22.775-.481 1.084a2.213 2.213 0 0 1-1.014.675c-.428.146-.835.183-1.22.112a1.988 1.988 0 0 1-1.02-.524c-.292-.28-.52-.659-.682-1.138-.16-.47-.208-.912-.143-1.328.065-.415.226-.777.482-1.084a2.213 2.213 0 0 1 1.014-.675Zm.013.122a.928.928 0 0 0-.552.504c-.116.25-.169.558-.157.924.012.366.093.767.241 1.204.151.445.34.814.566 1.107.225.289.464.49.719.606.253.11.495.127.726.048a.907.907 0 0 0 .546-.502c.12-.251.174-.56.162-.926a4.238 4.238 0 0 0-.24-1.204c-.153-.449-.342-.818-.566-1.107-.225-.289-.464-.489-.717-.6a.949.949 0 0 0-.728-.054ZM34.745 4.354l.01.133c-.15.015-.264.04-.342.077a.24.24 0 0 0-.141.17 1.175 1.175 0 0 0-.016.36l.227 3.292c.011.159.033.28.065.362.032.078.085.13.158.156.077.021.186.027.327.017l.206-.014a9.544 9.544 0 0 0-.007.48l.018.36c.006.083.014.16.023.231.01.075.018.139.027.191l-.153.011c-.06-.28-.137-.5-.232-.657a.737.737 0 0 0-.356-.33 1.159 1.159 0 0 0-.538-.069l-1.705.118a1.202 1.202 0 0 0-.53.143.747.747 0 0 0-.301.374 2.43 2.43 0 0 0-.14.683l-.152.01a1.203 1.203 0 0 0 0-.193 3.78 3.78 0 0 0-.01-.232 7.136 7.136 0 0 0-.038-.358 6.06 6.06 0 0 0-.066-.475l1.997-.138c.15-.01.263-.031.336-.063a.26.26 0 0 0 .148-.177c.02-.086.025-.208.014-.368l-.227-3.29a1.07 1.07 0 0 0-.071-.362.24.24 0 0 0-.157-.15.718.718 0 0 0-.295-.026l-.087.006a.61.61 0 0 0-.262.065c-.06.03-.1.09-.121.175a1.651 1.651 0 0 0-.035.362c-.005.254-.008.528-.01.821.002.293-.002.591-.012.894-.01.299-.035.587-.073.865-.035.274-.091.522-.17.745a1.431 1.431 0 0 1-.322.536.804.804 0 0 1-.525.223l-.009-.126a.665.665 0 0 0 .496-.261c.126-.165.223-.38.289-.647a5.08 5.08 0 0 0 .144-.903c.026-.34.039-.692.04-1.056.002-.365.002-.725 0-1.08a.929.929 0 0 0-.045-.35.24.24 0 0 0-.17-.155 1.136 1.136 0 0 0-.362-.029l-.01-.132.333-.01c.129-.004.246-.01.352-.018.102-.007.2-.015.292-.026a3.23 3.23 0 0 1 .29-.034 7.18 7.18 0 0 1 .46-.018c.137-.005.3-.014.491-.027l.332-.023c.119-.013.234-.023.344-.03.11-.013.2-.023.271-.033ZM39.064 4.672c.29.036.522.11.696.22.179.108.334.227.465.36.08.077.144.094.194.05.055-.046.103-.163.145-.35l.151.02c-.03.165-.061.369-.096.61-.034.242-.076.56-.125.957l-.152-.02a5.385 5.385 0 0 0-.024-.505 1.215 1.215 0 0 0-.089-.366 1.078 1.078 0 0 0-.19-.305 1.071 1.071 0 0 0-.393-.344 1.368 1.368 0 0 0-.502-.163 1.01 1.01 0 0 0-.624.11 1.437 1.437 0 0 0-.484.443c-.136.193-.25.424-.34.694-.088.271-.151.562-.19.875-.04.321-.049.624-.026.908.028.28.086.531.175.752.093.217.219.394.376.53.162.136.357.218.586.247.163.02.334.01.513-.03a.992.992 0 0 0 .458-.232c.161-.113.28-.257.355-.431a4.4 4.4 0 0 0 .217-.717l.151.019c-.051.413-.09.748-.118 1.004-.027.251-.046.463-.059.636l-.151-.02c.005-.19-.01-.313-.049-.367-.033-.053-.102-.055-.207-.006a3.615 3.615 0 0 1-.559.24c-.19.06-.429.073-.715.038-.449-.056-.83-.2-1.146-.431a1.989 1.989 0 0 1-.69-.917c-.14-.38-.18-.82-.117-1.321.06-.493.211-.912.45-1.258.24-.345.542-.6.907-.765.364-.165.767-.22 1.207-.165ZM45.255 6.85l-.053.122a.971.971 0 0 0-.32-.082.24.24 0 0 0-.198.087 1.17 1.17 0 0 0-.181.312l-1.33 3.019c-.065.146-.1.261-.109.345a.24.24 0 0 0 .07.205c.058.054.15.115.277.18l-.054.122a5.564 5.564 0 0 0-.384-.184 20.888 20.888 0 0 0-.992-.437 5.485 5.485 0 0 0-.395-.16l.054-.121a1.2 1.2 0 0 0 .32.082.222.222 0 0 0 .197-.087 1.21 1.21 0 0 0 .182-.312l1.33-3.02c.066-.15.102-.264.108-.344a.222.222 0 0 0-.07-.205.93.93 0 0 0-.276-.18l.053-.122a30.926 30.926 0 0 0 .893.415 20.575 20.575 0 0 0 .878.366Zm-1.088 1.927c.288.127.534.262.737.404.204.143.349.31.436.497.092.187.11.408.056.665l-.175.875a1.84 1.84 0 0 0-.043.41c.01.087.057.146.14.178a.272.272 0 0 0 .165.021.81.81 0 0 0 .178-.074l.053.11c-.145.077-.29.122-.437.135-.14.011-.3-.023-.479-.102a.983.983 0 0 1-.436-.345c-.09-.146-.104-.363-.04-.65l.218-.942c.041-.181.06-.338.055-.47a.56.56 0 0 0-.13-.349c-.08-.103-.22-.198-.42-.286l-.334-.147.048-.11.408.18Zm-.328-.014.048-.11c.178.07.35.091.516.068a1.95 1.95 0 0 0 .566-.18l.67-.351c.225-.114.381-.227.47-.339.091-.11.116-.215.073-.316-.038-.1-.138-.187-.299-.262l.054-.122.263.13c.089.04.18.082.27.127l.293.129a7.873 7.873 0 0 0 .562.225l-.054.122a1.368 1.368 0 0 0-.471-.019 1.788 1.788 0 0 0-.59.184l-1.866.936-.505-.222ZM50.861 10.031c.36.274.618.59.774.949.156.358.2.737.13 1.136-.063.397-.249.799-.558 1.205-.3.395-.641.681-1.022.86-.377.18-.767.25-1.168.206a2.214 2.214 0 0 1-1.126-.465c-.36-.274-.618-.59-.774-.948a1.988 1.988 0 0 1-.136-1.14c.07-.399.258-.799.564-1.201.3-.395.641-.682 1.022-.86.38-.178.77-.247 1.168-.206.398.041.773.196 1.126.464Zm-.093.08a.929.929 0 0 0-.727-.177c-.272.043-.557.172-.854.386a4.193 4.193 0 0 0-.864.872 3.808 3.808 0 0 0-.602 1.088c-.115.347-.148.659-.102.934.05.272.172.481.366.63a.907.907 0 0 0 .72.172c.277-.04.563-.168.86-.382.3-.218.588-.509.864-.872.288-.378.488-.74.603-1.088.114-.348.146-.657.097-.929a.95.95 0 0 0-.361-.634ZM55.127 14.245l-.1.088a.97.97 0 0 0-.256-.208.24.24 0 0 0-.217-.004c-.074.03-.172.1-.294.21l-2.465 2.192c-.12.106-.2.195-.242.268a.24.24 0 0 0-.022.216c.03.074.09.167.177.279l-.1.088a5.492 5.492 0 0 0-.272-.327 20.456 20.456 0 0 0-.72-.81 5.513 5.513 0 0 0-.294-.309l.1-.088c.104.103.189.172.256.208.07.038.142.04.217.003.077-.033.175-.103.294-.209l2.465-2.192c.123-.11.203-.199.242-.269a.222.222 0 0 0 .022-.215.93.93 0 0 0-.177-.28l.1-.087a31.91 31.91 0 0 0 .639.748 20.595 20.595 0 0 0 .647.697Zm.803 1.493-.06.043c-.032.03-.067.06-.104.093a30.25 30.25 0 0 1-.054.049l-4.386.733.15-.17 4.454-.748Zm1.15.703-.099.088a.97.97 0 0 0-.256-.208.24.24 0 0 0-.217-.003c-.074.03-.172.1-.294.209l-2.465 2.192c-.12.106-.2.196-.242.269a.24.24 0 0 0-.022.215c.03.074.09.167.177.28l-.1.087a5.11 5.11 0 0 0-.268-.321 22.488 22.488 0 0 0-.72-.81 5.84 5.84 0 0 0-.298-.315l.1-.088a1.2 1.2 0 0 0 .256.208c.07.039.142.04.216.003.078-.033.176-.102.295-.209l2.465-2.192a1.17 1.17 0 0 0 .242-.268.222.222 0 0 0 .022-.216.932.932 0 0 0-.177-.279l.1-.088a35.338 35.338 0 0 0 .616.724 23.357 23.357 0 0 0 .67.722Zm.245-2.096a.488.488 0 0 1 .136.333.373.373 0 0 1-.135.298.414.414 0 0 1-.27.107.861.861 0 0 1-.335-.067 2.118 2.118 0 0 1-.443-.238 2.832 2.832 0 0 1-.483-.443 2.958 2.958 0 0 1-.392-.54 2.144 2.144 0 0 1-.18-.463.978.978 0 0 1-.028-.341.433.433 0 0 1 .142-.251.382.382 0 0 1 .308-.105.488.488 0 0 1 .315.174.505.505 0 0 1 .14.329.373.373 0 0 1-.135.307.347.347 0 0 1-.27.098.498.498 0 0 1-.267-.1c.017.091.05.186.101.283.051.097.108.192.172.283a3.783 3.783 0 0 0 .402.452c.087.078.175.148.266.21.094.058.184.103.27.133a.547.547 0 0 1-.072-.292.365.365 0 0 1 .132-.242.373.373 0 0 1 .312-.1.503.503 0 0 1 .314.175Z" fill="#FFD644"/></g><defs><linearGradient id="b" x1="9.723" y1="7.3" x2="60.018" y2="38.819" gradientUnits="userSpaceOnUse"><stop stop-color="#0099E0"/><stop offset="1" stop-color="#00539E"/></linearGradient><clipPath id="a"><path fill="#fff" d="M0 0h68v33H0z"/></clipPath></defs></svg>