<svg width="90" height="90" viewBox="0 0 90 90" fill="none" xmlns="http://www.w3.org/2000/svg">
<circle cx="45" cy="45" r="45" fill="#F5F5F5"/>
<g clip-path="url(#clip0_250_575)">
<path d="M44.958 23.504C44.958 23.504 49.4161 16.9555 57.5416 19.8334C65.6672 22.7114 64.0994 32.6791 62.7878 35.5618C62.7878 35.5618 71.9674 38.708 69.6067 52.0767C67.2459 65.4455 50.0369 63.3493 47.3633 59.1556V68.8551H63.5796V72H26.5988V69.1136H42.602V58.891C42.602 58.891 36.5701 63.8712 27.9151 60.4641C19.2601 57.057 15.3255 40.0189 28.702 35.8216C28.702 35.8216 24.5051 28.7439 28.9643 22.9772C33.4236 17.2104 42.5972 17.9982 44.958 23.504Z" fill="#1D9333"/>
</g>
<defs>
<clipPath id="clip0_250_575">
<rect width="50" height="53" fill="white" transform="translate(20 19)"/>
</clipPath>
</defs>
</svg>
