<svg width="90" height="90" viewBox="0 0 90 90" fill="none" xmlns="http://www.w3.org/2000/svg">
<circle cx="45" cy="45" r="45" fill="#B02318"/>
<g clip-path="url(#clip0_252_1836)">
<path d="M17 43.2123V45.3185C17.0001 50.9393 19.1248 56.3482 22.9404 60.4403C26.7559 64.5323 31.9744 66.999 37.53 67.3364V57.2604C34.8253 56.7798 32.3747 55.3521 30.6088 53.228C28.8429 51.1039 27.8745 48.4194 27.8737 45.6458V42.8886C27.8746 40.1155 28.8431 37.4314 30.6091 35.308C32.3751 33.1845 34.8256 31.7575 37.53 31.2776V21.198C31.975 21.5354 26.7571 24.0015 22.9416 28.0928C19.1262 32.1842 17.001 37.5921 17 43.2123H17Z" fill="white"/>
<path d="M53.0176 21.238V31.3795C55.6045 31.9683 57.916 33.4286 59.5721 35.5202C61.2282 37.6119 62.1303 40.2104 62.13 42.8886V45.6458C62.129 48.3236 61.2264 50.9215 59.5706 53.0129C57.9147 55.1043 55.6039 56.5649 53.0176 57.155V67.2891C58.4699 66.8207 63.5495 64.3023 67.2512 60.2324C70.9529 56.1625 73.0071 50.8375 73.0073 45.3112V43.2123C73.0071 37.6863 70.9528 32.3618 67.2509 28.2925C63.5491 24.2232 58.4696 21.7056 53.0176 21.238V21.238Z" fill="white"/>
<path d="M50.9213 16H39.6082V73H50.9213V16Z" fill="white"/>
</g>
<defs>
<clipPath id="clip0_252_1836">
<rect width="56" height="57" fill="white" transform="translate(17 16)"/>
</clipPath>
</defs>
</svg>
