<svg width="90" height="90" viewBox="0 0 90 90" fill="none" xmlns="http://www.w3.org/2000/svg">
<circle cx="45" cy="45" r="45" fill="#F5F5F5"/>
<path d="M27.142 67.4205V53.1193H29.5114C30.3182 52.5398 31.0568 51.7216 31.7273 50.6648C32.3977 49.5966 32.9716 48.125 33.4489 46.25C33.9261 44.3636 34.267 41.8977 34.4716 38.8523L35.4602 24.0909H58.5568V53.1193H62.375V67.3864H55.2841V59H34.233V67.4205H27.142ZM38.0341 53.1193H51.4659V30.1761H42.108L41.5625 38.8523C41.4148 41.1591 41.1705 43.2045 40.8295 44.9886C40.5 46.7727 40.0966 48.3352 39.6193 49.6761C39.1534 51.0057 38.625 52.1534 38.0341 53.1193Z" fill="#E3E3E3"/>
</svg>
