<svg width="90" height="90" viewBox="0 0 90 90" fill="none" xmlns="http://www.w3.org/2000/svg">
<circle cx="45" cy="45" r="45" fill="#FDCA14"/>
<g clip-path="url(#clip0_599_310)">
<path d="M56.8102 23.1441C57.895 31.7942 49.946 65.3255 44.9984 65.3255C39.9982 65.3255 32.345 29.9863 33.0452 23.2167C33.7224 16.6384 38.4235 12 44.9984 12C51.5732 12 55.9883 16.5857 56.8102 23.1441Z" fill="white"/>
<path d="M31.5001 17.8954C31.5438 17.8244 31.5639 17.7413 31.5574 17.6582C31.5509 17.575 31.5181 17.4961 31.4639 17.4329C31.4097 17.3696 31.3368 17.3254 31.2558 17.3065C31.1749 17.2876 31.09 17.2951 31.0136 17.3279C27.2429 18.9775 16.94 24.9157 22.7259 38.6628C28.2521 51.7764 35.1097 58.6582 37.766 60.9873C37.8278 61.0424 37.9065 61.0747 37.9891 61.079C38.0717 61.0833 38.1533 61.0594 38.2205 61.0111C38.2877 60.9628 38.3366 60.893 38.3592 60.8131C38.3817 60.7333 38.3766 60.6481 38.3446 60.5716C35.8099 54.254 25.5794 27.3306 31.5001 17.8954Z" fill="white"/>
<path d="M58.5032 17.8953C58.4577 17.8249 58.4361 17.7416 58.4416 17.6579C58.4471 17.5741 58.4794 17.4944 58.5338 17.4306C58.5881 17.3668 58.6615 17.3223 58.7431 17.3038C58.8247 17.2853 58.91 17.2938 58.9864 17.3279C62.7604 18.9774 73.0633 24.9157 67.2741 38.6627C61.7643 51.7764 54.8936 58.6582 52.2307 60.9873C52.1689 61.0423 52.0902 61.0747 52.0076 61.079C51.925 61.0833 51.8434 61.0593 51.7762 61.011C51.709 60.9627 51.6601 60.8929 51.6375 60.8131C51.615 60.7333 51.6201 60.6481 51.6521 60.5716C54.2032 54.2539 64.4206 27.3306 58.5032 17.8953Z" fill="white"/>
<path d="M38.3216 68.806H51.639C51.8469 68.8047 52.0529 68.8448 52.2452 68.9242C52.4374 69.0035 52.6121 69.1204 52.7589 69.268C52.9057 69.4157 53.0218 69.5912 53.1005 69.7843C53.1791 69.9774 53.2187 70.1842 53.217 70.3928V75.1434C53.217 76.1698 52.8107 77.154 52.0875 77.8798C51.3643 78.6055 50.3835 79.0132 49.3608 79.0132H40.6063C39.5836 79.0132 38.6028 78.6055 37.8796 77.8798C37.1564 77.154 36.7502 76.1698 36.7502 75.1434V70.3928C36.7484 70.1848 36.7878 69.9785 36.866 69.7858C36.9443 69.5931 37.0598 69.418 37.2059 69.2704C37.3521 69.1228 37.5259 69.0058 37.7174 68.9261C37.9089 68.8464 38.1142 68.8056 38.3216 68.806V68.806Z" fill="#562D8A"/>
</g>
<defs>
<clipPath id="clip0_599_310">
<rect width="48" height="67" fill="white" transform="translate(21 12)"/>
</clipPath>
</defs>
</svg>
