<svg width="90" height="90" viewBox="0 0 90 90" fill="none" xmlns="http://www.w3.org/2000/svg">
<circle cx="45" cy="45" r="45" fill="#F5F5F5"/>
<g clip-path="url(#clip0_252_603)">
<path d="M70.9852 62.8884C70.8764 64.5297 70.1947 66.08 69.0601 67.2669C66.1326 70.345 62.613 72.7943 58.7145 74.4665C54.816 76.1387 50.6199 76.9989 46.3804 76.995C29.0777 77 15 62.8702 15 45.5C15 28.1297 29.0777 14 46.3804 14C54.6009 13.9801 62.4971 17.2179 68.3526 23.0097C69.2508 23.8919 69.8939 25.0021 70.2135 26.2221C66.5954 23.0134 62.1244 20.9323 57.347 20.2333C52.5696 19.5344 47.6928 20.2477 43.3128 22.2863C38.9328 24.3248 35.2394 27.6002 32.6841 31.712C30.1287 35.8238 28.8222 40.5938 28.9242 45.439C29.0261 50.2842 30.5322 54.9947 33.2582 58.9944C35.9843 62.9942 39.8122 66.1101 44.2741 67.9611C48.7359 69.8122 53.6384 70.3182 58.3821 69.4173C63.1258 68.5164 67.5053 66.2477 70.9852 62.8884V62.8884Z" fill="#E41C3B"/>
<path d="M46.3803 59.3622C54.0071 59.3622 60.1899 53.1559 60.1899 45.5C60.1899 37.8441 54.0071 31.6378 46.3803 31.6378C38.7535 31.6378 32.5708 37.8441 32.5708 45.5C32.5708 53.1559 38.7535 59.3622 46.3803 59.3622Z" fill="#B62337"/>
<path d="M70.9853 62.8884C67.5054 66.2477 63.1259 68.5164 58.3822 69.4173C53.6385 70.3182 48.736 69.8122 44.2742 67.9612C39.8123 66.1101 35.9844 62.9943 33.2583 58.9945C30.5323 54.9947 29.0262 50.2843 28.9242 45.4391C28.8223 40.5939 30.1288 35.8238 32.6842 31.712C35.2395 27.6002 38.9329 24.3248 43.3129 22.2863C47.6929 20.2478 52.5697 19.5344 57.3471 20.2334C62.1245 20.9323 66.5955 23.0134 70.2136 26.2221C70.6076 27.7085 70.5043 29.2837 69.9196 30.7055C69.3349 32.1272 68.3012 33.3169 66.9774 34.0914C65.6535 34.866 64.1129 35.1827 62.5923 34.9927C61.0718 34.8028 59.6554 34.1167 58.5611 33.0401C56.0981 30.6154 52.9725 28.9806 49.5816 28.3436C46.1907 27.7065 42.6877 28.0959 39.5179 29.4624C36.348 30.8288 33.6545 33.1105 31.7797 36.0174C29.9049 38.9243 28.9336 42.3251 28.9891 45.7876C29.0446 49.25 30.1244 52.6177 32.0914 55.4626C34.0584 58.3075 36.8236 60.501 40.0356 61.7643C43.2476 63.0276 46.7613 63.3038 50.13 62.5575C53.4987 61.8113 56.5703 60.0764 58.9544 57.5735C59.9471 56.533 61.2346 55.8243 62.6423 55.5434C64.0499 55.2626 65.5096 55.4232 66.8232 56.0036C68.1368 56.5839 69.2408 57.5558 69.9854 58.7874C70.7299 60.0191 71.079 61.4508 70.9853 62.8884V62.8884Z" fill="#B62337"/>
</g>
<defs>
<clipPath id="clip0_252_603">
<rect width="56" height="63" fill="white" transform="translate(15 14)"/>
</clipPath>
</defs>
</svg>
