<svg width="90" height="90" viewBox="0 0 90 90" fill="none" xmlns="http://www.w3.org/2000/svg">
<circle cx="45" cy="45" r="45" fill="#EFEFEF"/>
<path d="M10.151 52.0098H10.5163C10.3986 52.0527 10.2687 52.0527 10.151 52.0098Z" fill="#FDFDFD"/>
<path d="M70 46.7578V50.8105C70 50.9074 69.9912 51.0026 69.9912 51.0995C69.9912 57.1321 69.9912 63.1652 69.9912 69.1988C69.9912 69.4232 69.9384 69.4759 69.7061 69.4742C53.2559 69.4742 36.8063 69.4742 20.3573 69.4742C20.1267 69.4742 20.0528 69.43 20.0546 69.1903C20.0616 61.0646 20.0616 52.9389 20.0546 44.8131C20.0546 44.5785 20.1179 44.5258 20.3555 44.5258C36.8045 44.5258 53.2541 44.5258 69.7043 44.5258C69.9296 44.5258 69.9982 44.5683 69.993 44.7995C69.9806 45.4574 69.9965 46.1051 70 46.7578Z" fill="#00ADEC"/>
<path d="M22.2666 56.2095C22.249 51.6792 26.1574 47.7438 31.215 47.8356C32.9429 47.8716 34.6212 48.4005 36.0387 49.3559C37.4561 50.3112 38.5494 51.6502 39.1808 53.2044C39.8122 54.7586 39.9536 56.4585 39.5871 58.0902C39.2207 59.7218 38.3627 61.2123 37.1214 62.374C35.88 63.5357 34.3106 64.3167 32.6108 64.6187C30.9109 64.9207 29.1566 64.7302 27.5686 64.0712C25.9806 63.4122 24.6298 62.3141 23.6864 60.9152C22.7429 59.5163 22.2489 57.879 22.2666 56.2095V56.2095Z" fill="#EFEFEF"/>
<path d="M44.2407 49.8484V64.1007C44.2407 64.4679 44.2196 64.4883 43.8342 64.4883H43.7128C43.3608 64.4883 43.3186 64.4577 43.3186 64.1058V49.8773C43.3186 49.4239 43.3186 48.9706 43.3186 48.5173C43.3186 48.2181 43.3608 48.2028 43.6582 48.1773C44.0102 48.1399 44.1861 48.2844 44.348 48.5581C44.9569 49.5781 45.5887 50.5776 46.2081 51.5874C47.0598 52.9712 47.9098 54.3561 48.758 55.7421C49.3681 56.7314 49.9787 57.7208 50.5899 58.7102C51.3923 60.0123 52.1919 61.3156 52.9884 62.6201C53.0248 62.6929 53.0764 62.7577 53.1398 62.8104V62.513C53.1398 57.8664 53.1398 53.2199 53.1398 48.5734C53.1398 48.4459 53.087 48.2674 53.2471 48.2164C53.4588 48.1467 53.6884 48.1467 53.9 48.2164C53.9757 48.2419 53.995 48.3303 54.0109 48.4017C54.0158 48.4583 54.0158 48.5151 54.0109 48.5717C54.0109 52.1983 54.0161 55.8197 54.0267 59.4361C54.0267 60.9762 54.0478 62.5163 54.0584 64.0565C54.0584 64.2265 54.083 64.3965 53.8718 64.4645C53.5815 64.5563 53.2507 64.4645 53.1345 64.2758C52.2851 62.8988 51.4352 61.5224 50.5846 60.1466C49.6367 58.6042 48.6888 57.0607 47.7409 55.516C47.0845 54.4501 46.421 53.3876 45.7647 52.3218C45.3018 51.5738 44.8478 50.8207 44.3885 50.0711C44.3551 50.0218 44.3128 49.964 44.2407 49.8484Z" fill="#EFEFEF"/>
<path d="M58.6707 56.3268V48.5343C58.6707 48.1943 58.69 48.1824 59.0385 48.1824H67.3217C67.4554 48.1824 67.6191 48.1399 67.6736 48.315C67.7162 48.4105 67.7353 48.5143 67.7292 48.6182C67.723 48.7221 67.692 48.8231 67.6384 48.9134C67.5698 49.0069 67.4624 48.9814 67.3604 48.9814H63.774C62.4348 48.9814 61.0974 48.9814 59.7582 48.9814C59.5822 48.9814 59.5242 49.012 59.5242 49.1956C59.5312 51.3556 59.5312 53.5157 59.5242 55.6758C59.5242 55.8457 59.5682 55.8984 59.7512 55.8984C62.0741 55.8916 64.3969 55.8916 66.7198 55.8984C67.026 55.8984 67.0718 55.9562 67.0823 56.2724C67.0823 56.6328 67.033 56.694 66.7198 56.694C64.3899 56.694 62.0582 56.694 59.7283 56.694C59.5224 56.694 59.4766 56.7433 59.4766 56.9388C59.4837 59.1125 59.4837 61.2867 59.4766 63.4615C59.4766 63.6672 59.54 63.7012 59.7336 63.7012C62.2729 63.7012 64.8105 63.7012 67.3481 63.7012C67.7616 63.7012 67.934 63.9341 67.8038 64.3166C67.7933 64.3679 67.7648 64.4142 67.7232 64.4476C67.6815 64.481 67.6292 64.4996 67.575 64.5002H59.0842C58.6918 64.5002 58.683 64.4917 58.683 64.1109L58.6707 56.3268Z" fill="#EFEFEF"/>
<path d="M23.1905 56.23C23.1865 55.2354 23.3867 54.2499 23.7794 53.3305C24.1721 52.4111 24.7495 51.576 25.4784 50.8735C26.2072 50.171 27.073 49.615 28.0256 49.2378C28.9782 48.8605 29.9989 48.6693 31.0284 48.6754C35.4489 48.6856 38.877 52.0566 38.8822 56.3252C38.8902 57.3293 38.6915 58.3249 38.2977 59.2543C37.904 60.1836 37.323 61.0281 36.5886 61.7387C35.8541 62.4493 34.9808 63.0119 34.0194 63.3937C33.058 63.7756 32.0277 63.9691 30.9882 63.963C29.9487 63.9569 28.9208 63.7514 27.9643 63.3583C27.0077 62.9653 26.1416 62.3925 25.4161 61.6734C24.6906 60.9542 24.1202 60.103 23.7382 59.1691C23.3561 58.2352 23.1699 57.2373 23.1905 56.2334V56.23Z" fill="#00ADEC"/>
<path d="M45.5889 18.1115C45.5824 18.0134 45.5969 17.915 45.6314 17.8225C45.666 17.73 45.7198 17.6453 45.7896 17.5737C45.8594 17.5022 45.9438 17.4452 46.0373 17.4065C46.1309 17.3677 46.2317 17.3479 46.3335 17.3484C46.5321 17.3512 46.7219 17.4276 46.8638 17.5619C47.0057 17.6961 47.0888 17.8779 47.0959 18.0696C47.0923 18.2709 47.0079 18.463 46.8606 18.6054C46.7132 18.7478 46.5143 18.8293 46.3059 18.8327C46.1122 18.8277 45.9284 18.7492 45.7942 18.6143C45.66 18.4793 45.5863 18.2987 45.5889 18.1115V18.1115Z" fill="#E07710"/>
<path d="M41.0267 17.4323C41.0398 17.3322 41.0398 17.231 41.0267 17.1309C40.9951 17.0489 40.9615 17.0107 40.7838 17.0107H40.61C40.3216 17.0107 40.2663 17.0107 40.0175 17.0107C39.942 17.0059 39.8669 17.0247 39.8033 17.0642C39.7397 17.1036 39.6908 17.1618 39.6639 17.2301C39.2808 17.9532 38.9075 18.682 38.5204 19.4032C37.6889 20.9543 36.8871 22.5206 36.0714 24.0813C34.9193 26.2842 33.7659 28.4878 32.6112 30.6921C32.5796 30.7531 32.5835 30.8619 32.4868 30.8504C32.4453 30.8504 32.4137 30.7493 32.3821 30.694C31.7007 29.4272 31.0668 28.1355 30.3775 26.8782C29.5598 25.3748 28.8073 23.839 27.9956 22.3299C27.1424 20.7438 26.3116 19.1462 25.5032 17.5373C25.3057 17.1442 25.0766 16.9344 24.6104 17.0183C24.4533 17.0176 24.2963 17.0265 24.1404 17.045C24.0984 17.0573 24.0619 17.0827 24.0365 17.1172C24.0111 17.1518 23.9983 17.1935 24.0002 17.2358V35.2176C24.0851 35.229 24.1147 35.3378 24.2115 35.3301C24.3815 35.3483 24.553 35.3483 24.723 35.3301C24.962 35.2805 24.9798 35.1126 24.9798 34.9142C24.9798 29.548 24.9798 24.1818 24.9798 18.8155L25.0726 18.7888C25.2859 19.1246 25.4676 19.4566 25.6513 19.7924C26.5874 21.5591 27.521 23.327 28.4518 25.0963C28.9337 26.0101 29.4018 26.9297 29.8936 27.8379C30.5908 29.1238 31.2583 30.4231 31.9318 31.7204C31.9641 31.8199 32.0323 31.9049 32.124 31.9599C32.2157 32.0148 32.3248 32.0362 32.4315 32.02C32.5153 32.0085 32.6004 32.0085 32.6843 32.02C32.7865 32.036 32.8914 32.0159 32.9795 31.9633C33.0677 31.9108 33.1332 31.8293 33.1642 31.7338C33.8535 30.3983 34.5467 29.0799 35.2439 27.7501C36.3315 25.6527 37.4183 23.5541 38.5046 21.4541C38.9885 20.525 39.4783 19.5978 39.9661 18.6705C40.0431 18.7678 40.0056 18.8804 40.0056 18.9853C40.0056 24.2625 40.0056 29.541 40.0056 34.8207C40.0056 34.918 39.972 35.0229 40.0412 35.1126C40.0551 35.1648 40.0834 35.2124 40.1231 35.2503C40.1627 35.2883 40.2122 35.3152 40.2663 35.3282C40.4306 35.3874 40.6115 35.3874 40.7759 35.3282V35.3282C41.003 35.2614 41.0326 35.0935 41.0326 34.897C41.026 29.0666 41.024 23.245 41.0267 17.4323Z" fill="#00ADEC"/>
<path d="M46.7996 22.6771V22.4691C46.7996 22.3031 46.7641 22.2631 46.614 22.2631C46.4165 22.2631 46.2032 22.2631 45.9978 22.2631C45.9227 22.2631 45.903 22.2879 45.8832 22.3413C45.8717 22.4618 45.8671 22.5828 45.8694 22.7038C45.8694 26.7561 45.8694 34.9466 45.8694 35.1565C45.8716 35.2044 45.89 35.2503 45.9217 35.2872C45.9534 35.324 45.9968 35.3498 46.0452 35.3606C46.228 35.4181 46.4241 35.4234 46.61 35.3759C46.7167 35.3473 46.7957 35.2843 46.7937 35.1851C46.8016 35.1527 46.7996 26.7752 46.7996 22.6771Z" fill="#00ADEC"/>
<path d="M64.7484 35.0344C64.7484 34.9333 64.7484 34.8436 64.7484 34.7349V22.7172C64.7484 22.6599 64.7484 22.6008 64.7484 22.5436C64.7366 22.2803 64.6299 22.1849 64.3534 22.204C64.2808 22.2222 64.2069 22.235 64.1322 22.2421C63.8696 22.225 63.8123 22.3623 63.8143 22.5817C63.8143 23.5223 63.8143 24.4629 63.8143 25.4035V25.724C63.6839 25.5027 63.5911 25.3424 63.4943 25.1783C62.7097 23.8543 61.4574 22.8478 59.967 22.3432C59.0634 22.0428 58.1091 21.9107 57.1546 21.954C57.0736 22.0265 56.9788 21.9846 56.8899 21.9884C56.6707 22.0151 56.4475 22.0246 56.2322 22.0704C55.2216 22.2708 54.2647 22.6709 53.4218 23.2457C52.5339 23.8663 51.8072 24.6774 51.2987 25.6152C50.8074 26.4875 50.5367 27.4596 50.5087 28.4523V29.1963C50.5363 29.5149 50.5659 29.8317 50.6252 30.1503C50.835 31.2472 51.3259 32.2759 52.0532 33.1424C52.7805 34.0089 53.7209 34.6857 54.7885 35.1108C56.2325 35.6993 57.8362 35.8152 59.3547 35.4408C60.7522 35.1139 61.9948 34.3417 62.8821 33.2487C63.2094 32.8319 63.5089 32.3954 63.7787 31.9418V32.1764C63.7787 33.0083 63.7787 33.842 63.7787 34.6757C63.7871 35.2393 63.7207 35.8017 63.5812 36.349C63.1369 38.0184 62.0822 39.1478 60.3857 39.7068C59.3188 40.0389 58.1889 40.1379 57.0775 39.9968C55.8886 39.8984 54.7576 39.4578 53.8306 38.7319C53.1882 38.2586 52.7364 37.584 52.5528 36.824C52.4244 36.2517 52.5331 36.2917 51.8754 36.2898C51.8497 36.2917 51.824 36.2917 51.7984 36.2898C51.6759 36.2726 51.6285 36.3432 51.6009 36.4386V36.7324C51.6493 37.115 51.7705 37.4856 51.9583 37.8257C52.4817 38.8178 53.3132 39.5141 54.3165 40.0312C55.193 40.4969 56.1629 40.7754 57.1605 40.8477C57.2494 40.8477 57.3442 40.8096 57.4251 40.8821C57.9821 40.8649 58.5371 40.9088 59.096 40.8382C60.0886 40.7289 61.0466 40.4202 61.9084 39.9319C62.834 39.4034 63.58 38.6257 64.0552 37.694C64.4247 36.9526 64.6541 36.1533 64.7327 35.334C64.7208 35.2367 64.6694 35.1279 64.7484 35.0344ZM57.6503 34.7006C54.2612 34.7006 51.514 32.2089 51.508 28.7442C51.5041 27.9635 51.6609 27.1899 51.9694 26.4683C52.2779 25.7468 52.7319 25.0917 53.305 24.5413C53.8781 23.9909 54.5588 23.5561 55.3075 23.2622C56.0562 22.9684 56.858 22.8214 57.6661 22.8297C61.0888 22.8297 63.8162 25.3729 63.8162 28.8109C63.8214 29.5914 63.6649 30.365 63.356 31.0862C63.047 31.8073 62.5919 32.4616 62.0174 33.0103C61.4429 33.5591 60.7606 33.9913 60.0106 34.2816C59.2606 34.5719 58.4581 34.7143 57.6503 34.7006V34.7006Z" fill="#00ADEC"/>
</svg>
