<svg width="90" height="90" viewBox="0 0 90 90" fill="none" xmlns="http://www.w3.org/2000/svg">
<circle cx="45" cy="45" r="45" fill="#EFEFEF"/>
<path d="M67.8055 17.5687L25.7501 74.6087C25.6199 74.7832 25.4359 74.9089 25.2274 74.9659C25.0188 75.0229 24.7974 75.0081 24.598 74.9238C24.3987 74.8394 24.2327 74.6903 24.1263 74.5C24.0199 74.3097 23.979 74.0889 24.0102 73.8725L30.0637 33.2049C30.7751 28.4186 33.1597 24.0496 36.7839 20.8923C40.4081 17.735 45.0313 15.999 49.8129 16H67.0446C67.2234 16.0023 67.3981 16.0548 67.5492 16.1515C67.7004 16.2482 67.8221 16.3854 67.9009 16.5479C67.9797 16.7103 68.0125 16.8917 67.9957 17.0719C67.9789 17.2521 67.913 17.4241 67.8055 17.5687Z" fill="#A2B713"/>
</svg>
