<svg width="90" height="90" fill="none" xmlns="http://www.w3.org/2000/svg"><circle cx="45" cy="45" r="45" fill="#F5F5F5"/><path d="M59.807 18.507s-20.396-9.3-37.708 6.122c-3.08 7.187.867 5.234.867 5.234s7.044-8.06 21.787-8.203c14.744-.142 14.5 1.74 14.5 1.74s2.996-.74.554-4.893c0 0-20.396-9.3-37.708 6.122-3.08 7.187.867 5.234.867 5.234s7.044-8.06 21.787-8.203c14.744-.142 14.5 1.74 14.5 1.74s2.996-.74.554-4.893Z" fill="url(#a)"/><path d="M25.75 33.162s27.303-11.43 46.174-2.323c1.869 4.542-6.01 4.56-6.01 4.56s-10.63-3.619-31.582 1.116c-11.042 2.93-16.263 8.263-16.263 8.263s-3.545 2.689-3.1-4.312c-.333-2.814 10.781-7.302 10.781-7.302s27.303-11.43 46.174-2.323c1.869 4.541-6.01 4.56-6.01 4.56s-10.63-3.62-31.582 1.115c-11.042 2.93-16.263 8.262-16.263 8.262s-3.545 2.689-3.1-4.312c-.333-2.814 10.781-7.302 10.781-7.302v-.002Z" fill="url(#b)"/><path d="M70.353 50.008s4.943-3.146 5.611-4.346c.294-.907-1.192-4.007-5.438-4.233-13.823.216-35.497-.69-48.111 6.593-1.23 1.6-8.106 3.4-5.92 8.626 2.596 4.52 3.995 3.984 3.995 3.984s.936-4.02 1.954-4.126c1.02-.108 7.587-10.717 38.592-8.814 6.168.402 9.316 2.314 9.316 2.314s4.944-3.146 5.612-4.345c.294-.907-1.192-4.007-5.438-4.234-13.823.216-35.497-.69-48.111 6.593-1.23 1.6-8.106 3.4-5.92 8.627 2.596 4.52 3.995 3.983 3.995 3.983s.936-4.017 1.954-4.124c1.02-.108 7.587-10.717 38.592-8.814 6.168.402 9.316 2.314 9.316 2.314l.001.002Z" fill="url(#c)"/><path d="M67.66 63.84s3.317-2.097 4.202-3.314c.901-.732-2.042-3.254-2.36-3.1-.318.154-30.656-2.85-38.516 2.444-3.636 2.576-4.595 4.445-4.595 4.445s7.28 2.306 8.89 2.253c1.605-.055 5.372-6.446 22.517-5.218 4.269.662 9.861 2.49 9.861 2.49s3.318-2.096 4.203-3.312c.901-.733-2.042-3.255-2.36-3.1-.318.153-30.656-2.85-38.516 2.444-3.636 2.574-4.595 4.443-4.595 4.443s7.28 2.306 8.89 2.253c1.605-.055 5.372-6.446 22.517-5.218 4.269.662 9.861 2.49 9.861 2.49Z" fill="url(#d)"/><path d="M45.982 35.621c7.77 0 14.07 6.253 14.07 13.965 0 7.71-6.3 13.963-14.07 13.963-7.772 0-14.074-6.251-14.074-13.963 0-7.712 6.302-13.965 14.074-13.965 7.77 0 14.07 6.253 14.07 13.965 0 7.71-6.3 13.963-14.07 13.963-7.772 0-14.074-6.251-14.074-13.963 0-7.712 6.302-13.965 14.074-13.965Z" fill="#FEFEFE" stroke="#2E2E2D" stroke-width=".7"/><path d="M45.982 36.305c7.35 0 13.313 5.948 13.313 13.281 0 7.335-5.963 13.281-13.315 13.281-7.351 0-13.313-5.946-13.313-13.28s5.962-13.282 13.315-13.282c7.35 0 13.313 5.948 13.313 13.281 0 7.335-5.963 13.281-13.315 13.281-7.351 0-13.313-5.946-13.313-13.28s5.962-13.282 13.315-13.282Z" fill="#ECC02F"/><path d="M42.856 55.496V40.967h4.715c1.788 0 2.955.074 3.496.221.834.216 1.537.69 2.1 1.42.563.73.843 1.674.843 2.827 0 .894-.16 1.644-.487 2.25-.326.608-.735 1.087-1.238 1.434a4.248 4.248 0 0 1-1.523.688c-.702.138-1.719.21-3.052.21h-1.915v5.479h-2.939V40.967h4.715c1.788 0 2.955.074 3.496.221.834.216 1.537.69 2.1 1.42.563.73.843 1.674.843 2.827 0 .894-.16 1.644-.487 2.25-.326.608-.735 1.087-1.238 1.434a4.248 4.248 0 0 1-1.523.688c-.702.138-1.719.21-3.052.21h-1.915v5.479h-2.939Zm2.939-12.07v4.12h1.607c1.16 0 1.937-.073 2.326-.226a1.93 1.93 0 0 0 .92-.714c.22-.323.332-.7.332-1.13 0-.526-.156-.965-.47-1.31a2.029 2.029 0 0 0-1.179-.643c-.352-.066-1.057-.096-2.114-.096h-1.422v4.12h1.607c1.16 0 1.937-.074 2.326-.227a1.93 1.93 0 0 0 .92-.714c.22-.323.332-.7.332-1.13 0-.526-.156-.965-.47-1.31a2.029 2.029 0 0 0-1.179-.643c-.352-.066-1.057-.096-2.114-.096h-1.422Z" fill="#FEFEFE"/><path d="M40.715 47.535h2.944v2.439h-2.942v-2.44h2.942v2.44h-2.942v-2.44h-.002Zm.03 3.26H52.67v2.436H40.744v-2.436h11.927v2.436H40.744v-2.436Z" fill="#FEFEFE"/><path d="M45.793 58.559v-7.241h-2.946v7.24h2.948v-7.24h-2.948v7.24h2.948-.002Z" fill="#FEFEFE"/><path d="M15.079 40.05s-1.511 4.29-.374 10.023c1.14 5.737 33.21 21.74 59.906 4.471 1.367-4.993 1.355-8.88 1.355-8.88s-8.676 8.891-32.083 8.145c-22.478-1.25-29.949-12.66-28.804-13.76 0 0-1.508 4.29-.371 10.024 1.138 5.737 33.209 21.74 59.905 4.47 1.366-4.994 1.354-8.88 1.354-8.88s-8.675 8.89-32.083 8.144C21.405 52.56 13.934 41.148 15.08 40.05Z" fill="url(#e)"/><path d="M16.457 56.495s2.97 14.507 24.105 17.92c21.137 3.416 32.147-13.212 31.299-13.889-.85-.679-7.315 10.729-34.396 6.101-17.334-3.012-21.008-10.132-21.008-10.132s2.97 14.507 24.105 17.92c21.137 3.416 32.147-13.212 31.299-13.889-.85-.679-7.315 10.729-34.396 6.101-17.334-3.012-21.008-10.132-21.008-10.132Z" fill="url(#f)"/><path d="M37.285 29.762c.401.518 12.14 4.23 24.308-.832 9.5-4.529-.602-10.289-1.788-10.423.304 1.052 2.437 3.98-1.357 5.224-3.792 1.246-11.365 2.323-16.729.678-6.32-1.051-6.814 3.496-4.434 5.353.401.518 12.14 4.23 24.308-.832 9.5-4.529-.602-10.289-1.788-10.423.304 1.052 2.437 3.98-1.357 5.224-3.792 1.246-11.365 2.323-16.729.678-6.32-1.051-6.814 3.496-4.434 5.353Z" fill="url(#g)"/><path d="M22.114 24.617s-9.438 8.006 2.061 14.858c11.5 6.852 37.288 8.677 50.73-.728-.455-5.11-2.983-7.909-2.983-7.909s-1.498 6.901-25.139 7.44c-22.373-.326-25.855-9.044-24.669-13.66 0 0-9.438 8.005 2.061 14.857 11.5 6.852 37.288 8.677 50.73-.728-.455-5.11-2.983-7.909-2.983-7.909s-1.498 6.901-25.139 7.44c-22.373-.326-25.855-9.044-24.669-13.66Z" fill="url(#h)"/><defs><linearGradient id="a" x1="57.976" y1="35.67" x2="52.926" y2="6.821" gradientUnits="userSpaceOnUse"><stop stop-color="#87A053"/><stop offset=".459" stop-color="#839B3E"/><stop offset="1" stop-color="#61A452"/></linearGradient><linearGradient id="b" x1="65.337" y1="48.592" x2="59.531" y2="15.275" gradientUnits="userSpaceOnUse"><stop stop-color="#788F4B"/><stop offset=".51" stop-color="#839B40"/><stop offset="1" stop-color="#76A84F"/></linearGradient><linearGradient id="c" x1="65.752" y1="65.708" x2="60.513" y2="27.834" gradientUnits="userSpaceOnUse"><stop stop-color="#7E964F"/><stop offset=".471" stop-color="#839B40"/><stop offset="1" stop-color="#76A84F"/></linearGradient><linearGradient id="d" x1="72.033" y1="69.692" x2="69.226" y2="48.438" gradientUnits="userSpaceOnUse"><stop stop-color="#6D8146"/><stop offset=".431" stop-color="#839B40"/><stop offset="1" stop-color="#6E9C4A"/></linearGradient><linearGradient id="e" x1="76.337" y1="42.345" x2="58.991" y2="79.974" gradientUnits="userSpaceOnUse"><stop stop-color="#B9CC54"/><stop offset="1" stop-color="#7DA647"/></linearGradient><linearGradient id="f" x1="71.296" y1="67.708" x2="31.773" y2="40.881" gradientUnits="userSpaceOnUse"><stop stop-color="#B9CC54"/><stop offset="1" stop-color="#7DA647"/></linearGradient><linearGradient id="g" x1="65.508" y1="31.167" x2="56.267" y2="11.28" gradientUnits="userSpaceOnUse"><stop stop-color="#B9CC54"/><stop offset="1" stop-color="#7DA647"/></linearGradient><linearGradient id="h" x1="19.598" y1="45.976" x2="31.242" y2="10.319" gradientUnits="userSpaceOnUse"><stop stop-color="#7DA647"/><stop offset="1" stop-color="#B9CC54"/></linearGradient></defs></svg>