<svg width="90" height="90" viewBox="0 0 90 90" fill="none" xmlns="http://www.w3.org/2000/svg">
<circle cx="45" cy="45" r="45" fill="#EFEFEF"/>
<g clip-path="url(#clip0_578_427)">
<path d="M26.5624 44.6932C26.9925 44.0742 27.4467 43.4701 27.8464 42.8321C29.4832 40.222 30.7975 37.4451 32.0094 34.6132C32.114 34.3723 32.1454 34.0935 32.2825 33.8791C32.3872 33.7185 32.6121 33.5231 32.7702 33.5337C33.5826 33.5679 34.3674 33.8406 35.0285 34.3185C35.355 34.5614 35.4555 34.8466 35.3121 35.2079C34.9688 36.0751 34.6267 36.9433 34.2583 37.8C33.6509 39.1969 33.2127 40.6627 32.9533 42.1656C32.9125 42.4085 32.9533 42.6652 32.9533 42.9155L33.0883 42.9483C33.4138 42.5258 33.7424 42.1149 34.0615 41.6923C35.1572 40.2452 36.1681 38.7348 36.9269 37.0838C37.3622 36.1332 37.6677 35.1234 38.0298 34.14C38.057 34.0671 38.0696 33.9879 38.0916 33.9118C38.3009 33.1914 38.4913 33.0573 39.1883 33.2643C39.8277 33.4544 40.4378 33.7248 40.9255 34.215C41.1976 34.4854 41.2562 34.7737 41.1023 35.1424C40.1961 37.312 39.6425 39.5851 39.2427 41.8951C39.1538 42.4064 39.0795 42.9683 39.4112 43.4711C39.4709 43.562 39.429 43.8355 39.3484 43.8862C38.6033 44.3563 37.8038 44.6806 36.909 44.4397C36.0342 44.2052 35.7244 43.3253 35.7935 42.3694C35.8267 42.0159 35.884 41.6651 35.9651 41.3195C36.0373 40.9783 36.1367 40.6435 36.2435 40.2336C35.6355 41.123 35.1112 41.9723 34.5042 42.7571C33.7769 43.6993 32.9994 44.6045 32.2019 45.4897C31.6012 46.1572 31.0822 46.2037 30.3182 45.7263C30.0317 45.5429 29.7691 45.3239 29.5365 45.0745C29.1441 44.6584 28.8772 44.1957 29.1525 43.581C29.2686 43.3211 29.3105 43.0275 29.3879 42.7497C29.4654 42.4719 29.5449 42.2057 29.6527 41.8328C29.0321 42.736 28.5068 43.5778 27.904 44.3584C27.1589 45.3207 26.3531 46.2375 25.563 47.1639C25.2909 47.4808 24.9435 47.5515 24.5343 47.4258C23.8264 47.2279 23.1957 46.8157 22.727 46.2449C22.5041 45.9692 22.4245 45.6756 22.548 45.327C22.997 44.0595 23.4899 42.8152 23.8729 41.5318C24.55 39.2397 25.1601 36.9264 25.7911 34.6206C25.9543 34.0527 26.0663 33.4712 26.126 32.883C25.902 33.4016 25.6938 33.9287 25.4521 34.4389C24.4171 36.6222 23.4083 38.8182 22.3189 40.9741C21.5204 42.5585 20.6602 44.1102 19.7382 45.6217C18.8602 47.0572 17.8294 48.387 16.3811 49.3092C15.4047 49.9313 14.3687 50.3 13.1914 50.0729C11.7545 49.7961 10.7415 48.2772 11.0575 46.8406C11.1065 46.624 11.229 46.4316 11.4039 46.2967C12.2233 45.7632 13.0637 45.2615 13.903 44.7608C14.0296 44.6848 14.1939 44.6721 14.4262 44.6066C14.4159 44.8296 14.3925 45.0519 14.3561 45.2721C14.1656 46.1055 14.3446 46.8417 14.9296 47.4586C15.4329 47.9867 16.0807 48.0733 16.7138 47.6931C17.6065 47.1586 18.1789 46.3199 18.7179 45.4611C20.1602 43.1873 21.3118 40.7384 22.1451 38.1728C22.9551 35.6906 23.5464 33.1608 23.762 30.5486C23.8949 28.9262 23.9284 27.3132 23.5318 25.7161C23.4051 25.2112 23.5872 25.0327 24.1209 25.0116C24.8935 24.9721 25.6628 25.1378 26.352 25.4922C26.5341 25.5862 26.7466 25.8704 26.7351 26.0531C26.6859 26.8242 26.6304 27.6079 26.442 28.3547C25.9847 30.2138 25.4573 32.0517 24.9592 33.9044C24.9529 33.9266 24.9665 33.9541 24.9916 34.0819C25.2553 33.4365 25.5148 32.8819 25.7095 32.3042C26.216 30.7726 26.7023 29.2339 27.1683 27.6882C27.252 27.4146 27.4142 27.3027 27.6392 27.3196C28.5811 27.3893 29.5135 27.4949 30.3507 27.9776C30.8624 28.2723 30.9713 28.603 30.7379 29.1343C29.3126 32.3792 28.4356 35.8004 27.5743 39.2249C27.1641 40.8547 26.8272 42.4993 26.463 44.1429C26.4376 44.3058 26.4243 44.4703 26.4232 44.6351L26.5624 44.6932Z" fill="#FEC435"/>
<path d="M39.4991 53.4234L40.0109 53.2121C39.9753 53.3938 39.947 53.5121 39.9303 53.6346C39.8863 53.9399 40.0558 54.1057 40.3101 53.9589C41.252 53.4181 42.1729 52.8582 42.5078 51.7006C42.8615 50.4901 43.255 49.2923 43.6349 48.0913C43.863 47.3677 44.0807 47.2293 44.786 47.4829C45.3871 47.6908 45.9688 47.952 46.5242 48.2634C46.9847 48.5296 46.9868 48.7599 46.7241 49.2141C46.0659 50.3485 45.6849 51.5949 45.3888 52.8582C45.0654 54.2388 44.8216 55.6384 44.583 57.0369C44.5432 57.2693 44.7211 57.5365 44.7776 57.7921C44.812 57.9055 44.8054 58.0276 44.7588 58.1364C44.3182 58.7808 42.7705 59.1716 42.0683 58.8589C41.3357 58.5326 41.005 57.6104 41.1327 56.7707C41.2656 55.8919 41.5366 55.0342 41.748 54.168C41.7595 54.1226 41.7784 54.0793 41.8192 53.9568C40.9307 54.6962 40.2819 55.7524 38.8974 55.5021C38.5761 56.8425 38.1481 58.2252 38.5771 59.6807C38.7498 60.2659 38.7697 60.268 38.2015 60.5405C37.9667 60.6557 37.7213 60.7477 37.4689 60.8152C35.9473 61.2102 35.3121 60.193 35.1258 58.8642C35.0913 58.6255 35.1258 58.3773 35.0421 58.1122C34.8569 58.4047 34.6727 58.6984 34.4843 58.9899C33.5059 60.5036 32.474 61.9739 31.0508 63.1094C30.4606 63.5805 29.8086 63.9597 29.0426 63.9882C27.4247 64.0474 26.0077 62.6869 25.8487 60.9768C25.7325 59.6966 25.9837 58.4618 26.3133 57.2376C26.688 55.8486 27.1505 54.4965 27.9772 53.304C28.5026 52.5325 29.1557 51.8583 29.908 51.3108C30.1215 51.1644 30.3604 51.0601 30.6123 51.0034C31.6113 50.7726 32.6494 50.7755 33.6471 51.0119C34.0605 51.1206 34.4583 51.2824 34.8307 51.4935C35.2148 51.6995 35.3749 52.0692 35.3874 52.5149C35.4534 54.8778 33.7246 57.4964 31.5374 58.3562C30.8363 58.6318 30.1173 58.6572 29.3597 58.5885C29.1849 59.554 29.0394 60.512 29.2445 61.4817C29.3764 62.106 29.6568 62.2274 30.2356 61.9729C31.8995 61.2387 33.0046 59.9026 33.9538 58.4195C35.5172 55.9785 36.5522 53.304 37.268 50.4975C37.3287 50.2155 37.3731 49.9301 37.4009 49.6429C37.4658 49.156 37.6939 48.9469 38.1753 48.9384C38.9274 48.9206 39.6577 49.1942 40.216 49.7031C40.5153 49.9641 40.6346 50.2735 40.4943 50.6538C40.2191 51.4175 39.9345 52.178 39.6571 52.9396C39.61 53.0748 39.5692 53.211 39.4991 53.4234ZM29.525 57.7298C31.0215 57.3865 32.9952 53.5047 32.5274 51.8146C30.9095 53.4878 30.222 55.5739 29.525 57.7298Z" fill="#FEC435"/>
<path d="M54.9412 39.001C54.3823 39.7879 53.7188 40.5949 52.867 41.2191C52.2307 41.6881 51.5495 41.9913 50.751 41.7399C49.783 41.4346 49.3152 40.6994 49.1739 39.733C49.1342 39.4625 49.1677 39.1816 49.1049 38.8668C49.0096 39.0189 48.9238 39.1784 48.8202 39.3231C47.9025 40.597 46.8853 41.7684 45.5615 42.6377C44.6437 43.2419 43.6579 43.6771 42.5737 43.8387C40.9946 44.0753 40.0872 43.0454 39.991 41.5825C39.8926 40.0784 40.666 38.9978 41.8454 38.1866C43.1012 37.3194 44.4082 36.5145 45.6473 35.6188C46.2971 35.1477 46.8581 34.5488 47.4389 33.9868C47.5435 33.8812 47.554 33.6826 47.6073 33.5273C47.4535 33.4882 47.2934 33.4059 47.1469 33.4217C46.158 33.4914 45.2779 33.8928 44.4804 34.4495C43.8525 34.8878 43.2874 35.4202 42.6794 35.8902C42.4879 36.0381 42.2472 36.1205 42.0296 36.2335C42.0296 35.9959 41.972 35.7339 42.0494 35.5237C42.354 34.6871 42.6773 33.8569 43.0488 33.0467C43.1357 32.8534 43.3868 32.6844 43.6003 32.6094C44.7331 32.2085 45.9183 31.9783 47.1176 31.926C47.6 31.9086 48.0829 31.9383 48.5597 32.0148C49.2367 32.1204 49.5831 32.6559 49.5214 33.4513C49.4401 34.5131 49.0133 35.518 48.3075 36.3096C47.7078 36.994 47.0004 37.5877 46.3076 38.1813C45.5321 38.8446 44.718 39.4615 43.9226 40.1005C43.3115 40.5906 43.1556 41.122 43.4528 41.8825C43.9289 41.7061 44.427 41.5656 44.8875 41.3448C46.5703 40.541 47.8072 39.2196 48.9343 37.7641C49.5277 36.9972 49.9201 36.1321 50.3303 35.2681C50.9295 34.0377 51.6991 32.8996 52.6159 31.888C53.7335 30.6278 55.2321 30.4736 56.7934 31.4105L56.918 31.4803C57.0781 31.2213 57.251 30.9707 57.436 30.7292C57.5283 30.6061 57.6629 30.5222 57.8133 30.494C57.9638 30.4659 58.1192 30.4955 58.2491 30.5772C58.3768 30.6437 58.5097 30.6976 58.6353 30.7683C59.7519 31.3926 59.9392 32.1637 59.4233 33.4302C58.951 34.5962 58.5388 35.7861 58.1884 36.9951C58.0471 37.4789 58.0765 38.0376 58.1371 38.5499C58.202 39.1013 58.3611 39.1436 58.8289 38.814C59.6849 38.2088 60.3568 37.4123 60.9124 36.5367C61.3446 35.8564 61.6669 35.1043 62.0186 34.3745C62.1452 34.1104 62.2342 33.7523 62.5617 33.7851C62.8627 33.8265 63.1407 33.9703 63.3497 34.1928C63.806 34.7009 63.8217 35.2248 63.4606 35.8258C62.5439 37.3532 61.331 38.5901 59.7728 39.4414C59.1287 39.7799 58.4559 40.0595 57.7625 40.277C57.1126 40.4882 56.4408 40.3541 55.8788 40.0065C55.5115 39.772 55.2624 39.3559 54.9412 39.001ZM56.6742 32.3549C56.352 32.2987 56.0213 32.3196 55.7085 32.4157C55.3957 32.5118 55.1097 32.6805 54.8731 32.9084C54.0297 33.6647 53.4426 34.6142 52.9539 35.624C52.4819 36.6 52.1219 37.6193 52.2475 38.7327C52.282 39.0348 52.4453 39.321 52.5614 39.6432C53.7251 39.0855 54.3405 38.1644 54.9035 37.1905C55.7543 35.7054 55.9364 33.9773 56.6731 32.3549H56.6742Z" fill="#FEC435"/>
<path d="M22.7092 56.7707C23.2754 54.187 22.8044 51.8579 21.2996 49.7623C20.8593 49.1194 20.2521 48.6114 19.5446 48.2941C19.2966 48.1884 19.2725 47.9296 19.5101 47.636C19.8847 47.1733 20.3923 46.9209 20.9438 46.7181C21.8636 46.3801 22.569 46.8121 23.246 47.3307C24.7739 48.5032 25.5902 50.1182 25.8623 51.9879C26.4253 55.857 25.7493 59.5445 24.0424 63.0355C23.2638 64.6283 22.2958 66.0902 20.7784 67.0947C19.7319 67.7866 18.5892 68.151 17.3606 67.9398C15.9426 67.6926 15.028 66.7652 14.5832 65.3941C14.1154 63.9534 14.3467 62.5316 14.7925 61.1321C15.3367 59.4325 16.2388 57.9801 17.7227 56.9534C19.0716 56.0186 20.5032 55.6542 22.0646 56.402C22.2676 56.5024 22.4612 56.6313 22.7092 56.7707ZM17.4673 64.002C17.4726 65.0762 17.596 65.8441 18.1454 66.4779C18.4657 66.8476 18.5745 66.8634 18.9544 66.5581C19.6775 65.9793 20.1338 65.1987 20.5315 64.3801C21.4199 62.5496 21.9421 60.6018 22.3586 58.6171C22.4225 58.3107 22.3649 58.1946 22.0656 58.1238C20.9019 57.8418 20.0616 58.4354 19.3447 59.2054C18.0147 60.6177 17.6212 62.4059 17.4632 64.002H17.4673Z" fill="#FEC435"/>
<path d="M64.7133 44.4598C64.7314 44.333 64.7633 44.2087 64.8085 44.089C65.8498 42.0525 66.8262 39.9844 67.4792 37.7862C67.9585 36.1723 68.0527 36.5546 66.7236 35.6959C66.0099 35.2343 65.2585 34.8297 64.5354 34.3872C64.4129 34.3132 64.3261 34.1759 64.2277 34.0703C64.3453 33.9857 64.4721 33.9148 64.6055 33.859C66.0155 33.4365 67.4269 33.0203 68.8396 32.6105C68.9925 32.5729 69.1323 32.4941 69.2442 32.3824C69.3561 32.2708 69.4358 32.1306 69.4748 31.9767C69.9046 30.4754 70.3326 28.973 70.7589 27.4696C70.766 27.4041 70.7815 27.3399 70.8049 27.2784C70.8824 27.1516 70.9755 27.0333 71.0624 26.9129C71.1775 27.0038 71.3282 27.0724 71.4014 27.1907C72.1706 28.4276 72.9366 29.6666 73.6796 30.9204C73.8303 31.174 73.9936 31.2373 74.25 31.1792C75.6823 30.8497 77.116 30.5236 78.5511 30.2011C78.6825 30.1868 78.8151 30.1868 78.9466 30.2011L79 30.3067C78.8757 30.4623 78.743 30.6108 78.6023 30.7514C77.2942 31.9218 75.9861 33.0922 74.6654 34.2498C74.4614 34.4283 74.4415 34.5921 74.5147 34.8371C74.9611 36.2719 75.1753 37.7699 75.1489 39.2735C75.1438 39.6034 75.1144 39.9324 75.061 40.2579C75.038 40.3921 74.9333 40.5748 74.8224 40.615C74.7115 40.6551 74.5273 40.5611 74.4342 40.466C73.5687 39.5862 72.6551 38.7665 71.616 38.101C71.302 37.8993 71.1063 37.9679 70.8834 38.2204C69.5355 39.7224 68.1897 41.2276 66.8188 42.7096C66.2956 43.2757 65.7127 43.788 65.1507 44.3183C65.0444 44.4021 64.9309 44.4763 64.8117 44.5401L64.7133 44.4598Z" fill="#FEC435"/>
<path d="M54.9736 53.4868C54.9035 53.7751 54.8982 54.1026 54.7528 54.3445C53.7063 56.0937 52.2757 57.3644 50.2382 57.7742C47.9799 58.2284 46.5326 56.9545 46.1129 54.9444C45.8618 53.7392 46.1799 52.5931 46.5064 51.4524C46.9669 49.8394 47.5142 48.255 48.6507 46.9822C49.1381 46.4159 49.7017 45.9213 50.3251 45.5129C50.7259 45.2636 51.2931 45.2415 51.7902 45.2066C52.7194 45.1422 53.6414 45.2119 54.511 45.608C55.2802 45.9587 55.523 46.2956 55.4529 47.1438C55.2561 49.399 53.7576 51.7048 51.4993 52.4696C51.1761 52.5743 50.8416 52.6389 50.503 52.6618C50.1828 52.6872 49.8562 52.6407 49.49 52.6238C49.243 53.8723 48.9992 55.1346 49.1384 56.4327C49.1855 56.8753 49.2817 56.8996 49.7045 56.8088C50.9331 56.5447 51.988 55.9637 52.7477 54.9592C53.1339 54.448 53.385 53.8195 53.6362 53.2185C53.8643 52.6703 54.2641 52.5699 54.6701 53.0209C54.7643 53.1266 54.8627 53.2269 54.9589 53.3304C54.96 53.3822 54.9663 53.435 54.9736 53.4868ZM49.6825 51.7238L49.7872 51.8464C50.0833 51.6467 50.4255 51.4936 50.6683 51.2422C51.7849 50.0803 52.3302 48.6279 52.7027 47.0942C52.7728 46.8058 52.7603 46.4963 52.7864 46.1964L52.6493 46.1668C51.0964 47.71 50.3889 49.7169 49.6825 51.7238Z" fill="#FEC435"/>
<path d="M26.4337 51.4016L25.5138 48.9036C26.0653 48.7187 26.6461 48.4958 27.2416 48.329C29.3241 47.7459 31.3993 47.1353 33.4985 46.6262C35.3822 46.1699 37.2942 45.8256 39.1967 45.4485C40.5634 45.1767 41.9326 44.9207 43.3042 44.6806C44.9074 44.3964 46.52 44.163 48.118 43.8503C50.0331 43.4743 51.9524 43.0951 53.8423 42.6103C55.6434 42.1497 57.4318 41.6152 59.1847 40.9952C61.426 40.214 63.5441 39.1112 65.4741 37.7207C65.5631 37.6553 65.81 37.6489 65.854 37.7102C65.9869 37.895 65.967 38.0989 65.7431 38.2457C64.9896 38.7411 64.2581 39.2745 63.4837 39.7361C60.0093 41.8033 56.2179 43.0729 52.3574 44.1471C50.2759 44.727 48.1714 45.234 46.0784 45.7506C42.9693 46.5174 39.8392 47.203 36.7489 48.0374C34.1725 48.7324 31.6347 49.5754 29.0918 50.3866C28.1782 50.6739 27.297 51.0668 26.4337 51.4016Z" fill="#FEC435"/>
<path d="M54.9736 53.4867C54.9663 53.435 54.96 53.3811 54.9527 53.3304C54.7329 52.2297 55.0992 51.2717 55.7961 50.4784C56.987 49.1327 58.2606 47.8631 59.4787 46.5417C60.3222 45.627 61.1395 44.6869 61.9464 43.7394C62.0939 43.5672 62.1389 43.3053 62.231 43.0845C61.9704 43.1067 61.6879 43.0687 61.4545 43.1595C60.3536 43.582 59.5886 44.4418 58.8896 45.3492C58.3286 46.0748 57.8326 46.8501 57.2968 47.5948C57.2058 47.7216 57.0415 47.9033 56.9389 47.8853C56.8123 47.8642 56.6616 47.6814 56.6145 47.5367C56.47 47.1014 56.3533 46.6572 56.2649 46.2069C56.1781 45.7505 56.3288 45.3555 56.6543 45.0164C57.954 43.6655 59.4254 42.5764 61.2347 42.0409C61.6837 41.9089 62.2027 41.8296 62.6496 41.9215C63.515 42.1022 63.9483 42.7866 64.01 43.7172C64.0854 44.8178 63.5915 45.6903 62.9238 46.4635C61.5634 48.0564 60.1506 49.6113 58.765 51.1872C58.224 51.8009 57.7112 52.4326 57.6264 53.2998C57.5678 53.904 57.5992 53.961 58.1863 54.0201C59.2223 54.1258 60.0637 53.6557 60.8256 53.0325C61.8982 52.1548 62.5 50.9717 62.884 49.6525C62.951 49.4243 63.1477 49.2299 63.2848 49.0282C63.4941 49.1782 63.7756 49.2838 63.9127 49.4855C64.5249 50.3528 64.4014 51.6657 63.6595 52.4326C62.3901 53.7455 60.9386 54.7786 59.1501 55.2169C58.1267 55.4662 57.077 55.5148 56.1907 54.8293C55.726 54.4733 55.3786 53.943 54.9736 53.4867Z" fill="#FEC435"/>
<path d="M20.9375 50.6506C21.5319 51.4608 21.8228 52.328 22.007 53.2343C22.0238 53.3156 21.916 53.4719 21.8281 53.5163C18.7593 55.0747 15.8653 56.9611 13.1956 59.1431C12.8921 59.3913 12.6032 59.6596 12.2882 59.891C12.1689 59.9776 11.991 59.985 11.8403 60.0283C11.8403 59.8941 11.7964 59.7515 11.8288 59.6279C12.2924 57.8566 13.0114 56.2109 14.1803 54.7849C14.7439 54.0929 15.4387 53.5215 16.2241 53.1044C17.7907 52.2752 19.3604 51.4693 20.9375 50.6506Z" fill="#FEC435"/>
</g>
<defs>
<clipPath id="clip0_578_427">
<rect width="68" height="43" fill="white" transform="translate(11 25)"/>
</clipPath>
</defs>
</svg>
