<svg width="90" height="90" fill="none" xmlns="http://www.w3.org/2000/svg"><g clip-path="url(#a)"><circle cx="45" cy="45" r="45" fill="#F5F5F5"/><path d="M32.034 62V27.09H55.2v6.086H39.415v6.818h5.676c2.761 0 5.142.45 7.142 1.347 2.011.886 3.563 2.142 4.653 3.767 1.091 1.625 1.637 3.54 1.637 5.744 0 2.194-.546 4.131-1.637 5.813-1.09 1.67-2.642 2.977-4.653 3.92-2 .943-4.38 1.415-7.142 1.415H32.034Zm7.38-5.932h5.677c1.318 0 2.432-.238 3.34-.716.91-.488 1.597-1.13 2.063-1.926a5.095 5.095 0 0 0 .716-2.642c0-1.386-.528-2.557-1.585-3.511-1.045-.966-2.557-1.45-4.534-1.45h-5.676v10.245Z" fill="#E31E24"/></g><defs><clipPath id="a"><path fill="#fff" d="M0 0h90v90H0z"/></clipPath></defs></svg>