<svg width="90" height="90" viewBox="0 0 90 90" fill="none" xmlns="http://www.w3.org/2000/svg">
<circle cx="45" cy="45" r="45" fill="#E544A2"/>
<path d="M45.2631 75.8953L13.5371 38.9651L23.9454 22.42H66.3321L77.0001 39.2175L45.2631 75.8953ZM15.8046 38.7969L45.2704 73.0939L74.7253 39.0492L65.33 24.2486H24.9548L15.8046 38.7969Z" fill="white"/>
<path d="M14.6704 37.9694L14.6631 39.798L75.8545 40.0436L75.8618 38.215L14.6704 37.9694Z" fill="white"/>
<path d="M60.4183 40.5561L45.2593 25.0021L29.859 40.5451L23.5942 23.6526L25.3095 23.0163L30.5758 37.2207L45.2703 22.3945L59.7089 37.2097L64.9752 23.0163L66.6867 23.6526L60.4183 40.5561Z" fill="white"/>
<path d="M45.2742 75.7017L29.3801 39.2469L31.0588 38.5155L45.2596 71.0936L59.2227 38.5228L60.9013 39.2433L45.2742 75.7017Z" fill="white"/>
<path d="M23.7114 31.1058L20.9868 35.67H25.4157L23.7114 31.1058Z" fill="white"/>
<path d="M29.2373 26.7357L31.7205 32.6677L37.583 26.7357H29.2373Z" fill="white"/>
<path d="M22.3398 42.6699L33.7868 55.7736L27.3758 42.6699H22.3398Z" fill="white"/>
<path d="M68.2043 42.6699L56.7537 55.7736L63.1684 42.6699H68.2043Z" fill="white"/>
<path d="M66.9938 31.1058L69.7221 35.67H65.2896L66.9938 31.1058Z" fill="white"/>
<path d="M61.4717 26.7357L58.9884 32.6677L53.126 26.7357H61.4717Z" fill="white"/>
</svg>
