<svg width="90" height="90" viewBox="0 0 90 90" fill="none" xmlns="http://www.w3.org/2000/svg">
<g clip-path="url(#clip0_252_1920)">
<circle cx="45" cy="45" r="45" fill="#F5F5F5"/>
<g clip-path="url(#clip1_252_1920)">
<path d="M52.542 72.2288C52.5107 71.9542 52.5372 71.6759 52.6196 71.4126L53.9742 67.0809C51.1194 68.2406 48.0734 68.834 45 68.8294C31.8397 68.8294 21.1714 58.1602 21.1714 45.0004C21.1693 42.5633 21.5408 40.1408 22.2725 37.8205L22.322 37.6665C21.9688 37.745 21.6013 37.7252 21.2582 37.6093L18.3846 36.6476C18.0111 36.5214 17.6806 36.2897 17.4314 35.9795C17.4124 36.0359 17.3943 36.0922 17.3761 36.1478C16.4617 39.0062 15.9972 41.994 16 45.0004C16 61.016 28.9844 73.9999 45 73.9999C47.6253 74.0023 50.2391 73.648 52.7725 72.9465C52.6659 72.7552 52.5927 72.5465 52.556 72.3297L52.542 72.2288ZM68.2017 27.5947C62.9072 20.5537 54.4855 16 45 16C42.2932 15.9973 39.5989 16.3742 36.993 17.1199C37.1133 17.3214 37.1956 17.544 37.2358 17.7762L37.2515 17.8805C37.2835 18.1534 37.2585 18.4302 37.178 18.6925L35.8623 22.9837C38.7638 21.7811 41.8675 21.1652 45 21.1705C54.1683 21.1705 62.1258 26.3477 66.1103 33.9374C67.5923 36.7659 68.4905 39.8734 68.7496 43.0688C69.0087 46.2641 68.6232 49.4797 67.6169 52.5176C67.9604 52.4502 68.3152 52.4743 68.6469 52.5875L71.5147 53.5669C71.8991 53.6985 72.2369 53.9426 72.486 54.2686C73.9859 49.8073 74.3796 45.0374 73.6321 40.3836C72.8846 35.7298 71.0191 31.3364 68.2017 27.5947V27.5947Z" fill="#100405"/>
<path d="M71.1992 54.5278L68.3322 53.5484C68.0756 53.4613 67.7961 53.4761 67.5498 53.5899C67.3034 53.7036 67.1082 53.9079 67.0032 54.1618C65.4941 57.7648 63.1401 60.9355 60.1476 63.3956L58.2545 61.2786C58.1479 61.1587 58.0122 61.0695 57.8611 61.02C57.7099 60.9705 57.5486 60.9624 57.3934 60.9965C57.2382 61.0306 57.0946 61.1057 56.9769 61.2143C56.8593 61.3229 56.7717 61.4612 56.7231 61.6151L55.181 66.5467L53.5638 71.7164C53.5188 71.8575 53.5083 72.0077 53.5332 72.1539V72.1539C53.5656 72.3381 53.652 72.508 53.781 72.6411C53.888 72.7528 54.0214 72.8347 54.1683 72.8789C54.3152 72.9231 54.4708 72.9281 54.6202 72.8935L64.788 70.6301C64.9425 70.5946 65.0852 70.5185 65.2019 70.4094C65.3187 70.3003 65.4054 70.162 65.4535 70.0083C65.5016 69.8545 65.5094 69.6906 65.4761 69.5328C65.4428 69.3751 65.3696 69.2289 65.2637 69.1088L63.5977 67.2451C67.213 64.2309 70.0474 60.3595 71.8525 55.97C71.9074 55.8321 71.934 55.6841 71.9305 55.5353C71.9271 55.3865 71.8937 55.24 71.8325 55.1048C71.7712 54.9696 71.6834 54.8487 71.5745 54.7495C71.4656 54.6502 71.3379 54.5748 71.1992 54.5278V54.5278Z" fill="#FA9105"/>
<path d="M18.6944 35.6892L21.5671 36.6501C21.8237 36.7346 22.1021 36.7176 22.3469 36.6025C22.5918 36.4875 22.7852 36.2828 22.8887 36.0292C24.3779 32.4175 26.714 29.2331 29.6922 26.755L31.5978 28.8586C31.7052 28.9779 31.8417 29.0662 31.9934 29.1146C32.145 29.163 32.3066 29.1698 32.4616 29.1343C32.6167 29.0988 32.7598 29.0222 32.8766 28.9124C32.9934 28.8025 33.0796 28.6632 33.1266 28.5086L34.644 23.5728L36.2364 18.3913C36.2807 18.25 36.2903 18.0998 36.2645 17.9538V17.9538C36.2318 17.7702 36.1455 17.601 36.0167 17.4683C35.9096 17.3562 35.776 17.2742 35.6287 17.2299C35.4815 17.1857 35.3255 17.1809 35.1759 17.2158L25.0156 19.5407C24.8613 19.5772 24.7191 19.6542 24.6031 19.764C24.4871 19.8738 24.4012 20.0125 24.3541 20.1665C24.3069 20.3205 24.3001 20.4844 24.3343 20.6419C24.3684 20.7994 24.4424 20.9451 24.5489 21.0645L26.2256 22.9156C22.6268 25.9511 19.8144 29.8401 18.0352 34.2412C17.9795 34.3798 17.9525 34.5287 17.9558 34.6785C17.9592 34.8283 17.9929 34.9757 18.0547 35.1117C18.1166 35.2476 18.2053 35.369 18.3154 35.4684C18.4255 35.5678 18.5545 35.643 18.6944 35.6892V35.6892Z" fill="#FA9105"/>
<path d="M43.4826 57.859V58.9058H47.0442V60.4557H43.4826V62.1385H40.7949V60.4557H39.1958V58.9058H40.7949V49.0611H45.7912C47.3628 49.0611 48.5913 49.4347 49.4767 50.1819C50.3622 50.9291 50.8046 52.0249 50.8041 53.4693C50.8041 54.9014 50.3616 55.9911 49.4767 56.7383C48.5918 57.4854 47.3633 57.859 45.7912 57.859H43.4826ZM47.4977 52.0313C47.0963 51.6948 46.5219 51.5265 45.7747 51.5265H43.4826V55.4862H45.7747C46.5219 55.4862 47.0963 55.3148 47.4977 54.9721C47.8991 54.6294 48.0998 54.1346 48.0998 53.4878C48.0998 52.8534 47.8991 52.3679 47.4977 52.0313V52.0313Z" fill="black"/>
<path d="M57.9116 34.4448C58.0279 34.4391 58.1374 34.3868 58.2161 34.2994C58.2948 34.2119 58.3365 34.0964 58.332 33.9778V33.2769C58.3367 33.1582 58.2951 33.0424 58.2164 32.9547C58.1376 32.8671 58.0281 32.8147 57.9116 32.8091H55.9771C55.8001 32.8149 55.6297 32.8793 55.4916 32.9923C55.3535 33.1054 55.2552 33.261 55.2114 33.4359C53.7511 30.0248 52.6088 28.2141 48.9819 28.2141L46.8195 28.2006H46.0712L41.0212 28.2124C37.9956 28.2124 36.6989 29.4745 35.5045 31.8717V31.881C35.2683 32.3555 35.0362 32.873 34.7958 33.4351C34.7521 33.2602 34.6538 33.1045 34.5157 32.9915C34.3776 32.8784 34.2072 32.8141 34.0301 32.8082H32.0883C31.9718 32.8139 31.8622 32.8663 31.7834 32.9539C31.7047 33.0415 31.6631 33.1573 31.6678 33.276V33.9769C31.6634 34.0955 31.705 34.2111 31.7837 34.2986C31.8625 34.386 31.9719 34.4383 32.0883 34.4439H33.414L32.6441 35.006C32.588 35.043 32.5335 35.0826 32.4789 35.1255L32.4715 35.1305C32.2398 35.3195 32.0527 35.5591 31.9241 35.8316C31.7954 36.104 31.7284 36.4025 31.7281 36.7048V46.8238C31.7281 47.0915 31.8326 47.3484 32.0184 47.5377C32.2043 47.7271 32.4564 47.8335 32.7193 47.8335H34.8958C35.1586 47.8335 35.4107 47.7271 35.5966 47.5377C35.7825 47.3484 35.8869 47.0915 35.8869 46.8238V45.4118H54.1121V46.8238C54.1121 47.0915 54.2165 47.3484 54.4024 47.5377C54.5883 47.7271 54.8404 47.8335 55.1032 47.8335H57.2797C57.5426 47.8335 57.7947 47.7271 57.9805 47.5377C58.1664 47.3484 58.2709 47.0915 58.2709 46.8238V36.7057C58.2701 36.3621 58.1835 36.0245 58.0192 35.7244C57.8548 35.4244 57.6183 35.172 57.3317 34.9909L56.5834 34.4448H57.9116Z" fill="#FA9105"/>
</g>
</g>
<defs>
<clipPath id="clip0_252_1920">
<rect width="90" height="90" fill="white"/>
</clipPath>
<clipPath id="clip1_252_1920">
<rect width="58" height="58" fill="white" transform="translate(16 16)"/>
</clipPath>
</defs>
</svg>
