<svg width="90" height="90" viewBox="0 0 90 90" fill="none" xmlns="http://www.w3.org/2000/svg">
<circle cx="45" cy="45" r="45" fill="#F5F5F5"/>
<path d="M62.1136 44.5455C62.1136 48.3523 61.392 51.5909 59.9489 54.2614C58.517 56.9318 56.5625 58.9716 54.0852 60.3807C51.6193 61.7784 48.8466 62.4773 45.767 62.4773C42.6648 62.4773 39.8807 61.7727 37.4148 60.3636C34.9489 58.9545 33 56.9148 31.5682 54.2443C30.1364 51.5739 29.4205 48.3409 29.4205 44.5455C29.4205 40.7386 30.1364 37.5 31.5682 34.8295C33 32.1591 34.9489 30.125 37.4148 28.7273C39.8807 27.3182 42.6648 26.6136 45.767 26.6136C48.8466 26.6136 51.6193 27.3182 54.0852 28.7273C56.5625 30.125 58.517 32.1591 59.9489 34.8295C61.392 37.5 62.1136 40.7386 62.1136 44.5455ZM54.6307 44.5455C54.6307 42.0795 54.2614 40 53.5227 38.3068C52.7955 36.6136 51.767 35.3295 50.4375 34.4545C49.108 33.5795 47.5511 33.142 45.767 33.142C43.983 33.142 42.4261 33.5795 41.0966 34.4545C39.767 35.3295 38.733 36.6136 37.9943 38.3068C37.267 40 36.9034 42.0795 36.9034 44.5455C36.9034 47.0114 37.267 49.0909 37.9943 50.7841C38.733 52.4773 39.767 53.7614 41.0966 54.6364C42.4261 55.5114 43.983 55.9489 45.767 55.9489C47.5511 55.9489 49.108 55.5114 50.4375 54.6364C51.767 53.7614 52.7955 52.4773 53.5227 50.7841C54.2614 49.0909 54.6307 47.0114 54.6307 44.5455Z" fill="#E3E3E3"/>
</svg>
