<svg width="90" height="90" fill="none" xmlns="http://www.w3.org/2000/svg"><circle cx="45" cy="45" r="45" fill="#F5F5F5"/><path d="M59.835 39.313H52.37c-.136-.966-.414-1.824-.835-2.574a6.547 6.547 0 0 0-1.62-1.944 7.127 7.127 0 0 0-2.283-1.227 8.736 8.736 0 0 0-2.779-.426c-1.806 0-3.38.449-4.721 1.347-1.341.886-2.381 2.181-3.12 3.886-.738 1.693-1.108 3.75-1.108 6.17 0 2.49.37 4.58 1.108 6.273.75 1.693 1.796 2.972 3.137 3.835 1.34.864 2.892 1.296 4.653 1.296.989 0 1.904-.13 2.744-.392a7.212 7.212 0 0 0 2.267-1.142 6.583 6.583 0 0 0 1.637-1.858c.443-.727.75-1.557.92-2.489l7.466.034a13.507 13.507 0 0 1-1.449 4.637c-.761 1.477-1.79 2.8-3.085 3.971-1.284 1.16-2.818 2.08-4.602 2.762-1.773.67-3.779 1.005-6.017 1.005-3.114 0-5.898-.704-8.352-2.113-2.444-1.41-4.375-3.45-5.796-6.12-1.409-2.67-2.113-5.903-2.113-9.699 0-3.806.715-7.045 2.147-9.715s3.375-4.705 5.83-6.103c2.454-1.409 5.216-2.113 8.284-2.113 2.023 0 3.898.284 5.625.852 1.738.568 3.278 1.398 4.62 2.488a12.804 12.804 0 0 1 3.272 3.972c.852 1.568 1.398 3.364 1.636 5.386Z" fill="#B33824"/></svg>