<svg width="90" height="90" viewBox="0 0 90 90" fill="none" xmlns="http://www.w3.org/2000/svg">
<circle cx="45" cy="45" r="45" fill="#F5F5F5"/>
<path d="M32.0341 62V27.0909H55.1989V33.1761H39.4148V39.9943H45.0909C47.8523 39.9943 50.233 40.4432 52.233 41.3409C54.2443 42.2273 55.7955 43.483 56.8864 45.108C57.9773 46.733 58.5227 48.6477 58.5227 50.8523C58.5227 53.0455 57.9773 54.983 56.8864 56.6648C55.7955 58.3352 54.2443 59.642 52.233 60.5852C50.233 61.5284 47.8523 62 45.0909 62H32.0341ZM39.4148 56.0682H45.0909C46.4091 56.0682 47.5227 55.8295 48.4318 55.3523C49.3409 54.8636 50.0284 54.2216 50.4943 53.4261C50.9716 52.6193 51.2102 51.7386 51.2102 50.7841C51.2102 49.3977 50.6818 48.2273 49.625 47.2727C48.5795 46.3068 47.0682 45.8239 45.0909 45.8239H39.4148V56.0682Z" fill="#E3E3E3"/>
</svg>
