<svg width="90" height="90" viewBox="0 0 90 90" fill="none" xmlns="http://www.w3.org/2000/svg">
<circle cx="45" cy="45" r="45" fill="#EFEFEF"/>
<g clip-path="url(#clip0_579_447)">
<path fill-rule="evenodd" clip-rule="evenodd" d="M65.3541 59.8509C61.366 64.9183 54.9353 70.4028 50.6 73.1616C50.1453 73.4755 49.6908 73.7191 49.2733 73.9876C61.5064 72.0672 71.3301 62.9814 74.128 51.2441C70.9458 53.3174 68.1479 56.2868 65.3541 59.8509Z" fill="#E99A36"/>
<path fill-rule="evenodd" clip-rule="evenodd" d="M60.808 24.0446C52.0341 25.2835 46.7193 30.0908 41.6525 35.2945C37.4205 39.5896 29.3451 47.519 22.6706 52.2023C20.8853 53.4413 17.4261 54.5398 15.0126 52.9705C16.3475 56.2436 18.0604 59.3497 20.1165 62.2256C21.5878 63.7289 25.328 63.7619 26.4108 63.5555C33.3332 62.9607 35.6393 60.2515 37.1561 59.2232C40.7888 56.7081 44.0412 53.1811 46.8019 50.1745C47.6285 49.2329 48.4551 48.3574 49.1783 47.5892C49.7734 46.9945 50.3313 46.3502 50.9265 45.739C56.1379 40.2173 61.4858 34.5263 69.0364 32.9362C69.8051 32.7586 71.9004 32.6224 73.1692 33.8076C71.966 31.1103 70.4647 28.5559 68.6933 26.1921C67.6105 24.8292 65.4408 23.8504 63.734 23.8174C62.7655 23.8093 61.7981 23.8798 60.841 24.028L60.808 24.0446Z" fill="#9DC048"/>
<path fill-rule="evenodd" clip-rule="evenodd" d="M69.1975 37.3552C63.4653 39.3789 58.8656 43.7112 54.1294 48.7084C53.5384 49.3361 52.9763 49.9473 52.3812 50.5586C51.6511 51.3267 50.8824 52.1651 50.0751 53.0737C45.8472 57.7198 40.5697 63.5182 33.8911 65.8764C32.6513 66.2894 31.4775 66.6777 30.3617 66.9957C28.754 67.4499 26.1669 67.5862 24.4518 66.7478C25.2205 67.6234 28.2994 69.6842 29.3119 70.1715C31.304 71.1173 32.9489 71.9557 34.7632 72.7239C37.0362 73.6655 41.6855 73.0377 43.6775 72.1291C45.2697 71.3893 46.8009 70.5248 48.2567 69.5438C52.1746 67.0287 58.2911 61.825 61.928 57.1788C65.4905 52.6359 69.5489 48.3408 74.967 45.8587C75 45.3714 75 44.8799 75 44.3926C75.0053 43.1494 74.9239 41.9075 74.7562 40.6757C74.6859 40.0479 74.5825 39.4367 74.4751 38.8585C74.2313 37.3222 72.0285 36.4136 69.2678 37.3924L69.1975 37.3552Z" fill="#E99A36"/>
<path fill-rule="evenodd" clip-rule="evenodd" d="M25.3611 25.5726C26.6918 24.1767 27.9482 22.851 29.1384 21.6616C31.8288 18.9178 34.9751 16.6611 38.4372 14.9917C33.3112 15.999 28.5311 18.3082 24.5572 21.697C20.5834 25.0859 17.5497 29.4401 15.7482 34.3404C18.4758 32.8495 22.1127 29.0045 25.3611 25.5726Z" fill="#E99A36"/>
<path fill-rule="evenodd" clip-rule="evenodd" d="M55.7742 16.5694C54.9477 16.3587 52.3482 15.4502 49.7611 15.5906C40.2557 16.1522 36.1228 20.9017 32.2463 24.7425C31.0932 25.8617 29.87 27.1874 28.5764 28.5503C24.6627 32.7091 20.5712 37.0042 17.0046 38.5777C16.1745 38.9395 15.3068 39.2082 14.4175 39.3789C14.1377 41.0299 13.9994 42.7017 14.0042 44.3761C14.0042 45.388 14.0744 46.3667 14.1446 47.3455C14.3885 50.732 18.5131 49.7905 20.0876 48.6712C26.729 43.9921 35.1558 35.6414 38.4744 32.2548C43.4751 27.1544 47.3888 22.6114 55.9189 20.7984C60.9527 19.7122 63.1554 21.3559 63.61 21.3188C61.7916 20.0798 57.8241 17.3747 55.8115 16.5694H55.7742Z" fill="#E99A36"/>
</g>
<defs>
<clipPath id="clip0_579_447">
<rect width="61" height="59" fill="white" transform="translate(14 15)"/>
</clipPath>
</defs>
</svg>
