<svg width="90" height="90" viewBox="0 0 90 90" fill="none" xmlns="http://www.w3.org/2000/svg">
<circle cx="45" cy="45" r="45" fill="#DB3732"/>
<path d="M56.1435 43.0586L48.7946 50.3476C46.3543 52.7773 43.649 52.7773 41.1668 50.3476L34.0411 43.2773C33.6785 43.5445 33.8458 43.8725 33.8458 44.1519C33.8458 48.0759 33.8458 51.9998 33.8458 55.9237C33.8925 56.44 33.8149 56.959 33.6179 57.4476C33.4209 57.9362 33.1089 58.3836 32.702 58.761C32.295 59.1384 31.8019 59.4376 31.2545 59.6394C30.7071 59.8411 30.1173 59.941 29.5229 59.9327C28.925 59.964 28.3262 59.8852 27.7655 59.7016C27.2048 59.518 26.6948 59.2335 26.2686 58.8669C25.8424 58.5001 25.5096 58.0594 25.2919 57.5732C25.0742 57.0871 24.9763 56.5665 25.0048 56.0452C25.0048 48.3674 25.0048 40.6735 25.0048 32.9633C24.972 32.1555 25.2355 31.3597 25.7571 30.6912C26.2786 30.0228 27.0311 29.5165 27.9053 29.2459C28.7819 28.9591 29.7405 28.9222 30.6427 29.1405C31.5449 29.3588 32.3443 29.8211 32.9255 30.4607C36.7045 34.2145 40.4835 37.9563 44.2347 41.7344C44.8064 42.2933 45.0853 42.4026 45.7128 41.7344C49.464 38.0049 53.2709 34.2753 57.0778 30.5458C57.6536 29.8819 58.4614 29.399 59.3796 29.1698C60.2977 28.9406 61.2765 28.9775 62.1685 29.2749C63.0605 29.5723 63.8174 30.1141 64.3253 30.8188C64.8332 31.5235 65.0645 32.3528 64.9845 33.1819V55.8994C65.0234 56.422 64.9396 56.946 64.7382 57.4394C64.5368 57.9328 64.222 58.3852 63.813 58.769C63.4041 59.1528 62.9096 59.4599 62.3597 59.6715C61.8099 59.8832 61.2163 59.9949 60.6152 59.9998C60.0141 60.0048 59.4182 59.9029 58.8638 59.7004C58.3095 59.4979 57.8084 59.199 57.3912 58.8221C56.9739 58.4451 56.6493 57.9979 56.4372 57.5079C56.225 57.0179 56.1299 56.4954 56.1574 55.9723C56.1574 52.1213 56.1574 48.2581 56.1574 44.407L56.1435 43.0586Z" fill="#FEFEFE"/>
</svg>
