<svg width="90" height="90" viewBox="0 0 90 90" fill="none" xmlns="http://www.w3.org/2000/svg">
<circle cx="45" cy="45" r="45" fill="url(#paint0_linear_401_270)"/>
<g clip-path="url(#clip0_401_270)">
<path d="M44.5 77.0108C38.073 77.0087 31.7909 75.101 26.448 71.5291C21.1051 67.9571 16.9411 62.8812 14.4826 56.943C12.0241 51.0049 11.3814 44.4711 12.6358 38.1677C13.8901 31.8643 16.9852 26.0744 21.5298 21.5298C26.0743 16.9853 31.8643 13.8902 38.1677 12.6358C44.4711 11.3814 51.0048 12.0241 56.943 14.4826C62.8811 16.9411 67.9571 21.1051 71.529 26.448C75.101 31.791 77.0086 38.073 77.0108 44.5C77.0043 53.1204 73.577 61.3859 67.4815 67.4815C61.3859 73.5771 53.1204 77.0044 44.5 77.0108ZM44.5 18.2043C39.2996 18.2065 34.2167 19.7505 29.8938 22.6412C25.5709 25.5319 22.2022 29.6395 20.2136 34.4446C18.225 39.2497 17.7058 44.5365 18.7217 49.6366C19.7375 54.7368 22.2428 59.4212 25.9207 63.0976C29.5987 66.7741 34.2841 69.2774 39.3847 70.2912C44.4853 71.3049 49.7719 70.7836 54.5762 68.793C59.3804 66.8024 63.4866 63.432 66.3755 59.108C69.2645 54.7839 70.8064 49.7003 70.8064 44.5C70.7986 37.5265 68.0241 30.841 63.0921 25.911C58.1601 20.981 51.4735 18.2093 44.5 18.2043V18.2043Z" fill="#D3D5D7"/>
<path d="M44.4999 68.1089C39.8274 68.111 35.2593 66.7273 31.3734 64.1328C27.4875 61.5382 24.4585 57.8494 22.6694 53.5331C20.8803 49.2167 20.4117 44.4667 21.3227 39.8839C22.2337 35.3011 24.4835 31.0915 27.7874 27.7876C31.0914 24.4836 35.301 22.2339 39.8838 21.3228C44.4665 20.4118 49.2166 20.8805 53.5329 22.6695C57.8493 24.4586 61.5381 27.4876 64.1326 31.3735C66.7272 35.2594 68.1109 39.8275 68.1088 44.5C68.0988 50.7584 65.6082 56.7576 61.1829 61.183C56.7575 65.6083 50.7583 68.0989 44.4999 68.1089V68.1089ZM44.4999 26.5344C40.9487 26.5322 37.4767 27.5832 34.5229 29.5543C31.569 31.5254 29.266 34.3282 27.9051 37.6082C26.5442 40.8882 26.1864 44.4981 26.8771 47.9814C27.5678 51.4648 29.2759 54.665 31.7855 57.1776C34.295 59.6901 37.4932 61.4021 40.9757 62.0969C44.4582 62.7918 48.0685 62.4384 51.3501 61.0814C54.6318 59.7245 57.4373 57.4248 59.412 54.4734C61.3867 51.5219 62.4418 48.0511 62.4439 44.5C62.4382 39.7417 60.5462 35.1798 57.1826 31.8141C53.819 28.4485 49.2582 26.5537 44.4999 26.5451V26.5344Z" fill="#D3D5D7"/>
<path d="M24.1038 64.3L18.76 61.1492L35.9622 31.9996L44.6456 44.4622L54.2974 32.121L70.2885 61.2302L64.8502 64.219L53.3884 43.3535L44.357 54.9017L36.3965 43.4749L24.1038 64.3Z" fill="#D3D5D7"/>
</g>
<defs>
<linearGradient id="paint0_linear_401_270" x1="45" y1="0" x2="45" y2="90" gradientUnits="userSpaceOnUse">
<stop stop-color="#03142C"/>
<stop offset="1" stop-color="#0E2E49"/>
</linearGradient>
<clipPath id="clip0_401_270">
<rect width="65" height="65" fill="white" transform="translate(12 12)"/>
</clipPath>
</defs>
</svg>
