<svg width="90" height="90" viewBox="0 0 90 90" fill="none" xmlns="http://www.w3.org/2000/svg">
<circle cx="45" cy="45" r="45" fill="#EFEFEF"/>
<g clip-path="url(#clip0_570_313)">
<path d="M51.0311 42.8916C50.2931 43.6841 49.6701 44.5765 49.1804 45.5425C48.276 47.4007 46.7685 50.8123 45.4727 54.2302C44.1898 50.8123 42.6727 47.4007 41.7682 45.5425C41.2523 44.533 40.5934 43.6034 39.8117 42.7825C38.6154 41.4988 37.1015 40.4846 35.6422 40.597C33.1533 40.4044 30.4847 43.572 29.5289 45.5425C28.1594 48.3603 25.4043 54.7373 24.0989 59.3138C23.8514 60.1888 23.7124 61.091 23.6851 62C20.4778 61.939 17.3987 61.785 16.3691 61.4352C11.7858 59.8754 9.77799 56.9004 11.7409 49.9554C14.1079 42.269 19.0921 31.5562 21.5746 26.8225C23.3066 23.5169 28.1401 18.1958 32.6465 18.5167C37.1528 18.1958 41.9863 23.5169 43.7183 26.8225C44.1898 27.7211 44.7542 28.8379 45.3701 30.1088C47.0892 33.6263 49.2221 38.3247 51.0311 42.8916Z" fill="#FF0000"/>
<path d="M74.6245 60.9313C73.5853 61.2843 70.4742 61.4384 67.2476 61.4993C67.1838 60.7604 67.0528 60.0289 66.8562 59.3138C65.5476 54.7373 62.7957 48.3603 61.4261 45.5425C60.4639 43.572 57.7986 40.4076 55.3097 40.5969C53.8183 40.4814 52.2628 41.5597 51.0472 42.8916C50.3091 43.6841 49.6862 44.5765 49.1965 45.5425C48.292 47.4007 46.7846 50.8123 45.4888 54.2302C44.2058 50.8123 42.6887 47.4007 41.7843 45.5425C41.2684 44.533 40.6094 43.6034 39.8278 42.7825C41.5887 38.2894 43.6766 33.668 45.3958 30.1088C46.1078 28.6293 46.7589 27.336 47.2913 26.3186C49.0233 23.013 53.8568 17.6919 58.3631 18.0128C62.8694 17.6919 67.703 23.013 69.4349 26.3186C71.9142 31.0524 76.9017 41.7651 79.2655 49.4547C81.2156 56.3965 79.2046 59.3716 74.6245 60.9313Z" fill="#FFA200"/>
<path d="M51.0311 42.8916C50.2931 43.6841 49.6701 44.5765 49.1805 45.5425C48.276 47.4007 46.7685 50.8123 45.4727 54.2302C44.1898 50.8123 42.6727 47.4007 41.7682 45.5425C41.2523 44.533 40.5934 43.6034 39.8118 42.7825C41.5726 38.2894 43.6606 33.668 45.3797 30.1088C47.0892 33.6263 49.2222 38.3247 51.0311 42.8916Z" fill="#FE7700"/>
</g>
<defs>
<clipPath id="clip0_570_313">
<rect width="69" height="44" fill="white" transform="translate(11 18)"/>
</clipPath>
</defs>
</svg>
