<svg width="90" height="90" fill="none" xmlns="http://www.w3.org/2000/svg"><circle cx="45" cy="45" r="45" fill="#0046AD"/><g clip-path="url(#a)"><path d="M72.72 40.857a.446.446 0 0 0-.091-.213.463.463 0 0 0-.422-.174.474.474 0 0 0-.221.084c-.23.168-.445.352-.647.551-4.358 4.519-8.754 9.014-13.018 13.612-1.313 1.414-2.808 1.39-4.428 1.168-.953-.129-.972-.929-.972-1.667V41.721a8.425 8.425 0 0 0-.107-1.093.352.352 0 0 0-.075-.177.368.368 0 0 0-.354-.132.372.372 0 0 0-.177.083c-.424.368-.747.641-1.037.944-4.35 4.491-8.715 8.96-12.981 13.517-1.302 1.387-2.813 1.215-4.368.985-.856-.13-.874-.924-.872-1.627V41.727c0-.294-.02-.658-.056-1.08a.389.389 0 0 0-.08-.204.406.406 0 0 0-.4-.152.412.412 0 0 0-.2.098c-.308.278-.559.529-.76.736-4.36 4.519-8.758 9.01-13.019 13.608-1.32 1.42-2.827 1.373-4.435 1.143-.986-.143-.986-1.02-.986-1.79V35.737c.042-1.398.428-1.714 2.092-1.714 1.702 0 2.048.264 2.053 1.7.014 4.128 0 8.256 0 12.383a6.98 6.98 0 0 0 .028 1.012c.095.653.476.764.944.328.669-.621 1.292-1.292 1.924-1.95 3.878-4.035 7.8-8.031 11.603-12.13 1.285-1.382 2.79-1.488 4.416-1.235.377.059.796.542.974.926.18.384.098.884.098 1.333v12.383c0 .156 0 .312.014.479.004.086.034.17.085.24a.478.478 0 0 0 .698.067l.068-.068c4.465-4.629 8.975-9.22 13.355-13.925 1.15-1.236 2.38-1.652 3.97-1.546 1.354.093 1.702.402 1.707 1.729 0 3.976.077 13.062.111 13.266a.56.56 0 0 0 .133.277.599.599 0 0 0 .852.034l.368-.359c.872-.85 1.695-1.748 2.537-2.63 3.528-3.682 7.115-7.313 10.558-11.07 1.311-1.434 2.831-1.369 4.435-1.13.96.15.965 1.04.965 1.808v12.606c0 1.878.017 3.753 0 5.63-.016 1.426-.432 1.78-2.015 1.794-1.744.018-2.162-.269-2.174-1.73-.035-4.166-.011-8.332-.023-12.496a16.735 16.735 0 0 0-.07-.892Z" fill="#fff"/></g><defs><clipPath id="a"><path fill="#fff" transform="translate(13 34)" d="M0 0h64v22H0z"/></clipPath></defs></svg>