<svg width="90" height="90" viewBox="0 0 90 90" fill="none" xmlns="http://www.w3.org/2000/svg">
<circle cx="45" cy="45" r="45" fill="#F5F5F5"/>
<g clip-path="url(#clip0_249_304)">
<path d="M19.8822 30.6132L24.0471 30.5904L26.0324 39.2752L30.8402 30.5533L35.0477 30.5299L35.0303 46.7961L30.7987 46.82L31.0521 37.4549L31.0087 37.456L25.667 46.848L23.9833 46.8566L21.6881 37.5064H21.6467L18.8481 46.8862L14.6426 46.9079L19.8822 30.6132Z" fill="#7DC041"/>
<path d="M49.9398 30.4482L53.5248 30.4285L51.0445 46.7088L46.8159 46.7322L48.2535 37.3609L40.0643 46.7693L36.4832 46.7882L38.9627 30.5086L43.1889 30.4853L41.8379 39.4681L49.9398 30.4482Z" fill="#7DC041"/>
<path d="M57.718 46.6723L53.4888 46.6951L55.9676 30.415L66.3882 30.358L65.846 33.942L59.6557 33.9757L57.718 46.6723Z" fill="#7DC041"/>
<path d="M32.9397 50.5532L35.7474 50.5373L31.6574 54.6868L34.7329 59.2579L31.7976 59.2744L29.454 55.5066L29.4299 55.5071L28.8495 59.2906L26.5854 59.3024L27.9122 50.5807L30.177 50.5681L29.6296 54.1661H29.6546L32.9397 50.5532Z" fill="#005498"/>
<path d="M36.2277 50.5356L39.6931 50.5162C41.5658 50.506 42.7388 51.3654 42.4248 53.3658C42.1133 55.4272 40.8671 56.333 38.8923 56.3445L37.6088 56.3512L37.1652 59.2455L34.8997 59.2574L36.2277 50.5356ZM37.8893 54.5238L38.2715 54.5214C39.0931 54.5169 39.9014 54.5123 40.056 53.4502C40.2253 52.35 39.4741 52.3443 38.5934 52.3495L38.2116 52.3517L37.8893 54.5238Z" fill="#005498"/>
<path d="M45.6678 52.4031L45.4442 53.8592L47.9957 53.8449L47.7066 55.766L45.1553 55.7791L44.9179 57.2811L47.6103 57.2668L47.3227 59.1889L42.3657 59.2164L43.6945 50.4945L48.6506 50.4665L48.3584 52.3888L45.6678 52.4031Z" fill="#005498"/>
<path d="M49.4002 61.2407L47.3662 61.2515L47.9549 57.3803L48.1737 57.3916C49.1702 57.4441 50.1307 55.7747 50.3755 54.165L50.9321 50.4546L57.461 50.4186L56.4138 57.3347L57.5133 57.3289L56.9203 61.1996L54.884 61.2105L55.1988 59.1456L49.7094 59.1758L49.4002 61.2407ZM54.9296 52.2239L52.9307 52.2353L52.6833 53.8073C52.4067 55.5653 51.8237 56.816 51.0861 57.3751L54.1504 57.3586L54.9296 52.2239Z" fill="#005498"/>
<path d="M65.2106 50.3764L67.1276 50.365L65.8003 59.0881L63.5333 59.1005L64.3054 54.0788L59.9196 59.12L58.0005 59.1302L59.3292 50.4084L61.5915 50.3964L60.8687 55.2071L65.2106 50.3764Z" fill="#005498"/>
<path d="M70.4282 59.0628L68.1638 59.0755L69.1996 52.2742L67.3301 52.2844L67.6182 50.3621L73.6272 50.3291L73.3372 52.2512L71.4673 52.2616L70.4282 59.0628Z" fill="#005498"/>
<path d="M37.2957 72.1642C28.986 69.8074 22.1378 65.0668 17.5857 59.1713C18.1576 58.8975 18.7862 58.6683 19.4843 58.5312C19.4843 58.5312 14.0777 53.4251 12.1281 47.8929C12.1281 47.8929 12.1272 47.8901 12.1272 47.8866V47.8901L12.1262 47.8833C12.1262 47.8833 12.5544 55.7524 14.3779 61.7243C14.3779 61.7243 14.8772 61.0547 15.7871 60.3165C19.8422 68.05 26.9363 74.1704 35.9994 76.7394C49.5508 80.5826 63.5197 75.3738 71.463 64.7121C63.6606 72.6131 50.4697 75.8993 37.2957 72.1642Z" fill="#005498"/>
<path d="M75.621 28.2744C75.621 28.2744 75.1237 28.9423 74.2132 29.6822C70.1553 21.9495 63.0642 15.8289 53.998 13.2594C40.4536 9.41814 26.4806 14.6283 18.5371 25.2881C26.3427 17.3872 39.5319 14.1007 52.7037 17.8354C61.0119 20.1933 67.8601 24.9313 72.4098 30.8262C71.8427 31.1001 71.2108 31.3304 70.5114 31.465C70.5114 31.465 75.9284 36.5778 77.8739 42.1148C77.8739 42.1148 77.4474 34.2438 75.621 28.2744Z" fill="#7DC041"/>
</g>
<defs>
<clipPath id="clip0_249_304">
<rect width="66" height="66" fill="white" transform="translate(12 12)"/>
</clipPath>
</defs>
</svg>
