<svg width="90" height="90" fill="none" xmlns="http://www.w3.org/2000/svg"><circle cx="45" cy="45" r="45" fill="#F5F5F5"/><path d="M57.81 36.168c-2.624 2.989-6.65 4.09-6.65 4.09.35 2.393.48 4.812.387 7.227 0 0 5.38-5.295 5.993-5.887.055-1.953.25-4.922.25-4.922.02-.248.025-.508.025-.508" fill="#DCDDDE"/><path d="M57.54 41.598c-.612.594-5.197 5.069-5.982 5.854a50.2 50.2 0 0 1-.587 6.402h6.87c0-.233-.026-2.642-.026-2.642 0-.216-.073-1.596-.073-1.596-.125-1.414-.17-5.286-.22-6.89 0-.295 0-.689.011-1.134" fill="#EC2429"/><path d="m43.227 42.614-6.237 6.09c-.02.352-.038.665-.058.901 0 0-.072 1.394-.072 1.596l-.029 2.644h6.87s-.95-5.45-.461-11.233" fill="#DCDDDE"/><path d="M43.227 42.614c.066-.79.156-1.578.28-2.368 0 0-4.027-1.087-6.651-4.091 0 0 0 .263.024.512 0 0 .297 4.466.262 6.053-.038 1.341-.062 4.24-.159 5.983l6.244-6.089ZM30.993 36l.523 4.737c.104.933.272 2.353.504 4.26.224 1.924.428 3.575.612 4.953.183 1.378.358 2.67.525 3.876a18.893 18.893 0 0 1-.66-.046 7.688 7.688 0 0 0-.587-.032c-.14 0-.351.01-.636.032l-.611.046-.469-5.022c-.19-2.05-.357-3.76-.5-5.128a96.451 96.451 0 0 0-.4-3.303c-.871 1.534-1.62 2.857-2.246 3.968a155.963 155.963 0 0 0-3.417 6.406 70.727 70.727 0 0 0-1.32 2.775h-.281l-1.47-2.945c-.787-1.59-2.577-4.99-5.37-10.202-.064.584-.197 1.703-.396 3.357-.2 1.653-.364 3.078-.493 4.274-.13 1.197-.232 2.273-.306 3.23-.073.955-.11 1.812-.11 2.57-.134-.008-.3-.023-.497-.045a4.455 4.455 0 0 0-.44-.032c-.117 0-.281.01-.493.032l-.455.045c.377-2.31.868-5.545 1.474-9.706s.965-6.861 1.078-8.1h.689c.88 1.704 1.707 3.29 2.483 4.76.776 1.47 1.581 2.939 2.416 4.406a136.41 136.41 0 0 0 2.64 4.48c.147-.262.56-.994 1.24-2.196.681-1.201 1.488-2.637 2.42-4.306a324.295 324.295 0 0 1 2.28-4.108c.601-1.06 1.173-2.073 1.714-3.036h.559Z" fill="#027A3E"/><path d="m71.62 41.843-2.268 2.229 1.608 1.79 1.615 1.788 1.76 1.938 1.503 1.667L78 53.87V54l-.783-.039-.693-.038-.77.038-.73.039a23.614 23.614 0 0 0-1.842-2.368l-5.81-6.675a1.173 1.173 0 0 0-.396-.127h-.053V54l-.614-.039-.56-.038-.614.038-.555.039V36.13l.337.034.47.026.361.025.343-.013.47-.043.364-.026v8.07l.13.052a.998.998 0 0 0 .532-.205c.254-.195.724-.626 1.42-1.291l6.555-6.626.544.052.517.03.317-.013.387-.038.337-.022-6.044 5.701Z" fill="#EC2429"/></svg>