<svg width="90" height="90" viewBox="0 0 90 90" fill="none" xmlns="http://www.w3.org/2000/svg">
<circle cx="45" cy="45" r="45" fill="#EFEFEF"/>
<g clip-path="url(#clip0_582_480)">
<path d="M71.0018 70.036C70.9922 53.3216 70.9891 36.6073 70.9927 19.8929C70.9927 19.6105 70.9637 19.328 70.9456 19C70.6862 19.0911 70.5175 19.144 70.3525 19.2096C61.8775 22.6708 53.4031 26.1332 44.9293 29.5968C44.7031 29.7068 44.4551 29.764 44.2038 29.764C43.9525 29.764 43.7045 29.7068 43.4783 29.5968C40.5872 28.3212 37.6743 27.0656 34.7723 25.8118C29.5209 23.5437 24.2689 21.2767 19.0163 19.0109C19.0163 19.3754 18.9909 19.7399 18.9909 20.0952C18.9909 36.7172 18.9909 53.338 18.9909 69.9576C18.9909 70.2893 19.0055 70.621 19.0127 70.9526C19.1034 70.9526 19.1941 70.9672 19.283 70.9672C36.2463 70.9672 53.2096 70.9745 70.1729 70.9891C71.0127 71 71.0018 70.6355 71.0018 70.036Z" fill="#296FB6"/>
</g>
<defs>
<clipPath id="clip0_582_480">
<rect width="52" height="52" fill="white" transform="translate(19 19)"/>
</clipPath>
</defs>
</svg>
