<svg width="90" height="90" viewBox="0 0 90 90" fill="none" xmlns="http://www.w3.org/2000/svg">
<circle cx="45" cy="45" r="45" fill="#EFEFEF"/>
<g clip-path="url(#clip0_586_549)">
<path d="M69.987 22.1933C70.0115 22.0457 70.0031 21.8946 69.9622 21.7505C69.9213 21.6065 69.849 21.4731 69.7503 21.3595C69.6517 21.2459 69.529 21.1547 69.391 21.0926C69.2529 21.0305 69.1026 20.9991 68.9508 21.0001H57.6952C57.5504 20.9992 57.4069 21.0283 57.2742 21.0855C57.1414 21.1426 57.0224 21.2265 56.9246 21.3318L46.2 32.7288C46.0886 32.8484 45.9501 32.9403 45.7957 32.9969C45.6413 33.0536 45.4754 33.0734 45.3117 33.0547C45.1481 33.036 44.9913 32.9795 44.8542 32.8896C44.717 32.7996 44.6033 32.6789 44.5226 32.5373L39.2835 23.4887L38.1501 21.5232C38.0585 21.3642 37.9257 21.2321 37.7653 21.1401C37.6049 21.0482 37.4225 20.9999 37.2369 21.0001H27.4839C27.2351 21.0012 26.9945 21.0889 26.8049 21.2476C26.6154 21.4064 26.4888 21.6261 26.4476 21.8679L25.8 25.9009L19.013 67.8003C18.9886 67.9482 18.9971 68.0996 19.0379 68.2439C19.0788 68.3883 19.1509 68.5221 19.2495 68.6362C19.3481 68.7503 19.4707 68.842 19.6087 68.9048C19.7468 68.9676 19.8971 69.0001 20.0492 69H31.0198C31.2696 68.9986 31.5108 68.91 31.7005 68.7499C31.8902 68.5899 32.0161 68.3687 32.0559 68.1258L35.5532 46.4996C35.5882 46.2894 35.6882 46.095 35.8397 45.943C35.9911 45.791 36.1866 45.6888 36.3992 45.6504C36.6119 45.6119 36.8314 45.6392 37.0277 45.7284C37.224 45.8176 37.3876 45.9644 37.496 46.1487L42.0294 53.9466C42.1101 54.0881 42.2236 54.2088 42.3608 54.2987C42.4979 54.3887 42.6548 54.4453 42.8185 54.464C42.9822 54.4826 43.1479 54.4628 43.3023 54.4062C43.4567 54.3495 43.5952 54.2577 43.7066 54.138L51.0507 46.3337C51.2033 46.171 51.4051 46.0609 51.626 46.0197C51.847 45.9786 52.0755 46.0084 52.2779 46.105C52.4803 46.2015 52.646 46.3595 52.7503 46.5558C52.8547 46.7521 52.8923 46.9763 52.8575 47.1952L49.5222 67.8003C49.4978 67.9482 49.5063 68.0996 49.5472 68.2439C49.588 68.3883 49.6603 68.5221 49.7589 68.6362C49.8575 68.7503 49.9801 68.842 50.1181 68.9048C50.2562 68.9676 50.4064 69.0001 50.5585 69H61.5291C61.7788 68.9986 62.02 68.91 62.2097 68.7499C62.3995 68.5899 62.5255 68.3687 62.5653 68.1258L69.987 22.1933Z" fill="black"/>
</g>
<defs>
<clipPath id="clip0_586_549">
<rect width="51" height="48" fill="white" transform="translate(19 21)"/>
</clipPath>
</defs>
</svg>
