<svg width="90" height="90" viewBox="0 0 90 90" fill="none" xmlns="http://www.w3.org/2000/svg">
<circle cx="45" cy="45" r="45" fill="#EFEFEF"/>
<path d="M31.8037 33H23.197L11 59H19.6106L31.8037 33Z" fill="#8B2B52"/>
<path d="M56.1024 33H47.4958L35.2987 59H43.9054L56.1024 33Z" fill="#8B2B52"/>
<path d="M23.2129 33H31.8235L44.0206 59H35.41L23.2129 33Z" fill="#F4AF03"/>
<path d="M49.851 41.5698L53.8664 33.004L80 33L75.9846 41.5658L49.851 41.5698Z" fill="#8B2B52"/>
<path d="M75.3293 43.5792L71.31 52.145H60.5308L56.5154 43.5832L65.1221 43.5792H75.3293Z" fill="#8B2B52"/>
<path d="M68.2081 59H59.5975L56.3844 52.1449L52.3651 43.5832L47.4005 33H56.0111L60.9757 43.5791L64.991 52.1449L68.2081 59Z" fill="#F4AF03"/>
</svg>
