<svg xmlns="http://www.w3.org/2000/svg" width="90" height="90" fill="none"><g clip-path="url(#a)"><circle cx="45" cy="45" r="45" fill="#EFEFEF"/><path fill="#2E2192" d="M12.874 42.368c-1.618 1.176-2.428 4.456-2.871 6.178a.097.097 0 0 0-.003.025c.011.55.738-1.12.884-1.413.184-.369 1.584-2.994 2.21-3.464 1.18-.884 2.8-.736 4.938-.589 2.136.147 3.315-.221 3.758-.368.353-.118 3.34-1.818 5.01-2.727.978-.532 3.758-1.752 6.853-2.505 6.263-1.524 9.152-1.54 14.663-1.032 4.79.443 8.842 3.022 9.947 3.758 1.105.737 4.011 2.431 4.937 2.874 1.695.81 4.2.81 8.621.663 2.432-.147 4.48.177 5.01.295l.053.011c.631.14 1.008.224 1.495.873.663.884.884 2.726 1.105 3.832.18.898.516.81.516.442 0-.304-.074-1.646-.221-2.284-.221-.958-.55-2.04-.958-2.653-.442-.663-1.253-1.179-2.579-1.326-.963-.107-6.263-.295-9.358-.442-3.095-.148-4.116-1.072-6.042-2.285-1.99-1.252-3.758-3.02-7.59-4.347-1.556-.539-4.943-1.503-8.4-1.769-2.873-.22-7-.22-11.347.885-3.053.776-8.105 3.02-11.2 4.715-2.825 1.548-3.02 1.548-4.494 1.474-1.693-.084-3.316 0-4.937 1.18Z"/><path fill="#2E2192" d="M40.04 42.736H29.588c-.082 0-.126-.094-.07-.153 2.152-2.286 7.804-3.482 10.515-3.813a.094.094 0 0 1 .105.095v3.776a.096.096 0 0 1-.096.096ZM41.338 42.81h15.688c.091 0 .131-.113.057-.166-3.42-2.47-11.198-4.08-15.753-3.818a.094.094 0 0 0-.088.095v3.793c0 .053.043.096.096.096Z"/><path fill="#333" d="m14.818 55.301-.006-2.028-.983 1.651h-.482l-.983-1.607v1.984h-.995v-3.826h.89l1.345 2.209 1.312-2.209h.891l.011 3.826h-1Zm3.694.077c-.404 0-.769-.086-1.093-.257a1.954 1.954 0 0 1-.76-.71 1.942 1.942 0 0 1-.273-1.023c0-.379.091-.72.273-1.022.186-.302.44-.54.76-.71a2.304 2.304 0 0 1 1.093-.257c.404 0 .767.085 1.088.257.324.17.577.408.76.71.185.303.278.643.278 1.022 0 .38-.093.72-.279 1.022-.182.303-.435.54-.76.711-.32.171-.683.257-1.087.257Zm0-.897c.193 0 .368-.045.525-.136a.987.987 0 0 0 .371-.383c.091-.167.137-.359.137-.574 0-.215-.046-.404-.137-.568a.978.978 0 0 0-.371-.388 1.025 1.025 0 0 0-.525-.137c-.193 0-.368.046-.525.137a.979.979 0 0 0-.371.388 1.151 1.151 0 0 0-.137.568c0 .215.046.407.137.574a.988.988 0 0 0 .371.383c.157.09.332.136.525.136Zm6.167-3.006v3.826h-1.066v-2.968h-1.098l-.022.623a7.894 7.894 0 0 1-.137 1.334c-.069.343-.19.609-.36.798-.172.186-.414.279-.727.279-.146 0-.31-.022-.492-.066l.06-.885c.047.01.096.016.147.016a.373.373 0 0 0 .328-.17 1.18 1.18 0 0 0 .164-.47c.033-.203.055-.468.066-.792l.055-1.525h3.082Zm4.377 0v3.826H27.99v-2.968h-1.098l-.022.623a7.885 7.885 0 0 1-.137 1.334c-.069.343-.19.609-.36.798-.172.186-.414.279-.728.279-.145 0-.31-.022-.491-.066l.06-.885c.047.01.096.016.147.016a.372.372 0 0 0 .328-.17c.077-.112.131-.269.164-.47.033-.203.055-.468.066-.792l.054-1.525h3.083Zm5.05 3.083h-1.619l-.3.743h-1.104l1.689-3.826h1.065l1.695 3.826h-1.126l-.3-.743Zm-.318-.798-.492-1.224-.492 1.224h.984Zm4.97-.46c.226.074.397.187.514.34.12.153.18.342.18.568a.946.946 0 0 1-.4.804c-.261.193-.635.29-1.12.29H35.97v-3.827h1.858c.46 0 .815.088 1.066.263a.83.83 0 0 1 .383.732c0 .186-.046.35-.137.492a.917.917 0 0 1-.382.339Zm-1.722-.294h.689c.306 0 .459-.126.459-.377 0-.252-.153-.378-.46-.378h-.688v.755Zm.853 1.52c.313 0 .47-.134.47-.4 0-.258-.157-.388-.47-.388h-.853v.787h.853Zm5.178-2.193h-1.17v2.968h-1.066v-2.968h-1.175v-.858h3.41v.858Zm2.325 3.045c-.404 0-.768-.086-1.093-.257a1.954 1.954 0 0 1-.76-.71 1.942 1.942 0 0 1-.273-1.023c0-.379.091-.72.274-1.022.185-.302.439-.54.76-.71a2.304 2.304 0 0 1 1.093-.257c.404 0 .767.085 1.087.257.324.17.578.408.76.71.186.303.279.643.279 1.022 0 .38-.093.72-.28 1.022-.181.303-.435.54-.759.711-.32.171-.683.257-1.087.257Zm0-.897c.194 0 .368-.045.525-.136a.987.987 0 0 0 .372-.383c.09-.167.136-.359.136-.574 0-.215-.045-.404-.136-.568a.978.978 0 0 0-.372-.388 1.025 1.025 0 0 0-.525-.137c-.193 0-.368.046-.524.137a.979.979 0 0 0-.372.388 1.151 1.151 0 0 0-.137.568c0 .215.046.407.137.574a.988.988 0 0 0 .372.383c.156.09.331.136.524.136Zm6.168-3.006v3.826h-1.066v-2.968h-1.099l-.022.623a7.894 7.894 0 0 1-.136 1.334c-.07.343-.19.609-.361.798-.171.186-.414.279-.727.279-.146 0-.31-.022-.492-.066l.06-.885c.048.01.097.016.148.016a.373.373 0 0 0 .328-.17 1.18 1.18 0 0 0 .164-.47c.032-.203.054-.468.065-.792l.055-1.525h3.083Zm2.698 3.903c-.404 0-.769-.086-1.093-.257a1.955 1.955 0 0 1-.76-.71 1.942 1.942 0 0 1-.273-1.023c0-.379.091-.72.273-1.022.186-.302.44-.54.76-.71a2.304 2.304 0 0 1 1.093-.257c.405 0 .767.085 1.088.257.324.17.578.408.76.71.186.303.279.643.279 1.022 0 .38-.093.72-.28 1.022-.181.303-.435.54-.759.711-.32.171-.683.257-1.088.257Zm0-.897c.193 0 .368-.045.525-.136a.988.988 0 0 0 .372-.383c.09-.167.136-.359.136-.574a1.15 1.15 0 0 0-.136-.568.978.978 0 0 0-.372-.388 1.025 1.025 0 0 0-.525-.137c-.193 0-.368.046-.524.137a.978.978 0 0 0-.372.388 1.15 1.15 0 0 0-.137.568c0 .215.046.407.137.574a.988.988 0 0 0 .372.383c.156.09.331.136.524.136Zm6.154.82-.005-2.028-.984 1.651h-.481l-.984-1.607v1.984h-.995v-3.826h.891l1.345 2.209 1.311-2.209h.891l.011 3.826h-1Zm1.814-3.826h3.198v.837h-2.132v.617h.99c.462 0 .817.099 1.065.295.248.197.372.48.372.848 0 .386-.139.688-.416.907-.277.215-.665.322-1.164.322h-1.913v-3.826Zm1.842 3.05c.182 0 .32-.036.415-.11a.37.37 0 0 0 .142-.31c0-.27-.185-.405-.557-.405h-.776v.825h.776Zm4.807.033h-1.618l-.3.743h-1.105l1.689-3.826h1.066l1.694 3.826h-1.126l-.3-.743Zm-.317-.798-.492-1.224-.492 1.224h.984Zm3.93-2.285c.347 0 .647.059.903.175.254.113.451.277.59.492.138.211.208.461.208.749s-.07.537-.208.749a1.362 1.362 0 0 1-.59.492c-.256.113-.556.17-.902.17h-.667v1H70.74v-3.827h1.749Zm-.065 1.973c.222 0 .39-.047.503-.142a.522.522 0 0 0 .17-.415.522.522 0 0 0-.17-.416c-.113-.098-.28-.147-.503-.147h-.601v1.12h.601Zm6.163.995v1.629h-.99v-.77h-2.448v.77h-.995v-1.629h.137c.226-.003.384-.158.476-.464.094-.306.153-.747.174-1.323l.044-1.18h3.083v2.967h.52Zm-2.7-1.694a7.521 7.521 0 0 1-.098 1.038c-.051.285-.13.503-.235.656H77v-2.11h-1.099l-.016.416Z"/></g><defs><clipPath id="a"><path fill="#fff" d="M0 0h90v90H0z"/></clipPath></defs></svg>