<svg width="90" height="90" viewBox="0 0 90 90" fill="none" xmlns="http://www.w3.org/2000/svg">
<circle cx="45" cy="45" r="45" fill="#EFEFEF"/>
<g clip-path="url(#clip0_572_354)">
<path d="M32.0831 50.0425C32.2571 50.433 32.4236 50.8387 32.59 51.2442C32.7565 50.8161 32.9229 50.4106 33.0969 50.0125C33.2709 49.6145 33.46 49.2615 33.6567 48.886L45.1413 29.1039C45.272 28.8253 45.5007 28.6037 45.7844 28.4806C46.0895 28.3957 46.4058 28.3577 46.7225 28.368H50.0438V60.662H46.0567V37.1024C46.0567 36.7719 46.0567 36.4115 46.0567 36.0059C46.0567 35.6003 46.1097 35.2023 46.1399 34.7892L34.5343 55.0669C34.3871 55.372 34.155 55.6288 33.8654 55.8071C33.5759 55.9854 33.2409 56.0778 32.9002 56.0732H32.2571C31.9164 56.0778 31.5815 55.9854 31.2919 55.8071C31.0023 55.6288 30.7702 55.372 30.6229 55.0669L18.745 34.8418C18.8366 35.5894 18.8847 36.3417 18.8888 37.0949V60.6545H14.9319V28.3604H18.2456C18.5598 28.349 18.8739 28.3871 19.1762 28.4731C19.4632 28.6115 19.6951 28.8416 19.8345 29.1265L31.4628 48.8785C31.6926 49.2539 31.8998 49.6426 32.0831 50.0425Z" fill="#85B040"/>
<path d="M74.5715 53.9253C74.693 53.9289 74.8124 53.9567 74.9229 54.007C75.0334 54.0573 75.1326 54.1292 75.2145 54.2182L77 56.1333C75.8557 57.6481 74.3714 58.8773 72.6649 59.7232C70.74 60.618 68.6314 61.0552 66.5065 61C64.5288 61.0267 62.57 60.6162 60.7719 59.7983C59.078 59.007 57.5819 57.8528 56.3914 56.4187C55.1305 54.8754 54.1802 53.106 53.5921 51.2066C52.9197 49.0397 52.5904 46.7822 52.6161 44.515C52.5901 42.2401 52.9429 39.9766 53.6602 37.8159C54.2826 35.8928 55.2743 34.1075 56.5805 32.5587C57.8134 31.1165 59.35 29.9603 61.082 29.1716C62.901 28.3514 64.8795 27.9386 66.8772 27.9625C68.7799 27.9244 70.6678 28.3012 72.4077 29.0664C73.9778 29.7943 75.3929 30.8141 76.5764 32.0705L75.0633 34.1283C74.9637 34.2748 74.838 34.402 74.6925 34.5039C74.5191 34.6064 74.3192 34.656 74.1176 34.6465C73.7653 34.6171 73.4364 34.4593 73.1945 34.2034C72.7753 33.8517 72.333 33.528 71.8705 33.2346C71.231 32.8366 70.5484 32.5117 69.8354 32.2658C67.5576 31.5552 65.096 31.7022 62.9205 32.6788C61.7319 33.2677 60.6963 34.1211 59.8942 35.1723C58.9901 36.3653 58.3179 37.7151 57.912 39.1527C57.4208 40.8847 57.1837 42.6782 57.2084 44.4775C57.1842 46.2903 57.4393 48.0961 57.965 49.8323C58.391 51.2706 59.0782 52.6195 59.9926 53.8127C60.7998 54.8551 61.8345 55.7024 63.0188 56.2911C64.1812 56.8676 65.4643 57.1635 66.7637 57.1548C67.5063 57.1605 68.248 57.1027 68.9805 56.982C69.6015 56.8758 70.2082 56.6995 70.7887 56.4563C71.3448 56.2169 71.8684 55.9091 72.3472 55.5401C72.868 55.1436 73.354 54.7039 73.7998 54.2258C74.0116 54.0357 74.286 53.9289 74.5715 53.9253Z" fill="#4A622C"/>
</g>
<defs>
<clipPath id="clip0_572_354">
<rect width="62" height="33" fill="white" transform="translate(15 28)"/>
</clipPath>
</defs>
</svg>
