<svg width="90" height="90" viewBox="0 0 90 90" fill="none" xmlns="http://www.w3.org/2000/svg">
<circle cx="45" cy="45" r="45" fill="#EFEFEF"/>
<path d="M80 44.4997C80.0047 49.7684 78.8027 54.9683 76.486 59.7005C74.1694 64.4326 70.7997 68.5713 66.6353 71.799C62.471 75.0268 57.6227 77.2579 52.4623 78.3211C47.3019 79.3844 41.9666 79.2516 36.8655 77.933C31.7644 76.6143 27.033 74.1448 23.0344 70.7139C19.0358 67.283 15.8761 62.9819 13.7977 58.1403C11.7193 53.2988 10.7774 48.0456 11.0443 42.7835C11.3111 37.5215 12.7797 32.3905 15.3372 27.7841C12.0338 34.2963 11.1089 41.7579 12.7225 48.8795C14.336 56.0011 18.3865 62.3354 24.1742 66.7878C29.9619 71.2402 37.123 73.5311 44.4203 73.2645C51.7176 72.9979 58.6925 70.1906 64.1398 65.3277C69.5871 60.4648 73.1647 53.8518 74.2542 46.6314C75.3438 39.4111 73.8769 32.0369 70.1071 25.7831C66.3372 19.5294 60.5013 14.7889 53.6076 12.3809C46.7139 9.97292 39.1957 10.0486 32.3519 12.595C37.5935 10.439 43.2854 9.60685 48.9249 10.1721C54.5643 10.7373 59.9778 12.6826 64.6873 15.836C69.3968 18.9894 73.2573 23.254 75.9279 28.253C78.5985 33.2521 79.997 38.8319 80 44.4997Z" fill="#51818A"/>
<path d="M58.6965 29.9659C61.6798 29.9659 64.0982 27.5475 64.0982 24.5642C64.0982 21.5809 61.6798 19.1624 58.6965 19.1624C55.7131 19.1624 53.2947 21.5809 53.2947 24.5642C53.2947 27.5475 55.7131 29.9659 58.6965 29.9659Z" fill="#51818A"/>
<path d="M36.9267 56.6623C40.5635 56.6623 43.5117 53.7141 43.5117 50.0773C43.5117 46.4405 40.5635 43.4922 36.9267 43.4922C33.2898 43.4922 30.3416 46.4405 30.3416 50.0773C30.3416 53.7141 33.2898 56.6623 36.9267 56.6623Z" fill="#51818A"/>
<path d="M66.5528 61.963C70.1896 61.963 73.1378 59.0148 73.1378 55.378C73.1378 51.7411 70.1896 48.7929 66.5528 48.7929C62.9159 48.7929 59.9677 51.7411 59.9677 55.378C59.9677 59.0148 62.9159 61.963 66.5528 61.963Z" fill="#51818A"/>
<path d="M32.9237 18.3267C32.9237 18.3267 36.9267 29.4205 42.3152 27.8985C42.3152 27.8985 47.2375 23.0114 32.9237 18.3267Z" fill="#51818A"/>
<path d="M28.846 25.5319C28.846 25.5319 32.0352 30.8105 36.9267 28.3692C36.9267 28.3692 36.1349 24.4894 28.846 25.5319Z" fill="#51818A"/>
<path d="M45.5 26.0026C45.5 26.0026 44.9369 14.9307 46.8196 13.4175C48.7023 11.9043 52.3094 14.8383 45.5 26.0026Z" fill="#51818A"/>
<path d="M36.9267 56.6624V60.4586L34.6217 58.5583L30.3416 62.3501L31.3094 55.2548L31.4677 53.7592L36.9267 56.6624Z" fill="#51818A"/>
<path d="M65.1055 39.4146C65.1055 39.4146 66.3284 34.8091 68.1275 32.4337C69.9267 30.0583 71.5366 36.7358 65.1055 39.4146Z" fill="#51818A"/>
<path d="M63.1129 45.9776C63.1129 45.9776 65.1935 40.9586 70.78 41.2313C70.78 41.2313 69.1701 46.2592 63.1129 45.9776Z" fill="#51818A"/>
<path d="M61.4061 38.2137C61.4061 38.2137 55.824 39.0671 56.8621 50.9923C56.8621 50.9923 56.673 52.7518 52.7008 56.6624C52.7008 56.6624 55.9164 52.6023 55.3401 47.5876C54.7639 42.5729 54.3944 40.897 50.9853 39.4146C47.5762 37.9322 40.6701 37.6859 38.4926 35.68C38.4926 35.68 40.6701 39.3266 48.1481 41.2313C55.6261 43.136 54.1744 50.9923 53.2947 52.3163C52.4149 53.6404 50.0483 56.6624 50.0483 56.6624C50.0483 56.6624 50.9017 51.8941 49.956 48.7929C49.0102 45.6917 46.0718 44.3237 44.3695 43.5143C44.3695 43.5143 44.9369 50.2049 48.3284 53.7812C48.3284 53.7812 48.8959 56.8603 48.1393 58.8706C47.5918 60.1499 46.6722 61.2351 45.5 61.985C45.5 61.985 46.8196 57.3574 45.5 54.507C45.5 54.507 40.1114 57.916 41.6246 64.07C41.6246 64.07 29.2111 63.4542 22.8768 65.7987L30.3548 73.9102L45.9926 76.1844L51.3416 72.2914C51.3416 72.2914 44.5718 70.0304 42.302 67.853C42.302 67.853 53.1847 60.1858 57.8255 52.4263C62.4662 44.6668 61.5029 40.0128 61.4061 38.2137ZM28.1554 69.4322L26.2199 68.2709C26.2199 68.2709 28.6789 65.2841 36.0645 65.7592C36.0425 65.7592 35.5586 68.7548 28.1554 69.4322ZM38.0264 72.9028C35.7478 72.4322 34.8548 72.199 34.8548 72.199C34.8548 72.199 34.714 69.243 38.8797 69.4498C43.0454 69.6565 40.3094 73.3427 38.0264 72.9028Z" fill="#51818A"/>
<path d="M52.8372 71.1741C52.8372 71.1741 49.8944 67.8486 43.5073 66.9425C37.1202 66.0363 43.1334 64.0084 43.1334 64.0084H46.7009C46.7009 64.0084 46.2082 66.5554 48.6671 65.7064C51.1261 64.8574 54.0777 61.9806 58.6964 62.3501C61.1622 62.5071 63.6049 62.9199 65.9853 63.5818V66.7445L60.8387 67.9366C60.8387 67.9366 58.7536 65.7372 51.6583 67.5671C51.6583 67.5671 55.3006 69.8985 57.3284 69.9952C59.3563 70.092 61.0674 71.6976 61.0674 71.6976L53.2771 74.1565L52.8372 71.1741Z" fill="#51818A"/>
<path d="M61.5513 59.658C61.5513 59.658 54.4868 59.1653 50.6686 60.8897C46.8504 62.614 50.6686 58.0568 50.6686 58.0568L51.3372 59.0905C51.3372 59.0905 58.129 58.4131 60.7727 58.5363C63.4164 58.6595 61.5513 59.658 61.5513 59.658Z" fill="#51818A"/>
<path d="M52.8108 40.4351C52.8108 40.4351 51.9794 32.8735 42.2316 31.2459C32.4838 29.6184 27.0909 34.5275 24.5879 38.8471C22.085 43.1668 22.9868 51.4937 31.2346 55.9234H33.9179L31.4853 53.7591C28.7819 52.4595 26.7047 50.1402 25.7097 47.3105C24.1569 42.6477 26.4179 37.1932 30.3416 35.68C30.3416 35.68 29.0791 38.5216 29.7698 41.2313C29.7698 41.2313 30.4384 32.8031 37.9472 32.4336C45.456 32.0641 49.9208 35.4248 50.9941 39.4146L52.1422 41.2313L52.8108 40.4351Z" fill="#51818A"/>
<path d="M42.3152 27.8985C42.3152 27.8985 44.9545 29.9616 44.9985 31.9411L45.4384 32.9748L48.1877 34.4396L50.6906 37.0305L51.5703 38.5877C51.5703 38.5877 56.0615 38.1478 57.0997 35.6801C57.0997 35.6801 55.6305 33.7182 51.7419 35.6801C51.7419 35.6801 54.5088 30.8985 51.5703 26.5789C51.5703 26.5789 48.5835 28.8267 47.4838 33.4894L46.0146 32.5833C46.0146 32.5833 47.0703 29.834 42.6715 26.7944C38.2727 23.7548 42.3152 27.8985 42.3152 27.8985Z" fill="#51818A"/>
<path d="M58.0674 19.1625C58.0674 19.1625 54.3416 16.7343 49.9208 21.3619C45.5 25.9895 46.7009 33.01 46.7009 33.01L47.4531 33.4807C47.4531 33.4807 47.1539 27.1552 49.4809 23.8648C51.8079 20.5745 54.0777 19.2857 56.2551 19.7519C58.4325 20.2182 57.7639 20.944 57.7639 20.944L58.0674 19.1625Z" fill="#51818A"/>
</svg>
