<svg xmlns="http://www.w3.org/2000/svg" width="90" height="90" fill="none"><circle cx="45" cy="45" r="45" fill="#F5F5F5"/><path fill="#323B56" d="M61.737 16C72.025 21.697 79 32.422 79 44.738 79 63.087 63.48 78 44.387 78 30.437 78 18.493 70.124 13 58.646h20.837c2.616 7.96 10.288 13.74 19.443 13.74 11.16 0 20.227-8.713 20.227-19.437 0-7.792-4.795-14.579-11.77-17.679V16Z"/><path fill="#19AB58" d="M45.578 10c2.532 0 5.064.268 7.422.804v22.589c-9.168.625-16.678 7.59-18.424 16.607H11.262A40.196 40.196 0 0 1 11 45.357C11 25.893 26.455 10 45.578 10Z"/></svg>