<svg width="90" height="90" viewBox="0 0 90 90" fill="none" xmlns="http://www.w3.org/2000/svg">
<circle cx="45" cy="45" r="45" fill="#2B73C7"/>
<path d="M26.686 48.4526L32.857 44.8924L26.686 41.3322C26.0926 40.9762 25.9739 40.3828 26.2113 39.7895L39.2654 17.1228C39.6214 16.5294 40.3334 16.4108 40.8081 16.6481L57.3038 26.0233V30.0582L41.1642 20.9204L30.6022 39.5521L57.4224 54.7423V63.7615L40.8081 73.1368C40.2148 73.4928 39.6214 73.2554 39.2654 72.6621L26.2113 49.9954C25.9739 49.402 26.0926 48.69 26.686 48.4526Z" fill="white"/>
<path d="M44.2497 28.9902L57.3038 36.4666V40.2642L42.5882 31.8383C41.7575 31.3636 41.5202 30.4143 41.9949 29.5835C42.4696 28.8715 43.4189 28.5155 44.2497 28.9902Z" fill="white"/>
<path d="M40.8083 35.2799L57.3039 44.6551V48.4526L39.1468 38.128C38.3161 37.6533 38.0788 36.7039 38.5535 35.8732C39.0282 35.1612 40.0962 34.8052 40.8083 35.2799Z" fill="white"/>
<path d="M63.0002 26.6167H60.5081V63.1682H63.0002V26.6167Z" fill="white"/>
</svg>
