<svg width="90" height="90" fill="none" xmlns="http://www.w3.org/2000/svg"><circle cx="45" cy="45" r="45" fill="#F5F5F5"/><path fill-rule="evenodd" clip-rule="evenodd" d="M47.89 19.118c-14.503-1.35-27.256 9.025-28.673 23.196-.417 4.639.417 9.194 2.334 13.158l-5.835 12.652 15.17-2.108a26.954 26.954 0 0 0 12.17 4.217c14.504 1.35 27.257-9.11 28.674-23.196 1.25-14.086-9.42-26.654-23.84-27.919Z" fill="#47AB34"/><path opacity=".19" fill-rule="evenodd" clip-rule="evenodd" d="M65.311 27.89 15.716 68.04v.084l15.17-2.109a26.952 26.952 0 0 0 12.17 4.218c14.504 1.35 27.257-9.11 28.674-23.196A25.663 25.663 0 0 0 65.31 27.89Z" fill="#D00E61"/><path fill-rule="evenodd" clip-rule="evenodd" d="M67.229 49.146c-2.334 11.809-14.087 19.4-26.09 17.123-12.086-2.278-19.921-13.75-17.504-25.474 2.334-11.808 14.087-19.4 26.09-17.122 12.002 2.277 19.838 13.664 17.504 25.473Z" fill="#E20848"/><path fill-rule="evenodd" clip-rule="evenodd" d="M32.97 47.712c-.5 1.18-.917 2.109-1.334 2.783h7.002l1.834-11.64h-4.668c-.584 3.543-1.667 6.074-2.834 8.857Zm-.75-13.074 11.002.084c1.667 0 2.334.76 2.084 2.362l-2.167 13.58h1.334l-1.084 6.917h-4.501l.584-3.543-9.586-.084-.334 2.108s-2.083-2.952-2.584-5.313l.167-.17c2.918-4.807 4.001-9.109 5.085-15.94ZM58.56 46.11l.25-1.772c-1.167.506-2.5.843-3.918 1.18-1.917.338-3 1.266-3.25 2.7-.084 1.518.583 2.277 2 2.277 2.667-.084 4.501-1.687 4.918-4.386Zm5.585-6.327-1.084 6.495c-.833 5.314-4.334 7.676-9.419 8.013-4.584.337-7.335-1.856-6.668-6.073 1-4.64 4.25-5.82 9.085-6.242 2.168-.253 3.251-.928 3.335-1.94.083-1.096-.834-1.687-2.751-1.687-1.584-.084-2.584.422-3.084 1.35H48.89c1.167-3.543 3.834-5.314 8.169-5.23 5.25 0 7.585 1.772 7.085 5.314Z" fill="#fff"/></svg>