<svg width="90" height="90" viewBox="0 0 90 90" fill="none" xmlns="http://www.w3.org/2000/svg">
<circle cx="45" cy="45" r="45" fill="#0925A1"/>
<g clip-path="url(#clip0_527_539)">
<path d="M76.0261 54.623C75.8652 53.5143 75.7668 52.5211 75.5666 51.5475C75.3986 50.732 75.1858 49.8561 73.8343 50.2505C74.5744 48.8718 73.6179 48.3494 72.8492 47.7791C70.8058 46.2653 68.4513 45.4515 66.0021 44.883C60.8605 43.689 55.633 43.506 50.3806 43.6393C47.3682 43.7139 44.4399 43.3746 41.5937 42.4116C40.2958 41.9727 39.0336 41.4326 37.7554 40.9369C37.7822 40.841 37.809 40.745 37.8341 40.6473C43.335 39.83 48.7859 39.9917 54.1724 41.6121C54.1069 41.5007 54.0073 41.4129 53.8882 41.3615C51.1349 40.4048 48.2729 39.7907 45.3677 39.5333C41.6652 39.1939 37.9932 39.4764 34.3247 39.9224C31.1621 40.3062 28.1658 41.1892 25.4753 42.9428C23.3121 44.3535 21.1495 45.7643 18.9875 47.175C17.0567 48.4382 16.127 50.215 16.2826 52.514C16.3291 53.2034 16.4614 53.8874 16.5633 54.6159C12.253 55.0601 4.99821 55.9787 5 56H18.8319C18.6531 55.4883 18.5065 55.0761 18.3814 54.655C18.061 53.5922 18.1621 52.4479 18.6639 51.4569C19.6489 49.419 21.9516 48.957 23.5034 50.6129C24.1702 51.3236 24.6225 52.3541 24.8549 53.3153C25.0569 54.1469 24.812 55.0921 24.7655 55.968H47.5309C47.1894 55.4545 46.8909 55.0228 46.6102 54.5804C45.348 52.5816 45.5804 49.7015 47.1465 47.9656C49.2293 45.6559 53.0604 46.5442 54.3083 49.6713C55.2022 51.9242 55.0002 54.0562 53.2053 55.984C53.2053 55.984 86.0036 55.9502 86.0054 55.9342C81.8774 55.4989 80.0789 55.0565 76.0261 54.623ZM34.7645 44.931C32.4136 45.2028 30.0519 45.3858 27.6939 45.599C27.4859 45.6124 27.2771 45.6017 27.0717 45.5671C26.0867 45.4231 25.7524 44.7782 26.4782 44.1457C27.4579 43.2786 28.5645 42.456 29.7587 41.9425C33.6918 40.2475 37.2942 41.1679 40.589 43.6873C40.7023 43.7998 40.8035 43.9236 40.8911 44.0568C38.7816 44.3553 36.7757 44.6964 34.7645 44.931ZM56.8863 46.8854C56.4661 46.4128 56.1211 45.8709 55.7421 45.3609L55.903 45.1833C59.4642 46.0077 62.8091 47.278 65.514 49.8934C62.4748 49.3266 59.1889 49.4758 56.8791 46.8836L56.8863 46.8854Z" fill="white"/>
<path d="M53.2052 22.2494C52.9371 21.9118 52.3203 21.8549 51.8716 21.6541C51.6302 21.544 51.2369 21.4463 51.1922 21.2722C50.908 20.1599 50.0999 19.9982 49.1345 20C45.171 20 41.2093 20 37.2459 20C35.7567 20 35.2418 20.4975 35.24 21.9544C35.24 27.403 35.24 32.8517 35.24 38.3003C35.24 38.5526 35.2758 38.8031 35.2936 39.0341C36.5254 38.963 39.0336 38.8013 40.7696 38.7249V37.9165H40.0205V37.1507H40.7696V36.1629H40.0205V35.0968H40.7696V31.4386H44.1931C45.8289 31.4386 46.7407 32.5295 46.7407 33.8069C46.7407 35.0844 45.8182 36.1647 44.1931 36.1647H42.1354V37.1525H45.0226V37.9183H42.1354V38.6876C45.0781 38.6876 48.7162 39.2419 51.2762 39.8318V37.2822C52.2792 37.1774 52.39 37.2556 52.4222 38.0782C52.4436 38.6112 52.4222 39.1442 52.449 39.6772C52.449 39.7732 52.449 39.8656 52.4669 39.9562C52.4833 40.0742 52.5264 40.187 52.593 40.2861C52.6596 40.3851 52.7479 40.468 52.8513 40.5283L53.0944 40.674C53.0944 40.0841 53.0944 39.0749 53.0944 38.4922C53.0944 36.7901 52.9996 36.6817 51.2333 36.4543C51.2333 32.1901 51.2333 27.9971 51.2458 23.7969C51.2678 23.6537 51.3298 23.5195 51.4246 23.4095C51.4351 23.393 51.4496 23.3794 51.4668 23.37C51.484 23.3605 51.5033 23.3556 51.5229 23.3556C51.5426 23.3556 51.5619 23.3605 51.5791 23.37C51.5963 23.3794 51.6108 23.393 51.6213 23.4095C51.7035 23.557 51.7858 23.7045 51.8519 23.8573C52.0897 24.4134 52.272 24.9979 52.5563 25.5292C52.8745 26.1279 53.2964 26.6379 54.1063 26.1972C54.1527 26.1724 54.285 26.2399 54.3405 26.2985C54.8661 26.8315 55.5919 27.2917 55.8744 27.9367C57.8838 32.3927 58.177 36.8203 55.2719 41.0844C55.76 41.5606 55.9995 41.1502 56.2301 40.8126C57.4029 39.1016 57.9553 37.1756 58.0411 35.1395C58.2575 30.1789 56.2069 26.0213 53.2052 22.2494ZM49.0183 27.8194C49.0183 28.4572 48.7394 28.7077 48.094 28.7077C46.485 28.6846 44.876 28.7077 43.2671 28.7077C41.6581 28.7077 40.0491 28.6846 38.4401 28.7166C37.7107 28.7326 37.4086 28.4466 37.4157 27.7305C37.4336 26.1623 37.4336 24.594 37.4157 23.0258C37.405 22.3258 37.7286 22.0965 38.3972 22.1001C41.6152 22.1155 44.8302 22.1155 48.0422 22.1001C48.7251 22.1001 49.0219 22.3506 49.0129 23.0364C49.0022 24.623 49.0076 26.2203 49.0183 27.8194V27.8194ZM53.8077 25.865C53.7756 25.8997 53.7369 25.9278 53.6938 25.9476C53.6507 25.9673 53.6041 25.9783 53.5567 25.98C53.5093 25.9816 53.462 25.9739 53.4176 25.9572C53.3732 25.9405 53.3326 25.9152 53.2982 25.8827C53.0683 25.6055 52.8727 25.3019 52.7154 24.9784C53.3447 24.5022 53.2982 24.7812 53.8095 25.8668L53.8077 25.865ZM45.3409 33.8691C45.3409 33.1247 44.7795 32.6379 44.0072 32.6379H42.1372V35.1004H44.0072C44.7759 35.0951 45.3409 34.6065 45.3409 33.8638V33.8691Z" fill="white"/>
<path d="M40.7715 38.7249V39.1833H42.1373V38.6858C41.8084 38.6858 41.3293 38.7018 40.7715 38.7249Z" fill="#606060"/>
</g>
<defs>
<clipPath id="clip0_527_539">
<rect width="81" height="36" fill="white" transform="translate(5 20)"/>
</clipPath>
</defs>
</svg>
