<svg width="90" height="90" viewBox="0 0 90 90" fill="none" xmlns="http://www.w3.org/2000/svg">
<circle cx="45" cy="45" r="45" fill="#F5F5F5"/>
<path d="M59.8352 39.3125H52.3693C52.233 38.3466 51.9545 37.4886 51.5341 36.7386C51.1136 35.9773 50.5739 35.3295 49.9148 34.7955C49.2557 34.2614 48.4943 33.8523 47.6307 33.5682C46.7784 33.2841 45.8523 33.142 44.8523 33.142C43.0455 33.142 41.4716 33.5909 40.1307 34.4886C38.7898 35.375 37.75 36.6705 37.0114 38.375C36.2727 40.0682 35.9034 42.125 35.9034 44.5455C35.9034 47.0341 36.2727 49.125 37.0114 50.8182C37.7614 52.5114 38.8068 53.7898 40.1477 54.6534C41.4886 55.517 43.0398 55.9489 44.8011 55.9489C45.7898 55.9489 46.7045 55.8182 47.5455 55.5568C48.3977 55.2955 49.1534 54.9148 49.8125 54.4148C50.4716 53.9034 51.017 53.2841 51.4489 52.5568C51.892 51.8295 52.1989 51 52.3693 50.0682L59.8352 50.1023C59.642 51.7045 59.1591 53.25 58.3864 54.7386C57.625 56.2159 56.5966 57.5398 55.3011 58.7102C54.017 59.8693 52.483 60.7898 50.6989 61.4716C48.9261 62.142 46.9205 62.4773 44.6818 62.4773C41.5682 62.4773 38.7841 61.7727 36.3295 60.3636C33.8864 58.9545 31.9545 56.9148 30.5341 54.2443C29.125 51.5739 28.4205 48.3409 28.4205 44.5455C28.4205 40.7386 29.1364 37.5 30.5682 34.8295C32 32.1591 33.9432 30.125 36.3977 28.7273C38.8523 27.3182 41.6136 26.6136 44.6818 26.6136C46.7045 26.6136 48.5795 26.8977 50.3068 27.4659C52.0455 28.0341 53.5852 28.8636 54.9261 29.9545C56.267 31.0341 57.358 32.358 58.1989 33.9261C59.0511 35.4943 59.5966 37.2898 59.8352 39.3125Z" fill="#E3E3E3"/>
</svg>
