<svg width="90" height="90" viewBox="0 0 90 90" fill="none" xmlns="http://www.w3.org/2000/svg">
<circle cx="45" cy="45" r="45" fill="#26A861"/>
<g clip-path="url(#clip0_585_510)">
<path d="M13 42.535C13.4 32.7241 18.51 23.5952 28.6933 17.4181C34.1366 14.1236 40.23 12.8058 46.5266 13.0265C52.48 13.2472 58.0833 14.9538 62.9533 18.5645C64.7733 19.912 65.21 21.2594 64.2433 22.7287C63.1433 24.3957 61.7867 24.6428 59.82 23.3283C56.2133 20.9102 52.32 19.3749 47.9566 18.917C42.1966 18.3372 36.79 19.4046 31.81 22.2675C25.4067 25.954 21.2767 31.5513 19.56 38.5586C17.56 46.7388 19.4433 54.2864 24.7933 60.9412C28.0512 65.0059 32.5104 67.9654 37.55 69.4079C42.2933 70.8081 47.2166 70.6895 52.0266 69.3717C60.7433 66.9767 66.5733 61.3003 69.6367 53.074C72.3033 45.9415 71.5533 38.8287 67.8933 32.0849C67.3933 31.1691 66.8167 30.2961 66.3 29.3901C65.4567 27.9142 65.74 26.2867 66.9667 25.4631C68.1933 24.6395 70.2367 25.0052 71.1633 26.2801C74.6438 31.0153 76.6534 36.6499 76.9466 42.4955C77.42 50.9557 74.85 58.5132 69.33 64.9934C65.2651 69.7699 59.8212 73.2055 53.7267 74.8405C39.68 78.7708 24.1767 72.4454 17.06 59.8705C14.3767 55.1001 12.9633 49.9706 13 42.535Z" fill="white"/>
</g>
<defs>
<clipPath id="clip0_585_510">
<rect width="64" height="63" fill="white" transform="translate(13 13)"/>
</clipPath>
</defs>
</svg>
