<svg width="90" height="90" fill="none" xmlns="http://www.w3.org/2000/svg"><circle cx="45" cy="45" r="45" fill="url(#a)"/><path fill-rule="evenodd" clip-rule="evenodd" d="m71.106 39.642-.007-.3v-5.43c0-1.096.955-1.73 1.906-1.896v-1.424c-1.802.051-3.591.36-5.4.36-1.806 0-3.595-.309-5.397-.36v1.425c.95.164 1.905.799 1.905 1.896v5.154c0 3.581-2.915 4.772-5.884 4.938l-1.577.087 1.247-1.006c1.169-.944 1.649-2.24 1.649-3.744v-7.443c0-2.027.15-4.454-.543-6.373-1.222-3.386-5.034-4.46-8.12-5-4.358-.762-9.554-.7-13.877.215-3.244.686-6.074 1.865-9.456 1.958v1.437c.951.165 1.906.8 1.906 1.897v1.485a42.459 42.459 0 0 1 6.986 0V24.36c0-1.464 1.916-1.989 3.003-2.177 1.821-.318 3.92-.209 5.733.119 2.863.515 7.381 2.096 7.381 5.813v10.952c0 2.922-2.015 4.248-4.329 4.731a5.505 5.505 0 0 1-.237-1.645v-8.24c0-1.097.955-1.732 1.906-1.897v-1.438c-3.38-.093-6.213-1.271-9.455-1.958-2.483-.525-4.964-.727-7.495-.727-2.532 0-5.013.202-7.495.727-3.243.688-6.075 1.865-9.456 1.957v1.439c.951.165 1.906.8 1.906 1.897v8.24c0 .879-.178 1.84-.68 2.568.496.727.68 1.702.68 2.567v8.24c0 1.098-.955 1.732-1.906 1.897v1.439c3.38.091 6.213 1.27 9.456 1.956a31.93 31.93 0 0 0 3.507.54v-1.586c-2.061-.35-4.07-1.076-4.07-2.571v-9.915c0-.865.182-1.84.678-2.567-.501-.727-.679-1.69-.679-2.569v-9.914c0-2.666 6.388-2.888 8.06-2.886 1.676.002 8.057.236 8.057 2.903v9.898c0 .879-.179 1.84-.68 2.568.496.727.68 1.702.68 2.567v9.898c0 1.497-2.01 2.228-4.072 2.58v1.593c1.173-.116 2.34-.29 3.508-.538 3.243-.686 6.076-1.866 9.456-1.957v-1.439c-.952-.165-1.907-.798-1.907-1.896v-8.24c0-.531.065-1.103.239-1.635 2.301.499 4.328 1.848 4.328 4.72v10.952c0 3.71-4.5 5.294-7.382 5.814-1.813.328-3.912.436-5.733.119-1.087-.189-3.003-.714-3.003-2.177V47.29c0-.878.18-1.84.68-2.568-.5-.729-.68-1.69-.68-2.568V30.11c-2.164-.324-4.82-.327-6.986-.006v12.048c0 .877-.178 1.84-.678 2.568.5.728.678 1.69.678 2.568v16.119c0 1.098-.955 1.731-1.905 1.897v1.438c3.382.093 6.21 1.27 9.456 1.957 4.323.916 9.517.977 13.877.215 3.086-.54 6.898-1.615 8.12-5 .692-1.919.542-4.346.542-6.373v-7.444c0-1.505-.481-2.804-1.653-3.746l-1.216-.98 1.537.06c3.106.132 5.897 1.499 5.897 4.941v5.12c0 6.64 4.096 6.1 8.893 6.057v-1.434c-.952-.166-1.906-.799-1.906-1.896v-8.122c0-1.69-.611-3.091-2.033-4.022-.611-.4-1.693-.842-2.433-.842h-.494v-1.027h.494c.74 0 1.822-.442 2.433-.843 1.302-.851 1.95-2.139 2.04-3.721Z" fill="#fff"/><defs><linearGradient id="a" x1="45" y1="90" x2="10.5" y2="17.5" gradientUnits="userSpaceOnUse"><stop stop-color="#1B5097"/><stop offset="1" stop-color="#3E8EF6"/></linearGradient></defs></svg>