<svg width="90" height="90" viewBox="0 0 90 90" fill="none" xmlns="http://www.w3.org/2000/svg">
<circle cx="45" cy="45" r="45" fill="#F5F5F5"/>
<g clip-path="url(#clip0_546_361)">
<path d="M73.4644 32.6371C73.9324 32.3386 74.4547 32.1392 75.0001 32.0507V29.9057C75.0001 29.9057 72.2811 29.9379 70.7163 30.4005C69.1515 30.8632 68.3862 30.7568 67.458 30.4648C66.5298 30.1729 63.6578 29.8463 62.7952 29.8463V32.1126C62.7952 32.1126 64.999 32.0804 64.999 33.7083V39.5645C64.999 39.5645 64.7123 41.8085 63.0187 42.7808C61.3252 43.7531 58.0036 44.2132 59.1311 43.1717C60.2585 42.1301 60.7931 41.1553 60.7931 39.0424V27.6939C60.796 26.4589 60.4908 25.2435 59.9059 24.1616C59.3211 23.0797 58.4759 22.1668 57.4497 21.5087C53.8487 19.1113 45.7721 19 43.7432 19C41.7143 19 32.8237 19.9599 29.4463 21.4741L26.0688 21.5137V24.0991C26.0688 24.0991 27.7697 24.0991 28.1269 25.0887C28.4841 26.0783 28.1269 64.4264 28.1269 64.4264C28.1269 64.4264 28.3237 65.6634 26.0688 65.6634V68.3552C26.0688 68.3552 29.1668 68.0089 32.0146 68.9069C38.2117 71.0023 44.8135 71.5462 51.261 70.4928C60.8149 68.9762 60.6108 63.5926 60.6108 62.2146V50.2574C60.6108 50.2574 60.6934 48.1544 59.7288 47.103C58.7642 46.0515 58.9999 45.7002 60.1078 45.9451C61.2158 46.19 64.9674 47.4295 64.9674 49.6265V57.4792C64.9674 57.4792 65.157 62.8084 69.8562 62.8084H75.0049V60.74C75.0049 60.74 72.8691 61.1953 72.8691 58.9884V49.5572C72.8363 48.8439 72.6366 48.1489 72.2867 47.5301C71.9367 46.9113 71.4466 46.3865 70.8573 45.9995C68.8478 44.6907 67.4944 45.1188 68.685 44.6685C69.8756 44.2182 73.0076 43.2063 73.0076 39.7203V33.9706C73.0076 33.9706 72.8254 33.1022 73.4644 32.6371ZM52.5196 50.7695V62.7341C52.5196 64.7134 49.39 67.2666 43.3398 67.9025C37.2896 68.5383 36.0675 66.0618 36.0675 66.0618V46.1208L37.2265 45L36.0675 43.3869V23.9481C36.0675 23.9481 37.0151 20.9941 44.6616 22.1272C52.3082 23.2603 52.5196 27.6098 52.5196 27.6098V50.7695Z" fill="#3A3C55"/>
<path d="M52.595 39.4111L52.6436 39.1984L52.595 39.4111Z" fill="#3A3C55"/>
<path d="M52.5706 39.5051L52.5949 39.4111L52.5706 39.5051Z" fill="#3A3C55"/>
<path d="M52.5366 39.6486L52.5706 39.5051L52.5366 39.6486Z" fill="#3A3C55"/>
<path d="M48.4156 43.3275V33.9261C48.4156 32.1571 50.5344 32.0854 50.5344 32.0854V29.6731C50.5344 29.6731 47.4437 29.6014 46.4037 29.3911C45.3638 29.1808 38.1279 27.0531 31.6622 27.0531C25.1965 27.0531 20.7451 28.8245 18.7964 29.3911C16.8477 29.9577 14 29.8142 14 29.8142V32.0087C16.2937 32.0087 15.8782 34.6287 15.8782 34.6287V43.6195L14.8334 45L16.0167 45.7868V55.7968C16.0167 57.7093 14 57.4965 14 57.4965V59.9706C16.7821 59.9706 19.8315 60.6782 21.9965 61.3165C25.7606 62.3449 29.6407 62.8681 33.538 62.8727C38.4729 62.8727 43.6192 61.1755 45.789 60.4679C47.9588 59.7603 50.5344 60.1116 50.5344 60.1116V57.7068C48.0633 57.7068 48.5565 55.1561 48.5565 55.1561L48.5031 46.4028C51.8902 46.8531 52.5195 49.8517 52.5195 49.8517V39.7278C51.5258 43.9287 48.4156 43.3275 48.4156 43.3275ZM40.5212 32.6074V43.6986L39.2942 44.9357L40.5091 46.1727V57.5534C40.5091 57.5534 40.7836 60.458 34.6314 60.458H28.4864C28.4864 60.458 23.831 59.7158 23.831 57.9221V45.9674L25.0823 44.9777L23.831 43.3399V32.0037C23.831 32.0037 24.6401 29.3045 30.6805 29.3045C36.721 29.3045 38.3951 29.923 39.5274 30.6603C40.6597 31.3976 40.5212 31.9963 40.5212 32.6074Z" fill="#3A3C55"/>
<path d="M52.522 39.7104L52.5366 39.6486L52.522 39.7104Z" fill="#3A3C55"/>
<path d="M52.6338 39.1983C52.6897 38.9509 52.7358 38.7654 52.7771 38.5996L52.6338 39.1983Z" fill="#3A3C55"/>
<path d="M52.9424 37.934C52.9667 37.8351 52.9643 37.8474 52.9424 37.934V37.934Z" fill="#3A3C55"/>
<path d="M52.9011 38.1073L52.9424 37.9341L52.9011 38.1073Z" fill="#3A3C55"/>
<path d="M52.7869 38.5996L52.816 38.4709L52.7869 38.5996Z" fill="#3A3C55"/>
<path d="M52.8159 38.471C52.8524 38.3176 52.8791 38.1988 52.901 38.1073C52.8767 38.2087 52.8475 38.3324 52.8159 38.471Z" fill="#3A3C55"/>
<path d="M28.2555 46.5562L27.0649 44.8862L28.6419 43.283L28.2555 46.5562Z" fill="#3A3C55"/>
</g>
<defs>
<clipPath id="clip0_546_361">
<rect width="61" height="52" fill="white" transform="translate(14 19)"/>
</clipPath>
</defs>
</svg>
