<svg width="90" height="90" fill="none" xmlns="http://www.w3.org/2000/svg"><circle cx="45" cy="45" r="45" fill="#F5F5F5"/><g clip-path="url(#a)"><path d="M42.143 22s-.054 1.402-.188 3.704l12.888-1.979 2.07 11.22a129.028 129.028 0 0 1 2.155 22.438l.053 7.15h.162l1.816-7.627A127.83 127.83 0 0 0 64.38 34.68l.647-10.87L42.143 22Z" fill="#DA251D"/><path d="M21 38.03s14.386 25.317 16.655 36.965c.048.259 20.518-9.404 20.518-9.404l-2.495-7.441a129.131 129.131 0 0 0-8.976-20.639l-5.216-9.61L21 38.03Z" fill="#84C225"/><path d="m41.712 27.202 5.464 10.055a130.203 130.203 0 0 1 9.014 20.718l2.366 7.065-.054-7.663a127.992 127.992 0 0 0-2.118-22.348l-1.977-10.716-22.63 3.487s.306 1.492.76 3.937l9.175-4.535Z" fill="#1DA838"/></g><defs><clipPath id="a"><path fill="#fff" transform="translate(21 22)" d="M0 0h44v53H0z"/></clipPath></defs></svg>