<svg width="90" height="90" viewBox="0 0 90 90" fill="none" xmlns="http://www.w3.org/2000/svg">
<circle cx="45" cy="45" r="45" fill="#EFEFEF"/>
<path d="M73 28.7711L45.6025 13.1172V13L45.5 13.0576L45.3975 13V13.1172L18 28.7711V58.9438L45.3975 75.8725V76L45.5 75.9363L45.6025 76V75.8725L73 58.9438V28.7711Z" fill="#0074A8"/>
<path d="M44.1589 20.3221V67.9541L36.4632 63.7903L36.658 31.8739L29.7989 35.5442L29.6082 60.0788L23.9384 57.011V31.7464L44.1589 20.3221Z" fill="#E6E6E6"/>
<path d="M50.4972 22.9685L57.629 27.1097V61.3434L50.4972 65.3077V22.9685Z" fill="#E6E6E6"/>
<path d="M67.6952 55.6703L62.3453 58.6847L57.629 45.3729L57.424 42.4921L61.7568 29.3345L67.4286 32.392L63.1122 43.1316L67.6952 55.6703Z" fill="#E6E6E6"/>
</svg>
