<svg width="90" height="90" fill="none" xmlns="http://www.w3.org/2000/svg"><circle cx="45" cy="45" r="45" fill="#F5F5F5"/><path fill-rule="evenodd" clip-rule="evenodd" d="M56.6 51.3c.9 1 14.7 6.3 16.8 6.8 4.3-9.3 2.9-23.6-3.8-28 3.9 6.3 4.9 12.1 3 20.6-1.8-.1-2.5.1-3.4 2.9-1.1-.3-5.2-2.2-6.2-2.7.2-4.5-.7-4.1-1.8-5 .6-2.6 1-5.3 1.1-8 .1-2.5-.3-5-1-7.4-1-3-1.5-3.5-4.7-4.2 3.8 4.8 1.8 20 0 25Z" fill="#079A36"/><path fill-rule="evenodd" clip-rule="evenodd" d="M53.8 66.7c.8-.3 1.6-.6 2.3-1.1l.1-.1c2-2.1 0-6.4-.9-8.7l13.2 5.1c.1-.5 1.5-4.1 1.5-4.1l-1.6-.6c-.3-.1 0 0-1.2 2.2l-14.3-5.7c1.3-4.1 3-8.3 4.7-14.4-7.3 15.4-5.5 11.5-7.3 15.4l2.3.8c-1.4 2-7 6-8.1 7.7 2.6 2.8 5.3 3.5 9.3 3.5Z" fill="#003357"/><path fill-rule="evenodd" clip-rule="evenodd" d="m42 20 2.6-.3c.4 3 2.2 13.4 1.9 15.7-3.5.1-13.4 3-13.4 3 4.6-.2 9.7-1.7 15.2-1.3.1-2.7 0-.1.1-2.7l10.3 3.5v-2.1c.1-3.1-.4-7.1-2.2-9.3-3.8-1.8-7 3.3-8.5 5-.3-1.8-1.9-13.1-2.3-13.8l-4 .5.3 1.8Z" fill="#314109"/><path fill-rule="evenodd" clip-rule="evenodd" d="M29.8 50.2c-1.3 1.9-8.5 6.6-10.7 8.9l2.4 3.7 1.3-1.1-1.4-2.2c2.4-2.5 9.3-7.3 12.2-9.7 3 3.5 6.2 6.8 9.6 10-1.9-3.2-6.7-8.7-9-12.4-2.6 1.4-2.1 2.3-2.9-2.2-.4-2-.6-4.9-1.4-6.6-10.6 2.8-12.7 8.8-.1 11.6Z" fill="#530B00"/><path fill-rule="evenodd" clip-rule="evenodd" d="M19.7 65.3c5.1 7.8 20.5 13.4 28.2 10-12.6-.5-15.8-3.6-22.2-7.7.9-1 1.2-1.9.5-4.1 3.6-2.8 3.8-3.7 4.3-3.5 2.1 1.2 3.8 1.2 4.9.6.1 0 .4-.3.5-.2 2.7 1.3 15.2 10 20.3 5.2-13.1.2-15-6.2-22-11.5-2.1 1-13.6 10-14.4 11.3" fill="#007F96"/><path fill-rule="evenodd" clip-rule="evenodd" d="M21.7 46.4C22.7 41 38 35.2 42.9 33l-2.4-18C29.9 16.1 18.8 24.9 18 32.5c2.8-3.7 3.2-5.3 7-7.9 2.9-2 5.6-4 9.7-4.9.5 2.3 1.5 1.9 3.5 1.9 1.2 6.6.9 5 1.1 6-2.2.8-2.3 1.6-2.2 3.9-5.6 1.1-20 8.9-15.4 14.9Z" fill="#C4220F"/></svg>