<svg xmlns="http://www.w3.org/2000/svg" width="90" height="90" fill="none"><g clip-path="url(#a)"><circle cx="45" cy="45" r="45" fill="#F5F5F5"/><circle cx="44.5" cy="44.5" r="29.75" stroke="#258BB1" stroke-width="1.5"/><path fill="#258BB1" fill-rule="evenodd" d="M38.7 51.5c-1.101-2.121-1.585-7.2 1.1-12.05 3.1-5.6 8.4-11.35 15.55-13.2 6.096-1.578 14.65-3.05 16-3.05.776 0 .285.582-.78 1.845-.787.933-1.887 2.238-3.02 3.954-2.078 3.145-2.957 5.905-3.812 8.593-.79 2.483-1.56 4.903-3.238 7.507-4.8 7.45-10.5 8.856-14.9 9.3-.94.095-2.689-.025-4.246-.666.18-1.137.484-2.308.995-3.543 1.138-2.747 3.32-5.85 7.531-9.566a.5.5 0 1 0-.661-.75c-4.289 3.784-6.581 7.006-7.794 9.934a16.42 16.42 0 0 0-1.006 3.456c-.712-.432-1.326-1.008-1.72-1.765ZM35.052 54.45c-2.579.542-5.4-.15-7.15-3.05-2.069-3.428-2.3-8.8-2.15-10.4.092-.987.431-.549 1.076.284.402.518.921 1.19 1.574 1.765.554.49 1.539 1.189 2.598 1.942 1.648 1.17 3.477 2.47 4.152 3.308 1.528 1.899 1.512 3.24 1.501 4.143l-.001.207c0 .542-.236 1.012-.631 1.343-.57-1.736-2.196-3.28-5.077-4.62a.25.25 0 0 0-.211.454c2.893 1.346 4.375 2.84 4.85 4.446a2.379 2.379 0 0 1-.531.177Z" clip-rule="evenodd"/><path fill="#258BB1" fill-rule="evenodd" d="M26.643 61.163c-4.485-5.07-6.621-11.546-6.842-16.683.011-13.632 11.065-24.68 24.7-24.68 13.641 0 24.7 11.06 24.7 24.7v.034c.093 2.77-.75 6.222-2.348 9.575-1.595 3.345-3.901 6.504-6.643 8.72-2.739 2.213-5.853 3.442-9.124 3.086-2.315-.252-4.808-1.309-7.385-3.53v.816h-2.082c3.078 2.893 6.198 4.37 9.25 4.702 3.944.43 7.574-1.075 10.598-3.518 3.02-2.44 5.495-5.86 7.191-9.416 1.69-3.543 2.645-7.31 2.543-10.485-.01-14.738-11.96-26.683-26.7-26.683-14.746 0-26.7 11.954-26.7 26.7V44.543c.234 5.56 2.523 12.496 7.345 17.945 4.85 5.482 12.239 9.426 22.55 8.962a1 1 0 1 0-.09-1.998c-9.69.436-16.5-3.246-20.963-8.289Z" clip-rule="evenodd"/><path fill="#258BB1" stroke="#258BB1" stroke-linecap="round" stroke-width=".02" d="M49.348 67.6c-7.2-1.45-10.25-7-10.05-10.4 2.4 3.8 7.05 8.65 12.45 8.75 5.483.1 1.35.783-1.4 1.3l-1 .35Z"/></g><defs><clipPath id="a"><path fill="#fff" d="M0 0h90v90H0z"/></clipPath></defs></svg>