<svg width="90" height="90" fill="none" xmlns="http://www.w3.org/2000/svg"><circle cx="45" cy="45" r="45" fill="#1062FF"/><path d="m33.578 61.224-5.146-10.342h-4.043v10.342H16.5V30.706h15.325c6.8 0 10.659 4.494 10.659 10.158a9.248 9.248 0 0 1-1.544 5.58 9.297 9.297 0 0 1-4.563 3.578l6.248 11.272-9.047-.07Zm-2.941-23.952h-6.248v6.861h6.248a3.474 3.474 0 0 0 2.693-.858 3.453 3.453 0 0 0 1.153-2.573 3.442 3.442 0 0 0-1.153-2.572 3.467 3.467 0 0 0-2.693-.858ZM46.188 61.252V30.706h17.606c6.156 0 9.097 3.949 9.097 7.784a6.73 6.73 0 0 1-1.351 4.482 6.94 6.94 0 0 1-3.972 2.57 7.48 7.48 0 0 1 4.356 2.67 7.25 7.25 0 0 1 1.57 4.804c0 4.442-3.028 8.278-9.14 8.278l-18.166-.042Zm8.006-18.728h7.792c.36.015.72-.042 1.057-.17.337-.127.644-.32.9-.57a2.58 2.58 0 0 0 .595-.875 2.54 2.54 0 0 0 .189-1.036 2.513 2.513 0 0 0-.194-1.029 2.55 2.55 0 0 0-.596-.865 2.605 2.605 0 0 0-.9-.559 2.64 2.64 0 0 0-1.051-.157h-7.792v5.26Zm0 12.184h8.064c.398.043.8.001 1.18-.122.379-.124.727-.326 1.02-.594.293-.268.523-.594.676-.957.153-.363.224-.755.21-1.147a2.777 2.777 0 0 0-.215-1.153 2.82 2.82 0 0 0-.674-.967 2.878 2.878 0 0 0-1.015-.615 2.917 2.917 0 0 0-1.181-.156h-8.065v5.711Z" fill="#fff"/></svg>