<svg width="90" height="90" viewBox="0 0 90 90" fill="none" xmlns="http://www.w3.org/2000/svg">
<circle cx="45" cy="45" r="45" fill="#3D3B54"/>
<g clip-path="url(#clip0_600_403)">
<path d="M58.0732 30.8292H31.6917C26.4832 30.8292 21.488 32.8939 17.805 36.5691C14.122 40.2443 12.0529 45.229 12.0529 50.4265V50.4265C12.0529 55.624 14.122 60.6086 17.805 64.2838C21.488 67.959 26.4832 70.0237 31.6917 70.0237H58.0732C63.2817 70.0237 68.2769 67.959 71.9599 64.2838C75.6429 60.6086 77.712 55.624 77.712 50.4265V50.4265C77.712 47.8529 77.204 45.3046 76.2171 42.9269C75.2301 40.5493 73.7836 38.3889 71.9599 36.5691C70.1363 34.7494 67.9713 33.3058 65.5886 32.321C63.206 31.3361 60.6522 30.8292 58.0732 30.8292V30.8292ZM69.9071 50.4265C69.9071 54.0388 68.4691 57.5031 65.9094 60.0573C63.3497 62.6116 59.878 64.0466 56.2581 64.0466H33.5068C29.8869 64.0466 26.4152 62.6116 23.8556 60.0573C21.2959 57.5031 19.8579 54.0388 19.8579 50.4265V50.4265C19.8563 48.6369 20.2082 46.8645 20.8934 45.2106C21.5787 43.5568 22.5838 42.0539 23.8514 40.7879C25.1189 39.5219 26.6241 38.5176 28.2809 37.8324C29.9376 37.1472 31.7134 36.7945 33.5068 36.7945H56.2581C59.878 36.7945 63.3497 38.2295 65.9094 40.7837C68.4691 43.338 69.9071 46.8023 69.9071 50.4146V50.4265Z" fill="white"/>
<path d="M16.7901 46.5308C16.7901 44.3842 15.0462 42.644 12.895 42.644C10.7439 42.644 9 44.3842 9 46.5308V50.8511C9 52.9977 10.7439 54.7379 12.895 54.7379C15.0462 54.7379 16.7901 52.9977 16.7901 50.8511V46.5308Z" fill="white"/>
<path d="M81 46.5308C81 44.3842 79.2562 42.644 77.105 42.644C74.9538 42.644 73.21 44.3842 73.21 46.5308V50.8511C73.21 52.9977 74.9538 54.7379 77.105 54.7379C79.2562 54.7379 81 52.9977 81 50.8511V46.5308Z" fill="white"/>
<path d="M46.8017 21.6215H43.6268V31.9873H46.8017V21.6215Z" fill="white"/>
<path d="M45.2157 25.3687C48.0851 25.3687 50.4111 23.0476 50.4111 20.1844C50.4111 17.3211 48.0851 15 45.2157 15C42.3464 15 40.0204 17.3211 40.0204 20.1844C40.0204 23.0476 42.3464 25.3687 45.2157 25.3687Z" fill="white"/>
<path d="M36.164 50.2157C38.6143 50.2157 40.6006 48.2335 40.6006 45.7885C40.6006 43.3434 38.6143 41.3613 36.164 41.3613C33.7138 41.3613 31.7274 43.3434 31.7274 45.7885C31.7274 48.2335 33.7138 50.2157 36.164 50.2157Z" fill="#FFC437"/>
<path d="M53.9461 50.2157C56.3963 50.2157 58.3827 48.2335 58.3827 45.7885C58.3827 43.3434 56.3963 41.3613 53.9461 41.3613C51.4958 41.3613 49.5095 43.3434 49.5095 45.7885C49.5095 48.2335 51.4958 50.2157 53.9461 50.2157Z" fill="#FFC437"/>
<path d="M37.027 53.8471H52.976C53.2015 53.8474 53.4232 53.9042 53.6209 54.0124C53.8186 54.1206 53.9858 54.2766 54.1073 54.4661C54.2288 54.6556 54.3006 54.8725 54.3161 55.0969C54.3316 55.3214 54.2903 55.5461 54.196 55.7504C53.1903 57.9329 50.8426 61.2109 45.8168 61.2109C39.9133 61.2109 36.8365 58.1734 35.7832 55.694C35.6988 55.4905 35.6662 55.2694 35.6881 55.0502C35.7101 54.8311 35.786 54.6208 35.9091 54.438C36.0322 54.2552 36.1987 54.1056 36.3937 54.0025C36.5887 53.8994 36.8063 53.8461 37.027 53.8471Z" fill="#FFC437"/>
</g>
<defs>
<clipPath id="clip0_600_403">
<rect width="72" height="55" fill="white" transform="translate(9 15)"/>
</clipPath>
</defs>
</svg>
