<svg width="90" height="90" viewBox="0 0 90 90" fill="none" xmlns="http://www.w3.org/2000/svg">
<circle cx="45" cy="45" r="45" fill="#64AD8F"/>
<g clip-path="url(#clip0_584_495)">
<path d="M81.7273 46.044C79.6505 49.007 78.0509 52.2859 76.9884 55.7579C76.1876 58.3913 75.9108 61.1598 76.1742 63.9027C76.2515 64.8152 75.9706 65.3479 75.1156 65.5729C74.8312 65.669 74.5409 65.7462 74.2465 65.8041C72.2272 66.0746 72.0501 65.6803 72.1824 63.6074C72.3493 60.9833 73.0638 58.51 73.6989 56.0077C73.9554 54.996 74.4419 54.0443 74.8246 53.0636C75.079 52.4442 75.1706 51.7732 75.6388 51.1394C75.2317 51.5358 75.0281 51.9983 74.6088 52.2357C73.3703 53.9274 72.2695 55.7185 71.3173 57.5912C70.56 59.0571 70.1875 59.3503 69.0985 59.1314C67.4436 58.799 66.9998 58.1549 66.7515 56.5734C66.6701 56.0696 66.6375 55.5576 66.5825 55.0497C66.5337 54.5893 66.7209 54.1041 66.3627 53.491C65.8985 54.2136 65.465 54.8495 65.0701 55.5101C63.3785 58.351 61.5546 61.101 59.4112 63.6157C58.4728 64.7182 57.4285 65.7175 56.1196 66.3884C55.0103 66.9562 54.3406 66.7022 53.9375 65.5007C53.811 65.1162 53.7156 64.722 53.6525 64.3218C53.631 64.2464 53.6269 64.1671 53.6403 64.0899C53.6538 64.0126 53.6844 63.9395 53.73 63.8761C53.7756 63.8128 53.8348 63.7608 53.9033 63.7243C53.9717 63.6877 54.0475 63.6675 54.1248 63.6652C56.0626 63.3803 57.2901 61.9702 58.4972 60.6489C61.461 57.4054 63.808 53.7036 65.9983 49.8924C67.1132 47.9965 68.1323 46.0443 69.0517 44.0434C69.156 43.8334 69.3216 43.6611 69.526 43.55C70.3626 43.0937 72.8216 43.9629 73.2307 44.8424C73.28 44.9507 73.2962 45.0714 73.2773 45.1892C73.2585 45.3069 73.2054 45.4162 73.1249 45.5031C72.2136 46.7593 71.502 48.1526 71.016 49.6323C70.4847 51.2839 70.0715 52.95 70.0389 55.0002C71.6043 52.9356 72.8216 50.9784 74.3483 49.2647C75.875 47.5511 77.3121 45.7033 79.2337 44.3882C79.7914 44.0083 81.4952 44.4935 81.8575 45.0468C82.1323 45.4597 81.9573 45.7199 81.7273 46.044Z" fill="white"/>
<path d="M73.1106 22.2352C72.7554 21.785 72.3027 21.424 71.7875 21.1802C71.0608 20.7921 70.4114 20.7487 69.6949 21.3392C68.8886 21.996 68.0159 22.5642 67.0914 23.0342C63.5841 24.8469 59.7633 25.1649 55.9405 25.458C53.512 25.6459 51.0856 25.3383 48.6551 25.2743C48.0261 25.2578 47.3117 25.2743 46.8007 24.9832C46.7448 24.9509 46.6971 24.9057 46.6617 24.8511C46.6263 24.7966 46.6042 24.7343 46.5972 24.6694C46.586 24.5135 46.5935 24.3568 46.6195 24.2028C46.6763 23.9575 46.6621 23.7009 46.5788 23.4636C46.5646 23.4347 46.53 23.4182 46.5036 23.3955C46.7071 24.529 46.1656 25.3816 45.4858 26.1868C46.2756 25.7388 46.5035 26.3128 46.5809 26.8909C46.6888 27.7477 47.0715 28.2783 47.8348 28.6829C48.6594 29.1561 49.3494 29.8374 49.8378 30.6608C50.1065 31.0737 50.1391 31.402 49.5895 31.6146C46.7532 32.6824 44.2973 34.5873 42.5382 37.0837C41.5571 38.467 40.8039 39.9741 40.9098 41.7641C40.9668 42.8253 41.6446 43.645 42.5382 43.6904C43.8423 43.7861 45.146 43.4994 46.2939 42.8646C49.0297 41.3388 50.8149 39.0843 51.7757 36.103C51.8917 35.7417 51.967 35.2566 52.5044 35.2483C53.5507 35.2338 54.597 35.1864 55.627 35.4837C56.2051 35.6488 56.1054 35.973 55.9344 36.3652C56.6305 36.1588 57.0275 35.7459 56.9094 34.9593C56.1481 34.7528 56.2987 34.0323 56.2377 33.5347C55.9649 31.5775 55.2199 30.7578 53.3064 30.8941C51.9324 30.9911 51.0368 30.6629 50.6602 29.2672C50.6256 29.1454 50.4892 29.0607 50.4282 28.9369C50.2022 28.5033 50.2572 28.111 50.819 28.2617C51.5172 28.4455 52.1889 28.2514 52.8729 28.2803C55.1283 28.3753 57.398 28.5363 59.6412 28.3815C62.2875 28.1977 64.9337 27.8612 67.5189 27.1159C69.473 26.5543 71.2705 25.7801 72.8582 24.5083C73.7559 23.763 73.8068 23.1973 73.1106 22.2352ZM49.3086 37.8001C48.4129 39.0719 47.3972 40.2467 45.9987 40.9982C45.7076 41.1551 45.4084 41.2975 45.1621 41.4235C44.2257 41.2439 44.814 40.6678 44.926 40.4841C45.7992 39.0389 46.819 37.7072 48.1992 36.7038C48.229 36.6892 48.2596 36.676 48.2908 36.6646C48.8302 36.3446 49.4287 35.5002 49.9457 36.0308C50.306 36.3983 49.6791 37.2737 49.3086 37.8001Z" fill="white"/>
<path d="M75.1259 31.0944C73.5747 29.4861 71.7712 29.4427 69.8598 30.1983C67.2136 31.2595 65.3205 33.3055 63.5353 35.4568C62.9816 36.1237 62.607 36.9619 61.5852 37.5441C62.1551 35.686 62.7943 34.1438 63.7572 32.746C64.3556 31.8727 64.2844 31.3256 63.3745 30.7455C62.7638 30.3553 62.1287 29.9031 61.4447 29.74C60.7608 29.5769 59.8733 29.4076 59.3827 30.3408C58.5685 31.8831 57.7318 33.4088 56.9054 34.9428C56.7171 35.495 56.3791 35.9823 55.9303 36.3488C55.9018 36.3632 55.8611 36.3715 55.8408 36.3962C54.0495 38.6157 52.1055 40.6369 49.3473 41.6362C48.9951 41.7642 48.8506 42.1564 48.8445 42.5673C48.8282 43.806 49.96 44.5844 51.051 44.062C51.4366 43.8708 51.8057 43.647 52.1544 43.3931C54.0943 42.0305 55.6392 40.2591 57.1069 38.4133C57.4326 37.9529 57.801 37.5256 58.0249 37.1622C57.7339 37.7816 57.7319 38.6363 57.4998 39.4332C57.1863 41.2191 58.5176 42.9781 60.2458 43.0525C60.4135 43.0497 60.5766 42.9962 60.7141 42.8987C60.8516 42.8012 60.9572 42.6642 61.0173 42.5053C61.4834 41.0994 62.4279 39.9577 63.006 38.6219C63.3663 38.4299 63.5088 38.0541 63.7307 37.7423C63.5149 38.0644 63.4925 38.4546 63.4192 38.8263C63.4189 38.9287 63.4059 39.0306 63.3806 39.1297C62.5663 41.1943 63.1933 42.0594 65.5525 42.7923C66.6945 43.1474 67.7285 42.7551 68.8094 42.6519C71.301 42.4104 73.1941 41.1819 74.4154 38.9357C75.0017 37.86 74.8511 36.4251 74.0328 35.7604C73.0984 35.0026 71.9972 35.271 70.9549 35.4238C70.7514 35.4527 70.497 35.7335 70.326 35.4878C70.1224 35.1884 70.4501 35.0068 70.6211 34.8189C71.7936 33.5203 73.1941 32.5478 74.8959 32.1638C75.936 31.9367 75.649 31.6374 75.1259 31.0944ZM70.6109 37.5545C70.6109 38.7251 69.0273 40.7752 67.981 41.0126C67.694 41.0787 67.4192 41.0684 67.2482 40.8537C67.0772 40.639 67.2115 40.4242 67.3011 40.1868C67.8663 38.7992 68.5883 37.4829 69.4527 36.2641C69.583 36.0742 69.6868 35.8202 69.984 35.878C70.2812 35.9358 70.1876 36.1856 70.2099 36.3715C70.269 36.7885 70.7534 37.0837 70.6109 37.5545Z" fill="white"/>
<path d="M57.4998 39.4332C57.7318 38.6363 57.7338 37.7816 58.0249 37.1622C57.801 37.5256 57.4326 37.9529 57.1069 38.4133C57.2008 38.0119 57.376 37.6347 57.6213 37.3056C57.8666 36.9765 58.1766 36.7027 58.5318 36.5015L57.4998 39.4332Z" fill="white"/>
<path d="M74.8164 53.0636C75.0709 52.4443 75.1625 51.7733 75.6306 51.1394C75.2235 51.5358 75.02 51.9983 74.6007 52.2357C74.8416 51.5786 75.3018 51.0278 75.9014 50.679C75.6687 51.5279 75.3023 52.3332 74.8164 53.0636Z" fill="white"/>
<path d="M63.4192 38.8262C63.4925 38.4546 63.5149 38.0644 63.7307 37.7423C63.5088 38.0541 63.3663 38.4298 63.006 38.6218C63.2262 38.0166 63.6178 37.4908 64.1317 37.1105C63.8813 37.6783 63.8508 38.3266 63.4192 38.8262Z" fill="white"/>
<path d="M65.2675 45.1934C63.8121 43.7688 61.9719 43.6904 60.2091 43.9547C57.2962 44.4027 54.7863 45.8314 52.6774 47.9372C52.2703 48.3357 52.0383 48.3109 51.9182 47.6482C51.8224 47.1674 51.6279 46.7125 51.3473 46.313C51.0668 45.9136 50.7064 45.5785 50.2897 45.3297C48.2643 44.0125 45.9377 43.9278 43.7087 44.1425C41.1235 44.3903 38.4976 44.5141 35.9735 45.2388C35.5521 45.3606 35.3445 45.2079 35.601 44.6773C35.8614 44.2067 36.1503 43.753 36.4661 43.3188C39.0798 39.2453 41.6161 35.1079 45.9397 32.5829C46.3712 32.329 46.7275 31.8314 46.2043 31.3029C45.325 30.4151 44.4232 29.548 43.0654 29.517C42.4018 29.614 41.8441 29.9547 41.2721 30.283L41.154 30.3511C41.056 30.3897 40.9601 30.4338 40.867 30.4832C40.5438 30.6625 40.2318 30.8618 39.9327 31.0799C38.2372 32.2727 36.6096 33.5616 35.0575 34.9407C33.5389 36.2413 32.055 37.5978 30.8845 39.2536C30.8581 39.2969 30.8316 39.3382 30.8031 39.3775C30.7798 39.4145 30.7547 39.4504 30.7278 39.4848C30.5151 39.7442 30.3232 40.0204 30.1537 40.3106C30.2875 40.0079 30.4519 39.7201 30.6443 39.4518C30.6731 39.4086 30.7044 39.3673 30.738 39.3279C30.8013 39.2442 30.8692 39.1643 30.9415 39.0884C31.6519 38.053 32.4184 37.0584 33.2376 36.1092C33.6448 35.6488 33.9318 35.0769 33.488 34.5298C32.7125 33.578 31.8595 32.7295 30.5364 32.5313C29.6794 32.4033 28.8286 32.5747 27.9391 32.4983C28.6373 31.146 28.6332 31.1542 29.7548 31.8789C30.4001 32.2918 31.1329 32.4095 31.882 32.4632C33.4799 32.5808 35.0615 32.3579 36.6188 32.0853C37.9724 31.8479 39.3077 31.4123 40.4619 30.5803C40.5047 30.5452 40.5495 30.5121 40.5942 30.4791C40.6431 30.4419 40.6899 30.4089 40.7408 30.3759C41.2497 30.0373 41.8135 29.7916 42.2532 29.3436C43.3524 28.3113 44.7326 27.5618 45.4817 26.162C46.1941 25.7863 46.5096 25.264 46.589 24.6528C46.611 24.4984 46.6185 24.3421 46.6114 24.1862C46.5965 23.9142 46.5576 23.644 46.4954 23.379C46.4404 23.1147 46.4526 22.8071 46.3203 22.5924C45.099 20.6269 43.3382 19.3634 41.0746 19.1218C38.639 18.8633 36.1787 18.9894 33.7812 19.4955C27.5034 20.8106 21.7488 23.2551 16.8003 27.4607C16.1408 28.0222 15.2146 28.493 15.4772 29.6409C15.6421 30.3573 16.0879 30.9106 16.6375 31.3854C17.352 32.0048 17.9281 32.1039 18.7219 31.3565C21.1759 29.0873 23.9626 27.2186 26.9823 25.8173C27.2205 25.6376 27.5156 25.65 27.7965 25.5592C27.7273 25.7305 27.2266 26.257 27.0922 26.4387C25.5432 28.5281 23.9574 30.5926 22.7646 32.9256C22.6666 33.1352 22.5221 33.3189 22.3423 33.4622C22.1625 33.6055 21.9524 33.7045 21.7285 33.7515C20.0878 34.1458 18.439 34.5174 16.8207 34.9902C14.3659 35.7182 11.9714 36.6411 9.65954 37.7506C8.73131 38.1986 8.92671 38.8592 9.28497 39.5096C10.0096 40.8268 11.2514 41.7352 11.748 41.3079C12.4707 40.6885 13.2991 40.2941 14.1195 39.8626C15.8602 38.9653 17.6647 38.2013 19.5178 37.5771C19.699 37.5152 19.9249 37.3707 20.0654 37.5771C20.1026 37.6505 20.1234 37.7313 20.1262 37.8138C20.129 37.8962 20.1138 37.9783 20.0817 38.0541C18.8604 40.4593 17.983 42.9905 17.1749 45.563C16.6619 47.1919 17.3235 48.7114 18.9479 49.2586C19.4975 49.4444 19.8639 49.4113 20.0634 48.7238C20.4399 47.4314 20.8898 46.1596 21.3397 44.8878C22.1581 42.586 23.1097 40.3351 24.1895 38.147C24.5539 37.4078 24.7493 36.4169 25.533 36.0638C26.2719 35.7293 27.1615 35.7232 27.9859 35.6034C28.6943 35.5022 28.8632 35.7892 28.4581 36.3879C27.6663 37.5919 26.9798 38.8637 26.4063 40.1888C25.5656 42.0594 26.3879 44.1115 28.3238 44.797C28.8734 44.9911 29.2092 44.8403 29.5186 44.3841C30.6639 42.6453 31.9099 40.977 33.2499 39.3878C33.7733 39.1642 34.2111 38.7744 34.4977 38.277L34.5669 38.1944L34.6381 38.1119C35.0453 37.6391 35.4524 37.1766 35.8595 36.7121C35.4524 37.1849 35.1084 37.7237 34.689 38.1924C34.676 38.2099 34.6617 38.2265 34.6463 38.2419L34.5934 38.2997C34.3247 38.7767 33.8728 39.1256 33.7303 39.6913C32.3583 42.0552 30.8377 44.3304 29.6164 46.7852C29.4759 47.066 29.1726 47.227 28.8204 47.3509C26.0457 48.3373 23.3681 49.5849 20.8226 51.0775C20.3015 51.381 20.0736 51.8579 20.3443 52.5082C20.577 53.0631 20.916 53.5656 21.3417 53.9865C22.0175 54.6637 22.7015 54.8288 23.5707 54.2487C24.3442 53.7346 25.2175 53.3774 26.048 52.9521C26.2149 52.8654 26.3981 52.6693 26.5772 52.8654C26.7258 53.0306 26.6342 53.2308 26.5386 53.429C25.2276 56.0924 24.3157 58.9126 23.4079 61.7307C22.7137 63.8882 22.1132 66.0664 21.4109 68.228C20.8817 69.8507 21.0812 70.464 22.5773 71.2712C22.7809 71.3827 22.9681 71.5375 23.1778 71.6408C24.3646 72.2354 24.7859 72.0537 25.0465 70.7674C25.4699 68.6595 26.1497 66.6383 26.7808 64.5737H27.595C28.3482 64.9866 29.1909 65.0465 30.0092 65.0919C33.1897 65.2879 36.38 64.9389 39.4462 64.0596C41.9988 63.3143 44.5596 62.5111 46.5117 60.5684C48.2521 58.8382 48.4231 57.9278 47.6313 56.2575C47.2022 55.4119 46.5093 54.7339 45.6608 54.3292C45.4287 54.2074 44.9219 53.9473 45.4451 53.7408C46.6481 53.2659 47.8083 52.7085 48.9625 52.1407C49.3065 51.9673 49.5406 52.1738 49.3086 52.63C48.6816 53.8688 48.6796 55.1674 48.8302 56.5094C48.9971 57.9856 50.0047 58.6132 51.3665 58.0372C52.7914 57.4343 53.9925 56.4722 55.1629 55.3945C55.3665 56.0139 55.0184 56.4392 54.8901 56.8666C54.7851 57.1554 54.7764 57.4711 54.8654 57.7654C54.9544 58.0596 55.1361 58.3161 55.3827 58.4955C56.1318 59.1294 57.058 59.3338 58.0087 59.4246C58.126 59.4498 58.2484 59.4272 58.3494 59.3615C58.4504 59.2958 58.5217 59.1923 58.5481 59.0736C58.7028 58.5575 58.943 58.0558 59.0224 57.5272C59.4559 54.6368 61.1088 52.6342 63.464 51.1394C64.2538 50.6377 64.2782 50.3735 63.5128 49.8759C61.5118 48.5814 59.6453 48.8044 57.9008 50.518C56.3089 52.0788 54.8474 53.8007 52.7772 54.7772C52.5268 54.8949 52.3049 55.3635 52.0281 55.0683C51.7513 54.7731 51.9915 54.3664 52.2316 54.0608C53.3451 52.628 54.4321 51.1704 55.9263 50.1009C58.5501 48.216 61.2798 47.1754 64.4288 48.7755C64.8237 48.9819 65.2879 49.0273 65.5342 48.5318C66.0736 47.4768 66.2466 46.1596 65.2675 45.1934ZM31.5278 27.1221C31.9635 26.5689 32.4616 26.0694 33.0117 25.6335C33.4494 25.3011 33.5104 24.882 33.2784 24.3741C33.0972 23.9818 33.1644 23.5958 33.6326 23.4801C36.359 22.7749 39.165 22.4361 41.9785 22.4726C42.355 22.4726 42.8822 22.4293 43.0573 22.8153C43.1875 23.1065 42.7519 23.348 42.5586 23.6081C40.696 26.1187 38.1963 27.5639 35.1898 28.1874C34.172 28.3939 33.1542 28.6189 32.0082 28.5817C31.6153 28.4599 30.854 28.8914 30.6565 28.3567C30.4855 27.9149 31.1899 27.5267 31.5278 27.1221ZM46.9778 48.4947C45.7664 49.323 44.4636 50.0048 43.096 50.5262C41.1907 51.2942 39.2162 51.8187 37.2518 52.3843C35.9592 52.7622 34.6198 52.8158 33.2967 52.9542C32.8122 53.0037 32.3237 53.0141 32.1079 53.4352C31.9635 53.705 31.8929 54.0091 31.9037 54.316C31.9144 54.6228 32.006 54.9211 32.169 55.1798C32.9995 56.5259 33.9705 56.8562 35.5073 56.6477C38.2483 56.3098 41.0204 56.325 43.7575 56.6931C44.3906 56.7695 44.1219 57.0813 43.8675 57.3662C43.0532 58.2891 41.956 58.8259 40.8731 59.2883C38.0239 60.5316 34.9552 61.1743 31.8535 61.1774C30.8439 61.245 29.8299 61.1601 28.8449 60.9255C28.4378 60.8285 28.051 60.8223 28.3462 60.0192C29.3884 57.1825 30.6545 54.4448 31.8067 51.6617C32.1263 50.8875 32.5659 50.2702 33.5145 50.0101C36.9221 49.048 40.3317 48.152 43.896 47.9847C44.8568 47.9372 45.8012 47.5718 46.7824 47.7968C46.986 47.8423 47.2954 47.6792 47.3931 48.0033C47.4908 48.3274 47.1488 48.3708 46.9758 48.4967L46.9778 48.4947Z" fill="white"/>
</g>
<defs>
<clipPath id="clip0_584_495">
<rect width="73" height="53" fill="white" transform="translate(9 19)"/>
</clipPath>
</defs>
</svg>
