<svg width="90" height="90" viewBox="0 0 90 90" fill="none" xmlns="http://www.w3.org/2000/svg">
<circle cx="45" cy="45" r="45" fill="#F5F5F5"/>
<path d="M61.1136 44.5455C61.1136 48.3523 60.392 51.5909 58.9489 54.2614C57.517 56.9318 55.5625 58.9716 53.0852 60.3807C50.6193 61.7784 47.8466 62.4773 44.767 62.4773C41.6648 62.4773 38.8807 61.7727 36.4148 60.3636C33.9489 58.9545 32 56.9148 30.5682 54.2443C29.1364 51.5739 28.4205 48.3409 28.4205 44.5455C28.4205 40.7386 29.1364 37.5 30.5682 34.8295C32 32.1591 33.9489 30.125 36.4148 28.7273C38.8807 27.3182 41.6648 26.6136 44.767 26.6136C47.8466 26.6136 50.6193 27.3182 53.0852 28.7273C55.5625 30.125 57.517 32.1591 58.9489 34.8295C60.392 37.5 61.1136 40.7386 61.1136 44.5455ZM53.6307 44.5455C53.6307 42.0795 53.2614 40 52.5227 38.3068C51.7955 36.6136 50.767 35.3295 49.4375 34.4545C48.108 33.5795 46.5511 33.142 44.767 33.142C42.983 33.142 41.4261 33.5795 40.0966 34.4545C38.767 35.3295 37.733 36.6136 36.9943 38.3068C36.267 40 35.9034 42.0795 35.9034 44.5455C35.9034 47.0114 36.267 49.0909 36.9943 50.7841C37.733 52.4773 38.767 53.7614 40.0966 54.6364C41.4261 55.5114 42.983 55.9489 44.767 55.9489C46.5511 55.9489 48.108 55.5114 49.4375 54.6364C50.767 53.7614 51.7955 52.4773 52.5227 50.7841C53.2614 49.0909 53.6307 47.0114 53.6307 44.5455Z" fill="#E3E3E3"/>
</svg>
