<svg xmlns="http://www.w3.org/2000/svg" width="90" height="90" fill="none"><circle cx="45" cy="45" r="45" fill="#F5F5F5"/><g clip-path="url(#a)"><path fill="#337540" d="M22.718 37.555a4.662 4.662 0 0 1-2.838-.954 4.587 4.587 0 0 1-1.654-2.476 4.55 4.55 0 0 1 .221-2.962 4.605 4.605 0 0 1 2.005-2.207l22.326-12.37a4.682 4.682 0 0 1 3.53-.41 4.636 4.636 0 0 1 2.787 2.184c.6 1.065.748 2.323.412 3.497a4.608 4.608 0 0 1-2.204 2.761L24.973 36.97a4.621 4.621 0 0 1-2.255.585Z"/><path fill="#49A25B" d="M67.363 37.555a4.668 4.668 0 0 1-2.255-.585L42.778 24.6a4.6 4.6 0 0 1-2.197-2.76 4.553 4.553 0 0 1 .415-3.49 4.628 4.628 0 0 1 2.785-2.176 4.674 4.674 0 0 1 3.522.411L69.63 28.956a4.605 4.605 0 0 1 2.005 2.207 4.55 4.55 0 0 1 .221 2.962 4.588 4.588 0 0 1-1.654 2.476 4.662 4.662 0 0 1-2.838.954Z"/><path fill="#337540" d="M22.718 55.24a4.662 4.662 0 0 1-2.838-.955 4.588 4.588 0 0 1-1.654-2.476 4.55 4.55 0 0 1 .221-2.961 4.605 4.605 0 0 1 2.005-2.208l22.326-12.37a4.672 4.672 0 0 1 3.491-.366 4.626 4.626 0 0 1 2.748 2.166c.594 1.05.747 2.29.426 3.452a4.596 4.596 0 0 1-2.14 2.757l-22.33 12.375a4.667 4.667 0 0 1-2.255.585Z"/><path fill="#49A25B" d="M67.363 55.24a4.69 4.69 0 0 1-2.26-.586L42.779 42.28a4.624 4.624 0 0 1-1.407-1.154 4.55 4.55 0 0 1-.441-5.13c.3-.531.705-.998 1.19-1.374a4.65 4.65 0 0 1 3.454-.935c.61.079 1.198.277 1.73.583L69.628 46.64a4.605 4.605 0 0 1 2.005 2.208 4.55 4.55 0 0 1 .221 2.96 4.588 4.588 0 0 1-1.654 2.477 4.662 4.662 0 0 1-2.838.954Z"/><path fill="#337540" d="M22.634 72.996a4.662 4.662 0 0 1-2.839-.954 4.589 4.589 0 0 1-1.654-2.476 4.55 4.55 0 0 1 .221-2.962 4.606 4.606 0 0 1 2.005-2.207L42.712 52.03a4.68 4.68 0 0 1 3.53-.407 4.635 4.635 0 0 1 2.785 2.184 4.56 4.56 0 0 1 .411 3.496 4.606 4.606 0 0 1-2.204 2.76L24.896 72.415c-.69.384-1.47.584-2.262.581Z"/><path fill="#49A25B" d="M67.285 72.996c-.791.001-1.57-.2-2.259-.585L42.712 60.044a4.606 4.606 0 0 1-2.205-2.76 4.561 4.561 0 0 1 .412-3.496 4.635 4.635 0 0 1 2.786-2.184 4.681 4.681 0 0 1 3.529.407l22.33 12.37a4.606 4.606 0 0 1 2.027 2.21 4.55 4.55 0 0 1 .226 2.979 4.589 4.589 0 0 1-1.67 2.485 4.663 4.663 0 0 1-2.862.941Z"/></g><defs><clipPath id="a"><path fill="#fff" d="M18 16h54v57H18z"/></clipPath></defs></svg>