<svg width="90" height="90" viewBox="0 0 90 90" fill="none" xmlns="http://www.w3.org/2000/svg">
<circle cx="45" cy="45" r="45" fill="#F5F5F5"/>
<path d="M75 51V39.2372C67.1604 39.236 59.5837 36.3811 53.6575 31.1953C47.7314 26.0095 43.8526 18.84 42.7316 11L31 11C32.1504 21.9809 37.282 32.1431 45.4061 39.5286C53.5301 46.9142 64.0718 51.0004 75 51V51Z" fill="#0537C8"/>
<path d="M31 79H42.7316C43.8526 71.1922 47.7314 64.0521 53.6575 58.8876C59.5837 53.723 67.1604 50.8798 75 50.8787C67.2988 50.8822 59.731 48.8554 53.0505 45C46.9599 48.5027 41.7843 53.4123 37.9503 59.3239C34.1164 65.2355 31.7341 71.9796 31 79V79Z" fill="#FFA500"/>
</svg>
