<svg width="90" height="90" fill="none" xmlns="http://www.w3.org/2000/svg"><circle cx="45" cy="45" r="45" fill="#03A74B"/><g clip-path="url(#a)" fill="#fff"><path d="m52.812 39.987-8.023-1.751c-8.027-1.752-12.04-5.022-12.04-9.812-.001-1.256.307-2.494.896-3.608a7.827 7.827 0 0 1 2.49-2.79 13.77 13.77 0 0 1 8.459-2.553 15.346 15.346 0 0 1 9.828 3.518 10.436 10.436 0 0 1 2.559 2.865 36.504 36.504 0 0 1 2.197 5.388l.286.728.196-.253c.632-.98 7.781-14.13 7.781-14.13l-.526-.208a10.979 10.979 0 0 1-5.088 1.484 22.852 22.852 0 0 1-5.087-.98 55.463 55.463 0 0 0-12.974-1.81 22.144 22.144 0 0 0-14.118 4.23 14.63 14.63 0 0 0-3.75 4.636 14.407 14.407 0 0 0-.697 11.593 14.56 14.56 0 0 0 3.168 5.042c2.669 2.464 7.008 4.22 13.019 5.27 7.736 1.365 12.879 2.85 15.427 4.452 3.477 2.257 5.223 5.121 5.223 8.565a8.247 8.247 0 0 1-.917 4.054 8.38 8.38 0 0 1-2.786 3.116 17.159 17.159 0 0 1-10.13 2.642c-4.65.21-9.243-1.1-13.063-3.726a15.356 15.356 0 0 1-4.084-4.59 15.145 15.145 0 0 1-1.937-5.8l-.858-.208A55.123 55.123 0 0 1 20 70.61l.376.608a12.609 12.609 0 0 1 6.02-1.678c1.872.057 3.733.3 5.555.728l5.553 1.232a55.54 55.54 0 0 0 12.041 1.484 22.28 22.28 0 0 0 14.51-4.78 14.801 14.801 0 0 0 4.358-5.253 14.587 14.587 0 0 0 1.512-6.621c.02-8.372-5.685-13.82-17.113-16.344Z"/><path d="M46.897 61.2a5.722 5.722 0 0 0 1.88 0 6.475 6.475 0 0 0 1.792-.58 6.632 6.632 0 0 0 1.505-.965 4.193 4.193 0 0 0 1.024-1.32l.12-.223c.24-.458.353-.97.331-1.485a2.57 2.57 0 0 0-.361-1.32 3.2 3.2 0 0 0-1.009-.995 4.437 4.437 0 0 0-1.595-.55l-5.343-.86-6.156 12.157 3.477.549 2.468-4.81 1.867.401Zm.511-4.914 1.837.297a.759.759 0 0 1 .526.341.631.631 0 0 1 0 .683l-.12.223a1.497 1.497 0 0 1-.591.547 1.524 1.524 0 0 1-.794.165l-1.836-.297.978-1.96ZM47.483 25.04c.223-.13.482-.181.738-.149l4.004.668 1.34-2.775-4.005-.668a5.542 5.542 0 0 0-1.85 0 6.582 6.582 0 0 0-1.762.564 5.885 5.885 0 0 0-1.505 1.039 4.564 4.564 0 0 0-1.008 1.32l-4.365 9.219 3.447.579L44.97 29.7l3.718.683 1.34-2.761-3.719-.668.572-1.173a1.4 1.4 0 0 1 .602-.742Z"/></g><defs><clipPath id="a"><path fill="#fff" transform="translate(20 16)" d="M0 0h50v57H0z"/></clipPath></defs></svg>