<svg width="90" height="90" fill="none" xmlns="http://www.w3.org/2000/svg"><circle cx="45" cy="45" r="45" fill="#F5F5F5"/><path d="M38.94 35.135v10.704a48.972 48.972 0 0 0-3.74-.407 7.154 7.154 0 0 0-.47-.015c-1.473 0-3.288.46-5.471 1.396-.9.387-1.864.852-2.894 1.403V35.138l12.574-.003ZM53.752 27.288v19.809l-.941.068c-1.192.085-2.422.176-3.601.176h-.513c-1.876-.045-3.647-.39-5.7-.787-.582-.114-1.187-.23-1.82-.345V27.288h12.575ZM68.748 21v27.94c-1.428 1.19-2.724 2.868-3.996 4.51-1.538 1.994-3.655 4.726-4.993 4.726h-.02c-1.097-.025-2.325-.382-3.506-.873.757-.204 1.496-.47 2.209-.792 1.497-.68 4.032-2.193 4.188-4.716.095-1.534-.738-2.955-2.289-3.896-1.01-.614-2.307-.89-4.167-.895V21h12.574Z" fill="#018D00"/><path d="M69.635 59.937c-2.61 3.543-5.52 6.992-10.64 7.779-1.498.206-3.01.301-4.523.284-5.047 0-11.183-.775-14.044-1.662a22.913 22.913 0 0 0-6.525-.966c-3.04 0-6.249.664-8.633 2.628L15 57.874s5.685-4.48 11.365-7.64c3.099-1.726 6.192-3.057 8.37-3.057h.342c1.415.099 2.691.252 3.867.43.787.119 1.538.252 2.24.383 2.723.503 4.986 1.036 7.477 1.096h.554c1.522 0 3.075-.138 4.542-.251a34.985 34.985 0 0 1 2.373-.103h.049c1.315 0 2.437.15 3.222.631 2.109 1.28 2.209 3.742-1.705 5.516a13.163 13.163 0 0 1-5.418 1.16c-.674.008-1.348-.05-2.01-.174a25.711 25.711 0 0 0 5.91 3.282c1.125.442 2.316.697 3.525.754h.061c3.13 0 6-5.352 8.99-8.551 1.11-1.185 2.234-2.075 3.395-2.286.18-.034.361-.051.544-.053 3.383.035-.567 7.543-3.058 10.926Z" fill="#018D00"/></svg>