<svg width="90" height="90" viewBox="0 0 90 90" fill="none" xmlns="http://www.w3.org/2000/svg">
<circle cx="45" cy="45" r="45" fill="#F5F5F5"/>
<g clip-path="url(#clip0_519_295)">
<path fill-rule="evenodd" clip-rule="evenodd" d="M45.2256 36.5642L23.5836 63.7237H75.7451C75.3098 64.4241 75.0299 64.9222 74.719 65.3736C70.0176 72.2774 63.0655 77.3309 55.0526 79.6693C47.0396 82.0076 38.4639 81.4854 30.7932 78.1921C23.1224 74.8987 16.8335 69.0389 13.0026 61.6155C9.17179 54.192 8.03719 45.6666 9.79304 37.4981C9.94851 36.7665 10.1662 36.4241 10.9902 36.4241C22.2154 36.4241 33.4458 36.4241 44.6814 36.4241C44.8658 36.4582 45.0476 36.505 45.2256 36.5642V36.5642Z" fill="#3CA5F4"/>
<path fill-rule="evenodd" clip-rule="evenodd" d="M66.8362 26.0117H14.457C14.8457 25.4046 15.11 24.9689 15.4054 24.5331C19.4303 18.6703 25.0995 14.132 31.6978 11.4908C38.296 8.8496 45.5279 8.22371 52.481 9.6921C59.4342 11.1605 65.7972 14.6574 70.7675 19.7417C75.7378 24.826 79.0928 31.2699 80.4091 38.2607C81.2954 42.9362 81.2319 47.7425 80.2225 52.393C80.067 53.1089 79.8649 53.4669 79.0254 53.4669C67.8934 53.4669 56.7615 53.4669 45.6296 53.4669C45.3951 53.4535 45.1616 53.4276 44.9299 53.3891L55.8131 39.7082C59.4356 35.2724 63.0116 30.7743 66.8362 26.0117Z" fill="#3CA5F4"/>
</g>
<defs>
<clipPath id="clip0_519_295">
<rect width="72" height="72" fill="white" transform="translate(9 9)"/>
</clipPath>
</defs>
</svg>
