<svg width="90" height="90" viewBox="0 0 90 90" fill="none" xmlns="http://www.w3.org/2000/svg">
<circle cx="45" cy="45" r="45" fill="#F5F5F5"/>
<path d="M66.9923 39.544C67.1455 33.8075 65.0135 28.2452 61.0655 24.0807C59.1107 22.0186 56.7688 20.3617 54.1736 19.2047C51.5785 18.0477 48.7808 17.4132 45.9404 17.3374C40.204 17.1842 34.6417 19.3162 30.4771 23.2642C26.3126 27.2122 23.887 32.6528 23.7338 38.3893C23.6407 40.2391 23.7779 42.0933 24.1422 43.9092V43.9092C26.1418 55.9349 40.8429 70.467 44.5323 73.9592C44.757 74.1711 45.0542 74.2892 45.3631 74.2892C45.672 74.2892 45.9692 74.1711 46.1939 73.9592C49.8833 70.467 64.5703 55.9349 66.5558 43.9092C66.8446 42.472 66.9908 41.0099 66.9923 39.544V39.544ZM45.3631 54.3014C42.4443 54.3014 39.5911 53.4359 37.1643 51.8143C34.7374 50.1928 32.8459 47.888 31.729 45.1914C30.612 42.4948 30.3198 39.5276 30.8892 36.6649C31.4586 33.8022 32.8641 31.1727 34.928 29.1089C36.9919 27.045 39.6214 25.6395 42.4841 25.0701C45.3467 24.5006 48.314 24.7929 51.0105 25.9098C53.7071 27.0268 56.0119 28.9183 57.6335 31.3452C59.255 33.772 60.1205 36.6252 60.1205 39.544C60.1205 43.4579 58.5657 47.2115 55.7982 49.979C53.0306 52.7466 49.277 54.3014 45.3631 54.3014V54.3014Z" fill="#46962E"/>
</svg>
