<svg width="90" height="90" viewBox="0 0 90 90" fill="none" xmlns="http://www.w3.org/2000/svg">
<circle cx="45" cy="45" r="45" fill="#2D2868"/>
<g clip-path="url(#clip0_507_461)">
<path d="M42.0631 53.8619C42.2714 54.0516 42.4872 54.2336 42.687 54.4326C45.2034 56.9472 47.7183 59.4635 50.2316 61.9815C50.3712 62.1215 50.5073 62.2645 50.6473 62.4058C50.7186 62.4746 50.775 62.5573 50.8129 62.6489C50.8509 62.7404 50.8696 62.8388 50.8678 62.9379C50.8678 63.1357 50.8733 63.3334 50.8733 63.532C50.8733 67.9945 50.8733 72.4575 50.8733 76.9209C50.8733 78.0445 50.8653 78.0034 49.813 78.0021C46.6237 77.997 43.4343 77.9932 40.2449 77.9906C39.1753 77.9906 39.2033 78.0012 39.2029 76.9833C39.2003 69.5261 39.1992 62.0689 39.1995 54.6117C39.1995 54.3147 39.0875 53.9824 39.3806 53.7418C40.1016 54.0422 40.8226 54.3282 41.586 53.8398C41.6589 53.7963 41.743 53.7752 41.8279 53.7791C41.9127 53.783 41.9945 53.8118 42.0631 53.8619V53.8619Z" fill="#3C7ABF"/>
<path d="M36.6799 55.3823C36.6799 57.1904 36.6634 58.9993 36.6897 60.807C36.6977 61.3586 36.5366 61.7587 36.1426 62.15C32.8955 65.3749 29.6593 68.6093 26.4341 71.8531C25.7839 72.5045 25.8157 72.4845 25.1872 71.8531C22.8949 69.5518 20.6013 67.252 18.3063 64.9535C17.5284 64.1732 17.5475 64.2797 18.2999 63.5256C23.5872 58.2274 28.8746 52.9298 34.1619 47.6328C34.2815 47.5127 34.399 47.3905 34.525 47.2776C34.6509 47.1647 34.7705 47.1567 34.8927 47.2823C35.0305 47.424 35.1705 47.5636 35.3109 47.7028C35.6502 48.0422 35.9793 48.394 36.3377 48.7127C36.5921 48.9405 36.6859 49.1994 36.6833 49.5329C36.6736 50.7478 36.6803 51.963 36.6808 53.1779L36.6799 55.3823Z" fill="#3D7BBF"/>
<path d="M42.7766 34.7017C42.2833 35.359 41.6314 35.8673 41.0949 36.4839C41.038 36.5472 40.9687 36.5982 40.8913 36.6338C40.8139 36.6693 40.7301 36.6886 40.6449 36.6905C40.4477 36.7016 40.2501 36.7062 40.0512 36.7062C36.4366 36.7062 32.8221 36.7062 29.2078 36.7062C29.0945 36.7062 28.9813 36.6986 28.8685 36.7062C28.5627 36.7245 28.323 36.6035 28.1224 36.3799C28.0092 36.2526 27.8828 36.1402 27.7628 36.0205C24.5678 32.8239 21.3727 29.6263 18.1777 26.4277C18.0139 26.2729 17.8582 26.1097 17.7112 25.9388C17.5661 25.7589 17.673 25.632 17.8418 25.5395C19.808 24.8806 21.7976 25.1538 23.7663 25.4644C29.7328 26.4048 34.874 29.1901 39.6674 32.7205C40.6615 33.4495 41.5954 34.2672 42.7766 34.7017Z" fill="#3C7ABF"/>
<path d="M36.1513 39.4495C36.17 40.2108 36.1848 40.9725 36.2103 41.7337C36.2145 41.8179 36.2003 41.9019 36.1688 41.9801C36.1372 42.0582 36.089 42.1285 36.0275 42.186C35.9087 42.307 35.7908 42.4283 35.6712 42.548C33.1186 45.1039 30.5656 47.6592 28.0121 50.214C27.8925 50.3336 27.7695 50.4503 27.6512 50.5713C27.5743 50.6542 27.4805 50.7196 27.3762 50.7632C27.2718 50.8067 27.1594 50.8274 27.0464 50.8237C26.8492 50.8199 26.6515 50.8271 26.4526 50.8271H12.9979C12.8566 50.8271 12.7154 50.8301 12.5738 50.8271C11.9643 50.808 11.9342 50.7656 12.0534 50.1087C12.0955 50.1111 12.1376 50.1035 12.1762 50.0864C12.2147 50.0692 12.2487 50.0432 12.2752 50.0103C14.417 47.0319 17.4108 45.1687 20.6591 43.6648C22.3895 42.8637 24.1912 42.2293 26.0293 41.7095C26.1422 41.6537 26.2618 41.6126 26.3852 41.5873C27.4276 41.3603 28.4396 41.0009 29.5029 40.866C29.6169 40.821 29.7242 40.7561 29.8477 40.7357C30.0466 40.7242 30.2349 40.6585 30.4274 40.6139C30.5387 40.5812 30.6521 40.5561 30.7667 40.5388C30.989 40.4671 31.2286 40.4908 31.4491 40.4115C31.5629 40.3795 31.6788 40.3561 31.7961 40.3415C32.0298 40.3041 32.2677 40.302 32.4997 40.252C32.6545 40.2248 32.8106 40.2023 32.9662 40.1773C33.2376 40.1259 33.5176 40.1446 33.7852 40.0691C33.8992 40.0401 34.0151 40.0195 34.1321 40.0075C34.8315 40.0792 35.362 39.6681 35.9325 39.371C36.0128 39.3683 36.0911 39.3963 36.1513 39.4495V39.4495Z" fill="#3C7ABF"/>
<path d="M55.4602 42.6749C55.3948 42.8022 55.299 42.8578 55.1569 42.8043C54.8855 41.9557 54.2535 41.4719 53.4778 41.132C53.373 41.0353 53.3107 40.9011 53.3044 40.7586C53.2993 40.5329 53.2959 40.3071 53.2959 40.0797C53.2959 36.4933 53.2959 32.9069 53.2959 29.3208C53.2959 29.1795 53.3044 29.0378 53.2959 28.8965C53.2768 28.5965 53.3586 28.3423 53.5928 28.1407C53.6992 28.0486 53.7921 27.9409 53.8918 27.8411C57.1241 24.606 60.3565 21.3715 63.5888 18.1375C63.7472 17.9777 63.9135 17.8259 64.0871 17.6827C64.1537 17.6283 64.2453 17.6402 64.2992 17.7323C64.862 18.648 64.8158 19.7029 64.7823 20.6827C64.655 24.4321 63.6053 27.9689 62.0539 31.3652C62.0126 31.4865 61.9631 31.6049 61.9059 31.7195C61.7058 32.2223 61.4677 32.7092 61.1938 33.1758C61.1404 33.2705 61.0789 33.3604 61.0216 33.4525C60.9948 33.518 60.964 33.5818 60.9292 33.6434C60.874 33.7338 60.818 33.8242 60.765 33.9163C60.6026 34.1934 60.4813 34.493 60.307 34.765C60.2523 34.857 60.1844 34.9394 60.1276 35.0297C59.9919 35.2389 59.8973 35.4719 59.7573 35.679C59.6945 35.7706 59.6301 35.8597 59.5699 35.9539C59.105 36.7067 58.6296 37.4522 58.1435 38.1906C58.0925 38.2926 58.0294 38.3882 57.9557 38.4753C57.8416 38.6191 57.7241 38.7609 57.6164 38.9094C57.5566 39.0006 57.4891 39.0859 57.4217 39.1708C57.3123 39.3125 57.202 39.4534 57.0981 39.5998C57.0386 39.6902 56.9745 39.7774 56.906 39.8612C56.7465 40.0564 56.5824 40.2473 56.4322 40.4501C56.372 40.5392 56.305 40.6224 56.2367 40.7047C56.0832 40.8919 55.9212 41.0726 55.8202 41.2963C55.7867 41.3955 55.7405 41.4898 55.7108 41.5907C55.6599 41.9616 55.5233 42.31 55.4602 42.6749Z" fill="#E6335F"/>
<path d="M53.7717 48.1076C53.8566 47.8882 54.0444 47.7524 54.2018 47.5945C56.8279 44.9637 59.4558 42.3338 62.0853 39.705C62.2426 39.548 62.3733 39.3545 62.6019 39.2832C62.8368 39.1398 63.0972 39.203 63.3453 39.2026C67.8249 39.1986 72.3046 39.1986 76.7844 39.2026C77.0567 39.2026 77.3523 39.1177 77.5902 39.332C77.8574 39.9727 77.4693 40.3928 77.0902 40.8171C74.3041 43.9551 70.8162 46.0254 66.9499 47.533C63.3479 48.938 59.5927 49.6704 55.7736 50.124C55.3333 50.1766 54.874 50.2487 54.4317 50.0794C53.8175 49.5579 53.7781 48.8383 53.7717 48.1076Z" fill="#E6325E"/>
<path d="M48.0408 36.2344C47.8508 36.0689 47.6497 35.914 47.472 35.7362C44.8971 33.1639 42.3241 30.5897 39.7531 28.0134C39.6335 27.8937 39.5173 27.7703 39.3968 27.6519C39.3248 27.5841 39.2678 27.5018 39.2298 27.4105C39.1917 27.3192 39.1733 27.2208 39.1759 27.1219C39.1759 26.981 39.1721 26.8397 39.1716 26.6976C39.1716 22.1818 39.1716 17.6658 39.1716 13.1495C39.1716 12.9246 39.1954 12.6997 39.2081 12.4748C39.312 12.384 39.4202 12.2996 39.5588 12.2682C40.6319 12.4265 41.2256 13.2828 41.8758 13.9799C46.1569 18.5716 48.1994 24.2144 49.3903 30.2458C49.6579 31.5998 49.8454 32.9653 50.0333 34.3308C50.0901 34.7429 50.1631 35.1719 49.9875 35.583C49.4595 36.1606 48.7737 36.2679 48.0408 36.2344Z" fill="#E6325E"/>
<path d="M49.0451 53.3935C49.3543 53.3828 49.6639 53.3638 49.9735 53.3633C53.4968 53.3611 57.0199 53.3611 60.5429 53.3633C60.7126 53.3633 60.8822 53.3735 61.0519 53.3633C61.3839 53.3425 61.6566 53.4482 61.8789 53.6998C62.0087 53.8479 62.1571 53.9795 62.2966 54.1191C65.4258 57.2506 68.5542 60.3828 71.682 63.5154C71.8987 63.7331 72.1574 63.9177 72.2876 64.2122C71.3774 65.1215 70.2094 64.7889 69.1593 64.7715C63.0393 64.6684 57.8587 62.0023 52.9389 58.673C51.8417 57.9304 50.7674 57.1526 49.7453 56.3082C49.356 55.987 48.9467 55.6691 48.7978 55.1442C48.5904 54.5179 48.6799 53.9362 49.0451 53.3935Z" fill="#3C7ABF"/>
<path d="M49.8912 35.5546C49.7948 35.3508 49.7359 35.1313 49.7173 34.9066C49.4773 32.5551 49.0789 30.2225 48.5247 27.9247C48.0323 25.8964 47.4182 23.8969 46.567 21.9896C45.5542 19.7207 44.3798 17.5341 42.8453 15.5639C42.7199 15.4116 42.5868 15.2658 42.4467 15.1269C42.2711 14.9436 42.0582 14.7874 41.9186 14.5799C41.4216 13.842 40.6463 13.3918 40.0623 12.7472C39.9312 12.5963 39.7487 12.4995 39.5504 12.4757C39.1491 12.0513 39.4965 12.0679 39.7993 12.0513C40.8715 11.9945 41.9403 12.1014 43.0065 12.1587C43.9608 12.21 44.9176 12.2202 45.8718 12.2979C47.1735 12.4035 48.0607 12.9891 48.4674 14.2239C48.9764 15.7753 49.7665 17.2243 50.0876 18.8491C50.4951 20.9084 50.5074 22.9961 50.5482 25.0745C50.5906 27.2449 50.7114 29.415 50.6546 31.5871C50.6508 31.7276 50.6444 31.8697 50.736 31.9919C50.7449 33.3264 50.7551 34.661 50.7598 35.9959C50.7598 36.0757 50.7199 36.1559 50.6983 36.2361C50.2814 36.1839 49.8467 36.1546 49.8912 35.5546Z" fill="#E94B6B"/>
<path d="M54.4593 49.9717C54.6476 49.9174 54.833 49.8359 55.0247 49.8138C55.6943 49.7366 56.37 49.7056 57.0367 49.6101C58.0656 49.4629 59.0941 49.3021 60.1141 49.1009C61.9127 48.7557 63.6857 48.2878 65.4206 47.7007C67.2091 47.0879 68.9514 46.3585 70.6106 45.4487C71.9703 44.7032 73.2469 43.8248 74.4832 42.8892C74.6149 42.783 74.7394 42.668 74.8556 42.545C75.5342 41.8661 76.2085 41.185 76.8913 40.5121C77.1564 40.2511 77.3808 39.9668 77.5241 39.621C77.7116 39.3906 77.9334 39.2989 77.9342 39.6986C77.9372 41.4732 78.0912 43.2604 77.6492 45.0083C77.511 45.5561 77.1008 45.9286 76.6072 46.1781C73.8368 47.5784 71.0584 48.963 68.205 50.1826C66.947 50.7202 65.5508 50.6604 64.2081 50.7198C62.0404 50.8148 59.8672 50.6616 57.6979 50.794C56.395 50.828 55.0921 50.8912 53.79 50.7686C53.8401 50.3587 53.8392 49.9051 54.4593 49.9717Z" fill="#E94A6B"/>
<path d="M49.0326 55.2266C49.7562 55.8088 50.4602 56.4177 51.2079 56.9664C53.0711 58.3365 54.9826 59.6299 57.0052 60.7654C58.9867 61.8772 61.0589 62.7377 63.2105 63.4349C64.339 63.8002 65.4931 64.0455 66.6615 64.2517C67.3087 64.3659 67.9525 64.3434 68.5951 64.4049C69.4692 64.4898 70.3365 64.3582 71.2064 64.3943C71.5825 64.41 71.9307 64.3001 72.2857 64.2093L72.2819 64.2122C72.2932 64.2233 72.3017 64.2368 72.3069 64.2518C72.312 64.2667 72.3137 64.2826 72.3117 64.2982C72.3097 64.3139 72.304 64.3289 72.2953 64.342C72.2865 64.3551 72.2748 64.3661 72.2611 64.3739L72.2463 64.3917C72.2087 64.4523 72.1588 64.5043 72.1 64.5445L69.8564 66.7646C69.7025 66.8888 69.556 67.022 69.4178 67.1635C68.6353 68.0045 67.7604 68.1428 66.6577 67.7609C63.9365 66.8192 61.2144 65.8801 58.4913 64.9438C56.8822 64.3922 55.5784 63.3445 54.3396 62.2221C52.7279 60.7629 51.1706 59.2467 49.5797 57.7667C48.7764 57.1115 48.0953 56.3282 47.3497 55.6145C47.2973 55.568 47.2559 55.5104 47.2283 55.446C47.2007 55.3816 47.1877 55.3119 47.1902 55.2419C47.8014 54.8952 48.4134 54.6309 49.0326 55.2266Z" fill="#4D88C8"/>
<path d="M42.7766 34.7017C42.607 34.7017 42.4373 34.6919 42.2677 34.7017C41.788 34.7339 41.4059 34.5511 41.0377 34.2494C39.3333 32.8619 37.5354 31.5934 35.6569 30.4529C34.4559 29.7151 33.2156 29.0433 31.9417 28.4403C30.3075 27.6739 28.6335 27.0196 26.8908 26.5219C25.7806 26.2083 24.6536 25.9571 23.5153 25.7695C22.0648 25.5264 20.6016 25.5043 19.1367 25.5544C18.9149 25.562 18.6965 25.6439 18.4746 25.6817C18.246 25.7207 18.0234 25.7139 17.8423 25.5366C18.2592 25.0457 18.7213 24.5951 19.2224 24.1906C19.7313 23.7879 20.214 23.3559 20.7034 22.9316C21.4354 22.2951 22.2646 22.1703 23.1544 22.4703C26.3043 23.5312 29.4364 24.6476 32.5901 25.6987C34.2043 26.2367 35.2969 27.4893 36.5344 28.5463C36.8114 28.7831 37.0183 29.1018 37.3678 29.2524H37.3568C37.3969 29.3288 37.4593 29.3911 37.5358 29.4311L37.5264 29.4222C37.5664 29.4986 37.6289 29.5608 37.7054 29.6004L37.6961 29.5919C37.7361 29.6682 37.7986 29.7304 37.8751 29.7701L37.8657 29.7616C37.9058 29.8379 37.9683 29.9001 38.0447 29.9398L38.0354 29.9309C38.075 30.0076 38.1376 30.0699 38.2144 30.1092L38.205 30.1007C38.2446 30.1773 38.3072 30.2396 38.384 30.2789L38.3747 30.27C38.414 30.3468 38.4767 30.4092 38.5537 30.4482L38.5443 30.4397C38.5833 30.5168 38.6463 30.5792 38.7237 30.6175L38.714 30.609C38.7529 30.6862 38.8158 30.7486 38.8934 30.7868L38.884 30.7783C38.9222 30.8561 38.9854 30.9187 39.0634 30.9561L39.0541 30.9476C39.0916 31.0257 39.1548 31.0885 39.2331 31.1254L39.2238 31.1169C39.2607 31.1954 39.3243 31.2583 39.4032 31.2943L39.3938 31.2862C39.4301 31.3652 39.4939 31.4282 39.5732 31.4636L39.5639 31.4551C39.5993 31.5347 39.6634 31.598 39.7433 31.6325L39.734 31.6244C39.7688 31.7044 39.833 31.7679 39.9134 31.8018L39.9045 31.7937C39.9382 31.8741 40.0024 31.9377 40.083 31.9707L40.0728 31.9639C40.0917 32.0069 40.1204 32.045 40.1567 32.0749C40.1929 32.1048 40.2357 32.1258 40.2815 32.1362L41.7621 33.556C41.7912 33.5687 41.8175 33.5871 41.8393 33.6101C41.8612 33.6331 41.8782 33.6603 41.8893 33.6901L41.919 33.7194C41.9506 33.7321 41.9794 33.751 42.0036 33.775C42.0279 33.799 42.0471 33.8275 42.0603 33.859L42.0891 33.8878C42.1525 33.9149 42.2031 33.9651 42.2308 34.0283L42.2596 34.0563C42.3223 34.0846 42.3726 34.1346 42.4013 34.1972L42.4297 34.2247C42.492 34.2539 42.5422 34.3039 42.5717 34.366L42.5997 34.394C42.6578 34.421 42.7059 34.4655 42.7372 34.5213C42.749 34.5846 42.7626 34.6427 42.7766 34.7017Z" fill="#518BCA"/>
<path d="M65.3155 18.7609C65.708 19.0412 66.0519 19.3841 66.3334 19.7759C66.3956 19.8265 66.4524 19.8834 66.503 19.9456V19.9456C66.5641 19.9974 66.6209 20.0542 66.6727 20.1153V20.1153C67.0968 20.6428 67.5396 21.1532 67.979 21.6667C68.5027 22.2794 68.6618 22.9677 68.4031 23.7183C67.4895 26.3551 66.6125 29.0072 65.5615 31.5926C64.9427 33.1151 63.6852 34.1811 62.6168 35.3747C61.7898 36.2993 60.8877 37.1526 60.0556 38.073C59.2731 39.004 58.3591 39.8051 57.5151 40.6792C57.3603 40.8401 57.1779 40.9763 57.0087 41.1218C56.6363 40.5401 57.0511 40.0928 57.3009 39.6515C58.1975 38.0556 59.2073 36.5272 60.123 34.9414C62.6253 30.6086 64.371 26.0144 64.9414 21.0132C64.9923 20.5643 64.9554 20.1107 64.9715 19.66C64.9813 19.321 64.9728 18.9726 65.3155 18.7609Z" fill="#E9486A"/>
<path d="M12.0767 49.2978C12.0767 48.6755 12.0757 48.0538 12.0737 47.4329C12.3392 46.6767 12.2128 45.8752 12.343 45.0991C12.4656 44.3701 12.8231 43.8541 13.4742 43.5155C15.7797 42.3155 18.1144 41.1727 20.4895 40.1208C21.8764 39.5064 23.4028 39.4275 24.8885 39.391C27.5956 39.3248 30.3002 39.1037 33.0107 39.2055C33.3102 39.9184 32.685 39.9625 32.3093 40.0915C31.0869 40.5112 29.8137 40.7476 28.5617 41.0624C24.8961 41.9836 21.3119 43.1204 18.0071 45.0134C16.1643 46.0687 14.4323 47.2623 12.9763 48.8281C12.7417 49.0814 12.5407 49.4603 12.0767 49.2978Z" fill="#4C87C7"/>
<path d="M37.3665 29.2541C37.0815 29.2643 36.9034 29.0797 36.7185 28.9024C35.7986 28.018 34.7468 27.3064 33.6844 26.611C33.2602 26.3339 32.7899 26.134 32.3026 25.9745C31.2016 25.6172 30.1035 25.2504 29.0085 24.8742C27.0092 24.1838 25.0107 23.4909 23.0182 22.7801C22.2836 22.5183 21.6262 22.7075 20.9922 23.0534C20.6953 23.2142 20.4408 23.445 20.163 23.6377C19.8636 23.8452 19.593 24.1044 19.2219 24.1893C19.3453 24.0365 19.456 23.8715 19.5934 23.7336C21.4878 21.8326 23.3848 19.9341 25.2843 18.0382C25.4221 17.9003 25.5761 17.7785 25.7054 17.6644C25.9599 17.6953 26.0765 17.8663 26.2144 18.0038C29.8301 21.6191 33.4442 25.2361 37.0565 28.8548C37.1736 28.9758 37.2635 29.1213 37.3665 29.2541Z" fill="#3C7ABF"/>
<path d="M49.5798 57.7675C49.7071 57.8273 49.8534 57.8621 49.9539 57.9508C50.6075 58.5283 51.2263 59.1499 51.9049 59.6935C52.7192 60.3448 53.4465 61.0904 54.2524 61.7515C55.1689 62.503 56.1032 63.2222 57.0876 63.8787C57.5333 64.177 58.0163 64.4155 58.5241 64.5881C61.3534 65.5497 64.1941 66.4794 67.0035 67.4952C67.8636 67.8063 68.535 67.6102 69.2199 67.1613C69.429 67.0242 69.5859 66.8036 69.8561 66.7658C69.7119 66.9381 69.5796 67.1218 69.4218 67.2805C67.9071 68.8022 66.3899 70.3217 64.8701 71.8391C64.1983 72.5121 64.217 72.5057 63.5494 71.8391C59.0561 67.3412 54.5627 62.8433 50.0693 58.3454C49.892 58.1659 49.6837 58.0102 49.5798 57.7675Z" fill="#3D7ABF"/>
<path d="M57.6982 50.794C57.976 50.5976 58.2954 50.6557 58.6012 50.6544C60.3799 50.6489 62.1583 50.6447 63.9366 50.6519C64.4209 50.6519 64.893 50.6226 65.351 50.4482C65.5075 50.3833 65.673 50.3428 65.8417 50.3281C67.1671 50.2607 68.3678 49.7693 69.5392 49.2109C71.7043 48.1785 73.8542 47.1151 76.0104 46.064C76.1881 45.9792 76.3607 45.8803 76.5405 45.7988C76.9222 45.6248 77.1708 45.3321 77.3073 44.9395C77.6322 44.0039 77.9244 43.0678 77.8689 42.0511C77.8265 41.3187 77.8634 40.5825 77.8617 39.848C77.8617 39.6133 77.7242 39.5671 77.5245 39.621C77.4689 39.4466 77.3646 39.3159 77.1725 39.3049C76.8909 39.2887 76.6084 39.2845 76.3264 39.2841C71.7521 39.2824 67.1777 39.2815 62.6032 39.2815C62.7728 39.1432 62.9755 39.1665 63.1706 39.1665C67.8605 39.1648 72.5506 39.1648 77.2408 39.1665C77.9702 39.1665 77.9978 39.1979 77.9982 39.9405C78.0016 43.3049 78.0016 46.6697 77.9982 50.0349C77.9982 50.2047 77.9893 50.3744 77.9736 50.5441C77.971 50.6156 77.9412 50.6835 77.8903 50.7337C77.8394 50.784 77.7712 50.8128 77.6996 50.8144C77.5033 50.8318 77.3048 50.8331 77.1059 50.8331C70.862 50.8331 64.618 50.832 58.3739 50.8297C58.1487 50.8305 57.9234 50.8076 57.6982 50.794Z" fill="#E5345F"/>
<path d="M33.1032 39.3087C32.0306 39.3036 30.9478 39.2069 29.8875 39.3202C28.9087 39.4245 27.9137 39.3537 26.9475 39.5883C26.8094 39.6183 26.6679 39.629 26.5268 39.6202C25.3931 39.5777 24.2853 39.775 23.1669 39.9172C22.465 40.0076 21.775 40.117 21.0939 40.2991C20.9025 40.3465 20.7156 40.4099 20.5349 40.4888C18.1738 41.5721 15.8543 42.7407 13.5301 43.8995C13.1484 44.0888 12.894 44.3493 12.7744 44.7558C12.6234 45.2689 12.4206 45.7615 12.4054 46.3148C12.3943 46.701 12.3167 47.0998 12.0737 47.4325C12.0644 47.1512 12.0466 46.8694 12.0461 46.5877C12.0461 44.4717 12.0469 42.3554 12.0483 40.2388C12.0483 40.0415 12.0427 39.8434 12.0555 39.6448C12.0788 39.2892 12.1717 39.1869 12.5089 39.1606C12.7332 39.1428 12.9593 39.147 13.1849 39.147C20.5434 39.1439 27.9019 39.1428 35.2607 39.1436C35.5618 39.1436 35.8854 39.0588 36.1547 39.2837C36.063 39.3384 35.9678 39.3872 35.8697 39.4296C34.9337 39.702 34.0006 39.9083 33.1032 39.3087Z" fill="#3C7ABF"/>
<path d="M60.053 38.073C60.1068 37.7378 60.3656 37.546 60.581 37.3262C61.7986 36.0744 62.9455 34.7556 64.0164 33.3761C64.7688 32.4217 65.3496 31.3437 65.7328 30.1902C66.3732 28.2625 67.1035 26.3649 67.7948 24.4537C67.8796 24.2148 67.9433 23.9662 68.0412 23.7324C68.3063 23.1018 68.2109 22.5149 67.8436 21.9608C67.5467 21.5131 67.2477 21.0697 66.9343 20.6343C66.8172 20.4718 66.6934 20.3216 66.6696 20.1154C66.8393 20.2609 67.0191 20.3963 67.1786 20.5537C68.7147 22.0855 70.2485 23.6198 71.7798 25.1564C71.9194 25.2956 72.0589 25.4356 72.1878 25.5841C72.2896 25.7017 72.3087 25.8387 72.1972 25.9631C72.0665 26.1103 71.9317 26.2546 71.7926 26.3938C68.0298 30.1615 64.2659 33.9282 60.5008 37.6937C60.363 37.8316 60.2031 37.947 60.053 38.073Z" fill="#E6335F"/>
<path d="M50.736 31.9902C50.5541 31.7781 50.5719 31.5184 50.571 31.2642C50.571 30.699 50.571 30.1333 50.5689 29.5669C50.5689 29.0577 50.5816 28.5531 50.4455 28.0516C50.3802 27.8123 50.4031 27.5466 50.4031 27.2924C50.3976 26.5859 50.3997 25.879 50.3997 25.1708C50.3997 24.8029 50.4035 24.4367 50.2928 24.0781C50.2495 23.9433 50.2316 23.8016 50.2398 23.6602C50.3089 22.7788 50.1083 21.9157 50.0277 21.0488C49.8869 19.506 49.6036 17.9784 48.9581 16.5399C48.616 15.7648 48.3167 14.9715 48.0615 14.1636C47.8724 13.5759 47.5301 13.1847 46.966 12.9619C46.5708 12.8062 46.164 12.7184 45.7484 12.6288C44.8323 12.432 43.8984 12.4591 42.9772 12.3539C41.9199 12.2342 40.8545 12.036 39.7764 12.1332C39.5431 12.1544 39.4943 12.2724 39.5499 12.4727H39.2085C39.2568 12.031 39.2564 12.025 39.5262 12.0059C39.7225 11.9932 39.9206 11.9953 40.1178 11.9953H49.7652C49.85 11.9953 49.9349 11.9953 50.0197 11.9953C50.7577 12.0089 50.7721 12.0131 50.7733 12.7612C50.7776 16.0076 50.7783 19.2542 50.7755 22.5009C50.7755 25.3524 50.7755 28.2038 50.7755 31.055C50.7729 31.3707 50.7492 31.6805 50.736 31.9902Z" fill="#E6355F"/>
<path d="M33.1032 39.3087L35.9872 39.2917C36.0436 39.3269 36.0623 39.3621 36.0441 39.3978C36.0258 39.4334 36.0071 39.4512 35.9881 39.4512C35.5606 40.1535 34.9392 40.4348 34.13 40.3071C34.0687 40.3586 34.01 40.4133 33.9544 40.4709L32.9395 40.4739C32.85 40.5787 32.6876 40.5341 32.6002 40.6402L31.7545 40.6428C31.7028 40.7034 31.6353 40.7476 31.5849 40.8078L30.7392 40.8125C30.6874 40.8732 30.6196 40.9177 30.5674 40.978L29.8888 40.9814C29.8328 41.0374 29.7764 41.0921 29.7192 41.146C29.2285 41.1036 28.7709 41.2686 28.3047 41.3735C27.6452 41.522 27.0044 41.7498 26.3292 41.83C26.2787 41.8916 26.2113 41.9357 26.1596 41.9951C25.9937 42.0244 25.8203 42.0329 25.6633 42.0859C24.3274 42.531 22.9872 42.9583 21.6966 43.5358C20.8984 43.8927 20.0981 44.2449 19.3317 44.6616C17.8473 45.4699 16.4184 46.3661 15.1431 47.494C14.7219 47.8661 14.2524 48.1878 13.8809 48.6121C13.38 49.1824 12.8957 49.7676 12.4058 50.3472C12.3511 50.4121 12.2977 50.5055 12.2082 50.4745C12.0865 50.4321 12.0996 50.2963 12.0767 50.191C12.0703 50.1635 12.0653 50.1359 12.0593 50.1083C12.0661 49.8379 12.0732 49.568 12.0805 49.2987C12.5047 48.8489 12.9368 48.4076 13.3465 47.9468C13.8372 47.3951 14.4174 46.9352 15.0099 46.5159C16.021 45.8005 17.0516 45.1131 18.1637 44.5441C20.1545 43.5257 22.2038 42.6609 24.3426 42.0172C25.9352 41.5381 27.5426 41.1108 29.142 40.6546C30.2803 40.33 31.4156 39.9948 32.5531 39.6668C32.7716 39.6019 32.976 39.517 33.1032 39.3087Z" fill="#528CCB"/>
<path d="M65.3154 18.7608C65.3154 18.8737 65.3128 18.9866 65.3188 19.1003C65.4104 20.891 65.0783 22.6261 64.6826 24.362C64.25 26.266 63.6121 28.0961 62.8708 29.897C62.71 30.2869 62.506 30.6608 62.3169 31.038C61.447 32.7778 60.6009 34.5281 59.6428 36.2216C58.9494 37.4463 58.2513 38.6683 57.5646 39.898C57.3458 40.2905 57.11 40.6788 57.0031 41.1239L56.9802 41.1477C56.9474 41.211 56.8959 41.2626 56.8326 41.2953L56.811 41.317C56.7781 41.3806 56.7264 41.4324 56.6629 41.4655L56.6422 41.4867C56.6086 41.5502 56.5568 41.6021 56.4933 41.6357L56.4729 41.656C56.4392 41.7196 56.3874 41.7717 56.3241 41.8058L56.3041 41.8258C56.2697 41.8892 56.2177 41.9414 56.1544 41.976L56.1349 41.9955C56.1004 42.0588 56.0484 42.111 55.9852 42.1457L55.9657 42.1657C55.9308 42.2288 55.8787 42.2809 55.8156 42.3159L55.7961 42.3354C55.7613 42.3984 55.7094 42.4504 55.6463 42.4852L55.6264 42.5051C55.5917 42.5681 55.5398 42.6199 55.4767 42.6545L55.4576 42.677C55.1989 42.248 55.3541 41.7748 55.3134 41.3225C55.3766 41.272 55.4211 41.2033 55.4792 41.1477L55.9941 40.4743C56.0548 40.4221 56.0989 40.3542 56.1595 40.3024L56.671 39.626C56.7329 39.5743 56.7775 39.5064 56.8373 39.4529L57.1821 38.9471C57.2414 38.8949 57.2856 38.827 57.3471 38.7774L57.6893 38.2682C57.75 38.216 57.7945 38.1481 57.8547 38.0959C58.3637 37.3038 58.8737 36.5129 59.3849 35.723C59.4456 35.6709 59.4897 35.603 59.5508 35.5533C59.6653 35.327 59.7801 35.1007 59.8951 34.8744C59.949 34.8167 60.0042 34.7602 60.0597 34.7046L60.572 33.6863C60.6323 33.6341 60.6764 33.5666 60.7375 33.5165L60.7438 33.3468C60.7972 33.2891 60.8515 33.2326 60.9075 33.1771C61.1302 32.6679 61.4652 32.2045 61.5908 31.6495C61.6448 31.5929 61.6996 31.5363 61.7553 31.4797C62.0993 30.6196 62.4662 29.7676 62.783 28.8973C63.4085 27.1783 63.8857 25.4211 64.1508 23.6033C64.253 22.9019 64.2848 22.2077 64.3064 21.5058C64.3123 21.3111 64.3692 21.1184 64.3912 20.9237C64.4162 20.7013 64.4871 20.4628 64.4362 20.257C64.2296 19.422 64.3196 18.5767 64.2941 17.7352C64.6891 18.018 65.0343 18.3646 65.3154 18.7608V18.7608Z" fill="#E9506E"/>
<path d="M49.0328 55.2266L47.1904 55.2427C47.7233 54.5462 48.3471 53.9243 49.0451 53.3935C49.0409 54.0045 49.0368 54.6156 49.0328 55.2266Z" fill="#0C6398"/>
<path d="M42.0631 53.8619C41.8001 53.8598 41.5877 53.9676 41.3989 54.1471C41.2581 54.2782 41.1097 54.4009 40.9545 54.5146C40.7534 54.6648 40.5414 54.6626 40.3446 54.5099C40.0193 54.2578 39.7012 53.9964 39.3801 53.7389C40.1228 53.7295 40.8645 53.7189 41.6072 53.7109C41.7751 53.7087 41.9388 53.7346 42.0631 53.8619Z" fill="#0E6399"/>
<path d="M49.8912 35.5546C50.1604 35.7809 50.429 36.0072 50.697 36.2335C50.5969 36.2725 50.4977 36.3438 50.3972 36.3451C49.7118 36.3547 49.0263 36.3547 48.3406 36.3451C48.2397 36.3451 48.1396 36.2734 48.0391 36.2348C48.4008 36.1715 48.707 35.9759 49.0285 35.8181C49.3042 35.6832 49.5731 35.5368 49.8912 35.5546Z" fill="#AC1744"/>
<path d="M53.478 41.132C53.9047 41.1091 54.3034 41.2517 54.7109 41.3421C54.9955 41.4053 55.1325 41.5967 55.1406 41.8827C55.1491 42.1899 55.1516 42.4971 55.1571 42.8043C54.518 42.3265 53.97 41.7558 53.478 41.132Z" fill="#B7133E"/>
<path d="M54.4592 49.9717C54.1687 50.1813 54.0029 50.4953 53.7908 50.7707C53.7734 50.7487 53.7441 50.7283 53.7408 50.7058C53.6241 49.838 53.5677 48.9707 53.773 48.1072C53.8988 48.4138 54.0249 48.7206 54.1513 49.0276C54.2806 49.3344 54.4215 49.6356 54.4592 49.9717Z" fill="#AA1745"/>
<path d="M38.8921 30.7885L38.7131 30.6107L38.8921 30.7885Z" fill="#3C7ABF"/>
<path d="M39.0622 30.9578L38.8828 30.78L39.0622 30.9578Z" fill="#3C7ABF"/>
<path d="M39.2317 31.1271L39.0527 30.9493L39.2317 31.1271Z" fill="#3C7ABF"/>
<path d="M39.4018 31.296L39.2224 31.1187L39.4018 31.296Z" fill="#3C7ABF"/>
<path d="M39.572 31.4653L39.3926 31.288L39.572 31.4653Z" fill="#3C7ABF"/>
<path d="M35.988 39.4512C35.988 39.3978 35.988 39.3447 35.988 39.2917C36.0436 39.2875 36.0996 39.2853 36.1556 39.2858C36.1743 39.3389 36.1733 39.3971 36.1526 39.4495C36.097 39.4508 36.0436 39.4512 35.988 39.4512Z" fill="#4C87C7"/>
<path d="M42.7351 34.5248L42.5977 34.3975L42.7351 34.5248Z" fill="#3C7ABF"/>
<path d="M42.5696 34.3677L42.4275 34.2264L42.5696 34.3677Z" fill="#3C7ABF"/>
<path d="M37.7041 29.6021L37.5251 29.4239L37.7041 29.6021Z" fill="#3C7ABF"/>
<path d="M66.5012 19.9452L66.3315 19.7755L66.5012 19.9452Z" fill="#E6335F"/>
<path d="M56.8357 41.2932L56.9833 41.1456L56.8357 41.2932Z" fill="#E9486A"/>
<path d="M56.666 41.4634L56.814 41.3149L56.666 41.4634Z" fill="#E9486A"/>
<path d="M56.4963 41.6336L56.6452 41.4846L56.4963 41.6336Z" fill="#E9486A"/>
<path d="M56.3271 41.8037L56.476 41.6539L56.3271 41.8037Z" fill="#E9486A"/>
<path d="M42.399 34.1989L42.2573 34.058L42.399 34.1989Z" fill="#3C7ABF"/>
<path d="M56.1575 41.9739L56.3072 41.8237L56.1575 41.9739Z" fill="#E9486A"/>
<path d="M55.9883 42.1436L56.138 41.9934L55.9883 42.1436Z" fill="#E9486A"/>
<path d="M55.8186 42.3138L55.9687 42.1636L55.8186 42.3138Z" fill="#E9486A"/>
<path d="M55.6494 42.4831L55.7991 42.3333L55.6494 42.4831Z" fill="#E9486A"/>
<path d="M55.4797 42.6524L55.6294 42.5031L55.4797 42.6524Z" fill="#E9486A"/>
<path d="M42.2286 34.03L42.0869 33.8891L42.2286 34.03Z" fill="#3C7ABF"/>
<path d="M66.6706 20.1149L66.501 19.9452C66.5424 19.9545 66.5803 19.9754 66.6104 20.0055C66.6404 20.0355 66.6613 20.0735 66.6706 20.1149V20.1149Z" fill="#E6335F"/>
<path d="M37.5344 29.4328L37.3555 29.2542C37.414 29.3136 37.4737 29.3731 37.5344 29.4328Z" fill="#3C7ABF"/>
<path d="M42.0582 33.8607L41.917 33.7211L42.0582 33.8607Z" fill="#3C7ABF"/>
<path d="M41.8872 33.6935L41.76 33.559L41.8872 33.6935Z" fill="#3C7ABF"/>
<path d="M37.8738 29.7718L37.6948 29.5936L37.8738 29.7718Z" fill="#3C7ABF"/>
<path d="M39.9121 31.8035L39.7327 31.6262L39.9121 31.8035Z" fill="#3C7ABF"/>
<path d="M38.0435 29.9416L37.8645 29.7634L38.0435 29.9416Z" fill="#3C7ABF"/>
<path d="M38.2132 30.1109C38.1534 30.0515 38.0936 29.9925 38.0342 29.9327L38.2132 30.1109Z" fill="#3C7ABF"/>
<path d="M40.2802 32.1379L40.0715 31.9656L40.2802 32.1379Z" fill="#3C7ABF"/>
<path d="M40.0816 31.9724L39.9031 31.7955L40.0816 31.9724Z" fill="#3C7ABF"/>
<path d="M38.3826 30.2806L38.2036 30.1024L38.3826 30.2806Z" fill="#3C7ABF"/>
<path d="M39.7419 31.6342L39.5625 31.4573L39.7419 31.6342Z" fill="#3C7ABF"/>
<path d="M72.2634 64.3752C72.2676 64.321 72.2745 64.267 72.2842 64.2135C72.3 64.2531 72.3122 64.294 72.3207 64.3357C72.3198 64.3463 72.2817 64.362 72.2634 64.3752Z" fill="#3C7ABF"/>
<path d="M72.1001 64.5458L72.2464 64.393L72.1001 64.5458Z" fill="#3C7ABF"/>
<path d="M38.5523 30.4499L38.3733 30.2717L38.5523 30.4499Z" fill="#3C7ABF"/>
<path d="M38.7224 30.6192L38.543 30.4414L38.7224 30.6192Z" fill="#3C7ABF"/>
<path d="M32.5981 40.6402C32.6405 40.5909 32.6924 40.5508 32.7507 40.5222C32.809 40.4936 32.8726 40.4772 32.9374 40.4739C32.8948 40.5228 32.8428 40.5627 32.7846 40.5913C32.7263 40.6199 32.6629 40.6365 32.5981 40.6402V40.6402Z" fill="#4C87C7"/>
<path d="M33.9546 40.4709L34.1298 40.3071L33.9546 40.4709Z" fill="#4C87C7"/>
<path d="M31.5811 40.8078L31.7507 40.6428L31.5811 40.8078Z" fill="#4C87C7"/>
<path d="M30.5637 40.978L30.7355 40.8125L30.5637 40.978Z" fill="#4C87C7"/>
<path d="M29.7163 41.146L29.886 40.9814L29.7163 41.146Z" fill="#4C87C7"/>
<path d="M26.1558 41.9951L26.3254 41.83L26.1558 41.9951Z" fill="#4C87C7"/>
<path d="M59.5538 35.5499L59.3879 35.7197L59.5538 35.5499Z" fill="#E9486A"/>
<path d="M57.8578 38.0942L57.6924 38.2665L57.8578 38.0942Z" fill="#E9486A"/>
<path d="M57.35 38.7744L57.1851 38.9441L57.35 38.7744Z" fill="#E9486A"/>
<path d="M56.8403 39.4508L56.6741 39.6239L56.8403 39.4508Z" fill="#E9486A"/>
<path d="M60.0628 34.7026L59.8982 34.8723L60.0628 34.7026Z" fill="#E9486A"/>
<path d="M56.1625 40.3003L55.9971 40.4721L56.1625 40.3003Z" fill="#E9486A"/>
<path d="M55.4822 41.1456L55.3164 41.3204L55.4822 41.1456Z" fill="#E9486A"/>
<path d="M60.7406 33.514L60.5752 33.6837L60.7406 33.514Z" fill="#E9486A"/>
<path d="M60.9105 33.1762L60.7468 33.3459L60.9105 33.1762Z" fill="#E9486A"/>
<path d="M61.7583 31.4793C61.7032 31.5359 61.6483 31.5925 61.5938 31.649C61.6485 31.5922 61.7027 31.5357 61.7583 31.4793Z" fill="#E9486A"/>
</g>
<defs>
<clipPath id="clip0_507_461">
<rect width="66" height="66" fill="white" transform="translate(12 12)"/>
</clipPath>
</defs>
</svg>
