<svg width="90" height="90" fill="none" xmlns="http://www.w3.org/2000/svg"><circle cx="45" cy="45" r="45" fill="#F5F5F5"/><path d="M45.125 33.473h.035l27.837 6.385V22H46.174v3.284c4.467.258 7.929 2.091 7.929 4.317v.06H36.067a.432.432 0 0 1 0-.06c0-2.246 3.525-4.093 8.065-4.325V22H17v17.912l28.125-6.439Zm-18.908-2.905h37.817v2.458H26.217v-2.459Z" fill="#00492B"/><path d="M45.145 36.014 17 42.471V67h56V42.405l-27.855-6.39Zm-.06 2.868c3.571 0 6.535 2.264 7.068 5.224H38.026c.52-2.949 3.485-5.212 7.059-5.212v-.011Zm-20.08 25.941h-2.573V49.389h2.572v15.434Zm5.673 0h-2.572V49.389h2.572v15.434Zm5.386 0h-2.572V49.389h2.572v15.434Zm5.205 0h-2.572V49.389h2.572v15.434Zm5.253.069H43.95V49.458h2.572v15.434Zm5.265 0h-2.572V49.458h2.572v15.434Zm5.285 0H54.5V49.458h2.572v15.434Zm5.263 0h-2.572V49.458h2.572v15.434Zm5.262 0h-2.572V49.458h2.572v15.434Zm1.705-18.153H20.954V44.86h48.348v1.879Z" fill="#00492B"/></svg>