<svg width="90" height="90" viewBox="0 0 90 90" fill="none" xmlns="http://www.w3.org/2000/svg">
<circle cx="45" cy="45" r="45" fill="url(#paint0_linear_250_569)"/>
<path d="M26.8094 41.6365C26.8094 41.6365 16.6746 51.4698 6 57C6 57 25.3822 41.3024 26.8094 41.6365ZM32.9035 44.2644C30.6052 44.2299 28.4116 43.2832 26.7928 41.6272C26.747 41.639 26.7002 41.6472 26.6531 41.6514C26.5164 41.7555 26.3598 41.8292 26.1933 41.8679C26.1705 41.8825 26.1469 41.8956 26.1225 41.9071C25.9987 41.9963 25.8601 42.0621 25.7132 42.1012C26.8388 43.893 29.9516 45.3078 33.2778 45.0997C33.0688 44.869 32.9378 44.5758 32.9035 44.2644ZM53.4922 34C45.3566 39.2745 30.9457 50.2295 30.9457 50.2295C40.0699 46.1822 48.7802 39.6702 53.9584 35.4241C53.7664 35.2476 53.6226 35.0237 53.5409 34.7742C53.4592 34.5247 53.4424 34.258 53.4922 34ZM53.5032 34.0047C53.4755 34.2397 53.3957 34.4653 53.2697 34.6644C53.2277 34.8215 53.161 34.9705 53.072 35.1059C53.0273 35.1905 52.9746 35.2705 52.9147 35.3448C59.9367 40.3057 71.5189 47.8937 83 52.8015C83 52.8015 64.2762 40.344 53.5032 34.0047ZM36.4724 46.7701C35.4161 45.7632 34.2164 44.9235 32.9136 44.2794C32.6395 44.4917 32.2956 44.5893 31.9527 44.5519C31.9361 44.5519 31.9214 44.5519 31.9067 44.5463H31.8653C31.8632 44.5455 31.8609 44.5455 31.8588 44.5463L31.8101 44.5407C31.8019 44.5407 31.7926 44.5407 31.7844 44.5407C31.7028 44.5327 31.622 44.5187 31.5425 44.4987C31.4734 44.5301 31.4017 44.5554 31.3282 44.5743C32.831 45.5653 34.3859 46.4724 35.986 47.2918C36.0977 47.0764 36.2661 46.8968 36.4724 46.7729V46.7701ZM45.0053 41.5497L45.3033 44.0115L44.975 44.0526L44.6761 41.5898L45.0053 41.5497ZM45.0743 43.6298L50.9891 40.2544L51.1969 40.638L45.283 44.0153L45.0743 43.6298ZM53.1326 39.8037L54.5534 41.3565L54.3621 41.685L52.9423 40.1294L53.1326 39.8037ZM58.9905 38.0306L56.3319 41.4228L56.0606 41.1979L58.7219 37.8075L58.9905 38.0306ZM56.3457 41.4079L56.1268 39.0897C56.1002 39.0953 56.068 39.0981 56.0349 39.1019C55.9828 39.2079 55.9213 39.3088 55.851 39.4033L56.0441 41.4499C56.1421 41.4307 56.2414 41.4192 56.3411 41.4153L56.3457 41.4079ZM56.0882 39.1047H56.0524C55.9822 39.1201 55.9113 39.1316 55.8399 39.1392L54.3152 41.2949C54.3415 41.4262 54.3563 41.5595 54.3594 41.6934L56.1259 39.2017C56.114 39.1709 56.1029 39.1373 56.0928 39.1084L56.0882 39.1047ZM51.8737 41.5693L50.9817 40.2703L50.75 40.3963L51.6907 41.7653C51.7467 41.6941 51.8082 41.6277 51.8747 41.5665L51.8737 41.5693ZM53.2182 39.8998L53.1262 39.8009L51.516 41.4629L51.7505 41.7009L53.2936 40.1144C53.2659 40.0458 53.2419 39.9757 53.2219 39.9044" fill="white"/>
<defs>
<linearGradient id="paint0_linear_250_569" x1="45" y1="0" x2="45" y2="90" gradientUnits="userSpaceOnUse">
<stop stop-color="#394266"/>
<stop offset="1" stop-color="#4E577C"/>
</linearGradient>
</defs>
</svg>
