<svg xmlns="http://www.w3.org/2000/svg" width="90" height="90" fill="none"><circle cx="45" cy="45" r="45" fill="#009444"/><g fill="#fff" clip-path="url(#a)"><path d="M51.913 30.029c0-1.515-.851-3.215-2.882-3.215-2.07 0-3.142 1.7-3.142 3.621 0 1.774.816 3.142 1.886 4.471 2.511-1.441 4.138-2.77 4.138-4.877ZM43.229 42.851c0 2.846 2.107 5.024 5.104 5.024a6.954 6.954 0 0 0 5.136-2.245c-1.478-1.634-4.25-4.655-7.02-7.833-1.336.84-3.22 2.431-3.22 5.054Z"/><path d="M51.272 15a24.688 24.688 0 0 0-20.006 10.207 24.824 24.824 0 0 0-5.716 5.816 24.73 24.73 0 1 0 34.44 34.429 24.797 24.797 0 0 0 5.813-5.716 24.728 24.728 0 0 0-14.529-44.738l-.002.002Zm-8.34 15.731c0-3.03 2.181-6.124 6.33-6.124 3.102 0 5.511 2.07 5.511 5.285 0 2.623-1.515 4.695-5.467 6.651v.11c2.105 2.45 4.471 5.173 6.06 6.941 1.144-1.737 1.92-4.138 2.402-7.28h2.954c-.663 3.918-1.735 7.021-3.583 9.201 1.33 1.405 2.623 2.81 4.101 4.398h-3.844a80.594 80.594 0 0 1-2.327-2.45c-2.143 1.996-4.544 2.846-7.278 2.846-4.842 0-7.649-3.252-7.649-6.984 0-3.4 2.042-5.716 4.877-7.28v-.11c-1.31-1.619-2.086-3.43-2.086-5.204ZM39.73 70.682a18.495 18.495 0 0 1-18.287-21.18A24.734 24.734 0 0 0 45.01 69.916c-1.714.51-3.493.768-5.281.766Zm6.07-4.81a19.26 19.26 0 0 1-18.986-22.484 24.732 24.732 0 0 0 26.432 20.99 19.187 19.187 0 0 1-7.447 1.494Z"/></g><defs><clipPath id="a"><path fill="#fff" d="M15 15h61v61H15z"/></clipPath></defs></svg>