<svg xmlns="http://www.w3.org/2000/svg" width="90" height="90" fill="none"><circle cx="45" cy="45" r="45" fill="#EFEFEF"/><path fill="#475A84" d="M57.804 65.279v1.841a4.08 4.08 0 0 1-.5 1.979L32.407 57.465a8.166 8.166 0 0 1-3.436-3.023 8.222 8.222 0 0 1-1.279-4.405V22.579a3.983 3.983 0 0 1 1.886.366l1.77.831v25.878c0 .976.278 1.932.8 2.754a5.104 5.104 0 0 0 2.15 1.89l23.505 10.98ZM69 38.062v2.91l-3.66 2.564v-5.07c0-2.198-.626-4.35-1.802-6.203a11.494 11.494 0 0 0-4.837-4.256l-27.26-12.735a7.915 7.915 0 0 1 7.647-.486l21.516 10.046a14.535 14.535 0 0 1 6.12 5.383A14.637 14.637 0 0 1 69 38.063ZM65.34 55.203 69 52.63v9.436a7.928 7.928 0 0 1-.967 3.832 7.88 7.88 0 0 1-2.694 2.88V55.203Z"/><path fill="#475A84" d="M59.776 47.634a1.948 1.948 0 0 0 1.374-.58c.364-.369.567-.867.566-1.386v-6.371a9.126 9.126 0 0 0-1.429-4.901 9.062 9.062 0 0 0-3.832-3.354L31.904 19.686a7.872 7.872 0 0 0-.555-.233v4.31l24.118 11.16a4.01 4.01 0 0 1 1.703 1.487c.414.65.634 1.405.634 2.176v7.066a1.973 1.973 0 0 0 .578 1.396 1.958 1.958 0 0 0 1.395.57v.016Zm-1.972 9.527v8.118l3.892 1.816V57.132s-.48.603-1.957.603c-1.476 0-1.935-.574-1.935-.574Zm-.5 11.938a4.1 4.1 0 0 1-2.31 1.934 4.076 4.076 0 0 1-3.002-.172l-21.734-10.05a10.928 10.928 0 0 1-4.628-4.054 11.005 11.005 0 0 1-1.717-5.922v-24.24a4.03 4.03 0 0 1 1.094-2.765 3.991 3.991 0 0 1 2.686-1.251v-.49a8.045 8.045 0 0 1 .645-3.184 8.38 8.38 0 0 0-5.901 2.496A8.463 8.463 0 0 0 20 27.35v23.492c0 2.852.814 5.644 2.344 8.046a14.868 14.868 0 0 0 6.292 5.505l21.177 9.796a8.364 8.364 0 0 0 9.244-1.476 8.436 8.436 0 0 0 1.923-2.68 7.828 7.828 0 0 1-3.234-.748l-.443-.187Z"/><path fill="#475A84" d="M61.696 67.095a8.242 8.242 0 0 1-.749 2.947 7.829 7.829 0 0 1-3.234-.748l-.414-.195a4.08 4.08 0 0 0 .5-1.979V65.28l3.897 1.816ZM31.35 19.453v4.31l-1.77-.83a3.983 3.983 0 0 0-1.887-.366v-.479a8.044 8.044 0 0 1 .645-3.183 8.235 8.235 0 0 1 3.011.548Z"/><path fill="#D04A45" d="M69 43.653v5.403l-6.485 4.763a4.95 4.95 0 0 1-5.05.5L46.95 49.354a2.165 2.165 0 0 1-1.147-1.329 2.183 2.183 0 0 1 .208-1.747 2.207 2.207 0 0 1 2.854-.831l10.063 4.739a1.35 1.35 0 0 0 1.373-.138L69 43.653Z"/></svg>