<svg xmlns="http://www.w3.org/2000/svg" width="90" height="90" fill="none"><circle cx="45" cy="45" r="45" fill="#F5F5F5"/><path fill="#6CBD00" d="M36.306 29.769c-3.334-4.843-9.982-6.079-14.848-2.76-4.866 3.318-6.107 9.934-2.773 14.777L37.1 68.532c3.334 4.843 9.981 6.079 14.847 2.76 4.866-3.318 6.108-9.934 2.774-14.777L36.306 29.769ZM71.68 30.151c-3.334-4.843-9.982-6.078-14.848-2.76-4.866 3.319-6.107 9.935-2.773 14.778 3.334 4.842 9.982 6.078 14.848 2.76 4.866-3.319 6.108-9.935 2.773-14.778Z"/></svg>