<svg width="90" height="90" fill="none" xmlns="http://www.w3.org/2000/svg"><circle cx="45" cy="45" r="45" fill="#F5F5F5"/><g clip-path="url(#a)"><path d="M36.416 45.798c10.555-3.459 18.31 3.459 20.408 11.858l10.555.332c2.523.024 2.213.028 2.49-.049-1.224-2.658-5.142-9.51-12.057-13.482a19.013 19.013 0 0 0-10.314-2.542 22.505 22.505 0 0 0-11.082 3.883Z" fill="#B9B9B8"/><path d="M57.816 44.335c-14.453-3.874-25.073 3.871-27.95 13.281l-14.454.368c-3.457.028-3.032.032-3.412-.053a38.855 38.855 0 0 1 16.51-15.087 30.827 30.827 0 0 1 14.135-2.828c2.257.024 9.102.84 15.171 4.32Z" fill="#000"/><path d="M43.657 53.164c-.298-1.03 8.188-4.445 14.16-6.114.624-.173 12.06-7.22 10.46-9.644-1.448-2.202-13.363.893-17.449 2.02a.087.087 0 0 1-.11-.052.084.084 0 0 1 .004-.066.086.086 0 0 1 .05-.043c3.028-1.26 10.632-4.36 15.616-5.77 8.012-2.267 11.428-1.616 12.245-.315 2.498 3.984-8.535 10.25-11.87 12.174-6.992 4.04-7.135 3.583-9.743 3.935-10.673 1.459-13.15 4.614-13.363 3.875Z" fill="#F02E3C"/><path d="M39.253 55.899c-.07.032-.408.198-.384.255.025.056.817-.142.996-.186 2.47-.659 22.678-4.825 24.588-4.643.045 0-3.84-3.357-4.604-4.08-1.122-1.06-2.408-3.524-2.408-3.524S40.38 55.33 39.253 55.9Z" fill="#F02E3C"/></g><defs><clipPath id="a"><path fill="#fff" transform="translate(12 32)" d="M0 0h67v26H0z"/></clipPath></defs></svg>