<svg width="90" height="90" viewBox="0 0 90 90" fill="none" xmlns="http://www.w3.org/2000/svg">
<circle cx="45" cy="45" r="45" fill="#F5F5F5"/>
<g clip-path="url(#clip0_527_965)">
<path d="M40.5143 76.7735C39.6053 76.2571 39.7416 73.63 39.7507 71.9812C39.7507 64.5888 39.8325 57.1965 39.7507 49.8132C39.7507 47.5665 40.1961 44.5317 37.0966 43.7435C35.8876 43.4355 36.0694 40.899 37.5147 39.9296C42.2322 36.7498 47.0406 33.715 51.8581 30.6801C53.676 29.5115 54.2033 30.5714 54.2033 32.3108C54.2033 43.0097 54.2033 53.7177 54.2033 64.4258C54.2033 66.2376 52.9943 67.1435 51.9127 68.1038C48.7404 71.0209 45.9771 73.5394 42.3322 76.7735C42.0623 76.9504 41.7463 77.0447 41.4232 77.0447C41.1002 77.0447 40.7842 76.9504 40.5143 76.7735Z" fill="#FE0101"/>
<path d="M13.0001 44.6042C13.091 28.3701 25.9347 13.4133 41.3143 12.2537C42.8161 12.0105 44.3398 11.9285 45.8591 12.0091C47.3819 12.0294 48.901 12.1627 50.404 12.4077C63.5658 14.9805 72.5281 22.545 76.464 35.5631C80.2089 47.9199 76.8366 58.6822 68.3833 68.0857C66.0563 70.6767 64.5384 70.6405 62.2114 67.7777C60.1299 65.223 61.9296 64.4167 63.1931 63.1213C70.2194 55.9554 72.3827 47.4216 69.8285 37.7554C68.4244 32.4267 65.2864 27.7127 60.9061 24.352C56.5258 20.9913 51.1507 19.1737 45.6228 19.184C40.1788 19.1172 34.862 20.8256 30.4823 24.0491C26.1027 27.2725 22.9002 31.8344 21.3626 37.0398C17.9903 48.0648 21.8898 60.2133 31.4703 65.9297C32.752 66.6549 33.9848 67.4629 35.1606 68.3485C36.315 69.3359 36.0696 71.4377 35.806 74.3547C35.7851 74.4957 35.7346 74.6306 35.6579 74.7508C35.5812 74.871 35.48 74.9737 35.3608 75.0523C35.2416 75.1309 35.1072 75.1837 34.9662 75.2071C34.8252 75.2305 34.6809 75.2241 34.5426 75.1882C23.0533 72.715 12.9001 58.5192 12.9819 44.5771" fill="#FE0101"/>
</g>
<defs>
<clipPath id="clip0_527_965">
<rect width="65" height="65" fill="white" transform="translate(13 12)"/>
</clipPath>
</defs>
</svg>
