<svg width="90" height="90" viewBox="0 0 90 90" fill="none" xmlns="http://www.w3.org/2000/svg">
<circle cx="45" cy="45" r="45" fill="#F5F5F5"/>
<path fill-rule="evenodd" clip-rule="evenodd" d="M31.8097 68.2743C33.0265 68.4678 34.5841 68.6131 36.531 68.7581C38.4779 68.9034 40.7655 68.9517 43.3938 69C46.5088 69 49.2831 68.8066 51.6682 68.5163C54.0531 68.1775 56.0973 67.6936 57.8009 67.0646C59.5044 66.4356 60.9158 65.6614 62.084 64.7421C63.0575 63.9679 63.9336 63.0485 64.6636 62.0323C65.3937 61.0162 65.9778 59.9033 66.3672 58.6937C66.7566 57.484 67 56.1291 67 54.7259C67 52.6936 66.5619 50.9032 65.7346 49.355C64.907 47.8065 63.8363 46.5001 62.4247 45.4355C61.0133 44.3709 59.407 43.5969 57.5574 43.113V42.9677C59.3584 42.2903 60.8186 41.4677 61.938 40.4032C63.1062 39.3871 63.9336 38.2258 64.5177 36.9194C65.053 35.6129 65.3452 34.3065 65.3452 32.8549C65.3452 31.4516 65.1017 30.1452 64.6151 28.9355C64.1283 27.7742 63.4469 26.7097 62.6194 25.8387C61.7921 24.9194 60.7699 24.1936 59.6991 23.6129C58.5797 22.9355 57.3142 22.4032 56 22.0161C54.6859 21.629 53.177 21.3387 51.4735 21.1935C49.7699 21.0484 47.8229 21 45.6814 21C44.3186 21 43.0044 21 41.6415 21.0484C40.3274 21.0968 39.0133 21.1452 37.7964 21.2419C36.5796 21.3387 35.4602 21.4355 34.4381 21.5806C33.4159 21.6774 32.5398 21.8226 31.8584 21.9677V33.1452H23V41.1774H31.8097V49.2097H23V57.242H31.8097V68.2743ZM42.4203 29.0323C42.8584 28.9839 43.4425 28.8871 44.1726 28.8387C44.9027 28.7903 45.8274 28.742 46.9956 28.742C49.4292 28.742 51.3275 29.2258 52.5929 30.1452C53.9071 31.0645 54.5397 32.4194 54.5884 34.2097C54.5884 35.371 54.2478 36.3871 53.615 37.2581C52.9823 38.1291 52.0088 38.8065 50.6947 39.2904C49.4292 39.7742 47.8229 40.0162 45.9247 40.0162H42.4203V29.0323ZM42.4203 47.6614H46.0708C47.4335 47.6614 48.6504 47.7582 49.8186 48.0484C50.9866 48.2904 52.0088 48.6775 52.8849 49.2097C53.7611 49.7421 54.4425 50.4193 54.9291 51.2904C55.416 52.1129 55.6592 53.1292 55.6592 54.3388C55.6592 55.5969 55.416 56.613 54.9291 57.484C54.4425 58.3549 53.7611 59.0323 52.9336 59.5645C52.1061 60.0969 51.1328 60.484 50.0133 60.7259C48.8939 60.9679 47.7744 61.0647 46.5088 61.0647C45.584 61.0647 44.8052 61.0647 44.1239 61.0647C43.4425 61.0647 42.8584 61.0162 42.323 60.9194V47.6614H42.4203Z" fill="#00757E"/>
</svg>
