<svg width="90" height="90" fill="none" xmlns="http://www.w3.org/2000/svg"><circle cx="45" cy="45" r="45" fill="#F5F5F5"/><path fill-rule="evenodd" clip-rule="evenodd" d="M31.81 68.274c1.216.194 2.774.34 4.721.484 1.947.145 4.235.194 6.863.242 3.115 0 5.89-.193 8.274-.484 2.385-.339 4.43-.822 6.133-1.451 1.703-.63 3.115-1.404 4.283-2.323a13.656 13.656 0 0 0 2.58-2.71 12.037 12.037 0 0 0 1.703-3.338c.39-1.21.633-2.565.633-3.968 0-2.032-.438-3.823-1.265-5.371-.828-1.548-1.899-2.855-3.31-3.92-1.412-1.064-3.018-1.838-4.868-2.322v-.145c1.801-.678 3.262-1.5 4.381-2.565a9.87 9.87 0 0 0 2.58-3.484c.535-1.306.827-2.612.827-4.064 0-1.403-.243-2.71-.73-3.92a10.28 10.28 0 0 0-1.996-3.096c-.827-.92-1.85-1.645-2.92-2.226-1.12-.677-2.385-1.21-3.699-1.597s-2.823-.677-4.526-.822C49.77 21.047 47.823 21 45.68 21c-1.362 0-2.677 0-4.04.048-1.314.049-2.628.097-3.845.194-1.216.097-2.336.194-3.358.339a22.877 22.877 0 0 0-2.58.387v11.177H23v8.032h8.81v8.033H23v8.032h8.81v11.032Zm10.61-39.242c.438-.048 1.023-.145 1.753-.193.73-.049 1.654-.097 2.823-.097 2.433 0 4.331.484 5.597 1.403 1.314.92 1.947 2.274 1.995 4.065 0 1.161-.34 2.177-.973 3.048s-1.606 1.548-2.92 2.032c-1.266.484-2.872.726-4.77.726H42.42V29.032Zm0 18.63h3.65c1.364 0 2.58.096 3.749.386 1.168.242 2.19.63 3.066 1.162.876.532 1.558 1.21 2.044 2.08.487.823.73 1.84.73 3.049 0 1.258-.243 2.274-.73 3.145-.486.87-1.168 1.548-1.995 2.08-.828.533-1.801.92-2.92 1.162-1.12.242-2.24.339-3.505.339h-2.385c-.681 0-1.266-.049-1.801-.146V47.661h.097Z" fill="#00757E"/></svg>