<svg width="90" height="90" viewBox="0 0 90 90" fill="none" xmlns="http://www.w3.org/2000/svg">
<circle cx="45" cy="45" r="45" fill="#F5F5F5"/>
<path d="M44.1518 58.6153C43.8992 58.6153 43.6449 58.6153 43.3907 58.6004C32.02 58.1515 24.445 47.775 24.1243 47.3344L23.3665 46.2799L24.1243 45.2254C24.44 44.7848 32.02 34.4082 43.3907 33.9593C50.595 33.6772 57.5451 37.4248 64.0514 45.1115L65.0402 46.2799L64.0514 47.4482C57.7744 54.8627 51.0836 58.6153 44.1518 58.6153ZM27.9599 46.2799C30.0772 48.7437 35.9504 54.6844 43.5652 54.9749C49.2156 55.1911 54.8195 52.2652 60.2373 46.2799C54.8195 40.2945 49.2156 37.3687 43.5652 37.5849C35.9371 37.8753 30.0706 43.8161 27.9599 46.2799Z" fill="#C54832"/>
<path d="M39.8028 30.2893L44.5009 22.4342L49.1975 30.2893H53.6431L44.5009 15L35.3572 30.2893H39.8028Z" fill="#C54832"/>
<path d="M68.7396 55.5327H64.294L68.2843 62.2045H20.7157L24.706 55.5327H20.2604L14 66H75L68.7396 55.5327Z" fill="#C54832"/>
<path d="M44.1319 51.5226C47.0479 51.5226 49.4118 49.1754 49.4118 46.2799C49.4118 43.3844 47.0479 41.0371 44.1319 41.0371C41.2159 41.0371 38.8521 43.3844 38.8521 46.2799C38.8521 49.1754 41.2159 51.5226 44.1319 51.5226Z" fill="#C54832"/>
</svg>
