<svg xmlns="http://www.w3.org/2000/svg" width="90" height="90" fill="none"><circle cx="45" cy="45" r="45" fill="#F5F5F5"/><path fill="#C54832" d="M44.152 58.615c-.253 0-.507 0-.761-.015-11.371-.449-18.946-10.825-19.267-11.266l-.758-1.054.758-1.055c.316-.44 7.896-10.817 19.267-11.266 7.204-.282 14.154 3.466 20.66 11.152l.99 1.169-.99 1.168c-6.277 7.415-12.967 11.167-19.9 11.167ZM27.96 46.28c2.117 2.464 7.99 8.404 15.605 8.695 5.65.216 11.255-2.71 16.672-8.695-5.418-5.986-11.021-8.911-16.672-8.695-7.628.29-13.494 6.231-15.605 8.695ZM39.803 30.29l4.698-7.856 4.697 7.855h4.445L44.501 15l-9.144 15.29h4.446Z"/><path fill="#C54832" d="M68.74 55.533h-4.446l3.99 6.672H20.716l3.99-6.672H20.26L14 66h61l-6.26-10.467ZM44.132 51.523c2.916 0 5.28-2.348 5.28-5.243 0-2.896-2.364-5.243-5.28-5.243-2.916 0-5.28 2.347-5.28 5.243 0 2.895 2.364 5.243 5.28 5.243Z"/></svg>