<svg width="90" height="90" viewBox="0 0 90 90" fill="none" xmlns="http://www.w3.org/2000/svg">
<circle cx="45" cy="45" r="45" fill="#F5F5F5"/>
<g clip-path="url(#clip0_531_990)">
<path d="M75.9098 54.2354C75.805 53.971 75.5822 53.7792 75.1776 53.6808C74.773 53.5825 74.4307 53.3745 74.0605 53.2085C71.6689 52.1284 69.2822 51.0403 66.8874 49.9699C64.2189 48.777 61.5407 47.605 58.8707 46.4138C55.3603 44.8469 51.8483 43.2816 48.3493 41.6905C47.4959 41.302 46.69 40.8168 45.8611 40.3783H45.6973C45.5309 40.5103 45.354 40.6289 45.1682 40.7329C43.5858 41.4422 41.9953 42.1322 40.4178 42.8431C36.268 44.7098 32.1237 46.5809 27.9849 48.4562C24.0371 50.2294 20.0812 51.9866 16.1466 53.7872C15.9516 53.893 15.7897 54.049 15.6781 54.2386C15.5899 54.3656 15.5337 54.5115 15.5143 54.6642C15.4384 55.7625 15.4428 56.8647 15.5274 57.9624C15.5572 58.1631 15.6314 58.355 15.7446 58.5246C15.8577 58.6942 16.0073 58.8374 16.1826 58.9441C19.7176 60.5905 23.2667 62.2026 26.83 63.7802C32.9542 66.4992 39.0888 69.1993 45.2337 71.8807C45.5803 72.0193 45.967 72.0256 46.3181 71.8984C51.0434 69.8382 55.7611 67.7571 60.471 65.655C65.3951 63.4562 70.2995 61.2187 75.2284 59.0183C75.7526 58.7829 75.9901 58.4637 75.9835 57.914C75.9737 56.9194 75.959 55.9264 75.9917 54.9334C76.0131 54.6976 75.9852 54.4601 75.9098 54.2354V54.2354Z" fill="#9D9D9C"/>
<path d="M45.2403 67.4846C39.0975 64.7979 32.9629 62.0977 26.8366 59.3841C23.2721 57.8011 19.723 56.1891 16.1891 54.548C16.0106 54.4504 15.861 54.3087 15.755 54.137C15.6289 54.2912 15.5474 54.4761 15.5192 54.6722C15.4433 55.7704 15.4476 56.8727 15.5323 57.9704C15.5621 58.1712 15.6362 58.363 15.7494 58.5326C15.8626 58.7022 16.0121 58.8454 16.1875 58.9521C19.7224 60.5985 23.2716 62.2106 26.8349 63.7882C32.9591 66.5093 39.0937 69.2095 45.2386 71.8887C45.4136 71.9605 45.6011 71.9977 45.7906 71.9983V67.5942C45.6017 67.5927 45.4149 67.5555 45.2403 67.4846V67.4846Z" fill="#B3B2B2"/>
<path d="M75.1778 53.518C74.7895 53.4261 74.4308 53.2117 74.0606 53.0456C71.669 51.9656 69.2823 50.8775 66.8875 49.8071C64.2191 48.6142 61.5408 47.4422 58.8708 46.2509C55.3604 44.684 51.8484 43.1187 48.3495 41.5277C47.496 41.1392 46.6901 40.6539 45.8613 40.2155H45.6974C45.5311 40.3475 45.3541 40.4661 45.1684 40.5701C43.586 41.2794 41.9954 41.9693 40.418 42.6802C36.2682 44.547 32.1239 46.418 27.985 48.2934C24.0373 50.0666 20.0813 51.8237 16.1467 53.6244C15.9518 53.7301 15.7898 53.8862 15.6782 54.0757C15.7897 54.3008 15.9672 54.4877 16.1877 54.6125C19.7226 56.259 23.2718 57.871 26.8351 59.4487C32.9593 62.1698 39.0939 64.8699 45.2388 67.5491C45.5852 67.6885 45.9722 67.6948 46.3232 67.5669C51.0485 65.5067 55.7661 63.4261 60.4761 61.3251C65.4001 59.1246 70.3045 56.8871 75.2334 54.6867C75.3828 54.634 75.5196 54.552 75.6356 54.4456C75.7517 54.3391 75.8444 54.2105 75.9083 54.0677C75.8051 53.8081 75.5873 53.6163 75.1778 53.518Z" fill="#CECDCD"/>
<path d="M75.9098 45.0032C75.805 44.7388 75.5822 44.547 75.1776 44.4486C74.773 44.3503 74.4307 44.1423 74.0605 43.9763C71.6689 42.8962 69.2822 41.8081 66.8874 40.7377C64.2189 39.5448 61.5407 38.3729 58.8707 37.1816C55.3603 35.6147 51.8483 34.0494 48.3493 32.4583C47.4959 32.0698 46.69 31.5846 45.8611 31.1461H45.6973C45.5309 31.2782 45.354 31.3967 45.1682 31.5008C43.5858 32.2101 41.9953 32.9 40.4178 33.6109C36.268 35.4777 32.1237 37.3487 27.9849 39.224C24.0371 40.9973 20.0812 42.7544 16.1466 44.555C15.9516 44.6608 15.7897 44.8169 15.6781 45.0064C15.5899 45.1334 15.5337 45.2793 15.5143 45.432C15.4384 46.5303 15.4428 47.6325 15.5274 48.7302C15.5572 48.931 15.6314 49.1229 15.7446 49.2925C15.8577 49.4621 16.0073 49.6052 16.1826 49.7119C19.7176 51.3584 23.2667 52.9704 26.83 54.548C32.9542 57.267 39.0888 59.9672 45.2337 62.6485C45.5803 62.7871 45.967 62.7935 46.3181 62.6663C51.0434 60.6061 55.7611 58.5249 60.471 56.4228C65.3951 54.224 70.2995 51.9865 75.2284 49.7861C75.7526 49.5507 75.9901 49.2316 75.9835 48.6819C75.9737 47.6872 75.959 46.6942 75.9917 45.7012C76.0131 45.4655 75.9852 45.2279 75.9098 45.0032Z" fill="#9D9D9C"/>
<path d="M45.2403 58.2542C39.0975 55.5674 32.9629 52.8673 26.8366 50.1537C23.2721 48.5707 19.723 46.9586 16.1891 45.3176C16.0106 45.22 15.861 45.0783 15.755 44.9065C15.6289 45.0607 15.5474 45.2456 15.5192 45.4417C15.4433 46.54 15.4476 47.6422 15.5323 48.7399C15.5621 48.9407 15.6362 49.1326 15.7494 49.3022C15.8626 49.4718 16.0121 49.6149 16.1875 49.7216C19.7224 51.3681 23.2716 52.9801 26.8349 54.5578C32.9591 57.2789 39.0937 59.979 45.2386 62.6582C45.4136 62.73 45.6011 62.7672 45.7906 62.7679V58.3638C45.6017 58.3623 45.4149 58.3251 45.2403 58.2542V58.2542Z" fill="#B3B2B2"/>
<path d="M75.1778 44.2875C74.7895 44.1956 74.4308 43.9812 74.0606 43.8152C71.669 42.7351 69.2823 41.647 66.8875 40.5766C64.2191 39.3837 61.5408 38.2117 58.8708 37.0204C55.3604 35.4535 51.8484 33.8883 48.3495 32.2972C47.496 31.9087 46.6901 31.4235 45.8613 30.985H45.6974C45.5311 31.117 45.3541 31.2356 45.1684 31.3396C43.586 32.0489 41.9954 32.7389 40.418 33.4498C36.2682 35.3165 32.1239 37.1876 27.985 39.0629C24.0373 40.8361 20.0813 42.5933 16.1467 44.3939C15.9518 44.4997 15.7898 44.6557 15.6782 44.8453C15.7897 45.0703 15.9672 45.2573 16.1877 45.3821C19.7226 47.0285 23.2718 48.6405 26.8351 50.2182C32.9593 52.9393 39.0939 55.6395 45.2388 58.3187C45.5852 58.4581 45.9722 58.4644 46.3232 58.3364C51.0485 56.2762 55.7661 54.1956 60.4761 52.0946C65.4001 49.8942 70.3045 47.6567 75.2334 45.4562C75.3828 45.4036 75.5196 45.3215 75.6356 45.2151C75.7517 45.1087 75.8444 44.9801 75.9083 44.8372C75.8051 44.5777 75.5873 44.3858 75.1778 44.2875Z" fill="#CECDCD"/>
<path d="M44.2999 18.245C44.6908 18.0687 45.1184 17.9854 45.548 18.0016C45.9777 18.0179 46.3974 18.1332 46.7734 18.3385C47.1993 18.5706 47.6301 18.7963 48.0708 18.9962C51.5915 20.5856 55.1188 22.1601 58.6527 23.7194C61.3375 24.9091 64.0305 26.0811 66.7136 27.2756C69.1216 28.346 71.523 29.4341 73.9211 30.5142C74.293 30.6754 74.6533 30.8946 75.0448 30.9865C75.764 31.1477 75.8917 31.612 75.8639 32.2439C75.8311 33.2369 75.8459 34.2299 75.8639 35.2245C75.8639 35.7726 75.6313 36.0934 75.1038 36.3272C70.1519 38.5292 65.2164 40.7651 60.2629 42.9655C55.5289 45.0698 50.7845 47.1509 46.0297 49.209C45.677 49.3362 45.2887 49.3298 44.9404 49.1912C38.7638 46.5045 32.5938 43.8043 26.4303 41.0907C22.8462 39.5077 19.2763 37.8957 15.7206 36.2546C15.5454 36.1477 15.3961 36.0044 15.2829 35.8349C15.1698 35.6653 15.0955 35.4736 15.0653 35.2729C14.9799 34.1753 14.9755 33.073 15.0522 31.9747C15.0854 31.7915 15.1594 31.6177 15.2691 31.4661C15.3787 31.3144 15.5211 31.1886 15.6862 31.0977C19.6421 29.2971 23.621 27.5416 27.59 25.7667C31.7594 23.9 35.9272 22.0289 40.0934 20.1536C41.1057 19.6958 43.0239 18.8221 44.2999 18.245Z" fill="#3A9227"/>
<path d="M35.4104 26.7936C38.2623 25.3992 40.9946 24.1435 44.1233 24.3014C45.8498 24.3885 47.501 24.8398 48.9277 25.8586C50.058 26.6647 50.1645 27.706 49.026 28.4266C47.656 29.306 46.1852 30.023 44.6442 30.5626C44.0283 30.7705 43.1142 30.3192 42.3984 30.0225C40.395 29.1924 38.4212 28.2912 36.4407 27.4046C36.0862 27.2197 35.7422 27.0158 35.4104 26.7936V26.7936Z" fill="#3A9227"/>
<path d="M75.8509 31.7056C75.7045 31.935 75.4859 32.111 75.2285 32.2069C70.2668 34.4251 65.3214 36.6787 60.3597 38.8952C55.6159 41.0156 50.8622 43.1113 46.0987 45.1822C45.7451 45.311 45.3552 45.3047 45.0061 45.1645C38.8153 42.4627 32.6338 39.7421 26.4616 37.0027C22.8698 35.4068 19.2923 33.7808 15.729 32.1247C15.5493 32.026 15.3987 31.8833 15.2916 31.7104C15.1649 31.8663 15.0829 32.0528 15.0541 32.2504C14.9782 33.3568 14.9825 34.4671 15.0672 35.5728C15.0968 35.7748 15.1707 35.9679 15.2839 36.1388C15.397 36.3098 15.5467 36.4544 15.7224 36.5626C19.2857 38.2209 22.8633 39.8469 26.455 41.4407C32.6262 44.1822 38.8077 46.9028 44.9996 49.6024C45.3485 49.7434 45.7387 49.7497 46.0922 49.6201C50.8535 47.5449 55.6072 45.4493 60.3532 43.3332C65.3149 41.115 70.2602 38.8614 75.2219 36.6432C75.751 36.4079 75.9902 36.0855 75.9836 35.5309C75.9738 34.5299 75.959 33.5288 75.9918 32.5277C76.0244 32.2461 75.9756 31.9611 75.8509 31.7056V31.7056Z" fill="#25701B"/>
<path d="M31.6101 29.6051L26.0996 36.6126L45.7924 45.3176L49.8303 43.5299L53.6568 38.6631C53.8746 38.3871 54.0187 38.0618 54.0762 37.7169C54.0762 37.7169 47.3142 36.4272 47.1209 36.2951C46.9276 36.1629 33.7248 29.6083 33.7248 29.6083H31.995" fill="#25701B"/>
<path d="M47.3978 33.3917C48.2168 34.2557 48.8491 34.3379 49.7599 33.8753C50.9786 33.2659 52.217 32.7033 53.4652 32.1472C53.9746 31.9183 55.7454 32.3874 56.0288 32.8194C56.3122 33.2514 56.0746 33.4932 55.6291 33.6754C54.3432 34.2025 53.0753 34.7684 51.7993 35.3197L51.7387 35.5953L53.9845 36.519C54.2597 36.6335 54.4185 36.6706 54.5922 36.8721C54.7019 36.9978 54.8838 37.396 54.3825 37.7248C52.8034 38.8533 51.3259 38.281 49.8778 37.4524C48.9425 36.9172 48.0481 36.9124 47.1095 37.4524C46.3937 37.8603 44.8686 37.6136 44.4231 36.9881C44.3149 36.8366 44.4591 36.403 44.6196 36.1982C44.8162 35.9451 45.6172 36.037 45.2749 35.5276C45.0537 35.2052 44.3592 35.044 43.8792 35.0537C43.4402 35.0537 42.9996 35.3761 42.5688 35.5695C41.966 35.8436 40.2853 35.5325 39.9216 35.0086C39.6153 34.5669 39.9216 34.3234 40.3279 34.1284C40.5369 33.9982 40.7298 33.8446 40.9028 33.6706C40.7103 33.4948 40.4988 33.3402 40.2722 33.2095C37.6038 32.0134 34.9255 30.8398 32.262 29.6324C32.146 29.568 32.0445 29.4811 31.9637 29.3769C31.8829 29.2727 31.8245 29.1534 31.7919 29.0263C31.7673 28.9151 32.0737 28.6652 32.2833 28.5781C34.4243 27.6448 36.5423 26.6679 38.7324 25.8377C40.952 24.9881 43.2912 24.7705 45.6664 24.9333C47.6468 25.0687 49.5338 25.5056 51.2358 26.5695C51.4471 26.7017 51.6469 26.8516 51.8451 27.0048C53.7469 28.4782 53.1818 30.1821 51.5634 31.2686C50.9038 31.6846 50.2195 32.0614 49.5142 32.3971C48.8344 32.7324 48.1431 33.0386 47.3978 33.3917ZM37.096 28.4427C37.373 28.6279 37.6601 28.7979 37.956 28.9521C39.6071 29.6921 41.2534 30.4433 42.9242 31.1348C43.5221 31.3831 44.2822 31.7603 44.7965 31.5862C46.0823 31.1368 47.3091 30.5382 48.4511 29.8033C49.4011 29.2036 49.3127 28.3363 48.3692 27.6625C47.1799 26.8146 45.8023 26.4374 44.3625 26.3729C41.753 26.2246 39.4745 27.2708 37.096 28.4427Z" fill="white"/>
<path d="M45.0666 45.0693C38.8671 42.3675 32.6746 39.648 26.4893 36.9108C22.8921 35.317 19.3085 33.6921 15.7386 32.036C15.5584 31.9382 15.4075 31.7953 15.3013 31.6217C15.1738 31.7768 15.0912 31.9628 15.0621 32.1601C14.9862 33.2665 14.9906 34.3768 15.0752 35.4825C15.1046 35.6843 15.1785 35.8773 15.2917 36.048C15.4049 36.2187 15.5546 36.363 15.7305 36.4707C19.2982 38.1279 22.8817 39.7528 26.4811 41.3455C32.6653 44.086 38.8578 46.8055 45.0584 49.504C45.2351 49.5758 45.4243 49.613 45.6154 49.6136V45.1789C45.4271 45.1766 45.2409 45.1395 45.0666 45.0693V45.0693Z" fill="#2C821F"/>
</g>
<defs>
<clipPath id="clip0_531_990">
<rect width="61" height="54" fill="white" transform="translate(15 18)"/>
</clipPath>
</defs>
</svg>
