<svg width="90" height="90" viewBox="0 0 90 90" fill="none" xmlns="http://www.w3.org/2000/svg">
<g clip-path="url(#clip0_252_1901)">
<circle cx="45" cy="45" r="45" fill="#F5F5F5"/>
<path fill-rule="evenodd" clip-rule="evenodd" d="M44.9999 -0.0419617C56.9457 -0.0419617 68.4023 4.70353 76.8493 13.1505C85.2963 21.5976 90.0417 33.0542 90.0417 45.0001C90.0417 53.9086 87.4001 62.617 82.4508 70.0241C77.5016 77.4312 70.467 83.2044 62.2367 86.6135C54.0063 90.0226 44.9499 90.9146 36.2127 89.1767C27.4754 87.4387 19.4497 83.1489 13.1505 76.8496C6.85127 70.5504 2.56144 62.5247 0.823495 53.7874C-0.914455 45.0501 -0.0224763 35.9936 3.38664 27.7632C6.79575 19.5329 12.5689 12.4983 19.976 7.54899C27.3831 2.59971 36.0914 -0.0419617 44.9999 -0.0419617V-0.0419617Z" fill="#E6AD3A"/>
<path fill-rule="evenodd" clip-rule="evenodd" d="M83.9947 37.7907C83.6628 38.3291 83.2494 38.0713 83.1926 37.7434C83.1079 37.2552 83.7051 37.1253 84.1663 37.3892C82.6279 29.4253 78.7209 22.3055 73.2076 16.7922C67.6942 11.2789 60.5745 7.3719 52.6105 5.83343C52.8744 6.29462 52.7445 6.89171 52.2564 6.80702C51.9285 6.75022 51.6706 6.33682 52.209 6.00488C52.008 5.86995 51.7811 5.74354 51.5363 5.64122C51.0321 5.55809 50.5247 5.48445 50.0144 5.42041C49.5551 5.48886 49.0875 5.69497 48.6444 6.10329C47.7652 6.91345 46.8214 6.95653 45.6965 6.44169C45.6255 6.83796 45.3902 7.07991 44.9999 7.05984C44.6097 7.07991 44.3743 6.83796 44.3032 6.44169C43.1783 6.95653 42.2346 6.91345 41.3553 6.10329C40.9122 5.69497 40.4447 5.48886 39.9854 5.42041C39.475 5.48445 38.9676 5.55809 38.4634 5.64122C38.2186 5.74354 37.9918 5.86995 37.7907 6.00488C38.3291 6.33682 38.0714 6.75022 37.7434 6.80702C37.2553 6.89171 37.1253 6.29471 37.3892 5.83353C29.4252 7.3719 22.3055 11.279 16.7922 16.7922C11.2788 22.3056 7.37187 29.4253 5.8334 37.3893C6.29459 37.1255 6.89168 37.2554 6.80699 37.7436C6.75019 38.0715 6.33679 38.3292 6.00485 37.7908C5.86992 37.992 5.74361 38.2187 5.64119 38.4636C5.55806 38.9678 5.48442 39.4752 5.42038 39.9856C5.48883 40.4448 5.69494 40.9124 6.10326 41.3555C6.91342 42.2347 6.9565 43.1785 6.44166 44.3034C6.83793 44.3744 7.07988 44.6098 7.05981 45.0001C7.07988 45.3903 6.83793 45.6257 6.44166 45.6967C6.9565 46.8215 6.91342 47.7653 6.10326 48.6446C5.69494 49.0877 5.48883 49.5553 5.42038 50.0145C5.48442 50.5249 5.55806 51.0323 5.64119 51.5365C5.74361 51.7813 5.86992 52.0081 6.00485 52.2092C6.33679 51.6709 6.75019 51.9287 6.80699 52.2565C6.89168 52.7446 6.29468 52.8746 5.8335 52.6108C7.37187 60.5746 11.2789 67.6946 16.7922 73.2079C22.3055 78.7212 29.4253 82.6282 37.3893 84.1666C37.1252 83.7054 37.2551 83.1081 37.7433 83.1928C38.0713 83.2496 38.329 83.6629 37.7907 83.9949C37.9919 84.1301 38.2191 84.2566 38.4643 84.359C38.9679 84.442 39.4747 84.5156 39.9845 84.5795C40.444 84.5113 40.9118 84.3051 41.3552 83.8966C42.2345 83.0864 43.1783 83.0433 44.3032 83.5582C44.3742 83.1618 44.6096 82.9199 44.9998 82.9399C45.3901 82.9199 45.6254 83.1618 45.6964 83.5582C46.8213 83.0433 47.7651 83.0864 48.6443 83.8966C49.0878 84.3052 49.5556 84.5113 50.0152 84.5795C50.5249 84.5156 51.0315 84.4421 51.5351 84.359C51.7804 84.2566 52.0076 84.1301 52.2089 83.9949C51.6705 83.6629 51.9284 83.2496 52.2563 83.1928C52.7445 83.1081 52.8744 83.7054 52.6103 84.1666C60.5744 82.6283 67.6942 78.7212 73.2076 73.2079C78.721 67.6945 82.6279 60.5745 84.1664 52.6106C83.7051 52.8745 83.1079 52.7445 83.1926 52.2564C83.2494 51.9285 83.6628 51.6707 83.9947 52.209C84.1298 52.0078 84.2563 51.7806 84.3587 51.5355C84.4418 51.0319 84.5153 50.5249 84.5793 50.015C84.511 49.5556 84.3049 49.0877 83.8964 48.6444C83.0862 47.7652 83.0431 46.8214 83.558 45.6966C83.1616 45.6255 82.9197 45.3902 82.9398 44.9999C82.9197 44.6096 83.1616 44.3742 83.558 44.3032C83.0431 43.1783 83.0862 42.2345 83.8964 41.3553C84.3048 40.912 84.511 40.4442 84.5793 39.9849C84.5153 39.4748 84.4418 38.9678 84.3587 38.4639C84.2562 38.2189 84.1298 37.992 83.9947 37.7907V37.7907ZM42.4604 35.3359C42.4604 26.2377 26.3223 23.6447 23.1138 33.4026C22.5089 35.2421 22.4775 37.1653 23.1712 38.5026C24.278 40.6362 26.5537 40.9542 27.8178 40.0087C28.9427 39.1675 29.3327 37.5014 28.1267 36.1211C27.1434 34.9955 24.8618 35.2824 24.9688 33.7557C25.3509 28.3052 37.928 26.6237 37.9657 34.6288C38.0091 43.8285 27.2843 51.3827 21.6495 57.8674V59.7236H42.05L42.6651 50.1163L41.3592 50.1156C40.3802 55.5685 39.7343 56.4873 34.3907 56.2374C30.3104 56.0465 25.6 55.5716 26.3751 54.8225C31.7243 49.6113 42.4604 43.8145 42.4604 35.3359V35.3359ZM50.7968 27.3734L49.429 43.4912L50.718 43.8859C54.2246 39.3961 60.2493 40.1425 62.5227 44.5838C63.9445 47.3618 64.0354 53.6791 61.5475 56.3528C58.6594 59.4566 53.1021 59.2454 50.7086 56.2142C50.083 55.4219 50.2809 54.5605 50.904 54.2872C53.1049 53.3218 53.7536 51.5423 52.3207 49.8388C50.7609 47.9845 47.2796 49.3514 47.5059 53.0775C47.8591 58.887 53.8662 60.9552 58.7728 60.0188C63.9177 59.0368 68.3501 55.1744 68.3501 49.0903C68.3501 40.1875 58.1788 35.8223 51.1952 40.7425L51.9533 31.4411C59.5855 33.5687 64.0048 32.8315 66.5046 27.4111C61.8654 29.0397 56.6436 29.066 50.7968 27.3734V27.3734ZM24.1245 67.6791L23.0205 69.1384C22.8221 69.0965 22.6108 69.0216 22.3872 68.916C22.1628 68.8096 21.9748 68.6992 21.8243 68.5852C21.6272 68.4361 21.4949 68.2894 21.4268 68.1463C21.3582 68.001 21.3335 67.8641 21.3506 67.7337C21.3665 67.5958 21.4083 67.4724 21.4776 67.3631C21.5449 67.2542 21.6173 67.1474 21.6959 67.0435L22.2971 66.2487C22.3485 66.1808 22.4094 66.1269 22.4767 66.0862C22.5443 66.0475 22.6222 66.0414 22.7114 66.0688C22.7662 66.0869 22.8398 66.1194 22.9332 66.1632C23.0258 66.2084 23.1031 66.2518 23.1618 66.2929L23.3285 66.0724L21.5003 64.6897L21.3335 64.9102C21.3887 64.9584 21.4477 65.0214 21.5123 65.1035C21.5766 65.1838 21.6259 65.2594 21.662 65.3284C21.7037 65.41 21.7184 65.4876 21.7031 65.5627C21.6889 65.6387 21.656 65.7087 21.6063 65.7745L20.9177 66.6848C20.7894 66.8542 20.6883 67.021 20.6132 67.1842C20.5391 67.3481 20.5069 67.512 20.5168 67.6794C20.5253 67.8576 20.5907 68.0421 20.7145 68.2289C20.8372 68.4166 21.0311 68.6098 21.2938 68.8087C21.5281 68.9859 21.7738 69.1169 22.0325 69.2024C22.2928 69.2877 22.5553 69.3546 22.8208 69.4023L21.7195 70.8585C21.6585 70.9391 21.5951 70.9944 21.5269 71.0227C21.4599 71.0519 21.3853 71.0557 21.3054 71.0336C21.2567 71.0231 21.1824 70.987 21.0824 70.923L20.8529 70.7793L20.6861 70.9998L22.5142 72.3827L22.681 72.1623C22.6316 72.1216 22.5687 72.0573 22.4923 71.9712C22.4166 71.8839 22.3678 71.8186 22.3461 71.7725C22.3043 71.6823 22.2905 71.6037 22.3038 71.5352C22.3182 71.468 22.352 71.3968 22.4065 71.3248L24.8089 68.1486C24.8602 68.0807 24.921 68.0267 24.9884 67.986C25.056 67.9473 25.134 67.9412 25.2232 67.9687C25.2768 67.986 25.3505 68.0184 25.447 68.0648C25.5428 68.1123 25.6211 68.1563 25.6798 68.1976L25.8465 67.9771L24.0185 66.5943L23.8518 66.8148C23.9057 66.8624 23.9658 66.926 24.0303 67.0082C24.0947 67.0884 24.144 67.1641 24.1801 67.2331C24.2218 67.3146 24.2364 67.3922 24.2212 67.4673C24.2069 67.5433 24.1741 67.6134 24.1245 67.6791V67.6791ZM65.5661 67.819L67.9595 71.0072C68.0161 71.0826 68.0503 71.1567 68.0607 71.2303C68.0729 71.3043 68.0575 71.3789 68.0158 71.4517C67.9914 71.4967 67.9363 71.5581 67.8504 71.6341L67.6563 71.8096L67.8224 72.0306L69.6554 70.6545L69.4895 70.4335C69.4284 70.4759 69.3441 70.5209 69.2388 70.5687C69.1325 70.615 69.058 70.6444 69.0139 70.6542C68.9201 70.6732 68.8406 70.6648 68.7734 70.6304C68.7073 70.5953 68.6489 70.5443 68.597 70.4753L67.5362 69.062L67.7634 68.8911C68.0038 68.7109 68.2364 68.6226 68.4611 68.6252C68.6864 68.6288 68.9854 68.7349 69.36 68.9439C69.5854 69.0671 69.8128 69.1973 70.0429 69.3334C70.273 69.4716 70.5201 69.6282 70.7863 69.8057L72.003 68.8922L71.8371 68.6711C71.7881 68.7011 71.7311 68.7357 71.6628 68.7755C71.5945 68.815 71.5315 68.8507 71.4709 68.8828C71.4002 68.9192 71.3181 68.9361 71.2226 68.9347C71.1278 68.9327 70.9959 68.8874 70.8264 68.7968C70.7041 68.7291 70.5542 68.6489 70.3751 68.554C70.1948 68.4601 70.029 68.3719 69.8767 68.2885C69.6057 68.1446 69.3408 68.0593 69.0826 68.0321C68.8235 68.0058 68.5557 68.0474 68.2764 68.1556L68.2438 68.1121C68.2712 67.9715 68.283 67.8348 68.2793 67.7014C68.2745 67.5688 68.2632 67.4409 68.2428 67.3185C68.2258 67.205 68.1985 67.0891 68.1605 66.9699C68.1223 66.8505 68.0876 66.7421 68.0546 66.6471L67.9507 66.3364C67.9183 66.2443 67.8925 66.1524 67.8738 66.0636C67.8555 65.9724 67.8443 65.8846 67.8407 65.7957C67.8383 65.7063 67.8505 65.6206 67.8794 65.5374C67.9469 65.5717 68.0152 65.6033 68.0849 65.634C68.1546 65.6649 68.2229 65.685 68.2897 65.6965C68.3581 65.7082 68.4248 65.7063 68.4928 65.6902C68.5613 65.6752 68.6294 65.6423 68.6975 65.5913C68.7623 65.5426 68.8043 65.4945 68.8249 65.449C68.845 65.4025 68.856 65.351 68.8595 65.2935C68.8624 65.2465 68.8544 65.196 68.8355 65.1421C68.8166 65.0881 68.7894 65.0388 68.7552 64.993C68.7129 64.9366 68.6632 64.8926 68.607 64.86C68.5499 64.828 68.4881 64.8098 68.4202 64.8058C68.3451 64.8008 68.2656 64.8123 68.1829 64.8393C68.0999 64.8685 68.0145 64.9159 67.9252 64.9829C67.7966 65.0796 67.6951 65.1922 67.6205 65.323C67.5459 65.4539 67.5008 65.5907 67.4811 65.735C67.4545 65.9495 67.4651 66.1542 67.5136 66.3471C67.5618 66.542 67.6209 66.7467 67.6936 66.9631C67.7704 67.1962 67.8316 67.3993 67.8774 67.571C67.9222 67.7435 67.9347 67.9086 67.914 68.067C67.9001 68.1788 67.8687 68.2788 67.8202 68.3668C67.7704 68.4557 67.7088 68.5284 67.6312 68.5868L67.3421 68.8037L66.2062 67.2905C66.155 67.2225 66.12 67.1491 66.1005 67.0722C66.0819 66.9965 66.0986 66.9192 66.1507 66.8403C66.181 66.7942 66.2337 66.7314 66.308 66.649C66.3832 66.5677 66.4492 66.5031 66.505 66.458L66.3392 66.2368L64.506 67.613L64.6718 67.8341C64.7336 67.7944 64.8093 67.7559 64.9019 67.7196C64.9944 67.6816 65.0787 67.6566 65.1549 67.6409C65.2506 67.6222 65.3304 67.6289 65.392 67.6624C65.4556 67.6961 65.5134 67.7489 65.5661 67.819V67.819ZM61.7475 70.4049L63.463 71.9366L61.9839 72.6868L61.7475 70.4049ZM61.5365 71.7516C61.6292 72.6745 61.7077 73.508 61.7731 74.2509C61.7858 74.3965 61.7835 74.5154 61.7674 74.61C61.7515 74.7045 61.7133 74.8059 61.6528 74.9153C61.6134 74.9816 61.5537 75.0492 61.4746 75.1163C61.3957 75.1844 61.3278 75.2353 61.2697 75.2707L61.395 75.5171L63.2482 74.577L63.1232 74.3306C62.9359 74.4136 62.7562 74.4676 62.5846 74.4906C62.4129 74.5135 62.304 74.4778 62.257 74.3854C62.2372 74.3463 62.2175 74.2923 62.1961 74.2241C62.1768 74.1565 62.1566 74.0641 62.1357 73.9494C62.116 73.8313 62.0962 73.7013 62.0759 73.5611C62.056 73.4191 62.0366 73.2515 62.02 73.0575L63.7455 72.1822L64.7139 73.078C64.7354 73.097 64.7559 73.1195 64.7761 73.1479C64.796 73.175 64.8109 73.1987 64.8219 73.2201C64.8476 73.2711 64.81 73.3439 64.7078 73.4389C64.6061 73.5351 64.4682 73.6334 64.2941 73.7365L64.419 73.9832L66.4705 72.9425L66.3455 72.6961C66.2862 72.7231 66.209 72.7474 66.1111 72.7687C66.015 72.7906 65.9325 72.7983 65.8621 72.7921C65.7559 72.7792 65.6683 72.7565 65.595 72.7236C65.523 72.6901 65.4466 72.6365 65.3665 72.5639L61.5684 69.1475L61.2911 69.288C61.3618 70.0089 61.4444 70.8299 61.5365 71.7516V71.7516ZM55.9718 71.8337L57.2665 76.0956C57.2974 76.1975 57.303 76.2846 57.2834 76.3573C57.2625 76.4302 57.2167 76.4941 57.144 76.5524C57.0961 76.5905 57.004 76.6392 56.8662 76.6979C56.7267 76.7555 56.6243 76.7977 56.5559 76.824L56.6363 77.0885L59.1321 76.3304L59.0517 76.0659C58.9708 76.0877 58.8554 76.1048 58.704 76.1187C58.551 76.132 58.4512 76.1372 58.4013 76.1329C58.3024 76.1227 58.2252 76.0878 58.1705 76.0308C58.1151 75.9726 58.0745 75.903 58.0494 75.8204L56.7653 71.5926L56.9815 71.5271C57.0805 71.497 57.1894 71.4667 57.308 71.4363C57.4266 71.4058 57.5255 71.3841 57.6049 71.3709C57.691 71.3573 57.7912 71.3811 57.9047 71.4397C58.0189 71.4995 58.1302 71.5739 58.2401 71.6656C58.3459 71.753 58.4461 71.8502 58.5418 71.9545C58.6377 72.06 58.7092 72.1536 58.7594 72.2369L59.0164 72.1589L58.5806 70.7246L53.9767 72.1232L54.4124 73.5575L54.673 73.4782C54.6708 73.3886 54.679 73.2738 54.6978 73.1304C54.7168 72.9871 54.7457 72.8492 54.7867 72.7145C54.8279 72.5798 54.8791 72.456 54.9397 72.3402C55.0009 72.2259 55.0714 72.1518 55.151 72.1165C55.2513 72.072 55.3584 72.0313 55.4703 71.9931C55.5837 71.9545 55.6782 71.9229 55.7557 71.8995L55.9718 71.8337ZM49.6728 73.6752L50.358 77.6024C50.3753 77.7019 50.3725 77.7861 50.3483 77.8564C50.3254 77.9265 50.2776 77.9847 50.2074 78.0307C50.1652 78.0596 50.087 78.0909 49.9726 78.1228C49.8584 78.1564 49.7709 78.1811 49.7102 78.1969L49.7577 78.4692L52.0932 78.0618L52.0456 77.7894C51.9483 77.8038 51.8407 77.8132 51.7215 77.8177C51.6025 77.8237 51.5184 77.8207 51.4693 77.8105C51.3702 77.7916 51.3008 77.7494 51.2592 77.688C51.2184 77.625 51.1904 77.549 51.1748 77.46L50.8869 75.8106L51.497 75.7041C51.7575 75.6585 51.9976 75.5818 52.2194 75.4755C52.4406 75.3682 52.6358 75.2262 52.8045 75.0483C52.9771 74.8712 53.0989 74.6638 53.172 74.4259C53.2451 74.188 53.2576 73.9266 53.208 73.6427C53.137 73.2368 52.9219 72.9385 52.5639 72.75C52.2059 72.5603 51.7735 72.5102 51.2669 72.5985L48.7823 73.0321L48.8299 73.3045C48.8989 73.2977 48.9829 73.2926 49.0823 73.29C49.18 73.2865 49.2812 73.2944 49.3837 73.3102C49.4843 73.3292 49.5538 73.3723 49.5914 73.4399C49.63 73.5074 49.6571 73.5849 49.6728 73.6752V73.6752ZM50.8287 75.4767L50.4093 73.072L50.9499 72.9777C51.1672 72.9398 51.3549 72.9407 51.5117 72.9822C51.6689 73.0236 51.8028 73.0959 51.9128 73.2009C52.0176 73.2986 52.0994 73.4205 52.1612 73.565C52.2214 73.7095 52.2643 73.8544 52.29 74.0011C52.3082 74.1058 52.3142 74.2261 52.3099 74.363C52.3039 74.4991 52.2697 74.6359 52.2035 74.7741C52.1395 74.9176 52.0284 75.0462 51.8707 75.1628C51.7128 75.2779 51.4965 75.3602 51.2202 75.4084L50.8287 75.4767ZM43.8112 73.9703L43.8733 77.9419C43.8748 78.0375 43.8602 78.1161 43.8279 78.1791C43.797 78.242 43.7393 78.2935 43.6576 78.3346C43.618 78.3525 43.5346 78.371 43.4046 78.3904C43.276 78.4097 43.1724 78.4218 43.0942 78.4284L43.0986 78.7047L47.6839 78.6331L47.7632 77.0037L47.4829 77.0082C47.4489 77.1283 47.3682 77.3156 47.2406 77.5714C47.1143 77.826 46.991 78.0167 46.8747 78.1434C46.8302 78.1907 46.7565 78.229 46.6519 78.2584C46.5475 78.2865 46.4453 78.3069 46.3471 78.319C46.2517 78.3312 46.1335 78.3383 45.994 78.3405L45.6553 78.3458C45.4399 78.3493 45.2738 78.3437 45.1567 78.3323C45.0394 78.3196 44.946 78.2891 44.8787 78.2411C44.8103 78.1929 44.7639 78.1205 44.7385 78.0253C44.7144 77.9299 44.7003 77.7987 44.6979 77.6326L44.6718 75.9743L45.2951 75.9646C45.4624 75.962 45.5996 75.9758 45.7023 76.0047C45.8051 76.0337 45.8978 76.0988 45.9791 76.1984C46.0293 76.2602 46.0787 76.3604 46.1261 76.4979C46.1734 76.6366 46.2034 76.7676 46.216 76.8926L46.5083 76.8879L46.4744 74.7274L46.1822 74.732C46.1705 74.844 46.1458 74.9625 46.1079 75.0893C46.0701 75.2162 46.0224 75.3166 45.9665 75.3933C45.8975 75.4821 45.8175 75.5471 45.7263 75.5857C45.6352 75.6243 45.4894 75.6466 45.2901 75.6497L44.6669 75.6594L44.6326 73.4632L45.5002 73.4495C45.6438 73.4474 45.77 73.4481 45.8816 73.4516C45.9933 73.4551 46.0891 73.4617 46.1704 73.471C46.3261 73.4885 46.4928 73.6081 46.6689 73.8273C46.8438 74.0464 46.96 74.2534 47.0149 74.4505L47.3074 74.446L47.2864 73.1146L43.012 73.1815L43.0164 73.4579C43.087 73.4622 43.1802 73.4753 43.2989 73.5001C43.4176 73.5234 43.5124 73.5525 43.5832 73.5846C43.6742 73.6257 43.735 73.678 43.7652 73.744C43.7941 73.8099 43.8099 73.8854 43.8112 73.9703V73.9703ZM38.0231 73.3604L37.3948 77.2822C37.3797 77.3769 37.3501 77.4515 37.3077 77.5065C37.2639 77.5613 37.1999 77.5996 37.1152 77.6238C37.0606 77.6379 36.972 77.6437 36.8512 77.6419C36.7318 77.6404 36.6395 77.6364 36.577 77.6317L36.5333 77.9045L39.1167 78.3186C39.3478 78.3556 39.5756 78.3611 39.802 78.3341C40.0284 78.3072 40.2369 78.2477 40.4275 78.1585C40.6242 78.0663 40.7917 77.9357 40.9321 77.7657C41.0722 77.5957 41.1628 77.3841 41.2033 77.1309C41.243 76.8829 41.2245 76.6633 41.1475 76.4719C41.0705 76.2806 40.9606 76.1177 40.819 75.9845C40.6854 75.8529 40.527 75.7413 40.3422 75.6511C40.159 75.5599 39.9909 75.4925 39.8363 75.4489L39.8417 75.4149C40.0251 75.4053 40.1992 75.3765 40.3627 75.3301C40.526 75.2849 40.6752 75.2201 40.8095 75.1366C40.9528 75.0492 41.0707 74.9348 41.1642 74.7965C41.2564 74.6576 41.3194 74.4929 41.3502 74.2999C41.3855 74.0795 41.3669 73.8841 41.2932 73.7148C41.2206 73.5458 41.1155 73.4039 40.9789 73.2904C40.833 73.1674 40.6749 73.0721 40.5024 73.0056C40.3303 72.9374 40.1469 72.8892 39.9527 72.858L37.4349 72.4547L37.3911 72.7277C37.4546 72.7432 37.5313 72.7675 37.6226 72.8037C37.7148 72.8401 37.7955 72.8826 37.8669 72.933C37.9467 72.9889 37.9972 73.0521 38.0154 73.1222C38.035 73.1942 38.0371 73.274 38.0231 73.3604V73.3604ZM38.5818 75.1148L38.9176 73.0192L39.2326 73.0604C39.3566 73.0762 39.4607 73.0902 39.5421 73.1032C39.8963 73.1599 40.141 73.2866 40.2777 73.4834C40.4145 73.6804 40.4595 73.9285 40.4114 74.2289C40.3828 74.4075 40.3392 74.5606 40.2805 74.6844C40.2228 74.8097 40.1377 74.9198 40.0245 75.0147C39.9151 75.1076 39.7817 75.1683 39.6222 75.1979C39.4639 75.2278 39.2798 75.2265 39.07 75.1929L38.5818 75.1148ZM38.5295 75.4413L38.7844 75.4714C38.8978 75.4856 39.0372 75.5066 39.2011 75.5329C39.6027 75.5972 39.8956 75.7506 40.079 75.9925C40.2622 76.2344 40.3284 76.5183 40.2768 76.8411C40.2074 77.2741 40.0524 77.5857 39.8146 77.7764C39.5768 77.9669 39.2663 78.0316 38.8846 77.9704C38.6509 77.9331 38.4766 77.8621 38.3585 77.7597C38.2419 77.6563 38.1955 77.525 38.2217 77.3624L38.5295 75.4413ZM33.775 71.8143L32.3173 76.0231C32.2825 76.1236 32.2359 76.1976 32.1772 76.2448C32.1175 76.2916 32.0428 76.3163 31.9498 76.3206C31.8885 76.3233 31.7853 76.3086 31.6394 76.275C31.4927 76.2397 31.3851 76.2135 31.3142 76.1947L31.2239 76.4559L33.6886 77.3097L33.7791 77.0484C33.7008 77.0186 33.5972 76.9644 33.4667 76.8868C33.3351 76.8076 33.2513 76.7531 33.2134 76.7203C33.1395 76.654 33.0975 76.5802 33.0866 76.502C33.0762 76.4226 33.0842 76.3423 33.1125 76.2607L34.5586 72.0855L34.7719 72.1596C34.87 72.1934 34.9758 72.233 35.0896 72.278C35.2034 72.3231 35.2962 72.3637 35.3681 72.3999C35.4457 72.4394 35.513 72.5174 35.5705 72.6316C35.6275 72.7469 35.674 72.8727 35.7088 73.0113C35.7431 73.1442 35.767 73.2819 35.7831 73.4224C35.7987 73.5642 35.8016 73.6819 35.7932 73.779L36.0469 73.8669L36.5374 72.4503L31.9907 70.8757L31.5002 72.292L31.7576 72.3812C31.8084 72.3073 31.8825 72.2191 31.9821 72.1144C32.0817 72.0097 32.1862 71.9151 32.2987 71.8302C32.4109 71.7455 32.5252 71.6752 32.6423 71.6174C32.7589 71.5607 32.8595 71.5422 32.9447 71.5603C33.052 71.5836 33.1625 71.6134 33.2756 71.6483C33.3899 71.6837 33.4849 71.7138 33.5617 71.7402L33.775 71.8143ZM27.166 69.601L25.4182 73.1678C25.3762 73.2537 25.3274 73.317 25.2701 73.3586C25.214 73.4005 25.1393 73.4202 25.0476 73.4198C25.0042 73.4178 24.9216 73.3964 24.7969 73.3545C24.6737 73.3134 24.5758 73.2773 24.5031 73.2475L24.3815 73.4958L28.4996 75.5136L29.31 74.0979L29.0583 73.9747C28.9734 74.0662 28.8164 74.1964 28.5867 74.3664C28.3585 74.536 28.1622 74.6499 28.001 74.71C27.94 74.7318 27.8568 74.7325 27.7502 74.7114C27.6443 74.689 27.5442 74.6606 27.4513 74.6271C27.3606 74.5945 27.252 74.5473 27.1268 74.4858L26.8225 74.3367C26.6292 74.242 26.4835 74.1617 26.3844 74.0984C26.2859 74.0339 26.2164 73.9641 26.1783 73.8907C26.1391 73.8169 26.1307 73.7312 26.1511 73.635C26.1731 73.5391 26.2201 73.4157 26.2932 73.2664L27.023 71.7773L27.5826 72.0515C27.733 72.1252 27.8488 72.1997 27.9274 72.2723C28.0058 72.3446 28.0589 72.4446 28.086 72.5704C28.1026 72.6482 28.1012 72.7597 28.081 72.9038C28.0602 73.049 28.0272 73.1793 27.9819 73.2963L28.2444 73.425L29.1951 71.4846L28.9327 71.356C28.8715 71.4505 28.7956 71.5448 28.7043 71.6407C28.613 71.7366 28.5249 71.8043 28.4402 71.8473C28.3385 71.8949 28.2377 71.9166 28.139 71.9097C28.0403 71.9027 27.9001 71.8564 27.7212 71.7687L27.1614 71.4944L28.1279 69.522L28.9071 69.9038C29.0361 69.9669 29.1482 70.0249 29.2462 70.0786C29.344 70.1326 29.4266 70.1818 29.4945 70.2271C29.6254 70.3133 29.7196 70.4958 29.7772 70.771C29.8334 71.0457 29.843 71.2828 29.8024 71.4834L30.0649 71.6119L30.6508 70.4163L26.812 68.5353L26.6904 68.7835C26.7514 68.8192 26.8284 68.8733 26.9229 68.9494C27.0181 69.024 27.0893 69.0929 27.1379 69.1537C27.2004 69.2317 27.2307 69.3058 27.2277 69.3783C27.2235 69.4501 27.2032 69.5246 27.166 69.601V69.601ZM12.9902 32.3921L12.9007 32.6252C12.8124 32.6145 12.7156 32.6102 12.6111 32.6102C12.5065 32.6102 12.3822 32.6232 12.2399 32.6488C12.1061 32.6741 11.9911 32.7078 11.8946 32.7498C11.7972 32.7914 11.725 32.8561 11.6784 32.9428C11.6409 33.0086 11.6001 33.0927 11.5564 33.1938C11.5131 33.294 11.4731 33.3917 11.4374 33.485L11.1945 34.1177L14.7279 35.474C14.7989 35.5013 14.8665 35.509 14.9325 35.4954C14.997 35.4825 15.0596 35.4494 15.1177 35.3963C15.1526 35.3623 15.2005 35.2944 15.2636 35.1934C15.3253 35.0928 15.3712 35.0083 15.3993 34.9414L15.6197 35.026L14.8606 37.0036L14.6401 36.919C14.6599 36.8549 14.6853 36.7697 14.7152 36.6632C14.7456 36.5557 14.7595 36.4845 14.7569 36.447C14.754 36.3754 14.7311 36.3143 14.6887 36.2665C14.6479 36.2179 14.5895 36.1796 14.5143 36.1507L11.335 34.9304C11.2671 34.9043 11.2022 34.8928 11.1407 34.8947C11.0787 34.8977 11.018 34.9291 10.9564 34.9882C10.9083 35.0342 10.8551 35.1 10.7988 35.1866C10.7414 35.2729 10.7012 35.3424 10.6754 35.397L10.455 35.3124L11.7577 31.9189L12.9902 32.3921ZM15.4424 27.9447C15.6491 28.079 15.8053 28.2386 15.9118 28.4228C16.0181 28.6069 16.0772 28.8036 16.0875 29.0148C16.1009 29.2237 16.0763 29.4284 16.0147 29.6293C15.9523 29.8298 15.8608 30.0248 15.7377 30.2142L15.4496 30.6579L16.6492 31.4369C16.7139 31.4789 16.7779 31.5056 16.841 31.5168C16.9037 31.5265 16.9703 31.5074 17.0399 31.4565C17.0748 31.4317 17.1255 31.3808 17.1911 31.3029C17.2575 31.2256 17.3143 31.1528 17.3619 31.0835L17.5599 31.2122L16.457 32.9107L16.2589 32.782C16.2842 32.7348 16.3195 32.6658 16.365 32.5748C16.4115 32.4845 16.4375 32.4175 16.4439 32.3743C16.456 32.3036 16.4473 32.2397 16.4167 32.1847C16.3868 32.1287 16.3358 32.078 16.2634 32.031L13.4073 30.1761C13.3416 30.1335 13.2773 30.1054 13.2126 30.0904C13.1485 30.0745 13.0809 30.0928 13.0108 30.1448C12.9412 30.1998 12.8773 30.2585 12.8227 30.3218C12.7665 30.3854 12.7209 30.441 12.6849 30.4881L12.4868 30.3595L13.6604 28.5525C13.8996 28.184 14.1823 27.9426 14.5093 27.8289C14.8355 27.7142 15.1473 27.753 15.4424 27.9447V27.9447ZM15.5665 29.2313C15.5186 29.1094 15.4528 29.0085 15.3712 28.9258C15.288 28.8433 15.2091 28.7772 15.1329 28.7278C15.0263 28.6584 14.9107 28.6011 14.7851 28.5546C14.6588 28.5093 14.5349 28.4896 14.4128 28.4984C14.2832 28.5062 14.16 28.548 14.0428 28.6222C13.9257 28.6963 13.8159 28.8131 13.7134 28.9713L13.458 29.3644L15.2069 30.5003L15.3917 30.2156C15.5222 30.0147 15.5965 29.8316 15.6163 29.6656C15.635 29.4991 15.6191 29.3548 15.5665 29.2313V29.2313ZM16.1498 26.1371C16.0905 26.1233 16.0201 26.1149 15.9364 26.1128C15.8535 26.1115 15.7698 26.1248 15.687 26.154C15.6239 26.1782 15.5582 26.2123 15.4889 26.2569C15.4213 26.3015 15.365 26.3453 15.3199 26.3887L15.1443 26.2307L16.4752 24.7526L16.6507 24.9107C16.5622 25.0191 16.4852 25.1268 16.4209 25.2354C16.3551 25.3441 16.3436 25.4163 16.3848 25.4535C16.4035 25.4703 16.4332 25.4848 16.4741 25.4987C16.5157 25.5118 16.546 25.5206 16.5622 25.5246C16.7489 25.5735 17.0431 25.6505 17.445 25.7573C17.8468 25.864 18.3944 26.0041 19.0866 26.1769C18.9677 25.9002 18.8318 25.593 18.6774 25.2539C18.5229 24.9146 18.396 24.6399 18.2958 24.4307C18.1851 24.2058 18.1068 24.0603 18.0639 23.9943C18.0211 23.9282 17.985 23.8834 17.9588 23.8599C17.926 23.8303 17.8836 23.8196 17.8318 23.8296C17.7802 23.8396 17.7234 23.8618 17.6618 23.8963C17.6034 23.9324 17.5452 23.9731 17.4896 24.0179C17.4333 24.0635 17.3781 24.113 17.3206 24.1667L17.1451 24.0087L18.3248 22.6984L18.5003 22.8565C18.4633 22.901 18.4238 22.9634 18.3839 23.0451C18.3433 23.1259 18.3157 23.2021 18.3003 23.272C18.2829 23.3574 18.2832 23.4386 18.3017 23.5164C18.3203 23.5943 18.352 23.6913 18.3991 23.8087C18.5427 24.1701 18.7397 24.6332 18.9912 25.1987C19.2434 25.7635 19.4257 26.1888 19.5394 26.473C19.6532 26.7573 19.7354 27.007 19.7836 27.2215C19.8326 27.4352 19.8514 27.6231 19.8389 27.786C19.8292 27.9529 19.7993 28.0879 19.7516 28.1918C19.7025 28.2956 19.6354 28.3955 19.5495 28.4909C19.4303 28.6234 19.2945 28.7011 19.1398 28.727C18.9861 28.7519 18.8599 28.7208 18.7627 28.6334C18.6802 28.559 18.6313 28.4691 18.6154 28.3646C18.6002 28.2593 18.6282 28.167 18.6989 28.0885C18.7513 28.0303 18.8095 27.9911 18.8761 27.9715C18.9409 27.9521 19.0049 27.9439 19.0662 27.9487C19.1258 27.9521 19.1931 27.9621 19.2695 27.9791C19.3444 27.996 19.4046 28.009 19.449 28.0154C19.5253 27.8611 19.5506 27.6975 19.5255 27.5251C19.5003 27.3529 19.4528 27.1648 19.384 26.9594C18.7915 26.8048 18.1553 26.6413 17.4734 26.4672C16.7915 26.2932 16.35 26.1828 16.1498 26.1371ZM26.0324 22.4469L24.4675 23.626L24.3254 23.4375C24.3653 23.4018 24.4229 23.3498 24.498 23.2818C24.574 23.2147 24.6211 23.1621 24.6401 23.125C24.6779 23.0639 24.6922 23.0019 24.684 22.9399C24.6756 22.8778 24.646 22.8121 24.594 22.7432L22.3122 19.7151L20.5779 21.0221L22.8378 24.0212C22.8843 24.0828 22.9339 24.1278 22.986 24.1555C23.039 24.1825 23.1067 24.1895 23.1914 24.1755C23.2337 24.1691 23.2988 24.1443 23.3881 24.1026C23.4767 24.06 23.5444 24.0232 23.5902 23.9915L23.7322 24.1801L22.1675 25.3592L22.0254 25.1707C22.0653 25.135 22.1228 25.0831 22.198 25.015C22.2738 24.9479 22.321 24.8954 22.34 24.8582C22.3768 24.7978 22.3913 24.7358 22.3838 24.6731C22.3755 24.6111 22.3459 24.5454 22.294 24.4765L20.2445 21.7567C20.2021 21.7005 20.1513 21.6576 20.0931 21.6275C20.034 21.5981 19.9668 21.592 19.8901 21.6071C19.825 21.6207 19.7512 21.6436 19.6702 21.6776C19.5887 21.7106 19.5222 21.7451 19.4696 21.7791L19.3275 21.5904L23.1923 18.6781L23.3344 18.8667C23.286 18.906 23.2315 18.96 23.17 19.0276C23.1094 19.096 23.0654 19.1489 23.0396 19.1883C22.9953 19.2559 22.982 19.3213 22.999 19.3853C23.0157 19.4508 23.0467 19.5128 23.0904 19.5708L25.1379 22.288C25.1843 22.3496 25.234 22.3947 25.2869 22.4215C25.339 22.4491 25.407 22.4562 25.4916 22.4422C25.5338 22.4359 25.5989 22.4111 25.6882 22.3693C25.7769 22.3266 25.8445 22.2899 25.8902 22.2583L26.0324 22.4469ZM31.1958 19.5324L29.4501 20.422L29.3428 20.2114C29.3884 20.1831 29.4541 20.142 29.54 20.0882C29.6263 20.0352 29.6819 19.9916 29.707 19.9584C29.7548 19.9048 29.7798 19.8462 29.7823 19.7837C29.7849 19.7213 29.7671 19.6514 29.728 19.5744L28.0067 16.1962L26.0717 17.1821L27.7765 20.5279C27.8115 20.5967 27.8526 20.6497 27.899 20.686C27.9466 20.7217 28.0122 20.7405 28.0979 20.7414C28.1407 20.7425 28.2091 20.7293 28.3043 20.7038C28.399 20.6771 28.472 20.6527 28.5226 20.6295L28.6297 20.8398L26.884 21.7293L26.7767 21.519C26.8223 21.4907 26.8879 21.4496 26.9738 21.3957C27.0602 21.3428 27.1157 21.2992 27.1409 21.2659C27.1877 21.2127 27.2126 21.1543 27.2162 21.0912C27.2188 21.0288 27.201 20.9588 27.1618 20.882L25.6158 17.8475C25.5838 17.7848 25.5412 17.7339 25.4892 17.6941C25.4361 17.6549 25.3709 17.6371 25.2928 17.6387C25.2263 17.6408 25.1497 17.6505 25.064 17.6699C24.9779 17.6884 24.9064 17.7107 24.8488 17.7351L24.7415 17.5246L29.0534 15.3276L29.1606 15.5381C29.1061 15.5684 29.043 15.612 28.9708 15.6679C28.8991 15.7248 28.8466 15.7693 28.8144 15.8037C28.7591 15.8625 28.7347 15.9245 28.7402 15.9905C28.7453 16.058 28.765 16.1244 28.7979 16.1891L30.3426 19.2205C30.3776 19.2893 30.4187 19.3422 30.4661 19.378C30.5127 19.4142 30.5783 19.433 30.664 19.4338C30.7067 19.4351 30.7752 19.4218 30.8704 19.3962C30.9652 19.3696 31.0381 19.3452 31.0887 19.322L31.1958 19.5324ZM36.2934 17.6823L34.4353 18.3221L34.3584 18.0988C34.518 18.0319 34.6462 17.9649 34.7435 17.8954C34.8411 17.827 34.8815 17.7699 34.8657 17.7237C34.859 17.7044 34.8491 17.6825 34.8355 17.6572C34.8216 17.6308 34.807 17.6094 34.791 17.5909L34.0767 16.7191L32.5139 17.2573C32.5052 17.4236 32.5018 17.5675 32.502 17.6899C32.5028 17.8109 32.5043 17.9232 32.5071 18.0254C32.5113 18.1249 32.5175 18.2057 32.526 18.2652C32.5359 18.3254 32.5465 18.3734 32.5586 18.4088C32.5875 18.4925 32.6755 18.5355 32.8234 18.5361C32.9714 18.5369 33.1298 18.5124 33.2979 18.464L33.3749 18.6873L31.6961 19.2653L31.6193 19.042C31.6725 19.0189 31.736 18.9838 31.8106 18.9353C31.8856 18.8879 31.9439 18.8378 31.9851 18.7865C32.0493 18.7006 32.0932 18.6194 32.118 18.5413C32.1427 18.4631 32.1586 18.3629 32.1649 18.2382C32.1967 17.6017 32.2281 16.8875 32.258 16.0955C32.2882 15.3047 32.3147 14.6004 32.3394 13.982L32.5907 13.8954L35.4036 17.2322C35.4628 17.3031 35.5211 17.3576 35.5783 17.3943C35.6364 17.4307 35.7077 17.4601 35.7964 17.4837C35.855 17.4971 35.9258 17.5004 36.0097 17.4931C36.0951 17.4864 36.1631 17.4751 36.2164 17.4591L36.2934 17.6823ZM33.8664 16.4781L32.5945 14.9807L32.5269 16.9394L33.8664 16.4781ZM42.9511 16.7433L41.6584 16.8792C41.5411 16.6324 41.4287 16.409 41.3206 16.207C41.2116 16.0061 41.1022 15.8111 40.9909 15.6219C40.808 15.3042 40.6354 15.0953 40.4717 14.9938C40.3082 14.8935 40.0988 14.8561 39.8437 14.8829L39.6021 14.9084L39.7599 16.4097C39.7677 16.4832 39.7879 16.5461 39.8211 16.601C39.8554 16.6555 39.9099 16.6965 39.987 16.7238C40.0236 16.736 40.0911 16.7471 40.1893 16.7596C40.2875 16.7709 40.3691 16.7751 40.4325 16.7705L40.4572 17.0054L38.5096 17.2101L38.485 16.9753C38.5354 16.9654 38.608 16.951 38.7042 16.9317C38.8004 16.9136 38.8679 16.8928 38.9055 16.8705C38.968 16.8355 39.012 16.7874 39.0355 16.728C39.0602 16.6695 39.0678 16.6002 39.0592 16.52L38.7033 13.133C38.6955 13.0585 38.6761 12.9944 38.6444 12.9417C38.6137 12.8902 38.5583 12.8503 38.48 12.822C38.4171 12.8001 38.3444 12.7815 38.2597 12.7687C38.176 12.7547 38.1037 12.7498 38.0411 12.7517L38.0164 12.5168L39.9639 12.3122L39.9886 12.547C39.928 12.5557 39.8511 12.5741 39.7603 12.6008C39.6697 12.6286 39.6035 12.6515 39.5612 12.6719C39.4883 12.7069 39.4421 12.7563 39.4226 12.82C39.4031 12.8849 39.3968 12.9539 39.4043 13.0262L39.5732 14.6339L39.8804 14.6016C39.9628 14.593 40.0399 14.5665 40.1153 14.5234C40.1895 14.4801 40.2563 14.4206 40.3157 14.3448C40.4003 14.2376 40.4635 14.1112 40.5063 13.9651C40.5481 13.8192 40.5923 13.6434 40.6382 13.4387C40.6799 13.2484 40.7264 13.0722 40.7765 12.9083C40.8257 12.7456 40.9075 12.5909 41.0212 12.4454C41.0988 12.3481 41.1921 12.2676 41.304 12.2045C41.4162 12.1413 41.54 12.1032 41.6766 12.0888C41.7714 12.0789 41.8551 12.0815 41.9286 12.0966C42.0011 12.1129 42.0643 12.1394 42.1172 12.1762C42.1653 12.2087 42.2026 12.2492 42.2305 12.2978C42.2572 12.3463 42.2743 12.4004 42.2806 12.4603C42.2858 12.5088 42.2839 12.5569 42.2741 12.6048C42.2644 12.6527 42.248 12.6932 42.2253 12.7263C42.1977 12.7669 42.1668 12.7998 42.1318 12.8252C42.0967 12.8494 42.0448 12.8663 41.9759 12.8735C41.9037 12.8811 41.8392 12.8754 41.7823 12.8562C41.7257 12.8382 41.676 12.8104 41.6308 12.7716C41.5869 12.7341 41.5457 12.6893 41.5081 12.6362C41.4705 12.5831 41.4341 12.5298 41.3999 12.4752C41.3422 12.5235 41.2957 12.5809 41.2582 12.6476C41.2218 12.7142 41.1915 12.7836 41.165 12.8583C41.1397 12.9317 41.1182 13.0104 41.1017 13.0921C41.0841 13.1739 41.064 13.265 41.0415 13.3656C41.0239 13.4496 41.002 13.5444 40.9775 13.6485C40.9531 13.7527 40.9222 13.8495 40.885 13.9402C40.8463 14.039 40.7983 14.1377 40.7438 14.2369C40.6881 14.3364 40.6193 14.4315 40.5375 14.5224L40.5423 14.5686C40.7945 14.6118 41.0093 14.6987 41.1876 14.8319C41.3648 14.9651 41.5217 15.1437 41.6571 15.368C41.7323 15.4961 41.8151 15.6334 41.906 15.7814C41.9959 15.9294 42.0706 16.054 42.1305 16.1573C42.2149 16.2979 42.2918 16.3892 42.3602 16.4321C42.4298 16.475 42.4973 16.4988 42.5652 16.503C42.6237 16.5061 42.6854 16.5075 42.753 16.5085C42.8204 16.5093 42.8774 16.5091 42.9265 16.5085L42.9511 16.7433ZM47.5224 12.545C47.7264 12.7655 47.8852 13.0304 47.9967 13.34C48.1094 13.6486 48.1613 13.99 48.1548 14.3624C48.1483 14.737 48.0834 15.0765 47.9577 15.3796C47.8331 15.6841 47.6618 15.941 47.4458 16.153C47.2354 16.3616 46.9932 16.522 46.7187 16.6319C46.4443 16.7429 46.1527 16.7957 45.844 16.7903C45.516 16.7845 45.214 16.7169 44.9381 16.5895C44.662 16.4621 44.4267 16.2865 44.2308 16.0628C44.0348 15.8448 43.8827 15.5811 43.7734 15.2713C43.6653 14.963 43.6131 14.6328 43.6192 14.2832C43.626 13.8995 43.6921 13.559 43.8177 13.2603C43.9421 12.9616 44.1123 12.7045 44.3261 12.4892C44.5388 12.2761 44.7834 12.1134 45.0613 12.0024C45.3391 11.8926 45.6296 11.8397 45.9304 11.845C46.2436 11.8505 46.5376 11.9147 46.8126 12.0364C47.0874 12.1592 47.3241 12.328 47.5224 12.545V12.545ZM46.968 15.8813C47.0953 15.6814 47.19 15.4548 47.2512 15.2015C47.3125 14.9471 47.3447 14.6628 47.3501 14.3483C47.3557 14.0249 47.3303 13.727 47.2715 13.4557C47.2126 13.1834 47.1247 12.9513 47.0054 12.7585C46.8873 12.568 46.7366 12.4188 46.5546 12.31C46.3726 12.2013 46.1623 12.1453 45.9252 12.1412C45.6595 12.1366 45.4327 12.194 45.2444 12.3122C45.0562 12.4304 44.9011 12.5912 44.7795 12.7934C44.666 12.9867 44.5791 13.2134 44.5202 13.4735C44.4611 13.7347 44.429 14.0089 44.424 14.2973C44.4184 14.6162 44.4429 14.905 44.4964 15.1625C44.5486 15.4213 44.6355 15.6509 44.7567 15.8529C44.8726 16.0502 45.0209 16.2049 45.2005 16.3182C45.3803 16.4315 45.5972 16.4897 45.8492 16.4941C46.0863 16.4982 46.3019 16.4463 46.4946 16.3385C46.6871 16.2317 46.8453 16.0789 46.968 15.8813V15.8813ZM54.685 17.915L52.6381 17.517L52.6831 17.2852C52.7582 17.2975 52.8545 17.3081 52.9729 17.3173C53.0923 17.3278 53.1762 17.3246 53.2242 17.3095C53.299 17.2812 53.3585 17.2431 53.4001 17.1957C53.4418 17.1482 53.4714 17.0846 53.4871 17.0044L54.1419 13.6357L54.0928 13.6262L51.7454 17.2661L51.5816 17.2342L50.8605 12.9122L50.8182 12.904L50.2805 15.67C50.2285 15.9373 50.2056 16.1445 50.2121 16.2903C50.2183 16.4362 50.2512 16.5466 50.3086 16.6201C50.3477 16.6752 50.4384 16.7379 50.5808 16.8083C50.7219 16.8798 50.8158 16.92 50.8612 16.931L50.8161 17.1629L48.9462 16.7994L48.9913 16.5677C49.091 16.5778 49.1967 16.5822 49.3084 16.5784C49.421 16.576 49.5117 16.5555 49.5801 16.519C49.6676 16.4736 49.7382 16.3901 49.7906 16.2685C49.8442 16.1482 49.8984 15.9402 49.9561 15.6437L50.4168 13.2736C50.4434 13.1365 50.4497 13.0209 50.4332 12.9275C50.4178 12.8344 50.3846 12.7551 50.3339 12.6885C50.2786 12.6165 50.2045 12.5569 50.1119 12.5101C50.0195 12.462 49.9256 12.4275 49.8305 12.4045L49.8755 12.1727L51.4557 12.4798L52.1055 16.2109L53.8036 13.526C53.8655 13.4271 53.9228 13.3225 53.9746 13.2112C54.0272 13.1011 54.0579 13.0262 54.0677 12.9875L55.5788 13.2813L55.5339 13.513C55.4721 13.5035 55.3932 13.4986 55.2952 13.4969C55.197 13.4962 55.125 13.4984 55.0784 13.5056C54.9985 13.5177 54.94 13.5515 54.9027 13.6067C54.864 13.6629 54.8387 13.7272 54.8249 13.7985L54.1756 17.1382C54.161 17.214 54.1608 17.281 54.1772 17.3387C54.1927 17.396 54.2339 17.4515 54.301 17.5049C54.336 17.5337 54.4009 17.5683 54.4977 17.6057C54.5943 17.6441 54.6714 17.6694 54.7302 17.6831L54.685 17.915ZM60.1648 20.066L58.3481 19.332L58.4365 19.113C58.4877 19.1289 58.5618 19.1514 58.6589 19.1809C58.7556 19.2113 58.8249 19.2247 58.8665 19.2219C58.9383 19.2227 58.9989 19.2031 59.0477 19.164C59.0966 19.1251 59.1377 19.0657 59.17 18.9857L60.5903 15.4702L58.5768 14.6567L57.17 18.1385C57.1412 18.2101 57.1281 18.2758 57.1312 18.3347C57.1354 18.394 57.1643 18.4558 57.2199 18.5211C57.247 18.5541 57.3019 18.5971 57.3837 18.6522C57.4659 18.7062 57.5322 18.7452 57.583 18.7681L57.4945 18.9872L55.6778 18.2531L55.7662 18.0342C55.8174 18.0499 55.8915 18.0725 55.9886 18.102C56.0852 18.1324 56.1545 18.1458 56.1963 18.143C56.267 18.1434 56.3275 18.1239 56.3774 18.0852C56.4263 18.0461 56.4674 17.9869 56.4997 17.9069L57.7755 14.7492C57.8018 14.6839 57.8124 14.6184 57.8082 14.553C57.8029 14.4873 57.7736 14.4265 57.7211 14.3685C57.676 14.3197 57.6183 14.2683 57.5475 14.2164C57.477 14.1635 57.4134 14.1241 57.3572 14.0965L57.4456 13.8776L61.9326 15.6905L61.8441 15.9095C61.7855 15.8882 61.711 15.8692 61.6215 15.8514C61.5316 15.8347 61.4635 15.8243 61.4165 15.8225C61.3358 15.8192 61.2729 15.8415 61.2268 15.889C61.1792 15.9372 61.142 15.9955 61.1148 16.0629L59.8403 19.2174C59.8114 19.289 59.7984 19.3547 59.8025 19.414C59.8058 19.4729 59.8347 19.5347 59.8903 19.6001C59.9173 19.633 59.9722 19.676 60.054 19.7311C60.1362 19.7851 60.2025 19.8241 60.2532 19.847L60.1648 20.066ZM64.8192 22.9513L63.1528 21.9099L63.2778 21.7097C63.4302 21.7915 63.5629 21.849 63.6783 21.8809C63.7929 21.9137 63.8628 21.9092 63.8886 21.8678C63.8995 21.8505 63.9102 21.829 63.9212 21.8025C63.933 21.7752 63.9405 21.7503 63.9448 21.7263L64.1728 20.6225L62.7711 19.7466C62.6364 19.8444 62.5224 19.9325 62.4274 20.0096C62.3339 20.0864 62.2475 20.1583 62.1698 20.2249C62.0952 20.2907 62.0363 20.3463 61.9954 20.3902C61.9548 20.4359 61.9242 20.4743 61.9043 20.5061C61.8574 20.5812 61.8794 20.6765 61.972 20.792C62.0645 20.9073 62.1833 21.015 62.3266 21.1153L62.2016 21.3157L60.6959 20.3748L60.821 20.1744C60.8726 20.2014 60.9398 20.2286 61.0244 20.2561C61.1084 20.2844 61.184 20.2983 61.2498 20.2979C61.3569 20.2938 61.4477 20.2769 61.524 20.2471C61.6004 20.217 61.6882 20.1662 61.7892 20.0928C62.3037 19.7169 62.8786 19.2917 63.5129 18.8165C64.1464 18.3423 64.7104 17.9198 65.2067 17.5498L65.432 17.6905L64.609 21.9766C64.5913 22.0672 64.5856 22.1468 64.593 22.2142C64.6012 22.2823 64.6234 22.3564 64.6607 22.4399C64.6872 22.4941 64.7292 22.5512 64.7878 22.6118C64.8466 22.674 64.8983 22.7196 64.9442 22.751L64.8192 22.9513ZM64.2277 20.3073L64.591 18.3766L63.0263 19.5567L64.2277 20.3073ZM69.0316 26.5214L67.5306 25.262L67.6824 25.081C67.7262 25.1119 67.7897 25.1562 67.8729 25.2144C67.9554 25.2732 68.0172 25.3072 68.0575 25.3174C68.1258 25.3403 68.1893 25.3405 68.2479 25.3185C68.3064 25.2964 68.3637 25.2527 68.4192 25.1866L69.4985 23.9005L67.7993 22.4747L66.7434 23.733C66.6937 23.7921 66.6609 23.8506 66.6458 23.9075C66.6316 23.9652 66.6398 24.0329 66.6726 24.1123C66.6881 24.152 66.727 24.2099 66.7878 24.2875C66.8493 24.3643 66.9003 24.4219 66.9415 24.4594L66.7897 24.6402L65.2887 23.3808L65.4405 23.2C65.4844 23.2307 65.5478 23.2752 65.631 23.3331C65.7136 23.392 65.7754 23.4261 65.8158 23.4362C65.883 23.4586 65.9465 23.4587 66.0061 23.4372C66.0644 23.4153 66.122 23.3716 66.1773 23.3055L68.3664 20.6967C68.4117 20.6427 68.442 20.5836 68.4582 20.5203C68.4735 20.456 68.4645 20.3891 68.4324 20.3178C68.4046 20.2574 68.3657 20.1907 68.3144 20.1194C68.2637 20.0473 68.2153 19.9902 68.1703 19.9467L68.3221 19.7658L69.8231 21.0252L69.6713 21.2062C69.6219 21.1677 69.5571 21.1267 69.4775 21.0821C69.3971 21.0384 69.3356 21.0074 69.2914 20.9912C69.2157 20.9632 69.1489 20.965 69.0895 20.9952C69.0303 21.027 68.977 21.0711 68.9302 21.1268L67.9897 22.2476L69.6889 23.6735L70.6083 22.5778C70.6536 22.5238 70.6838 22.4647 70.7001 22.4014C70.7155 22.3371 70.7063 22.2702 70.6743 22.1989C70.6464 22.1385 70.6076 22.0718 70.5562 22.0005C70.5055 21.9285 70.4572 21.8715 70.4121 21.8279L70.564 21.6469L72.065 22.9065L71.9132 23.0873C71.8638 23.0489 71.799 23.0079 71.7193 22.9633C71.639 22.9194 71.5775 22.8887 71.5333 22.8723C71.4576 22.8443 71.3908 22.8462 71.3323 22.877C71.272 22.9081 71.2189 22.9523 71.1722 23.0079L68.9853 25.6141C68.9356 25.6733 68.9028 25.7317 68.8885 25.7894C68.8734 25.8464 68.8818 25.914 68.9145 25.9934C68.93 26.0332 68.9688 26.0911 69.0297 26.1687C69.0912 26.2455 69.1421 26.303 69.1834 26.3405L69.0316 26.5214ZM72.5763 31.2885L71.4294 29.7098L71.6203 29.5709C71.6548 29.6106 71.7063 29.6699 71.7744 29.7482C71.8415 29.8271 71.8939 29.876 71.9306 29.8957C71.9911 29.9345 72.0528 29.95 72.1151 29.9427C72.1771 29.9356 72.2433 29.907 72.3132 29.8563L74.6936 28.1267L71.0499 27.9536L70.9876 27.999C70.9251 28.0443 70.8826 28.0921 70.8587 28.1403C70.8348 28.1885 70.8291 28.2558 70.8409 28.3398C70.8471 28.3831 70.8721 28.4505 70.9157 28.5451C70.9602 28.639 70.9977 28.71 71.0299 28.7582L70.8388 28.8971L69.6912 27.3174L69.8822 27.1785C69.9172 27.2191 69.9681 27.2775 70.0348 27.354C70.1006 27.431 70.1523 27.4789 70.1891 27.4986C70.249 27.5365 70.3107 27.552 70.3734 27.5457C70.4355 27.5385 70.5018 27.5101 70.5716 27.4592L73.3268 25.4575C73.3838 25.4161 73.4275 25.3662 73.4585 25.3085C73.4889 25.2499 73.4963 25.1828 73.4825 25.1058C73.4701 25.0405 73.4485 24.9663 73.4158 24.8848C73.3842 24.8027 73.351 24.7356 73.3179 24.6823L73.5089 24.5436L74.6566 26.1233L74.4656 26.262C74.4271 26.2129 74.3734 26.1564 74.3056 26.092C74.2369 26.0283 74.1841 25.9826 74.1451 25.956C74.079 25.9115 74.0131 25.8962 73.9489 25.9121C73.883 25.9275 73.8205 25.9575 73.7619 26.0002L71.4402 27.6871L75.0819 27.8615C75.1461 27.8148 75.1907 27.7642 75.2163 27.7105C75.2413 27.656 75.2459 27.5908 75.232 27.5139C75.2205 27.4536 75.196 27.3774 75.1578 27.2844C75.1189 27.192 75.0844 27.1215 75.0561 27.0747L75.2472 26.936L76.3942 28.5147L76.2031 28.6535C76.1652 28.6053 76.1123 28.5498 76.0458 28.4873C75.9784 28.4253 75.9254 28.3796 75.8867 28.3531C75.8206 28.3084 75.7553 28.2941 75.6904 28.309C75.6252 28.3254 75.5621 28.3545 75.5033 28.3972L72.751 30.397C72.6885 30.4423 72.6432 30.492 72.6147 30.5436C72.5869 30.5962 72.5786 30.664 72.5905 30.7479C72.5966 30.7911 72.6204 30.8567 72.6606 30.9468C72.7016 31.0362 72.7372 31.1043 72.7674 31.1497L72.5763 31.2885ZM75.1583 36.7397L74.3646 34.957L74.5803 34.8611C74.6057 34.9069 74.6438 34.9756 74.6941 35.0664C74.7434 35.1575 74.7844 35.2163 74.8163 35.2431C74.8674 35.2936 74.9245 35.3216 74.9869 35.3275C75.0491 35.3333 75.1198 35.3192 75.1987 35.2841L77.8867 34.0873L74.3587 33.1603L74.2883 33.1917C74.2177 33.2231 74.1662 33.261 74.1328 33.3032C74.0994 33.3454 74.0797 33.41 74.0739 33.4946C74.0709 33.5383 74.0815 33.6094 74.1044 33.711C74.1283 33.8122 74.1502 33.8894 74.1717 33.9432L73.9559 34.0393L73.1618 32.2554L73.3775 32.1595C73.4034 32.2064 73.441 32.2741 73.4904 32.3627C73.5387 32.4517 73.5793 32.5095 73.6112 32.5363C73.6618 32.5859 73.719 32.6138 73.7817 32.6207C73.844 32.6265 73.9147 32.6125 73.9935 32.5774L77.1046 31.1922C77.1691 31.1635 77.2221 31.1237 77.2644 31.0739C77.3064 31.0228 77.3276 30.9588 77.3301 30.8806C77.3315 30.8141 77.3258 30.737 77.311 30.6505C77.297 30.5635 77.2784 30.491 77.2572 30.4322L77.4728 30.336L78.267 32.1198L78.0513 32.216C78.0239 32.1597 77.9832 32.0935 77.9302 32.0163C77.8762 31.9397 77.8339 31.884 77.8014 31.85C77.7461 31.7927 77.6848 31.764 77.6186 31.7661C77.5509 31.7676 77.4838 31.7839 77.4174 31.8135L74.7957 32.9808L78.3216 33.9085C78.3941 33.8762 78.4483 33.836 78.4845 33.7888C78.5202 33.7406 78.5382 33.6779 78.5407 33.5997C78.542 33.5383 78.5338 33.4587 78.5158 33.3598C78.4969 33.2614 78.478 33.1853 78.4599 33.1337L78.6757 33.0377L79.4694 34.8203L79.2536 34.9164C79.2267 34.8613 79.1865 34.796 79.1344 34.7211C79.0813 34.6463 79.0391 34.5906 79.0065 34.5568C78.9512 34.4993 78.8904 34.4717 78.8238 34.4727C78.7565 34.4754 78.6888 34.4906 78.6225 34.5201L75.5144 35.904C75.4439 35.9353 75.3892 35.9746 75.3507 36.0191C75.3125 36.0648 75.2903 36.1293 75.2846 36.2139C75.2815 36.2574 75.2911 36.3265 75.3118 36.4229C75.3333 36.5189 75.354 36.593 75.3741 36.6437L75.1583 36.7397ZM79.4788 32.9522C79.5135 32.9157 79.5604 32.8674 79.6215 32.8091C79.681 32.7503 79.7398 32.7093 79.7968 32.6838C79.9015 32.6372 79.9924 32.6378 80.0692 32.6843C80.1458 32.731 80.2024 32.7941 80.2376 32.8728C80.2772 32.962 80.2765 33.0494 80.2371 33.134C80.1967 33.2191 80.1257 33.283 80.0252 33.3278C79.9577 33.3579 79.8706 33.3718 79.763 33.37C79.6553 33.3681 79.551 33.34 79.4488 33.2862C79.3306 33.2219 79.2188 33.1326 79.1122 33.0161C79.0056 32.8995 78.8988 32.7208 78.7911 32.4793C78.6956 32.2645 78.6381 32.0714 78.6188 31.8998C78.5992 31.7272 78.6047 31.5806 78.6356 31.4599C78.6663 31.3418 78.7138 31.2449 78.7793 31.1686C78.8446 31.0923 78.9146 31.0375 78.9904 31.0037C79.091 30.959 79.1865 30.95 79.2766 30.9769C79.3654 31.0033 79.4305 31.06 79.4692 31.1472C79.5053 31.2281 79.5157 31.3129 79.5016 31.4012C79.4871 31.4884 79.4255 31.5569 79.3166 31.6053C79.2533 31.6335 79.1846 31.6492 79.1097 31.654C79.0353 31.6572 78.9671 31.6603 78.9041 31.6611C78.861 31.7821 78.8544 31.9067 78.8827 32.0347C78.9121 32.162 78.9499 32.2806 78.9976 32.3874C79.0418 32.4869 79.1052 32.5929 79.1865 32.7084C79.2671 32.8227 79.3652 32.9034 79.4788 32.9522V32.9522ZM45.5843 84.8876C45.2509 84.7258 45.0318 84.4791 44.9998 84.2541C44.9678 84.4791 44.7486 84.7258 44.4153 84.8876C44.6098 84.8903 44.8047 84.8918 44.9999 84.8918C45.195 84.8918 45.3898 84.8903 45.5843 84.8876ZM84.8873 44.4156C84.7255 44.7488 84.4788 44.9679 84.2538 44.9999C84.4788 45.0319 84.7255 45.2509 84.8873 45.5842C84.89 45.3898 84.8915 45.1951 84.8915 45.0001C84.8915 44.8048 84.89 44.6101 84.8873 44.4156V44.4156ZM44.4159 5.11247C44.749 5.27422 44.9679 5.52088 44.9999 5.74579C45.0318 5.52088 45.2508 5.27422 45.5839 5.11247C45.3896 5.10972 45.1949 5.10826 44.9999 5.10826C44.8049 5.10826 44.6102 5.10972 44.4159 5.11247V5.11247ZM5.74576 45.0001C5.52085 44.9682 5.27419 44.7491 5.11244 44.416C5.10969 44.6104 5.10823 44.805 5.10823 45.0001C5.10823 45.195 5.10969 45.3897 5.11244 45.5841C5.27419 45.2509 5.52085 45.0319 5.74576 45.0001ZM4.21983 45.0001C4.21983 33.7391 8.78442 23.5438 16.1641 16.1641C23.5438 8.78445 33.7389 4.21986 44.9999 4.21986C56.2608 4.21986 66.456 8.78445 73.8357 16.1641C81.2155 23.5439 85.78 33.7391 85.78 45.0001C85.78 56.261 81.2154 66.4562 73.8357 73.8359C66.456 81.2156 56.2608 85.7803 44.9999 85.7803C33.739 85.7803 23.5438 81.2156 16.1641 73.8359C8.78432 66.4561 4.21983 56.261 4.21983 45.0001ZM88.4404 45.0001C88.4404 21.0084 68.9914 1.55936 44.9999 1.55936C21.0083 1.55936 1.55933 21.0084 1.55933 45.0001C1.55933 68.9917 21.0083 88.4407 44.9999 88.4407C68.9914 88.4407 88.4404 68.9917 88.4404 45.0001Z" fill="black"/>
</g>
<defs>
<clipPath id="clip0_252_1901">
<rect width="90" height="90" fill="white"/>
</clipPath>
</defs>
</svg>
