<svg width="90" height="90" viewBox="0 0 90 90" fill="none" xmlns="http://www.w3.org/2000/svg">
<circle cx="45" cy="45" r="45" fill="black"/>
<g clip-path="url(#clip0_508_794)">
<path d="M73.9914 53.1629C73.9914 55.4501 73.9838 57.7373 73.9999 60.0245C73.9999 60.3924 73.9054 60.4709 73.5593 60.5217C72.4446 60.6927 71.64 60.3536 71.0954 59.2597C70.7919 58.6512 70.3229 58.134 69.94 57.5692C69.7688 57.3166 69.6317 57.2391 69.3878 57.5026C67.8618 59.1583 65.9103 59.9887 63.8444 60.5356C60.8841 61.3212 57.9228 61.0467 55.0117 60.2552C50.0403 58.9027 46.4389 55.7663 44.3362 50.8191C43.143 48.0118 42.7686 45.0434 42.9766 41.9806C43.2243 38.3218 44.6211 35.2457 47.167 32.7523C49.4598 30.5099 52.196 29.1346 55.2443 28.4514C59.3666 27.5286 63.3509 28.0636 67.2075 29.7979C67.5417 29.9441 67.8624 30.1225 68.1653 30.3309C68.4244 30.5139 68.5633 30.4502 68.6825 30.1877C68.8858 29.7392 69.0607 29.2758 69.3056 28.8512C69.3627 28.7652 69.4358 28.6922 69.5205 28.6367C69.6051 28.5812 69.6996 28.5442 69.7982 28.528C70.2501 28.4743 70.7105 28.5012 71.1663 28.4793C71.4329 28.4674 71.5596 28.53 71.5586 28.8602C71.5492 31.4457 71.5517 34.0312 71.5662 36.6167C71.5662 36.9289 71.4575 37.0234 71.1805 37.0144C70.6292 37.0025 70.0771 37.0025 69.5268 37.0144C69.2658 37.0204 69.1562 36.915 69.0541 36.6525C68.2031 34.3424 66.9305 32.3963 64.7445 31.2826C62.9812 30.3826 61.1025 30.1837 59.1661 30.3458C56.6615 30.5566 54.5465 31.5799 52.9392 33.6473C51.8745 35.0166 51.1919 36.5978 50.7768 38.3002C50.0564 41.2507 49.8446 44.2489 50.236 47.2709C50.6643 50.5844 51.7488 53.5955 54.1314 55.9443C56.1935 57.9799 58.6783 58.8709 61.4779 58.7287C63.8889 58.6094 65.7874 57.4827 67.0487 55.2781C67.5461 54.4068 67.8107 53.4105 67.8145 52.3942C67.8268 51.2009 67.8022 50.0076 67.8221 48.8143C67.8287 48.3877 67.6765 48.2803 67.2907 48.2892C66.2195 48.3131 65.1473 48.2813 64.0761 48.3012C63.6979 48.3081 63.5835 48.1818 63.6118 47.7851C63.6459 47.2722 63.6459 46.7575 63.6118 46.2447C63.5901 45.8658 63.7158 45.7644 64.0666 45.7664C67.1234 45.7773 70.1801 45.7664 73.2378 45.7664C73.9867 45.7664 73.9886 45.7753 73.9886 46.5937C73.9886 48.7815 73.9886 50.9692 73.9886 53.1569L73.9914 53.1629Z" fill="#CB9C6F"/>
<path d="M31.469 31.6336C31.3415 31.6078 31.2127 31.5896 31.0833 31.5789C27.4441 31.5789 23.803 31.5919 20.1657 31.5789C19.7403 31.5789 19.6296 31.7122 19.6438 32.1458C19.675 33.0835 19.6533 34.0242 19.6533 35.0186C18.9517 35.0186 18.3097 35.0316 17.6677 35.0047C17.5732 35.0047 17.4021 34.8138 17.4011 34.7064C17.385 32.6549 17.3898 30.6024 17.3898 28.5101H40.0002L24.636 57.3007C24.8582 57.3246 25.0142 57.3574 25.1806 57.3574C29.1819 57.3574 33.1845 57.3574 37.1883 57.3574C37.818 57.3574 37.8161 57.3574 37.8151 56.7041C37.8151 55.8419 37.8255 54.9797 37.8066 54.1186C37.7991 53.7914 37.9012 53.678 38.2123 53.687C38.8089 53.7039 39.4055 53.687 40.038 53.687C40.0541 53.8352 40.0796 53.9615 40.0805 54.0848C40.0805 56.0408 40.072 57.9958 40.0947 59.9519C40.1004 60.3974 39.9624 60.5028 39.5577 60.5028C33.0653 60.4915 26.573 60.4915 20.0806 60.5028C18.8354 60.5028 17.5912 60.4908 16.3469 60.4829C16.2571 60.4829 16.1682 60.47 15.9971 60.458L31.469 31.6336Z" fill="#CB9C6F"/>
</g>
<defs>
<clipPath id="clip0_508_794">
<rect width="58" height="33" fill="white" transform="translate(16 28)"/>
</clipPath>
</defs>
</svg>
