<svg width="90" height="90" viewBox="0 0 90 90" fill="none" xmlns="http://www.w3.org/2000/svg">
<circle cx="45" cy="45" r="45" fill="#F5F5F5"/>
<path d="M61.8352 39.3125H54.3693C54.233 38.3466 53.9545 37.4886 53.5341 36.7386C53.1136 35.9773 52.5739 35.3295 51.9148 34.7955C51.2557 34.2614 50.4943 33.8523 49.6307 33.5682C48.7784 33.2841 47.8523 33.142 46.8523 33.142C45.0455 33.142 43.4716 33.5909 42.1307 34.4886C40.7898 35.375 39.75 36.6705 39.0114 38.375C38.2727 40.0682 37.9034 42.125 37.9034 44.5455C37.9034 47.0341 38.2727 49.125 39.0114 50.8182C39.7614 52.5114 40.8068 53.7898 42.1477 54.6534C43.4886 55.517 45.0398 55.9489 46.8011 55.9489C47.7898 55.9489 48.7045 55.8182 49.5455 55.5568C50.3977 55.2955 51.1534 54.9148 51.8125 54.4148C52.4716 53.9034 53.017 53.2841 53.4489 52.5568C53.892 51.8295 54.1989 51 54.3693 50.0682L61.8352 50.1023C61.642 51.7045 61.1591 53.25 60.3864 54.7386C59.625 56.2159 58.5966 57.5398 57.3011 58.7102C56.017 59.8693 54.483 60.7898 52.6989 61.4716C50.9261 62.142 48.9205 62.4773 46.6818 62.4773C43.5682 62.4773 40.7841 61.7727 38.3295 60.3636C35.8864 58.9545 33.9545 56.9148 32.5341 54.2443C31.125 51.5739 30.4205 48.3409 30.4205 44.5455C30.4205 40.7386 31.1364 37.5 32.5682 34.8295C34 32.1591 35.9432 30.125 38.3977 28.7273C40.8523 27.3182 43.6136 26.6136 46.6818 26.6136C48.7045 26.6136 50.5795 26.8977 52.3068 27.4659C54.0455 28.0341 55.5852 28.8636 56.9261 29.9545C58.267 31.0341 59.358 32.358 60.1989 33.9261C61.0511 35.4943 61.5966 37.2898 61.8352 39.3125Z" fill="#E3E3E3"/>
</svg>
