<svg width="90" height="90" viewBox="0 0 90 90" fill="none" xmlns="http://www.w3.org/2000/svg">
<circle cx="45" cy="45" r="45" fill="#E2392E"/>
<path d="M25.3232 57.4794C23.4908 57.4723 21.9141 57.0213 20.593 56.1264C19.2791 55.2315 18.267 53.9354 17.5568 52.2379C16.8537 50.5405 16.5057 48.4986 16.5128 46.1122C16.5128 43.733 16.8643 41.7053 17.5675 40.0291C18.2777 38.353 19.2898 37.0781 20.6037 36.2045C21.9247 35.3239 23.4979 34.8835 25.3232 34.8835C27.1484 34.8835 28.718 35.3239 30.032 36.2045C31.353 37.0852 32.3686 38.3636 33.0788 40.0398C33.7891 41.7088 34.1406 43.733 34.1335 46.1122C34.1335 48.5057 33.7784 50.5511 33.0682 52.2486C32.3651 53.946 31.3565 55.2422 30.0426 56.1371C28.7287 57.032 27.1555 57.4794 25.3232 57.4794ZM25.3232 53.6548C26.5732 53.6548 27.571 53.0263 28.3168 51.7692C29.0625 50.5121 29.4318 48.6264 29.4247 46.1122C29.4247 44.4574 29.2543 43.0795 28.9134 41.9787C28.5795 40.8778 28.1037 40.0504 27.4858 39.4964C26.875 38.9425 26.1541 38.6655 25.3232 38.6655C24.0803 38.6655 23.0859 39.2869 22.3402 40.5298C21.5945 41.7727 21.218 43.6335 21.2109 46.1122C21.2109 47.7884 21.3778 49.1875 21.7116 50.3097C22.0526 51.4247 22.532 52.2628 23.1499 52.8239C23.7678 53.3778 24.4922 53.6548 25.3232 53.6548ZM45.9775 57.4794C44.1451 57.4723 42.5684 57.0213 41.2473 56.1264C39.9334 55.2315 38.9213 53.9354 38.2111 52.2379C37.508 50.5405 37.16 48.4986 37.1671 46.1122C37.1671 43.733 37.5186 41.7053 38.2218 40.0291C38.932 38.353 39.9441 37.0781 41.258 36.2045C42.579 35.3239 44.1522 34.8835 45.9775 34.8835C47.8027 34.8835 49.3723 35.3239 50.6863 36.2045C52.0073 37.0852 53.0229 38.3636 53.7331 40.0398C54.4434 41.7088 54.7949 43.733 54.7878 46.1122C54.7878 48.5057 54.4327 50.5511 53.7225 52.2486C53.0194 53.946 52.0108 55.2422 50.6969 56.1371C49.383 57.032 47.8098 57.4794 45.9775 57.4794ZM45.9775 53.6548C47.2275 53.6548 48.2253 53.0263 48.9711 51.7692C49.7168 50.5121 50.0861 48.6264 50.079 46.1122C50.079 44.4574 49.9086 43.0795 49.5676 41.9787C49.2338 40.8778 48.758 40.0504 48.1401 39.4964C47.5293 38.9425 46.8084 38.6655 45.9775 38.6655C44.7346 38.6655 43.7402 39.2869 42.9945 40.5298C42.2488 41.7727 41.8723 43.6335 41.8652 46.1122C41.8652 47.7884 42.0321 49.1875 42.3659 50.3097C42.7069 51.4247 43.1863 52.2628 43.8042 52.8239C44.4221 53.3778 45.1465 53.6548 45.9775 53.6548ZM66.1417 57.2983C64.5508 57.2983 63.1339 57.0249 61.891 56.478C60.6552 55.924 59.6786 55.1641 58.9613 54.1982C58.2511 53.2251 57.8853 52.103 57.864 50.8317H62.5089C62.5373 51.3643 62.7113 51.8331 63.0309 52.2379C63.3576 52.6357 63.7908 52.9446 64.3306 53.1648C64.8704 53.3849 65.4776 53.495 66.1523 53.495C66.8555 53.495 67.4769 53.3707 68.0167 53.1222C68.5565 52.8736 68.979 52.5291 69.2844 52.0888C69.5898 51.6484 69.7425 51.1406 69.7425 50.5653C69.7425 49.983 69.5792 49.468 69.2525 49.0206C68.9329 48.5661 68.4712 48.2109 67.8675 47.9553C67.271 47.6996 66.5607 47.5717 65.7369 47.5717H63.7021V44.1839H65.7369C66.4329 44.1839 67.0472 44.0632 67.5799 43.8217C68.1197 43.5803 68.5387 43.2464 68.837 42.8203C69.1353 42.3871 69.2844 41.8828 69.2844 41.3075C69.2844 40.7607 69.1531 40.2812 68.8903 39.8693C68.6346 39.4503 68.2724 39.1236 67.8036 38.8892C67.342 38.6548 66.8022 38.5376 66.1843 38.5376C65.5593 38.5376 64.9876 38.6513 64.4691 38.8786C63.9506 39.0987 63.5352 39.4148 63.2227 39.8267C62.9102 40.2386 62.7433 40.7216 62.7219 41.2756H58.3008C58.3221 40.0185 58.6808 38.9105 59.3768 37.9517C60.0728 36.9929 61.0103 36.2436 62.1893 35.7038C63.3754 35.157 64.7141 34.8835 66.2056 34.8835C67.7113 34.8835 69.0288 35.157 70.158 35.7038C71.2873 36.2507 72.1644 36.9893 72.7894 37.9197C73.4215 38.843 73.734 39.88 73.7269 41.0305C73.734 42.2521 73.354 43.2713 72.587 44.0881C71.8271 44.9048 70.8363 45.4233 69.6147 45.6435V45.8139C71.2198 46.0199 72.4414 46.5774 73.2795 47.4865C74.1246 48.3885 74.5437 49.5178 74.5366 50.8743C74.5437 52.1172 74.185 53.2216 73.4606 54.1875C72.7433 55.1534 71.7525 55.9134 70.4883 56.4673C69.2241 57.0213 67.7752 57.2983 66.1417 57.2983Z" fill="white"/>
</svg>
