<svg width="90" height="90" viewBox="0 0 90 90" fill="none" xmlns="http://www.w3.org/2000/svg">
<circle cx="45" cy="45" r="45" fill="#F5F5F5"/>
<path d="M34.0341 62V27.0909H47.8068C50.4545 27.0909 52.7102 27.5966 54.5739 28.608C56.4375 29.608 57.858 31 58.8352 32.7841C59.8239 34.5568 60.3182 36.6023 60.3182 38.9205C60.3182 41.2386 59.8182 43.2841 58.8182 45.0568C57.8182 46.8295 56.3693 48.2102 54.4716 49.1989C52.5852 50.1875 50.3011 50.6818 47.6193 50.6818H38.8409V44.767H46.4261C47.8466 44.767 49.017 44.5227 49.9375 44.0341C50.8693 43.5341 51.5625 42.8466 52.017 41.9716C52.483 41.0852 52.7159 40.0682 52.7159 38.9205C52.7159 37.7614 52.483 36.75 52.017 35.8864C51.5625 35.0114 50.8693 34.3352 49.9375 33.858C49.0057 33.3693 47.8239 33.125 46.392 33.125H41.4148V62H34.0341Z" fill="#E3E3E3"/>
</svg>
