<svg xmlns="http://www.w3.org/2000/svg" width="90" height="90" fill="none"><circle cx="45" cy="45" r="45" fill="#F5F5F5"/><path fill="#FAC411" d="M33.144 65.057H27V71.2h6.144v-6.143ZM33.144 57.475H27v6.144h6.144v-6.144Z"/><path fill="#00519D" d="M33.144 49.96H27v6.143h6.144v-6.144ZM33.144 42.378H27v6.144h6.144v-6.144ZM33.144 34.875H27v6.144h6.144v-6.144ZM38.314 28.022 33.3 31.569l3.547 5.016 5.016-3.547-3.548-5.016ZM44.423 34.6l-3.134 5.283 5.284 3.134 3.134-5.284-5.284-3.134ZM51.735 25.462l-2.322 5.688 5.688 2.322 2.322-5.687-5.688-2.323ZM63.26 34.875h-6.143v6.144h6.143v-6.144ZM40.66 42.378h-6.144v6.144h6.144v-6.144Z"/><path fill="#00519D" d="M48.163 42.378h-6.144v6.144h6.144v-6.144ZM55.678 42.378h-6.143v6.144h6.143v-6.144ZM63.26 42.378h-6.143v6.144h6.143v-6.144ZM40.66 49.96h-6.144v6.143h6.144v-6.144ZM48.163 49.96h-6.144v6.143h6.144v-6.144ZM55.678 49.96h-6.143v6.143h6.143v-6.144ZM63.26 49.96h-6.143v6.143h6.143v-6.144Z"/><path fill="#FAC411" d="M40.66 57.475h-6.144v6.144h6.144v-6.144ZM48.163 57.475h-6.144v6.144h6.144v-6.144ZM55.678 57.475h-6.143v6.144h6.143v-6.144ZM63.26 57.475h-6.143v6.144h6.143v-6.144ZM40.66 65.057h-6.144V71.2h6.144v-6.143ZM48.163 65.057h-6.144V71.2h6.144v-6.143ZM55.678 65.057h-6.143V71.2h6.143v-6.143ZM63.26 65.057h-6.143V71.2h6.143v-6.143Z"/><path fill="#00519D" d="M63.26 18h-6.143v6.143h6.143V18Z"/></svg>