<svg width="90" height="90" viewBox="0 0 90 90" fill="none" xmlns="http://www.w3.org/2000/svg">
<circle cx="45" cy="45" r="45" fill="#F5F5F5"/>
<path d="M29.4489 27.0909H36.625V38.3409C36.625 39.6818 36.858 40.7614 37.3239 41.5795C37.7898 42.3864 38.5114 42.9716 39.4886 43.3352C40.4773 43.6875 41.7443 43.8636 43.2898 43.8636C43.8352 43.8636 44.4773 43.8466 45.2159 43.8125C45.9545 43.767 46.7159 43.7045 47.5 43.625C48.2955 43.5455 49.0455 43.4489 49.75 43.3352C50.4545 43.2216 51.0398 43.0909 51.5057 42.9432V48.7727C51.0284 48.9318 50.4318 49.0739 49.7159 49.1989C49.0114 49.3125 48.267 49.4148 47.483 49.5057C46.6989 49.5852 45.9375 49.6477 45.1989 49.6932C44.4602 49.7386 43.8239 49.7614 43.2898 49.7614C40.483 49.7614 38.0398 49.3636 35.9602 48.5682C33.8807 47.7614 32.2727 46.517 31.1364 44.8352C30.0114 43.1534 29.4489 40.9886 29.4489 38.3409V27.0909ZM50.2273 27.0909H57.4375V62H50.2273V27.0909Z" fill="#E3E3E3"/>
</svg>
