<svg width="90" height="90" fill="none" xmlns="http://www.w3.org/2000/svg"><circle cx="45" cy="45" r="45" fill="#E41813"/><g opacity=".6"><g opacity=".6" fill="#E41813"><path opacity=".6" d="M19.23 34.911v6.833l6.614-4.748v38.213h6.614V30.164h-6.614l-6.613 4.747ZM45.337 30.164h-6.613v45.045h6.613V30.164Z"/></g><g opacity=".6" fill="#E01813"><path opacity=".6" d="M19.637 34.622v6.832l6.614-4.748V74.92h6.555V29.874h-6.555l-6.614 4.748ZM45.743 29.874h-6.614V74.92h6.614V29.874Z"/></g><g opacity=".6" fill="#DD1913"><path opacity=".6" d="M19.985 34.39v6.832l6.614-4.747v38.213h6.613V29.585h-6.614l-6.613 4.805ZM46.149 29.585h-6.614V74.63h6.614V29.585Z"/></g><g opacity=".6" fill="#D91913"><path opacity=".6" d="M20.39 34.1v6.833l6.614-4.748V74.4h6.614V29.353h-6.614l-6.613 4.748ZM46.497 29.353h-6.613V74.4h6.613V29.353Z"/></g><g opacity=".6" fill="#D51914"><path opacity=".6" d="M20.797 33.811v6.833l6.613-4.748v38.213h6.556V29.064H27.41l-6.613 4.747ZM46.903 29.064H40.29v45.045h6.613V29.064Z"/></g><g opacity=".6" fill="#D21A14"><path opacity=".6" d="M21.203 33.522v6.832l6.614-4.748V73.82h6.555V28.774h-6.555l-6.614 4.748ZM47.31 28.774h-6.614V73.82h6.613V28.774Z"/></g><g opacity=".6" fill="#CE1A14"><path opacity=".6" d="M21.551 33.29v6.832l6.614-4.747v38.213h6.613V28.485h-6.613L21.55 33.29ZM47.658 28.485h-6.614V73.53h6.614V28.485Z"/></g><g opacity=".6" fill="#CB1A14"><path opacity=".6" d="M21.957 33v6.833l6.614-4.748V73.3h6.614V28.253H28.57l-6.614 4.748ZM48.063 28.253H41.45V73.3h6.613V28.253Z"/></g><g opacity=".6" fill="#C81A14"><path opacity=".6" d="M22.363 32.711v6.832l6.614-4.747v38.213h6.555V27.964h-6.555l-6.614 4.747ZM48.47 27.964h-6.614v45.045h6.613V27.964Z"/></g><g opacity=".6" fill="#C41A14"><path opacity=".6" d="M22.77 32.422v6.832l6.555-4.748V72.72h6.613V27.674h-6.613l-6.556 4.748ZM48.876 27.674h-6.614V72.72h6.614V27.674Z"/></g><g opacity=".6" fill="#C11A14"><path opacity=".6" d="M23.117 32.132v6.832l6.614-4.69v38.214h6.614V27.385H29.73l-6.614 4.747ZM49.223 27.385H42.61V72.43h6.613V27.385Z"/></g><g opacity=".6" fill="#BD1A14"><path opacity=".6" d="M23.524 31.9v6.833l6.613-4.748v38.213h6.614V27.153h-6.613l-6.614 4.748ZM49.63 27.153h-6.614v45.045h6.614V27.153Z"/></g><g opacity=".6" fill="#BA1A14"><path opacity=".6" d="M23.93 31.611v6.832l6.613-4.747v38.213h6.555V26.863h-6.555l-6.614 4.748ZM50.036 26.863h-6.614V71.91h6.614V26.863Z"/></g><g opacity=".6" fill="#B71A14"><path opacity=".6" d="M24.336 31.322v6.832l6.555-4.748V71.62h6.614V26.574H30.89l-6.555 4.748ZM50.442 26.574h-6.614V71.62h6.614V26.574Z"/></g><g opacity=".6" fill="#B41A14"><path opacity=".6" d="M24.684 31.032v6.832l6.613-4.69v38.214h6.614V26.284h-6.614l-6.613 4.748ZM50.79 26.285h-6.614V71.33h6.614V26.285Z"/></g><g opacity=".6" fill="#B01A14"><path opacity=".6" d="M25.09 30.8v6.833l6.614-4.748v38.213h6.613V26.053h-6.613L25.09 30.8ZM51.197 26.053h-6.614v45.045h6.614V26.053Z"/></g><g opacity=".6" fill="#AD1A14"><path opacity=".6" d="M25.496 30.511v6.832l6.614-4.748V70.81h6.556V25.763H32.11l-6.614 4.748ZM51.602 25.763H44.99V70.81h6.613V25.763Z"/></g><g opacity=".6" fill="#AA1A14"><path opacity=".6" d="M25.902 30.222v6.832l6.555-4.748v38.213h6.614V25.474h-6.614l-6.555 4.748ZM52.009 25.474h-6.614v45.045h6.614V25.474Z"/></g><g opacity=".6" fill="#A71A14"><path opacity=".6" d="M26.25 29.932v6.832l6.614-4.69v38.214h6.613V25.184h-6.613l-6.614 4.748ZM52.356 25.184h-6.614V70.23h6.614V25.184Z"/></g><g opacity=".6" fill="#A31A14"><path opacity=".6" d="M26.657 29.7v6.833l6.613-4.748v38.213h6.614V24.953H33.27L26.656 29.7ZM52.762 24.953H46.15v45.045h6.613V24.953Z"/></g><g opacity=".6" fill="#A01A14"><path opacity=".6" d="M27.063 29.411v6.832l6.613-4.748V69.71h6.556V24.663h-6.556l-6.614 4.748ZM53.169 24.663h-6.614V69.71h6.614V24.663Z"/></g><g opacity=".6" fill="#9D1914"><path opacity=".6" d="M27.468 29.122v6.832l6.556-4.748v38.213h6.613V24.374h-6.613l-6.556 4.748ZM53.574 24.374h-6.613v45.045h6.613V24.374Z"/></g><g opacity=".6" fill="#9A1913"><path opacity=".6" d="M27.816 28.832v6.832l6.614-4.748v38.272h6.614V24.084H34.43l-6.614 4.748ZM53.923 24.084H47.31V69.13h6.613V24.084Z"/></g><g opacity=".6" fill="#971913"><path opacity=".6" d="M28.223 28.6v6.833l6.613-4.748v38.213h6.614V23.853h-6.614L28.223 28.6ZM54.33 23.853h-6.614v45.045h6.613V23.853Z"/></g><g opacity=".6" fill="#941913"><path opacity=".6" d="M28.629 28.311v6.832l6.613-4.748V68.61h6.556V23.563h-6.556l-6.613 4.748ZM54.735 23.563H48.12V68.61h6.614V23.563Z"/></g><g opacity=".6" fill="#911913"><path opacity=".6" d="M28.977 28.021v6.833l6.614-4.748v38.213h6.613V23.274h-6.613l-6.614 4.747ZM55.083 23.274H48.47v45.045h6.614V23.274Z"/></g><g opacity=".6" fill="#8E1913"><path opacity=".6" d="M29.383 27.732v6.832l6.613-4.748v38.272h6.614V22.984h-6.614l-6.613 4.748ZM55.489 22.984h-6.614V68.03h6.614V22.984Z"/></g></g><path d="M29.964 26.863v6.948l6.613-4.805v38.966h6.614V22h-6.614l-6.613 4.863ZM56.07 22h-6.614v45.972h6.614V22Z" fill="#fff"/></svg>