<svg width="90" height="90" viewBox="0 0 90 90" fill="none" xmlns="http://www.w3.org/2000/svg">
<circle cx="45" cy="45" r="45" fill="#F5F5F5"/>
<path d="M44.733 62.4773C42.1875 62.4773 39.9205 62.0398 37.9318 61.1648C35.9545 60.2784 34.392 59.0625 33.2443 57.517C32.108 55.9602 31.5227 54.1648 31.4886 52.1307H38.9205C38.9659 52.983 39.2443 53.733 39.7557 54.3807C40.2784 55.017 40.9716 55.5114 41.8352 55.8636C42.6989 56.2159 43.6705 56.392 44.75 56.392C45.875 56.392 46.8693 56.1932 47.733 55.7955C48.5966 55.3977 49.2727 54.8466 49.7614 54.142C50.25 53.4375 50.4943 52.625 50.4943 51.7045C50.4943 50.7727 50.233 49.9489 49.7102 49.233C49.1989 48.5057 48.4602 47.9375 47.4943 47.5284C46.5398 47.1193 45.4034 46.9148 44.0852 46.9148H40.8295V41.4943H44.0852C45.1989 41.4943 46.1818 41.3011 47.0341 40.9148C47.8977 40.5284 48.5682 39.9943 49.0455 39.3125C49.5227 38.6193 49.7614 37.8125 49.7614 36.892C49.7614 36.017 49.5511 35.25 49.1307 34.5909C48.7216 33.9205 48.142 33.3977 47.392 33.0227C46.6534 32.6477 45.7898 32.4602 44.8011 32.4602C43.8011 32.4602 42.8864 32.642 42.0568 33.0057C41.2273 33.358 40.5625 33.8636 40.0625 34.5227C39.5625 35.1818 39.2955 35.9545 39.2614 36.8409H32.1875C32.2216 34.8295 32.7955 33.0568 33.9091 31.5227C35.0227 29.9886 36.5227 28.7898 38.4091 27.9261C40.3068 27.0511 42.4489 26.6136 44.8352 26.6136C47.2443 26.6136 49.3523 27.0511 51.1591 27.9261C52.9659 28.8011 54.3693 29.983 55.3693 31.4716C56.3807 32.9489 56.8807 34.608 56.8693 36.4489C56.8807 38.4034 56.2727 40.0341 55.0455 41.3409C53.8295 42.6477 52.2443 43.4773 50.2898 43.8295V44.1023C52.858 44.4318 54.8125 45.3239 56.1534 46.7784C57.5057 48.2216 58.1761 50.0284 58.1648 52.1989C58.1761 54.1875 57.6023 55.9545 56.4432 57.5C55.2955 59.0455 53.7102 60.2614 51.6875 61.1477C49.6648 62.0341 47.3466 62.4773 44.733 62.4773Z" fill="#E3E3E3"/>
</svg>
