<svg xmlns="http://www.w3.org/2000/svg" width="90" height="90" fill="none"><circle cx="45" cy="45" r="45" fill="#F5F5F5"/><g clip-path="url(#a)"><path fill="url(#b)" fill-rule="evenodd" d="M20.03 35.09a3.538 3.538 0 0 1 2.354-1.085 3.517 3.517 0 0 1 2.452.823l14.87 12.477 5.712-10.818a3.69 3.69 0 0 1 .82-1.041 3.537 3.537 0 0 1 2.355-1.087 3.515 3.515 0 0 1 2.452.823l14.913 12.505L71.283 37.6a3.601 3.601 0 0 1 2.125-1.778 3.478 3.478 0 0 1 2.724.291c.413.23.778.542 1.074.918.297.375.518.807.652 1.271a3.79 3.79 0 0 1-.282 2.805l-7.373 13.965c-.267.476-.63.887-1.067 1.205a3.63 3.63 0 0 1-1.459.633c-.525.1-1.065.08-1.582-.056-.517-.136-1-.387-1.414-.734l-14.89-12.495-5.857 11.096a3.664 3.664 0 0 1-1.088 1.253c-.452.327-.97.541-1.515.628a3.491 3.491 0 0 1-1.628-.128 3.568 3.568 0 0 1-1.405-.857L23.587 43.272l-5.861 11.096a3.601 3.601 0 0 1-2.126 1.778c-.91.279-1.89.174-2.724-.29a3.664 3.664 0 0 1-1.726-2.19 3.784 3.784 0 0 1 .282-2.805l7.777-14.728c.21-.396.487-.75.82-1.043Z" clip-rule="evenodd"/></g><defs><linearGradient id="b" x1="13.873" x2="81.391" y1="52.138" y2="38.479" gradientUnits="userSpaceOnUse"><stop offset=".01" stop-color="#E6D805"/><stop offset="1" stop-color="#11A635"/></linearGradient><clipPath id="a"><path fill="#fff" d="M11 34h67v23H11z"/></clipPath></defs></svg>