<svg width="90" height="90" fill="none" xmlns="http://www.w3.org/2000/svg"><g clip-path="url(#a)"><path d="M45.04 90c24.853 0 45-20.147 45-45s-20.147-45-45-45-45 20.147-45 45 20.147 45 45 45Z" fill="#F5F5F5"/><path d="M28.19 61.92v2.99h-1.07v-6.46h1.07v2.73h.26L31 58.45h1.29l-2.92 3.1v-.11l2.99 3.43h-1.37l-2.58-2.99h-.22v.04ZM33.36 58.45h1.07v1.11h.04c.15-.26.3-.48.52-.66.22-.18.44-.33.7-.41.26-.11.55-.15.85-.15.55 0 1.03.15 1.44.41.41.26.74.66.96 1.18.22.52.33 1.11.33 1.77 0 .66-.11 1.25-.33 1.77-.22.52-.55.89-.96 1.14-.41.26-.89.41-1.4.41-.3 0-.59-.04-.85-.15-.26-.11-.48-.22-.7-.41-.22-.18-.37-.41-.52-.63h-.04v3.25H33.4v-8.63h-.04Zm3.91 5.31c.26-.18.48-.48.63-.81.15-.37.22-.77.22-1.25s-.07-.92-.22-1.29-.37-.63-.63-.81c-.26-.18-.59-.3-1-.3-.37 0-.7.11-.96.3-.3.18-.52.48-.66.85-.15.37-.22.77-.22 1.25s.07.89.26 1.25c.15.37.37.63.66.85.3.18.59.3.96.3.33-.04.66-.15.96-.33v-.01ZM41.55 64.61c-.44-.26-.77-.66-1.03-1.14-.22-.48-.37-1.07-.37-1.77 0-.66.11-1.25.37-1.77s.59-.89 1-1.18c.44-.3.96-.41 1.51-.41.59 0 1.11.15 1.51.41.4.26.74.66.96 1.14.22.48.33 1.07.33 1.7V62h-5.17v-.85h4.65l-.55.77v-.41c0-.52-.07-.92-.22-1.25-.15-.33-.37-.55-.63-.74-.26-.15-.55-.22-.92-.22s-.66.07-.92.26c-.26.18-.48.41-.63.74-.15.33-.22.74-.22 1.22v.41c0 .44.07.85.22 1.18.15.33.37.55.66.74.3.18.63.26 1 .26.26 0 .52-.04.74-.11.22-.07.41-.18.55-.33.15-.15.26-.3.3-.48l.04-.07h1.07v.07c-.04.26-.15.52-.3.74-.15.22-.33.44-.59.63-.22.18-.52.3-.81.41-.3.11-.63.15-.96.15-.63-.07-1.14-.22-1.59-.48v-.03ZM46.38 66.64v-2.66h.55c.22-.15.41-.41.52-.77.11-.37.18-.77.22-1.18l.26-3.58h4.43v5.53h1.03v2.66h-1v-1.77h-5.02v1.77h-.99Zm4.91-7.31h-2.4l-.18 2.69c-.04.41-.07.77-.18 1.11-.11.33-.22.59-.37.81v.04h3.14v-4.65h-.01ZM54.39 58.45h1.07v4.8h.52l-.74.41 3.47-5.17h1.07v6.46h-1.07v-4.8h-.52l.74-.41-3.47 5.17h-1.07v-6.46ZM66.05 59.34h-2.07v5.53h-1.07v-5.53h-2.07v-.89h5.2v.89h.01Z" fill="#020203"/><path d="M27.68 23.4h1.22v17.56h4.28v1.59H28.9v3.99c0 .33.15.63.41.85.41.3.85.44 1.37.44h1.59v1.4H21.98v-1.4h1.92c.63 0 1.11-.15 1.4-.41.3-.26.44-.66.44-1.18v-3.62H15.26v-1.77L27.69 23.4h-.01Zm-1.92 5.02-8.97 12.55h8.97V28.42ZM50.3 35.83c-.81 1.22-1.73 2.14-2.8 2.73-1.07.63-2.29.92-3.62.92-1.84 0-3.54-.66-5.06-1.96-1.51-1.29-2.29-3.21-2.29-5.76s.85-4.58 2.51-6.27c1.66-1.73 3.69-2.58 6.01-2.58 2.55 0 4.69 1.07 6.38 3.21 1.7 2.14 2.55 5.13 2.55 8.97 0 3.21-.48 5.9-1.4 8.08-.96 2.21-2.21 3.84-3.76 4.91-1.55 1.07-3.32 1.62-5.28 1.62-1.96 0-3.36-.41-4.43-1.25-1.07-.85-1.59-1.84-1.59-2.99 0-.77.22-1.4.66-1.84.44-.44 1-.7 1.66-.7.59 0 1.11.22 1.55.63.41.41.63.89.63 1.48 0 .41-.18.85-.59 1.37-.26.3-.37.59-.37.81 0 .33.22.66.63.89.41.26 1.07.37 1.96.37a5.7 5.7 0 0 0 3.39-1.07c.96-.7 1.77-1.88 2.36-3.51.59-1.62.92-3.73.92-6.31l-.04-1.73.02-.02Zm-5.2-11.59c-1.4 0-2.51.59-3.39 1.73-.89 1.14-1.33 2.92-1.33 5.24 0 2.14.44 3.73 1.33 4.76.89 1.03 2.07 1.59 3.51 1.59s2.62-.55 3.58-1.7c.96-1.14 1.44-2.69 1.44-4.72s-.52-3.76-1.51-5.02c-1-1.25-2.21-1.88-3.62-1.88h-.01ZM60.59 22.92c3.14.7 5.68 1.07 7.67 1.07.92 0 1.81-.07 2.62-.26.81-.18 1.44-.37 1.84-.63.22-.11.33-.18.41-.18.11 0 .18.11.18.3 0 .44-.3 1-.85 1.73-.55.7-1.33 1.29-2.29 1.7-.96.41-2.07.63-3.32.63-1.44 0-3.17-.22-5.17-.66l-.59 7.08c.92-.48 1.84-.81 2.69-1.07.85-.22 1.66-.37 2.44-.37 2.44 0 4.46.81 6.13 2.4 1.66 1.62 2.47 3.62 2.47 5.98 0 2.62-.89 4.8-2.62 6.49-1.77 1.7-4.02 2.55-6.83 2.55-2.14 0-3.87-.63-5.2-1.84-1.33-1.22-2.03-2.66-2.03-4.35 0-1.03.22-1.81.63-2.36.44-.55.96-.81 1.62-.81.66 0 1.18.22 1.59.66.41.44.63 1 .63 1.73 0 .52-.11.96-.3 1.25-.22.3-.59.55-1.11.74-.55.22-.81.44-.81.74 0 .41.18.85.55 1.33.37.48.92.85 1.66 1.18.74.3 1.59.44 2.58.44 1.88 0 3.32-.59 4.32-1.77 1-1.18 1.48-3.1 1.48-5.76 0-2.4-.52-4.17-1.59-5.31-1.03-1.11-2.4-1.66-4.02-1.66-.74 0-1.48.15-2.21.41-.74.26-1.48.66-2.21 1.22-.07.85-.26 1.44-.48 1.73-.22.3-.52.44-.85.44-.26 0-.44-.07-.59-.26-.15-.18-.22-.41-.22-.74 0-.55.26-1.07.77-1.62.15-.15.26-.3.33-.44l.44-5.46c.15-2.1.22-4.21.22-6.24h.02v-.01Z" fill="#921C32"/></g><defs><clipPath id="a"><path fill="#fff" d="M0 0h90v90H0z"/></clipPath></defs></svg>