<svg width="90" height="90" fill="none" xmlns="http://www.w3.org/2000/svg"><g clip-path="url(#a)"><circle cx="45" cy="45" r="45" fill="#F7F7F7"/><g clip-path="url(#b)" fill-rule="evenodd" clip-rule="evenodd"><path d="M45.16 14.351a8.219 8.219 0 0 0-6.588 3.398 48.717 48.717 0 0 0-4.087 6.566l-.298.551c-3.237 5.855-11.709 20.662-15.543 27.55a8.54 8.54 0 0 0 .942 9.918 8.035 8.035 0 0 0 10.308 1.216l8.586-5.005c2.594-1.492 4.913-2.823 6.68-3.88l6.727 3.835 8.701 5.05a8.013 8.013 0 0 0 10.286-1.216 8.494 8.494 0 0 0 .94-10.01c-3.833-6.727-12.305-21.603-15.542-27.55l-.298-.528a43.624 43.624 0 0 0-4.087-6.497 8.265 8.265 0 0 0-6.726-3.397Z" fill="#FF3A1F"/><path d="M45.16 14.351a8.219 8.219 0 0 0-6.588 3.398 48.717 48.717 0 0 0-4.087 6.566l-.298.551c-3.237 5.855-11.709 20.662-15.543 27.55a8.54 8.54 0 0 0 .942 9.918A8.012 8.012 0 0 0 29.87 63.55l33.61-19.353 2.663-1.584-.918-1.63c-.184-.368-.39-.689-.597-1.056l-.666-1.194A884.054 884.054 0 0 1 55.86 24.36a43.63 43.63 0 0 0-3.972-6.612 8.265 8.265 0 0 0-6.726-3.397Z" fill="#293346"/></g></g><defs><clipPath id="a"><path fill="#fff" d="M0 0h90v90H0z"/></clipPath><clipPath id="b"><path fill="#fff" transform="translate(17.45 14.351)" d="M0 0h55.444v50.508H0z"/></clipPath></defs></svg>