<svg width="90" height="90" viewBox="0 0 90 90" fill="none" xmlns="http://www.w3.org/2000/svg">
<g clip-path="url(#clip0_3056_222)">
<circle cx="45" cy="45" r="45" fill="#F5F5F5"/>
<path fill-rule="evenodd" clip-rule="evenodd" d="M60.105 43.19L65.4304 48.3146C68.1046 46.3183 70.4999 43.9734 72.5525 41.3422L67.2271 36.2195C65.1731 38.8483 62.7787 41.1923 60.1069 43.19H60.105Z" fill="#524995"/>
<path fill-rule="evenodd" clip-rule="evenodd" d="M31.9185 68.8736L37.2439 74.0001C37.2439 74.0001 38.2124 70.1869 41.7109 65.4679L36.3854 60.3453C32.8907 65.0643 31.9185 68.8736 31.9185 68.8736Z" fill="#3378BC"/>
<path fill-rule="evenodd" clip-rule="evenodd" d="M52.0461 47.9622C51.7618 48.0929 51.4965 48.2275 51.2217 48.3602L56.5452 53.4885C56.8181 53.354 57.0892 53.2213 57.3678 53.0905C60.2674 51.762 62.7539 50.2629 64.903 48.7013L59.5756 43.5767C57.2176 45.2855 54.6953 46.7552 52.0461 47.9641V47.9622Z" fill="#4F6BB0"/>
<path fill-rule="evenodd" clip-rule="evenodd" d="M36.7802 59.8241L42.1038 64.9486C43.8632 62.6744 45.8798 60.6113 48.1134 58.8007L42.7917 53.6761C40.5548 55.4844 38.5386 57.5477 36.7802 59.8241Z" fill="#91D0F3"/>
<path fill-rule="evenodd" clip-rule="evenodd" d="M43.3037 53.2744L48.6292 58.3989C50.8985 56.6177 53.3433 55.0722 55.9256 53.7861L50.6002 48.6615C48.0165 49.9453 45.5715 51.491 43.3037 53.2744Z" fill="#5494CF"/>
<path fill-rule="evenodd" clip-rule="evenodd" d="M34.938 45.2199L40.2634 50.3482C42.5338 48.5685 44.9784 47.023 47.5599 45.7353L42.2344 40.6108C39.6535 41.8986 37.209 43.4434 34.938 45.2218V45.2199Z" fill="#E4E4E4"/>
<path fill-rule="evenodd" clip-rule="evenodd" d="M28.4126 51.7733L33.7381 56.8998C35.4958 54.6229 37.5133 52.559 39.7496 50.7499L34.4241 45.6273C32.1885 47.4357 30.1711 49.4982 28.4126 51.7733Z" fill="#E9E9E9"/>
<path fill-rule="evenodd" clip-rule="evenodd" d="M51.7412 35.1374L57.0667 40.262C59.7385 38.2657 62.1323 35.9222 64.185 33.2934L58.8633 28.1669C56.8089 30.796 54.4138 33.14 51.7412 35.1374Z" fill="#C7C7C6"/>
<path fill-rule="evenodd" clip-rule="evenodd" d="M28.0235 52.2926C24.525 57.0116 23.5547 60.8209 23.5547 60.8209L28.8801 65.9436C28.8801 65.9436 29.8505 62.1381 33.3471 57.4172L28.0216 52.2926H28.0235Z" fill="#E2E2E2"/>
<path fill-rule="evenodd" clip-rule="evenodd" d="M43.6827 39.9133C43.3984 40.0422 43.1293 40.1786 42.8545 40.3094L48.1818 45.4378C48.4566 45.3013 48.7258 45.1668 49.0063 45.0398C51.6567 43.8294 54.1802 42.3584 56.5396 40.6487L51.2141 35.5222C48.8549 37.2321 46.3332 38.7031 43.6827 39.9133ZM64.5808 32.7723C68.1476 28.0002 69.135 24.1265 69.135 24.1265L63.8095 19C63.8095 19 62.8202 22.8775 59.2573 27.6477L64.5827 32.7723H64.5808Z" fill="#D8D9DA"/>
<path fill-rule="evenodd" clip-rule="evenodd" d="M40.453 36.8034C43.103 35.595 45.6254 34.1246 47.9826 32.4141L42.6571 27.2896C40.2993 28.9996 37.777 30.4706 35.1276 31.6807C34.8452 31.8096 34.578 31.9441 34.3013 32.0787L39.6267 37.2013C39.9015 37.0706 40.1706 36.936 40.4511 36.8034H40.453Z" fill="#CC3132"/>
<path fill-rule="evenodd" clip-rule="evenodd" d="M31.1968 42.5154L25.8714 37.3908C23.6362 39.2011 21.6188 41.2649 19.8599 43.5407L25.1853 48.6671C26.9444 46.3909 28.9617 44.3265 31.1968 42.5154Z" fill="#EA676A"/>
<path fill-rule="evenodd" clip-rule="evenodd" d="M24.7924 49.1844L19.4669 44.058C15.976 48.777 15 52.5882 15 52.5882L20.3255 57.7128C20.3255 57.7128 21.2977 53.9072 24.7924 49.1844Z" fill="#E32E30"/>
<path fill-rule="evenodd" clip-rule="evenodd" d="M39.0109 37.5008L33.6836 32.3743C31.1016 33.6613 28.6563 35.2061 26.3853 36.9853L31.7107 42.1137C33.9818 40.333 36.4278 38.7875 39.0109 37.5008Z" fill="#E53D3F"/>
<path fill-rule="evenodd" clip-rule="evenodd" d="M55.6327 25.0589L50.3111 19.9324C48.2574 22.5633 45.8623 24.9087 43.189 26.9067L48.5144 32.0332C51.1871 30.035 53.5796 27.6896 55.6327 25.0589Z" fill="#A03331"/>
</g>
<defs>
<clipPath id="clip0_3056_222">
<rect width="90" height="90" fill="white"/>
</clipPath>
</defs>
</svg>
