<svg width="90" height="90" fill="none" xmlns="http://www.w3.org/2000/svg"><circle cx="45" cy="45" r="45" fill="#FFE7E7"/><path fill-rule="evenodd" clip-rule="evenodd" d="M25.283 37.89h1.904v15.744h-1.904V37.89ZM18.484 37.89h-1.77L11 53.633h1.904l1.375-3.778h6.646l1.371 3.778h1.905L18.488 37.89h-.004Zm-3.52 10.076 2.638-7.264 2.637 7.264h-5.275Z" fill="#F90"/><path fill-rule="evenodd" clip-rule="evenodd" d="M43.692 37.89 35.57 51.744h7.487v1.89H32.266l8.125-13.856h-7.49v-1.89h10.791Z" fill="#E62E04"/><path fill-rule="evenodd" clip-rule="evenodd" d="M29.092 42.298h1.904v11.336h-1.904V42.298ZM30.044 36c0 .752.301 1.472.837 2.004.535.532 1.262.83 2.02.83-.758 0-1.485.299-2.02.83a2.823 2.823 0 0 0-.837 2.004c0-.752-.301-1.472-.837-2.004a2.868 2.868 0 0 0-2.02-.83c.758 0 1.485-.299 2.02-.83A2.823 2.823 0 0 0 30.044 36Z" fill="#F90"/><path fill-rule="evenodd" clip-rule="evenodd" d="M57.658 36c0 .752.3 1.472.837 2.004.535.532 1.262.83 2.02.83-.758 0-1.485.299-2.02.83a2.823 2.823 0 0 0-.837 2.004c0-.752-.301-1.472-.837-2.004a2.868 2.868 0 0 0-2.02-.83c.758 0 1.484-.299 2.02-.83A2.823 2.823 0 0 0 57.658 36Z" fill="#E62E04"/><path d="M48.907 42.03a5.984 5.984 0 0 1 3.99 1.527v-1.26H54.8v11.337h-1.904v-1.26a6.005 6.005 0 0 1-4.154 1.513 6 6 0 0 1-4.064-1.736 5.883 5.883 0 0 1 0-8.389 5.968 5.968 0 0 1 1.94-1.284 6.006 6.006 0 0 1 2.288-.448Zm3.99 6.147v-.419a3.942 3.942 0 0 0-.756-2.124 3.99 3.99 0 0 0-1.801-1.371 4.022 4.022 0 0 0-4.258.9 3.952 3.952 0 0 0-1.168 2.803c0 1.051.42 2.059 1.168 2.803a4.025 4.025 0 0 0 2.825 1.155 4.025 4.025 0 0 0 2.825-1.155 3.925 3.925 0 0 0 1.165-2.592ZM68.573 43.756c1.083-1.622 2.81-1.726 3.546-1.726 3.256 0 3.621 2.721 3.63 4.343v7.261h-1.904v-6.88c0-1.285-.193-2.752-2.022-2.752-2.221 0-2.739 1.958-2.739 3.325v6.307H67.18v-6.88c0-1.285-.194-2.752-2.022-2.752-2.222 0-2.74 1.958-2.74 3.325v6.307h-1.904V42.298h1.905v.838a4.263 4.263 0 0 1 3.034-1.106c1.727 0 2.64.765 3.12 1.726Z" fill="#E62E04"/><path fill-rule="evenodd" clip-rule="evenodd" d="M56.706 42.298h1.904v11.336h-1.904V42.298Z" fill="#E62E04"/><path d="M78 41.11h-.317v-1.363l-.635 1.364h-.168l-.616-1.364v1.364h-.292v-1.89h.365l.635 1.418.657-1.418h.361l.01 1.89Zm-2.282-1.608h-.603v1.609h-.318V39.5h-.59v-.28h1.514l-.003.28Z" fill="#E62E04"/></svg>