<?xml version="1.0" encoding="UTF-8"?><svg id="a" xmlns="http://www.w3.org/2000/svg" xmlns:xlink="http://www.w3.org/1999/xlink" viewBox="0 0 90 90"><defs><style>.c{fill:#f5f5f5;}.d{fill:url(#b);}</style><linearGradient id="b" x1="45" y1="71.03" x2="45" y2="10.34" gradientTransform="matrix(1, 0, 0, 1, 0, 0)" gradientUnits="userSpaceOnUse"><stop offset="0" stop-color="#642780"/><stop offset=".33" stop-color="#542975"/><stop offset=".94" stop-color="#2d305b"/></linearGradient></defs><rect class="c" x="0" y="0" width="90" height="90" rx="45" ry="45"/><path class="d" d="M77.25,59.35L51.74,15.17c-1.34-2.31-3.82-3.75-6.49-3.75-.04,0-.08,0-.12,.01h-.08s-.08-.01-.12,0c-1.2,.05-2.38,.39-3.43,1-.01,0-.01,.01-.02,.01h0c-1.72,1-2.95,2.61-3.47,4.54-.44,1.67-.31,3.41,.39,4.97,.11,.24,.23,.48,.36,.71l4.22,7.31,2.03,3.51,7.52,13.03h-19.09l-2.02,3.5-4.62,7.99-2.02,3.5-2.07,3.59c-.74,1.28-2.09,2-3.46,2-.68,0-1.37-.17-2-.54-1.28-.74-1.99-2.08-1.99-3.46,0-.67,.17-1.36,.53-1.99l.26-.45,1.75-3.03,4.39-7.61,2.03-3.5,11.83-20.49-2.02-3.5-13.86,23.99-2.19,3.81-2.44,4.22-2.18,3.76-.6,1.05c-1,1.73-1.26,3.75-.75,5.69,.52,1.93,1.76,3.54,3.49,4.54,1.14,.66,2.44,1.01,3.75,1.01,2.67,0,5.15-1.44,6.49-3.75l3.08-5.34,2.02-3.5,4.62-7.99h23.13l-2.02-3.5-9.54-16.53-2.03-3.51-3.21-5.56c-1.1-1.9-.45-4.33,1.44-5.43,.01-.01,.01-.02,.02-.02,.56-.33,1.16-.5,1.76-.53,.08-.01,.16-.01,.24-.01,.34,0,.68,.05,1.01,.13,.17,.05,.33,.1,.49,.17,.09,.03,.17,.07,.25,.11,.09,.04,.17,.09,.26,.13h0c.14,.09,.29,.18,.42,.29,.13,.09,.25,.2,.37,.32,.13,.12,.24,.25,.36,.4,.11,.14,.21,.29,.3,.45l2.89,5.01,22.61,39.17c1.11,1.91,.45,4.35-1.46,5.45-.62,.37-1.31,.54-1.99,.54-1.38,0-2.72-.72-3.46-2l-2.07-3.59-1.7-2.94-.32-.56h-27.79l-2.02,3.5h27.79l3.08,5.34c1.33,2.31,3.82,3.75,6.49,3.75,1.31,0,2.61-.35,3.74-1.01,1.74-1,2.98-2.61,3.49-4.54,.52-1.94,.26-3.96-.74-5.69Z"/></svg>