<svg width="90" height="90" fill="none" xmlns="http://www.w3.org/2000/svg"><circle cx="45" cy="45" r="45" fill="#F5F8FD"/><path d="M34.053 20.488A27.398 27.398 0 0 1 45.5 18C60.688 18 73 30.312 73 45.5S60.688 73 45.5 73 18 60.688 18 45.5a27.372 27.372 0 0 1 4.025-14.332" stroke="url(#a)" stroke-width="2.152" stroke-linecap="round" stroke-linejoin="round"/><path d="M65.808 50.376c.374-1.564.572-3.197.572-4.876 0-11.532-9.348-20.88-20.88-20.88-11.532 0-20.88 9.348-20.88 20.88 0 11.532 9.348 20.88 20.88 20.88 3.88 0 7.511-1.057 10.624-2.9" stroke="url(#b)" stroke-width="2.152" stroke-linecap="round" stroke-linejoin="round"/><path d="M31.72 49.88a14.45 14.45 0 0 1-.676-4.38c0-7.984 6.472-14.456 14.456-14.456 7.983 0 14.456 6.472 14.456 14.456 0 7.983-6.473 14.456-14.456 14.456-1.91 0-3.735-.371-5.404-1.044" stroke="url(#c)" stroke-width="2.152" stroke-linecap="round" stroke-linejoin="round"/><path d="M40.623 54.31v-2.524h-1.889v-2.288h1.89v-1.84h-1.89v-2.924h1.89v-7.265h5.383c2.173 0 3.755.44 4.747 1.32 1.007.881 1.511 2.092 1.511 3.633 0 .912-.205 1.77-.614 2.571-.41.802-1.094 1.447-2.054 1.934-.945.488-2.236.731-3.873.731H44.19v1.84h3.637v2.288h-3.637v2.524h-3.566Zm4.747-9.576c1.007 0 1.802-.173 2.385-.52.598-.345.897-.904.897-1.674 0-1.43-.944-2.146-2.834-2.146H44.19v4.34h1.18Z" fill="#000"/><defs><linearGradient id="a" x1="45.5" y1="18" x2="68.814" y2="65.553" gradientUnits="userSpaceOnUse"><stop stop-color="#06F7F7"/><stop offset="1" stop-color="#007EFE"/></linearGradient><linearGradient id="b" x1="45.5" y1="24.62" x2="66.38" y2="66.381" gradientUnits="userSpaceOnUse"><stop stop-color="#06F7F7"/><stop offset="1" stop-color="#007EFE"/></linearGradient><linearGradient id="c" x1="45.5" y1="31.044" x2="59.956" y2="49.491" gradientUnits="userSpaceOnUse"><stop stop-color="#06F7F7"/><stop offset="1" stop-color="#007EFE"/></linearGradient></defs></svg>