<svg width="90" height="90" fill="none" xmlns="http://www.w3.org/2000/svg"><circle cx="45" cy="45" r="45" fill="#F6F6F6"/><g clip-path="url(#a)"><path d="m64.772 24.655-18.25-11.272a2.568 2.568 0 0 0-2.68-.01L25.245 24.659A2.602 2.602 0 0 0 24 26.879v21.186a2.605 2.605 0 0 0 1.309 2.257l18.596 10.577a2.567 2.567 0 0 0 2.555-.01l18.248-10.564A2.586 2.586 0 0 0 66 48.078V26.865a2.605 2.605 0 0 0-1.228-2.21Zm-9.457 17.352a2.11 2.11 0 0 1-1.05 1.822l-8.14 4.715a2.08 2.08 0 0 1-2.072.009l-8.307-4.725a2.096 2.096 0 0 1-1.06-1.83v-9.455a2.11 2.11 0 0 1 1.01-1.801L44 25.702a2.084 2.084 0 0 1 2.174.009l8.143 5.031a2.098 2.098 0 0 1 .997 1.79v9.475Z" fill="#D9328A"/><path d="m43.487 76.56-18.64-10.636a.775.775 0 0 1-.391-.684.781.781 0 0 1 .407-.676l8.744-4.715a2.23 2.23 0 0 1 2.147.016l8.454 4.735a1.621 1.621 0 0 0 1.584 0l8.446-4.73a2.23 2.23 0 0 1 2.162-.011l8.408 4.596a.773.773 0 0 1 .403.667.78.78 0 0 1-.377.683L46.866 76.528a3.35 3.35 0 0 1-3.379.032Z" fill="#56AE58"/></g><defs><clipPath id="a"><path fill="#fff" transform="translate(24 13)" d="M0 0h42v64H0z"/></clipPath></defs></svg>