<?xml version="1.0" encoding="UTF-8"?><svg id="a" xmlns="http://www.w3.org/2000/svg" viewBox="0 0 90 90"><defs><style>.b{fill:#f5f5f5;}.c{fill:#c30000;}</style></defs><rect class="b" x="0" y="0" width="90" height="90" rx="45" ry="45"/><g><path class="c" d="M9.84,45.52h3.83c.44,0,.74,.1,.9,.31,.17,.21,.26,.47,.25,.74,0,.29-.08,.57-.24,.8-.16,.22-.46,.33-.9,.33h-3.85v-2.19Zm-2.84-5.75v10.43h6.86c.53,0,1.05-.1,1.53-.29,.45-.18,.86-.45,1.21-.78,.34-.33,.6-.72,.78-1.15,.19-.44,.28-.92,.28-1.4,0-.48-.09-.95-.28-1.39-.18-.42-.45-.8-.78-1.11-.35-.32-.76-.57-1.21-.74-.49-.18-1.01-.27-1.53-.26h-4.02v-.81h6.53v-2.49H7Z"/><path class="c" d="M24.8,42.24h.44l1.62,4.02h-3.77l1.7-4.02Zm-1.82-2.47l-4.64,10.43h3.05l.67-1.53h5.91l.68,1.53h3.02l-4.54-10.43h-4.14Z"/><path class="c" d="M36.83,39.79v2.35h1.07l1.98-2.35h-3.05Z"/><path class="c" d="M61.19,43.7c.15-.37,.38-.7,.68-.98,.29-.27,.63-.48,1.01-.62,.8-.29,1.68-.29,2.48,0,.38,.14,.72,.35,1.01,.62,.29,.28,.52,.61,.67,.98,.32,.83,.32,1.75,0,2.58-.15,.37-.38,.7-.67,.98-.29,.27-.63,.48-1.01,.62-.8,.29-1.68,.29-2.48,0-.37-.14-.72-.35-1.01-.62-.29-.28-.52-.61-.68-.98-.17-.41-.25-.85-.24-1.29,0-.44,.08-.88,.24-1.29Zm.63-3.78c-.7,.25-1.35,.63-1.91,1.12-.55,.48-1,1.07-1.31,1.73-.33,.7-.49,1.46-.49,2.23s.17,1.53,.49,2.23c.31,.66,.76,1.24,1.31,1.73,.56,.49,1.21,.87,1.91,1.12,1.48,.53,3.1,.53,4.58,0,.7-.25,1.35-.63,1.91-1.12,.55-.48,1-1.07,1.31-1.73,.32-.7,.49-1.46,.49-2.23s-.17-1.53-.49-2.23c-.31-.66-.76-1.24-1.31-1.73-.56-.49-1.21-.87-1.91-1.12-1.48-.53-3.1-.53-4.58,0"/><path class="c" d="M74.34,39.77l-1.4,7.35c-.02,.17-.1,.33-.23,.44-.13,.11-.31,.16-.48,.15h-1.38v2.49h1.47c.81,.03,1.6-.19,2.26-.64,.58-.43,.96-1.12,1.14-2.09l1.01-5.2h3.44v7.94h2.84v-10.43h-8.66Z"/><path class="c" d="M41.55,39.77l-5.61,6.62v-6.62h-2.84v10.43h2.73l5.61-6.58v6.58h2.84v-10.43h-2.73Z"/><path class="c" d="M48.91,45.52h3.83c.44,0,.74,.1,.91,.31,.17,.21,.26,.47,.25,.74,0,.29-.08,.57-.24,.8-.16,.22-.46,.33-.9,.33h-3.85v-2.19Zm-2.84-5.75v10.43h6.86c.53,0,1.05-.1,1.54-.29,.45-.18,.86-.45,1.21-.78,.34-.33,.6-.72,.78-1.15,.19-.44,.28-.92,.28-1.4,0-.48-.09-.95-.28-1.39-.18-.42-.45-.8-.78-1.11-.35-.32-.76-.57-1.2-.74-.49-.18-1.01-.27-1.54-.26h-4.03v-.81h6.53v-2.49h-9.37Z"/></g></svg>