<svg width="90" height="90" viewBox="0 0 90 90" fill="none" xmlns="http://www.w3.org/2000/svg">
<g clip-path="url(#clip0_2875_447)">
<circle cx="45" cy="45" r="45" fill="#F5F5F5"/>
<path d="M27.8163 50.7535C24.4096 49.1857 22.8962 45.1081 24.4649 41.6953L29.0289 31.7729C30.5975 28.3602 34.6694 26.8478 38.0818 28.4155L46.7688 32.41L36.5032 54.7424L27.8163 50.7535ZM61.6551 39.2521C65.0689 40.82 66.5808 44.8975 65.0122 48.3103L60.4481 58.2328C58.8795 61.6455 54.8019 63.1579 51.3952 61.5845L42.7082 57.5956L52.9738 35.2631L61.6551 39.2521ZM49.6224 26.205L40.9354 22.2161C34.1092 19.0804 25.9597 22.0942 22.8239 28.9197L18.2656 38.8422C15.0957 45.7286 18.0826 53.7895 24.9684 56.9529L33.6497 60.9474L30.8017 67.1524L37.0067 70L39.8547 63.8005L48.5416 67.7895C55.3678 70.9253 63.5173 67.9114 66.6531 61.086L71.2129 51.158C74.3204 44.399 71.2739 36.1608 64.5087 33.0527L55.8217 29.0581L58.6753 22.8532L52.4703 20L49.6224 26.205Z" fill="#F4042E"/>
</g>
<defs>
<clipPath id="clip0_2875_447">
<rect width="90" height="90" fill="white"/>
</clipPath>
</defs>
</svg>
