<svg xmlns="http://www.w3.org/2000/svg" width="90" height="90" fill="none"><circle cx="45" cy="45" r="45" fill="#FFE9E4"/><path fill="#FF5C00" d="M55.924 70.42a.461.461 0 0 1-.568-.453.456.456 0 0 1 .088-.26l.556-.74c1.843-2.43 2.42-5.822 1.464-9.195a9.59 9.59 0 0 0-2.199-3.927 9.643 9.643 0 0 0-3.752-2.498c-4.141-1.506-8.125-.402-10.746 2.12a9.898 9.898 0 0 0-1.564 1.839 10.695 10.695 0 0 1 3.932-4.784 10.761 10.761 0 0 1 5.934-1.814c3.63 0 6.452 1.791 8.802 4.24 2.573 2.707 5.424 3.904 7.593 3.904 3.705 0 5.826-1.964 7.314-4.819l.077-.229c.403-1.277-.077-2.782-.907-2.782-1.315 0-1.766 1.915-4.77 1.915a5.223 5.223 0 0 1-2.52-.639 5.666 5.666 0 0 1-1.861-1.624 5.638 5.638 0 0 1-.99-2.259 6.617 6.617 0 0 1 .278-3.063c3.177 2.196 7.06 2.325 10.516.333-.226-1.735-.83-5.39-3.58-7.915-1.186-1.072-2.75-1.482-4.392-1.53v-.157a8.93 8.93 0 0 0-1.334-4.746 10.468 10.468 0 0 0-1.412-1.763c-.177-.18-.556-.666-.806-.69.016-14.1-7.83-16.725-9.064-17.039-.077-.024-.13.053-.077.105 1.714 3.32-.302 5.979-6.496 9.272-5.951 3.14-6.733 8.324-6.733 8.324s-.279-4.674 3.983-8.581a27.154 27.154 0 0 0-4.866 1.815 20.188 20.188 0 0 0-5.436 3.923 21.799 21.799 0 0 0-5.274 8.834 19.403 19.403 0 0 0-.931 4.494 20.85 20.85 0 0 1 .1-5.465 20.101 20.101 0 0 1 2.347-6.763c.605-1.072 1.412-2.007 2.045-3.064a26.692 26.692 0 0 0-3.508 2.35A29.673 29.673 0 0 0 17.558 40.6a29.096 29.096 0 0 0 1.326 22.023A29.282 29.282 0 0 0 35.3 77.44c.326.129.653.233.983.333.202.053.38.129.581.177.303.105.633.18.931.257a28.2 28.2 0 0 0 1.718.402l.456.076 1.056.148c.15.032.303.049.456.053h.024c.532.08 1.06.104 1.589.156a28.423 28.423 0 0 0 16.648-4.34c3.053-1.916 6.153-4.213 7.258-6.233.355-.662-.931-2.41-2.975-2.477a4.88 4.88 0 0 0-2.444.77c-1.85 1.21-3.06 2.908-5.657 3.659ZM29.84 54.564c-2.649 9.91 3.859 17.083 3.883 17.13-.048-.023-10.165-7.324-5.726-19.145 3.787-10.04 17.181-9.96 17.282-9.96-.077.029-12.588 1.354-15.439 11.975Zm20.733-12.6a.15.15 0 0 1-.154-.11.149.149 0 0 1 .078-.172c1.895-.662 4.895-1.734 5.6-2.168.557-.357.404-1.072.807-3.397a12.036 12.036 0 0 1 4.19-7.228c-.078.132-4.19 7.814-.985 13.918a.26.26 0 0 1-.093.349.255.255 0 0 1-.286-.02c-1.665-1.173-5.802-1.614-9.157-1.173Z"/></svg>