<svg width="90" height="90" fill="none" xmlns="http://www.w3.org/2000/svg"><g clip-path="url(#a)"><circle cx="45" cy="45" r="45" fill="#F5F5F5"/><path d="M17.52 43.842a.491.491 0 0 1-.376-.152.499.499 0 0 1-.143-.377V29.53a.478.478 0 0 1 .133-.377.507.507 0 0 1 .377-.153h10.085c.152 0 .285.05.377.153a.49.49 0 0 1 .173.377v2.118a.59.59 0 0 1-.173.408.507.507 0 0 1-.377.153H20.76v2.526h2.944c1.681 0 3.016.408 3.983 1.212.968.805 1.457 1.905 1.457 3.29a4.73 4.73 0 0 1-.356 1.824 4.328 4.328 0 0 1-1.05 1.467c-.448.408-1.008.734-1.68.978-.673.245-1.457.357-2.333.357H17.52v-.02Zm3.24-2.76h2.608c.408 0 .744-.082 1.009-.255.285-.183.489-.418.631-.703a2.14 2.14 0 0 0 .214-.937c0-.5-.163-.917-.489-1.273-.306-.357-.764-.53-1.365-.53H20.76v3.698Z" fill="#1B1818"/><path d="M17.52 43.842a.491.491 0 0 1-.376-.152.499.499 0 0 1-.143-.377V29.53a.478.478 0 0 1 .133-.377.507.507 0 0 1 .377-.153h10.085c.152 0 .285.05.377.153a.49.49 0 0 1 .173.377v2.118a.59.59 0 0 1-.173.408.507.507 0 0 1-.377.153H20.76v2.526h2.944c1.681 0 3.016.408 3.983 1.212.968.805 1.457 1.905 1.457 3.29a4.73 4.73 0 0 1-.356 1.824 4.328 4.328 0 0 1-1.05 1.467c-.448.408-1.008.734-1.68.978-.673.245-1.457.357-2.333.357H17.52v-.02Zm3.24-2.76h2.608c.408 0 .744-.082 1.009-.255.285-.183.489-.418.631-.703a2.14 2.14 0 0 0 .214-.937c0-.5-.163-.917-.489-1.273-.306-.357-.764-.53-1.365-.53H20.76v3.698Z" fill="url(#b)" fill-opacity=".2"/><path d="M31.355 43.842a.491.491 0 0 1-.377-.152.499.499 0 0 1-.143-.377V29.53c0-.153.051-.286.143-.377a.507.507 0 0 1 .377-.153h9.83c.153 0 .285.05.377.153a.499.499 0 0 1 .143.377v1.996a.524.524 0 0 1-.143.377.507.507 0 0 1-.377.153h-6.713v2.863h6.255c.152 0 .285.06.377.173a.498.498 0 0 1 .142.377v1.843a.58.58 0 0 1-.143.377.507.507 0 0 1-.376.153h-6.255v2.944h6.886a.49.49 0 0 1 .377.153.498.498 0 0 1 .143.377v1.997c0 .152-.051.285-.143.377a.506.506 0 0 1-.377.152H31.355Z" fill="#1B1818"/><path d="M31.355 43.842a.491.491 0 0 1-.377-.152.499.499 0 0 1-.143-.377V29.53c0-.153.051-.286.143-.377a.507.507 0 0 1 .377-.153h9.83c.153 0 .285.05.377.153a.499.499 0 0 1 .143.377v1.996a.524.524 0 0 1-.143.377.507.507 0 0 1-.377.153h-6.713v2.863h6.255c.152 0 .285.06.377.173a.498.498 0 0 1 .142.377v1.843a.58.58 0 0 1-.143.377.507.507 0 0 1-.376.153h-6.255v2.944h6.886a.49.49 0 0 1 .377.153.498.498 0 0 1 .143.377v1.997c0 .152-.051.285-.143.377a.506.506 0 0 1-.377.152H31.355Z" fill="url(#c)" fill-opacity=".2"/><path d="M44.801 43.842a.491.491 0 0 1-.377-.152.54.54 0 0 1-.142-.377V29.53c0-.153.05-.286.142-.377a.507.507 0 0 1 .377-.153H50.7c1.162 0 2.18.183 3.036.55.866.357 1.549.886 2.017 1.61.49.723.734 1.63.734 2.73s-.245 1.986-.734 2.689c-.479.703-1.151 1.233-2.017 1.569-.855.336-1.864.51-3.035.51h-2.507v4.644a.474.474 0 0 1-.173.377.507.507 0 0 1-.377.153h-2.842v.01Zm3.331-8.098h2.466c.6 0 1.08-.153 1.436-.469.367-.316.55-.784.55-1.416 0-.54-.153-.988-.458-1.355-.306-.366-.815-.55-1.518-.55h-2.465v3.8l-.01-.01Z" fill="#1B1818"/><path d="M44.801 43.842a.491.491 0 0 1-.377-.152.54.54 0 0 1-.142-.377V29.53c0-.153.05-.286.142-.377a.507.507 0 0 1 .377-.153H50.7c1.162 0 2.18.183 3.036.55.866.357 1.549.886 2.017 1.61.49.723.734 1.63.734 2.73s-.245 1.986-.734 2.689c-.479.703-1.151 1.233-2.017 1.569-.855.336-1.864.51-3.035.51h-2.507v4.644a.474.474 0 0 1-.173.377.507.507 0 0 1-.377.153h-2.842v.01Zm3.331-8.098h2.466c.6 0 1.08-.153 1.436-.469.367-.316.55-.784.55-1.416 0-.54-.153-.988-.458-1.355-.306-.366-.815-.55-1.518-.55h-2.465v3.8l-.01-.01Z" fill="url(#d)" fill-opacity=".2"/><path d="M59.032 43.842a.491.491 0 0 1-.377-.152.547.547 0 0 1-.142-.377V29.53c0-.153.05-.286.142-.377a.54.54 0 0 1 .377-.153h2.72c.153 0 .285.05.377.153a.5.5 0 0 1 .143.377v8.547l6-8.67a.886.886 0 0 1 .275-.275.72.72 0 0 1 .438-.122h2.445c.142 0 .254.051.356.153a.489.489 0 0 1 .173.377v13.783a.474.474 0 0 1-.173.377.478.478 0 0 1-.356.152h-2.72a.571.571 0 0 1-.398-.152.499.499 0 0 1-.142-.377v-8.241l-5.98 8.353a1.174 1.174 0 0 1-.275.275c-.102.081-.244.122-.438.122h-2.445v.01Z" fill="#1B1818"/><path d="M59.032 43.842a.491.491 0 0 1-.377-.152.547.547 0 0 1-.142-.377V29.53c0-.153.05-.286.142-.377a.54.54 0 0 1 .377-.153h2.72c.153 0 .285.05.377.153a.5.5 0 0 1 .143.377v8.547l6-8.67a.886.886 0 0 1 .275-.275.72.72 0 0 1 .438-.122h2.445c.142 0 .254.051.356.153a.489.489 0 0 1 .173.377v13.783a.474.474 0 0 1-.173.377.478.478 0 0 1-.356.152h-2.72a.571.571 0 0 1-.398-.152.499.499 0 0 1-.142-.377v-8.241l-5.98 8.353a1.174 1.174 0 0 1-.275.275c-.102.081-.244.122-.438.122h-2.445v.01Z" fill="url(#e)" fill-opacity=".2"/><path d="M17.52 61.598a.491.491 0 0 1-.376-.153.499.499 0 0 1-.143-.377V47.287c0-.153.051-.285.143-.377a.507.507 0 0 1 .377-.153h10.085c.152 0 .285.05.377.153a.49.49 0 0 1 .173.377v2.119a.59.59 0 0 1-.173.407.507.507 0 0 1-.377.153H20.76v2.526h2.944c1.681 0 3.015.408 3.983 1.212.968.805 1.457 1.905 1.457 3.29 0 .653-.122 1.254-.357 1.824-.234.55-.59 1.04-1.049 1.467-.448.408-1.008.734-1.68.978-.673.245-1.457.357-2.334.357h-6.203v-.02Zm3.24-2.76h2.608c.407 0 .744-.082 1.008-.255.286-.183.49-.418.632-.703a2.14 2.14 0 0 0 .214-.937c0-.5-.163-.917-.489-1.273-.306-.357-.764-.53-1.365-.53H20.76v3.698ZM31.355 61.598a.491.491 0 0 1-.377-.153.498.498 0 0 1-.143-.377V47.287c0-.153.051-.285.143-.377a.507.507 0 0 1 .377-.153h9.83c.153 0 .285.05.377.153a.499.499 0 0 1 .143.377v1.996a.524.524 0 0 1-.143.377.507.507 0 0 1-.377.153h-6.713v2.863h6.255c.152 0 .285.06.377.173a.499.499 0 0 1 .142.377v1.843a.58.58 0 0 1-.143.377.507.507 0 0 1-.376.153h-6.255v2.944h6.886a.49.49 0 0 1 .377.153.498.498 0 0 1 .143.377v1.996a.506.506 0 0 1-.52.53H31.355ZM44.801 61.598a.49.49 0 0 1-.377-.153.499.499 0 0 1-.142-.377V47.287c0-.153.05-.285.142-.377a.507.507 0 0 1 .377-.153H50.7c1.162 0 2.18.183 3.036.55.866.357 1.549.886 2.017 1.61.49.723.734 1.63.734 2.73s-.245 1.986-.734 2.689c-.479.703-1.151 1.233-2.017 1.569-.855.336-1.864.51-3.035.51h-2.507v4.644a.474.474 0 0 1-.173.377.507.507 0 0 1-.377.153h-2.842v.01Zm3.331-8.098h2.466c.6 0 1.08-.153 1.436-.469.367-.316.55-.784.55-1.416 0-.54-.153-.988-.458-1.355-.306-.366-.815-.55-1.518-.55h-2.465v3.8l-.01-.01ZM70.594 46.909a.395.395 0 0 0-.315-.153h-2.761a.676.676 0 0 0-.377.102.675.675 0 0 0-.255.336l-2.597 5.98-3.046-5.98a.807.807 0 0 0-.255-.316c-.081-.081-.204-.122-.356-.122h-2.904a.478.478 0 0 0-.356.153.429.429 0 0 0-.143.316c0 .07.01.132.04.193l5.206 9.749c-.05.081-.102.173-.152.234-.214.296-.449.52-.714.683-.264.142-.59.214-.967.214h-.805a.49.49 0 0 0-.377.153.499.499 0 0 0-.143.377v2.25c0 .153.051.286.143.378a.507.507 0 0 0 .377.152h1.12c.785 0 1.447-.07 1.977-.213a3.58 3.58 0 0 0 1.406-.744c.397-.336.753-.785 1.07-1.335.335-.55.682-1.232 1.028-2.037l4.187-9.688a.613.613 0 0 0 .061-.193c.01-.072.02-.133.02-.194a.408.408 0 0 0-.122-.295h.01Z" fill="#BD2B3D"/><path fill-rule="evenodd" clip-rule="evenodd" d="M68.862 57.615h2.415c.397 0 .723.326.723.723v2.425a.726.726 0 0 1-.723.723h-2.415a.726.726 0 0 1-.723-.723v-2.425c0-.397.326-.723.724-.723Z" fill="#1B1818"/><path fill-rule="evenodd" clip-rule="evenodd" d="M68.862 57.615h2.415c.397 0 .723.326.723.723v2.425a.726.726 0 0 1-.723.723h-2.415a.726.726 0 0 1-.723-.723v-2.425c0-.397.326-.723.724-.723Z" fill="url(#f)" fill-opacity=".2"/></g><defs><linearGradient id="b" x1="23.062" y1="29" x2="23.062" y2="43.842" gradientUnits="userSpaceOnUse"><stop stop-color="#fff"/><stop offset="1" stop-color="#fff" stop-opacity="0"/></linearGradient><linearGradient id="c" x1="36.356" y1="61.486" x2="36.356" y2="61.486" gradientUnits="userSpaceOnUse"><stop stop-color="#fff"/><stop offset="1" stop-color="#fff" stop-opacity="0"/></linearGradient><linearGradient id="d" x1="50.384" y1="61.486" x2="50.384" y2="61.486" gradientUnits="userSpaceOnUse"><stop stop-color="#fff"/><stop offset="1" stop-color="#fff" stop-opacity="0"/></linearGradient><linearGradient id="e" x1="65.236" y1="61.486" x2="65.236" y2="61.486" gradientUnits="userSpaceOnUse"><stop stop-color="#fff"/><stop offset="1" stop-color="#fff" stop-opacity="0"/></linearGradient><linearGradient id="f" x1="70.075" y1="57.615" x2="70.075" y2="61.496" gradientUnits="userSpaceOnUse"><stop stop-color="#fff"/><stop offset="1" stop-color="#fff" stop-opacity="0"/></linearGradient><clipPath id="a"><path fill="#fff" d="M0 0h90v90H0z"/></clipPath></defs></svg>