<svg width="90" height="90" viewBox="0 0 90 90" fill="none" xmlns="http://www.w3.org/2000/svg">
<g clip-path="url(#clip0_3210_1480)">
<circle cx="45" cy="45" r="45" fill="#F5F5F5"/>
<path d="M43.8385 44.0907C44.0565 43.1098 44.3617 41.0173 43.8385 40.4942C43.1846 39.8403 40.896 34.9359 34.6839 32.3204C32.2545 31.2976 22.4612 31.0955 19.3174 31.9936C17.0287 32.6473 16.3748 35.2631 18.0096 36.8978C18.8184 37.7066 21.606 38.5326 23.2407 38.5326C24.4196 38.5326 24.9286 38.1526 23.8946 39.1865C22.2599 40.821 14.0862 47.0331 13.1053 48.9949C12.5782 50.0492 14.0861 52.2644 16.3748 51.2836C18.2057 50.4989 22.9138 46.7061 21.9329 47.3602C19.9713 49.3217 15.721 51.6104 14.0861 53.5722C13.0188 54.8531 14.1168 57.9212 16.3749 57.1685C18.3366 56.5146 24.8755 50.6295 24.2216 51.2836C21.2791 53.5721 18.3302 56.8733 18.0096 58.4764C17.6827 60.111 19.243 61.6056 21.9329 60.1112C24.287 58.8034 28.472 53.899 28.145 54.5531C26.1833 56.1876 24.8543 57.5697 24.2216 59.7841C23.5677 62.0727 26.8372 62.7266 29.1258 61.092C31.285 59.5499 31.7415 58.8032 33.0493 57.1685L43.8385 44.0907Z" stroke="#24A251" stroke-width="1.3078" stroke-linecap="round"/>
<path d="M24.2212 31.3394C25.8559 30.0317 30.4332 28.7239 34.6836 29.0508C38.6494 29.3558 41.5495 31.0125 43.1842 34.609C44.492 37.4861 44.819 41.8019 43.8381 44.0905" stroke="#24A251" stroke-width="1.3078" stroke-linecap="round"/>
<path d="M45.0618 44.0907C44.8439 43.1098 44.5387 41.0173 45.0618 40.4942C45.7157 39.8403 48.0044 34.9359 54.2165 32.3204C56.6459 31.2976 66.4392 31.0955 69.583 31.9936C71.8717 32.6473 72.5256 35.2631 70.8908 36.8978C70.082 37.7066 67.2944 38.5326 65.6597 38.5326C64.4808 38.5326 63.9718 38.1526 65.0058 39.1865C66.6405 40.821 74.8142 47.0331 75.7951 48.9949C76.3222 50.0492 74.8142 52.2644 72.5256 51.2836C70.6947 50.4989 65.9865 46.7061 66.9675 47.3602C68.9291 49.3217 73.1794 51.6104 74.8142 53.5722C75.8816 54.8531 74.7836 57.9212 72.5255 57.1685C70.5638 56.5146 64.0248 50.6295 64.6788 51.2836C67.6213 53.5721 70.5702 56.8733 70.8908 58.4764C71.2177 60.111 69.6574 61.6056 66.9675 60.1112C64.6134 58.8034 60.4284 53.899 60.7554 54.5531C62.7171 56.1876 64.0461 57.5697 64.6788 59.7841C65.3327 62.0727 62.0632 62.7266 59.7746 61.092C57.6154 59.5499 57.1589 58.8032 55.8511 57.1685L45.0618 44.0907Z" stroke="#24A251" stroke-width="1.3078" stroke-linecap="round"/>
<path d="M64.6792 31.3394C63.0445 30.0317 58.4672 28.7239 54.2168 29.0508C50.251 29.3558 47.3509 31.0125 45.7162 34.609C44.4084 37.4861 44.0814 41.8019 45.0623 44.0905" stroke="#24A251" stroke-width="1.3078" stroke-linecap="round"/>
<rect x="32.7218" y="44.0713" width="23.5403" height="14.3858" fill="#F5F5F5" stroke="#24A251" stroke-width="1.3078"/>
<path d="M38.6539 48.5727V55.7062H36.7172V50.3561H36.6755L35.115 51.2896V49.6455L36.8705 48.5727H38.6539ZM43.2255 55.9012C42.5776 55.8989 42.018 55.7491 41.5466 55.4519C41.0752 55.1547 40.7118 54.7263 40.4564 54.1666C40.2009 53.607 40.0744 52.9359 40.0767 52.1534C40.079 51.3685 40.2068 50.7021 40.4599 50.1541C40.7153 49.6061 41.0775 49.1893 41.5466 48.9036C42.018 48.618 42.5776 48.4752 43.2255 48.4752C43.8733 48.4752 44.4329 48.6192 44.9043 48.9071C45.3757 49.1927 45.7391 49.6096 45.9945 50.1576C46.25 50.7056 46.3765 51.3709 46.3742 52.1534C46.3742 52.9406 46.2465 53.614 45.9911 54.1736C45.7356 54.7332 45.3722 55.1616 44.9008 55.4589C44.4318 55.7538 43.8733 55.9012 43.2255 55.9012ZM43.2255 54.3269C43.5598 54.3269 43.8338 54.1527 44.0475 53.8044C44.2634 53.4538 44.3702 52.9034 44.3679 52.1534C44.3679 51.6634 44.3192 51.2629 44.2216 50.9517C44.1241 50.6406 43.9894 50.4107 43.8176 50.2621C43.6458 50.1111 43.4484 50.0357 43.2255 50.0357C42.8911 50.0357 42.6182 50.2052 42.4069 50.5442C42.1956 50.8832 42.0876 51.4196 42.083 52.1534C42.0807 52.6526 42.1283 53.0636 42.2258 53.3864C42.3233 53.7069 42.458 53.9437 42.6298 54.097C42.804 54.2502 43.0025 54.3269 43.2255 54.3269ZM50.3902 55.9012C49.7424 55.8989 49.1828 55.7491 48.7114 55.4519C48.24 55.1547 47.8766 54.7263 47.6212 54.1666C47.3657 53.607 47.2392 52.9359 47.2415 52.1534C47.2438 51.3685 47.3715 50.7021 47.6246 50.1541C47.8801 49.6061 48.2423 49.1893 48.7114 48.9036C49.1828 48.618 49.7424 48.4752 50.3902 48.4752C51.0381 48.4752 51.5977 48.6192 52.0691 48.9071C52.5405 49.1927 52.9039 49.6096 53.1593 50.1576C53.4148 50.7056 53.5413 51.3709 53.539 52.1534C53.539 52.9406 53.4113 53.614 53.1558 54.1736C52.9004 54.7332 52.537 55.1616 52.0656 55.4589C51.5966 55.7538 51.0381 55.9012 50.3902 55.9012ZM50.3902 54.3269C50.7246 54.3269 50.9986 54.1527 51.2123 53.8044C51.4282 53.4538 51.535 52.9034 51.5327 52.1534C51.5327 51.6634 51.4839 51.2629 51.3864 50.9517C51.2889 50.6406 51.1542 50.4107 50.9824 50.2621C50.8105 50.1111 50.6132 50.0357 50.3902 50.0357C50.0559 50.0357 49.783 50.2052 49.5717 50.5442C49.3604 50.8832 49.2524 51.4196 49.2478 52.1534C49.2455 52.6526 49.2931 53.0636 49.3906 53.3864C49.4881 53.7069 49.6228 53.9437 49.7946 54.097C49.9688 54.2502 50.1673 54.3269 50.3902 54.3269Z" fill="#24A251"/>
</g>
<defs>
<clipPath id="clip0_3210_1480">
<rect width="90" height="90" fill="white"/>
</clipPath>
</defs>
</svg>
