<svg width="90" height="90" viewBox="0 0 90 90" fill="none" xmlns="http://www.w3.org/2000/svg">
<g clip-path="url(#clip0_3212_2763)">
<circle cx="45" cy="45" r="45" fill="#F5F5F5"/>
<path fill-rule="evenodd" clip-rule="evenodd" d="M54.9175 25.1165V19H41.665C35.0388 19 33 22.6699 33 27.1553V71.5H44.7233C52.8946 71.5 54.9175 69.4612 56.9563 64.3641C58.6705 60.0786 57.9757 53.6602 56.9563 50.6019C56.0883 47.9979 54.2884 44.1519 48.801 43.466C45.5388 43.0583 40.6456 42.9563 38.6068 42.9563V32.2524C38.6068 31.233 38.9058 28.3328 41.1553 26.6456C43.1942 25.1165 46.0825 25.1165 46.7621 25.1165H54.9175ZM38.607 65.8439V49.0728H46.973C53.0152 49.0728 53.9447 65.8439 46.973 66.4029H38.607V65.8439Z" fill="#6E6E6E"/>
</g>
<defs>
<clipPath id="clip0_3212_2763">
<rect width="90" height="90" fill="white"/>
</clipPath>
</defs>
</svg>
