<svg width="90" height="90" viewBox="0 0 90 90" fill="none" xmlns="http://www.w3.org/2000/svg">
<g clip-path="url(#clip0_3016_2197)">
<circle cx="45" cy="45" r="45" fill="#F5F5F5"/>
<path d="M25.6818 68L33.4091 21.4545H63.3409L62.1591 28.5227H40.6591L38.8182 39.4318H47.8409C51.4015 39.4318 54.3636 40.0152 56.7273 41.1818C59.0909 42.3333 60.7803 43.9621 61.7955 46.0682C62.8106 48.1742 63.0758 50.6515 62.5909 53.5C62.1212 56.3636 61.0227 58.8864 59.2955 61.0682C57.5682 63.2348 55.3258 64.9318 52.5682 66.1591C49.8106 67.3864 46.6515 68 43.0909 68H25.6818ZM35.25 61.0909H44.2273C46.1061 61.0909 47.7576 60.7348 49.1818 60.0227C50.6061 59.3106 51.75 58.3712 52.6136 57.2045C53.4924 56.0379 54.0379 54.7727 54.25 53.4091C54.5833 51.4394 54.1061 49.7652 52.8182 48.3864C51.5455 46.9924 49.5 46.2955 46.6818 46.2955H37.7045L35.25 61.0909Z" fill="#1565C0"/>
</g>
<defs>
<clipPath id="clip0_3016_2197">
<rect width="90" height="90" fill="white"/>
</clipPath>
</defs>
</svg>
