<svg width="90" height="90" viewBox="0 0 90 90" fill="none" xmlns="http://www.w3.org/2000/svg">
<g clip-path="url(#clip0_2807_2024)">
<circle cx="45" cy="45" r="45" fill="#F5F5F5"/>
<path d="M37.9693 27.9053V63.1142C37.9693 65.2523 40.2924 66.581 42.1354 65.4971L72.3809 47.7073C74.2078 46.6327 74.1957 43.9866 72.359 42.9288L42.1135 25.5096C40.2705 24.4482 37.9693 25.7785 37.9693 27.9053Z" fill="#007FB6"/>
<path d="M20 27.8685V63.0858C20 65.2301 22.3353 66.558 24.178 65.4616L37.6731 57.4325L54.4077 47.686C56.2378 46.6201 56.2388 43.9766 54.4095 42.9093L37.6731 33.1443L24.1281 25.4637C22.2852 24.4187 20 25.7499 20 27.8685Z" fill="#EB8B2C"/>
</g>
<defs>
<clipPath id="clip0_2807_2024">
<rect width="90" height="90" fill="white"/>
</clipPath>
</defs>
</svg>
