<svg width="90" height="90" fill="none" xmlns="http://www.w3.org/2000/svg"><g clip-path="url(#a)"><circle cx="45" cy="45" r="45" fill="#282735"/><g clip-path="url(#b)" fill="#fff"><path d="M59.508 38.652c-.173.905-.354 1.798-.517 2.692-.032.152 0 .201.17.198h1.77c.128 0 .17.027.142.155-.163.797-.325 1.594-.478 2.39-.021.112-.06.14-.17.14h-1.82c-.116 0-.177 0-.201.145-.217 1.143-.514 2.272-.68 3.426-.024.164-.033.33-.025.495 0 .184.075.36.207.49.133.13.313.203.501.203.27.026.544.026.814 0 .15-.024.17 0 .146.146-.12.693-.238 1.406-.354 2.113a1.127 1.127 0 0 0-.04.235c0 .246-.13.326-.353.347-1 .227-2.042.22-3.038-.024a2.171 2.171 0 0 1-1.242-.842 2.089 2.089 0 0 1-.38-1.431c.086-1.05.252-2.092.496-3.118.134-.693.275-1.385.42-2.078.022-.108 0-.122-.105-.122h-.988c-.128 0-.163-.027-.138-.152.16-.783.322-1.57.467-2.356.028-.152.096-.18.237-.176h.928c.12 0 .163-.038.184-.15.1-.557.206-1.115.305-1.669 0-.073.032-.125.117-.146l3.593-.935s.032.017.032.024ZM64.678 43.582a.518.518 0 0 0 .148-.201 4.452 4.452 0 0 1 2.047-1.826 3.685 3.685 0 0 1 1.71-.228c.117 0 .117.048.096.149-.223 1.039-.443 2.096-.659 3.145-.025.111-.07.153-.188.15a4.135 4.135 0 0 0-1.186.1 2.812 2.812 0 0 0-1.101.59c-.317.276-.565.62-.726 1.003a8.803 8.803 0 0 0-.63 2.235c-.184.97-.354 1.936-.545 2.906-.021.121-.06.17-.202.166h-3.297c-.141 0-.177 0-.145-.17a542.95 542.95 0 0 0 1.133-5.802c.192-1.011.294-2.037.393-3.059.036-.364.078-.724.11-1.088 0-.086.04-.114.128-.114h2.9c.134 0 .116.073.11.156-.047.578-.09 1.157-.132 1.732.007.045-.017.097.036.156ZM45.568 44.66v.567a1.187 1.187 0 0 1 0-.568Z"/><path d="M50.125 43.883h.496a5.307 5.307 0 0 1 1.735.347c.156.062.223.041.276-.121.227-.693.46-1.407.708-2.103.053-.15.021-.194-.117-.253a7.295 7.295 0 0 0-2.124-.44 3.054 3.054 0 0 0-.397-.024 9.28 9.28 0 0 0-1.416.093 5.206 5.206 0 0 0-2.263.846c-.414.269-.76.627-1.01 1.048-.25.42-.399.891-.434 1.377-.014.189-.014.379 0 .568.032.471.224.918.545 1.271.444.495.988.895 1.597 1.174.37.156.725.341 1.062.555a.653.653 0 0 1 .33.72c-.06.277-.305.374-.563.42a3.68 3.68 0 0 1-1.293-.028 8.414 8.414 0 0 1-1.954-.614c-.1-.045-.131-.017-.16.07-.255.744-.513 1.493-.775 2.234-.028.09 0 .132.06.18.162.098.33.183.507.253a8.368 8.368 0 0 0 3.703.502 7.069 7.069 0 0 0 1.799-.374c1.416-.495 2.63-1.624 2.478-3.55a2.079 2.079 0 0 0-.354-1.04 4.592 4.592 0 0 0-1.979-1.49 5.193 5.193 0 0 1-1.115-.616.495.495 0 0 1-.226-.387.482.482 0 0 1 .187-.406c.203-.143.448-.217.697-.212ZM44.991 45.182a3.912 3.912 0 0 0-.904-2.599 4.072 4.072 0 0 0-2.414-1.402 6.816 6.816 0 0 0-4.772.717 19.375 19.375 0 0 0-2.886 1.968c-.114.093-.17.087-.27 0a31.152 31.152 0 0 0-1.415-1.386 5.256 5.256 0 0 0-2.383-1.323 6.332 6.332 0 0 0-2.242-.052 6.054 6.054 0 0 0-2.364.773 5.916 5.916 0 0 0-1.835 1.652 6.432 6.432 0 0 0-1.176 4.271c.014.89.338 1.748.917 2.434a4.017 4.017 0 0 0 2.27 1.339 6.762 6.762 0 0 0 4.674-.6 18.356 18.356 0 0 0 3.101-2.078c.1-.083.15-.08.238 0 .418.433.839.856 1.264 1.268a5.231 5.231 0 0 0 2.408 1.413c.79.18 1.61.208 2.41.08 1.57-.188 3.001-.974 3.984-2.186a6.527 6.527 0 0 0 1.395-4.101v-.188ZM31.377 46.5c-.885.693-1.77 1.354-2.879 1.67a1.985 1.985 0 0 1-1.119.027 1.59 1.59 0 0 1-.788-.518 1.533 1.533 0 0 1-.345-.867 2.139 2.139 0 0 1 .072-.937c.093-.303.252-.583.467-.82.215-.238.48-.427.776-.554.296-.127.617-.19.94-.184a2.08 2.08 0 0 1 1.265.454c.61.45 1.148.987 1.593 1.594.04.045.085.08.014.135h.004Zm8.657 1.44a2.068 2.068 0 0 1-2.188.029 6.787 6.787 0 0 1-1.877-1.781c-.039-.048-.042-.076 0-.118.896-.693 1.795-1.385 2.928-1.676.304-.112.634-.133.95-.06.315.072.6.236.82.468.33.388.498.883.472 1.386-.013.36-.121.712-.315 1.02-.194.307-.466.56-.79.733ZM21.842 43.544c-.312-1.001-.928-1.78-1.99-2.096a4.11 4.11 0 0 0-2.875.274c-.44.202-.84.48-1.18.82 0-.107 0-.155.029-.204.366-1.725.733-3.447 1.101-5.165.032-.142.021-.173-.134-.173h-3.314c-.128 0-.181.028-.21.16a59.333 59.333 0 0 1-.499 2.459c-.493 2.432-.989 4.864-1.487 7.296A9.5 9.5 0 0 0 11 49.256c0 .641.245 1.26.687 1.733.387.389.877.665 1.416.796a7.646 7.646 0 0 0 3.208.111 6.411 6.411 0 0 0 3.948-2.144 7.124 7.124 0 0 0 1.64-3.555 5.55 5.55 0 0 0-.057-2.653Zm-4.957 5.283c-.17.19-.388.332-.63.416a1.537 1.537 0 0 1-.758.062.867.867 0 0 1-.478-.25.834.834 0 0 1-.23-.481 3.788 3.788 0 0 1 .106-1.41c.08-.554.23-1.096.446-1.614a2.462 2.462 0 0 1 1.158-1.24c.708-.326 1.377-.073 1.6.595.047.133.08.27.1.41.017.117 0 .235.02.346a4.602 4.602 0 0 1-1.345 3.166h.01ZM78.883 41.822a12.052 12.052 0 0 0-5.541-.346c-2.376.468-4.125 1.732-5.063 3.949a6.472 6.472 0 0 0-.443 4.088c.09.48.297.931.606 1.315.308.383.708.687 1.164.884a3.613 3.613 0 0 0 2.018.214 3.568 3.568 0 0 0 1.806-.906c.313-.307.596-.642.843-1.002v.236c-.021.45-.039.9-.07 1.348 0 .142.031.173.173.173h2.939c.17 0 .201-.042.201-.201-.004-1.432.131-2.861.404-4.268.354-1.774.708-3.537 1.087-5.304.01-.117-.025-.152-.124-.18Zm-3.94 2.3c-.238 1.04-.387 2.13-.709 3.167a3.446 3.446 0 0 1-.87 1.51 1.04 1.04 0 0 1-.52.331 1.06 1.06 0 0 1-.62-.017 1.037 1.037 0 0 1-.499-.36 1 1 0 0 1-.2-.574 1.061 1.061 0 0 1-.046-.495 4.56 4.56 0 0 1 1.307-3.063c.258-.265.581-.461.94-.569a2.22 2.22 0 0 1 1.103-.044c.064.004.138 0 .113.114Z"/></g></g><defs><clipPath id="a"><path fill="#fff" d="M0 0h90v90H0z"/></clipPath><clipPath id="b"><path fill="#fff" transform="translate(11 37)" d="M0 0h68v15H0z"/></clipPath></defs></svg>