<svg width="90" height="90" fill="none" xmlns="http://www.w3.org/2000/svg"><g clip-path="url(#a)"><circle cx="45" cy="45" r="45" fill="url(#b)"/><path d="M68.08 53.065c0 2.184-.52 4.056-1.56 5.616-1.04 1.509-2.444 2.757-4.212 3.745-1.716.988-3.744 1.716-6.084 2.184-2.34.468-4.785.702-7.333.702-1.872 0-3.38-.026-4.524-.078a44.57 44.57 0 0 1-2.887-.078c-.728-.052-1.378-.104-1.95-.156H29.156v-3.9h5.772V27.947h-5.773v-3.9h11.623c1.04-.053 2.002-.105 2.886-.157.936-.052 1.82-.078 2.653-.078a50.882 50.882 0 0 1 2.964-.078c5.096 0 9.1.728 12.013 2.184 2.912 1.405 4.368 3.927 4.368 7.567 0 1.3-.312 2.496-.936 3.589a8.975 8.975 0 0 1-2.34 2.73c-.936.78-2.002 1.43-3.198 1.95-1.144.52-2.262.884-3.355 1.092a21.88 21.88 0 0 1 4.603.936c1.508.468 2.834 1.118 3.978 1.95a8.522 8.522 0 0 1 2.653 3.12c.676 1.197 1.014 2.6 1.014 4.213Zm-24.962 8.269c.832.156 1.846.26 3.043.312h3.042c3.38 0 5.902-.702 7.567-2.107 1.664-1.404 2.496-3.38 2.496-5.928 0-2.652-1.014-4.628-3.042-5.929-1.977-1.3-4.55-1.95-7.723-1.95h-5.383v15.602Zm0-18.8h9.595c.52-.208 1.04-.546 1.56-1.014a10.451 10.451 0 0 0 1.56-1.794 9.841 9.841 0 0 0 1.17-2.34c.313-.937.469-1.95.469-3.043 0-2.652-.858-4.472-2.575-5.46-1.664-.988-4.134-1.482-7.41-1.482-.624 0-1.378.026-2.262.078-.833 0-1.535.078-2.107.234v14.821Z" fill="#fff"/><path d="m66.52 58.681 1.606 1.108.009-.013.008-.013-1.623-1.082Zm-4.212 3.745-.951-1.703-.011.007-.011.006.973 1.69Zm-6.084 2.184-.383-1.912.383 1.912Zm-11.857.624.088-1.948-.044-.002h-.044v1.95Zm-2.887-.078-.139 1.945h.01l.13-1.945ZM39.53 65l.177-1.942-.089-.008h-.088V65Zm-10.375 0h-1.95v1.95h1.95V65Zm0-3.9v-1.95h-1.95v1.95h1.95Zm5.773 0v1.95h1.95V61.1h-1.95Zm0-33.153h1.95v-1.95h-1.95v1.95Zm-5.773 0h-1.95v1.95h1.95v-1.95Zm0-3.9v-1.95h-1.95v1.95h1.95Zm11.623 0v1.95h.049l.049-.003-.098-1.948Zm2.886-.157-.108-1.947h-.006l.114 1.947Zm2.653-.078v1.95h.057l.057-.003-.114-1.947Zm14.977 2.106-.872 1.745.012.006.013.006.847-1.757Zm3.432 11.156-1.693-.968-.008.014-.007.014 1.708.94Zm-2.34 2.73-1.208-1.531-.02.016-.02.017 1.248 1.498Zm-3.198 1.95-.778-1.789-.014.007-.015.006.807 1.776Zm-3.355 1.092-.364-1.916.177 3.857.188-1.941Zm4.603.936-.597 1.857.01.003.009.003.578-1.863Zm3.978 1.95 1.147-1.577-1.147 1.577Zm2.653 3.12-1.745.873.022.044.025.043 1.698-.96ZM43.118 61.334h-1.95v1.618l1.591.298.36-1.916Zm3.043.312-.085 1.948.042.002h.043v-1.95Zm10.609-2.107 1.257 1.491-1.257-1.49Zm-.546-11.857-1.072 1.63.01.006.01.006 1.052-1.642Zm-13.106-1.95v-1.95h-1.95v1.95h1.95Zm0-3.198h-1.95v1.95h1.95v-1.95Zm9.595 0v1.95h.376l.349-.14-.725-1.81Zm1.56-1.014 1.305 1.45.007-.007-1.312-1.443Zm1.56-1.794 1.604 1.11-1.603-1.11Zm1.17-2.34 1.84.648.005-.016.006-.016-1.85-.617Zm-2.106-8.503-.995 1.677.011.006.011.007.973-1.69Zm-9.672-1.404v1.95h.057l.057-.004-.114-1.946Zm-2.107.234-.513-1.882-1.437.392v1.49h1.95ZM66.13 53.065c0 1.864-.439 3.345-1.232 4.535l3.245 2.163c1.287-1.93 1.888-4.194 1.888-6.698h-3.9Zm-1.215 4.51c-.853 1.236-2.023 2.29-3.558 3.148l1.902 3.405c2.001-1.118 3.64-2.56 4.867-4.34l-3.21-2.214Zm-3.58 3.16c-1.5.864-3.32 1.528-5.494 1.963l.765 3.824c2.507-.501 4.742-1.293 6.675-2.406l-1.946-3.38Zm-5.494 1.963a35.37 35.37 0 0 1-6.95.664v3.9c2.668 0 5.24-.245 7.715-.74l-.765-3.824Zm-6.95.664c-1.859 0-3.334-.026-4.436-.076l-.177 3.896c1.186.054 2.727.08 4.613.08v-3.9Zm-4.524-.078a42.72 42.72 0 0 1-2.757-.074l-.26 3.892c.838.056 1.847.082 3.017.082v-3.9Zm-2.748-.073c-.718-.051-1.356-.103-1.912-.153l-.354 3.884c.588.054 1.25.107 1.988.16l.278-3.891Zm-2.089-.161H37.736v3.9H39.53v-3.9Zm-1.794 0h-8.58v3.9h8.58v-3.9ZM31.106 65v-3.9h-3.901V65h3.9Zm-1.95-1.95h5.772v-3.9h-5.773v3.9Zm7.722-1.95V27.947h-3.9V61.1h3.9Zm-1.95-35.104h-5.773v3.9h5.773v-3.9Zm-3.823 1.95v-3.9h-3.9v3.9h3.9Zm-1.95-1.95h8.113v-3.9h-8.113v3.9Zm8.113 0H40.778v-3.9H37.268v3.9Zm3.608-.002c1.044-.052 2.012-.104 2.903-.157l-.23-3.894c-.877.052-1.833.104-2.868.155l.195 3.896Zm2.897-.157c.904-.05 1.752-.075 2.544-.075v-3.9c-.873 0-1.793.027-2.76.081l.216 3.894Zm2.658-.078a48.87 48.87 0 0 1 2.85-.075v-3.9c-1.122 0-2.15.027-3.079.081l.23 3.894Zm2.85-.075c4.948 0 8.61.713 11.14 1.979l1.745-3.489c-3.293-1.647-7.64-2.39-12.885-2.39v3.9Zm11.166 1.991c1.144.552 1.923 1.278 2.434 2.163.52.9.831 2.085.831 3.647h3.9c0-2.078-.416-3.974-1.353-5.597-.945-1.637-2.35-2.874-4.118-3.726l-1.694 3.513Zm3.265 5.81c0 .973-.229 1.834-.679 2.62l3.387 1.936a9.057 9.057 0 0 0 1.193-4.556h-3.9Zm-.694 2.649a7.025 7.025 0 0 1-1.84 2.139l2.416 3.061a10.925 10.925 0 0 0 2.841-3.32l-3.417-1.88Zm-1.88 2.172a11.2 11.2 0 0 1-2.728 1.66l1.555 3.576a15.1 15.1 0 0 0 3.67-2.24l-2.497-2.996Zm-2.757 1.672c-1.021.465-1.991.777-2.912.952l.73 3.832c1.262-.24 2.529-.657 3.796-1.233l-1.614-3.55Zm-2.735 4.81c1.481.142 2.877.428 4.193.85l1.194-3.713a23.83 23.83 0 0 0-5.012-1.02l-.375 3.882Zm4.212.857c1.328.412 2.457.972 3.41 1.664l2.293-3.154c-1.335-.971-2.858-1.711-4.547-2.236l-1.156 3.726Zm3.41 1.664a6.574 6.574 0 0 1 2.054 2.416l3.489-1.745a10.47 10.47 0 0 0-3.25-3.825l-2.294 3.154Zm2.1 2.503c.485.856.763 1.918.763 3.253h3.9c0-1.89-.399-3.636-1.267-5.172l-3.395 1.92ZM42.76 63.25c.951.179 2.063.29 3.317.344l.17-3.897c-1.139-.05-2.055-.147-2.768-.28l-.719 3.833Zm3.402.346H49.203v-3.9H46.16v3.9Zm3.042 0c3.599 0 6.66-.74 8.824-2.566l-2.515-2.981c-1.163.982-3.147 1.647-6.31 1.647v3.9Zm8.824-2.566c2.18-1.84 3.189-4.405 3.189-7.419h-3.9c0 2.082-.656 3.47-1.804 4.438l2.515 2.981Zm3.189-7.419c0-3.237-1.288-5.87-3.94-7.57l-2.105 3.283c1.405.9 2.145 2.22 2.145 4.287h3.9Zm-3.92-7.558c-2.387-1.57-5.369-2.27-8.795-2.27v3.9c2.918 0 5.084.598 6.65 1.629l2.144-3.259Zm-8.795-2.27h-5.383v3.9h5.383v-3.9Zm-7.333 1.95v15.6h3.9v-15.6h-3.9Zm1.95-1.249h9.595v-3.9h-9.595v3.9Zm10.32-.14c.778-.31 1.49-.79 2.14-1.375l-2.61-2.899c-.39.352-.718.549-.979.653l1.449 3.622Zm2.147-1.381a12.397 12.397 0 0 0 1.852-2.127l-3.207-2.22a8.493 8.493 0 0 1-1.268 1.46l2.623 2.887Zm1.852-2.127a11.788 11.788 0 0 0 1.406-2.801l-3.678-1.299a7.898 7.898 0 0 1-.935 1.88l3.207 2.22Zm1.417-2.834c.385-1.155.568-2.38.568-3.659h-3.9c0 .905-.13 1.709-.368 2.426l3.7 1.233Zm.568-3.659c0-3.08-1.029-5.698-3.551-7.15l-1.947 3.38c.91.524 1.598 1.546 1.598 3.77h3.9Zm-3.529-7.137c-2.108-1.252-4.994-1.756-8.406-1.756v3.9c3.14 0 5.194.485 6.415 1.21l1.991-3.354Zm-8.406-1.756c-.675 0-1.47.028-2.377.082l.23 3.893a37.53 37.53 0 0 1 2.147-.074v-3.9Zm-2.262.078c-.942 0-1.828.087-2.62.303l1.027 3.763c.352-.096.87-.165 1.593-.165v-3.9Zm-4.057 2.185v14.821h3.9V27.713h-3.9Z" fill="#fff"/><path fill="#fff" d="M41.402 29.203h17.552v33.153H41.402z"/><path fill="#714F7C" d="M41.402 40.904h9.751v9.751h-9.751z"/><path fill="#fff" d="M17 41h11v10H17z"/><path fill="url(#c)" d="M27 29h15v31H27z"/></g><defs><linearGradient id="b" x1="0" y1="82.5" x2="109" y2="-7" gradientUnits="userSpaceOnUse"><stop stop-color="#5F4271"/><stop offset="1" stop-color="#8F658F"/></linearGradient><linearGradient id="c" x1="49.5" y1="24" x2="29.5" y2="65.5" gradientUnits="userSpaceOnUse"><stop stop-color="#72507D"/><stop offset="1" stop-color="#6C4B79"/></linearGradient><clipPath id="a"><path fill="#fff" d="M0 0h90v90H0z"/></clipPath></defs></svg>