<svg width="90" height="90" viewBox="0 0 90 90" fill="none" xmlns="http://www.w3.org/2000/svg">
<g clip-path="url(#clip0_3017_2216)">
<circle cx="45" cy="45" r="45" fill="#F58A2C"/>
<path d="M30.9641 55.0608L62.1992 25.3868L53.0284 25.3868L26.8078 49.8384C24.0562 52.6836 20.7902 49.4133 23.5556 46.8269L33.4707 37.638C36.0151 33.9124 31.8352 29.6417 28.2005 32.3676L16.7684 43.1742C16.7684 43.1742 10.5177 49.5162 16.8012 56.0128C23.4213 62.0563 30.9641 55.0608 30.9641 55.0608Z" fill="#313131"/>
<path d="M58.6171 34.9422L27.3823 64.6162H36.5527L62.7736 40.1646C65.5252 37.3194 68.7913 40.5897 66.0257 43.1762L56.1108 52.3651C53.5664 56.0906 57.7461 60.3614 61.3811 57.6354L72.8131 46.8288C72.8131 46.8288 79.0636 40.4868 72.7799 33.9902C66.1603 27.9467 58.6171 34.9422 58.6171 34.9422Z" fill="#313131"/>
<path d="M33.8992 27.1275C34.8891 25.2026 37.2521 24.4448 39.177 25.4348C41.1018 26.4248 41.8596 28.7877 40.8696 30.7126C39.8796 32.6375 37.5167 33.3953 35.5918 32.4052C33.6669 31.4153 32.9091 29.0523 33.8992 27.1275Z" fill="#313131"/>
<path d="M55.6816 62.8726C54.6914 64.7974 52.3289 65.5552 50.4042 64.5652C48.4788 63.5752 47.7214 61.2122 48.7109 59.2874C49.701 57.3625 52.0643 56.6047 53.989 57.5948C55.9137 58.5848 56.6718 60.9477 55.6816 62.8726Z" fill="#313131"/>
</g>
<defs>
<clipPath id="clip0_3017_2216">
<rect width="90" height="90" fill="white"/>
</clipPath>
</defs>
</svg>
