<svg width="90" height="90" viewBox="0 0 90 90" fill="none" xmlns="http://www.w3.org/2000/svg">
<g clip-path="url(#clip0_3105_16)">
<circle cx="45" cy="45" r="45" fill="#F5F5F5"/>
<path d="M67.6777 39.2998C70.1389 39.2998 72.0892 40.0137 73.5278 41.4417C74.9896 42.8458 75.7214 44.9638 75.7214 47.7959V58.7909H70.0172V48.6527C70.0172 47.1295 69.6879 45.9991 69.0304 45.2613C68.3961 44.4999 67.4827 44.119 66.2884 44.119C64.9472 44.119 63.8872 44.5474 63.107 45.4042C62.3268 46.2371 61.9368 47.4866 61.9368 49.1524V58.7909H56.2335V48.6527C56.2335 45.6302 54.9908 44.119 52.5047 44.119C51.1877 44.119 50.1401 44.5474 49.3599 45.4042C48.5798 46.2371 48.1898 47.4866 48.1898 49.1524V58.7909H42.4863V39.5854H47.9339V41.7986C48.6658 40.9895 49.555 40.3707 50.6035 39.9423C51.6753 39.5139 52.8455 39.2998 54.1132 39.2998C55.5025 39.2998 56.7577 39.5735 57.8787 40.1208C58.9997 40.6444 59.9024 41.4179 60.5841 42.4412C61.3884 41.4416 62.4002 40.6681 63.6187 40.1208C64.8623 39.5735 66.215 39.2998 67.6777 39.2998Z" fill="#0B4F6C"/>
<path d="M36.9334 59C31.1659 59 25.9886 59 22.0452 59C19.4163 59 17.4849 58.3952 16.2509 57.1859C15.0169 55.9765 14.3999 54.0836 14.3999 51.507V38.8873C14.3999 36.1267 15.0303 34.1286 16.2911 32.893C17.5787 31.631 19.6309 31 22.4476 31H36.9334V36.5211H24.0571C22.4476 36.5211 21.6428 37.3098 21.6428 38.8873V51.507C21.6428 52.1117 21.8172 52.5981 22.1659 52.9662C22.5415 53.3079 23.0109 53.4788 23.5743 53.4788C24.1376 53.4788 25.4252 53.4788 25.4252 53.4788H27.8128H29.8515H32.8425H36.9334V59Z" fill="#B80C09"/>
</g>
<defs>
<clipPath id="clip0_3105_16">
<rect width="90" height="90" fill="white"/>
</clipPath>
</defs>
</svg>
