<svg width="90" height="90" viewBox="0 0 90 90" fill="none" xmlns="http://www.w3.org/2000/svg">
<circle cx="45" cy="45" r="45" fill="#F2F2F2"/>
<path d="M76.5128 38.4826V46.8838C76.5128 47.5913 76.3729 48.2919 76.1012 48.9455C75.8294 49.599 75.4311 50.1928 74.9289 50.6928C74.4268 51.1928 73.8308 51.5892 73.1749 51.8594C72.519 52.1296 71.8161 52.2682 71.1064 52.2674H12.4872V43.8662C12.4872 42.4384 13.0561 41.069 14.0689 40.0594C15.0816 39.0498 16.4552 38.4826 17.8874 38.4826H76.5128ZM76.5128 37H17.8874C16.0613 37.0016 14.3104 37.7256 13.0191 39.0129C11.7278 40.3002 11.0016 42.0457 11 43.8662V52.2674C11 52.6606 11.1567 53.0377 11.4356 53.3158C11.7145 53.5938 12.0927 53.75 12.4872 53.75H71.1064C72.9333 53.7492 74.6854 53.0257 75.9778 51.7384C77.2703 50.4511 77.9975 48.7052 78 46.8838V38.4826C78 38.0894 77.8433 37.7123 77.5644 37.4342C77.2855 37.1562 76.9072 37 76.5128 37V37Z" fill="#00CD5E"/>
<path d="M22.6154 48.073C22.1883 47.848 21.8314 47.5104 21.5837 47.097C21.3361 46.667 21.2058 46.1798 21.2058 45.6839C21.2058 45.1881 21.3361 44.7009 21.5837 44.2708C21.8314 43.8574 22.1883 43.5198 22.6154 43.2948C23.0357 43.0837 23.4964 42.9646 23.9666 42.9454C24.4368 42.9262 24.9057 43.0074 25.3419 43.1836C25.7017 43.3416 26.0198 43.5805 26.2714 43.8817L25.4813 44.6075C25.3195 44.4112 25.1155 44.2538 24.8843 44.1468C24.6531 44.0399 24.4008 43.9862 24.146 43.9898C23.8379 43.9853 23.5339 44.0598 23.263 44.206C23.0039 44.3449 22.7892 44.5536 22.6433 44.8083C22.5008 45.0794 22.4264 45.3809 22.4264 45.687C22.4264 45.9931 22.5008 46.2946 22.6433 46.5657C22.7892 46.8204 23.0039 47.0291 23.263 47.168C23.5339 47.3142 23.8379 47.3887 24.146 47.3842C24.4009 47.3885 24.6535 47.3351 24.8847 47.2281C25.116 47.1211 25.32 46.9633 25.4813 46.7665L26.2714 47.4923C26.0231 47.7984 25.7042 48.04 25.3419 48.1966C24.9068 48.3744 24.4383 48.4567 23.9684 48.4381C23.4985 48.4194 23.0381 48.3002 22.6185 48.0885L22.6154 48.073Z" fill="black"/>
<path d="M30.519 47.1927H28.0404L27.5633 48.3355H26.3023L28.6601 43.0322H29.8994L32.2665 48.3355H30.9745L30.519 47.1927ZM30.1163 46.2661L29.2797 44.2368L28.4308 46.2661H30.1163Z" fill="black"/>
<path d="M33.3478 48.2552C33.0136 48.1638 32.6988 48.0131 32.4183 47.8104L32.8365 46.8838C33.0834 47.0609 33.3576 47.1965 33.6483 47.2854C33.9483 47.3836 34.2619 47.4347 34.5778 47.4367C34.8451 47.4541 35.1123 47.4008 35.3523 47.2823C35.4253 47.2436 35.4866 47.1863 35.5301 47.1164C35.5737 47.0464 35.5978 46.9661 35.6002 46.8838C35.6005 46.8245 35.5872 46.7659 35.5615 46.7124C35.5357 46.6589 35.4981 46.6119 35.4515 46.575C35.3404 46.4832 35.2118 46.4149 35.0735 46.3742C34.8699 46.3081 34.6631 46.2524 34.4538 46.2074C34.1159 46.1313 33.7828 46.0354 33.4562 45.9202C33.1994 45.8243 32.9712 45.6648 32.7932 45.4569C32.5972 45.2183 32.4977 44.9154 32.5143 44.6075C32.5112 44.3105 32.5987 44.0197 32.7653 43.7735C32.9523 43.5069 33.2127 43.2998 33.5151 43.1774C33.9089 43.021 34.3306 42.9464 34.7544 42.9581C35.0896 42.9578 35.4235 42.9983 35.7489 43.0786C36.0486 43.1496 36.3351 43.2674 36.5978 43.4276L36.2199 44.3542C35.7734 44.0887 35.2648 43.9449 34.7451 43.9372C34.4802 43.9183 34.2155 43.9762 33.9829 44.104C33.907 44.1495 33.8443 44.2138 33.8009 44.2907C33.7574 44.3675 33.7347 44.4544 33.735 44.5426C33.7354 44.631 33.7629 44.7172 33.8138 44.7895C33.8648 44.8619 33.9368 44.9169 34.0201 44.9472C34.3004 45.0645 34.5922 45.1525 34.8907 45.2098C35.2277 45.2854 35.5598 45.3813 35.8852 45.497C36.1408 45.5939 36.3685 45.7519 36.5483 45.9572C36.741 46.1938 36.8392 46.493 36.824 46.7973C36.8271 47.0928 36.7384 47.382 36.57 47.6251C36.3774 47.8928 36.1118 48.0997 35.8047 48.2212C35.4108 48.3776 34.9891 48.4522 34.5654 48.4405C34.1527 48.4368 33.7427 48.3744 33.3478 48.2552Z" fill="black"/>
<path d="M42.5434 43.0322V48.3355H41.3041V46.1734H38.8844V48.3355H37.6451V43.0322H38.8844V45.1233H41.301V43.0322H42.5434Z" fill="black"/>
<path d="M43.8044 43.0322H46.2211C46.7501 43.0224 47.2741 43.1356 47.7516 43.3627C48.1771 43.5672 48.535 43.8887 48.7834 44.2893C49.0345 44.7101 49.1622 45.1927 49.1521 45.6823C49.1668 46.1713 49.0445 46.6548 48.7988 47.0784C48.5505 47.479 48.1926 47.8004 47.7671 48.005C47.2896 48.2321 46.7656 48.3453 46.2366 48.3355H43.8199L43.8044 43.0322ZM46.1591 47.3255C46.6252 47.3499 47.0823 47.1914 47.4325 46.8838C47.5925 46.7285 47.7175 46.5411 47.7992 46.3339C47.881 46.1268 47.9175 45.9046 47.9065 45.6823C47.9177 45.4604 47.8812 45.2387 47.7994 45.032C47.7177 44.8253 47.5926 44.6385 47.4325 44.4839C47.0826 44.1755 46.6256 44.0159 46.1591 44.0391H45.0345V47.3255H46.1591Z" fill="black"/>
<path d="M53.4649 48.3355L52.4393 46.856H51.3085V48.3355H50.0692V43.0322H52.3712C52.7963 43.0217 53.2188 43.1017 53.6105 43.267C53.9434 43.4055 54.2277 43.639 54.4278 43.9383C54.6278 44.2376 54.7345 44.5891 54.7345 44.9488C54.7345 45.3084 54.6278 45.66 54.4278 45.9592C54.2277 46.2585 53.9434 46.4921 53.6105 46.6306L54.8033 48.3355H53.4649ZM53.155 44.2708C52.9101 44.0968 52.6123 44.0128 52.3123 44.033H51.3085V45.8862H52.3123C52.6129 45.907 52.9112 45.8217 53.155 45.6453C53.2518 45.5607 53.328 45.4553 53.378 45.3371C53.4279 45.2188 53.4502 45.0908 53.4432 44.9627C53.4516 44.833 53.43 44.7032 53.3801 44.5832C53.3301 44.4632 53.2531 44.3563 53.155 44.2708Z" fill="black"/>
<path d="M55.6615 43.0322H56.9008V48.3355H55.6615V43.0322Z" fill="black"/>
<path d="M63.2337 43.0322L60.9317 48.3355H59.7172L57.4244 43.0322H58.7536L60.3709 46.819L62.0099 43.0322H63.2337Z" fill="black"/>
<path d="M67.7912 47.3502V48.3355H63.6705V43.0322H67.6983V44.0175H64.9098V45.1696H67.3885V46.124H64.9098V47.3595L67.7912 47.3502Z" fill="black"/>
</svg>
