<svg width="90" height="90" viewBox="0 0 90 90" fill="none" xmlns="http://www.w3.org/2000/svg">
<circle cx="45" cy="45" r="45" fill="#F6C289"/>
<g clip-path="url(#clip0_2_2)">
<path fill-rule="evenodd" clip-rule="evenodd" d="M56.1184 23.5864C57.4069 23.5864 58.6522 24.0943 59.5542 24.983L71.4931 36.7479C73.3826 38.6098 73.3826 41.6569 71.4931 43.519L46.971 67.6835C46.0692 68.5722 44.8238 69.08 43.5353 69.08C42.247 69.08 41.0015 68.5722 40.0997 67.6835L28.1607 55.9187C26.2711 54.0566 26.2711 51.0096 28.1607 49.1475L52.6828 24.983C53.5847 24.0943 54.8301 23.5864 56.1184 23.5864ZM63.5481 36.0284C63.2903 36.0284 62.9898 35.9438 62.7751 35.7322L58.051 31.077C57.6216 30.6538 57.6216 29.9767 58.051 29.5958C58.4804 29.1726 59.1677 29.1726 59.5542 29.5958L64.2781 34.251C64.7075 34.6742 64.7075 35.3513 64.2781 35.7322C64.1063 35.9015 63.8057 36.0284 63.5481 36.0284ZM66.5541 36.8748C66.5541 37.4592 66.0735 37.9329 65.4806 37.9329C64.8876 37.9329 64.407 37.4592 64.407 36.8748C64.407 36.2905 64.8876 35.8168 65.4806 35.8168C66.0735 35.8168 66.5541 36.2905 66.5541 36.8748Z" fill="#40BAB5"/>
<path d="M17.8549 43.8573L24.8424 50.7429C25.1528 49.6174 25.7583 48.553 26.6586 47.6658L36.5499 37.9017C33.4347 37.3839 30.1292 35.9178 29.1495 35.1392L30.5237 33.4888C31.6403 34.3775 37.2232 36.5781 39.8429 35.8164L40.573 35.6048L41.0025 36.1972C44.567 40.8947 51.9536 41.0641 53.6715 40.5138C54.0151 40.3869 54.101 40.1329 54.1439 40.006C54.1869 39.8791 54.2299 39.5829 53.9292 39.2866L44.5169 30.033L44.4441 29.9629L38.2112 23.7978C37.0518 22.6552 35.5486 22.105 34.0025 22.105C32.4995 22.105 30.9534 22.6552 29.7939 23.7978L17.8549 35.605C15.5788 37.8903 15.5788 41.572 17.8549 43.8573Z" fill="#F9A056"/>
<path d="M39.7528 38.0627C39.7399 38.0474 39.7271 38.0323 39.7142 38.017C39.7067 38.018 39.6992 38.0191 39.6917 38.0201C39.712 38.0343 39.7324 38.0484 39.7528 38.0627Z" fill="#F9A056"/>
<path d="M40.5301 62.1814C41.0025 61.716 41.6037 61.462 42.248 61.462C42.8922 61.462 43.4934 61.6736 43.9658 62.1814L47.1437 65.3131C48.0886 66.2441 48.0886 67.7677 47.1437 68.6986L46.6285 69.2066C45.6836 70.1376 44.1376 70.1376 43.1927 69.2066L40.0147 66.0749C39.07 65.1438 39.07 63.6204 40.0147 62.6892L40.5301 62.1814Z" fill="#F9A056"/>
<path d="M46.0702 56.0451C45.34 56.0451 44.653 56.2991 44.0946 56.8492C43.0209 57.9072 43.0209 59.6846 44.0946 60.7427L48.3891 64.9745C49.4629 66.0325 51.2666 66.0325 52.3402 64.9745C53.4139 63.9166 53.4139 62.1392 52.3402 61.0811L48.0457 56.8492C47.4873 56.3413 46.8001 56.0451 46.0702 56.0451Z" fill="#F9A056"/>
<path d="M48.6038 51.1361C49.1622 50.5859 49.8492 50.3319 50.5793 50.3319C51.3095 50.3319 52.0394 50.6282 52.5549 51.1361L57.8371 56.3413C58.9108 57.3994 58.9108 59.1768 57.8371 60.2348C56.7635 61.2927 54.9598 61.2927 53.8862 60.2348L48.6038 55.0295C47.5303 53.9714 47.5303 52.194 48.6038 51.1361Z" fill="#F9A056"/>
<path d="M56.2914 46.6502C55.5614 46.6502 54.8742 46.9041 54.3158 47.4542C53.2423 48.5122 53.2423 50.2897 54.3158 51.3477L58.6105 55.5795C59.6841 56.6376 61.4878 56.6376 62.5615 55.5795C63.6351 54.5217 63.6351 52.7442 62.5615 51.6862L58.2669 47.4542C57.7085 46.9464 57.0215 46.6502 56.2914 46.6502Z" fill="#F9A056"/>
<path d="M62.7754 35.7321C62.9901 35.9437 63.2908 36.0283 63.5485 36.0283C63.8062 36.0283 64.1068 35.9013 64.2786 35.7321C64.708 35.3512 64.708 34.6741 64.2786 34.2509L59.5545 29.5957C59.168 29.1725 58.4809 29.1725 58.0515 29.5957C57.6219 29.9766 57.6219 30.6537 58.0515 31.0769L62.7754 35.7321Z" fill="#00475D"/>
<path d="M66.5546 36.8746C66.5546 37.459 66.074 37.9327 65.4811 37.9327C64.888 37.9327 64.4073 37.459 64.4073 36.8746C64.4073 36.2904 64.888 35.8167 65.4811 35.8167C66.074 35.8167 66.5546 36.2904 66.5546 36.8746Z" fill="#00475D"/>
<path fill-rule="evenodd" clip-rule="evenodd" d="M16.3513 45.3389L24.6701 53.5517C24.8805 54.9732 25.5432 56.3435 26.6581 57.442L38.597 69.207C39.6114 70.2065 40.8597 70.8371 42.1519 71.0989C42.953 71.7077 43.9463 72 44.9099 72C46.0695 72 47.272 71.5344 48.1739 70.6881L48.6892 70.1803C49.3571 69.522 49.7778 68.7188 49.951 67.8779C50.0889 67.8892 50.2268 67.8949 50.3641 67.8949C51.6524 67.8949 52.8978 67.4294 53.8856 66.4562C54.8208 65.5345 55.3034 64.3354 55.3336 63.1273C55.5095 63.146 55.6857 63.1553 55.8611 63.1553C57.1494 63.1553 58.3948 62.6897 59.3825 61.7586C60.3013 60.8535 60.7831 59.6805 60.8284 58.4945C62.0298 58.4392 63.1815 57.9732 64.1069 57.0612C65.3618 55.8246 65.8018 54.0884 65.427 52.5015L72.9966 45.0424C75.7451 42.3338 75.7451 37.9749 72.9966 35.2665L61.0577 23.5017C59.7263 22.1475 57.9226 21.4703 56.1189 21.4703C54.3152 21.4703 52.5544 22.1475 51.1801 23.5017L46.0478 28.5592L39.7138 22.317C36.5788 19.2277 31.4253 19.2277 28.2902 22.317L16.3513 34.0819C13.2162 37.1712 13.2162 42.2495 16.3513 45.3389ZM44.5184 30.0354L44.5174 30.0363L38.2107 23.7982C37.0511 22.6556 35.5481 22.1054 34.002 22.1054C32.4988 22.1054 30.9529 22.6556 29.7933 23.7982L17.8544 35.6054C15.5783 37.8906 15.5783 41.5724 17.8544 43.8578L24.8418 50.7432C25.1523 49.6177 25.7577 48.5534 26.6581 47.6661L36.5642 37.9044C33.4447 37.389 30.1302 35.9194 29.1489 35.1396L30.5232 33.4891C31.4762 34.2476 35.6822 35.9616 38.5231 35.9742C39.011 35.9764 39.4585 35.9283 39.8424 35.8167L40.5725 35.6051L41.002 36.1976C41.0234 36.2258 41.0449 36.2537 41.0666 36.2817C41.0883 36.3096 41.1103 36.3376 41.1323 36.3654C44.7435 40.899 51.9739 41.0577 53.671 40.5142C54.0145 40.3872 54.1005 40.1333 54.1434 40.0063C54.1863 39.8794 54.2292 39.5832 53.9287 39.287L44.5184 30.0354ZM47.551 30.0403L55.4317 37.8058C56.1618 38.5252 56.4194 39.4985 56.2047 40.4719C55.99 41.4453 55.26 42.2069 54.3152 42.5032C53.7568 42.7571 52.7262 42.8841 51.5237 42.8841C48.0879 42.8841 42.8915 41.7838 39.7135 38.0173C39.6174 38.0308 39.5197 38.0424 39.4207 38.052L28.1612 49.1473C26.2715 51.0094 26.2715 54.0564 28.1612 55.9185L37.1807 64.8066C37.0495 63.5097 37.4929 62.1694 38.511 61.1661L39.0265 60.6583C39.6489 60.0449 40.3993 59.6432 41.1893 59.4532C40.9819 57.9897 41.4492 56.451 42.5908 55.326C43.4624 54.4672 44.5784 53.9957 45.7185 53.9115C45.4643 52.4098 45.9248 50.8134 47.1002 49.6553C48.292 48.4807 49.9412 48.0306 51.4837 48.3049C51.6823 47.4349 52.1251 46.6081 52.8122 45.9311C54.7448 44.0268 57.8797 44.0268 59.8123 45.9311L64.1069 50.1631C64.2154 50.27 64.3179 50.3808 64.4143 50.4948L71.4934 43.5188C73.3831 41.6569 73.3831 38.6098 71.4934 36.7477L59.5545 24.9829C58.6527 24.0942 57.4072 23.5863 56.1189 23.5863C54.8306 23.5863 53.585 24.0942 52.6833 24.9829L47.551 30.0403ZM43.1922 69.207C44.1371 70.1379 45.683 70.1379 46.6278 69.207L47.1432 68.6991C47.563 68.2854 47.7962 67.7547 47.843 67.211C47.4988 67.0065 47.1759 66.7553 46.8855 66.4562L42.5908 62.2242C42.355 61.9918 42.148 61.7417 41.9697 61.4783C41.4312 61.5405 40.9333 61.7839 40.5295 62.1819L40.0142 62.6897C39.0694 63.6207 39.0694 65.1443 40.0142 66.0753L43.1922 69.207ZM49.1737 65.5132C50.209 65.9833 51.4984 65.8039 52.3397 64.975C53.0675 64.2575 53.302 63.2094 53.0427 62.2791C52.8091 62.1153 52.5877 61.9278 52.3824 61.7164L47.1002 56.5534C46.9605 56.4158 46.831 56.2719 46.7115 56.1229C46.5028 56.0721 46.2881 56.0454 46.0695 56.0454C45.3394 56.0454 44.6523 56.2994 44.094 56.8495C43.0204 57.9075 43.0204 59.6849 44.094 60.743L48.3886 64.975C48.621 65.2039 48.8876 65.3833 49.1737 65.5132ZM54.5513 60.7158C54.4423 60.6599 54.3365 60.5966 54.2351 60.5257C54.112 60.4397 53.9949 60.3431 53.8856 60.2352L48.6032 55.0298C47.5296 53.9719 47.5296 52.1945 48.6032 51.1365C49.1615 50.5862 49.8486 50.3324 50.5787 50.3324C50.8882 50.3324 51.1977 50.3856 51.4907 50.4857C51.6926 51.3446 52.1331 52.1601 52.8122 52.8292L57.1068 57.0612C57.5532 57.5212 58.0766 57.8679 58.6358 58.1054C58.686 58.8739 58.4196 59.6606 57.8366 60.2352C57.561 60.5067 57.2373 60.7087 56.8901 60.8408C56.1367 61.1276 55.2727 61.086 54.5513 60.7158ZM61.741 56.1338C62.0402 56.0029 62.319 55.8182 62.5608 55.58C63.6344 54.522 63.6344 52.7446 62.5608 51.6865L58.2662 47.4545C57.708 46.9467 57.0208 46.6505 56.2907 46.6505C55.5607 46.6505 54.8735 46.9045 54.3153 47.4545C53.2416 48.5126 53.2416 50.29 54.3153 51.348L58.6098 55.58C58.7193 55.6878 58.8363 55.7846 58.9591 55.8704C59.7715 56.4372 60.847 56.5251 61.741 56.1338Z" fill="#00475D"/>
</g>
<defs>
<clipPath id="clip0_2_2">
<rect width="62" height="52" fill="white" transform="translate(14 20)"/>
</clipPath>
</defs>
</svg>
