<svg width="90" height="90" fill="none" xmlns="http://www.w3.org/2000/svg"><g clip-path="url(#a)"><circle cx="45" cy="45" r="45" fill="#6300A3"/><path d="M47.557 47.44a2.3 2.3 0 1 0 0-4.598 2.3 2.3 0 0 0 0 4.599Z" fill="#F56200"/><path d="M29.893 56.81h-1.222c-.671.073-.822-.269-.819-.813 0-1.856-.02-4.387 0-6.243 0-.538-.03-.645-.671-.645h-1.672c-.41 0-.503.12-.5.497.02 1.86 0 4.387 0 6.243 0 .877-.084.954-1.007.954h-1.158c-.494.02-.692-.195-.672-.672.017-1.292 0-3.256 0-4.551 0-1.296.024-2.548 0-3.817-.016-.601.225-.84.813-.836h6.955c.547 0 .765.242.762.762v8.369c.003.567-.228.782-.809.752Zm6.834.063c-2.759 0-4.592-2.07-4.598-5.186 0-2.954 1.916-5.035 4.666-5.035 2.749 0 4.679 2.014 4.72 5.085.04 3.072-1.897 5.126-4.788 5.123v.013Zm6.043-24.122h1.255a.773.773 0 0 1 .776.772v6.53a.356.356 0 0 0 .359.355h1.678a.357.357 0 0 0 .343-.383v-6.529a.776.776 0 0 1 .775-.772h1.259a.774.774 0 0 1 .782.79v6.488a.359.359 0 0 0 .336.36h1.775a.359.359 0 0 0 .36-.36v-6.489a.774.774 0 0 1 .775-.775h1.239a.77.77 0 0 1 .775.769v8.556a.772.772 0 0 1-.775.765H42.763a.775.775 0 0 1-.775-.768v-8.55a.772.772 0 0 1 .765-.772l.017.013Zm8.64 23.683a.255.255 0 0 1-.255.255h-2.128a.255.255 0 0 1-.255-.255V51.7a.114.114 0 0 0-.215-.057l-3.001 4.864a.335.335 0 0 1-.292.168h-2.159a.255.255 0 0 1-.251-.255v-8.825a.512.512 0 0 1 .51-.52h1.638a.51.51 0 0 1 .51.513v4.757a.114.114 0 0 0 .215.057l2.884-4.992a.649.649 0 0 1 .56-.335h1.716a.506.506 0 0 1 .506.507l.017 8.852Zm10.336-.168a.38.38 0 0 1-.383.379H59.49a.38.38 0 0 1-.38-.38v-2.86a.366.366 0 0 0-.362-.365h-2.33a.363.363 0 0 0-.362.366v2.86a.382.382 0 0 1-.38.379h-1.993a.38.38 0 0 1-.38-.376c0-2.732 0-6.522-.023-8.107v-.866a.362.362 0 0 1 .362-.366h2.015a.366.366 0 0 1 .362.366v2.988a.362.362 0 0 0 .363.362h2.35a.363.363 0 0 0 .362-.362v-2.991a.361.361 0 0 1 .362-.366h1.937a.366.366 0 0 1 .353.366v8.973Zm10.05-7.721a.512.512 0 0 1-.517.514h-1.953a.514.514 0 0 0-.514.517v3.088c0 .701-.017 2.276-.017 3.575a.477.477 0 0 1-.48.48H66.48a.48.48 0 0 1-.48-.48v-6.616a.517.517 0 0 0-.517-.517h-1.937a.508.508 0 0 1-.514-.514v-1.145a.514.514 0 0 1 .514-.517h7.72a.517.517 0 0 1 .518.517l.013 1.098Zm-30.862-10.02c-.39 2.608-2.317 4.26-4.972 4.29a9.24 9.24 0 0 1-2.591-.309c-.584-.161-.81-.47-.598-1.067a3.05 3.05 0 0 0 .141-.568c.067-.44.289-.564.725-.453.8.235 1.645.27 2.46.1a2.35 2.35 0 0 0 1.814-1.835h-3.277a.373.373 0 0 1-.372-.373v-1.04a.373.373 0 0 1 .372-.373h3.333c-.107-1.323-1.235-2.135-2.745-2.014a4.533 4.533 0 0 0-1.414.245c-.362.144-.59 0-.67-.366-.263-1.098-.797-1.4.922-1.786 1.524-.336 3.001-.366 4.414.336 1.83.89 2.793 2.99 2.458 5.213ZM74.73 39.69c-2.8-15.28-15.834-24.68-29.248-24.505-6.959.09-13.034 2.306-18.462 6.445-.239.178-.467.373-.692.567-.433.383-.876.776-1.343 1.222v13.666c.225-.087.416-.243.544-.447.903-1.154 1.679-2.262 2.565-3.427a1.185 1.185 0 0 1 1.09-.473c.534.027 1.072 0 1.609 0 .225 0 .537-.104.671.09.134.195-.168.38-.305.54a164.886 164.886 0 0 1-3.337 3.693c-.306.336-.312.534 0 .866 1.302 1.427 2.585 2.87 3.88 4.3.111.121.249.245.165.393-.084.148-.299.135-.477.135-.554 0-1.11-.02-1.678 0a1.56 1.56 0 0 1-1.39-.611c-.671-.833-1.343-1.766-2.014-2.612-.447-.56-.84-1.125-1.343-1.292-.023 1.406.06 2.813-.04 4.216a.337.337 0 0 1-.191.218c-.1.037-.204.06-.31.067a3.7 3.7 0 0 1-.473 0c-1.322-.02-1.628.306-1.614-1.312.023-3.589 0-7.177 0-10.762 0-2.038-.024-3.39 0-4.32-.296.382-.601.795-.92 1.245-8.167 10.366-7.76 27.8 2.917 38.56 10.987 11.077 26.855 10.53 35.075 5.035-2.094.51-4.612 1.393-7.197 1.678-2.66.245-5.338.218-7.992-.08-3.065-.292-6.593-1.565-7.409-2.35 1.343.335 2.605.688 3.888.926 7.626 1.4 14.843.49 21.483-3.793C71.575 61.482 76.68 50.281 74.73 39.69ZM38.295 49.76a1.739 1.739 0 0 0-2.86-.023c-.816 1.238-.806 2.558-.238 3.873a1.856 1.856 0 0 0 1.796 1.105 2.037 2.037 0 0 0 1.628-1.343c.141-.386.218-.794.228-1.205.017-.997-.107-1.735-.554-2.407Z" fill="#fff"/><path d="M47.672 48.733a3.592 3.592 0 1 0 0-7.184 3.592 3.592 0 0 0 0 7.184Z" fill="#fff"/><path d="M47.672 47.44a2.3 2.3 0 1 0 0-4.598 2.3 2.3 0 0 0 0 4.599Z" fill="#F56200"/></g><defs><clipPath id="a"><path fill="#fff" d="M0 0h90v90H0z"/></clipPath></defs></svg>