<svg xmlns="http://www.w3.org/2000/svg" width="90" height="90" fill="none"><circle cx="45" cy="45" r="45" fill="#00C10E"/><path fill="#040404" d="M11 46.53c.043-4.085 2.955-7.264 7.068-7.585 2.136-.168 3.994.508 5.352 2.273.227.284.222.474-.09.701-.435.319-.836.68-1.236 1.037-.17.154-.27.199-.435-.017-1.17-1.574-2.753-2.062-4.588-1.531-1.929.568-3.09 1.9-3.497 3.858-.25 1.221-.082 2.355.764 3.323 1.097 1.27 3.11 1.571 4.9.779a5.327 5.327 0 0 0 1.799-1.281c.182-.196.284-.208.477 0 .332.372.682.732 1.048 1.073.196.18.117.27-.023.432-1.806 2.094-5.431 3.06-8.019 2.128-2.23-.801-3.545-2.744-3.52-5.19ZM32.337 43.53c.034.017.074-.136.091-.199.091-.315.185-.63.216-.73.031-.1.168-.09.284-.09.324 0 1.137.022 1.219.022.59 0 .534.096.44.801-.352 2.71-.724 5.414-1.065 8.125-.043.326-.128.434-.466.417-.568-.031-1.136 0-1.733 0l.08-.951c-.227 0-.316.178-.446.284-2.148 1.616-5.205 1.088-6.281-1.168-.926-1.934-.591-3.838.622-5.545 1.176-1.656 2.855-2.367 4.9-2.136.65.054 1.094.324 2.14 1.17Zm-3.502 6.505c1.622 0 2.906-1.215 3.144-3a2.335 2.335 0 0 0-2.514-2.661c-1.619.119-2.727 1.224-2.965 2.928a2.315 2.315 0 0 0 2.335 2.733ZM39.084 52.112c-1.338 0-2.471-.423-3.33-1.486-.215-.267-.232-.471.063-.673.051-.037.529-.469.83-.739a.327.327 0 0 1 .44 0c.185.192.392.362.616.506.73.443 1.472.633 2.321.338a1.04 1.04 0 0 0 .804-.903c.026-.438-.284-.69-.676-.852-.596-.259-1.201-.495-1.79-.77-1.866-.873-2.178-2.867-.681-4.296 1.497-1.428 4.29-1.38 5.644.029.216.227.284.398 0 .616a2.526 2.526 0 0 0-.267.284c-.255.27-.468.657-.78.767-.313.111-.51-.383-.822-.537a2.274 2.274 0 0 0-1.764-.218.903.903 0 0 0-.69.852c-.017.398.261.625.61.773a70.2 70.2 0 0 1 1.841.784c1.88.852 2.253 2.815.816 4.3-.807.824-1.835 1.22-3.185 1.225ZM53.228 42.914c-1.253-.96-3.372-.824-4.713.284-.136.11-.221.3-.431.315l.61-4.744h-2.238c-.16 1.318-.31 2.636-.483 3.951-.379 2.926-.767 5.852-1.165 8.778-.042.304.04.378.333.364H46.7c.267-.02.372-.162.41-.497.17-1.52.377-3.037.567-4.545a3.125 3.125 0 0 1 .569-1.42c.653-.898 1.826-1.282 2.758-.907.776.313 1.108 1.136.954 2.312-.207 1.571-.4 3.145-.608 4.719-.034.244-.02.37.285.355.537-.023 1.08 0 1.619 0 .21 0 .324-.023.358-.284.235-1.923.528-3.838.738-5.764.137-1.145-.153-2.176-1.122-2.917ZM77.622 39.121h-1.577c-.335 0-.449.15-.491.503a593.09 593.09 0 0 1-.813 6.31c-.13.98-.147 1.988-.8 2.84a2.886 2.886 0 0 1-3.177.867c-.903-.333-1.32-1.137-1.164-2.43.267-2.252.568-4.502.877-6.749.176-1.324.185-1.324-1.04-1.324h-.388c-.816 0-.802 0-.904.81-.196 1.545-.429 3.093-.614 4.656-.156 1.352-.488 2.693-.392 4.068a3.324 3.324 0 0 0 1.966 2.94c2.483 1.193 7.023.415 7.767-3.827.21-1.198.34-2.408.503-3.616.204-1.517.392-3.037.608-4.545.06-.37-.029-.509-.361-.503Z"/><path fill="#fff" d="m64.546 46.428-4.037-4.531-1.65 1.468 2.568 2.88-3.108 2.77 1.471 1.651 3.105-2.77 1.65-1.468Z"/></svg>