<svg width="90" height="90" fill="none" xmlns="http://www.w3.org/2000/svg"><circle cx="45" cy="45" r="45" fill="#ECF7FF"/><path d="M23.695 54.94h-8.687v-5.993h8.687c0-2.107-.103-4.072.027-6.024.168-2.507.23-5.078.855-7.494 2.97-11.506 13.811-19.155 25.907-18.438 11.764.673 21.538 9.608 23.247 21.2.504 3.41.277 6.885-.666 10.203a24.539 24.539 0 0 1-4.811 9.06 25.001 25.001 0 0 1-8.13 6.362 25.38 25.38 0 0 1-10.05 2.573c-2.346.104-4.698.037-7.046.05h-1.505V75h-6.088v-8.544h-11.74V54.94Zm11.72-6.118V46.87c.057-2.355-.13-4.748.238-7.066.992-6.226 6.838-10.877 13.115-10.658 6.806.24 12.098 5.17 12.803 11.93.615 6.023-3.785 12.013-9.983 13.437a22.534 22.534 0 0 1-4.267.4c-1.893.068-3.79.017-5.695.017v5.745c3.658-.162 7.261 0 10.752-.536 8.225-1.275 14.625-8.21 15.517-16.364a18.623 18.623 0 0 0-2.502-11.55 19.071 19.071 0 0 0-8.988-7.823 19.448 19.448 0 0 0-11.952-1.03A19.216 19.216 0 0 0 34.22 29.54c-4.957 5.677-4.738 12.404-4.42 19.282h5.613Zm6.153.057c2.567 0 4.998.068 7.422 0 3.603-.12 6.454-3.15 6.495-6.767.041-3.617-2.8-6.683-6.362-6.895-3.856-.229-7.23 2.355-7.521 5.956-.188 2.494-.034 5.024-.034 7.706ZM29.783 60.41h5.549v-5.361h-5.549v5.36Z" fill="url(#a)"/><defs><linearGradient id="a" x1="27.951" y1="28.396" x2="78.823" y2="80.077" gradientUnits="userSpaceOnUse"><stop stop-color="#4B85EC"/><stop offset=".62" stop-color="#335AD3"/></linearGradient></defs></svg>