<?xml version="1.0" encoding="UTF-8"?><svg id="a" xmlns="http://www.w3.org/2000/svg" viewBox="0 0 90 90"><defs><style>.c{fill:#f5f5f5;}.d{fill:#3c9c3c;fill-rule:evenodd;}</style></defs><circle class="c" cx="45" cy="45" r="45"/><path id="b" class="d" d="M64.21,16.01c-.08,.02-1.58,1.47-3.33,3.23-3.09,3.1-3.56,3.5-3.56,3.11,0-.04-.07-.08-.15-.08s-.15-.03-.15-.08-.09-.08-.19-.08c-.12,0-.19-.04-.19-.11s-.07-.11-.19-.11c-.1,0-.19-.03-.19-.08s-.05-.08-.11-.08-.11-.05-.11-.11-.07-.11-.15-.11-.17-.03-.19-.08-.15-.08-.27-.08-.22-.03-.22-.08-.09-.08-.19-.08c-.12,0-.19-.04-.19-.11s-.07-.11-.19-.11c-.1,0-.19-.03-.19-.08s-.08-.08-.18-.08-.2-.05-.23-.11c-.03-.07-.14-.11-.27-.11s-.23-.03-.23-.08-.12-.08-.27-.08-.27-.03-.27-.08-.12-.08-.26-.08c-.16,0-.27-.04-.3-.11-.03-.07-.14-.11-.31-.11-.15,0-.27-.03-.27-.08s-.12-.08-.27-.08c-.19,0-.27-.03-.27-.11s-.09-.11-.34-.11c-.19,0-.36-.03-.39-.08-.03-.04-.2-.08-.38-.08s-.34-.03-.34-.08-.2-.08-.46-.08c-.35,0-.46-.03-.46-.11s-.11-.11-.57-.11c-.33,0-.57-.03-.57-.08s-.38-.08-.99-.08c-.83,0-.99-.02-.99-.11,0-.17-3.33-.17-3.39,0-.04,.09-.21,.11-.95,.11-.55,0-.9,.03-.9,.08s-.23,.08-.53,.08c-.41,0-.55,.03-.58,.11s-.16,.11-.49,.11c-.25,0-.45,.03-.45,.08s-.19,.08-.42,.08-.42,.03-.42,.08-.14,.08-.3,.08c-.22,0-.3,.03-.3,.11s-.09,.11-.34,.11c-.19,0-.34,.03-.34,.08s-.12,.08-.27,.08c-.17,0-.28,.04-.31,.11s-.14,.11-.3,.11c-.14,0-.26,.03-.26,.08s-.12,.08-.27,.08-.27,.03-.27,.08-.09,.08-.19,.08c-.12,0-.19,.04-.19,.11s-.07,.11-.19,.11c-.1,0-.19,.03-.19,.08s-.12,.08-.27,.08c-.19,0-.27,.03-.27,.11,0,.06-.07,.11-.15,.11s-.17,.03-.19,.08c-.03,.04-.11,.08-.19,.08s-.15,.03-.15,.08-.09,.08-.19,.08c-.12,0-.19,.04-.19,.11s-.07,.11-.19,.11c-.1,0-.19,.03-.19,.08s-.09,.08-.19,.08c-.12,0-.19,.04-.19,.11,0,.06-.07,.11-.15,.11s-.15,.03-.15,.08-.05,.08-.11,.08-.11,.03-.11,.08-.09,.08-.19,.08c-.12,0-.19,.04-.19,.11,0,.06-.07,.11-.15,.11s-.15,.03-.15,.08-.05,.08-.11,.08-.11,.05-.11,.11c0,.07-.07,.11-.17,.11-.09,0-.22,.07-.28,.15-.06,.08-.19,.15-.28,.15s-.17,.04-.17,.08c0,.12-.2,.3-.34,.3-.07,0-.14,.05-.17,.11-.02,.06-.08,.11-.13,.11s-.14,.07-.2,.15-.16,.15-.22,.15-.31,.21-.55,.46c-.24,.25-.48,.46-.53,.46s-.26,.17-.46,.38-.39,.38-.41,.38c-.08,0-.26,.21-.26,.3,0,.04-.04,.08-.08,.08-.09,0-.3,.19-.3,.27,0,.06-.2,.27-.27,.27s-.27,.21-.27,.28c0,.03-.09,.13-.19,.21s-.19,.19-.19,.25c0,.13-.18,.33-.3,.33-.05,0-.08,.04-.08,.08s-.12,.19-.27,.33-.27,.31-.27,.38-.03,.12-.08,.12-.08,.05-.08,.11-.04,.11-.08,.11c-.13,0-.3,.21-.3,.37,0,.09-.04,.16-.08,.16-.11,0-.3,.19-.3,.3,0,.04-.03,.08-.08,.08s-.08,.09-.08,.19-.04,.19-.08,.19c-.13,0-.3,.21-.3,.37,0,.09-.04,.16-.09,.16-.12,0-.29,.23-.29,.4,0,.07-.04,.13-.08,.13s-.08,.09-.08,.19c0,.12-.04,.19-.11,.19-.06,0-.11,.07-.11,.15s-.03,.15-.08,.15-.08,.05-.08,.11-.03,.11-.07,.11-.1,.09-.12,.19c-.03,.1-.08,.19-.12,.19s-.07,.07-.07,.15-.03,.17-.08,.19c-.04,.03-.08,.11-.08,.19s-.05,.16-.11,.18-.11,.11-.11,.19-.03,.17-.08,.2c-.04,.03-.08,.14-.08,.26s-.05,.23-.11,.26c-.06,.02-.11,.11-.11,.2s-.03,.15-.08,.15-.08,.09-.08,.19-.03,.19-.08,.19-.08,.12-.08,.27c0,.19-.03,.27-.11,.27s-.11,.08-.11,.27c0,.15-.03,.27-.08,.27s-.08,.12-.08,.26c0,.16-.04,.27-.11,.3s-.11,.14-.11,.31c0,.15-.03,.27-.08,.27s-.08,.12-.08,.27-.03,.27-.08,.27-.08,.15-.08,.33c0,.23-.04,.35-.11,.38-.08,.03-.11,.15-.11,.38,0,.19-.03,.36-.08,.39-.04,.03-.08,.26-.08,.51,0,.35-.03,.49-.13,.56-.21,.15-.21,8.74,0,8.89,.1,.08,.13,.21,.13,.6,0,.29,.03,.5,.08,.5s.08,.17,.08,.38c0,.29,.03,.38,.11,.38s.11,.09,.11,.34c0,.19,.03,.34,.08,.34s.08,.14,.08,.3,.03,.3,.08,.3,.08,.12,.08,.26,.05,.31,.11,.37c.06,.06,.11,.19,.11,.27s.03,.16,.08,.16,.08,.12,.08,.27c0,.19,.03,.27,.11,.27s.11,.08,.11,.27c0,.15,.03,.27,.08,.27s.08,.09,.08,.19,.03,.19,.08,.19,.08,.08,.08,.18,.05,.24,.11,.3c.06,.06,.11,.18,.11,.27s.03,.16,.08,.16,.08,.09,.08,.19c0,.12,.04,.19,.11,.19s.11,.07,.11,.19c0,.1,.03,.19,.08,.19s.08,.07,.08,.16,.04,.21,.1,.26c.24,.27,.29,.34,.29,.49,0,.09,.03,.16,.08,.16s.08,.05,.08,.11,.05,.11,.11,.11,.11,.07,.11,.15,.03,.15,.08,.15,.08,.07,.08,.16,.09,.24,.19,.34,.19,.23,.19,.29,.03,.12,.08,.12,.08,.05,.08,.11,.05,.11,.11,.11,.11,.06,.11,.14,.07,.21,.15,.3,.15,.2,.15,.24,.09,.16,.19,.27c.1,.1,.19,.23,.19,.27s.05,.08,.11,.08,.11,.07,.11,.15,.03,.15,.08,.15,.08,.04,.08,.08c0,.1,.19,.3,.3,.3,.04,0,.08,.04,.08,.08,0,.11,.19,.3,.3,.3,.05,0,.08,.07,.08,.16,0,.16,.69,.91,.83,.91,.04,0,.08,.04,.08,.08,0,.1,.73,.83,.83,.83,.04,0,.08,.04,.08,.08,0,.09,.19,.3,.27,.3s.27,.21,.27,.3c0,.04,.07,.08,.16,.08,.15,0,.37,.16,.37,.27,0,.06,.2,.27,.27,.27,.03,0,.12,.09,.2,.19,.08,.1,.2,.19,.26,.19s.23,.12,.36,.27c.14,.15,.32,.27,.41,.27s.16,.04,.16,.08c0,.12,.2,.3,.34,.3s.34,.18,.34,.3c0,.05,.08,.08,.17,.08s.24,.09,.31,.19c.08,.1,.21,.19,.28,.19s.14,.03,.14,.08,.08,.08,.17,.08,.24,.09,.31,.19c.08,.1,.21,.19,.28,.19s.14,.03,.14,.08,.09,.08,.19,.08c.12,0,.19,.04,.19,.11s.07,.11,.19,.11c.1,0,.19,.03,.19,.08s.09,.08,.19,.08,.19,.03,.19,.08,.06,.08,.14,.08,.16,.05,.19,.11c.02,.06,.11,.11,.2,.11s.15,.03,.15,.08,.05,.08,.11,.08c.07,0,.11,.07,.11,.19s-.04,.19-.11,.19c-.08,0-.11,.08-.11,.27,0,.15-.03,.27-.08,.27s-.08,.07-.08,.16-.05,.21-.11,.27-.11,.2-.11,.29-.03,.2-.08,.23c-.04,.03-.08,.16-.08,.31s-.03,.26-.08,.26-.08,.07-.08,.15-.05,.17-.11,.2c-.07,.03-.11,.14-.11,.3,0,.14-.03,.26-.08,.26s-.08,.12-.08,.27c0,.19-.03,.27-.11,.27-.07,0-.11,.07-.11,.19,0,.1-.03,.19-.08,.19s-.08,.12-.08,.27-.03,.27-.08,.27-.08,.12-.08,.27c0,.19-.03,.27-.11,.27-.07,0-.11,.07-.11,.19,0,.1-.03,.19-.08,.19s-.08,.12-.08,.27c0,.19-.03,.27-.11,.27-.07,0-.11,.07-.11,.19,0,.1-.03,.19-.08,.19s-.08,.15-.08,.34-.03,.34-.08,.34-.08,.12-.08,.27,.03,.27,.08,.27,.08,.14,.08,.3,.03,.3,.08,.3,.08,.07,.08,.15,.05,.15,.11,.15,.11,.05,.11,.1c0,.13,.39,.2,1.11,.2,.68,0,1.02-.06,1.02-.2,0-.06,.04-.1,.08-.1,.12,0,.3-.2,.3-.34,0-.07,.05-.18,.11-.24s.11-.2,.11-.3,.03-.18,.08-.18,.08-.12,.08-.27,.03-.27,.08-.27,.08-.08,.08-.18,.05-.2,.11-.23c.07-.03,.11-.14,.11-.27s.03-.23,.08-.23,.08-.12,.08-.26c0-.16,.04-.27,.11-.3,.06-.02,.11-.11,.11-.19s.03-.17,.08-.2c.04-.03,.08-.15,.08-.27s.03-.22,.08-.22,.08-.14,.08-.3c0-.22,.03-.3,.11-.3,.06,0,.11-.07,.11-.15s.03-.17,.08-.19,.08-.16,.08-.31c0-.18,.03-.26,.11-.26s.11-.08,.11-.27c0-.15,.03-.27,.08-.27s.08-.09,.08-.19,.03-.19,.08-.19,.08-.12,.08-.27c0-.19,.03-.27,.11-.27,.07,0,.11-.07,.11-.19,0-.1,.03-.19,.08-.19s.08-.07,.08-.15,.05-.15,.11-.15,.11,.03,.11,.08,.15,.08,.34,.08,.36,.03,.38,.08c.03,.04,.2,.08,.38,.08,.22,0,.34,.04,.37,.11,.03,.08,.16,.11,.46,.11,.23,0,.42,.03,.42,.08s.23,.08,.54,.08c.38,0,.57,.03,.65,.11,.09,.09,.31,.11,.95,.11,.5,0,.83,.03,.83,.08s.68,.08,1.9,.08,1.9-.03,1.9-.08,.34-.08,.88-.08c.71,0,.89-.02,.92-.11,.03-.09,.17-.11,.57-.11,.3,0,.52-.03,.52-.08s.2-.08,.46-.08c.35,0,.46-.03,.46-.11s.09-.11,.38-.11c.21,0,.38-.03,.38-.08s.15-.08,.34-.08,.34-.03,.34-.08,.09-.08,.19-.08c.17,0,.19,.03,.19,.27,0,.19,.03,.27,.11,.27,.07,0,.11,.07,.11,.19,0,.1,.03,.19,.08,.19s.08,.12,.08,.27,.03,.27,.08,.27,.08,.08,.08,.18,.05,.24,.11,.3,.11,.18,.11,.27,.03,.16,.08,.16,.08,.12,.08,.27c0,.19,.03,.27,.11,.27s.11,.08,.11,.27c0,.15,.03,.27,.08,.27s.08,.09,.08,.19,.03,.19,.08,.19,.08,.1,.08,.23,.05,.25,.11,.27c.07,.03,.11,.14,.11,.3,0,.14,.03,.26,.08,.26s.08,.09,.08,.19c0,.12,.04,.19,.11,.19,.08,0,.11,.08,.11,.27,0,.15,.03,.27,.08,.27s.08,.09,.08,.19,.03,.19,.08,.19,.08,.12,.08,.27c0,.19,.03,.27,.11,.27s.11,.08,.11,.27c0,.15,.03,.27,.08,.27s.08,.05,.08,.11,.04,.11,.08,.11c.1,0,.3,.19,.3,.29,0,.13,.22,.17,.99,.17,.81,0,.99-.04,.99-.2,0-.06,.04-.11,.08-.11,.11,0,.3-.19,.3-.3,0-.04,.03-.08,.08-.08,.04,0,.08-.28,.08-.68s-.03-.68-.08-.68c-.04,0-.08-.12-.08-.26s-.03-.28-.08-.31c-.04-.03-.08-.13-.08-.23s-.05-.23-.11-.29-.11-.19-.11-.27-.03-.16-.08-.16-.08-.12-.08-.27c0-.19-.03-.27-.11-.27s-.11-.08-.11-.27c0-.15-.03-.27-.08-.27s-.08-.09-.08-.19-.03-.19-.08-.19-.08-.1-.08-.23-.05-.25-.11-.27-.11-.13-.11-.23-.03-.18-.08-.18-.08-.12-.08-.27c0-.19-.03-.27-.11-.27s-.11-.08-.11-.27c0-.15-.03-.27-.08-.27s-.08-.09-.08-.19-.03-.19-.08-.19-.08-.1-.08-.23c0-.14-.05-.25-.11-.27-.07-.03-.11-.14-.11-.3,0-.14-.03-.26-.08-.26s-.08-.09-.08-.19c0-.12-.04-.19-.11-.19-.06,0-.11-.05-.11-.11s.05-.11,.11-.11,.11-.03,.11-.08,.1-.08,.23-.08,.25-.05,.27-.11,.13-.11,.23-.11,.18-.03,.18-.08,.07-.08,.15-.08,.15-.03,.15-.07,.09-.09,.19-.12c.1-.03,.19-.08,.19-.12s.09-.07,.19-.07,.19-.03,.19-.08,.05-.08,.11-.08,.11-.05,.11-.11,.07-.11,.15-.11,.15-.03,.15-.08,.07-.08,.16-.08,.24-.09,.34-.19c.1-.1,.23-.19,.29-.19s.12-.03,.12-.08,.05-.08,.11-.08,.11-.05,.11-.11c0-.07,.07-.11,.17-.11s.22-.07,.28-.15,.17-.15,.23-.15,.19-.09,.27-.19c.08-.1,.2-.19,.27-.19s.19-.09,.27-.19c.08-.1,.17-.19,.21-.19,.09,0,.28-.2,.28-.3,0-.04,.07-.08,.16-.08,.17,0,.37-.16,.37-.3,0-.05,.04-.08,.08-.08,.1,0,.83-.73,.83-.83,0-.04,.05-.08,.11-.08s.11-.03,.11-.08,.05-.08,.11-.08c.17,0,.57-.43,.57-.61,0-.08,.04-.15,.08-.15,.1,0,.83-.73,.83-.83,0-.04,.04-.08,.08-.08,.12,0,.43-.33,.49-.52,.03-.09,.08-.16,.12-.16s.07-.04,.07-.08c0-.09,.19-.3,.27-.3,.09,0,.26-.26,.26-.4,0-.07,.05-.13,.12-.13s.11-.04,.11-.1,.07-.15,.15-.21c.08-.06,.15-.19,.15-.28s.04-.17,.09-.17c.12,0,.29-.23,.29-.4,0-.07,.05-.13,.12-.13s.11-.07,.11-.17,.07-.22,.15-.28c.08-.06,.15-.19,.15-.28,0-.1,.05-.17,.11-.17s.11-.07,.11-.16,.09-.24,.19-.35c.1-.1,.19-.24,.19-.3s.03-.11,.08-.11,.08-.09,.08-.19,.03-.19,.08-.19,.08-.09,.08-.19c0-.12,.04-.19,.11-.19,.06,0,.11-.07,.11-.15s.03-.15,.08-.15,.08-.08,.08-.18,.05-.2,.11-.23c.06-.02,.11-.11,.11-.2s.03-.15,.08-.15,.08-.12,.08-.27,.03-.27,.08-.27,.08-.08,.08-.18,.05-.2,.11-.23c.07-.03,.11-.14,.11-.27s.03-.23,.08-.23,.08-.12,.08-.26c0-.16,.04-.27,.11-.3s.11-.14,.11-.31c0-.15,.03-.27,.08-.27s.08-.12,.08-.27,.03-.27,.08-.27,.08-.15,.08-.34c0-.25,.03-.34,.11-.34s.11-.09,.11-.38c0-.21,.03-.38,.08-.38s.08-.2,.08-.46c0-.35,.03-.46,.11-.46s.11-.1,.11-.46c0-.25,.03-.46,.08-.46s.08-.33,.08-.84,.03-.84,.08-.84,.08-.86,.08-2.43-.03-2.43-.08-2.43-.08-.29-.08-.72-.03-.72-.08-.72-.08-.23-.08-.53c0-.41-.03-.55-.11-.58-.08-.03-.11-.16-.11-.49,0-.25-.03-.45-.08-.45s-.08-.15-.08-.34c0-.25-.03-.34-.11-.34s-.11-.09-.11-.38c0-.21-.03-.38-.08-.38s-.08-.12-.08-.27-.03-.27-.08-.27-.08-.12-.08-.27c0-.19-.03-.27-.11-.27s-.11-.08-.11-.26c0-.14-.03-.28-.08-.31-.04-.03-.08-.15-.08-.27s-.05-.24-.11-.27c-.06-.02-.11-.13-.11-.23s-.03-.18-.08-.18-.08-.07-.08-.15-.03-.15-.08-.15-.08-.08-.08-.18-.05-.24-.11-.3c-.06-.06-.11-.18-.11-.27s-.03-.16-.08-.16-.08-.09-.08-.19c0-.12-.04-.19-.11-.19s-.11-.07-.11-.19c0-.1-.03-.19-.08-.19s-.08-.07-.08-.16-.04-.21-.09-.26c-.23-.25-.29-.34-.29-.41,0-.04-.03-.08-.08-.08s-.08-.09-.08-.19c0-.12-.04-.19-.11-.19s-.11-.07-.11-.19c0-.1,.04-.19,.08-.19,.1,0,.83-.73,.83-.83,0-.04,.04-.08,.08-.08,.1,0,.83-.73,.83-.83,0-.04,.04-.08,.08-.08,.1,0,.83-.73,.83-.83,0-.04,.04-.08,.08-.08,.1,0,.83-.73,.83-.83,0-.04,.04-.08,.08-.08,.1,0,.83-.73,.83-.83,0-.04,.04-.08,.08-.08,.1,0,.83-.73,.83-.83,0-.04,.04-.08,.08-.08,.1,0,.83-.73,.83-.83,0-.04,.04-.08,.08-.08,.12,0,.3-.2,.3-.34,0-.07,.05-.18,.11-.24,.08-.08,.11-.27,.11-.56s-.04-.48-.11-.56c-.06-.06-.11-.18-.11-.27s-.03-.16-.08-.16-.08-.05-.08-.11-.05-.11-.11-.11-.11-.03-.11-.08-.07-.08-.15-.08-.15-.03-.15-.08-1.03-.08-2.93-.08h-2.93v-2.74c0-2.38-.01-2.74-.11-2.74-.06,0-.11-.07-.11-.16,0-.42-1.38-.72-2.24-.48m-.42,5.92c0,.72-.03,1.1-.08,1.1-.1,0-.83,.73-.83,.83,0,.04-.04,.08-.08,.08-.1,0-.83,.73-.83,.83,0,.04-.04,.08-.08,.08-.1,0-.83,.73-.83,.83,0,.04-.04,.08-.08,.08-.1,0-.45,.35-.45,.45,0,.04-.04,.08-.08,.08-.11,0-.3,.19-.3,.3,0,.05-.04,.08-.08,.08-.1,0-.45,.35-.45,.45,0,.04-.04,.08-.08,.08-.1,0-.26,.15-.32,.31-.02,.06-.05-.38-.05-.97v-1.09l2.29-2.31,2.32-2.32s.02,.49,.02,1.1m-16.81,.23c0,.09,.11,.11,.53,.11,.3,0,.53,.03,.53,.08s.2,.08,.45,.08c.33,0,.46,.03,.49,.11s.15,.11,.39,.11c.19,0,.34,.03,.34,.08s.15,.08,.34,.08,.34,.03,.34,.08,.14,.08,.3,.08c.22,0,.3,.03,.3,.11s.08,.11,.27,.11c.15,0,.27,.03,.27,.08s.12,.08,.26,.08c.16,0,.27,.04,.3,.11,.03,.07,.14,.11,.27,.11s.23,.03,.23,.08,.09,.08,.19,.08,.19,.03,.19,.08,.08,.08,.18,.08,.2,.05,.23,.11c.02,.06,.11,.11,.2,.11s.15,.03,.15,.08,.12,.08,.27,.08,.27,.04,.27,.09c0,.12,.23,.29,.4,.29,.07,0,.13,.04,.13,.08s.09,.08,.19,.08c.32,0,.25,.09-2.06,2.39-2.16,2.16-2.46,2.41-2.57,2.13-.03-.07-.14-.11-.27-.11s-.23-.03-.23-.08-.12-.08-.26-.08c-.16,0-.27-.04-.3-.11-.03-.07-.14-.11-.31-.11-.15,0-.27-.03-.27-.08s-.15-.08-.34-.08-.34-.03-.34-.08-.23-.08-.52-.08c-.4,0-.53-.03-.57-.11-.03-.09-.19-.11-.77-.11-.43,0-.73-.03-.73-.08s-.47-.08-1.25-.08-1.25,.03-1.25,.08-.32,.08-.8,.08c-.64,0-.81,.02-.84,.11-.03,.08-.16,.11-.49,.11-.25,0-.45,.03-.45,.08s-.15,.08-.34,.08-.34,.03-.34,.08-.12,.08-.27,.08c-.19,0-.27,.03-.27,.11s-.08,.11-.3,.11c-.17,0-.3,.03-.3,.08s-.12,.08-.27,.08c-.19,0-.27,.03-.27,.11s-.08,.11-.27,.11c-.15,0-.27,.03-.27,.08s-.09,.08-.19,.08-.19,.03-.19,.08-.07,.08-.15,.08-.17,.05-.2,.11c-.02,.06-.11,.11-.19,.11s-.14,.03-.14,.08-.07,.08-.15,.08-.17,.05-.2,.11c-.02,.06-.12,.11-.21,.11s-.21,.07-.27,.15-.19,.15-.28,.15c-.1,0-.17,.05-.17,.11s-.05,.11-.11,.11-.11,.03-.11,.08-.07,.08-.15,.08-.15,.05-.15,.11-.05,.11-.11,.11-.11,.03-.11,.08-.07,.08-.15,.08-.15,.03-.15,.08-.05,.08-.11,.08-.11,.04-.11,.08c0,.09-.19,.3-.27,.3s-.27,.21-.27,.3c0,.04-.08,.08-.18,.08-.11,0-.21,.07-.28,.19-.06,.1-.15,.19-.2,.19s-.1,.03-.1,.06c0,.09-.35,.47-.43,.47-.04,0-.12,.09-.17,.19-.06,.1-.15,.19-.2,.19s-.1,.07-.1,.15-.03,.15-.08,.15-.08,.05-.08,.11-.04,.11-.08,.11-.13,.05-.19,.11c-.06,.06-.11,.15-.11,.19s-.03,.08-.08,.08-.08,.07-.08,.15-.05,.15-.11,.15-.11,.04-.11,.09-.06,.14-.14,.21c-.08,.07-.17,.2-.2,.29-.03,.09-.09,.17-.13,.17s-.07,.05-.07,.11-.03,.11-.08,.11-.08,.07-.08,.15-.05,.15-.11,.15c-.07,0-.11,.07-.11,.19,0,.1-.03,.19-.08,.19s-.08,.05-.08,.11-.03,.11-.06,.11c-.08,0-.32,.44-.32,.58,0,.06-.03,.11-.08,.11s-.08,.08-.08,.18-.05,.2-.11,.23c-.07,.03-.11,.14-.11,.27s-.03,.23-.08,.23-.08,.07-.08,.16-.05,.21-.11,.27-.11,.2-.11,.3-.03,.18-.08,.18-.08,.12-.08,.27-.03,.27-.08,.27-.08,.17-.08,.38c0,.29-.03,.38-.11,.38s-.11,.09-.11,.34c0,.19-.03,.36-.08,.39-.04,.03-.08,.24-.08,.47,0,.27-.04,.46-.11,.53-.17,.17-.17,4.98,0,5.15,.07,.07,.11,.26,.11,.54,0,.23,.03,.42,.08,.42s.08,.15,.08,.34c0,.25,.03,.34,.11,.34s.11,.09,.11,.38c0,.21,.03,.38,.08,.38s.08,.12,.08,.27,.03,.27,.08,.27,.08,.1,.08,.23,.05,.25,.11,.27,.11,.13,.11,.23,.03,.18,.08,.18,.08,.12,.08,.27c0,.19,.03,.27,.11,.27,.07,0,.11,.07,.11,.19,0,.1,.03,.19,.08,.19s.08,.09,.08,.19,.03,.19,.08,.19,.08,.05,.08,.11,.09,.2,.19,.3,.19,.26,.19,.35,.05,.16,.11,.16c.07,0,.11,.07,.11,.17,0,.09,.07,.22,.15,.28,.08,.06,.15,.15,.15,.2s.09,.18,.19,.28,.19,.26,.19,.35,.05,.16,.11,.16,.11,.04,.11,.08c0,.1,.35,.45,.45,.45,.04,0,.08,.05,.08,.11s.03,.11,.08,.11,.08,.06,.08,.12,.21,.32,.46,.57c.25,.24,.46,.48,.46,.52s.04,.08,.08,.08,.2,.12,.34,.27,.31,.27,.37,.27,.12,.03,.12,.08,.05,.08,.11,.08,.11,.04,.11,.08c0,.11,.19,.3,.3,.3,.04,0,.08,.03,.08,.08s.07,.08,.15,.08,.15,.05,.15,.11,.05,.11,.11,.11,.11,.03,.11,.08,.07,.08,.15,.08,.15,.05,.15,.11,.05,.11,.11,.11,.11,.03,.11,.08,.08,.08,.17,.08,.24,.09,.31,.19c.08,.1,.21,.19,.28,.19s.14,.03,.14,.08,.09,.08,.19,.08c.12,0,.19,.04,.19,.11,0,.06,.07,.11,.15,.11s.15,.03,.15,.08,.09,.08,.19,.08,.19,.03,.19,.08,.08,.08,.18,.08,.2,.05,.23,.11c.03,.07,.14,.11,.27,.11s.23,.03,.23,.08,.08,.08,.18,.08,.2,.05,.23,.11c.03,.07,.14,.11,.27,.11,.12,0,.25,.03,.27,.08,.03,.04,.2,.08,.39,.08s.34,.03,.34,.08,.15,.08,.33,.08c.23,0,.35,.04,.38,.11,.03,.08,.16,.11,.46,.11,.23,0,.42,.03,.42,.08s.3,.08,.76,.08c.63,0,.76,.02,.76,.11s.21,.11,1.41,.11,1.42-.02,1.45-.11,.19-.11,.76-.11c.43,0,.71-.03,.71-.08,0-.04,.2-.08,.46-.08,.35,0,.46-.03,.46-.11s.09-.11,.34-.11c.19,0,.36-.03,.38-.08,.03-.04,.16-.08,.31-.08s.26-.03,.26-.08,.12-.08,.27-.08c.19,0,.27-.03,.27-.11s.08-.11,.27-.11c.15,0,.27-.03,.27-.08s.09-.08,.19-.08c.12,0,.19-.04,.19-.11,0-.08,.08-.11,.27-.11,.15,0,.27-.03,.27-.08s.09-.08,.19-.08,.19-.03,.19-.08,.06-.08,.14-.08,.21-.09,.28-.19c.08-.1,.22-.19,.31-.19,.1,0,.17-.05,.17-.11s.07-.11,.17-.11,.22-.07,.28-.15,.19-.15,.28-.15,.17-.04,.17-.08c0-.13,.21-.3,.37-.3,.09,0,.16-.05,.16-.11s.04-.11,.1-.11,.15-.07,.21-.15,.16-.15,.22-.15,.31-.21,.55-.46c.24-.25,.48-.46,.52-.46s.08-.04,.08-.08c0-.11,.19-.3,.3-.3,.04,0,.08-.04,.08-.08,0-.1,.35-.45,.45-.45,.04,0,.08-.04,.08-.08s.15-.23,.34-.41c.19-.19,.34-.4,.34-.49s.04-.16,.08-.16c.09,0,.3-.19,.3-.26,0-.04,.08-.15,.29-.38,.05-.06,.09-.14,.09-.19s.03-.08,.08-.08,.08-.09,.08-.19c0-.12,.04-.19,.11-.19,.06,0,.11-.07,.11-.15s.03-.15,.08-.15,.08-.05,.08-.11,.03-.11,.07-.11,.1-.09,.12-.19c.03-.1,.08-.19,.12-.19s.07-.07,.07-.15,.03-.15,.08-.15,.08-.09,.08-.19c0-.12,.04-.19,.11-.19s.11-.07,.11-.19c0-.1,.03-.19,.08-.19s.08-.12,.08-.26c0-.16,.04-.27,.11-.3,.06-.02,.11-.11,.11-.2s.03-.15,.08-.15,.08-.12,.08-.27,.03-.27,.08-.27,.08-.17,.08-.38c0-.29,.03-.38,.11-.38s.11-.08,.11-.27c0-.15,.03-.27,.08-.27s.08-.2,.08-.45c0-.33,.03-.46,.11-.49,.09-.03,.11-.18,.11-.65,0-.36,.03-.61,.08-.61s.08-.68,.08-1.9-.03-1.9-.08-1.9c-.04,0-.08-.25-.08-.61,0-.47-.03-.62-.11-.65-.08-.03-.11-.16-.11-.45,0-.22-.03-.43-.08-.45s-.08-.16-.08-.31c0-.18-.03-.26-.11-.26s-.11-.09-.11-.34c0-.19-.03-.34-.08-.34s-.08-.09-.08-.19-.03-.19-.08-.19-.08-.12-.08-.27c0-.17-.04-.28-.11-.31-.18-.07-.13-.24,.15-.52,.15-.14,.27-.3,.27-.34s.04-.08,.08-.08c.1,0,.83-.73,.83-.83,0-.04,.04-.08,.08-.08,.1,0,.83-.73,.83-.83,0-.04,.04-.08,.08-.08,.1,0,.83-.73,.83-.83,0-.04,.04-.08,.08-.08,.1,0,.83-.73,.83-.83,0-.04,.05-.08,.11-.08s.13-.04,.15-.09c.04-.08,.05-.08,.09,0,.02,.05,.09,.09,.15,.09s.11,.08,.11,.19c0,.1,.03,.19,.08,.19s.08,.09,.08,.19c0,.12,.04,.19,.11,.19s.11,.07,.11,.19c0,.1,.03,.19,.08,.19s.08,.09,.08,.19,.03,.19,.07,.19,.09,.12,.12,.27c.03,.15,.08,.27,.12,.27s.07,.07,.07,.15,.03,.17,.08,.19c.04,.03,.08,.15,.08,.27s.05,.24,.11,.27c.06,.02,.11,.13,.11,.23s.03,.18,.08,.18,.08,.12,.08,.27,.03,.27,.08,.27,.08,.1,.08,.23,.05,.25,.11,.27c.08,.03,.11,.15,.11,.37,0,.18,.03,.35,.08,.38,.04,.03,.08,.2,.08,.39,0,.25,.03,.34,.11,.34s.11,.09,.11,.38c0,.21,.03,.38,.08,.38s.08,.23,.08,.53,.03,.53,.08,.53,.08,.33,.08,.83c0,.64,.03,.86,.11,.95,.15,.15,.17,2.76,.02,2.81-.07,.02-.1,.3-.12,.92-.01,.49-.06,.89-.09,.89s-.07,.26-.07,.57c0,.33-.03,.57-.08,.57s-.08,.15-.08,.33c0,.23-.04,.35-.11,.38-.08,.03-.11,.15-.11,.39,0,.19-.03,.34-.08,.34s-.08,.15-.08,.33c0,.23-.04,.35-.11,.38-.07,.03-.11,.14-.11,.31,0,.15-.03,.27-.08,.27s-.08,.12-.08,.27-.03,.27-.08,.27-.08,.12-.08,.27c0,.19-.03,.27-.11,.27-.07,0-.11,.07-.11,.19,0,.1-.03,.19-.08,.19s-.08,.07-.08,.16-.05,.21-.11,.27-.11,.2-.11,.3-.03,.18-.08,.18-.08,.09-.08,.19-.03,.19-.08,.19-.08,.06-.08,.14-.05,.16-.11,.19c-.06,.02-.11,.11-.11,.2s-.03,.15-.08,.15-.08,.09-.08,.19c0,.12-.04,.19-.11,.19-.06,0-.11,.05-.11,.11s-.03,.11-.08,.11-.08,.07-.08,.15-.03,.15-.08,.15-.08,.09-.08,.19c0,.12-.04,.19-.11,.19s-.11,.07-.11,.17c0,.09-.09,.24-.19,.31-.1,.08-.19,.2-.19,.27s-.07,.17-.15,.23-.15,.15-.15,.2-.05,.11-.11,.13-.11,.1-.11,.18-.09,.2-.19,.28c-.1,.08-.19,.2-.19,.27s-.07,.17-.15,.23-.15,.15-.15,.21-.04,.1-.08,.1c-.09,0-.3,.19-.3,.26,0,.04-.08,.15-.29,.38-.05,.06-.1,.13-.1,.16,0,.06-.2,.27-.27,.27-.08,0-.27,.21-.27,.3,0,.04-.04,.08-.08,.08-.09,0-.3,.19-.3,.27,0,.06-.2,.27-.27,.27-.08,0-.27,.21-.27,.3,0,.04-.04,.08-.08,.08-.09,0-.3,.19-.3,.27,0,.1-.22,.27-.34,.27-.14,0-.72,.55-.72,.68,0,.04-.09,.08-.19,.08s-.19,.03-.19,.06-.09,.11-.19,.17c-.1,.06-.19,.15-.19,.2s-.06,.1-.13,.1c-.16,0-.4,.17-.4,.29,0,.05-.07,.09-.16,.09s-.22,.06-.29,.14c-.07,.08-.2,.17-.29,.2-.09,.03-.17,.09-.17,.13s-.05,.07-.11,.07-.11,.03-.11,.08-.07,.08-.15,.08-.15,.05-.15,.11c0,.07-.07,.11-.19,.11-.1,0-.19,.03-.19,.08s-.07,.08-.16,.08c-.17,0-.37,.16-.37,.3,0,.04-.09,.08-.19,.08s-.19,.03-.19,.08-.09,.08-.19,.08c-.12,0-.19,.04-.19,.11,0,.08-.08,.11-.27,.11-.15,0-.27,.03-.27,.08s-.09,.08-.19,.08-.19,.03-.19,.08-.07,.08-.15,.08-.17,.05-.2,.11c-.03,.07-.14,.11-.3,.11-.14,0-.26,.03-.26,.08s-.1,.08-.23,.08-.25,.05-.27,.11c-.03,.07-.14,.11-.3,.11-.14,0-.26,.03-.26,.08s-.12,.08-.26,.08-.28,.03-.31,.08c-.03,.04-.15,.08-.27,.08-.13,0-.24,.05-.27,.11-.03,.08-.16,.11-.45,.11-.22,0-.43,.03-.45,.08-.03,.04-.2,.08-.38,.08-.25,0-.34,.03-.34,.11,0,.09-.12,.11-.65,.11-.38,0-.65,.03-.65,.08s-.42,.08-1.1,.08-1.1,.03-1.1,.08c0,.04-.24,.08-.57,.08s-.57-.03-.57-.08-.44-.08-1.18-.08-1.18-.03-1.18-.08c0-.04-.23-.08-.53-.08-.42,0-.53-.02-.53-.11s-.1-.11-.46-.11c-.25,0-.46-.03-.46-.08s-.17-.08-.37-.08c-.26,0-.39-.03-.42-.11s-.15-.11-.35-.11c-.17,0-.31-.03-.31-.08s-.14-.08-.3-.08-.3-.03-.3-.08-.12-.08-.27-.08c-.19,0-.27-.03-.27-.11s-.08-.11-.27-.11c-.15,0-.27-.03-.27-.08s-.08-.08-.18-.08-.2-.05-.23-.11c-.03-.07-.14-.11-.27-.11s-.23-.03-.23-.08-.09-.08-.19-.08-.19-.03-.19-.08-.09-.08-.19-.08c-.12,0-.19-.04-.19-.11,0-.06-.07-.11-.15-.11s-.17-.03-.19-.08c-.03-.04-.11-.08-.19-.08s-.16-.05-.18-.11-.11-.11-.2-.11-.15-.03-.15-.08-.09-.08-.19-.08-.19-.03-.19-.08-.09-.08-.19-.08-.19-.04-.19-.08c0-.13-.21-.3-.37-.3-.09,0-.16-.04-.16-.09,0-.11-.23-.29-.37-.29-.06,0-.18-.09-.28-.19s-.23-.19-.29-.19-.12-.03-.12-.08-.05-.08-.11-.08-.13-.05-.15-.11-.1-.11-.16-.11-.12-.03-.12-.08-.04-.08-.08-.08c-.11,0-.3-.19-.3-.3,0-.04-.05-.08-.11-.08s-.11-.03-.11-.08-.05-.08-.12-.08-.23-.12-.37-.27-.3-.27-.34-.27-.08-.04-.08-.08c0-.09-.19-.3-.27-.3-.06,0-.27-.2-.27-.27s-.21-.27-.29-.27c-.04,0-.11-.09-.17-.19-.06-.1-.13-.19-.17-.19-.08,0-.29-.19-.29-.27s-.21-.27-.3-.27c-.04,0-.08-.04-.08-.08s-.15-.23-.34-.42c-.19-.18-.34-.38-.34-.44s-.09-.17-.19-.25-.19-.17-.19-.2c0-.06-.07-.15-.29-.39-.05-.06-.09-.13-.09-.15,0-.08-.21-.27-.3-.27-.04,0-.08-.08-.08-.17s-.07-.22-.15-.28c-.08-.06-.15-.17-.15-.25s-.05-.16-.11-.18-.11-.09-.11-.15-.03-.11-.08-.11-.08-.07-.08-.15-.05-.15-.11-.15c-.07,0-.11-.07-.11-.19,0-.1-.03-.19-.08-.19s-.08-.05-.08-.11-.03-.11-.08-.11-.08-.07-.08-.15-.05-.15-.11-.15c-.07,0-.11-.07-.11-.19,0-.1-.03-.19-.08-.19s-.08-.09-.08-.19c0-.12-.04-.19-.11-.19s-.11-.07-.11-.19c0-.1-.03-.19-.08-.19s-.08-.12-.08-.27-.03-.27-.08-.27-.08-.07-.08-.15-.05-.17-.11-.2c-.06-.02-.11-.13-.11-.23s-.03-.18-.08-.18-.08-.1-.08-.23-.05-.25-.11-.27c-.07-.03-.11-.14-.11-.3,0-.14-.03-.26-.08-.26s-.08-.12-.08-.27-.03-.27-.08-.27-.08-.12-.08-.27c0-.19-.03-.27-.11-.27-.09,0-.11-.09-.11-.38,0-.21-.03-.38-.08-.38s-.08-.16-.08-.34c0-.24-.04-.36-.11-.39-.08-.03-.11-.16-.11-.49,0-.25-.03-.45-.08-.45s-.08-.28-.08-.68c0-.37-.03-.7-.08-.73-.05-.03-.08-.89-.08-2.32s.03-2.28,.08-2.28,.08-.29,.08-.72,.03-.72,.08-.72c.04,0,.08-.2,.08-.46,0-.35,.03-.46,.11-.46s.11-.09,.11-.38c0-.21,.03-.38,.08-.38s.08-.15,.08-.33c0-.23,.04-.35,.11-.38,.07-.03,.11-.14,.11-.27s.03-.25,.08-.27c.04-.03,.08-.16,.08-.31s.03-.26,.08-.26,.08-.12,.08-.27c0-.19,.03-.27,.11-.27s.11-.08,.11-.27c0-.15,.03-.27,.08-.27s.08-.08,.08-.18,.05-.2,.11-.23c.06-.02,.11-.11,.11-.2s.03-.15,.08-.15,.08-.12,.08-.27,.03-.27,.08-.27,.08-.09,.08-.19c0-.12,.04-.19,.11-.19,.06,0,.11-.07,.11-.15s.03-.15,.08-.15,.08-.07,.08-.16,.09-.23,.19-.33c.1-.1,.19-.23,.19-.3s.03-.14,.08-.17c.04-.03,.08-.11,.08-.19s.05-.15,.11-.15,.11-.07,.11-.16,.09-.24,.19-.35,.19-.24,.19-.3,.03-.11,.08-.11,.08-.05,.08-.11,.03-.11,.08-.11,.08-.07,.08-.15,.05-.15,.11-.15,.11-.04,.11-.08,.09-.16,.19-.27c.1-.1,.19-.23,.19-.28s.07-.14,.15-.2,.15-.15,.15-.2,.05-.11,.11-.13c.06-.02,.11-.1,.11-.17,0-.12,.17-.34,.27-.34,.06,0,.27-.2,.27-.27,0-.08,.21-.27,.3-.27,.04,0,.08-.04,.08-.08,0-.1,1.65-1.75,1.75-1.75,.04,0,.07-.04,.07-.08,0-.09,.19-.3,.26-.3,.04,0,.15-.08,.38-.29,.06-.05,.13-.09,.15-.09,.08,0,.27-.21,.27-.3,0-.04,.08-.08,.17-.08s.22-.07,.28-.15,.15-.15,.21-.15,.1-.05,.1-.11,.07-.11,.15-.11,.15-.03,.15-.08,.05-.08,.11-.08,.11-.05,.11-.11c0-.07,.07-.11,.17-.11s.22-.07,.28-.15,.17-.15,.25-.15,.16-.05,.18-.11c.02-.06,.1-.12,.17-.12,.16,0,.39-.18,.39-.29,0-.05,.09-.09,.19-.09s.19-.03,.19-.08,.09-.08,.19-.08,.19-.03,.19-.08,.07-.08,.15-.08,.17-.05,.2-.11c.02-.06,.11-.11,.19-.11s.14-.03,.14-.08,.09-.08,.19-.08c.12,0,.19-.04,.19-.11,0-.08,.08-.11,.27-.11,.15,0,.27-.03,.27-.08s.09-.08,.19-.08,.19-.03,.19-.08,.08-.08,.18-.08,.24-.05,.3-.11c.06-.06,.19-.11,.27-.11s.16-.03,.16-.08,.12-.08,.27-.08c.19,0,.27-.03,.27-.11,0-.09,.09-.11,.38-.11,.21,0,.38-.03,.38-.08s.12-.08,.27-.08,.27-.03,.27-.08,.16-.08,.34-.08c.24,0,.36-.04,.39-.11,.03-.08,.16-.11,.49-.11,.25,0,.45-.03,.45-.08,0-.04,.25-.08,.61-.08,.47,0,.62-.03,.65-.11,.04-.1,.42-.11,2.77-.11s2.73,.02,2.73,.11m21.37,2.93s-.05,.08-.11,.08-.11,.04-.11,.08c0,.11-.19,.3-.3,.3-.04,0-.08,.04-.08,.08,0,.1-.35,.45-.45,.45-.04,0-.08,.04-.08,.08,0,.11-.19,.3-.3,.3-.04,0-.08,.04-.08,.08,0,.1-.35,.45-.45,.45-.04,0-.08,.04-.08,.08,0,.11-.19,.3-.3,.3-.04,0-.08,.04-.08,.08,0,.1-.35,.45-.45,.45-.04,0-.08,.04-.08,.08,0,.11-.19,.3-.3,.3-.04,0-.08,.04-.08,.08,0,.1-.35,.45-.45,.45-.04,0-.08,.04-.08,.08,0,.11-.19,.3-.3,.3-.04,0-.08,.04-.08,.08,0,.36-.33,.45-1.63,.45-.79,0-1.26-.03-1.26-.08,0-.04,.03-.08,.08-.08s.08-.05,.08-.11,.04-.11,.08-.11c.1,0,.45-.35,.45-.45,0-.04,.04-.08,.08-.08,.11,0,.3-.19,.3-.3,0-.04,.04-.08,.08-.08,.1,0,.45-.35,.45-.45,0-.04,.04-.08,.08-.08,.11,0,.3-.19,.3-.3,0-.04,.04-.08,.08-.08,.1,0,.45-.35,.45-.45,0-.04,.04-.08,.08-.08,.11,0,.3-.19,.3-.3,0-.04,.04-.08,.08-.08,.1,0,.45-.35,.45-.45,0-.04,.04-.08,.08-.08,.11,0,.3-.19,.3-.3,0-.04,.04-.08,.08-.08,.1,0,.45-.35,.45-.45,0-.04,.05-.08,.11-.08s.11-.03,.11-.08,.48-.08,1.29-.08,1.29,.03,1.29,.08m-11.86,4.22c0,.79-.03,1.18-.08,1.18-.1,0-.3,.19-.3,.3,0,.04-.04,.08-.08,.08-.09,0-.3,.19-.3,.27,0,.06-.2,.27-.27,.27-.08,0-.27,.21-.27,.3,0,.04-.04,.08-.08,.08-.1,0-.45,.35-.45,.45,0,.04-.04,.08-.08,.08-.1,0-.3,.19-.3,.3,0,.04-.04,.08-.08,.08-.1,0-.45,.35-.45,.45,0,.04-.04,.08-.08,.08-.1,0-.3,.19-.3,.3,0,.04-.05,.08-.11,.08s-.11,.03-.11,.08-.03,.08-.08,.08-.08-.41-.08-1.07v-1.07l1.73-1.74c.95-.96,1.74-1.74,1.75-1.75,.01,0,.02,.53,.02,1.17m-10.27,2.17s.2,.08,.45,.08c.33,0,.46,.03,.49,.11s.15,.11,.39,.11c.19,0,.34,.03,.34,.08s.12,.08,.27,.08,.27,.03,.27,.08,.12,.08,.27,.08c.19,0,.27,.03,.27,.11,0,.07,.07,.11,.19,.11,.1,0,.19,.03,.19,.08s.07,.08,.16,.08c.36,0,.37,.08,.37,2.27v2.06l-.76,.76c-.85,.85-.82,.83-1.02,.57-.08-.1-.21-.19-.28-.19s-.14-.03-.14-.08-.12-.08-.27-.08c-.19,0-.27-.03-.27-.11,0-.07-.07-.11-.19-.11-.1,0-.21-.03-.23-.08-.03-.04-.18-.08-.35-.08s-.3-.03-.3-.08c0-.04-.27-.08-.65-.08-.52,0-.65-.02-.65-.11s-.12-.11-.61-.11-.62,.03-.65,.11c-.03,.09-.18,.11-.64,.11-.35,0-.6,.03-.6,.08,0,.04-.14,.08-.3,.08s-.3,.03-.3,.08-.1,.08-.23,.08c-.14,0-.25,.05-.27,.11s-.13,.11-.23,.11-.18,.03-.18,.08-.07,.08-.15,.08-.17,.05-.2,.11c-.02,.06-.11,.11-.19,.11s-.14,.03-.14,.08-.04,.08-.08,.08c-.07,0-.16,.06-.41,.29-.06,.05-.13,.09-.16,.09-.08,0-.27,.21-.27,.3,0,.04-.04,.08-.08,.08-.1,0-.83,.73-.83,.83,0,.04-.04,.08-.09,.08-.12,0-.29,.23-.29,.4,0,.07-.04,.13-.09,.13-.12,0-.29,.23-.29,.4,0,.07-.04,.13-.08,.13s-.08,.09-.08,.19c0,.12-.04,.19-.11,.19-.08,0-.11,.08-.11,.27,0,.15-.03,.27-.08,.27s-.08,.07-.08,.16-.05,.21-.11,.27-.11,.23-.11,.37-.03,.28-.08,.3c-.05,.03-.08,.7-.08,1.75s.03,1.71,.08,1.71c.04,0,.08,.12,.08,.26s.05,.31,.11,.38,.11,.22,.11,.34,.03,.25,.08,.28c.04,.03,.08,.11,.08,.19s.05,.15,.11,.15c.07,0,.11,.07,.11,.19,0,.1,.03,.19,.08,.19s.08,.07,.08,.16c0,.17,.16,.37,.3,.37,.04,0,.08,.09,.08,.19s.03,.19,.08,.19,.08,.05,.08,.11,.04,.11,.08,.11c.1,0,.45,.35,.45,.45,0,.04,.04,.08,.08,.08,.11,0,.3,.19,.3,.3,0,.04,.04,.08,.09,.08s.2,.12,.32,.27c.13,.15,.29,.26,.36,.26s.13,.03,.13,.08,.05,.08,.11,.08,.11,.05,.11,.11,.07,.11,.15,.11,.15,.03,.15,.08,.09,.08,.19,.08,.19,.03,.19,.08,.09,.08,.19,.08c.12,0,.19,.04,.19,.11,0,.08,.08,.11,.27,.11,.15,0,.27,.03,.27,.08s.12,.08,.26,.08c.16,0,.27,.04,.3,.11,.03,.09,.17,.11,.58,.11,.31,0,.53,.03,.53,.08s.32,.08,.8,.08,.8-.03,.8-.08c0-.04,.23-.08,.53-.08,.41,0,.55-.03,.58-.11s.15-.11,.38-.11c.18,0,.33-.03,.33-.08s.12-.08,.27-.08c.19,0,.27-.03,.27-.11,0-.07,.07-.11,.19-.11,.1,0,.19-.03,.19-.08s.07-.08,.16-.08c.17,0,.37-.16,.37-.3,0-.04,.09-.08,.19-.08s.19-.03,.19-.08,.05-.08,.11-.08,.11-.05,.11-.11,.07-.11,.15-.11,.15-.03,.15-.08,.04-.08,.08-.08c.11,0,.3-.19,.3-.3,0-.04,.04-.08,.08-.08,.1,0,.3-.19,.3-.28,0-.03,.09-.13,.19-.21,.1-.08,.19-.19,.19-.25s.12-.22,.27-.36c.15-.14,.27-.31,.27-.38s.03-.12,.08-.12,.08-.09,.08-.19c0-.12,.04-.19,.11-.19s.11-.07,.11-.19c0-.1,.03-.19,.08-.19s.08-.12,.08-.26c0-.16,.04-.27,.11-.3s.11-.14,.11-.27,.03-.23,.08-.23,.08-.2,.08-.46,.03-.46,.08-.46,.08-.44,.08-1.18-.03-1.18-.08-1.18c-.04,0-.08-.2-.08-.46s-.03-.46-.08-.46-.08-.12-.08-.27c0-.17-.04-.28-.11-.31-.07-.03-.11-.14-.11-.3,0-.14-.03-.26-.08-.26s-.08-.07-.08-.15-.05-.17-.11-.2c-.06-.02-.11-.11-.11-.19s-.03-.14-.08-.14c-.11,0-.09-.32,.03-.48,.06-.07,.14-.13,.19-.13s.09-.03,.09-.06c0-.09,.35-.47,.43-.47,.04,0,.12-.09,.18-.19s.14-.19,.18-.19,.13-.07,.18-.15c.1-.16,.85-.23,.85-.08,0,.05,.44,.08,1.18,.08s1.18,.03,1.18,.08c0,.04,.24,.08,.56,.08,.53,0,.56,0,.66,.21,.05,.11,.12,.26,.16,.33,.03,.06,.08,.23,.11,.36s.09,.24,.12,.24,.07,.12,.07,.27,.03,.27,.08,.27,.08,.12,.08,.27c0,.19,.03,.27,.11,.27,.09,0,.11,.1,.11,.46,0,.25,.03,.46,.08,.46,.04,0,.08,.27,.08,.65s.03,.65,.08,.65,.08,.38,.08,.98-.03,1-.08,1.03c-.04,.03-.08,.32-.08,.65s-.03,.62-.08,.65c-.04,.03-.08,.23-.08,.46,0,.32-.03,.41-.11,.41s-.11,.08-.11,.3c0,.17-.03,.3-.08,.3s-.08,.1-.08,.23-.05,.28-.11,.35c-.06,.06-.11,.2-.11,.3s-.03,.18-.08,.18-.08,.12-.08,.27-.03,.27-.08,.27-.08,.09-.08,.19c0,.12-.04,.19-.11,.19s-.11,.07-.11,.19c0,.1-.03,.19-.08,.19s-.08,.05-.08,.12-.09,.2-.19,.29c-.1,.1-.19,.25-.19,.34s-.03,.16-.08,.16-.08,.07-.08,.15-.05,.15-.11,.15-.11,.04-.11,.08-.09,.16-.19,.27c-.1,.1-.19,.23-.19,.28s-.07,.14-.15,.2-.15,.15-.15,.2-.05,.11-.11,.13-.11,.1-.11,.17c0,.12-.17,.34-.27,.34-.06,0-.27,.2-.27,.27,0,.08-.21,.27-.3,.27-.05,0-.08,.04-.08,.08,0,.09-.19,.3-.26,.3-.03,0-.09,.03-.14,.08-.4,.34-.56,.45-.61,.45-.03,0-.06,.05-.06,.11s-.05,.11-.11,.11-.11,.03-.11,.08-.06,.08-.12,.08-.2,.09-.3,.19c-.1,.1-.23,.19-.29,.19s-.12,.03-.12,.08-.05,.08-.11,.08-.11,.05-.11,.11c0,.07-.07,.11-.19,.11-.1,0-.19,.03-.19,.08s-.07,.08-.15,.08-.15,.03-.15,.07-.09,.09-.19,.12c-.1,.03-.19,.08-.19,.12s-.09,.07-.19,.07-.19,.03-.19,.08-.09,.08-.19,.08c-.12,0-.19,.04-.19,.11s-.07,.11-.19,.11c-.1,0-.19,.03-.19,.08s-.12,.08-.27,.08-.27,.03-.27,.08-.1,.08-.23,.08-.25,.05-.27,.11c-.03,.08-.16,.11-.42,.11-.2,0-.37,.03-.37,.08s-.19,.08-.42,.08c-.3,0-.43,.03-.46,.11-.04,.09-.21,.11-.95,.11-.55,0-.9,.03-.9,.08,0,.04-.09,.08-.19,.08s-.19-.03-.19-.08-.38-.08-.99-.08c-.83,0-.99-.02-.99-.11s-.1-.11-.46-.11c-.25,0-.46-.03-.46-.08s-.12-.08-.27-.08-.32-.05-.39-.11c-.06-.06-.2-.11-.3-.11s-.18-.03-.18-.08-.12-.08-.27-.08-.27-.03-.27-.08-.12-.08-.27-.08c-.19,0-.27-.03-.27-.11,0-.07-.07-.11-.19-.11-.1,0-.19-.03-.19-.08s-.09-.08-.19-.08c-.12,0-.19-.04-.19-.11,0-.06-.07-.11-.15-.11s-.15-.03-.15-.08-.09-.08-.19-.08-.19-.03-.19-.08-.05-.08-.11-.08-.13-.05-.15-.11c-.02-.06-.1-.11-.16-.11s-.12-.03-.12-.08-.05-.08-.11-.08-.11-.03-.11-.07-.08-.1-.17-.13c-.09-.03-.23-.12-.29-.2-.07-.08-.2-.14-.29-.14s-.16-.04-.16-.08c0-.11-.19-.3-.3-.3-.04,0-.08-.04-.08-.08,0-.1-.35-.45-.45-.45-.04,0-.08-.05-.08-.1s-.09-.15-.19-.2-.19-.13-.19-.17c0-.09-.36-.44-.45-.44-.04,0-.08-.04-.08-.08,0-.11-.19-.3-.3-.3-.04,0-.08-.07-.08-.16s-.12-.27-.27-.42c-.15-.14-.27-.31-.27-.37s-.03-.12-.08-.12-.08-.05-.08-.11-.05-.11-.11-.11c-.07,0-.11-.07-.11-.19,0-.1-.03-.19-.08-.19s-.08-.07-.08-.15-.03-.15-.08-.15-.08-.05-.08-.11-.05-.11-.11-.11c-.07,0-.11-.07-.11-.19,0-.1-.03-.19-.08-.19s-.08-.09-.08-.19c0-.12-.04-.19-.11-.19-.08,0-.11-.08-.11-.27,0-.15-.03-.27-.08-.27s-.08-.09-.08-.19-.03-.19-.08-.19-.08-.1-.08-.23-.05-.25-.11-.27c-.07-.03-.11-.14-.11-.3,0-.14-.03-.26-.08-.26s-.08-.19-.08-.42c0-.3-.03-.43-.11-.46s-.11-.16-.11-.49c0-.25-.03-.45-.08-.45s-.08-.63-.08-1.75,.03-1.75,.08-1.75c.04,0,.08-.2,.08-.46,0-.35,.03-.46,.11-.46s.11-.09,.11-.34c0-.19,.03-.36,.08-.38s.08-.2,.08-.38c0-.22,.04-.34,.11-.37s.11-.14,.11-.27,.03-.23,.08-.23,.08-.09,.08-.19,.03-.19,.08-.19,.08-.09,.08-.19c0-.12,.04-.19,.11-.19,.08,0,.11-.08,.11-.27,0-.15,.03-.27,.08-.27s.08-.09,.08-.19,.04-.19,.09-.19c.12,0,.29-.23,.29-.4,0-.07,.04-.13,.08-.13s.08-.09,.08-.19,.04-.19,.08-.19c.13,0,.3-.21,.3-.37,0-.09,.04-.16,.08-.16,.11,0,.3-.19,.3-.3,0-.04,.03-.08,.08-.08s.08-.07,.08-.15,.05-.15,.11-.15,.11-.03,.11-.07c0-.1,1.65-1.75,1.75-1.75,.04,0,.07-.05,.07-.11s.07-.11,.15-.11,.15-.03,.15-.08,.05-.08,.11-.08,.11-.04,.11-.08c0-.12,.2-.3,.33-.3,.06,0,.2-.09,.31-.19s.25-.19,.32-.19,.11-.03,.11-.08,.05-.08,.11-.08,.11-.05,.11-.11c0-.07,.07-.11,.19-.11,.1,0,.19-.03,.19-.08s.07-.08,.15-.08,.15-.03,.15-.08,.09-.08,.19-.08c.12,0,.19-.04,.19-.11s.07-.11,.19-.11c.1,0,.19-.03,.19-.08s.12-.08,.27-.08c.19,0,.27-.03,.27-.11s.08-.11,.27-.11c.15,0,.27-.03,.27-.08s.12-.08,.26-.08,.28-.03,.31-.08c.03-.04,.16-.08,.3-.08s.31-.05,.37-.11c.07-.07,.26-.11,.54-.11,.23,0,.42-.03,.42-.08s.72-.08,2.01-.08,2.02,.03,2.02,.08m14.6,1.07c0,.09-.19,.3-.27,.3-.06,0-.27,.2-.27,.27,0,.08-.21,.27-.3,.27-.05,0-.08,.04-.08,.08,0,.09-.19,.3-.27,.3-.06,0-.27,.2-.27,.27,0,.08-.21,.27-.3,.27-.05,0-.08,.04-.08,.08,0,.09-.19,.3-.27,.3-.06,0-.27,.2-.27,.27,0,.08-.21,.27-.3,.27-.05,0-.08,.04-.08,.08,0,.09-.19,.3-.27,.3-.06,0-.27,.2-.27,.27,0,.08-.21,.27-.3,.27-.05,0-.08,.04-.08,.08,0,.13-.21,.3-.37,.3-.09,0-.16-.03-.16-.08s-.35-.08-.91-.08c-.53,0-.91-.03-.91-.07s.83-.91,1.84-1.93l1.84-1.86h1.16c.78,0,1.16,0,1.16,.07m-15.64,7.87c.03,.07,.14,.11,.27,.11s.23,.03,.23,.07,.06,.08,.13,.1c.09,.02-.34,.5-1.45,1.6-.97,.97-1.57,1.63-1.57,1.72,0,.08-.05,.17-.11,.19-.09,.03-.11,.18-.11,.62s.03,.59,.11,.62c.06,.02,.11,.11,.11,.19s.03,.14,.08,.14,.08,.04,.08,.09c0,.11,.23,.29,.39,.29,.07,0,.14,.05,.17,.12,.03,.09,.19,.11,.69,.11s.66-.03,.69-.11c.02-.06,.12-.11,.21-.11,.1,0,.21-.07,.27-.19,.06-.1,.15-.19,.2-.19s.1-.03,.1-.06c0-.09,.35-.47,.43-.47,.04,0,.12-.09,.18-.19s.15-.19,.2-.19,.1-.03,.1-.06c0-.09,.35-.47,.43-.47,.04,0,.12-.09,.18-.19s.15-.19,.2-.19,.1-.03,.1-.06c0-.09,.35-.47,.43-.47,.04,0,.12-.09,.18-.19,.15-.28,.3-.24,.3,.07,0,.14,.03,.28,.08,.31,.04,.03,.08,.21,.08,.42,0,.23,.04,.41,.11,.48,.06,.06,.11,.22,.11,.34s-.05,.24-.11,.27c-.08,.03-.11,.16-.11,.46,0,.23-.03,.42-.08,.42s-.08,.12-.08,.27-.03,.27-.08,.27-.08,.09-.08,.19c0,.12-.04,.19-.11,.19-.06,0-.11,.07-.11,.16,0,.17-.16,.37-.3,.37-.04,0-.08,.03-.08,.06,0,.07-.73,.85-.8,.85-.03,0-.1,.04-.15,.09-.25,.23-.34,.29-.41,.29-.04,0-.08,.03-.08,.08s-.1,.08-.23,.08c-.14,0-.25,.05-.27,.11s-.13,.11-.23,.11-.18,.03-.18,.08-.42,.08-1.1,.08-1.1-.03-1.1-.08c0-.04-.12-.08-.27-.08-.19,0-.27-.03-.27-.11,0-.07-.07-.11-.19-.11-.1,0-.19-.03-.19-.08s-.09-.08-.19-.08-.19-.04-.19-.08c0-.12-.2-.3-.34-.3s-.34-.18-.34-.3c0-.04-.04-.08-.08-.08-.11,0-.3-.19-.3-.3,0-.04-.03-.08-.08-.08s-.08-.05-.08-.12-.05-.14-.11-.16-.11-.09-.11-.15-.03-.11-.08-.11-.08-.07-.08-.15-.05-.17-.11-.2c-.06-.02-.11-.14-.11-.26s-.03-.24-.08-.26c-.04-.03-.08-.16-.08-.31s-.03-.26-.08-.26-.08-.33-.08-.84,.03-.84,.08-.84c.04,0,.08-.12,.08-.27s.03-.27,.08-.27,.08-.12,.08-.27c0-.19,.03-.27,.11-.27,.07,0,.11-.07,.11-.17,0-.09,.09-.24,.19-.31,.1-.08,.19-.2,.19-.27s.07-.17,.15-.23,.15-.15,.15-.21,.04-.1,.08-.1c.11,0,.3-.19,.3-.3,0-.04,.08-.08,.17-.08s.22-.07,.28-.15,.17-.15,.25-.15,.16-.05,.18-.11,.13-.11,.23-.11,.18-.03,.18-.08,.12-.08,.27-.08c.19,0,.27-.03,.27-.11,0-.1,.16-.11,1.02-.11s1.03,.02,1.06,.11M18.39,15.96h0"/></svg>