<svg width="90" height="90" viewBox="0 0 90 90" fill="none" xmlns="http://www.w3.org/2000/svg">
<g clip-path="url(#clip0_3212_2744)">
<circle cx="45" cy="45" r="45" fill="#F5F5F5"/>
<path d="M32.1414 51.5993L31.8957 59.7571H27.8463V55H26.4309V51.5993H32.1414ZM12.7495 55V34.871H16.8382V51.5796H25.2122V34.871H29.3501V55H12.7495ZM46.9015 55L40.4343 46.4196H38.9796V55H34.7239V34.871H38.9796V42.9108H39.8347L46.5182 34.871H51.8158L43.9628 44.2082L52.1795 55H46.9015ZM54.3197 34.871H59.5682L65.1115 48.3952H65.3474L70.8907 34.871H76.1392V55H72.0112V41.8984H71.8441L66.635 54.9017H63.824L58.6148 41.8493H58.4477V55H54.3197V34.871Z" fill="#009242"/>
</g>
<defs>
<clipPath id="clip0_3212_2744">
<rect width="90" height="90" fill="white"/>
</clipPath>
</defs>
</svg>
