<svg xmlns="http://www.w3.org/2000/svg" width="90" height="90" fill="none"><circle cx="45" cy="45" r="45" fill="#E0E0E0"/><g clip-path="url(#a)"><path fill="#C72829" d="M53.047 14c.378.1.77.147 1.16.138 3.356.27 6.602 1.31 9.483 3.034 2.798 1.726 4.795 4.184 6.3 7.06a18.105 18.105 0 0 1 1.928 5.807c.039.213.039.43 0 .642-.156-.406-.308-.845-.472-1.259-1.35-3.465-3.338-6.499-6.308-8.81a21.396 21.396 0 0 0-4.335-2.607.413.413 0 0 0-.455.04c-.509.386-1.038.748-1.547 1.134a.621.621 0 0 1-.57.121 98.723 98.723 0 0 0-2.76-.617.482.482 0 0 1-.41-.378c-.18-.597-.41-1.177-.587-1.775a.381.381 0 0 0-.41-.32 27.215 27.215 0 0 0-12.796 2.514c-4.754 2.18-8.613 5.463-11.87 9.492a42.11 42.11 0 0 0-3.076 4.362.436.436 0 0 0 0 .544c.41.63.775 1.276 1.165 1.905a.508.508 0 0 1 .049.5 318.143 318.143 0 0 0-1.694 3.854.37.37 0 0 1-.34.26c-.76.077-1.514.191-2.277.252a.413.413 0 0 0-.41.345 41.706 41.706 0 0 0-1.64 8.859c-.29 3.571.109 7.165 1.177 10.588a22.457 22.457 0 0 0 7.423 10.902c.509.406.923.544 1.526.174.603-.37 1.23-.584 1.862-.885a.545.545 0 0 1 .513 0c.94.434 1.882.87 2.838 1.28a.574.574 0 0 1 .373.466c.148.727.312 1.454.456 2.181a.376.376 0 0 0 .34.346c2.015.464 4.09.615 6.152.447 6.624-.504 12.333-3.21 17.472-7.238a35.745 35.745 0 0 0 2.49-2.157c.082-.081.152-.19.287-.211.07.158-.07.243-.135.34a24.242 24.242 0 0 1-7.65 7.214 29.677 29.677 0 0 1-11.508 4.147c-4.356.614-8.634.337-12.715-1.385-4.446-1.868-7.793-4.987-10.229-9.086a27.117 27.117 0 0 1-3.437-9.67 30.533 30.533 0 0 1-.357-3.4c0-.065 0-.146-.07-.183v-3.225c.12-.06.066-.17.07-.255.092-1.527.276-3.046.554-4.55a40.307 40.307 0 0 1 5.787-14.585 36.428 36.428 0 0 1 12.94-12.36 29.824 29.824 0 0 1 13.621-3.943c.578.018 1.156.002 1.731-.049h.361Z"/><path fill="#20613C" d="M28.684 61.745h8.203c.287 0 .41-.05.386-.366-.029-.454-.029-.91 0-1.365 0-.296-.09-.353-.365-.353H28.4c-.328 0-.45-.093-.529-.406a59.128 59.128 0 0 1-.578-2.56c-.053-.267 0-.308.27-.308h9.27c.34 0 .443-.06.439-.406V37.367c0-.334-.086-.407-.41-.407h-7.018c.382-.913.861-1.746 1.263-2.611.08-.225.236-.414.442-.537.206-.122.449-.17.686-.133 1.563.048 3.126 0 4.692.024.267 0 .361-.057.345-.337a11.13 11.13 0 0 1 0-1.332c0-.313-.054-.406-.41-.406-1.23.024-2.461 0-3.692 0h-.406c.164-.248.291-.447.41-.638a42.625 42.625 0 0 1 1.801-2.396.556.556 0 0 1 .48-.244c4.24 0 8.482-.02 12.714-.02 1.575 0 3.154 0 4.725.065 3.934.17 7.543 1.303 10.664 3.712a15.993 15.993 0 0 1 5.87 9.025c1.185 4.654 1.029 9.26-.895 13.708-2.186 5.048-6.131 8.082-11.414 9.5a21.938 21.938 0 0 1-5.742.674c-4.54 0-9.085.02-13.63.02-2.436 0-4.872 0-7.304-.024-.14 0-.283.04-.373-.138a26.953 26.953 0 0 1-1.387-3.127Zm18.748-15.081v9.215c0 .269.05.374.353.37h3.745c3.178-.028 5.643-1.344 7.079-4.183 1.583-3.136 1.64-6.434.475-9.712-1.14-3.164-3.49-4.874-6.882-5.162-1.464-.114-2.932 0-4.397-.049-.315 0-.373.098-.373.386.004 3.034 0 6.084 0 9.135Z"/><path fill="#C72829" d="M34.016 27.428a.84.84 0 0 1-.775-.5.817.817 0 0 1 .169-.9.834.834 0 0 1 .586-.25c.22 0 .432.088.588.242a.82.82 0 0 1 0 1.166.837.837 0 0 1-.588.242h.02ZM24.595 61.749c0-.216.087-.422.24-.575a.825.825 0 0 1 1.344.278c.04.1.06.209.057.317a.807.807 0 0 1-.524.758.826.826 0 0 1-.893-.2.808.808 0 0 1-.224-.578ZM22.512 49.243c0-.216.086-.422.24-.575a.824.824 0 0 1 .58-.237.829.829 0 0 1 .607.223.814.814 0 0 1 .254.589.858.858 0 0 1-.253.561.874.874 0 0 1-.567.251.85.85 0 0 1-.6-.23.834.834 0 0 1-.261-.582ZM47.855 71.03a.71.71 0 0 1 .502.195.696.696 0 0 1-.478 1.202.712.712 0 0 1-.66-.42.692.692 0 0 1 .14-.764.706.706 0 0 1 .496-.214ZM44.032 20.283a.714.714 0 0 1-.645-.448.697.697 0 0 1 .172-.762.713.713 0 0 1 1.089.13.698.698 0 0 1-.343 1.033.716.716 0 0 1-.273.047ZM67.628 26.254a.591.591 0 0 1-.552-.362.584.584 0 0 1 .324-.77.6.6 0 0 1 .648.127.587.587 0 0 1-.42 1.005ZM61.418 65.538a.584.584 0 0 1-.389.533.6.6 0 0 1-.763-.35.583.583 0 0 1 .154-.635.597.597 0 0 1 .998.452Z"/></g><defs><clipPath id="a"><path fill="#fff" d="M18 14h54v63H18z"/></clipPath></defs></svg>