<svg width="90" height="90" fill="none" xmlns="http://www.w3.org/2000/svg"><circle cx="45" cy="45" r="45" fill="#F04E00"/><path d="M26 43.34V25.506C26 25 26 25 26.528 25h8.68c.52 0 .52 0 .52.509v27.953c0 .664-.06.573.57.573H51.93c.378 0 .457-.091.457-.455V25.497c0-.38.083-.486.472-.482 2.883.01 5.775.005 8.675-.015.378 0 .506.076.506.493-.015 9.361-.022 18.713-.022 28.056 0 .43.124.516.52.513 1.51-.027 3.02 0 4.529 0 .471 0 .48 0 .34.44l-1.94 5.996c-.775 2.39-1.545 4.781-2.31 7.172a.38.38 0 0 1-.411.315h-8.272c-.287 0-.325-.064-.23-.338.622-1.84 1.219-3.692 1.849-5.529.12-.353.056-.413-.295-.413H26.51c-.42.007-.51-.091-.51-.494.015-5.953.015-11.91 0-17.87Z" fill="#FDFDFD"/></svg>