<svg width="90" height="90" viewBox="0 0 90 90" fill="none" xmlns="http://www.w3.org/2000/svg">
<g clip-path="url(#clip0_3212_2615)">
<circle cx="45" cy="45" r="45" fill="#F5F5F5"/>
<mask id="mask0_3212_2615" style="mask-type:luminance" maskUnits="userSpaceOnUse" x="16" y="18" width="58" height="54">
<path d="M73.4356 18H16V71.9985H73.4356V18Z" fill="white"/>
</mask>
<g mask="url(#mask0_3212_2615)">
<path d="M52.4417 53.6023C52.4808 53.7193 52.5196 53.8366 52.5393 53.9734C52.5978 54.481 52.5196 55.1061 52.4417 55.5943V55.6334C52.422 55.7113 52.3831 55.7895 52.344 55.8481H52.6173L57.1677 55.6528H57.2068L62.753 56.2777L62.5968 57.2737L62.4015 57.391C61.7766 57.7816 61.015 57.6057 60.3315 57.469L59.9995 57.391C59.6675 57.3323 59.2964 57.2737 58.9644 57.3519C58.0661 57.5275 57.7341 58.5432 57.5582 59.3048L57.2068 60.8672L56.5233 59.0508L55.1757 59.8125L54.4922 60.2032C53.9064 60.5352 53.2424 60.8867 52.6173 61.121L52.3049 61.2187L51.9533 61.3357L51.2698 61.5507L50.02 61.8827L47.5398 62.4099L47.4225 62.4294C45.5869 62.7225 40.431 63.523 39.767 65.7103C40.6654 65.6518 41.5834 65.4371 42.4621 65.2612C43.8878 64.9487 45.294 64.6754 46.7782 64.6558L47.5398 64.6167C48.5162 64.5581 49.4927 64.402 50.4691 64.2652L54.6093 63.855C57.031 63.855 59.3159 63.1521 61.6008 62.4294L63.3781 61.9021C63.5537 61.7654 63.7686 61.7068 64.003 61.7265C65.6239 61.2969 67.2252 60.9649 68.9049 60.9649L69.5689 60.8281L73.4356 61.453L73.2989 62.3123L73.1427 62.4099L73.123 62.4294C72.5178 62.8005 71.1507 62.5076 70.4672 62.3708L69.7836 62.2538C69.2757 62.1756 68.7681 62.117 68.2408 62.1756L67.3425 62.3123L66.6394 62.4294C65.9363 62.5467 65.2528 62.7225 64.5888 62.9569C64.5694 62.9958 64.5303 63.0545 64.4912 63.0934C62.4015 65.3783 59.9408 67.2923 57.1871 68.7765L55.5468 69.5773C52.1097 71.12 48.3794 71.9598 44.5909 71.9989H44.0831C36.916 71.9598 30.1001 69.1671 25.0226 64.1676C19.9449 59.1681 17.0546 52.4501 16.9569 45.3609V45.1069C16.9569 43.0564 17.1718 41.0255 17.6209 39.0335C17.699 38.6624 17.7967 38.2718 17.8943 37.9007C18.0115 37.5296 18.1287 37.1585 18.2459 36.7876C18.3826 36.3774 18.8317 36.1431 19.2614 36.2604C19.6129 36.3774 19.8473 36.69 19.8277 37.0609C20.1402 37.354 20.4527 37.4711 20.9018 37.5493C21.3315 37.6272 21.7611 37.686 22.1908 37.7249C22.6204 37.7445 23.05 37.764 23.4602 37.7445L24.7491 37.5296C26.4871 37.2561 28.2253 36.9632 29.9439 36.5533C31.3695 36.2016 32.8343 35.9869 34.299 35.8307C35.1192 35.7525 35.9394 35.6743 36.7401 35.6158C36.701 35.4987 36.6619 35.362 36.6425 35.2447C36.5643 34.7371 36.6619 34.1119 36.7205 33.6043V33.5652C36.7401 33.487 36.7792 33.4091 36.8181 33.3309L36.5449 33.3114L31.9554 33.5067H31.9163L26.3504 32.9012L26.5068 31.8858L26.7021 31.7685C27.327 31.3779 28.1081 31.5538 28.7917 31.6905C28.8894 31.7294 29.0064 31.749 29.1237 31.7685C29.4557 31.827 29.8268 31.8858 30.1783 31.8076C31.0766 31.6318 31.4281 30.5969 31.6039 29.8352L31.9554 28.2729L32.6194 30.1085L32.9123 29.9523L33.967 29.3274L34.6699 28.9369C35.2559 28.6049 35.9199 28.2338 36.5643 28.0188L36.8572 27.9212L37.2477 27.8041L37.9508 27.5892C38.361 27.4721 38.7907 27.3548 39.2009 27.2572C40.0211 27.0425 40.8607 26.8666 41.7005 26.7105L41.8178 26.6908C43.6729 26.3979 48.8873 25.5777 49.5513 23.371C48.6335 23.4295 47.7154 23.6443 46.8367 23.8201C45.3916 24.1326 43.9854 24.4256 42.4816 24.4256C42.2278 24.4256 41.9934 24.445 41.7396 24.445C40.7436 24.5037 39.7476 24.6599 38.7516 24.7966C37.3845 24.9919 35.9588 25.2066 34.5723 25.2066C32.1117 25.2066 29.8268 25.9097 27.5028 26.6323C25.0615 27.4136 22.6986 28.1361 20.1402 28.1556L19.4762 28.2923L19.3786 28.2729L16 27.6674L16.1367 26.8081L16.2929 26.7105L16.3125 26.6908C16.9179 26.3199 17.8748 26.6128 18.5583 26.7496C18.7927 26.7887 19.027 26.8472 19.2419 26.8666C19.7691 26.9448 20.2769 27.0034 20.8042 26.9448C21.0971 26.9252 21.4096 26.8666 21.7025 26.8081L22.4056 26.6908C23.265 26.5543 24.0851 26.3003 24.9053 25.9879C24.9444 25.8903 25.003 25.7927 25.1006 25.7145C27.6199 23.2734 30.5885 21.3008 33.8497 19.9924C37.1112 18.7034 40.6069 18.0199 44.1222 18.0004C51.3871 17.9613 58.3004 20.7735 63.4561 25.8315C68.6119 30.8898 71.5021 37.7054 71.5218 44.8922C71.5218 46.142 71.4436 47.3918 71.2874 48.6222C71.1116 49.8526 70.8578 51.083 70.5258 52.2742C70.4085 52.7039 69.9594 52.9577 69.5298 52.8406C69.1392 52.743 68.8852 52.3524 68.9439 51.9617C68.7096 51.8252 68.4165 51.747 68.1627 51.6884C67.733 51.6102 67.3228 51.5517 66.8932 51.5126C66.4635 51.4932 66.0536 51.4735 65.6239 51.4932L64.335 51.7079C62.6165 51.9813 60.8977 52.2742 59.1988 52.6844C57.7732 53.0164 56.3278 53.2508 54.8828 53.407C54.0626 53.485 53.2618 53.5632 52.4417 53.6023Z" fill="#21405B"/>
<path d="M31.8203 32.1764C32.172 32.1961 32.5234 32.1961 32.8554 32.1764C33.4803 32.157 34.0858 32.0984 34.7107 32.0397L35.902 31.9421C37.562 31.825 40.1984 31.6492 41.4873 32.9186C41.8975 33.3286 42.1709 33.8755 42.2295 34.4613C42.3271 34.6177 42.8738 34.9692 43.0106 35.0474C43.5769 35.3988 44.1824 35.7112 44.7879 36.0043C45.7057 36.4534 46.7211 36.8439 47.7171 37.0979C48.342 37.2541 49.3186 37.4494 49.9435 37.215C50.0411 37.1759 50.1584 37.1174 50.217 37.0588L50.0411 36.9415L48.7717 36.0823L45.8815 34.1293L42.8349 32.0788L41.7607 31.3562L41.3702 31.1024L41.1944 31.0048C41.0382 30.9266 40.8624 30.8484 40.6865 30.7704C40.4327 30.6728 40.1593 30.5752 39.9055 30.4775C39.4953 30.3408 39.0853 30.2235 38.6751 30.1259C38.1284 29.9891 36.3511 29.5595 35.8434 29.8135L35.4918 29.95C34.5349 30.3797 32.6211 31.2586 31.8203 32.1764Z" fill="#F5F5F5"/>
<path d="M57.3268 57.0196C56.9948 56.9999 56.6433 56.9999 56.3113 57.0196C55.7058 57.039 55.1006 57.0975 54.4757 57.1561L53.3038 57.2537C51.6633 57.371 49.0463 57.5272 47.7771 56.2968C47.3475 55.8672 47.1131 55.3399 47.0349 54.7541C46.9373 54.5979 46.41 54.2659 46.2732 54.1683C45.7069 53.8166 45.1016 53.5043 44.5156 53.2114C43.5978 52.7815 42.6018 52.3715 41.6254 52.1372C41.0003 51.981 40.024 51.7857 39.4185 52.0199C39.3208 52.059 39.2232 52.1177 39.145 52.1763L39.3208 52.2933L40.5512 53.1526L43.4025 55.0664L46.4294 57.0975L47.5036 57.8006L47.8942 58.0545L48.07 58.1521C48.2262 58.2303 48.402 58.3085 48.5778 58.3865C48.8316 58.4841 49.1051 58.5817 49.3589 58.6599C49.7691 58.7967 50.1791 58.9137 50.5696 59.0114C51.1166 59.1481 52.8742 59.5583 53.382 59.3239L53.6944 59.1872C54.6319 58.777 56.5457 57.9177 57.3268 57.0196Z" fill="#F5F5F5"/>
<path d="M42.0854 47.1953C39.0974 46.6095 36.0117 45.6721 33.5509 44.0511L33.3362 43.9144L33.6877 43.3871C33.2386 43.1528 32.8284 42.899 32.4182 42.6452L32.2035 42.5084L32.5746 41.9615C32.0277 41.688 31.4809 41.3757 30.9731 41.0437L30.7584 40.9069L31.1293 40.3602C30.5826 40.0868 30.0356 39.7742 29.528 39.4422L29.3131 39.286L29.9186 38.3877L30.1333 38.5244C33.0042 40.4188 36.871 41.3366 40.2495 41.8248C42.6126 42.1764 45.0341 42.352 47.4363 42.4497C50.2679 42.5475 53.0998 42.5279 55.912 42.4108L56.1658 42.3911L56.2049 43.4653L55.9511 43.4848C53.0998 43.6021 50.2291 43.6215 47.3778 43.5239C44.9365 43.4262 42.4954 43.2504 40.0934 42.8795C38.4528 42.6452 36.7342 42.2935 35.0548 41.8248C37.2224 42.6255 39.5464 43.1137 41.6946 43.4262C44.0772 43.7777 46.4794 43.9535 48.8814 44.0511C51.7132 44.1488 54.5449 44.1293 57.3571 44.012L57.6111 43.9926L57.6502 45.0666L57.3962 45.0862C54.5449 45.2033 51.6741 45.223 48.8228 45.1253C46.3818 45.0277 43.9407 44.8519 41.5384 44.4808C39.8981 44.2464 38.1793 43.895 36.4999 43.4068C38.6677 44.2073 40.9917 44.6957 43.1399 45.0081C45.5225 45.3597 47.9245 45.5353 50.3267 45.633C53.1583 45.7306 55.9902 45.7112 58.8024 45.5941H59.0562L59.0953 46.6681L58.8415 46.6877C55.9902 46.8048 53.1192 46.8242 50.2679 46.7266C47.8268 46.629 45.3857 46.4534 42.9835 46.1017C41.7923 45.9261 40.6206 45.7112 39.4488 45.4377C41.0697 45.9064 42.7297 46.219 44.2724 46.4534C46.6552 46.8048 49.0572 46.9806 51.4592 47.0783C54.2911 47.1759 57.1227 47.1562 59.9351 47.0392L60.1889 47.0197L60.228 48.0937L59.974 48.1132C57.1229 48.2304 54.252 48.2499 51.4007 48.1523C48.9596 48.0546 46.5185 47.879 44.1163 47.5273L43.7257 47.4688C44.1554 47.6835 44.5656 47.957 44.9365 48.2695C45.3076 48.5819 45.6592 48.8945 46.0107 49.2265L46.2256 49.4412C46.8699 49.1288 47.6316 48.875 48.3541 49.0897C48.9401 49.2656 49.4674 49.7343 49.9165 50.1248C50.1703 50.3592 50.4438 50.5739 50.7172 50.7692L50.8343 50.8668C51.2054 51.1599 51.5959 51.4528 51.9867 51.7066C52.2209 51.8628 52.4749 51.9995 52.7678 52.0581C53.0607 52.1168 53.3733 52.1363 53.6662 52.1168C54.174 52.0972 54.7013 52.0387 55.2089 51.9801L55.7362 51.9216H55.7558C57.4353 51.7261 59.1147 51.3552 60.7747 50.9841C62.298 50.6521 63.841 50.3004 65.4031 50.0857H65.4422H65.9109C66.5946 50.0857 67.3951 50.1834 68.0788 50.3004C68.3132 50.3395 68.5475 50.3983 68.7817 50.4568C68.9575 50.4959 69.1333 50.5545 69.3092 50.613C69.4848 49.8708 69.6215 49.1288 69.7191 48.3672C69.8753 47.1953 69.9535 46.0237 69.9535 44.8519C69.9144 38.0948 67.2195 31.6696 62.3566 26.924C57.5135 22.1589 50.971 19.5224 44.1748 19.5615C40.855 19.581 37.5741 20.2059 34.5079 21.4753C32.3206 22.3738 30.27 23.5454 28.4147 24.9907C28.9031 24.8931 29.4107 24.7172 29.8795 24.5611C30.2115 24.4438 30.602 24.3267 30.9926 24.2291C31.8518 23.9947 32.594 23.975 33.473 23.9947C33.8635 23.9947 34.2735 23.9947 34.6642 23.975C36.1484 23.897 37.6521 23.6821 39.1365 23.5063L41.519 23.233L44.8194 22.8619C45.913 22.7252 47.0067 22.5494 48.1003 22.3738H48.1197C48.2761 22.3541 48.4127 22.3151 48.569 22.276C48.9987 22.1784 49.4869 22.0417 49.9165 22.0808C50.7172 22.1589 51.0296 22.7058 50.971 23.4674C50.9516 23.6039 50.9319 23.7603 50.8931 23.897C50.854 24.0532 50.7954 24.19 50.7367 24.3267C50.4438 25.0101 49.8774 25.7912 49.194 26.1232C48.3932 26.4749 47.573 26.7678 46.7332 27.0021C45.7763 27.256 44.8194 27.4903 43.8428 27.6856L41.9681 28.0761L39.3706 28.6231C38.9801 28.7013 38.5895 28.8183 38.199 28.916C38.5504 28.9942 38.9021 29.0721 39.2341 29.1309L40.3863 29.3847C40.6986 29.4629 41.0306 29.5409 41.3237 29.6582C41.9486 29.912 42.6127 30.3807 43.1594 30.7518C43.6281 31.0838 44.1163 31.4353 44.585 31.7867L44.7999 31.9431C45.1708 32.1969 45.5419 32.4507 45.913 32.6851L47.5534 33.7202L48.0221 34.0131L50.2485 35.4387C50.522 35.6146 50.7954 35.8098 51.0687 36.0051C51.2251 36.1224 51.4203 36.2786 51.5571 36.4153L51.7132 36.6106L51.6547 36.8449C51.4789 37.4893 51.1469 38.0166 50.5414 38.3291C49.6236 38.7979 48.3738 38.5635 47.3778 38.4073L47.0652 38.3486L48.8814 40.9264L48.4127 41.2584C47.1434 42.7428 45.5616 42.0006 44.2724 40.9655C43.9016 40.6531 43.5499 40.3406 43.1985 40.0086L42.9641 39.7939C42.3001 40.1062 41.5579 40.3602 40.8353 40.1453C40.2495 39.9695 39.7223 39.501 39.2535 39.1102C38.9801 38.8955 38.7263 38.6611 38.4333 38.4462L38.3161 38.3486C37.9452 38.0557 37.5544 37.7433 37.1639 37.4893C36.9295 37.3331 36.656 37.1964 36.3828 37.1378C36.1484 37.0793 35.8164 37.0793 35.5235 37.0987C34.9962 37.1182 34.4884 37.1769 33.9611 37.2355L33.4339 37.2746C31.7348 37.4698 30.0356 37.8604 28.3756 38.2118C26.8329 38.5635 25.2705 38.9149 23.7082 39.1102H23.6693H22.9271C22.3021 39.0908 21.5991 38.9931 21.0132 38.8955C20.7788 38.8564 20.5445 38.7979 20.3101 38.7393C20.0172 38.6611 19.7243 38.5635 19.4509 38.4268C19.3727 38.7393 19.2946 39.0517 19.2165 39.3642C18.7868 41.2389 18.572 43.1528 18.5916 45.0666V45.2621C18.6697 51.941 21.3842 58.2879 26.1883 62.9945C30.9731 67.7011 37.3788 70.3375 44.1163 70.3571H44.6241C48.1785 70.318 51.6741 69.5369 54.916 68.0722C55.4432 67.8378 55.9511 67.584 56.4589 67.3106C58.1969 66.3927 59.7984 65.26 61.2826 63.9711C61.1653 63.9905 61.0482 64.0102 60.9311 64.0296C60.4036 64.1078 59.8178 64.3031 59.3296 64.4787C58.9585 64.6154 58.568 64.7327 58.1969 64.8304C57.3376 65.0451 56.5954 65.0647 55.7362 65.0647C55.3456 65.0647 54.9551 65.0647 54.5449 65.0842C53.0607 65.1624 51.5765 65.3576 50.1118 65.5529L47.7489 65.8264L44.4874 66.1973C43.3937 66.334 42.3195 66.4904 41.2259 66.6856H41.2064C41.0503 66.7051 40.9135 66.7442 40.7574 66.7833C40.3472 66.8809 39.859 66.998 39.4294 66.9589C38.609 66.8809 38.3161 66.334 38.3942 65.5723V65.5529C38.4137 65.4162 38.4333 65.26 38.4724 65.1233C38.5113 64.9865 38.5701 64.8304 38.6286 64.6936C38.9021 64.0102 39.4879 63.2289 40.1713 62.9165C40.933 62.5454 41.7923 62.272 42.6126 62.057C43.5499 61.8032 44.5068 61.5689 45.4639 61.3736L47.319 60.9831L49.8971 60.4361C50.2876 60.3582 50.6587 60.2605 51.0296 60.1432L50.0141 59.9285L48.8619 59.6745C48.5494 59.616 48.237 59.5183 47.9245 59.4012C47.319 59.1472 46.6356 58.6981 46.0889 58.3076C45.6201 57.9756 45.1514 57.6239 44.6826 57.2919L44.4679 57.1358C44.1163 56.882 43.7257 56.6279 43.3546 56.3936L41.7143 55.3587L41.265 55.0658L39.0583 53.6596C38.7848 53.4837 38.5113 53.2885 38.2575 53.0932C38.0817 52.9761 37.9255 52.8394 37.7693 52.6832L37.6132 52.4877L37.6717 52.2534C37.8473 51.6285 38.1793 51.0817 38.7654 50.7692C39.6832 50.3004 40.9135 50.5348 41.8899 50.6912L42.183 50.7301L40.3863 48.1719L40.855 47.8399C41.2259 47.5079 41.6361 47.2735 42.0854 47.1953Z" fill="#F5F5F5"/>
<path d="M38.3179 36.788L38.7672 37.12L39.5873 37.7058L40.0364 38.0182L40.1146 38.0769L40.4466 38.2916C40.8177 38.5456 41.4232 38.9753 41.8917 38.9556C41.9505 38.9556 42.009 38.9556 42.0481 38.9362L39.6264 36.5145L38.3179 36.788Z" fill="#F5F5F5"/>
<path d="M41.0342 36.1409C41.3273 36.512 41.6396 36.8637 41.9522 37.1957C42.4209 37.7033 42.9482 38.1917 43.4755 38.6602C43.6708 38.836 43.866 38.9922 44.0613 39.1486C44.6471 39.6171 46.0728 40.6719 47.0102 40.5546L46.8541 40.3008L46.2095 39.2851L45.4869 38.1917L45.2135 37.8009C45.1744 37.7618 45.1355 37.6838 45.0767 37.6447L44.6862 37.3909L44.1589 37.0784C43.866 36.9025 43.5731 36.7464 43.2606 36.5902C42.7139 36.2973 42.1084 35.9847 41.5226 35.77L41.0342 36.1409Z" fill="#F5F5F5"/>
<path d="M39.6302 33.4053C39.3373 33.6005 39.0247 33.6593 38.6929 33.7178C38.5366 33.7569 38.3022 33.7764 38.1655 33.874C37.8335 34.0693 37.9313 34.6747 37.9898 35.0262C38.2046 35.1435 38.8686 35.1629 39.0638 35.1629C39.3764 35.1629 39.7084 35.1238 40.0207 35.0262C40.2551 34.9677 40.5286 34.8506 40.7238 34.6942C40.9191 34.5186 40.9973 34.3036 40.9582 34.0302C40.6068 33.6593 40.1184 33.4835 39.6302 33.4053Z" fill="#F5F5F5"/>
<path d="M50.8741 52.4275L50.425 52.0955L49.6046 51.5097L49.1555 51.1971L48.9211 51.0606V51.041C48.8626 51.0019 48.8041 50.9628 48.7453 50.9239C48.3744 50.6699 47.769 50.2599 47.3002 50.2599C47.2417 50.2599 47.2026 50.2599 47.144 50.2793L49.546 52.6619L50.8741 52.4275Z" fill="#F5F5F5"/>
<path d="M48.1839 53.0944C47.891 52.743 47.5981 52.3915 47.2661 52.0595C46.7973 51.5517 46.2895 51.0635 45.7622 50.6142C45.567 50.458 45.3717 50.2822 45.1764 50.126C44.5904 49.6573 43.2039 48.6222 42.2666 48.7198L42.4228 48.9542L43.0671 49.9699L43.7899 51.0439L44.0631 51.4344C44.1022 51.4735 44.1413 51.532 44.1804 51.5908C44.3172 51.6688 44.4539 51.7664 44.571 51.8446L45.0788 52.1572C45.3717 52.3328 45.6646 52.4892 45.9575 52.6453C46.4848 52.9382 47.0903 53.2311 47.6761 53.4461L48.1839 53.0944Z" fill="#F5F5F5"/>
<path d="M48.2833 55.1634C48.6153 55.5345 49.0841 55.7101 49.5722 55.7883C49.8457 55.593 50.1777 55.5345 50.5097 55.4759C50.6659 55.4563 50.8808 55.4172 51.037 55.3195C51.3495 55.1243 51.2713 54.5188 51.2128 54.1868C50.9979 54.0697 50.3535 54.0503 50.1583 54.0503C49.8457 54.0503 49.5137 54.0892 49.2208 54.1868C48.9864 54.2456 48.713 54.3626 48.5374 54.5188C48.3421 54.6752 48.2444 54.929 48.2833 55.1634Z" fill="#F5F5F5"/>
</g>
</g>
<defs>
<clipPath id="clip0_3212_2615">
<rect width="90" height="90" fill="white"/>
</clipPath>
</defs>
</svg>
