<svg width="90" height="90" fill="none" xmlns="http://www.w3.org/2000/svg"><g clip-path="url(#a)"><circle cx="45" cy="45" r="45" fill="#EFEFEF"/><path d="M46.355 71.218c-4.352 0-8.104-1.031-11.254-3.094-3.15-2.079-5.579-5.059-7.284-8.94-1.705-3.898-2.55-8.583-2.534-14.056.017-5.473.87-10.118 2.558-13.935 1.706-3.832 4.125-6.748 7.26-8.745 3.15-2.014 6.902-3.02 11.254-3.02 4.353 0 8.104 1.006 11.255 3.02 3.167 1.997 5.603 4.913 7.308 8.745 1.706 3.833 2.55 8.478 2.534 13.935 0 5.489-.853 10.182-2.558 14.08-1.705 3.898-4.133 6.878-7.284 8.94-3.134 2.047-6.886 3.07-11.255 3.07Zm0-9.866c2.599 0 4.702-1.324 6.31-3.97 1.608-2.664 2.403-6.749 2.387-12.254 0-3.606-.365-6.578-1.096-8.916-.73-2.355-1.746-4.11-3.045-5.262-1.3-1.153-2.818-1.73-4.556-1.73-2.582 0-4.669 1.308-6.26 3.922-1.592 2.599-2.396 6.594-2.412 11.986-.016 3.654.333 6.683 1.047 9.086.731 2.404 1.755 4.198 3.07 5.384 1.316 1.17 2.834 1.754 4.555 1.754Z" fill="#830009"/><path d="M42.312 71.218c-4.352 0-8.104-1.031-11.255-3.094-3.15-2.079-5.578-5.059-7.284-8.94-1.705-3.898-2.55-8.583-2.533-14.056.016-5.473.869-10.118 2.558-13.935 1.705-3.832 4.125-6.748 7.26-8.745 3.15-2.014 6.901-3.02 11.254-3.02 4.352 0 8.104 1.006 11.255 3.02 3.166 1.997 5.603 4.913 7.308 8.745 1.705 3.833 2.55 8.478 2.533 13.935 0 5.489-.852 10.182-2.558 14.08-1.705 3.898-4.133 6.878-7.283 8.94-3.135 2.047-6.886 3.07-11.255 3.07Zm0-9.866c2.598 0 4.702-1.324 6.31-3.97 1.607-2.664 2.403-6.749 2.387-12.254 0-3.606-.366-6.578-1.096-8.916-.731-2.355-1.746-4.11-3.046-5.262-1.299-1.153-2.817-1.73-4.555-1.73-2.582 0-4.67 1.308-6.26 3.922-1.592 2.599-2.396 6.594-2.412 11.986-.017 3.654.332 6.683 1.047 9.086.73 2.404 1.754 4.198 3.07 5.384 1.315 1.17 2.834 1.754 4.555 1.754Z" fill="#E1000F"/></g><defs><clipPath id="a"><path fill="#fff" d="M0 0h90v90H0z"/></clipPath></defs></svg>