<svg width="90" height="90" fill="none" xmlns="http://www.w3.org/2000/svg"><circle cx="45" cy="45" r="45" fill="#E31E25"/><path d="M71.252 45.124c-.231-5.955-2.067-10.79-6.406-14.46-4.248-3.596-9.198-4.485-14.59-3.373-.45.093-.92.21-1.356.32-1.02.232-1.449-.017-2.093-.44-.46-.32-.187-.444.129-.575a19.516 19.516 0 0 1 4.612-1.316c9.6-1.428 18.503 3.624 22.078 12.521 4.223 10.482-1.584 22.675-12.545 26.166-6.032 1.912-11.785 1.163-17.195-2.152-1.678-1.027-3.057-2.356-4.4-3.755-.39-.408-.348-.657.09-1.014 2.255-1.836 4.538-3.64 6.89-5.359 3.175-2.317 6.441-4.482 9.733-6.656 1.955-1.294 3.955-2.524 5.952-3.745a181.856 181.856 0 0 1 5.427-3.188c.47-.261.67-.277.856.29.397 1.192.419 1.173-.67 1.913-7.02 4.82-13.446 10.274-18.754 16.94-.255.318-.586.59 0 .956 4.477 2.693 9.17 3.595 13.885.892 5.491-3.168 8.17-8.103 8.357-13.965Z" fill="#FDFDFD"/><path d="M18.802 44.553c.106 5.187 1.414 9.299 4.387 12.793 3.633 4.268 8.332 6.098 13.93 5.738a19.17 19.17 0 0 0 4.464-.877c.348-.105 1.697.44 1.787.746.09.306-.145.366-.322.44a17.946 17.946 0 0 1-6.139 1.514c-7.923.434-14.216-2.55-18.625-9.095a19.528 19.528 0 0 1-3.182-12.826 19.602 19.602 0 0 1 5.726-11.93c5.99-5.859 13.138-7.434 21.157-4.867 3.189 1.02 5.865 2.897 8.149 5.313.705.746.686.76-.103 1.41-4.065 3.343-8.32 6.432-12.69 9.368-4.883 3.277-9.9 6.34-14.98 9.309-.58.34-.77.267-1.014-.354-.303-.775-.197-1.193.547-1.696 6.8-4.597 13.041-9.822 18.255-16.172.287-.354.522-.749.822-1.09.3-.341-.03-.405-.19-.53a11.353 11.353 0 0 0-4.107-1.877c-4.776-1.275-8.963-.162-12.538 3.207-3.505 3.303-5.263 7.351-5.334 11.476Z" fill="#FDFDFD"/><path d="M31.656 60.964a14.453 14.453 0 0 1-2.557-.918 16.103 16.103 0 0 1-3.501-2.26c-.57-.479-.164-.686.21-.903 2.076-1.188 4.156-2.373 6.241-3.554 2.442-1.39 4.883-2.782 7.324-4.176l9.57-5.473 7.835-4.463c2.835-1.623 5.682-3.226 8.5-4.877.58-.342.857-.262 1.208.274.77 1.17.792 1.147-.406 1.849-4.812 2.802-9.55 5.715-14.172 8.817-6.918 4.644-13.62 9.563-19.598 15.38-.19.173-.36.418-.654.304Z" fill="#FCFDFD"/><path d="M24.422 55.506c-.467.271-.686.204-.966-.217-.88-1.236-.892-1.217.57-2.094 4.352-2.633 8.696-5.266 12.948-8.078 6.258-4.144 12.345-8.505 17.923-13.525a92.174 92.174 0 0 0 2.641-2.493.793.793 0 0 1 .864-.255 15.018 15.018 0 0 1 5.884 3.236c.541.478.087.577-.229.758-4.786 2.74-9.58 5.48-14.384 8.221-1.565.9-22.658 12.949-25.25 14.447Z" fill="#FDFDFD"/></svg>