<svg width="90" height="90" viewBox="0 0 90 90" fill="none" xmlns="http://www.w3.org/2000/svg">
<circle cx="45" cy="45" r="45" fill="#57BF89"/>
<path d="M53.8031 27H36.1969C31.3708 27 26.7423 28.8965 23.3297 32.2722C19.9172 35.648 18 40.2265 18 45.0005H18C18 47.3643 18.4707 49.705 19.3852 51.8888C20.2997 54.0727 21.6401 56.057 23.3298 57.7284C25.0196 59.3998 27.0256 60.7257 29.2333 61.6302C31.4411 62.5347 33.8073 63.0001 36.1969 63H53.8031C56.1927 63.0001 58.5589 62.5347 60.7667 61.6302C62.9744 60.7257 64.9804 59.3998 66.6702 57.7284C68.3599 56.057 69.7003 54.0727 70.6148 51.8888C71.5293 49.705 72 47.3643 72 45.0005C72 40.2265 70.0828 35.648 66.6703 32.2722C63.2577 28.8965 58.6292 27 53.8031 27V27ZM64.8044 45.0005C64.8044 47.6749 63.7304 50.2397 61.8187 52.1308C59.907 54.0219 57.3142 55.0842 54.6106 55.0842H36.3008C33.5973 55.0842 31.0044 54.0219 29.0927 52.1308C27.181 50.2397 26.107 47.6749 26.107 45.0005C26.107 42.3261 27.181 39.7613 29.0927 37.8702C31.0044 35.9791 33.5973 34.9167 36.3008 34.9167H54.6116C57.3152 34.9167 59.908 35.9791 61.8197 37.8702C63.7314 39.7613 64.8054 42.3261 64.8054 45.0005H64.8044Z" fill="white"/>
<path d="M54.1619 51.8011C57.9587 51.8011 61.0367 48.7564 61.0367 45.0005C61.0367 41.2446 57.9587 38.1999 54.1619 38.1999C50.365 38.1999 47.2871 41.2446 47.2871 45.0005C47.2871 48.7564 50.365 51.8011 54.1619 51.8011Z" fill="white"/>
</svg>
