<svg xmlns="http://www.w3.org/2000/svg" width="90" height="90" fill="none"><circle cx="45" cy="45" r="45" fill="#4BACD0"/><g fill="#fff" clip-path="url(#a)"><path d="m71.698 28.1-10.65.907s-2.086-3.122-7.62-2.172c-5.535.95-4.854 6.198-4.945 8.551-.09 2.353-1.451 2.986-1.451 2.986-9.554-5.598-27.351-5.935-31.568-5.933a.464.464 0 0 0-.463.502.462.462 0 0 0 .09.235C27.572 49.924 33.128 49.66 33.128 49.66c10.796-.77 11.84 1.04 11.84 1.04-2.269-.939-7.19-.14-9.345.28a2.502 2.502 0 0 0-1.633 1.117c-4.927 7.796-5.45 15.875-5.467 18.736a.847.847 0 0 0 .677.837c.127.026.259.024.385-.008 10.116-2.559 14.61-5.957 16.16-7.408a.84.84 0 0 0-.044-1.264c-2.715-2.2-3.16-3.763-3.16-3.763 15.47-3.53 15.56-14.206 15.968-18.414.409-4.207 1.633-8.37 3.539-9.229 1.206-.543 6.236-1.924 9.76-2.863.376-.099.278-.655-.11-.622Zm-16.07 3.87a1.409 1.409 0 0 1-1.3-.865 1.4 1.4 0 0 1 1.025-1.913 1.41 1.41 0 0 1 1.444.597 1.4 1.4 0 0 1-1.17 2.181Z"/><path d="M26.976 62.48A24.903 24.903 0 0 1 19.836 45c0-.655.025-1.303.075-1.945l-3.46-3.982A29.033 29.033 0 0 0 15.845 45c0 8.985 4.097 17.015 10.53 22.335l.602-4.854ZM44.922 19.981c-8.162 0-15.413 3.888-19.995 9.908H20.1C25.207 21.56 34.416 16 44.922 16c8.846 0 16.766 3.936 22.099 10.152l-5.217.34a25.033 25.033 0 0 0-16.882-6.51ZM74 45c0 16.016-13.02 29-29.078 29a29.127 29.127 0 0 1-8.777-1.345l5.888-2.8c.959.11 1.924.164 2.89.164 13.853 0 25.085-11.202 25.085-25.019a24.85 24.85 0 0 0-3.124-12.1l3.996-.982A28.811 28.811 0 0 1 74 45Z"/></g><defs><clipPath id="a"><path fill="#fff" d="M15 16h59v58H15z"/></clipPath></defs></svg>