<svg width="90" height="90" viewBox="0 0 90 90" fill="none" xmlns="http://www.w3.org/2000/svg">
<circle cx="45" cy="45" r="45" fill="#F7F7F7"/>
<g clip-path="url(#clip0_501_2)">
<path d="M60.87 17H29.28C22.4979 17 17 22.4979 17 29.28V60.87C17 67.6521 22.4979 73.15 29.28 73.15H60.87C67.6521 73.15 73.15 67.6521 73.15 60.87V29.28C73.15 22.4979 67.6521 17 60.87 17Z" fill="#6CAC3B"/>
<path d="M29.28 17H60.88C64.1351 17.0027 67.256 18.2976 69.5568 20.6003C71.8576 22.9029 73.15 26.0249 73.15 29.28V46.74H17V29.28C17 26.0231 18.2938 22.8997 20.5967 20.5967C22.8997 18.2938 26.0231 17 29.28 17V17Z" fill="#0C3484"/>
<path d="M73.15 42.14H17V48.21H73.15V42.14Z" fill="white"/>
<path d="M38.13 28.84H31.28V61.51H38.13V28.84Z" fill="white"/>
<path d="M62.65 56.73L62.61 61.63L57.81 61.59L41.46 45.23L44.18 42.5L46.3 40.39L62.65 56.73Z" fill="white"/>
<path d="M62.65 33.73L51.15 45.23L49.02 47.36L46.3 50.08L41.46 45.23L44.18 42.5L46.3 40.39L57.81 28.88L62.61 28.84L62.65 33.73Z" fill="white"/>
</g>
<defs>
<clipPath id="clip0_501_2">
<rect width="56.15" height="56.15" fill="white" transform="translate(17 17)"/>
</clipPath>
</defs>
</svg>
