<svg width="90" height="90" fill="none" xmlns="http://www.w3.org/2000/svg"><circle cx="45" cy="45" r="45" fill="#FE4E2C"/><path d="M70.765 26.234c-1.107-1.837-2.275-3.639-3.325-5.508-.515-.915-.864-.688-1.43-.09a607.302 607.302 0 0 1-6.796 7.08c-.423.438-.7.998-.79 1.6-1.255 7.042-2.455 14.083-3.77 21.124-1.408 7.566-5.25 13.215-12.857 15.743-1.014.32-2.058.768-3.392.426 7.16-2.688 11.374-7.646 12.744-14.975.893-4.77 1.745-9.544 2.602-14.32.087-.492.234-1.014-.06-1.497-1.636-2.695-3.275-5.368-4.552-7.457-2.464 2.201-4.99 4.359-7.415 6.637-1.104 1.04-1.508 2.503-1.757 4.001-.708 4.231-1.415 8.462-2.24 12.674-.59 3.063-1.982 5.815-3.905 8.549 5.245-1.693 8.222-5.32 10.408-9.922a5.53 5.53 0 0 1 0 1.056c-1.22 6.302-4.372 11.164-10.405 13.84-3.943 1.76-8.14 2.172-12.421 1.945-.8-.041-1.6-.099-2.404-.153 2.368 1.28 4.718 2.182 7.336 2.493 2.946.314 5.909.45 8.871.406 4.44-.041 9.48-.32 11.023-.78.71-.152 1.411-.343 2.1-.574a49.322 49.322 0 0 0 8.564-3.658c5.303-2.97 9.602-6.9 10.882-13.122 1.43-6.948 2.56-13.96 3.84-20.947.304-1.577 0-3.21-.85-4.57Z" fill="#fff"/><path d="M25.375 62.15c-1.254-2.06-2.81-4.634-4.39-7.191a1.878 1.878 0 0 1-.32-1.437c1.28-6.196 1.89-12.536 3.664-18.627 1.818-6.273 5.277-11.266 11.698-13.615 4.765-1.741 9.63-1.504 14.498-.486 2.73.572 5.422 1.299 7.966 2.656-.755-.058-1.514-.112-2.269-.176-4.663-.394-9.282-.301-13.823 1.034-6.59 1.942-10.52 6.346-11.954 13.026a15.843 15.843 0 0 0-.41 3.344c2.186-4.75 5.137-8.641 10.562-10.417-.387.605-.64 1.04-.94 1.465-2.308 3.4-3.054 7.3-3.694 11.25-.49 3.076-1.044 6.145-1.6 9.211a6.157 6.157 0 0 1-1.793 3.495c-2.368 2.186-4.781 4.305-7.195 6.469Z" fill="#17233B"/></svg>