<svg width="90" height="90" viewBox="0 0 90 90" fill="none" xmlns="http://www.w3.org/2000/svg">
<circle cx="45" cy="45" r="45" fill="#6B4CB0"/>
<g clip-path="url(#clip0_203_23)">
<path d="M15.8574 51.9993C13.8853 51.9993 12.2464 51.3326 10.9407 49.9993C9.64726 48.6664 9.00037 46.9998 9 44.9996C8.99963 42.9994 9.64651 41.3391 10.9407 40.0188C12.2337 38.6725 13.8726 37.9995 15.8574 37.9999C17.0017 37.9905 18.1295 38.2783 19.1349 38.8363C20.1108 39.3664 20.9304 40.153 21.5088 41.1148L18.9087 42.6536C18.6235 42.1315 18.1941 41.7068 17.6741 41.4321C17.1398 41.1438 16.5339 40.9996 15.8563 40.9996C14.6755 40.9996 13.7402 41.3649 13.0502 42.0956C12.3596 42.814 12.0143 43.782 12.0143 44.9996C12.0143 46.2172 12.3588 47.1852 13.048 47.9036C13.7387 48.6343 14.674 48.9996 15.8541 48.9996C16.4865 49.0077 17.111 48.8557 17.6718 48.5573C18.1924 48.288 18.6224 47.8661 18.9064 47.3456L21.5065 48.8844C20.9384 49.8486 20.1235 50.6363 19.1495 51.1629C18.1391 51.7215 17.0064 52.0093 15.8574 51.9993Z" fill="white"/>
<path d="M32.9457 51.7301H29.7058L27.2192 47.3073H25.7864V51.7301H22.7732V38.2669H28.0486C29.3042 38.2669 30.3716 38.7155 31.2509 39.6127C32.1301 40.5098 32.5697 41.5997 32.5697 42.8822C32.5699 43.6893 32.3373 44.4786 31.9007 45.1515C31.4661 45.8461 30.8582 46.4101 30.1397 46.786L32.9457 51.7301ZM28.0481 41.1538H25.7864V44.6153H28.0481C28.4622 44.6153 28.8176 44.4485 29.1143 44.1151C29.411 43.7817 29.5584 43.3715 29.5566 42.8845C29.5566 42.3972 29.4091 41.9868 29.1143 41.6534C28.8195 41.3199 28.4641 41.1534 28.0481 41.1538Z" fill="white"/>
<path d="M37.2405 46.3844V48.7688H42.5159V51.7301H34.2268V38.2669H42.4205V41.2283H37.2405V43.4591H41.9491V46.381L37.2405 46.3844Z" fill="white"/>
<path d="M56.7268 51.7301V38.2669H59.741V51.7301H56.7268Z" fill="white"/>
<path d="M60.9187 38.2693H70.7141V41.2307H67.3233V51.7302H64.3096V41.2307H60.9187V38.2693Z" fill="white"/>
<path d="M71.9598 41.2307V38.2693H80.6256V40.8474L76.33 51.7325H73.1277L77.2723 41.233L71.9598 41.2307Z" fill="#52CDB0"/>
<path d="M43.7116 38.2789H48.9869C50.7959 38.2789 52.3159 38.9267 53.5468 40.2222C54.7777 41.5177 55.3932 43.1142 55.3932 45.0116C55.3932 46.9213 54.7777 48.5243 53.5468 49.8206C52.3279 51.1027 50.8079 51.7438 48.9869 51.7438H43.7116V38.2789ZM46.7264 48.7808H48.9881C50.0305 48.7808 50.8722 48.4408 51.5135 47.761C52.1661 47.0815 52.4927 46.1649 52.4934 45.0111C52.4942 43.8572 52.1676 42.9467 51.5135 42.2795C50.8727 41.587 50.0308 41.2408 48.9881 41.2408H46.7264V48.7808Z" fill="white"/>
</g>
<defs>
<clipPath id="clip0_203_23">
<rect width="72" height="14" fill="white" transform="translate(9 38)"/>
</clipPath>
</defs>
</svg>
