<svg xmlns="http://www.w3.org/2000/svg" width="90" height="90" fill="none"><circle cx="45" cy="45" r="45" fill="#8EBF18"/><g clip-path="url(#a)"><path fill="#020202" d="M45.55 51.382c-.66.822-1.31 1.583-1.905 2.386-.344.47-.567.608-1.052.12-1.69-1.706-3.42-3.368-5.153-5.027-.385-.368-.498-.61-.1-1.106 3.718-4.617 7.34-9.315 11.121-13.883 4.676-5.677 12.903-7.453 19.616-4.38 6.584 3.015 10.717 10.287 9.803 17.241-1.03 7.822-6.644 13.804-14.038 14.96-7.555 1.174-14.677-2.666-17.977-9.71a15.666 15.666 0 0 0-.316-.601Zm23.422-6.427a8.183 8.183 0 0 0-2.429-5.64 7.9 7.9 0 0 0-5.621-2.281 7.905 7.905 0 0 0-5.576 2.394 8.189 8.189 0 0 0-2.318 5.69c.028 4.384 3.637 7.969 7.999 7.945a7.805 7.805 0 0 0 3.049-.612 7.916 7.916 0 0 0 2.583-1.758 8.076 8.076 0 0 0 1.72-2.633 8.19 8.19 0 0 0 .593-3.105Z"/><path fill="#fff" d="M36.139 41.404c-1.337-2.313-3.139-3.81-5.696-4.291a7.853 7.853 0 0 0-5.037.676 8.048 8.048 0 0 0-3.614 3.634 8.207 8.207 0 0 0-.673 5.064 8.115 8.115 0 0 0 2.448 4.46 7.825 7.825 0 0 0 9.482.93c.703-.444 1.061-.406 1.615.197a141.823 141.823 0 0 0 4.726 4.959c.52.52.496.765-.065 1.235-9.325 7.81-24.115 2.715-26.864-9.261a17.187 17.187 0 0 1 1.054-11.019 16.784 16.784 0 0 1 7.524-7.994 16.662 16.662 0 0 1 10.842-1.628 16.851 16.851 0 0 1 9.549 5.475c.494.562.61.919.05 1.527-1.788 1.963-3.537 3.986-5.341 6.036Z"/></g><defs><clipPath id="a"><path fill="#fff" d="M12 28h66v34H12z"/></clipPath></defs></svg>