<svg width="90" height="90" viewBox="0 0 90 90" fill="none" xmlns="http://www.w3.org/2000/svg">
<g clip-path="url(#clip0_1_1995)">
<circle cx="45" cy="45" r="45" fill="#F5F5F5"/>
<path d="M68.3323 45.6801L66.9214 46.7341" stroke="#18B42E" stroke-width="0.6" stroke-linecap="round"/>
<path d="M68.1195 44.829L66.7087 45.883" stroke="#18B42E" stroke-width="0.6" stroke-linecap="round"/>
<path d="M68.7912 46.4248L67.1525 47.678C67.0588 47.7496 67.0413 47.8838 67.1134 47.9771L68.7912 50.1485" stroke="#18B42E" stroke-width="0.6" stroke-linecap="round"/>
<path d="M14 61.426L21.9793 61.426" stroke="#18B42E" stroke-width="0.851127" stroke-linecap="round"/>
<path d="M21.5 33C21 32.5 20.5323 30.4024 20.7025 29.2959C20.8184 28.5426 21.0396 28.0095 21.2249 27.69C21.3085 27.5458 21.4974 27.5902 21.5404 27.7513C21.8812 29.0298 22.6312 31.1099 23.8943 32.1685C24.9753 33.0744 25.6155 33.2471 25.9966 33.2589C26.1552 33.2638 26.2359 33.0772 26.1457 32.9467C25.1006 31.4347 23.524 29.2936 23.8943 26.1042C24.0548 24.7217 24.375 23.8962 24.6043 23.4443C24.6888 23.278 24.9345 23.3133 24.9859 23.4926C25.3654 24.8168 25.9107 26.4991 27.1924 28.232C28.5 30 29.5 31 30.5 32" stroke="#18B42E" stroke-width="0.6" stroke-linecap="round"/>
<path d="M18.1492 39.2966H24.8518" stroke="#18B42E" stroke-width="0.851127" stroke-linecap="round"/>
<path d="M48.8961 56.532L75.7066 56.532" stroke="#3E5BE5" stroke-width="0.851127" stroke-linecap="round"/>
<path d="M49.5345 58.0215L75.0683 58.0215" stroke="#3E5BE5" stroke-width="0.851127" stroke-linecap="round"/>
<path d="M49.1089 42.4884L75.7067 42.4884" stroke="#3E5BE5" stroke-width="0.851127" stroke-linecap="round"/>
<path d="M51.2368 59.7236L73.7916 59.7236" stroke="#3E5BE5" stroke-width="0.851127" stroke-linecap="round"/>
<path d="M58.6841 44.4034L65.9187 44.4034" stroke="#3E5BE5" stroke-width="0.851127" stroke-linecap="round"/>
<path d="M48.6833 44.4034H56.5563" stroke="#3E5BE5" stroke-width="0.851127" stroke-linecap="round"/>
<path d="M48.6833 46.1057H55.4924" stroke="#3E5BE5" stroke-width="0.851127" stroke-linecap="round"/>
<path d="M69.5359 46.1057H76.345" stroke="#3E5BE5" stroke-width="0.851127" stroke-linecap="round"/>
<path d="M48.2578 47.8079L55.4923 47.8079" stroke="#3E5BE5" stroke-width="0.851127" stroke-linecap="round"/>
<path d="M69.1104 47.8079L76.3449 47.8079" stroke="#3E5BE5" stroke-width="0.851127" stroke-linecap="round"/>
<path d="M48.2578 49.5102L55.4923 49.5102" stroke="#3E5BE5" stroke-width="0.851127" stroke-linecap="round"/>
<path d="M69.1104 49.5102L76.3449 49.5102" stroke="#3E5BE5" stroke-width="0.851127" stroke-linecap="round"/>
<path d="M48.2578 51.2124L55.4923 51.2124" stroke="#3E5BE5" stroke-width="0.851127" stroke-linecap="round"/>
<path d="M69.1104 51.2124L76.3449 51.2124" stroke="#3E5BE5" stroke-width="0.851127" stroke-linecap="round"/>
<path d="M48.2578 52.9147L55.4923 52.9147" stroke="#3E5BE5" stroke-width="0.851127" stroke-linecap="round"/>
<path d="M69.1104 52.9147L76.3449 52.9147" stroke="#3E5BE5" stroke-width="0.851127" stroke-linecap="round"/>
<path d="M48.2578 54.6169L55.4923 54.6169" stroke="#3E5BE5" stroke-width="0.851127" stroke-linecap="round"/>
<path d="M69.1104 54.6169L76.3449 54.6169" stroke="#3E5BE5" stroke-width="0.851127" stroke-linecap="round"/>
<path d="M68.2593 44.4034H76.1323" stroke="#3E5BE5" stroke-width="0.851127" stroke-linecap="round"/>
<path d="M58.6841 46.1057L65.9187 46.1057" stroke="#3E5BE5" stroke-width="0.851127" stroke-linecap="round"/>
<path d="M58.6841 47.8079L65.9187 47.8079" stroke="#3E5BE5" stroke-width="0.851127" stroke-linecap="round"/>
<path d="M58.6841 49.5102L65.9187 49.5102" stroke="#3E5BE5" stroke-width="0.851127" stroke-linecap="round"/>
<path d="M58.6841 51.2124L65.9187 51.2124" stroke="#3E5BE5" stroke-width="0.851127" stroke-linecap="round"/>
<path d="M58.6841 52.9147L65.9187 52.9147" stroke="#3E5BE5" stroke-width="0.851127" stroke-linecap="round"/>
<path d="M58.6841 54.6169L65.9187 54.6169" stroke="#3E5BE5" stroke-width="0.851127" stroke-linecap="round"/>
<path d="M27.8307 39.2966H31.448" stroke="#18B42E" stroke-width="0.851127" stroke-linecap="round"/>
<path d="M18.1492 40.999H24.8518" stroke="#18B42E" stroke-width="0.851127" stroke-linecap="round"/>
<path d="M27.8307 40.999H31.8736" stroke="#18B42E" stroke-width="0.851127" stroke-linecap="round"/>
<path d="M18.0428 42.7012H24.7455" stroke="#18B42E" stroke-width="0.851127" stroke-linecap="round"/>
<path d="M27.8307 42.7012H34.8525" stroke="#18B42E" stroke-width="0.851127" stroke-linecap="round"/>
<path d="M27.8307 44.4034H33.5759" stroke="#18B42E" stroke-width="0.851127" stroke-linecap="round"/>
<path d="M27.8307 46.1057H33.4695" stroke="#18B42E" stroke-width="0.851127" stroke-linecap="round"/>
<path d="M27.8307 47.8079H33.2567" stroke="#18B42E" stroke-width="0.851127" stroke-linecap="round"/>
<path d="M27.8307 49.5102H34.1078" stroke="#18B42E" stroke-width="0.851127" stroke-linecap="round"/>
<path d="M27.8307 51.2124H35.0653" stroke="#18B42E" stroke-width="0.851127" stroke-linecap="round"/>
<path d="M27.8307 52.9147H34.8525" stroke="#18B42E" stroke-width="0.851127" stroke-linecap="round"/>
<path d="M27.8307 54.6169H34.8525" stroke="#18B42E" stroke-width="0.851127" stroke-linecap="round"/>
<path d="M17.8301 44.4034H24.5327" stroke="#18B42E" stroke-width="0.851127" stroke-linecap="round"/>
<path d="M17.6173 46.1057H24.3199" stroke="#18B42E" stroke-width="0.851127" stroke-linecap="round"/>
<path d="M17.4045 47.8079H24.1071" stroke="#18B42E" stroke-width="0.851127" stroke-linecap="round"/>
<path d="M17.1917 49.5102H23.8943" stroke="#18B42E" stroke-width="0.851127" stroke-linecap="round"/>
<path d="M16.9789 51.2124H23.6815" stroke="#18B42E" stroke-width="0.851127" stroke-linecap="round"/>
<path d="M16.7661 52.9147H23.4687" stroke="#18B42E" stroke-width="0.851127" stroke-linecap="round"/>
<path d="M16.3406 54.6169H23.0432" stroke="#18B42E" stroke-width="0.851127" stroke-linecap="round"/>
<path d="M14 56.3192L36.5549 56.3192" stroke="#18B42E" stroke-width="0.851127" stroke-linecap="round"/>
<path d="M14 58.0215L25.703 58.0215" stroke="#18B42E" stroke-width="0.851127" stroke-linecap="round"/>
<path d="M14 59.7236L22.8304 59.7236" stroke="#18B42E" stroke-width="0.851127" stroke-linecap="round"/>
<path d="M14 62.7026L18.4684 62.7026" stroke="#18B42E" stroke-width="0.851127" stroke-linecap="round"/>
<path d="M30.9161 36.9561C30.9904 37.0451 31.0688 37.1239 31.1493 37.1931C31.4543 37.3896 31.7897 37.2528 31.8737 37.1689C32.0452 36.9973 32.2374 36.8942 32.4056 37.0625C32.512 37.1688 32.6184 37.488 32.4056 37.5944C32.2225 37.6859 31.6456 37.6199 31.1493 37.1931C31.0676 37.1405 30.9881 37.0639 30.9161 36.9561Z" fill="#18B42E"/>
<path d="M30.9161 36.9561C31.4481 37.5944 32.1928 37.7008 32.4056 37.5944C32.6184 37.488 32.512 37.1688 32.4056 37.0625C32.2374 36.8942 32.0452 36.9973 31.8737 37.1689C31.7673 37.2752 31.2566 37.4667 30.9161 36.9561Z" stroke="#18B42E" stroke-width="0.6" stroke-linecap="round"/>
<path d="M34.6398 40.3606C34.8526 39.935 34.7462 39.9563 34.7462 39.6158C34.7462 39.1903 34.959 39.2967 34.959 38.9775C34.959 38.7221 34.8171 38.1618 34.7462 37.9136" stroke="#18B42E" stroke-width="0.6" stroke-linecap="round"/>
<path d="M35.1718 34.9346C34.959 35.1474 34.5121 35.6155 34.427 35.7858C34.3206 35.9985 34.7462 35.9985 34.8526 36.1049C34.959 36.2113 34.7462 36.4241 34.3206 36.6369C33.9802 36.8071 33.8951 37.0624 33.8951 37.1688" stroke="#18B42E" stroke-width="0.6" stroke-linecap="round"/>
<path d="M44.3214 34.1899C44.676 34.4736 45.4491 35.2963 45.7044 36.3177C46.0236 37.5944 46.3428 38.5519 46.6619 39.1902C46.9811 39.8286 46.9811 40.7861 46.6619 41.6372" stroke="#18B42E" stroke-width="0.6" stroke-linecap="round"/>
<path d="M71.7702 39.236C71.4865 39.2715 71.4297 39.2754 71.7702 38.7647C72.1958 38.1264 71.983 37.9136 71.7702 38.02C71.5587 38.1257 70.7362 38.7081 70.3037 39.0648C70.2883 39.0776 70.2715 39.0879 70.2531 39.0958C69.6862 39.3375 68.8729 39.4889 69.9615 38.2328C71.4899 36.4693 72.0894 33.3388 71.8766 32.0621C71.7064 31.0407 71.2382 30.3598 71.0255 30.679C70.8127 31.1046 70.8151 31.2865 70.4935 31.8493C70.0679 32.594 68.8018 33.8836 68.1529 34.4027C67.664 34.7938 66.486 35.6044 65.7754 36.0083C65.6773 36.0641 65.5486 36.0304 65.5159 35.9223C65.3898 35.506 65.7892 35.2453 66.2379 34.7219C66.8762 33.9771 69.4296 31.4237 69.8552 29.9343C70.2807 28.4448 69.7488 26.7425 69.4296 26.2106C69.1104 25.6786 69.3583 26.2185 68.6849 27.7001C68.1737 28.8247 66.0904 30.9319 64.89 31.7555C64.8078 31.812 64.7279 31.7791 64.7677 31.6876C64.8785 31.4327 65.2415 30.9501 65.4931 30.5726C65.7059 30.2534 66.8762 28.8704 66.8762 26.4234C66.8762 24.7181 66.6538 23.4133 66.3946 23.0906C66.3283 23.008 66.1634 23.007 66.0889 23.0822C65.892 23.2809 65.5254 23.8217 65.0676 24.5083C64.2758 25.696 62.0944 28.0876 60.3864 29.1895C57.0883 31.3173 53.471 32.0621 52.7262 32.3813C51.9815 32.7004 49.4281 33.0063 47.8323 34.4027C47.1514 34.9985 46.8747 35.4666 46.662 36.3177C46.4492 37.1688 46.2364 36.5305 46.13 35.6794C46.0415 34.9712 45.7357 34.2294 44.9597 32.8068C44.3214 31.6365 42.4808 29.6151 41.6616 28.8704C40.4913 27.8064 39.9593 27.3809 38.789 27.0617C36.9386 26.5571 35.5973 27.1681 34.8526 27.7001C34.3484 28.0603 32.6538 29.4023 32.1928 30.1471C32.1928 29.8279 32.1928 29.0832 32.1928 28.6576C32.1928 28.1257 31.9588 27.4448 31.7672 27.7001C31.4481 28.1256 31.1289 29.0831 31.0225 30.0407C30.9161 30.9982 30.4449 35.1474 30.5969 36.2114C30.7033 36.9561 31.4481 37.488 31.7672 37.9136C32.0096 38.2368 31.8877 38.905 31.7837 39.245C31.7733 39.2792 31.7705 39.3148 31.7771 39.35C31.8541 39.7608 32.03 40.5669 32.1928 40.8926C32.3357 41.1784 33.1384 41.834 33.7071 42.268C33.8372 42.3672 34.0257 42.2857 34.0501 42.1238C34.106 41.7542 34.1988 41.258 34.3206 40.8926C34.5334 40.2542 34.8526 40.2542 35.2781 39.935C35.7037 39.6158 35.9165 39.5094 36.1293 39.1903C36.342 38.8711 36.4484 38.9775 36.4484 39.5094C36.4484 40.0414 36.1293 41.2117 35.8101 41.9564C35.4909 42.7012 34.959 43.0203 34.6398 43.3395C34.3206 43.6587 34.0014 43.9779 33.8951 44.1906C33.7887 44.4034 33.8951 44.829 34.427 44.7226C34.959 44.6162 34.6398 45.0418 34.3206 45.4673C34.0014 45.8929 33.5759 45.8929 33.6823 46.2121C33.7887 46.5312 34.0014 46.5312 34.0014 46.9568C34.0014 47.3824 33.8951 47.276 33.6823 47.7015C33.4695 48.1271 33.3631 48.5527 33.8951 48.5527C34.427 48.5527 34.5334 48.1271 34.6398 48.3399C34.7462 48.5527 34.427 48.7654 34.427 48.9782C34.427 49.191 34.2142 49.8293 34.6398 50.1485C35.1406 50.5242 34.5334 50.6983 34.6398 50.9111C34.7462 51.1239 35 51 35.5 51C35.7379 51 35.4909 50.9996 35.4909 51.5316C35.4909 52.0636 35.5973 51.9572 35.7037 52.3827C35.8101 52.8083 35.5973 53.1275 35.7037 53.4466C35.8101 53.7658 36.342 54.9361 37.406 55.7872C37.8049 56.1064 38.3635 56.532 39.0018 56.7448C39.3357 56.856 39.6178 56.8568 39.7693 56.7964C39.8276 56.7731 39.8497 56.7089 39.8454 56.6463C39.8238 56.3358 39.803 55.7668 39.8529 55.3617C39.9593 53.7658 41.1296 50.6805 41.5552 50.1485C41.9808 49.6166 42.9383 48.2335 44.215 48.1271C45.2363 48.042 45.7754 48.3753 45.9172 48.5527" stroke="#18B42E" stroke-width="0.6" stroke-linecap="round"/>
<path d="M39.0018 56.7448C38.3635 56.532 38.0761 56.4256 37.7251 56.4256C37.1932 56.4256 36.5548 56.6384 36.1293 56.9576C35.7037 57.2767 35.0531 57.8274 34.7462 57.9151C34.0015 58.1279 33.6823 57.9151 32.6184 58.447C31.5545 58.979 29.533 58.979 28.3627 58.8726C27.1924 58.7662 26.7669 58.1278 26.1285 58.447C25.4902 58.7662 25.3838 59.5109 25.0646 59.8301C24.7455 60.1493 24.9582 59.5109 24.0007 59.5109C23.0432 59.5109 23.1496 59.8301 23.1496 60.3621C23.1496 60.894 23.0432 61.1068 22.4049 61.426C21.7665 61.7451 21.6601 62.1707 21.8729 62.5963C22.0212 62.8928 22.7184 63.8568 23.177 64.4754C23.266 64.5955 23.449 64.5887 23.5371 64.468C23.7709 64.1474 24.1436 63.7068 24.5327 63.4474C25.171 63.0218 25.703 62.809 25.9158 62.4899C26.1285 62.1707 26.7669 62.1707 27.2988 62.5963C27.8308 63.0218 27.7244 63.873 28.3627 63.6602C29.0011 63.4474 29.1075 63.2346 29.7458 63.4474C30.3842 63.6602 30.7033 64.0857 30.9161 63.873C31.1289 63.6602 30.9161 62.809 31.2353 62.5963C31.4872 62.4283 34.7294 62.4537 36.3827 62.4885C36.4262 62.4894 36.4677 62.4767 36.5045 62.4534C36.7158 62.3194 37.0163 62.1707 37.406 62.1707C38.1507 62.1707 41.9966 62.2771 44.4436 62.2771C45.0819 62.2771 46.1595 62.1702 46.5 62C46.9256 61.7872 47.3617 61.1383 48 60.5C48.6383 59.8617 49.3217 59.6173 49.6409 59.6173" stroke="#18B42E" stroke-width="0.6" stroke-linecap="round"/>
<path d="M51.5559 60.7876C50.6693 60.6812 49.058 60.7265 48.1514 61.5323C47.1939 62.3835 46.9811 63.7665 47.1939 64.5113C47.3899 65.1975 48.1514 66.8519 49.96 66.9583C51.7687 67.0647 53.3645 66.9583 53.7901 66.7455C54.2157 66.5327 54.5348 66.3199 54.0029 66.2135C53.4709 66.1071 52.7262 66.0007 52.3006 65.5752C51.8751 65.1496 51.3177 63.973 50.492 63.7665C49.6409 63.5538 49.7472 63.8729 49.3217 63.9793C48.8961 64.0857 48.7731 63.8231 48.6833 63.5538C48.5936 63.2845 48.5769 62.9154 49.3217 62.5962C50.0664 62.2771 51.3431 62.2771 52.407 62.4898C52.9349 62.5954 56.6272 62.6317 58.2585 62.5962" stroke="#18B42E" stroke-width="0.6" stroke-linecap="round"/>
<path d="M69.536 61.6388C69.2523 61.6033 68.6423 61.5749 68.4721 61.7452C68.2593 61.958 68.4721 62.2771 67.8337 62.3835C67.1954 62.4899 66.9826 62.0644 66.7698 62.3835C66.557 62.7027 66.2128 62.5 66 62.5" stroke="#18B42E" stroke-width="0.6" stroke-linecap="round"/>
<path d="M52.3007 39.2966H71.8766" stroke="#3E5BE5" stroke-width="0.851127" stroke-linecap="round"/>
<path d="M50.5984 40.7861H74.2172" stroke="#3E5BE5" stroke-width="0.851127" stroke-linecap="round"/>
<rect x="58.2586" y="32.7004" width="7.87292" height="5.10676" fill="#3E5BE5"/>
<rect x="58.2586" y="61.2131" width="7.87292" height="1.70225" fill="#3E5BE5"/>
<path fill-rule="evenodd" clip-rule="evenodd" d="M31.6963 37.8072L31.3416 37.3816L30.8486 36.8887C30.8231 36.8631 30.8044 36.8314 30.7945 36.7967L30.6051 36.1336C30.5996 36.1146 30.5969 36.0949 30.5969 36.0751V34.9346V34.0835L30.6833 32.7004H18.0428V37.8072H31.6963Z" fill="#18B42E"/>
</g>
<defs>
<clipPath id="clip0_1_1995">
<rect width="90" height="90" fill="white"/>
</clipPath>
</defs>
</svg>
