<svg width="90" height="90" viewBox="0 0 90 90" fill="none" xmlns="http://www.w3.org/2000/svg">
<g clip-path="url(#clip0_3026_597)">
<circle cx="45" cy="45" r="45" fill="#F5F5F5"/>
<path d="M40.7472 66H25.0653L32.3097 22.3636H47.6932C52.0824 22.3636 55.7259 23.2585 58.6236 25.0483C61.5355 26.8381 63.5881 29.402 64.7812 32.7401C65.9744 36.0639 66.1875 40.0341 65.4205 44.6506C64.6818 49.1108 63.2116 52.9389 61.0099 56.1349C58.8082 59.3168 55.9886 61.7599 52.5511 63.4645C49.1136 65.1548 45.179 66 40.7472 66ZM35.6122 58.0952H41.2798C44.0213 58.0952 46.4219 57.5838 48.4815 56.5611C50.5554 55.5384 52.2528 53.9616 53.5739 51.831C54.9091 49.7003 55.8537 46.973 56.4077 43.6491C56.9332 40.4957 56.8977 37.9389 56.3011 35.9787C55.7188 34.0043 54.5895 32.5625 52.9134 31.6534C51.2372 30.7301 49.0355 30.2685 46.3082 30.2685H40.2358L35.6122 58.0952Z" fill="#529F61"/>
</g>
<defs>
<clipPath id="clip0_3026_597">
<rect width="90" height="90" fill="white"/>
</clipPath>
</defs>
</svg>
