<svg width="90" height="90" fill="none" xmlns="http://www.w3.org/2000/svg"><g clip-path="url(#a)"><circle cx="45" cy="45" r="45" fill="#E30613"/><path d="M24.193 66.91V51.023h2.548c.856-.578 1.639-1.385 2.35-2.422.71-1.048 1.32-2.518 1.825-4.41.506-1.903.868-4.416 1.085-7.537l1.157-15.67h25.321v30.04h3.977v15.868h-8.604V58H32.796v8.91h-8.603Zm12.814-15.887h12.87V28.25h-8.695l-.578 8.404c-.157 2.35-.41 4.423-.759 6.218-.35 1.795-.765 3.362-1.247 4.7-.482 1.325-1.012 2.475-1.59 3.451Z" fill="#fff"/></g><defs><clipPath id="a"><path fill="#fff" d="M0 0h90v90H0z"/></clipPath></defs></svg>