<svg xmlns="http://www.w3.org/2000/svg" width="90" height="90" fill="none"><circle cx="45" cy="45" r="45" fill="#005DAB"/><path fill="#78B943" fill-rule="evenodd" d="m66.624 40.118-7 7.846v13.692H30.359V37.82c0-7.95 6.65-14.49 14.718-14.49 2.233.02 4.438.5 6.475 1.413h.087a16.72 16.72 0 0 1 4.966 3.976l.709-.515 4.344-4.86a26.517 26.517 0 0 0-6.917-5.135h-.087A21.46 21.46 0 0 0 45.077 16C33.019 16 23 25.716 23 37.82V69h43.978V40.118h-.354Z" clip-rule="evenodd"/><path fill="#fff" d="m46.232 48.692 19.945-22.71c.092-.087.092-.087.18 0 .875.972.621 1.944-.18 2.83l-19.77 22.082a.438.438 0 0 1-.53.087l-10.994-6.273c-.801-.527-1.422-1.307-.622-2.558.088-.092.088-.092.175 0l11.616 6.712a.193.193 0 0 0 .18-.17Z"/><path fill="#fff" d="m46.232 44.8 20.037-22.697c.088-.087.088-.087.175 0 .875.972.622 1.944-.175 2.829L46.407 47.005a.437.437 0 0 1-.53.092l-10.994-6.364c-.801-.527-1.422-1.308-.622-2.559.088-.091.088-.091.175 0l11.616 6.713c.088.087.18 0 .18-.087Z"/><path fill="#fff" d="m46.232 52.659 19.945-22.71c.092-.087.092-.087.18 0 .875.972.621 1.944-.18 2.825l-19.77 22.02a.438.438 0 0 1-.53.088l-10.994-6.286c-.801-.531-1.422-1.307-.622-2.563.088-.087.088-.087.175 0l11.616 6.718a.32.32 0 0 0 .18-.092Z"/><path fill="#fff" d="m46.232 56.538 19.945-22.692c.092-.092.092-.092.18 0 .875.972.621 1.944-.18 2.824l-19.77 21.995a.438.438 0 0 1-.53.092l-10.994-6.273c-.801-.531-1.422-1.307-.622-2.563.088-.087.088-.087.175 0l11.616 6.713c.088 0 .18 0 .18-.096Z"/></svg>