<svg xmlns="http://www.w3.org/2000/svg" width="90" height="90" fill="none"><circle cx="45" cy="45" r="45" fill="#CC3541"/><path fill="#fff" fill-rule="evenodd" d="M80.298 37.504c.811 0 1.475.634 1.475 1.41 0 .775-.664 1.41-1.475 1.41s-1.476-.635-1.476-1.41c0-.776.665-1.41 1.476-1.41Zm-.05.587H79.979v.705h.222c.122 0 .245-.023.32-.094a.381.381 0 0 0 .122-.282c0-.094-.025-.188-.098-.235-.074-.07-.173-.094-.295-.094Zm-.516-.14c.074-.024.148-.024.246-.024h.246c.098 0 .172 0 .246.023.074.024.147.047.196.094.05.047.1.094.148.165a.56.56 0 0 1-.074.587.553.553 0 0 1-.32.188l.148.094.492.752h-.27l-.541-.822-.271-.047v.87h-.246v-1.88ZM23.646 53.976l-.295-2.28-10.327.024-.27 2.279h-2.336v-5.005h1.598c1.967-2.374 2.311-6.368 2.336-9.8.024-3.571 1.45-3.148 3.516-3.172L24.163 36l.024 12.971 1.77-.023.025 5.029h-2.336Zm44.013-2.35c.738-.212 1.525-.54 1.992-.8l-.762-2.185c-1.058.564-2.287 1.081-3.492 1.081-.443 0-.811-.211-1.082-.376-.27-.164-.393-.446-.368-.822 0-.306.147-.54.418-.729a4.36 4.36 0 0 1 1.007-.493c.394-.141.837-.306 1.304-.47.467-.165.91-.376 1.303-.658a4.345 4.345 0 0 0 1.033-1.057c.295-.424.442-.988.467-1.645.05-1.105-.27-1.95-.934-2.538-1.304-1.152-3.762-.987-5.385-.588-.738.188-1.303.376-1.721.611l.59 2.115c.983-.352 2.016-.799 3.049-.822.91 0 1.352.493 1.328 1.151 0 .282-.148.494-.419.658-.27.164-.615.329-1.008.47-.393.141-.836.306-1.303.47a6.02 6.02 0 0 0-1.303.634 3.866 3.866 0 0 0-1.033 1.034c-.295.423-.443.964-.467 1.622-.05 1.128.295 2.02 1.033 2.679 1.401 1.222 4.008 1.128 5.753.658Zm3.05-10.598c.614-.282 1.376-.494 2.237-.635.86-.164 1.77-.235 2.704-.235.812 0 1.5.094 2.041.282.541.188.984.447 1.303.8.32.352.542.751.689 1.221.148.47.197 1.01.197 1.622 0 .657-.025 1.316-.074 1.973-.05.658-.074 1.316-.074 1.974 0 .635.025 1.27.074 1.88a6.47 6.47 0 0 0 .369 1.716h-2.483l-.492-1.551h-.123c-.32.47-.738.963-1.303 1.292-.566.33-1.279.517-2.14.517-.54 0-1.032-.07-1.475-.235-1.352-.493-2.115-1.762-2.115-3.125 0-.682.172-1.27.468-1.74.32-.47.786-.845 1.376-1.15.59-.282 1.328-.494 2.164-.611.836-.118 1.77-.142 2.803-.118.099-.846.05-1.433-.196-1.81-.246-.375-.763-.54-1.574-.54-.614 0-1.254.07-1.943.188a7.433 7.433 0 0 0-1.671.47l-.763-2.185Zm3.909 8.342c.615 0 1.107-.141 1.45-.4.37-.258.615-.54.787-.846v-1.457a9.404 9.404 0 0 0-1.401-.023 4.37 4.37 0 0 0-1.18.211c-.344.118-.615.259-.812.447-.196.188-.295.446-.295.752 0 .423.123.752.394.987.245.211.59.329 1.057.329Zm-20.63.235c.566.07 1.033.07 1.476-.07.885-.26 1.475-.8 1.475-1.74 0-.963-.689-1.457-2.066-1.457-.516 0-1.032.141-1.401.306v1.786c0 .564-.074 1.104.516 1.175Zm-.516-5.029c.688-.235 1.45-.305 2.188-.329.812 0 1.5.094 2.066.259.565.164 1.032.422 1.377.728.344.306.614.681.762 1.104.147.423.246.893.246 1.387 0 1.363-.418 2.373-1.254 3.055-.836.681-2.312 1.175-4.328 1.175-1.992 0-4.057-.4-4.082-2.89l-.024-8.625h3.049v4.136Zm-8.213 2.28h-3.836v4.793h-3.048V40.465h3.048v4.23h3.836v-4.23h3.05l.024 11.232h-3.05l-.024-4.84Zm-8.827 3.853c-.467.353-1.106.658-1.918.917-.811.258-1.672.376-2.582.376-1.893 0-3.27-.517-4.155-1.575-.885-1.057-1.328-2.49-1.328-4.347 0-1.974.492-3.454 1.475-4.441.984-.987 2.361-1.48 4.156-1.48.59 0 1.18.07 1.746.21a4.2 4.2 0 0 1 1.5.73c.442.352.786.798 1.057 1.386.27.587.393 1.316.393 2.185 0 .94-.393 2.138-1.795 2.138l-5.483.024c.05.94.295 1.645.762 2.138.468.47 1.205.705 2.238.705a4.97 4.97 0 0 0 1.721-.282c.517-.188.885-.376 1.156-.564l1.057 1.88Zm-4.377-8.224c-.787 0-1.377.235-1.77.681-.393.47-.615 1.057-.689 1.833h3.099c.811 0 1.377.07 1.254-.87-.05-.399-.172-.728-.37-1.01-.343-.423-.835-.634-1.524-.634ZM20.966 48.97l-.025-10.715h-2.163c-1.082 0-1.451-.212-1.525 1.245-.098 2.233-.32 4.348-.614 5.781-.345 1.692-.96 3.078-1.427 3.69h5.754Zm59.332-11.373c.762 0 1.377.587 1.377 1.316 0 .728-.615 1.316-1.377 1.316s-1.377-.588-1.377-1.316c0-.729.615-1.316 1.377-1.316Z" clip-rule="evenodd"/></svg>