<svg width="90" height="90" fill="none" xmlns="http://www.w3.org/2000/svg"><circle cx="45" cy="45" r="45" fill="#EFEFEF"/><path fill-rule="evenodd" clip-rule="evenodd" d="M50.959 55.181c-1.19-6.85-2.845-13.6-4.216-20.402-4.888 6.726-9.802 13.502-14.38 20.427 6.207.175 12.415.15 18.596-.025Zm-25.812-.024C33.37 44.246 41.545 33.31 49.174 22h6.57c2.302 11.11 4.94 22.146 7.733 33.157h3.62c-1.163 2.94-2.12 5.704-2.353 8.843l-.957-.449c-1.448-.672-3.155-1.47-4.94-2.067-1.758-.598-3.62-1.021-5.457-1.021H33.966c-2.017 0-4.164.249-6.259.672a35.566 35.566 0 0 0-6.155 1.844L20 63.602c1.086-2.79 1.759-5.456 2.017-8.445h3.13Z" fill="#6BB52B"/></svg>