<svg width="90" height="90" viewBox="0 0 90 90" fill="none" xmlns="http://www.w3.org/2000/svg">
<g clip-path="url(#clip0_3212_3072)">
<circle cx="45" cy="45" r="45" fill="#F5F5F5"/>
<path d="M75.2592 65H66.6667L63.1111 58.4814H48.2964L52.7407 50.4815H59.2593L54.5186 41.8889L47.2762 55.339C44.0721 61.2894 37.8597 65 31.1016 65H16V25H31.7253C37.1018 25 42.1451 27.6052 45.2567 31.9896L46.8148 34.1852L42.6667 42.1852L42.5505 41.6706C41.4057 36.6006 36.9013 33 31.7037 33H23.7038V57.5926H28.7542C34.0307 57.5926 38.8737 54.6713 41.3347 50.0038L54.5186 25L75.2592 65Z" fill="url(#paint0_linear_3212_3072)"/>
</g>
<defs>
<linearGradient id="paint0_linear_3212_3072" x1="45.6296" y1="25" x2="45.6296" y2="65" gradientUnits="userSpaceOnUse">
<stop stop-color="#FD0101"/>
<stop offset="1" stop-color="#C43122"/>
</linearGradient>
<clipPath id="clip0_3212_3072">
<rect width="90" height="90" fill="white"/>
</clipPath>
</defs>
</svg>
