<svg xmlns="http://www.w3.org/2000/svg" width="90" height="90" fill="none"><circle cx="45" cy="45" r="45" fill="#FED61B"/><g clip-path="url(#a)"><path fill="#fff" d="M66.533 40.277a13.218 13.218 0 0 0-3.065-3.997 29.774 29.774 0 0 1-2.431 11.166c.075.591.111 1.186.109 1.782a18.801 18.801 0 0 1-1.407 7.448 11.87 11.87 0 0 1-4.068 5.181 10.564 10.564 0 0 1-6.27 1.883h-6.95l.541-3.357.539-3.314 1.228-7.588.612-3.78.908-5.623h3.058c.418-1.506.623-3.066.609-4.632a9.089 9.089 0 0 0-.352-2.627h-9.297l-2.762 17.12-1.172 7.26-.524 3.253L34.139 71h15.043c3.784 0 7.12-.92 10.008-2.757a18.428 18.428 0 0 0 6.749-7.802c1.616-3.373 2.423-7.274 2.42-11.705 0-3.237-.608-6.057-1.826-8.459Z"/><path fill="#000" d="M67.17 40.277a13.218 13.218 0 0 0-3.065-3.997 29.774 29.774 0 0 1-2.431 11.166c.075.591.111 1.186.109 1.782a18.801 18.801 0 0 1-1.408 7.448 11.871 11.871 0 0 1-4.064 5.181 10.564 10.564 0 0 1-6.27 1.883h-6.95l.542-3.357.538-3.314 1.228-7.588.612-3.78.908-5.623h3.058c.418-1.506.623-3.066.609-4.632a9.089 9.089 0 0 0-.352-2.627h-9.297l-2.762 17.12-1.172 7.26-.524 3.253L34.797 71h15.025c3.784 0 7.12-.92 10.008-2.757a18.43 18.43 0 0 0 6.75-7.802c1.615-3.373 2.422-7.274 2.42-11.705 0-3.237-.61-6.057-1.83-8.459Z"/><path fill="#fff" d="M60.157 33.187a17.515 17.515 0 0 0-1.76-6.71 12.944 12.944 0 0 0-5.235-5.54C50.889 19.646 48.184 19 45.047 19h-12.89L26 57.2h7.108l3.934-24.4h.042l1.056-6.54h6.116c2.843 0 5.013.81 6.51 2.428a8.267 8.267 0 0 1 1.998 4.112c0 .066.028.134.039.2.14.8.209 1.61.204 2.424a20.55 20.55 0 0 1-.605 5.077 16.434 16.434 0 0 1-.803 2.374 12.044 12.044 0 0 1-3.518 4.752l-1.408 8.796a17.042 17.042 0 0 0 4.374-1.98 18.345 18.345 0 0 0 6.644-7.59c.038-.072.073-.144.109-.216.87-1.834 1.5-3.778 1.875-5.782.29-1.52.462-3.06.514-4.607.021-.437.028-.878.028-1.326a21.812 21.812 0 0 0-.06-1.735Z"/><path fill="#000" d="M60.886 33.187a17.516 17.516 0 0 0-1.76-6.71 12.944 12.944 0 0 0-5.236-5.54C51.617 19.646 48.912 19 45.776 19h-12.89l-6.158 38.2h7.108l3.934-24.4h.043l1.055-6.54h6.134c2.843 0 5.013.81 6.51 2.428A8.267 8.267 0 0 1 53.51 32.8c0 .066.028.134.039.2.14.8.209 1.61.204 2.424a20.547 20.547 0 0 1-.623 5.077 16.434 16.434 0 0 1-.802 2.374 12.046 12.046 0 0 1-3.501 4.752l-1.408 8.796a17.042 17.042 0 0 0 4.374-1.98 18.345 18.345 0 0 0 6.644-7.59c.038-.072.073-.144.109-.216.87-1.834 1.5-3.778 1.875-5.782.29-1.52.462-3.06.514-4.607.021-.437.028-.878.028-1.326a35.19 35.19 0 0 0-.077-1.735Z"/></g><defs><clipPath id="a"><path fill="#fff" d="M26 19h43v52H26z"/></clipPath></defs></svg>