<svg width="90" height="90" viewBox="0 0 90 90" fill="none" xmlns="http://www.w3.org/2000/svg">
<g clip-path="url(#clip0_3210_1848)">
<circle cx="45" cy="45" r="45" fill="#F5F5F5"/>
<path fill-rule="evenodd" clip-rule="evenodd" d="M33.8431 20H59.3333V54.3137H64.2353V70H58.3529V60.1961H32.8627V70H26V55.2941H30.902C31.8824 54.6405 33.8431 51.7647 33.8431 45.4902V20ZM51.49 53.3332V27.843H41.686V37.6469C41.686 45.4901 41.686 49.4116 37.7645 53.3332H51.49Z" fill="#37559B"/>
<path d="M59.3333 20H60.3137V19.0196H59.3333V20ZM33.8431 20V19.0196H32.8627V20H33.8431ZM59.3333 54.3137H58.3529V55.2941H59.3333V54.3137ZM64.2353 54.3137H65.2157V53.3333H64.2353V54.3137ZM64.2353 70V70.9804H65.2157V70H64.2353ZM58.3529 70H57.3725V70.9804H58.3529V70ZM58.3529 60.1961H59.3333V59.2157H58.3529V60.1961ZM32.8627 60.1961V59.2157H31.8824V60.1961H32.8627ZM32.8627 70V70.9804H33.8431V70H32.8627ZM26 70H25.0196V70.9804H26V70ZM26 55.2941V54.3137H25.0196V55.2941H26ZM30.902 55.2941V56.2745H31.1988L31.4458 56.1099L30.902 55.2941ZM51.49 27.843H52.4704V26.8626H51.49V27.843ZM51.49 53.3332V54.3136H52.4704V53.3332H51.49ZM41.686 27.843V26.8626H40.7056V27.843H41.686ZM37.7645 53.3332L37.0712 52.64L35.3976 54.3136H37.7645V53.3332ZM59.3333 19.0196H33.8431V20.9804H59.3333V19.0196ZM60.3137 54.3137V20H58.3529V54.3137H60.3137ZM64.2353 53.3333H59.3333V55.2941H64.2353V53.3333ZM65.2157 70V54.3137H63.2549V70H65.2157ZM58.3529 70.9804H64.2353V69.0196H58.3529V70.9804ZM57.3725 60.1961V70H59.3333V60.1961H57.3725ZM32.8627 61.1765H58.3529V59.2157H32.8627V61.1765ZM33.8431 70V60.1961H31.8824V70H33.8431ZM26 70.9804H32.8627V69.0196H26V70.9804ZM25.0196 55.2941V70H26.9804V55.2941H25.0196ZM30.902 54.3137H26V56.2745H30.902V54.3137ZM32.8627 45.4902C32.8627 48.5269 32.3881 50.6918 31.8258 52.1465C31.2504 53.6346 30.6135 54.3082 30.3581 54.4784L31.4458 56.1099C32.1708 55.6265 33.0045 54.5353 33.6546 52.8535C34.3178 51.1382 34.8235 48.728 34.8235 45.4902H32.8627ZM32.8627 20V45.4902H34.8235V20H32.8627ZM50.5096 27.843V53.3332H52.4704V27.843H50.5096ZM41.686 28.8234H51.49V26.8626H41.686V28.8234ZM42.6664 37.6469V27.843H40.7056V37.6469H42.6664ZM38.4577 54.0265C42.7114 49.7728 42.6664 45.4106 42.6664 37.6469H40.7056C40.7056 45.5696 40.6607 49.0505 37.0712 52.64L38.4577 54.0265ZM51.49 52.3528H37.7645V54.3136H51.49V52.3528Z" fill="#37559B"/>
</g>
<defs>
<clipPath id="clip0_3210_1848">
<rect width="90" height="90" fill="white"/>
</clipPath>
</defs>
</svg>
