<svg xmlns="http://www.w3.org/2000/svg" width="90" height="90" fill="none"><circle cx="45" cy="45" r="45" fill="#FFEFE1"/><g clip-path="url(#a)"><path fill="#ECA040" d="M46.799 44.544c-.9-3.03-3.576-4.008-6.161-5.08 7.352-2.571 14.703-5.146 22.055-7.723 2.3-.806 2.304-.793 2.304 1.566V48.63c0 3.622-1.394 5.728-4.893 7.081-4.3 1.667-8.65 3.228-12.972 4.832-.32-.473-.173-1.009-.173-1.516V46.195a5.038 5.038 0 0 0-.16-1.651Z"/><path fill="#D93832" d="M47.132 58.481s-.096-2.698-.054-5.916c.031-2.65 0-3.888 0-5.84a9.399 9.399 0 0 0-.28-2.172c-.9-3.04-3.575-4.017-6.16-5.088l-7.347-2.47c-1.137-.391-2.278-.78-3.412-1.178-2.931-1.025-3.502-2.143-2.592-5.054-2.287 1.03-3.271 2.83-3.271 5.242 0 9.908.038 19.82 0 29.73 0 3.134 1.519 5.208 4.325 6.29 4.354 1.679 8.779 3.186 13.21 4.668 2.585.865 4.357-.116 5.309-2.72.214-.7.309-1.429.282-2.159 0-3.932-.017-9.41-.01-13.333Z"/><path fill="#ECA040" d="M33.291 36.995c-1.137-.391-2.278-.78-3.412-1.178-2.931-1.025-3.502-2.143-2.592-5.054 2.83-1.45 5.911-2.266 8.888-3.347 7.369-2.682 14.802-5.264 22.206-7.89 1.281-.45 2.563-.71 3.896-.37.787.165 1.49.594 1.99 1.211.498.618.761 1.387.743 2.174v1.61c0 1.157-.449 1.483-1.513 1.855a5634.973 5634.973 0 0 0-28.396 10.1c-.64.222-1.297.404-1.81.89Z"/><path fill="#FEFDFD" d="M39.379 58.018c0-1.526.817-2.576 1.967-2.567 1.15.01 2.124 1.254 2.143 2.855.02 1.488-.961 2.707-2.108 2.66-1.147-.047-2.038-1.294-2.002-2.948Z"/></g><defs><clipPath id="a"><path fill="#fff" d="M24 19h41v58H24z"/></clipPath></defs></svg>