<svg width="90" height="90" viewBox="0 0 90 90" fill="none" xmlns="http://www.w3.org/2000/svg">
<g clip-path="url(#clip0_3212_3112)">
<circle cx="45" cy="45" r="45" fill="#F5F5F5"/>
<path d="M23.3086 71.6484V55.2617H26.0234C26.9479 54.5977 27.7943 53.6602 28.5625 52.4492C29.3307 51.2253 29.9883 49.5391 30.5352 47.3906C31.082 45.2292 31.4727 42.4036 31.707 38.9141L32.8398 22H59.3047V55.2617H63.6797V71.6094H55.5547V62H31.4336V71.6484H23.3086ZM35.7891 55.2617H51.1797V28.9727H40.457L39.832 38.9141C39.6628 41.5573 39.3828 43.901 38.9922 45.9453C38.6146 47.9896 38.1523 49.7799 37.6055 51.3164C37.0716 52.8398 36.4661 54.1549 35.7891 55.2617Z" fill="#6F70CB"/>
</g>
<defs>
<clipPath id="clip0_3212_3112">
<rect width="90" height="90" fill="white"/>
</clipPath>
</defs>
</svg>
