<svg xmlns="http://www.w3.org/2000/svg" width="90" height="90" fill="none"><g clip-path="url(#a)"><circle cx="45" cy="45" r="45" fill="#EFEFEF"/><path fill="#ED1C24" d="M25.823 43.576C25.45 41.152 22.7 40.42 22 36.9c0-2.058 3.577-.073 4.756.915 2.564 2.15 3.256 4.669 3.543 6.951.373 2.973.25 5.554.84 11.342.605 5.946 1.357 7.86 4.335 10.656 3.264 3.065 7.74 3.98 12.728 2.47 4.431-1.34 5.595-5.671 5.828-9.65.215-3.663.17-5.274.42-5.534.746-.777 1.6.504 2.33 1.875 1.073 2.013 1.353 3.293 1.166 7.318-.18 3.91-1.131 6.549-5.035 9.421-5.035 3.705-8.952 3.796-14.966 2.79-5.9-.987-11.143-7.135-11.702-12.211-.417-3.783.165-15.867-.42-19.666ZM54.413 45.341c-.694 3.281-.386 4.896 0 5.906 1.064 2.574 1.645-2.126 2.498-3.988.879-1.918 2.36-2.897 4.904-4.139 3.516-1.716 6.06-6.259 6.846-8.884.787-2.624 0-2.372-.323-2.019-.324.354-.563.98-1.48 2.02-1.204 1.362-3.702 2.624-6.755 4.24-3.053 1.615-5.136 4.246-5.69 6.864ZM50.453 36.466c-.483 2.111-.513 6.447-.395 8.543.703 5.135 1.63-1.073 1.977-2.88.395-2.064 2.109-4.655 3.427-6.095 1.15-1.256 4.701-5.04 6.459-9.023 1.757-3.983.922-6.863.57-7.775-.308-.8-.581.548-1.186 2.352-.659 1.968-2.943 5.52-5.843 7.487-3.559 2.415-4.476 5.064-5.009 7.39ZM41 35.605c0 4.038 1.674 7.984 2.557 9.562 1.415 3.255.457-3.76.913-8.448.457-4.689 2.698-6.338 4.612-9.191 2.055-3.064 3.15-9.052 2.877-12.487-.275-3.435-.96-3.482-1.005-2.46l-.002.04c-.045 1.007-.09 2.004-.866 3.72-1.05 2.32-3.447 5.723-5.753 8.17C42.233 26.737 41 30.496 41 35.604Z"/><path fill="#ED1C24" d="M33.012 34.127c-.22 6.935 2.642 11.494 4.14 12.61 1.717 1.357-.265-2.862-.353-5.141-.088-2.28.353-3.152 1.63-8.875s.22-10.136-1.277-12.512c-2.02-3.204-1.806-2.674-1.806 0 0 9.263-2.072 5.659-2.334 13.918Z"/></g><defs><clipPath id="a"><path fill="#fff" d="M0 0h90v90H0z"/></clipPath></defs></svg>