<svg xmlns="http://www.w3.org/2000/svg" width="90" height="90" fill="none"><circle cx="45" cy="45" r="45" fill="#00A74D"/><path fill="#3AC45B" fill-rule="evenodd" d="M45.52 13a30.997 30.997 0 0 1 21.621 8.785l-3.892 5.019h8.129A32.487 32.487 0 0 1 76.92 46.63a32.531 32.531 0 0 1-7.499 19.184l-5.03-4.065v8.884a30.947 30.947 0 0 1-19.846 6.384 30.918 30.918 0 0 1-19.39-7.636l3.882-4.99h-8.526a32.517 32.517 0 0 1-6.403-19.114 32.51 32.51 0 0 1 6.107-19.21l4.686 3.795V20.88c5.655-5.063 13-7.87 20.618-7.879Zm15.468 36.739h-2.272a31.148 31.148 0 0 1-5.594 5.061c-1.726 1.172-3.94 1.732-6.488 1.732a4.869 4.869 0 0 1-3.38-1.1c-.766-.736-1.182-2.25-1.182-4.569-.006-.9.04-1.8.139-2.694a17.367 17.367 0 0 0 10.773-4.416c3.036-2.695 4.618-5.944 4.618-9.782 0-1.954-.55-3.524-1.654-4.691-1.105-1.167-3.218-1.76-6.35-1.76a12.166 12.166 0 0 0-5.446 1.276c-3.457 1.537-6.149 4.15-8.076 7.813a30.49 30.49 0 0 0-3.873 14.89c0 3.795.9 6.55 2.83 8.21 1.932 1.661 4.419 2.467 7.594 2.467 7.234 0 13.321-4.15 18.36-12.437ZM52.434 33.51c0-1.617-.555-2.424-1.655-2.424-1.664.048-3.258 1.498-4.781 4.35a34.767 34.767 0 0 0-3.252 9.487c2.563-.17 4.782-1.366 6.766-3.59a11.638 11.638 0 0 0 2.922-7.823Z" clip-rule="evenodd"/><path fill="#4AD96C" fill-rule="evenodd" d="M64.253 70.648a31.152 31.152 0 0 1-7.894 4.393L46.093 61.826c4.18-.86 7.923-3.245 11.27-7.173l6.914 7.078-.024 8.903v.014Z" clip-rule="evenodd"/><path fill="#3AC45B" fill-rule="evenodd" d="M46.093 61.825 56.36 75.041a31.02 31.02 0 0 1-16.454 1.498 30.888 30.888 0 0 1-14.864-7.157l3.877-4.99 4.997-5.792c.292.41.634.783 1.018 1.11 1.86 1.641 4.419 2.466 7.593 2.466a18.04 18.04 0 0 0 3.567-.35Z" clip-rule="evenodd"/><path fill="#2CB64D" fill-rule="evenodd" d="m57.182 51.257-2.616-9.245a15.565 15.565 0 0 1-1.683 1.74A17.367 17.367 0 0 1 42.11 48.17a23.363 23.363 0 0 0-.138 2.694c0 2.32.416 3.833 1.171 4.568a4.879 4.879 0 0 0 3.371 1.1c2.549 0 4.758-.56 6.489-1.73a28.014 28.014 0 0 0 4.179-3.544Z" clip-rule="evenodd"/><path fill="#43CE64" fill-rule="evenodd" d="M28.904 64.392h-8.497a32.254 32.254 0 0 1-6.306-16.764l9.209-.655 8.812 3.416v1.11c0 3.06.578 5.431 1.812 7.115l-5.03 5.778Z" clip-rule="evenodd"/><path fill="#4ADA6C" fill-rule="evenodd" d="m24.763 29.854-1.434 17.1 8.793 3.435a30.647 30.647 0 0 1 3.825-13.757 19.403 19.403 0 0 1 2.338-3.49l-13.522-3.288Z" clip-rule="evenodd"/><path fill="#3AC45B" fill-rule="evenodd" d="M14.1 47.628c-.062-.868-.1-1.736-.1-2.609a32.251 32.251 0 0 1 6.092-18.941l4.671 3.795-1.434 17.1-9.229.655Z" clip-rule="evenodd"/><path fill="#43CE64" fill-rule="evenodd" d="m63.25 26.657 8.008.147a32.183 32.183 0 0 1 5.303 13.95h-7.918l-5.394-14.097Z" clip-rule="evenodd"/><path fill="#3AC45B" fill-rule="evenodd" d="m24.749 29.83.038.024v-8.975a31.128 31.128 0 0 1 10.022-5.982l7.426 14.843a16.063 16.063 0 0 0-3.93 3.378l-13.542-3.264-.014-.024Z" clip-rule="evenodd"/><path fill="#4ADA6C" fill-rule="evenodd" d="m34.81 14.897 7.425 14.843c.58-.355 1.184-.672 1.807-.949a12.24 12.24 0 0 1 5.456-1.276c.435 0 .85 0 1.238.034l4.782-12.86a31.01 31.01 0 0 0-20.709.208Z" clip-rule="evenodd"/><path fill="#3AC45B" fill-rule="evenodd" d="m55.532 14.693-4.781 12.86c1.141.039 2.27.252 3.346.631l9.152-1.527 3.782-4.872a31.256 31.256 0 0 0-11.499-7.092ZM60.859 49.739l7.779-8.984h7.923c.184 1.415.277 2.841.277 4.269a32.204 32.204 0 0 1-7.535 20.796l-5.03-4.066h-.024l-6.89-7.115a37.79 37.79 0 0 0 3.523-4.92l-.023.02Z" clip-rule="evenodd"/><path fill="#4ADA6C" fill-rule="evenodd" d="m63.25 26.657.205.147 5.178 13.95-7.774 8.985H58.582v.057h-.024l-.024.023V49.872c-.053.061-.115.123-.177.185h-.024l-.043.047h-.024v.048h-.024v.047l-.038.043h-.024v.023h-.024v.024l-3.59-8.282c2.944-3.534 5.096-11.67-.484-13.828l9.166-1.522Z" clip-rule="evenodd"/><path fill="#fff" fill-rule="evenodd" d="M53.122 54.8c-1.726 1.172-3.94 1.732-6.488 1.732a4.869 4.869 0 0 1-3.38-1.1c-.766-.736-1.182-2.25-1.182-4.569-.006-.9.04-1.8.139-2.694a17.367 17.367 0 0 0 10.773-4.416c3.036-2.695 4.618-5.944 4.618-9.782 0-1.954-.55-3.524-1.654-4.691-1.105-1.167-3.218-1.76-6.35-1.76a12.167 12.167 0 0 0-5.446 1.276c-3.457 1.537-6.149 4.15-8.076 7.813a30.49 30.49 0 0 0-3.873 14.89c0 3.795.9 6.55 2.83 8.21 1.932 1.661 4.419 2.467 7.594 2.467 7.244 0 13.321-4.15 18.36-12.437h-2.27a31.148 31.148 0 0 1-5.595 5.061Zm-7.086-19.363c1.517-2.846 3.111-4.296 4.781-4.35 1.1 0 1.655.807 1.655 2.424a11.639 11.639 0 0 1-2.946 7.846c-1.998 2.225-4.203 3.42-6.765 3.59a34.765 34.765 0 0 1 3.275-9.51Z" clip-rule="evenodd"/></svg>