<svg width="90" height="90" viewBox="0 0 90 90" fill="none" xmlns="http://www.w3.org/2000/svg">
<circle cx="45" cy="45" r="45" fill="#26389F"/>
<g clip-path="url(#clip0_209_32)">
<path d="M72.9067 26.3819L54.1878 12.8153C51.6629 10.9854 48.622 9.99988 45.5011 9.99988C42.3801 9.99988 39.3393 10.9854 36.8144 12.8153L18.0954 26.3819C15.5701 28.2114 13.6903 30.7914 12.7254 33.7521C11.7605 36.7128 11.7601 39.9022 12.7242 42.8631L19.8748 64.8141C20.8391 67.7753 22.7186 70.3559 25.2438 72.1861C27.7691 74.0162 30.8104 75.0019 33.9318 75.0018H57.0711C60.1925 75.0019 63.2338 74.0162 65.759 72.1861C68.2843 70.3559 70.1638 67.7753 71.1281 64.8141L78.2758 42.8631C79.2402 39.9024 79.2402 36.7131 78.2757 33.7524C77.3112 30.7917 75.4317 28.2116 72.9067 26.3819ZM75.848 42.2987L68.8288 63.849C68.0074 66.3707 66.4068 68.5683 64.2563 70.1268C62.1057 71.6853 59.5158 72.5248 56.8575 72.5248H34.1425C31.4843 72.5248 28.8943 71.6853 26.7438 70.1268C24.5933 68.5683 22.9926 66.3707 22.1712 63.849L15.152 42.2987C14.3305 39.7771 14.3305 37.0607 15.1519 34.5391C15.9733 32.0174 17.5741 29.8199 19.7246 28.2614L38.1012 14.9437C40.2518 13.3853 42.8418 12.546 45.5 12.546C48.1582 12.546 50.7482 13.3853 52.8988 14.9437L71.2754 28.2614C73.4259 29.8199 75.0266 32.0174 75.848 34.5391C76.6695 37.0608 76.6695 39.7771 75.848 42.2987V42.2987Z" fill="white"/>
<path d="M30.5086 40.2903C31.8548 40.2903 32.946 39.2018 32.946 37.8591C32.946 36.5164 31.8548 35.4279 30.5086 35.4279C29.1625 35.4279 28.0713 36.5164 28.0713 37.8591C28.0713 39.2018 29.1625 40.2903 30.5086 40.2903Z" fill="white"/>
<path d="M60.6255 40.2903C61.9717 40.2903 63.0629 39.2018 63.0629 37.8591C63.0629 36.5164 61.9717 35.4279 60.6255 35.4279C59.2794 35.4279 58.1881 36.5164 58.1881 37.8591C58.1881 39.2018 59.2794 40.2903 60.6255 40.2903Z" fill="white"/>
<path d="M52.8123 63.5366C54.1584 63.5366 55.2497 62.4481 55.2497 61.1054C55.2497 59.7627 54.1584 58.6742 52.8123 58.6742C51.4662 58.6742 50.3749 59.7627 50.3749 61.1054C50.3749 62.4481 51.4662 63.5366 52.8123 63.5366Z" fill="white"/>
<path d="M38.3884 63.5366C39.7345 63.5366 40.8258 62.4481 40.8258 61.1054C40.8258 59.7627 39.7345 58.6742 38.3884 58.6742C37.0423 58.6742 35.951 59.7627 35.951 61.1054C35.951 62.4481 37.0423 63.5366 38.3884 63.5366Z" fill="white"/>
<path d="M45.6005 21.407C42.1108 21.407 39.2343 24.0242 38.8364 27.3982C38.8364 27.4056 38.8343 27.4134 38.8336 27.4209L38.8293 27.4592C38.8247 27.5071 38.8226 27.5558 38.8226 27.6051C38.8223 27.996 38.9684 28.373 39.2322 28.6621C39.496 28.9512 39.8586 29.1316 40.2488 29.168C40.639 29.2043 41.0288 29.0941 41.3418 28.8588C41.6547 28.6234 41.8683 28.28 41.9407 27.8958C41.9547 27.8219 41.9633 27.747 41.9663 27.6718C42.0593 27.0376 42.3175 26.4388 42.715 25.9352C43.1126 25.4316 43.6356 25.0409 44.2319 24.802C44.8282 24.5631 45.4769 24.4844 46.1132 24.5737C46.7495 24.6631 47.3512 24.9174 47.8582 25.3113C47.8913 25.3372 47.924 25.3635 47.9561 25.3908C48.0504 25.4829 48.1156 25.6006 48.1437 25.7293C48.1718 25.8579 48.1614 25.992 48.114 26.1149C48.0666 26.2378 47.9842 26.3442 47.8769 26.4209C47.7695 26.4976 47.6421 26.5413 47.5101 26.5466C47.4334 26.5301 47.3554 26.5195 47.277 26.515C47.2454 26.5129 47.2133 26.5118 47.1813 26.5118C46.9643 26.5127 46.7499 26.5591 46.552 26.648C46.3541 26.7368 46.1772 26.8662 46.0327 27.0277C45.8882 27.1893 45.7793 27.3793 45.7132 27.5855C45.6471 27.7916 45.6252 28.0094 45.6489 28.2246C45.6726 28.4397 45.7414 28.6475 45.8508 28.8345C45.9602 29.0214 46.1078 29.1833 46.2841 29.3097C46.4603 29.436 46.6612 29.524 46.8737 29.5679C47.0862 29.6118 47.3056 29.6107 47.5176 29.5645C47.5903 29.5484 47.6616 29.5271 47.7311 29.5006C47.8653 29.4831 48.0017 29.5051 48.1235 29.5638C48.2453 29.6226 48.3472 29.7156 48.4167 29.8314C48.4862 29.9472 48.5203 30.0807 48.5147 30.2156C48.5091 30.3504 48.4641 30.4807 48.3852 30.5904C48.3529 30.6284 48.3194 30.6657 48.2849 30.7019C47.6559 31.3742 46.7964 31.786 45.877 31.8554C44.9577 31.9247 44.0458 31.6467 43.3226 31.0764C43.2841 31.0409 43.2443 31.0082 43.2026 30.9773C42.8739 30.7337 42.4628 30.6278 42.0569 30.6821C41.6509 30.7365 41.2824 30.9468 41.0297 31.2683C40.777 31.5898 40.6602 31.997 40.7041 32.4032C40.7481 32.8093 40.9493 33.1823 41.2649 33.4426C42.4841 34.4499 44.0182 34.9999 45.6012 34.9974C49.3632 34.9974 52.4127 31.9556 52.4127 28.2032C52.4127 24.4508 49.3625 21.407 45.6005 21.407Z" fill="white"/>
<path d="M30.5086 35.4215C30.5086 35.4215 43.9607 38.5098 60.6156 35.4215V40.2846C60.6156 40.2846 53.854 40.6396 52.6796 41.74C51.5052 42.8404 51.1137 43.4794 51.6831 46.2126C52.2525 48.9459 55.2419 61.1214 55.2419 61.1214L50.4436 61.6794L47.7863 50.632C47.7863 50.632 47.5372 48.8927 45.6155 48.8927C43.6938 48.8927 43.2667 51.0935 43.2667 51.0935L40.7044 61.8597L35.9357 61.1036L39.7791 45.272C39.7791 45.272 40.0638 42.6452 38.8183 41.8642C37.5727 41.0833 36.9322 41.0833 35.4731 40.8348C34.014 40.5864 30.5264 40.3024 30.5264 40.3024L30.5086 35.4215Z" fill="white"/>
</g>
<defs>
<clipPath id="clip0_209_32">
<rect width="67" height="65" fill="white" transform="translate(12 10)"/>
</clipPath>
</defs>
</svg>
