<svg xmlns="http://www.w3.org/2000/svg" width="90" height="90" fill="none"><circle cx="45" cy="45" r="45" fill="#FFEFE7"/><path fill="#E7482B" d="M37.393 33.146a47.227 47.227 0 0 1-6.482-5.395c-1.31-1.33-2.543-2.751-3.277-4.514-1.14-2.697.623-4.324 2.497-4.75 1.275-.31 2.229.356 3.025 1.294 1.344 1.617 2.1 3.553 2.622 5.548.603 2.265 1.042 4.577 1.543 6.869.044.314.068.63.072.948ZM32.009 38c-2.134-.26-4.26-.476-6.4-.79a18.631 18.631 0 0 1-5.968-1.799c-1.082-.565-2.104-1.257-2.419-2.57a3.408 3.408 0 0 1 .055-1.713c.164-.556.467-1.06.88-1.461.412-.402.92-.69 1.474-.832a3.263 3.263 0 0 1 1.688.014c1.69.475 3.103 1.453 4.45 2.538a44.844 44.844 0 0 1 6.306 6.35l-.066.262ZM43.699 59.423c1.54 3.59 2.805 7.042 3.25 10.73.118 1.171.08 2.353-.114 3.513a2.78 2.78 0 0 1-.99 1.726c-.529.43-1.197.645-1.874.603-2.422-.087-3.513-1.155-3.605-3.626-.095-3.273.858-6.32 1.914-9.337.422-1.164.894-2.298 1.419-3.609ZM36.974 57.517c-.265 4.188-.632 8.166-2.124 11.935-.459 1.157-1.048 2.258-2.143 2.967-1.245.805-2.419.416-3.513-.303a2.716 2.716 0 0 1-1.082-1.215 2.768 2.768 0 0 1-.203-1.625c.26-1.953 1.311-3.493 2.455-4.99a43.71 43.71 0 0 1 6.61-6.769ZM43.682 31.3c-.23-.529-.426-.945-.593-1.374-1.196-3.046-2.294-6.127-2.622-9.413a10.853 10.853 0 0 1 .197-3.353c.367-1.603 1.596-2.375 3.238-2.308 1.57.07 2.74.968 2.95 2.584a15.483 15.483 0 0 1-.02 4.138c-.495 3.207-1.603 6.25-2.845 9.214a5.777 5.777 0 0 1-.305.512ZM30.23 45.849c-3.75 1.597-7.42 2.994-11.382 3.326a7.752 7.752 0 0 1-2.294-.183c-1.744-.409-2.661-1.706-2.547-3.452.115-1.747 1.278-2.881 3.17-3.08 2.408-.237 4.725.276 6.99.997 1.88.606 3.713 1.354 5.57 2.046.175.1.34.216.492.346ZM32.048 52.315a3.69 3.69 0 0 1-.187.373c-2.031 2.917-4.227 5.7-7.006 7.923a11.26 11.26 0 0 1-3.146 1.746c-1.472.529-2.678-.116-3.49-1.557-.813-1.44-.656-2.66.432-3.808 1.088-1.148 2.56-1.853 4.047-2.425a44.058 44.058 0 0 1 9.03-2.275 2.2 2.2 0 0 1 .32.023Z"/></svg>