<svg width="90" height="90" viewBox="0 0 90 90" fill="none" xmlns="http://www.w3.org/2000/svg">
<g clip-path="url(#clip0_3017_2202)">
<circle cx="45" cy="45" r="45" fill="#F5F5F5"/>
<path fill-rule="evenodd" clip-rule="evenodd" d="M57.5403 45C57.5403 52.732 51.2723 59 43.5403 59C37.9361 59 33.101 55.7071 30.8642 50.9506L22.4886 56.5344C26.568 63.964 34.466 69 43.5403 69C56.7951 69 67.5403 58.2548 67.5403 45C67.5403 31.7452 56.7951 21 43.5403 21C34.0889 21 25.9136 26.4633 22 34.4041L30.4865 39.9302C32.5176 34.7042 37.5963 31 43.5403 31C51.2723 31 57.5403 37.268 57.5403 45Z" fill="#003696"/>
<rect x="39" y="41" width="20" height="9" fill="#003696"/>
</g>
<defs>
<clipPath id="clip0_3017_2202">
<rect width="90" height="90" fill="white"/>
</clipPath>
</defs>
</svg>
