<svg width="90" height="90" viewBox="0 0 90 90" fill="none" xmlns="http://www.w3.org/2000/svg">
<g clip-path="url(#clip0_3154_1555)">
<circle cx="45" cy="45" r="45" fill="#F5F5F5"/>
<path d="M36.136 44.2181L47.1786 52.2144L58.2209 44.2181H36.136Z" fill="#00B0B9"/>
<path d="M46.4158 68.9692C55.9351 65.9229 62.789 60.2114 66.9775 53.7382L60.885 44.2189L49.4619 52.2151C46.4158 61.7344 37.2772 67.4462 27.7579 67.0652C25.0925 67.0652 22.427 66.3038 19.7616 65.1615L19 67.8269C26.6155 71.6347 36.8963 72.0154 46.4158 68.9692ZM67.7391 52.2151C69.2622 48.7883 72.3083 41.5535 69.6429 34.3188C65.4544 21.3725 50.6043 16.0417 32.3271 20.6109L30.0424 29.7494L28.9 33.5572H43.3694C51.7466 27.084 66.5968 30.5111 67.7391 42.3151C68.1198 44.5996 67.3582 48.0266 66.5968 50.3113L67.7391 52.2151Z" fill="#C6007E"/>
</g>
<defs>
<clipPath id="clip0_3154_1555">
<rect width="90" height="90" fill="white"/>
</clipPath>
</defs>
</svg>
