<svg xmlns="http://www.w3.org/2000/svg" width="90" height="90" fill="none"><circle cx="45" cy="45" r="45" fill="#FE8026"/><path fill="#fff" d="M44.485 53.34H65.49c2.115 0 2.507.394 2.507 2.47v4.703c0 2.136-.363 2.477-2.61 2.484H23.749c-2.458 0-2.749-.29-2.749-2.709V55.71c0-1.969.411-2.367 2.48-2.367 7.001-.006 14.003-.007 21.005-.003ZM44.518 28h21.021c2.046 0 2.454.41 2.458 2.399v4.945c0 1.855-.43 2.292-2.315 2.295H23.639C21.353 37.645 21 37.297 21 35.06v-4.582c0-2.099.376-2.478 2.497-2.478h21.02Z"/></svg>