<svg xmlns="http://www.w3.org/2000/svg" width="90" height="90" fill="none"><circle cx="45" cy="45" r="45" fill="#363D41"/><path fill="#FFB43D" d="M16.479 47.565h-2.947v3.09H12v-7.561h4.848v1.262h-3.316v1.937h2.947v1.272ZM20.703 49.096h-2.686l-.511 1.56h-1.631l2.768-7.562h1.421l2.788 7.561h-1.634l-.515-1.56Zm-2.273-1.263h1.86l-.934-2.828-.926 2.828ZM29.35 50.655h-1.536l-2.985-4.975v4.975h-1.535v-7.561h1.535l2.991 4.985v-4.985h1.53v7.561ZM32.439 43.094l1.907 5.489 1.907-5.49h2.012v7.562h-1.538V48.59l.156-3.552-1.997 5.618h-1.068l-2.002-5.63.152 3.551v2.066h-1.532v-7.548h2.003ZM45.468 47.046a4.645 4.645 0 0 1-.388 1.956 2.954 2.954 0 0 1-1.112 1.292c-.499.31-1.075.47-1.66.458a3.063 3.063 0 0 1-1.65-.452 3.001 3.001 0 0 1-1.124-1.291 4.465 4.465 0 0 1-.404-1.938v-.358a4.624 4.624 0 0 1 .397-1.966c.24-.533.63-.982 1.12-1.292a3.233 3.233 0 0 1 3.305 0c.49.31.879.76 1.119 1.292.276.614.412 1.284.397 1.96v.339Zm-1.554-.343a3.224 3.224 0 0 0-.42-1.808 1.488 1.488 0 0 0-.524-.451 1.463 1.463 0 0 0-1.863.451 3.178 3.178 0 0 0-.423 1.79v.367a3.25 3.25 0 0 0 .42 1.795c.127.206.306.374.517.487.212.114.449.168.688.159.233.011.465-.04.672-.147.208-.108.385-.268.513-.466.31-.544.456-1.168.42-1.796v-.38ZM52.385 50.655H50.85l-2.985-4.975v4.975H46.33v-7.561h1.532l2.99 4.985v-4.985h1.53l.003 7.561ZM57.95 47.378h-2.946v2.025h3.456v1.252h-4.988v-7.561h4.978v1.262h-3.446v1.802h2.947v1.22ZM61.676 46.5l1.548-3.406H64.9l-2.442 4.82v2.741h-1.56v-2.74l-2.442-4.821h1.682l1.538 3.406ZM64.13 49.916a.763.763 0 0 1 .239-.581.916.916 0 0 1 1.195 0 .752.752 0 0 1 .238.581.753.753 0 0 1-.235.575.944.944 0 0 1-1.201 0 .753.753 0 0 1-.236-.575ZM69.693 47.885h-1.22v2.77H66.94v-7.561h2.766a3.1 3.1 0 0 1 2.034.597 2.092 2.092 0 0 1 .715 1.689c.021.453-.09.902-.318 1.291-.25.37-.603.655-1.014.82l1.609 3.09v.074h-1.647l-1.392-2.77Zm-1.22-1.259h1.236c.325.02.646-.087.896-.3a1.067 1.067 0 0 0 .318-.824 1.153 1.153 0 0 0-.299-.839 1.234 1.234 0 0 0-.915-.307h-1.234l-.003 2.27ZM79 43.094v4.978c.018.364-.04.727-.172 1.066a2.55 2.55 0 0 1-.59.897 2.915 2.915 0 0 1-2.09.724 2.962 2.962 0 0 1-2.069-.701 2.507 2.507 0 0 1-.6-.882 2.54 2.54 0 0 1-.181-1.055v-5.027h1.532v4.991a1.464 1.464 0 0 0 .35 1.082c.266.238.614.36.969.339.861 0 1.3-.459 1.313-1.382v-5.03H79Z"/></svg>