<svg xmlns="http://www.w3.org/2000/svg" width="90" height="90" fill="none"><circle cx="45" cy="45" r="45" fill="#F5751D"/><g fill="#fff" clip-path="url(#a)"><path d="m45.874 66-5.59-.01a1.918 1.918 0 0 1-1.449-.66 1.963 1.963 0 0 1-.471-1.534l4.328-36.074c.057-.477.285-.916.642-1.234A1.925 1.925 0 0 1 44.626 26l5.592.035a1.92 1.92 0 0 1 1.442.665 1.967 1.967 0 0 1 .47 1.53L47.8 64.275a1.964 1.964 0 0 1-.639 1.232 1.925 1.925 0 0 1-1.287.492Z"/><path d="M55.25 28.864H36.07c-3.358 0-6.6 1.243-9.115 3.494a13.945 13.945 0 0 0-4.531 8.724l-.321 2.67a14.04 14.04 0 0 0 .52 5.81 13.937 13.937 0 0 0 2.835 5.082 13.758 13.758 0 0 0 4.649 3.458 13.624 13.624 0 0 0 5.643 1.225h19.18c3.358 0 6.6-1.243 9.115-3.494a13.945 13.945 0 0 0 4.531-8.724l.321-2.67a14.04 14.04 0 0 0-.52-5.81 13.938 13.938 0 0 0-2.835-5.082 13.759 13.759 0 0 0-4.649-3.458 13.624 13.624 0 0 0-5.643-1.225Zm4.856 15.324L59.96 45.4a5.805 5.805 0 0 1-1.886 3.632 5.688 5.688 0 0 1-3.793 1.455H36.416c-.81 0-1.611-.174-2.35-.51a5.728 5.728 0 0 1-1.935-1.44 5.803 5.803 0 0 1-1.18-2.115 5.845 5.845 0 0 1-.217-2.419l.146-1.212a5.805 5.805 0 0 1 1.886-3.632 5.688 5.688 0 0 1 3.794-1.455h17.865c.81 0 1.61.174 2.35.51a5.729 5.729 0 0 1 1.934 1.44c.537.612.94 1.333 1.18 2.115.241.782.315 1.606.217 2.419Z"/></g><defs><clipPath id="a"><path fill="#fff" d="M22 26h47v40H22z"/></clipPath></defs></svg>