<svg width="90" height="90" fill="none" xmlns="http://www.w3.org/2000/svg"><circle cx="45" cy="45" r="45" fill="#12A63A"/><path d="M56.468 56.091c2.277 0 4.554 0 6.827.02.646 0 .587-.365.61-.775.024-.411-.085-.663-.617-.651-1.866.035-3.735 0-5.6 0a.829.829 0 0 1-.843-.825v-2.011c0-.504.167-.662.664-.659 1.764.024 3.52.024 5.293.024.595 0 .808.07.808-.775s-.143-.775-.777-.775c-2.029 0-2.763.035-4.426 0h-.65a.78.78 0 0 1-.893-.713v-1.503c0-.57.206-.96 1.045-.965h5.293c.342 0 .626-.03.626-.445 0-.806-.031-.856.225-.856.11 0 .059.135.459.802a181.172 181.172 0 0 0 3.198 5.164c.618.957.917.774.917 2.925v1.472c0 .387.047.554.443.554h.73c.607 0 .728.05.728-.651v-2.053c-.051-.398.015-.802.19-1.163.478-.732.952-1.468 1.414-2.212.945-1.526 1.885-3.056 2.814-4.571a.2.2 0 0 0-.171-.302c-1.36 0-1.41-.225-2.219 1.193-.074.132-1.718 2.816-2.425 3.998-.388.655-.606.65-.987.031-1.01-1.639-2.036-3.273-3.023-4.928a.675.675 0 0 0-.669-.387h-9.05c-.712 0-1.232.356-1.271 1.05-.163 2.944-.128 5.788-.082 8.681-.011.934.533 1.302 1.419 1.306ZM42.52 50.92v4.121c0 1.162-.194 1.073 1.096 1.073.638 0 .673-.073.673-.67v-7.183c0-.263 0-.639.283-.7.284-.063.463.158.622.41a2545.65 2545.65 0 0 0 4.663 7.272c.498.774 1.341 1.162 2.04.976.86-.233 1.256-.814 1.26-1.89 0-2.852-.027-5.707 0-8.559 0-.86-.505-.685-.999-.712-.494-.027-.91 0-.894.74.05 2.42.023 4.838 0 7.26 0 .19.031.507-.21.553-.24.047-.388-.112-.52-.333-.82-1.317-1.664-2.618-2.507-3.924-.777-1.22-1.554-2.444-2.386-3.65-.478-.712-1.244-.902-2.106-.673-.863.228-1.042.829-1.034 1.603.035 1.43.02 2.856.02 4.285ZM32.467 55.956c1.683.382 3.428.407 5.122.073 1.706-.31 2.646-1.333 3.109-2.898.245-.856.24-3.56.182-4.01-.295-2.15-.913-3.354-2.91-3.873a10.813 10.813 0 0 0-5.316-.066c-1.633.387-2.522 1.39-2.88 2.998a11.585 11.585 0 0 0-.082 4.58c.276 1.565 1.123 2.808 2.775 3.196Zm-.618-7.632a2.184 2.184 0 0 1 1.71-1.666 7.579 7.579 0 0 1 2.658-.116c1.555.166 2.246.829 2.534 2.37.09.59.127 1.187.109 1.783a6.245 6.245 0 0 1-.303 2.29 2.24 2.24 0 0 1-1.881 1.58 9.685 9.685 0 0 1-2.973 0 2.187 2.187 0 0 1-1.827-1.732 8.66 8.66 0 0 1-.027-4.521v.012ZM44.833 35.063c1.453.023 2.91-.02 4.364 0 .571 0 .42-.333.439-.628.02-.294.035-.57-.45-.562-1.824.035-3.646 0-5.469 0-.777 0-1.142.388-1.166 1.163v7.093c0 .446.067.701.583.608.121-.019.245-.019.366 0 .458.066.61-.116.594-.577-.03-.918 0-1.836 0-2.75 0-.465.156-.605.603-.59.963.024 1.943-.019 2.887 0 .49.02.571-.181.575-.608.004-.426-.144-.604-.602-.589-.94.035-1.885 0-2.825.02-.467 0-.638-.09-.638-.605v-1.227c-.004-.57.195-.756.739-.748ZM74.503 33.486c-1.286.039-2.576 0-3.867 0h-3.928c-.335 0-.39.132-.39.302v.554c0 .175.04.326.39.31.839-.027 1.682.027 2.518 0 .56-.03.684.178.676.701-.027 2.038 0 4.076 0 6.114 0 1.015-.093.871.933.91.466.02.621-.09.614-.585-.032-2.181 0-4.362-.024-6.543 0-.457.136-.612.595-.597.835.031 1.678-.027 2.514.023.532.028.466-.267.478-.6.012-.333 0-.589-.509-.589ZM39.26 33.92c-5.487 0-9.68-.062-15.156.283-1.854.12-3.711.135-5.565.201-.081 0-.16.023-.24.035.937.162 1.885.254 2.836.275 2.332.17 4.663.302 7.018.333 4.205.062 7.116.028 11.32.066.47 0 .51-.24.49-.709-.046-.678-.439-.484-.703-.484ZM74.235 30.023c-5.476-.023-34.38-.058-39.864.286-1.853.117-3.707.136-5.56.198a1.65 1.65 0 0 0-.242.039c.938.16 1.886.252 2.837.27 2.332.175 4.663.303 7.015.338 4.204.062 31.827.027 36.032.066.47 0 .509-.244.49-.71-.024-.677-.417-.483-.708-.487ZM74.13 58.667c-6.781 0-42.506-.07-49.284.322-2.288.132-4.581.15-6.874.225-.1.008-.2.022-.3.042 1.158.181 2.327.285 3.498.31 2.887.194 5.779.34 8.67.387 5.2.066 39.343.027 44.539.074.582 0 .63-.275.606-.802-.02-.779-.505-.558-.855-.558ZM64.314 38.135c-1.302-.45-2.623-.849-3.933-1.286a1.06 1.06 0 0 1-.828-.884 1.05 1.05 0 0 1 .027-.426c.133-.596.564-.774 1.143-.774h4.057c.44 0 .478-.198.424-.512-.055-.314.225-.678-.389-.666-1.698.027-3.4 0-5.102 0a1.503 1.503 0 0 0-.696.186c-.972.5-1.026 1.387-.972 2.305a1.906 1.906 0 0 0 1.407 1.86c1.255.387 2.518.774 3.77 1.189a1.081 1.081 0 0 1 .862.917c.02.148.008.299-.035.443-.093.565-.427.774-1.165.774H58.64c-.358 0-.49.066-.49.461v.244c0 .086 0 .132-.054.132-.171 0-.249-.194-.3-.294a9.34 9.34 0 0 1-.197-.442c-.968-2.324-1.944-4.626-2.915-6.93a1.441 1.441 0 0 0-1.403-.946 1.395 1.395 0 0 0-1.403.945 383.74 383.74 0 0 0-1.088 2.573c-.754 1.782-1.504 3.568-2.285 5.423 1.554.148 1.554.148 2.071-1.162.094-.244.195-.488.28-.736a.488.488 0 0 1 .552-.356c1.228.015 2.457.015 3.688 0a.507.507 0 0 1 .552.356c.19.492.388.972.594 1.464a.643.643 0 0 0 .708.496c2.253-.023 4.507 0 6.761 0 .182.001.364-.02.54-.062.902-.213 1.36-.883 1.434-2.08a2.16 2.16 0 0 0-1.371-2.212Zm-9.793.945c-.428-.023-.855 0-1.287 0h-.979c-.777 0-.777 0-.478-.682.412-.997.82-1.993 1.224-2.99.055-.132.082-.318.226-.334.143-.015.244.183.303.33.439 1.073.866 2.15 1.313 3.22.152.352.058.472-.322.456ZM27.99 55.41c-.03-1.5 0-3.003 0-4.506v-4.432a1.365 1.365 0 0 0-1.068-1.43c-1.217-.36-2.029.05-2.561 1.395-.863 2.185-1.671 4.39-2.565 6.563-.179.433-.334 1.204-.777 1.204s-.618-.775-.805-1.232c-.948-2.324-1.842-4.703-2.782-7.043a1.831 1.831 0 0 0-2.013-1.007A1.586 1.586 0 0 0 14 46.534v9.034c0 .387.073.558.532.558h.905c.389-.043.466-.217.466-.655 0-2.623-.019-5.245 0-7.872 0-.166 0-.46.195-.492a.436.436 0 0 1 .505.325c.194.516.389 1.02.606 1.55.819 2.092 1.638 4.185 2.456 6.28a1.368 1.368 0 0 0 1.372.996 1.421 1.421 0 0 0 1.325-1.077c.16-.5.389-.977.583-1.465l2.378-6.152c.101-.26.214-.577.58-.468.244.073.201.426.205.639 0 2.6 0 5.199-.019 7.794 0 .419.09.612.447.6h.96c.38-.03.493-.255.493-.72Z" fill="#fff"/></svg>