<svg width="90" height="90" fill="none" xmlns="http://www.w3.org/2000/svg"><circle cx="45" cy="45" r="45" fill="#D1F7EB"/><path d="M53.543 16v4.29c5.317 1.743 9.938 5.064 13.212 9.498C70.028 34.22 71.789 39.54 71.789 45s-1.76 10.78-5.034 15.212c-3.274 4.434-7.895 7.755-13.212 9.498V74c6.471-1.808 12.161-5.615 16.212-10.846 4.05-5.232 6.241-11.604 6.241-18.154 0-6.55-2.19-12.922-6.241-18.154-4.05-5.231-9.741-9.038-16.212-10.846ZM14 44.998c0 6.55 2.192 12.923 6.243 18.155 4.051 5.232 9.742 9.04 16.214 10.847v-4.294c-5.316-1.743-9.936-5.064-13.208-9.497-3.273-4.433-5.033-9.753-5.033-15.21 0-5.458 1.76-10.778 5.033-15.211 3.272-4.433 7.892-7.755 13.208-9.497V16c-6.472 1.806-12.163 5.613-16.214 10.844C16.19 32.076 14 38.448 14 44.998Z" fill="#005B3D"/><path d="M48.855 46.046h-3.727a8.08 8.08 0 0 1-2.279 2.612 8.346 8.346 0 0 1-3.192 1.449V31.08c-.596-.09-1.2-.135-1.804-.136a11.84 11.84 0 0 0-7.923 3.014c-2.156 1.94-3.48 4.6-3.709 7.449a11.133 11.133 0 0 0 2.48 7.917c1.822 2.241 4.446 3.73 7.348 4.17v5.527h3.608v-5.526a11.825 11.825 0 0 0 5.655-2.49 11.357 11.357 0 0 0 3.543-4.96Zm-19.24-3.775a7.88 7.88 0 0 1 1.812-4.998 8.272 8.272 0 0 1 4.622-2.806v15.64a8.271 8.271 0 0 1-4.627-2.812 7.88 7.88 0 0 1-1.806-5.008v-.016Z" fill="#005B3D"/><path d="M59.91 31.099a12.263 12.263 0 0 0-3.505 0h-.052a11.855 11.855 0 0 0-4.83 1.879 11.474 11.474 0 0 0-3.511 3.735 11.458 11.458 0 0 0-3.11-3.455 11.816 11.816 0 0 0-4.262-1.974v3.46a8.238 8.238 0 0 1 3.682 2.568 7.904 7.904 0 0 1 1.73 4.072h3.925a7.916 7.916 0 0 1 2.057-4.44 8.29 8.29 0 0 1 4.319-2.461v24.535h3.608v-27.92h-.052Z" fill="#00B006"/></svg>