<svg xmlns="http://www.w3.org/2000/svg" width="90" height="90" fill="none"><circle cx="45" cy="45" r="45" fill="#FFECC8"/><path fill="#FEB52B" d="M45.023 30c6.228.058 11.93 1.74 16.9 5.433 3.964 2.922 6.782 6.69 8.223 11.35.657 2.118.939 4.33.832 6.54-.19 4.557-1.938 8.924-4.966 12.408-3.878 4.566-8.903 7.32-14.812 8.613-2.502.546-5.07.753-7.63.615-6.168-.325-11.716-2.273-16.464-6.158-3.824-3.128-6.452-7.019-7.564-11.788-1.193-5.174-.409-10.085 2.279-14.692 2.266-3.882 5.518-6.804 9.511-8.958a28.034 28.034 0 0 1 9.578-3.082A31.444 31.444 0 0 1 45.023 30Zm.113 4.467c-.08-.029-.14.018-.206.047a24.135 24.135 0 0 0-7.743 5.615c-.13.142-.13.203.045.29a25.326 25.326 0 0 0 3.242 1.53c.206.082.299.059.364-.158a21.198 21.198 0 0 1 2.386-4.842c.589-.866 1.225-1.7 1.906-2.499h.021a.02.02 0 0 0 0-.014l-.015.031Zm8.97.737-.087-.023a.372.372 0 0 0-.072 0l.036.037.053.055.487.444a20.642 20.642 0 0 1 4.736 6.668c.096.206.191.243.406.18a38.773 38.773 0 0 0 2.162-.685c.102-.035.194-.101.299-.072a12.739 12.739 0 0 1-2.246 1.45c-.144.078-.185.136-.123.29a26.242 26.242 0 0 1 1.82 10.45.384.384 0 0 0 .035.261l.895-.553a23.528 23.528 0 0 0 3.311-2.636l.042.04c-.03.053-.054.111-.087.163a17.12 17.12 0 0 1-3.728 4.186c-.412.328-.74.653-.707 1.204a18.721 18.721 0 0 1-2.243 6.694 13.538 13.538 0 0 1-3.994 4.43.474.474 0 0 1-.376.153 16.43 16.43 0 0 0 2.962-4.885 21.71 21.71 0 0 0 1.346-5.508c-4.34 2.435-9.023 3.557-13.956 3.853.026.084.038.145.06.2a27.519 27.519 0 0 0 2.385 5.128 29.865 29.865 0 0 0 2.136 3.05l-.033.038c-.7-.392-1.355-.852-1.956-1.374a20.87 20.87 0 0 1-5.226-6.7.508.508 0 0 0-.211-.253.532.532 0 0 0-.326-.075c-.632 0-1.265-.052-1.897-.104a33.304 33.304 0 0 1-6.228-1.102l-.877-.243c.04.116.066.191.093.263a20.492 20.492 0 0 0 4.536 7.034 31.646 31.646 0 0 0 2.44 2.212l-.039.037a18.901 18.901 0 0 1-2.52-1.336c-3.764-2.334-6.562-5.46-8.232-9.51a.578.578 0 0 0-.325-.327 20.65 20.65 0 0 1-3.839-2.426c-.337-.273-.665-.557-1.011-.847a.761.761 0 0 0 .03.406c.741 4.46 3.166 8.49 6.8 11.306 3.717 2.963 8.054 4.421 12.805 4.691 2.38.142 4.768-.067 7.084-.617 4.656-1.117 8.65-3.317 11.775-6.891 3.338-3.819 4.865-8.234 4.361-13.258a16.564 16.564 0 0 0-2.386-7.001 20.291 20.291 0 0 0-7.594-7.196 18.466 18.466 0 0 0-2.777-1.301Zm-8.352 23.094c1.52.021 3.039-.068 4.545-.267a31.46 31.46 0 0 0 8.65-2.383.346.346 0 0 0 .186-.133.328.328 0 0 0 .059-.218 32.68 32.68 0 0 0-.153-3.664 29.52 29.52 0 0 0-1.586-6.958c-.075-.209-.146-.267-.382-.183-4.176 1.467-8.465 1.847-12.852 1.45-.2-.017-.245.038-.275.2a31.925 31.925 0 0 0-.444 3.81 29.783 29.783 0 0 0 .05 4.058c.108 1.376.307 2.743.597 4.093.033.142.09.195.233.192.459-.003.918.003 1.38.003h-.008Zm-13.935-4.662v1.319a.397.397 0 0 0 .07.244c.049.072.12.127.204.156a29.49 29.49 0 0 0 8.53 2.61c.224.034.206-.056.156-.215a27.396 27.396 0 0 1-1.173-5.97 24.923 24.923 0 0 1 .272-6.285c.033-.2 0-.27-.218-.321a24.432 24.432 0 0 1-4.745-1.708c-.185-.09-.23 0-.299.116a19.245 19.245 0 0 0-2.797 10.054Zm19.104-9.877a34.089 34.089 0 0 0 5.7-.516c.2-.035.23-.067.146-.252a25.804 25.804 0 0 0-1.596-3.024 19.389 19.389 0 0 0-5.318-5.749c-.182-.127-.298-.156-.448.046a25.522 25.522 0 0 0-4.653 8.66c-.08.252.048.267.227.29 1.963.362 3.956.545 5.953.545h-.011Zm-23.09 8.784c0-.522-.023-.977 0-1.45.06-1.989.446-3.956 1.143-5.827a18.265 18.265 0 0 1 2.037-3.951c.102-.148.137-.232-.083-.377a5.687 5.687 0 0 1-1.154-1.017c-.14-.16-.212-.157-.323-.038-.298.313-.596.609-.895.928a18.632 18.632 0 0 0-4.145 7.314.564.564 0 0 0 .062.472 15.94 15.94 0 0 0 3.37 3.946h-.011Zm11.633-18.32c-.033 0-.05-.02-.063-.017-.244.07-.486.134-.727.21a22.9 22.9 0 0 0-5.491 2.53c-.278.177-.278.177-.048.392.176.165.364.318.525.495.16.177.236.128.382 0a20.639 20.639 0 0 1 3.826-2.754c.531-.298 1.065-.571 1.605-.855h-.009Z"/><path fill="#9E1372" d="M58 18.852c0 .622-.156 1.234-.456 1.785a3.916 3.916 0 0 1-1.265 1.381 4.127 4.127 0 0 1-1.787.663c-.643.08-1.296.01-1.904-.204a.602.602 0 0 0-.593.069 31.474 31.474 0 0 1-10.004 4.112c-2.229.527-4.495.897-6.75 1.31a29.419 29.419 0 0 0-5.371 1.427c-2.841 1.1-5.137 3.2-6.416 5.871-.086.21-.218.401-.387.56a.621.621 0 0 1-.862-.006.565.565 0 0 1-.148-.27 2.206 2.206 0 0 1 0-.999 15.082 15.082 0 0 1 1.56-5.114c1.302-2.429 3.372-4.008 6.007-4.953a23.41 23.41 0 0 1 5.325-1.146c3.042-.344 6.126-.323 9.196-.335a11.306 11.306 0 0 0 3.929-.598 4.41 4.41 0 0 0 2.16-1.606.34.34 0 0 0 .038-.374 3.734 3.734 0 0 1 .105-3.322 3.914 3.914 0 0 1 1.138-1.307 4.115 4.115 0 0 1 1.614-.712 4.201 4.201 0 0 1 1.775.022c.583.134 1.127.39 1.594.751a3.9 3.9 0 0 1 1.103 1.335 3.74 3.74 0 0 1 .399 1.66ZM49.08 26.124c.681-.349 1.325-.7 1.95-1.08a.3.3 0 0 1 .235-.033c1.579.405 3.207.562 4.811.845 2.77.492 5.52 1.043 8.113 2.121a12.389 12.389 0 0 1 4.052 2.57c1.337 1.35 2.213 3.043 2.517 4.864.222 1.255.292 2.53.207 3.799a1.087 1.087 0 0 1-.078.34c-.216.511-.641.603-1.032.192a.955.955 0 0 1-.216-.397c-.975-3.315-3.198-5.623-6.473-7.093-1.726-.778-3.538-1.38-5.338-1.997-2.459-.84-4.89-1.732-7.167-2.972a24.733 24.733 0 0 1-1.593-.927.135.135 0 0 1-.051-.05.125.125 0 0 1 .006-.136.138.138 0 0 1 .056-.046Z"/><path fill="#9E1372" d="M47.999 17.93c.02.78-.221 1.549-.695 2.205a.41.41 0 0 0-.024.527c.295.5.285.5-.285.763a4.6 4.6 0 0 1-1.921.515c-1.47 0-1.83.17-2.755-.062-.975-.236-1.834-.758-2.436-1.483a3.723 3.723 0 0 1-.88-2.511c.016-.994.453-1.944 1.222-2.662.77-.718 1.814-1.15 2.925-1.209 1.136-.083 2.265.224 3.156.857.892.634 1.48 1.548 1.644 2.555.035.189.042.396.049.505Z"/></svg>