<svg xmlns="http://www.w3.org/2000/svg" width="90" height="90" fill="none"><circle cx="45" cy="45" r="45" fill="#007CFF"/><path fill="#FFCD13" d="M68.694 42.76a14.168 14.168 0 0 0-1.132-2.056c-2.368-3.535-6.022-5.492-10.276-5.492-2.334 0-4.684.592-7 1.743-8.544 4.292-13.158 14.816-10.293 23.482a15.43 15.43 0 0 0 1.68 3.486c2.283 3.404 5.748 5.328 9.78 5.476 2.213-.082 4.529-.674 6.793-1.808 8.835-4.44 13.604-15.326 10.637-24.272-.052-.198-.12-.379-.189-.56Z"/><path fill="#FFDC5A" d="M43.887 41.346s-.395.46-.635.756c.206-.263.412-.51.635-.756ZM70.632 49.765a20.3 20.3 0 0 1-1.424 7.153l1.94 1.184c.943-2.22 1.56-4.555 1.783-6.923l-2.299-1.414Z"/><path fill="#FFDC5A" d="M49.531 36.79 46.53 34.95a23.254 23.254 0 0 0-5.335 4.752l2.693 1.661c1.596-1.842 3.483-3.404 5.644-4.572ZM49.068 37.662a20.383 20.383 0 0 0-5.37 4.72l6.005 3.7a2.79 2.79 0 0 1 .394-.691 2.682 2.682 0 0 1 1.355-.97l5.627-1.81-8.011-4.949ZM61.025 45.013l-7.634 2.466v.872l3.037 1.874 2.762-.888c.514-.164.995-.131 1.355.099s.566.625.566 1.118c0 .493-.189 1.003-.566 1.48a3.633 3.633 0 0 1-.429.444l7.84 4.818a20.885 20.885 0 0 0 1.784-6.923l-8.715-5.36Z"/><path fill="#fff" d="M63.101 41.214c-.36-.23-.84-.263-1.355-.099L51.47 44.42a2.688 2.688 0 0 0-1.356.97c-.171.23-.308.477-.411.724-.103.247-.138.51-.138.757v5.558l-1.166.378c-1.064.345-1.922 1.447-1.922 2.45 0 1.02.858 1.562 1.922 1.217l1.166-.378v5.558c0 .493.19.888.567 1.118.36.23.84.263 1.355.099.514-.165.995-.51 1.355-.97.36-.477.566-.987.566-1.48v-5.559l5.782-1.874c.514-.165.995-.51 1.355-.97.36-.477.566-.987.566-1.48 0-.494-.189-.888-.566-1.118-.36-.23-.84-.264-1.355-.1l-5.782 1.876v-3.717l8.355-2.697c.515-.164.995-.51 1.355-.97.36-.477.566-.987.566-1.48-.017-.51-.222-.888-.583-1.118ZM29.854 18.126l-.395.888c-.858 2.368.034 4.999 2.196 6.413l7.497 4.736c.223.132.274.428.137.641-.137.214-.446.264-.669.132l-7.016-4.456-.532 1.266c-.12.345-.206.69-.258 1.036l2.574 1.628c2.161 1.365 3.242 3.502 3.002 5.722.051-.049.103-.115.154-.18.086-.1.172-.181.258-.28.017-.016.034-.033.034-.05.446-.46.91-.904 1.372-1.331.069-.05.12-.115.189-.181a27.232 27.232 0 0 1 5.164-3.602 17.54 17.54 0 0 1 3.397-1.348c-.446-.74-1.098-1.414-1.956-1.957l-14.65-9.225a.385.385 0 0 0-.293-.033c-.051.017-.154.05-.205.18Z"/><path fill="#fff" d="M22.511 44.7s7.566 4.851 7.549 4.917c.429-3.881 1.887-7.466 4.186-10.771-.017.016.737-1.02.858-1.332.926-2.385.085-4.884-2.248-6.348l-14.668-9.241a.384.384 0 0 0-.291-.033.415.415 0 0 0-.223.18l-.395.889a5.719 5.719 0 0 0-.309 1.578c.052 1.875.927 3.799 2.505 4.835l7.548 4.769c.223.131.275.427.138.641-.138.214-.447.263-.67.132l-7.05-4.49-.532 1.267c-.84 2.285 0 4.9 2.076 6.33.068.05 1.595 1.004 2.71 1.71.79.494 1.441.905 1.476.922a.442.442 0 0 1 .12.64.465.465 0 0 1-.395.198.587.587 0 0 1-.274-.082c-.035-.016-.687-.427-1.459-.904-.84-.526-1.424-.905-1.835-1.151l-.326.805c-.652 1.661-.035 3.536 1.51 4.539Z"/><path fill="#DDAD26" d="M69.775 44.026a14.788 14.788 0 0 0-1.75-3.602c-2.522-3.749-6.416-5.722-10.722-5.722-2.35 0-4.82.592-7.257 1.809-8.766 4.407-13.501 15.21-10.55 24.107a14.789 14.789 0 0 0 1.75 3.601 12.87 12.87 0 0 0 4.305 4.046c1.922 1.101 4.118 1.677 6.434 1.677 2.35 0 4.82-.592 7.257-1.809 8.749-4.407 13.484-15.227 10.533-24.107ZM58.263 67.59c-2.264 1.134-4.58 1.726-6.793 1.808-4.032-.148-7.497-2.072-9.779-5.476a13.84 13.84 0 0 1-1.681-3.486c-2.865-8.65 1.75-19.19 10.293-23.482 2.316-1.168 4.667-1.743 7-1.743 4.254 0 7.892 1.94 10.276 5.492.429.642.806 1.332 1.132 2.056.069.18.138.378.206.559C71.868 52.264 67.1 63.15 58.263 67.59ZM56.462 30.805l-2.041-1.267c-.378-.049-.772-.082-1.167-.098l2.282 1.414.926-.05ZM51.504 31.627l-3.002-1.858c-.257.05-.497.099-.755.164l3.088 1.908c.224-.066.447-.148.67-.214ZM46.786 33.699l-3.294-2.04c-.171.1-.343.198-.514.297l3.31 2.039c.155-.099.327-.197.498-.296ZM42.806 36.642l-3.396-2.121c-.138.115-.292.23-.43.362l3.432 2.137c.137-.131.257-.263.394-.378ZM39.513 40.343l-3.569-2.204c-.103.132-.206.28-.326.427l3.586 2.22c.103-.164.206-.295.309-.444ZM33.01 42.81c-.051.098-.085.213-.137.312l3.757 2.318.206-.493-3.74-2.319a.598.598 0 0 1-.086.181ZM35.052 50.784 31.209 48.4c-.034.18-.069.378-.086.559l3.843 2.384c.017-.18.052-.361.086-.559ZM34.863 57.362c-.017-.197-.051-.411-.068-.608l-3.792-2.335c.035.23.052.46.103.674l3.723 2.302.034-.033ZM32.53 59.83c.137.295.257.591.412.87l3.397 2.105c-.12-.263-.206-.542-.326-.822L32.53 59.83Z"/><path fill="#FFCD13" d="M72.056 42.826c-1.132-3.404-3.173-6.25-5.9-8.206-.55-.395-1.133-.74-1.734-1.069l-1.15-.559a15.944 15.944 0 0 0-6.313-1.283c-2.847 0-5.695.707-8.44 2.089-9.864 4.95-15.2 17.135-11.872 27.166 1.133 3.404 3.174 6.249 5.902 8.205.549.395 1.15.757 1.75 1.07.343.164.669.312 1.03.46l.908.394c1.733.641 3.586.97 5.507.97 2.848 0 5.696-.707 8.44-2.088 9.865-4.95 15.2-17.135 11.873-27.15Zm-12.832 25.29c-2.419 1.218-4.89 1.81-7.257 1.81-2.298 0-4.495-.576-6.433-1.677-1.664-.954-3.14-2.32-4.306-4.046a15.083 15.083 0 0 1-1.75-3.601c-2.95-8.88 1.784-19.7 10.55-24.107 2.42-1.217 4.89-1.81 7.258-1.81 4.306 0 8.217 1.974 10.722 5.723a15.086 15.086 0 0 1 1.75 3.602c2.968 8.896-1.767 19.716-10.534 24.107Z"/><path fill="#FFCD13" d="M39.358 67.525c-1.544-1.727-2.796-3.832-3.62-6.282-3.465-10.442 2.059-23.088 12.335-28.251 2.796-1.398 5.644-2.105 8.389-2.187 1.75.049 3.345.361 4.409.625a84.59 84.59 0 0 1 1.372.394c-1.973-.987-3.877-1.546-5.3-1.875-.086-.016-1.202-.246-2.351-.394-.823-.115-1.681-.132-2.556-.132-2.882 0-5.644.658-7.96 1.891-4.821 2.582-8.75 6.66-11.049 11.495-2.367 4.95-2.796 10.327-1.218 15.145 1.27 3.947 3.603 6.956 7.549 9.57Z"/><path fill="#1D2D5D" d="M72.966 42.545c-1.39-4.193-4.015-7.383-7.343-9.373-1.853-1.168-2.007-1.3-4.186-2.483-2.367-1.283-5.335-2.17-9.418-2.17-1.356 0-2.728.147-4.083.443-.515-.953-1.304-1.809-2.368-2.483l-14.685-9.274a1.322 1.322 0 0 0-1.08-.148c-.361.098-.67.361-.824.707l-.395.888-.017.033c-.978 2.63-.052 5.574 2.23 7.268l-.617 1.48a4.703 4.703 0 0 0-.224.806L18.703 21.15a1.32 1.32 0 0 0-1.081-.148c-.36.099-.67.362-.824.707l-.394.888-.017.033c-.978 2.631-.052 5.575 2.23 7.269l-.618 1.48c-.995 2.68 0 5.722 2.402 7.4 0 0 .034.016.103.065l-.395 1.003c-.823 2.072-.068 4.391 1.853 5.624l7.994 5.197c-.171 2.516.103 5.081.927 7.58 1.956 6.003 6.21 9.735 12.935 12.843.635.296 1.527.675 2.368.987 1.75.609 3.62.921 5.541.921 2.9 0 5.936-.707 8.887-2.187 10.293-5.18 15.817-17.826 12.352-28.268ZM29.459 18.997l.395-.888c.051-.115.154-.148.223-.164a.388.388 0 0 1 .291.032l14.686 9.259c.857.542 1.51 1.2 1.955 1.956a16.55 16.55 0 0 0-3.397 1.349 27.234 27.234 0 0 0-5.163 3.601l-.19.181c-.48.428-.943.872-1.372 1.332-.017.017-.034.033-.034.05-.086.082-.172.18-.257.279-.052.05-.103.115-.155.18.24-2.22-.84-4.357-3.002-5.722l-2.573-1.628c.051-.345.137-.69.257-1.036l.532-1.266 7.017 4.456a.506.506 0 0 0 .669-.131c.154-.214.085-.493-.138-.641l-7.548-4.786c-2.162-1.414-3.054-4.045-2.196-6.413ZM22.511 44.7c-1.544-1.003-2.162-2.877-1.492-4.555l.325-.805c.412.263.995.625 1.836 1.15.772.494 1.424.889 1.458.905.086.05.172.082.275.082a.465.465 0 0 0 .394-.197c.155-.214.086-.493-.12-.641-.017-.017-.669-.428-1.475-.921-1.115-.707-2.66-1.661-2.71-1.71-2.076-1.431-2.917-4.046-2.076-6.331l.531-1.267 7.068 4.457a.506.506 0 0 0 .67-.132.46.46 0 0 0-.138-.641l-7.548-4.769c-2.179-1.381-3.088-4.012-2.213-6.38l.394-.888a.326.326 0 0 1 .223-.181.388.388 0 0 1 .292.033l14.685 9.258c2.316 1.463 3.174 3.963 2.248 6.347-.12.313-.875 1.349-.858 1.332-2.299 3.306-3.757 6.89-4.186 10.771-.035-.066-7.583-4.917-7.583-4.917Zm9.298 13.255c-1.56-4.819-1.132-10.196 1.218-15.146 2.3-4.834 6.21-8.912 11.048-11.494 2.317-1.233 5.079-1.891 7.96-1.891.893 0 1.75.016 2.557.131 1.15.165 2.264.379 2.35.395 1.441.329 3.346.888 5.301 1.875 0 0-1.286-.379-1.372-.395-1.064-.263-2.66-.576-4.41-.625-2.744.082-5.609.773-8.388 2.187-10.276 5.164-15.8 17.81-12.335 28.251.806 2.45 2.059 4.555 3.62 6.282-3.946-2.615-6.28-5.624-7.549-9.57ZM60.185 69.99c-2.762 1.381-5.593 2.088-8.44 2.088-1.922 0-3.775-.345-5.508-.97l-.909-.395c-.36-.148-.686-.312-1.03-.46a15.93 15.93 0 0 1-1.75-1.07c-2.727-1.956-4.769-4.8-5.9-8.205-3.329-10.014 2.006-22.2 11.871-27.166 2.762-1.381 5.593-2.088 8.44-2.088 2.214 0 4.358.444 6.314 1.282l1.15.56c.6.312 1.183.674 1.732 1.069 2.727 1.956 4.77 4.801 5.901 8.205 3.329 9.998-2.007 22.184-11.871 27.15Z"/></svg>