<svg xmlns="http://www.w3.org/2000/svg" width="90" height="90" fill="none"><g clip-path="url(#a)"><circle cx="45" cy="45" r="45" fill="#F5F5F5"/><path stroke="#12254C" stroke-width="4.273" d="M57.773 43.432c0 4.898-1.514 8.476-3.762 10.815-2.249 2.341-5.398 3.617-9.011 3.617-3.615 0-6.79-1.277-9.063-3.623-2.27-2.342-3.8-5.92-3.8-10.81 0-4.892 1.533-8.574 3.824-11.015 2.289-2.439 5.463-3.78 9.039-3.78 3.574 0 6.722 1.34 8.988 3.774 2.269 2.438 3.785 6.121 3.785 11.022Z"/><path fill="#12254C" d="M42.818 21h4.273v47h-4.273z"/></g><defs><clipPath id="a"><path fill="#fff" d="M0 0h90v90H0z"/></clipPath></defs></svg>