<svg width="90" height="90" viewBox="0 0 90 90" fill="none" xmlns="http://www.w3.org/2000/svg">
<circle cx="45" cy="45" r="45" fill="#28C721"/>
<path d="M64.1744 30.3673C63.0769 28.2389 61.3088 26.8057 59.3029 25.6185C55.5577 23.4158 51.4599 22.4631 47.2075 22.1313C43.0658 21.7602 38.8913 22.1776 34.9057 23.3614C31.3782 24.4456 28.0914 25.9361 25.7359 28.9312C23.2314 32.078 23.5094 35.5281 26.1027 38.5061C27.7217 40.377 29.7993 41.6443 32.0602 42.6112C36.0719 44.3105 40.2872 45.0085 44.6313 44.9999C48.5973 44.9999 52.46 44.4049 56.168 42.9602C58.8932 41.8989 61.4206 40.5229 63.2517 38.1571C65.0828 35.7913 65.6157 33.1708 64.1744 30.3673ZM54.8012 36.8354L50.7894 38.5375L47.3966 37.2102L45.236 38.0684L42.465 37.0385L44.7259 36.1603L42.3762 35.2363L40.2585 36.0773L37.4904 35.0475L39.7055 34.1892L31.0028 30.7735L37.8285 27.9929C40.0963 27.0934 42.5149 26.6332 44.9551 26.6369C46.7806 26.6019 48.5955 26.9206 50.2994 27.5753C52.8354 28.6309 53.42 30.8422 50.2363 32.264L46.7232 33.6629L48.9239 34.5211L53.0446 32.9162L55.6952 33.9032L51.5459 35.5567L54.8012 36.8354ZM47.7748 29.9697C47.7748 29.5778 47.431 29.2001 46.8579 28.9627C45.3621 28.3391 43.1327 28.4535 41.4477 29.1429L38.4876 30.333L43.5424 32.3126L46.8292 30.9738C47.4883 30.6849 47.7748 30.3101 47.7748 29.9554V29.9697Z" fill="white"/>
<path d="M29.0405 50.3001C30.2895 50.7984 31.524 51.3697 32.8334 51.7573C36.8814 52.9441 41.1066 53.3864 45.3086 53.063C48.8857 52.7978 52.3448 52.0662 55.6255 50.5857C58.3191 49.3674 60.7076 47.7382 62.2818 45.1239C63.1221 43.725 63.5567 42.2095 63.2746 40.5336C63.2534 40.4503 63.2541 40.3628 63.2769 40.28C63.2996 40.1971 63.3435 40.1217 63.4041 40.0615C63.4933 39.9653 63.5768 39.8604 63.6718 39.77C63.8883 39.5625 64.093 39.3426 64.2847 39.1114C64.309 39.0801 64.3393 39.0542 64.3738 39.0353C64.4083 39.0163 64.4462 39.0047 64.4853 39.0012C64.5244 38.9976 64.5638 39.0022 64.601 39.0146C64.6383 39.0271 64.6727 39.0471 64.702 39.0735C64.9236 39.2571 65.2488 39.534 65.4358 39.7263C67.0014 41.3497 68.0633 43.2237 67.9971 45.5553C67.9481 47.2661 67.2517 48.735 66.2186 50.0582C64.2962 52.5209 61.6775 53.9373 58.8572 55.0128C55.0635 56.4379 51.0338 57.1078 46.9892 56.9859C42.2582 56.8985 37.6767 56.0533 33.4262 53.8237C31.7855 53.0217 30.3137 51.9052 29.0923 50.5361C29.0405 50.4895 28.9455 50.44 29.0405 50.3001Z" fill="white"/>
<path d="M64 54.4534C63.403 55.7523 62.5185 56.8992 61.4129 57.8079C58.0609 60.5924 54.075 61.8911 49.856 62.5489C44.6284 63.4145 39.2694 63.0307 34.2195 61.4289C31.2087 60.4619 28.4254 59.0782 26.242 56.719C23.9676 54.2634 23.2796 51.218 24.8489 48.3655C25.0877 47.9288 25.2412 47.8919 25.6506 48.2095C26.3452 48.6969 26.8708 49.3875 27.1546 50.1859C27.8767 52.2218 29.3778 53.6679 31.1348 54.8929C34.4441 57.2152 38.2025 58.3211 42.1344 58.8882C45.9569 59.4552 49.8476 59.3814 53.6458 58.6699C57.2365 57.9893 60.6424 56.8438 63.6133 54.6349C63.7376 54.565 63.8668 54.5043 64 54.4534Z" fill="white"/>
<path d="M63 41.1727C62.6625 42.4394 62.0176 43.6052 61.1214 44.5687C58.5484 47.3825 55.209 48.875 51.6131 49.8424C47.4527 50.9522 43.1171 51.2679 38.8375 50.7727C34.9996 50.3475 31.326 49.4172 27.9491 47.5195C25.572 46.1839 23.5119 44.4945 22.4747 41.8804C21.5469 39.5175 22.0338 37.3144 23.4601 35.2854C23.5321 35.1826 23.5782 35.0599 23.7107 35C23.7914 36.0502 23.8778 37.0262 24.2409 37.9536C25.0765 40.0711 26.5805 41.6379 28.4418 42.9021C31.9656 45.2964 35.9332 46.4122 40.1226 46.9401C42.8177 47.2853 45.544 47.3226 48.2478 47.0514C52.9702 46.572 57.4679 45.3905 61.3519 42.5282C61.8792 42.1316 62.3719 41.6892 63 41.1727Z" fill="white"/>
<path d="M24.2072 56C24.7013 57.1241 25.3793 58.1596 26.2137 59.0645C28.0425 60.9579 30.2726 62.2286 32.7062 63.1667C36.2489 64.4989 40.0022 65.1959 43.7908 65.2249C47.4907 65.3345 51.1838 64.8428 54.7235 63.7694C57.4467 62.9165 59.972 61.6941 62.1276 59.8122C63.2861 58.7606 64.1997 57.4714 64.8049 56.0341C65.1801 57.5398 65.0107 59.1284 64.3262 60.5229C63.4089 62.4077 61.9413 63.8007 60.2099 64.9293C57.0081 67.0216 53.4279 68.0791 49.6728 68.6249C45.3887 69.2594 41.0224 69.0877 36.8024 68.1189C33.6149 67.3968 30.6022 66.2568 27.9766 64.2726C26.0216 62.7972 24.5139 60.9948 24.0839 58.4988C23.9397 57.667 23.9818 56.8139 24.2072 56Z" fill="white"/>
</svg>
