<svg width="90" height="90" viewBox="0 0 90 90" fill="none" xmlns="http://www.w3.org/2000/svg">
<circle cx="45" cy="45" r="45" fill="#EEF4FF"/>
<path fill-rule="evenodd" clip-rule="evenodd" d="M23.4421 48.7378C23.4421 48.7378 27.5662 51.457 31.3431 54.0837C34.7894 56.461 37.913 58.778 37.913 58.778C41.9135 52.7298 46.5684 47.1272 51.7959 42.0684C58.4006 36.0855 65.5031 30.6589 73.0286 25.8456C66.0018 32.7705 59.4707 40.1668 53.4823 47.9815C47.8586 55.6619 42.7322 63.684 38.1335 72C38.1335 72 34.7894 65.1336 30.9879 59.1481C28.6856 55.5328 26.1659 52.0565 23.4421 48.7378Z" fill="#3F3F3F"/>
<path fill-rule="evenodd" clip-rule="evenodd" d="M52.0287 57.9533C52.0287 57.9533 50.9793 57.2735 49.3991 56.0708C50.8854 53.8504 52.3308 51.6179 53.8906 49.4336C54.5602 48.5044 55.3279 47.5953 55.9894 46.6943C57.0387 45.3508 58.031 44.0274 59.0518 42.7361C60.3952 43.7478 61.8087 44.6658 63.282 45.4835L52.0287 57.9533ZM42.5883 50.8777C39.6933 48.3033 36.1246 43.959 33.299 41.4288C30.5377 38.9108 27.5685 36.6235 24.4221 34.5905L35.4917 22C37.7879 23.3773 39.9588 24.948 41.9799 26.6943C45.6548 29.7957 50.0075 34.8198 53.9559 38.613L53.5231 39.0153C49.6158 42.7225 45.9629 46.6814 42.5883 50.8656V50.8777ZM47.4881 35.1899C45.7242 33.5809 42.2412 34.4336 39.73 37.1126C37.2189 39.7916 36.5615 43.3194 38.3336 44.8681C40.1057 46.4167 43.5805 45.6243 46.0917 42.9453C48.6028 40.2663 49.2398 36.7747 47.4677 35.1617L47.4881 35.1899ZM31.9965 41.6259C34.9364 44.2405 38.6807 48.8383 41.641 51.3644L41.935 51.6098L40.7386 53.1102L39.4361 52.0161C36.488 49.4899 32.7396 44.8922 29.7997 42.2655C27.6358 40.3382 25.3662 38.5294 23.0012 36.8471L22.2458 37.6879C25.3934 39.7208 28.364 42.0081 31.1267 44.5261C33.8829 47.0201 37.3577 51.2196 40.2037 53.8544L39.0277 55.387L38.5745 55.0169C35.6264 52.4827 31.8821 47.893 28.93 45.2582C27.0976 43.5982 25.1815 42.0301 23.189 40.5599L22.2458 41.5937C25.3926 43.6278 28.3631 45.915 31.1267 48.432C33.3602 50.4433 36.0592 53.601 38.4765 56.0748L37.2515 57.6838C34.5689 55.0933 31.433 51.3644 28.8687 49.0998C26.1114 46.5781 23.1448 44.288 20 42.2534L22.0988 39.8399C20.7431 38.8946 20 38.4079 20 38.4079L21.9314 36.1955L20.882 35.4916L31.9842 22.8367L33.0336 23.4803L23.1073 34.7796C26.2552 36.8044 29.2247 39.0865 31.9842 41.6018L31.9965 41.6259ZM48.7907 64.3733L47.5943 65.7369C47.5943 65.7369 46.3693 64.9324 44.5074 63.5165L45.4955 61.9437C46.8675 63.0177 48.0149 63.8544 48.7621 64.3934L48.7907 64.3733ZM47.5943 61.8914C47.5943 61.8914 47.0676 61.5414 46.1774 60.8576L47.1615 59.329C47.823 59.8117 48.3864 60.218 48.7948 60.5358L47.5943 61.8914ZM49.6931 57.6436L48.4681 58.9871L47.7658 58.4562C48.1006 57.9574 48.4273 57.4224 48.8152 56.9477L49.6931 57.6436Z" fill="#33CC66"/>
</svg>
