<svg width="90" height="90" viewBox="0 0 90 90" fill="none" xmlns="http://www.w3.org/2000/svg">
<g clip-path="url(#clip0_3069_30)">
<circle cx="45" cy="45" r="45" fill="#F5F5F5"/>
<path d="M13.8069 55.5483V56.7926H8C31.5595 12.9918 66.484 28.7258 81.0014 42.0679C79.4643 46.6429 73.0171 54.7187 70.2171 57H69.1801V55.5483H67.521V54.7187H66.6914V54.0965H65.4471V49.534H62.5436V53.0596H60.2623V44.3492H59.6402V43.1049H59.2254V44.3492H58.6032V44.9714H57.981V52.0226H55.0776V51.1931H54.6628V41.6531H54.0406V40.6162H53.6258V38.9571H53.0037V40.6162H52.5889V41.6531H52.1741V42.4827H51.5519V51.1931H51.1372V53.8891H50.1002V44.5566H49.2706V42.4827H48.2337V39.5792H47.6115V42.4827H46.782V44.5566H45.745V46.8379H44.9155V41.4457H44.5007V38.9571H43.8785V38.1275H43.0489V36.8832H42.2194V38.1275H41.5972V38.9571H40.975V41.4457H40.1455V45.8009H39.5233V50.3635H38.9011V48.2896H38.4864V47.4601H37.8642V42.4827H37.0346V47.4601H36.6198V48.497H35.9977V55.963H35.3755V56.7926H34.9607V52.8522H34.3386V43.1049H33.3016V42.2753H32.6794V43.3122H32.2647V48.2896H30.6055V46.6305H29.9834V44.3492H28.739V46.6305H28.1168V56.7926H26.8725V52.8522H26.0429V47.4601H24.1764V52.8522H22.9321V53.6818H22.3099V54.5113H20.6508V48.497H17.3326V52.8522H16.0882V53.6818H15.2587V54.5113H14.6365V55.5483H13.8069Z" fill="#82BE46"/>
</g>
<defs>
<clipPath id="clip0_3069_30">
<rect width="90" height="90" fill="white"/>
</clipPath>
</defs>
</svg>
