<svg width="90" height="90" viewBox="0 0 90 90" fill="none" xmlns="http://www.w3.org/2000/svg">
<circle cx="45" cy="45" r="45" fill="#F3EEF3"/>
<path d="M59.2313 23.6675L53.0545 17.4874C52.7855 17.2182 52.3493 17.2182 52.0803 17.4874L45.9035 23.6675C45.6345 23.9366 45.6345 24.373 45.9035 24.6422L52.0803 30.8223C52.3493 31.0914 52.7855 31.0914 53.0545 30.8223L59.2313 24.6422C59.5003 24.373 59.5003 23.9366 59.2313 23.6675Z" fill="#F43527"/>
<path d="M45.0993 23.67L38.9225 17.4899C38.6534 17.2208 38.2173 17.2208 37.9483 17.4899L31.7715 23.67C31.5025 23.9392 31.5025 24.3756 31.7715 24.6447L37.9483 30.8249C38.2173 31.094 38.6534 31.094 38.9225 30.8249L45.0993 24.6447C45.3683 24.3756 45.3683 23.9392 45.0993 23.67Z" fill="#F43527"/>
<path d="M56.8284 69.321C63.1461 69.321 67.9255 66.3278 70.0117 60.8534C72.2193 55.0639 70.9171 49.9899 66.5674 45.6446C62.0833 41.1613 57.4975 36.5107 53.02 31.9979C52.9486 31.9261 52.8638 31.8691 52.7704 31.8302C52.6769 31.7913 52.5767 31.7712 52.4755 31.7712C52.3742 31.7712 52.274 31.7913 52.1806 31.8302C52.0871 31.8691 52.0023 31.9261 51.9309 31.9979L46.0494 37.8826C45.9109 38.0269 45.8336 38.2192 45.8336 38.4192C45.8336 38.6193 45.9109 38.8115 46.0494 38.9558L52.6099 45.848C54.9324 48.2067 57.2592 50.5632 59.5903 52.9175C60.7647 54.099 61.4306 55.402 60.6925 57.0725C59.9544 58.7431 58.6358 59.1993 56.953 59.1829C53.1381 59.1468 49.3231 59.1829 45.5082 59.1829C41.6933 59.1829 37.875 59.1599 34.0601 59.1829C32.3773 59.1829 31.0423 58.6971 30.3206 57.0725C29.599 55.4479 30.2484 54.099 31.4228 52.9175C33.7539 50.5785 36.0786 48.2253 38.3966 45.8579L44.9571 38.9657C45.0964 38.8218 45.1743 38.6293 45.1743 38.4291C45.1743 38.2288 45.0964 38.0363 44.9571 37.8924L39.0691 31.9979C38.9977 31.9261 38.9129 31.8691 38.8194 31.8302C38.726 31.7913 38.6258 31.7712 38.5245 31.7712C38.4233 31.7712 38.3231 31.7913 38.2296 31.8302C38.1362 31.8691 38.0513 31.9261 37.98 31.9979C33.5057 36.5107 28.9199 41.1613 24.4326 45.6446C20.0829 49.9899 18.7807 55.0639 20.9883 60.8534C23.0778 66.3278 27.8539 69.3111 34.1716 69.321" fill="#2E3190"/>
</svg>
