<svg width="90" height="90" viewBox="0 0 90 90" fill="none" xmlns="http://www.w3.org/2000/svg">
<g clip-path="url(#clip0_3069_16)">
<circle cx="45" cy="45" r="45" fill="#F5F5F5"/>
<path d="M15 41.2269C17.9339 25.9053 34.9671 19.6299 43.1169 18.4074C35.2931 25.9052 33.6088 37.0162 33.3371 41.2269C28.1212 39.597 18.6674 40.2761 15 41.2269Z" fill="#198B42"/>
<path d="M74.4941 41.2269C71.5602 25.9053 54.5271 19.6299 46.3772 18.4074C54.2011 25.9052 55.8854 37.0162 56.157 41.2269C61.3729 39.597 70.8267 40.2761 74.4941 41.2269Z" fill="#EADB1B"/>
<path d="M55.3414 41.227C46.7841 38.7821 37.4118 40.1404 34.1519 41.227C35.3743 31.8547 37.8193 23.2974 44.7466 18C52.0815 22.8899 54.7981 35.2505 55.3414 41.227Z" fill="#198B42"/>
<path d="M34.1519 66.4915C34.729 69.377 37.0634 73.4069 40.4605 72.9668C44.192 72.4834 45.1541 67.6957 45.1541 63.933V39.597" stroke="#198B42" stroke-width="2.03746" stroke-linecap="round"/>
</g>
<defs>
<clipPath id="clip0_3069_16">
<rect width="90" height="90" fill="white"/>
</clipPath>
</defs>
</svg>
