<svg width="90" height="90" viewBox="0 0 90 90" fill="none" xmlns="http://www.w3.org/2000/svg">
<g clip-path="url(#clip0_3212_2680)">
<circle cx="45" cy="45" r="45" fill="#F5F5F5"/>
<path fill-rule="evenodd" clip-rule="evenodd" d="M31.6157 32.1302H46.8074L48.9581 38.1898L46.4831 39.0433C46.035 37.8468 45.2603 36.8001 44.247 36.022C43.0535 35.4041 41.713 35.1266 40.3723 35.2198H38.5629V47.0829C38.5079 47.5034 38.6113 47.9294 38.8531 48.2778C39.2389 48.5052 39.6882 48.601 40.1333 48.5509H40.9185V51.1795H31.6157V48.5509H32.2302C32.9983 48.5509 33.4592 48.4314 33.647 48.2095C33.838 47.9162 33.9279 47.5686 33.903 47.2195V36.261C33.903 35.5953 33.7835 35.1686 33.5446 35.015C33.133 34.8285 32.6801 34.7521 32.2302 34.7931H31.6157V32.1302Z" fill="#222221"/>
<path fill-rule="evenodd" clip-rule="evenodd" d="M43.1722 40.6481H45.0839L45.5277 41.4845C46.9946 40.7111 48.632 40.3179 50.29 40.3409C52.0843 40.2691 53.8615 40.7134 55.4108 41.6211C56.0407 41.9804 56.5619 42.5031 56.9194 43.134C57.2769 43.7649 57.4575 44.4806 57.4421 45.2056C57.4413 46.2371 57.0866 47.2371 56.4373 48.0386C55.7881 48.8401 54.8835 49.3946 53.8746 49.6095C56.7081 50.1898 58.1419 51.709 58.1419 54.184C58.1508 55.0268 57.9398 55.8574 57.5297 56.5938C57.1196 57.3301 56.5246 57.9469 55.8034 58.3831C54.1027 59.4805 52.1083 60.0342 50.0852 59.9705C47.998 60.0991 45.9238 59.5611 44.1622 58.4343C42.6881 57.3387 41.4707 55.9349 40.5947 54.3206L42.7284 52.7502C43.4058 53.9519 44.3829 54.9577 45.5644 55.6696C46.746 56.3815 48.0918 56.7753 49.4707 56.8127C50.4929 56.9058 51.5107 56.5931 52.3042 55.9422C52.5903 55.6734 52.8171 55.3478 52.9699 54.9862C53.1228 54.6247 53.1983 54.2351 53.1918 53.8426C53.2125 53.4698 53.1497 53.097 53.0079 52.7515C52.8662 52.406 52.6491 52.0965 52.3725 51.8455C51.4231 51.2772 50.3152 51.0317 49.2147 51.1457H46.586V48.3463H48.6855C49.7794 48.4528 50.88 48.2267 51.8434 47.6977C52.1072 47.499 52.3205 47.2409 52.4658 46.9443C52.6111 46.6477 52.6844 46.321 52.6798 45.9908C52.7066 45.6048 52.6288 45.2187 52.4545 44.8733C52.2803 44.5278 52.0161 44.2357 51.6897 44.0278C50.9774 43.5904 50.1527 43.3708 49.3171 43.3963C48.687 43.3709 48.0585 43.4761 47.4711 43.7052C46.8836 43.9343 46.3498 44.2824 45.9033 44.7277C44.9224 45.7454 44.151 46.9459 43.6331 48.261L41.0897 47.527L43.1722 40.6481Z" fill="#222221"/>
<path fill-rule="evenodd" clip-rule="evenodd" d="M23.8159 63.8791C29.3093 68.3661 36.2827 70.6353 43.3647 70.2404C50.4466 69.8456 57.1246 66.8153 62.0852 61.7455C67.1115 56.8033 70.0704 50.1347 70.362 43.0917C70.6536 36.0487 68.2561 29.1584 63.6555 23.8176C66.7125 26.311 69.2193 29.411 71.0178 32.922C72.8163 36.433 73.8675 40.2787 74.1049 44.2163C74.3422 48.154 73.7607 52.0981 72.397 55.7998C71.0333 59.5014 68.917 62.8801 66.1818 65.7226C54.4211 77.5175 34.6378 76.3909 23.8159 63.8791Z" fill="#222221"/>
<path fill-rule="evenodd" clip-rule="evenodd" d="M40.6631 16.8363C27.4002 20.2502 20.3165 32.4205 22.7233 45.4785C25.13 58.5365 36.1909 67.6685 49.8463 66.5078C34.7742 70.3655 19.4801 61.1993 16.7832 46.5709C14.0862 31.9426 25.13 18.2531 40.6631 16.8363Z" fill="#222221"/>
<path fill-rule="evenodd" clip-rule="evenodd" d="M61.231 55.2762C67.7856 46.5538 64.44 35.5271 55.8201 28.3751C47.2001 21.2231 36.4123 20.5403 28.5093 28.0849C30.2516 25.734 32.4575 23.7654 34.9906 22.3006C37.5237 20.8357 40.3302 19.9058 43.2368 19.5683C46.1434 19.2308 49.0884 19.4928 51.8897 20.3381C54.6911 21.1835 57.2894 22.5943 59.5241 24.4833C69.117 32.4888 70.2948 46.7074 61.231 55.2762Z" fill="#222221"/>
<path fill-rule="evenodd" clip-rule="evenodd" d="M31.2227 31.2939H46.3972L48.5479 37.3535L46.09 38.207C45.6439 36.9954 44.8697 35.9316 43.8539 35.1345C42.6616 34.5132 41.3201 34.2355 39.9792 34.3323H38.2723V46.1442C38.2189 46.5677 38.3155 46.9965 38.5454 47.3561C38.9369 47.5849 39.3921 47.6807 39.8426 47.6292H40.6107V50.2579H31.2227V47.6292H31.8372C32.5882 47.6292 33.0661 47.5097 33.2368 47.2878C33.4427 47.0008 33.5395 46.6498 33.5099 46.2978V35.3394C33.5099 34.6737 33.3905 34.2469 33.1515 34.0933C32.7413 33.9018 32.2885 33.8195 31.8372 33.8543H31.2227V31.2939Z" fill="#C20E1A"/>
<path fill-rule="evenodd" clip-rule="evenodd" d="M42.7113 39.7944H44.623L45.0839 40.6479C46.5479 39.8651 48.1862 39.4658 49.8462 39.4871C51.6418 39.4234 53.4183 39.8734 54.967 40.7844C55.5949 41.1445 56.1137 41.6679 56.4683 42.299C56.8229 42.9301 57.0001 43.6453 56.9812 44.369C56.9875 45.4042 56.6358 46.4098 55.9856 47.2155C55.3355 48.0211 54.4269 48.5773 53.4137 48.7899C56.2643 49.3702 57.681 50.8894 57.681 53.3644C57.6933 54.2079 57.4838 55.0397 57.0734 55.7767C56.6629 56.5137 56.0661 57.1298 55.3425 57.5635C53.6412 58.6579 51.6459 59.2058 49.6243 59.1338C47.5443 59.2674 45.4758 58.7353 43.7184 57.6147C42.2483 56.5147 41.0317 55.1119 40.1509 53.501L42.2675 51.9306C42.9475 53.1301 43.9252 54.1341 45.1062 54.8456C46.2872 55.5572 47.6316 55.9524 49.0098 55.9931C50.0375 56.0889 51.0616 55.7762 51.8604 55.1226C52.1465 54.8538 52.3732 54.5282 52.5261 54.1666C52.6789 53.8051 52.7545 53.4155 52.748 53.0231C52.769 52.6486 52.7047 52.2742 52.5598 51.9282C52.4149 51.5822 52.1932 51.2737 51.9116 51.0259C50.9651 50.4506 49.8548 50.2045 48.7538 50.3261H46.2958V47.5268H48.2929C49.3921 47.6303 50.4973 47.4045 51.4678 46.8781C51.7287 46.6767 51.9398 46.418 52.0848 46.1221C52.2298 45.8261 52.3049 45.5008 52.3042 45.1712C52.3243 44.7885 52.2434 44.4073 52.0697 44.0657C51.8959 43.7242 51.6354 43.4343 51.3142 43.2253C50.5966 42.7855 49.7657 42.5659 48.9245 42.5937C48.294 42.5653 47.6646 42.669 47.0767 42.8983C46.4888 43.1276 45.9553 43.4774 45.5106 43.9251C44.5297 44.9462 43.7533 46.1455 43.2233 47.4585L40.6971 46.7245L42.7113 39.7944Z" fill="#C20E1A"/>
<path fill-rule="evenodd" clip-rule="evenodd" d="M23.4395 63.0429C28.9301 67.5286 35.9007 69.7973 42.9798 69.4024C50.0589 69.0075 56.7339 65.9778 61.6917 60.9092C66.7168 55.9646 69.672 49.2931 69.9574 42.249C70.2427 35.2048 67.8367 28.3161 63.2279 22.9813C76.0127 33.5301 77.4636 53.0915 65.7541 64.8863C54.0446 76.6812 34.2784 75.5546 23.4395 63.0429Z" fill="#C20E1A"/>
<path fill-rule="evenodd" clip-rule="evenodd" d="M40.2861 16C27.0233 19.4138 19.9225 31.5842 22.3463 44.6422C24.7701 57.7002 35.8139 66.9176 49.4693 65.6715C34.3801 69.5292 19.1032 60.363 16.4062 45.7346C13.7093 31.1063 24.7531 17.4167 40.2861 16Z" fill="#C20E1A"/>
<path fill-rule="evenodd" clip-rule="evenodd" d="M60.8555 54.4399C67.4101 45.7175 64.0475 34.6908 55.4275 27.5388C46.8075 20.3868 36.0368 19.704 28.1167 27.2486C29.8575 24.8957 32.0627 22.9251 34.5958 21.4588C37.1289 19.9926 39.936 19.0618 42.8433 18.7242C45.7507 18.3866 48.6964 18.6493 51.4981 19.496C54.2998 20.3428 56.8979 21.7556 59.1316 23.647C68.7757 31.7208 69.9193 45.8712 60.8555 54.4399Z" fill="#C20E1A"/>
</g>
<defs>
<clipPath id="clip0_3212_2680">
<rect width="90" height="90" fill="white"/>
</clipPath>
</defs>
</svg>
