<svg width="90" height="90" fill="none" xmlns="http://www.w3.org/2000/svg"><circle cx="45" cy="45" r="45" fill="#E9FFB5"/><g clip-path="url(#a)"><path d="M21.279 30h9.639l-.691 3.453h-5.505l-2.073 9.667h-4.125L21.28 30ZM41.676 31.213A4.485 4.485 0 0 0 38.468 30h-5.82l-2.774 13.118h4.173l.748-3.559h2.365A5.928 5.928 0 0 0 41.365 38a5.185 5.185 0 0 0 1.555-3.951 3.803 3.803 0 0 0-1.244-2.835Zm-3.41 3.952a1.356 1.356 0 0 1-.933.359h-1.728l.45-2.059h1.65a.993.993 0 0 1 .692.252c.105.08.189.184.245.303a.87.87 0 0 1 .083.383 1.085 1.085 0 0 1-.46.762ZM49.629 30l-1.355 6.28L54.38 30h3.768l-2.803 13.12H51.14l1.323-6.278-6.086 6.278h-3.753L45.441 30h4.188ZM70.446 43.12h-4.219l1.037-4.834h-3.846c-.397 1.888-.665 2.945-1.063 4.834h-4.208L60.957 30h4.263l-.971 4.455 3.836-.021.96-4.434h4.204l-2.803 13.12Z" fill="#92CA00"/><path d="m23.442 56.002-2.649-4.061L19.283 59H15l2.802-13.118h4.299l2.305 4.678 4.689-4.678h4.32L30.604 59h-4.299l1.526-7.075-4.39 4.077ZM44.078 45.882h-4.665L31.868 59h4.596l1.311-2.762h3.761L41.71 59h4.36l-1.991-13.118Zm-5.139 7.906 2.103-4.236.296 4.236H38.94ZM69.48 45.882l-1.307 6.277 6.088-6.277H78L75.196 59h-4.174l1.339-6.278L66.255 59H62.47l2.806-13.118h4.204ZM59.66 59h-4.219l1.037-4.833h-3.846c-.398 1.887-.665 2.946-1.063 4.833H47.36l2.818-13.117h4.263l-.97 4.455 3.834-.019.954-4.437h4.205L59.66 59Z" fill="#DF005E"/></g><defs><clipPath id="a"><path fill="#fff" transform="translate(15 30)" d="M0 0h63v29H0z"/></clipPath></defs></svg>