<svg width="90" height="90" viewBox="0 0 90 90" fill="none" xmlns="http://www.w3.org/2000/svg">
<g clip-path="url(#clip0_3085_210)">
<circle cx="45" cy="45" r="45" fill="#F5F5F5"/>
<path d="M71.7016 53.3636C71.3158 54.025 71.1245 54.0996 70.3237 53.9083C70.3886 53.7721 70.3561 53.6294 70.3561 53.49C70.3594 51.8106 70.3594 50.1344 70.3594 48.5295C70.3302 50.2706 70.4048 52.0894 70.3237 53.9083C70.1778 53.8013 70.2492 53.6457 70.2492 53.516C70.2427 51.9143 70.2459 50.316 70.2459 48.7143C70.2459 48.5749 70.2459 48.4355 70.2459 48.2702C66.7703 48.2702 63.3239 48.2702 59.8289 48.2702C59.8289 48.8019 59.8191 49.3271 59.8321 49.8491C59.858 50.8898 59.7381 51.3437 58.4542 51.2173C58.2888 51.2011 58.1202 51.2043 57.9516 51.1978C57.8965 51.1168 57.916 51.0227 57.916 50.9352C57.916 49.0126 57.916 47.0868 57.9192 45.1642C57.9192 45.0993 57.8706 45.0118 57.9257 44.9826C57.89 45.0669 57.916 45.1901 57.916 45.3068C57.9127 47.1257 57.916 48.9478 57.9127 50.7666C57.9127 50.906 57.9484 51.0519 57.8771 51.1849C57.7247 51.0811 57.8058 50.9255 57.8025 50.7958C57.7928 48.8343 57.7895 46.876 57.7831 44.9145C57.7474 44.8821 57.7085 44.8594 57.6599 44.8464C55.3547 44.8302 53.0527 44.8302 50.7508 44.8464C50.7054 44.8594 50.66 44.8789 50.6211 44.9048C50.6049 44.9113 50.5855 44.9178 50.5692 44.9242C50.4882 44.9794 50.5239 45.0637 50.5239 45.1382C50.5239 47.5245 50.5206 49.9107 50.5239 52.2969C50.5239 52.3974 50.4914 52.5044 50.566 52.5952C50.2418 53.2923 50.1867 53.315 49.1622 53.2274C49.0519 53.0491 49.0843 52.8513 49.0843 52.66C49.0843 48.4712 49.0843 44.2823 49.0811 40.0934C49.0811 39.9151 49.12 39.7303 49.0227 39.5617C48.1895 38.6734 47.4081 37.7396 46.5263 36.8999C46.1534 36.5465 45.7644 36.2126 45.3948 35.8559C45.291 35.7554 45.2229 35.7814 45.1321 35.8494C44.9182 35.8365 44.9927 35.7068 45.0284 35.5933C45.1613 35.3891 45.3915 35.2756 45.5147 35C46.8699 36.1996 48.1376 37.4089 49.2367 38.7804C49.4604 38.9068 49.428 39.1208 49.428 39.3283C49.428 43.5885 49.428 47.8487 49.4313 52.1056C49.4313 52.2418 49.3826 52.3909 49.4799 52.5174C49.7036 52.7541 49.9241 52.673 50.1445 52.5141C50.2807 52.4007 50.2061 52.2483 50.2061 52.1186C50.2126 49.7291 50.2126 47.3397 50.2061 44.9502C50.2061 44.8335 50.2094 44.72 50.2483 44.6065C50.3877 44.2369 50.6406 44.1202 51.0491 44.1234C53.2862 44.1461 55.5233 44.1332 57.7604 44.1364C57.903 44.1364 58.0424 44.1494 58.1851 44.1591C58.1851 46.0849 58.1851 48.014 58.1883 49.9399C58.1883 50.102 58.1429 50.2771 58.2564 50.4262C58.5968 50.6142 58.96 50.4521 59.3652 50.5267C59.3652 49.9561 59.3782 49.4179 59.362 48.8829C59.3458 48.455 59.3523 48.04 59.6797 47.7093C59.7964 47.6152 59.9294 47.5925 60.0785 47.5925C63.5476 47.5958 67.0167 47.5958 70.4858 47.5958C70.5377 47.5958 70.5896 47.6023 70.6382 47.6185C70.7128 47.7514 70.6771 47.8973 70.6771 48.0367C70.6804 49.5994 70.6771 51.1589 70.6804 52.7216C70.6804 52.8611 70.6512 53.007 70.7128 53.1431C70.8716 53.3182 71.0629 53.2144 71.238 53.2242C71.3126 53.0686 71.2834 52.9227 71.2834 52.7865C71.2866 50.5948 71.2834 48.4063 71.2866 46.2146C71.2866 46.0947 71.2283 45.9553 71.3418 45.8483C71.4163 45.9812 71.3807 46.1271 71.3807 46.2665C71.3839 48.4225 71.3839 50.5786 71.3839 52.7346C71.3839 52.8546 71.3807 52.9778 71.4034 53.0977C71.4358 53.1464 71.5039 53.0815 71.4585 53.1042C71.439 53.1139 71.4325 53.101 71.4228 53.0912C71.3547 53.0264 71.3936 52.9486 71.3936 52.8773C71.3904 50.5786 71.3904 48.2799 71.3904 45.9844C71.3904 45.9066 71.3807 45.8288 71.4196 45.7575C71.4812 45.6602 71.5428 45.563 71.6044 45.4657C71.7081 45.3749 71.8248 45.349 71.961 45.3522C73.6502 45.3555 75.3393 45.3522 77.0285 45.3555C77.0804 45.3555 77.129 45.3652 77.1744 45.3911C77.1809 47.1613 77.1874 48.9316 77.1906 50.7018C77.1939 51.4507 77.1906 52.1997 77.1906 53.0134C78.4778 53.1528 79.7616 53.2923 81.1071 53.4414C80.8186 53.6424 78.1665 53.7073 76.7562 53.5938C76.6913 53.4609 76.7238 53.3182 76.7238 53.1788C76.7205 50.9028 76.7173 48.63 76.727 46.354C76.727 46.0396 76.6492 45.9228 76.312 45.9261C74.9373 45.9423 73.5626 45.9358 72.1912 45.9293C72.0323 45.9293 71.8897 45.9682 71.7438 46.0104C71.666 46.0817 71.6952 46.179 71.6952 46.2665C71.6952 48.5717 71.6952 50.8769 71.6952 53.1853C71.6789 53.2404 71.6789 53.302 71.7016 53.3636Z" fill="#565F64"/>
<path d="M41.8254 39.1727C41.8254 40.7386 41.8254 42.3014 41.8222 43.8673C41.8222 44.4217 41.4558 44.7849 40.9047 44.7849C38.1942 44.7849 35.4838 44.7816 32.7733 44.7881C32.6242 44.7881 32.4264 44.6876 32.3324 44.9113C32.2805 44.9761 32.2708 45.0507 32.2708 45.1285C32.2773 46.7658 32.2481 48.4031 32.287 50.0404C32.1314 50.4716 31.8396 50.6597 31.3695 50.6078C31.0388 50.5721 30.7016 50.6013 30.319 50.6013C30.319 49.7421 30.3288 48.9186 30.3125 48.0983C30.3093 47.8649 30.4098 47.6153 30.2477 47.3948C30.1115 47.3235 29.9689 47.3591 29.8295 47.3591C26.7235 47.3559 23.6142 47.3591 20.5083 47.3559C20.3721 47.3559 20.2294 47.3818 20.0868 47.33C20.1484 47.4045 20.2359 47.3591 20.304 47.3591C23.5008 47.3624 26.7008 47.3624 29.8975 47.3624C29.9981 47.3624 30.105 47.33 30.1958 47.411C30.0467 47.4759 29.8878 47.4434 29.7354 47.4434C26.6132 47.4467 23.4943 47.4434 20.3721 47.4434C20.2327 47.4434 20.09 47.4434 19.9636 47.4434C19.8598 47.6023 19.902 47.7482 19.902 47.8844C19.8987 49.2266 19.902 50.5689 19.8987 51.9111C19.8987 52.699 19.1725 53.1496 18.43 52.8222C18.4722 52.7379 18.4592 52.6471 18.4592 52.5563C18.4592 50.2122 18.4592 47.8682 18.4592 45.5241C18.4592 45.4236 18.4851 45.3166 18.4203 45.2258C18.3717 45.2096 18.323 45.1739 18.2744 45.1739C16.6825 45.1707 15.0906 45.1707 13.5084 45.1707C13.3917 45.3133 13.4403 45.4592 13.4403 45.5954C13.4371 47.9978 13.4371 50.4003 13.4371 52.806C13.4371 52.8967 13.4468 52.9875 13.4371 53.0783C13.3917 53.503 13.1972 53.6781 12.7822 53.6846C11.3978 53.7138 10.0101 53.7462 8.62574 53.7754C8.415 53.7786 8.17508 53.944 8 53.6846C8.03242 53.6619 8.06484 53.6554 8.10051 53.6684C8.64843 53.5225 9.20933 53.4901 9.77346 53.4836C10.1269 53.4803 10.4803 53.4025 10.8336 53.3701C11.5275 53.3117 12.2213 53.2599 12.9054 53.208C13.0059 53.0589 12.9637 52.913 12.9637 52.7768C12.967 50.3906 12.98 48.0043 12.954 45.6213C12.9508 45.1739 13.0837 44.8335 13.3852 44.532C15.0452 44.5255 16.702 44.5287 18.3619 44.5287C18.4884 44.5287 18.6246 44.5028 18.738 44.5903C18.7834 44.6746 18.7672 44.7654 18.7672 44.8562C18.7672 47.2392 18.7705 49.6222 18.7672 52.0051C18.7705 49.5703 18.7672 47.1322 18.7705 44.6973C18.7672 44.6454 18.7769 44.5968 18.7996 44.5514C18.9617 44.6357 18.871 44.7816 18.871 44.8919C18.8774 47.1873 18.8742 49.4827 18.8742 51.7782C18.8742 51.9306 18.8742 52.083 18.8742 52.2613C19.0785 52.2775 19.2503 52.3358 19.4059 52.1997C19.5615 52.0668 19.5032 51.8884 19.5032 51.7263C19.5032 50.2447 19.5161 48.7662 19.4935 47.2846C19.5583 47.116 19.6523 46.9668 19.7885 46.8469C19.9247 46.7918 20.0706 46.8177 20.2132 46.8177C23.5721 46.8145 26.9277 46.8177 30.2866 46.8145C30.426 46.8145 30.5719 46.8436 30.7081 46.7853C30.8572 46.8728 30.7794 47.0187 30.7827 47.1354C30.7891 48.0367 30.7859 48.9381 30.7859 49.8621C31.162 49.914 31.5186 49.9042 31.8753 49.8718C32.0049 49.7292 31.9531 49.5541 31.9531 49.392C31.9563 47.7968 31.9531 46.2017 31.9563 44.6065C32.1119 44.1721 32.4102 44.0521 32.8738 44.0554C35.5454 44.0781 38.2137 44.0683 40.8852 44.0683C41.0246 44.0683 41.1673 44.0683 41.2937 44.0683C41.3975 43.9095 41.3553 43.7636 41.3553 43.6274C41.3586 42.3338 41.3586 41.0434 41.3521 39.7498C41.3521 39.5358 41.4007 39.3445 41.5142 39.1694C41.6212 39.1143 41.7249 39.0754 41.8254 39.1727Z" fill="#565F64"/>
<path d="M49.0162 39.5618C49.2562 39.6428 49.1492 39.8471 49.1492 39.993C49.1557 44.4056 49.1557 48.8181 49.1557 53.2307C48.9287 53.1594 49.0325 52.9713 49.0325 52.8384C49.026 48.5685 49.0292 44.2986 49.026 40.0286C49.026 39.8698 49.0195 39.7174 49.0162 39.5618Z" fill="#4F585D"/>
<path d="M51.4448 47.1711C51.4448 46.6621 51.4448 46.179 51.4448 45.6667C51.8631 45.6667 52.2683 45.6667 52.6898 45.6667C52.6898 46.1725 52.6898 46.6588 52.6898 47.1711C52.2878 47.1711 51.8825 47.1711 51.4448 47.1711Z" fill="#DD8046"/>
<path d="M52.6865 47.8907C52.6865 48.4127 52.6865 48.8991 52.6865 49.4016C52.2747 49.4016 51.8792 49.4016 51.4609 49.4016C51.4609 48.9023 51.4609 48.4095 51.4609 47.8907C51.8694 47.8907 52.2618 47.8907 52.6865 47.8907Z" fill="#586065"/>
<path d="M22.7256 49.927C22.7256 49.4277 22.7256 48.9446 22.7256 48.4291C23.1341 48.4291 23.5361 48.4291 23.9544 48.4291C23.9544 48.9219 23.9544 49.4082 23.9544 49.927C23.5556 49.927 23.1633 49.927 22.7256 49.927Z" fill="#DC7E43"/>
<path d="M45.7809 50.6336C45.3627 50.6336 44.9703 50.6336 44.5586 50.6336C44.5586 50.1278 44.5586 49.6415 44.5586 49.126C44.9574 49.126 45.3594 49.126 45.7809 49.126C45.7809 49.6155 45.7809 50.1019 45.7809 50.6336Z" fill="#565F64"/>
<path d="M72.5156 46.6361C72.9209 46.6361 73.3067 46.6361 73.7185 46.6361C73.7185 47.1354 73.7185 47.6315 73.7185 48.1502C73.3229 48.1502 72.9306 48.1502 72.5156 48.1502C72.5156 47.6541 72.5156 47.1678 72.5156 46.6361Z" fill="#DC7D43"/>
<path d="M16.0273 50.6791C16.4326 50.6791 16.8184 50.6791 17.2561 50.6791C17.2561 51.1135 17.2561 51.5447 17.2561 51.9792C17.2561 52.1413 17.1686 52.2094 17.013 52.2094C16.692 52.2094 16.371 52.2094 16.0273 52.2094C16.0273 51.6939 16.0273 51.2075 16.0273 50.6791Z" fill="#565F64"/>
<path d="M62.374 49.0483C62.7955 49.0483 63.178 49.0483 63.6255 49.0483C63.6255 49.486 63.7 49.9464 63.606 50.3679C63.5055 50.8218 63.0646 50.5138 62.7825 50.5786C62.6204 50.6143 62.387 50.637 62.3805 50.3614C62.3643 49.9334 62.374 49.499 62.374 49.0483Z" fill="#DC7E43"/>
<path d="M35.166 45.7087C35.5875 45.7087 35.9603 45.7087 36.3948 45.7087C36.3948 46.1562 36.398 46.6003 36.3916 47.0445C36.3883 47.2131 36.2716 47.2553 36.1257 47.2488C35.8047 47.2358 35.4837 47.2909 35.166 47.1872C35.166 46.7106 35.166 46.2242 35.166 45.7087Z" fill="#DC7E43"/>
<path d="M44.5454 42.3856C44.9799 42.3532 45.3722 42.3499 45.7969 42.3888C45.7969 42.8298 45.7936 43.2513 45.8001 43.6727C45.8001 43.783 45.7385 43.8543 45.6542 43.8738C45.3268 43.958 44.9928 43.9354 44.6621 43.8835C44.5876 43.8705 44.5454 43.7862 44.5454 43.7019C44.5454 43.2675 44.5454 42.8363 44.5454 42.3856Z" fill="#DC7E43"/>
<path d="M46.4292 46.8761C46.8507 46.8761 47.2333 46.8761 47.6742 46.8761C47.6742 47.317 47.6709 47.7612 47.6774 48.2086C47.6774 48.3351 47.5704 48.361 47.5024 48.3772C47.1976 48.4453 46.8863 48.4129 46.5783 48.3967C46.4843 48.3934 46.4324 48.2994 46.4324 48.1957C46.4292 47.7612 46.4292 47.3268 46.4292 46.8761Z" fill="#565F64"/>
<path d="M45.8004 46.8824C45.8004 47.3104 45.794 47.7189 45.8037 48.1274C45.8069 48.2733 45.7324 48.3576 45.6189 48.3803C45.3141 48.4354 45.0029 48.4257 44.6949 48.3868C44.5619 48.3706 44.5425 48.2344 44.5425 48.1112C44.5457 47.7124 44.5425 47.3137 44.5425 46.8857C44.9542 46.8824 45.3498 46.8824 45.8004 46.8824Z" fill="#DC7E43"/>
<path d="M44.5421 44.6162C44.9863 44.6162 45.3689 44.6162 45.7774 44.6162C45.7774 45.1285 45.7774 45.6245 45.7774 46.14C45.4726 46.046 45.1646 46.0784 44.8631 46.0849C44.6329 46.0882 44.5324 46.0039 44.5421 45.7672C44.5519 45.3943 44.5421 45.0215 44.5421 44.6162Z" fill="#DC7E43"/>
<path d="M24.5903 49.9236C24.5903 49.4308 24.5903 48.9737 24.5903 48.4971C25.0021 48.4971 25.3944 48.4971 25.8029 48.4971C25.8029 48.9834 25.8029 49.4535 25.8029 49.9236C25.3814 49.9236 24.9794 49.9236 24.5903 49.9236Z" fill="#565F64"/>
<path d="M20.9879 49.9301C20.9879 49.5248 20.9911 49.139 20.9879 48.7564C20.9846 48.5651 21.0657 48.4711 21.2635 48.4743C21.5715 48.4808 21.8795 48.4743 22.2134 48.4743C22.2134 48.9639 22.2134 49.4308 22.2134 49.9268C21.8211 49.9301 21.4321 49.9301 20.9879 49.9301Z" fill="#DC7D43"/>
<path d="M14.1369 47.8519C14.1369 47.4304 14.1369 47.0349 14.1369 46.6393C14.1369 46.6134 14.1304 46.581 14.1434 46.5648C14.4189 46.2081 14.8048 46.4513 15.1355 46.3962C15.3397 46.3605 15.3948 46.5097 15.3883 46.6912C15.343 48.0853 15.6704 47.8681 14.1369 47.8519Z" fill="#DC7D42"/>
<path d="M14.1504 50.6759C14.5719 50.6759 14.9577 50.6759 15.3857 50.6759C15.3857 51.1201 15.3857 51.5545 15.3857 51.989C15.3857 52.1057 15.3338 52.1997 15.2138 52.2062C14.9447 52.2159 14.6724 52.2224 14.4 52.2062C14.2023 52.1965 14.2185 52.0279 14.212 51.8852C14.199 51.4897 14.2639 51.0909 14.1504 50.6759Z" fill="#565F64"/>
<path d="M61.8133 49.0677C61.7128 49.46 61.7647 49.8588 61.7647 50.2543C61.7647 50.504 61.6804 50.598 61.4275 50.5948C60.4354 50.5786 60.604 50.6985 60.5877 49.7907C60.5845 49.5605 60.5877 49.3271 60.5877 49.1001C60.8763 49.0158 61.3983 49.0061 61.8133 49.0677Z" fill="#DC7E43"/>
<path d="M65.4122 49.0549C65.4122 49.4958 65.409 49.9173 65.4122 50.3388C65.4122 50.5106 65.2857 50.5657 65.1658 50.5787C64.9356 50.6014 64.6989 50.5917 64.4655 50.5852C64.2418 50.5819 64.2418 50.4231 64.2353 50.2577C64.2223 49.8622 64.2807 49.4634 64.1802 49.0516C64.5854 49.0549 64.981 49.0549 65.4122 49.0549Z" fill="#565F64"/>
<path d="M65.9403 49.0483C66.3682 49.0483 66.7378 49.0483 67.1269 49.0483C67.1269 49.4731 67.1269 49.8816 67.1269 50.2868C67.1269 50.4036 67.1334 50.5559 66.9907 50.5689C66.6957 50.5949 66.3974 50.5916 66.1024 50.5722C65.9694 50.5624 65.937 50.4327 65.937 50.3031C65.9403 49.8978 65.9403 49.486 65.9403 49.0483Z" fill="#DC7E43"/>
<path d="M42.7749 42.3856C43.1834 42.3856 43.5401 42.3856 43.955 42.3856C43.955 42.8395 43.955 43.2837 43.955 43.7311C43.955 43.8154 43.9064 43.8997 43.8286 43.903C43.5206 43.9159 43.2094 43.9224 42.9013 43.903C42.7749 43.8965 42.7749 43.7603 42.7749 43.6533C42.7749 43.2416 42.7749 42.8298 42.7749 42.3856Z" fill="#576065"/>
<path d="M42.7752 44.7231C42.8336 44.6972 42.8465 44.6875 42.8563 44.6875C43.2097 44.7134 43.6927 44.5059 43.884 44.788C44.111 45.1187 43.9359 45.6115 43.9521 46.0362C43.9554 46.1237 43.9002 46.2048 43.8257 46.208C43.5177 46.221 43.2064 46.2307 42.8984 46.2113C42.7785 46.2048 42.772 46.0686 42.772 45.9616C42.7752 45.5531 42.7752 45.1414 42.7752 44.7231Z" fill="#565F64"/>
<path d="M74.2822 46.6457C74.3698 46.6328 74.4055 46.6166 74.4411 46.623C74.7653 46.6652 75.2354 46.4512 75.3878 46.7236C75.5888 47.0867 75.4429 47.5762 75.4462 48.0107C75.4462 48.0917 75.3781 48.1501 75.297 48.1663C75.2484 48.176 75.1933 48.1728 75.1414 48.1728C74.1104 48.1631 74.2985 48.2895 74.279 47.359C74.279 47.1321 74.2822 46.9019 74.2822 46.6457Z" fill="#565F64"/>
<path d="M15.3859 49.9431C14.9579 49.9431 14.5753 49.9431 14.209 49.9431C14.209 49.4632 14.209 48.9866 14.209 48.4906C14.5235 48.4614 14.8023 48.4841 15.0746 48.4063C15.2627 48.3512 15.3924 48.4419 15.3891 48.6721C15.3826 49.0839 15.3859 49.4924 15.3859 49.9431Z" fill="#565F64"/>
<path d="M42.7881 41.6561C42.7881 41.1438 42.7881 40.6835 42.7881 40.2166C42.8335 40.2004 42.8691 40.1744 42.9048 40.1777C43.2355 40.2036 43.6797 40.0156 43.8677 40.262C44.1109 40.583 43.9326 41.0563 43.9488 41.4648C43.9553 41.614 43.8418 41.6561 43.7121 41.6561C43.4171 41.6561 43.122 41.6561 42.7881 41.6561Z" fill="#DC7E43"/>
<path d="M55.3387 49.4179C55.2414 49.0483 55.2446 48.2961 55.3322 47.9687C55.3646 47.9622 55.4003 47.9427 55.4359 47.9427C56.548 47.9071 56.6809 48.0627 56.4961 49.178C56.4669 49.3531 56.3729 49.4179 56.2076 49.4179C55.9255 49.4179 55.6402 49.4179 55.3387 49.4179Z" fill="#DC7D43"/>
<path d="M42.7976 48.39C42.7879 48.3155 42.7749 48.2668 42.7749 48.2182C42.7749 47.8064 42.7749 47.3947 42.7749 46.9667C43.1024 46.8824 43.4233 46.9343 43.7411 46.9311C43.8772 46.9278 43.9518 47.0154 43.955 47.1548C43.9583 47.2196 43.9583 47.2845 43.955 47.3493C43.9161 48.5846 44.2404 48.4062 42.7976 48.39Z" fill="#DC7D43"/>
<path d="M54.6029 49.3983C54.2073 49.3983 53.8507 49.3983 53.4357 49.3983C53.4357 48.9736 53.4292 48.5456 53.439 48.1144C53.4422 47.9718 53.5622 47.9361 53.6918 47.9393C53.8993 47.9426 54.1036 47.9458 54.3111 47.9361C54.5283 47.9264 54.6094 48.0236 54.6061 48.2344C54.5964 48.6072 54.6029 48.9801 54.6029 49.3983Z" fill="#DC7D43"/>
<path d="M35.2407 49.3789C35.2407 48.8926 35.2407 48.4354 35.2407 47.9361C35.5487 47.9361 35.8438 47.9394 36.1356 47.9361C36.3106 47.9329 36.4014 48.0107 36.3949 48.189C36.3917 48.2668 36.3949 48.3446 36.3949 48.4192C36.3982 49.528 36.3982 49.528 35.2407 49.3789Z" fill="#565F64"/>
<path d="M46.429 49.1423C46.4906 49.1163 46.5036 49.1066 46.5133 49.1066C47.5994 49.0288 47.5994 49.0288 47.5994 50.1084C47.5994 50.2478 47.5994 50.3873 47.5994 50.5785C47.272 50.5785 46.9672 50.5785 46.6625 50.5785C46.4744 50.5785 46.4258 50.4651 46.4258 50.2997C46.429 49.9171 46.429 49.5313 46.429 49.1423Z" fill="#DC7E43"/>
<path d="M33.1268 45.7867C33.545 45.7867 33.8984 45.7867 34.2907 45.7867C34.2907 46.2115 34.2907 46.62 34.2907 47.0285C34.2907 47.1452 34.2388 47.2392 34.1156 47.2425C33.8465 47.2522 33.5742 47.2522 33.3051 47.2425C33.1592 47.236 33.1235 47.1225 33.1235 46.9961C33.1268 46.6005 33.1268 46.205 33.1268 45.7867Z" fill="#DC7E43"/>
<path d="M33.1265 47.9361C33.4604 47.9361 33.7425 47.9394 34.0278 47.9361C34.2353 47.9329 34.3001 48.0366 34.2936 48.2247C34.2872 48.3673 34.2936 48.51 34.2936 48.6526C34.2936 49.4405 34.1251 49.5702 33.3372 49.4178C33.1751 49.3854 33.1265 49.2978 33.1265 49.1487C33.1265 48.7596 33.1265 48.3738 33.1265 47.9361Z" fill="#DC7E43"/>
<path d="M72.4961 50.303C72.4961 49.901 72.4961 49.4957 72.4961 49.0872C72.4961 48.9705 72.5545 48.8829 72.6744 48.8797C72.9435 48.8732 73.2159 48.8699 73.485 48.8797C73.6049 48.8829 73.66 48.9737 73.6633 49.0904C73.6665 49.1942 73.6665 49.2947 73.6665 49.3984C73.6698 50.4878 73.6698 50.4878 72.4961 50.303Z" fill="#DC7D43"/>
<path d="M46.4292 44.6033C46.7631 44.6033 47.0549 44.6033 47.35 44.6033C47.5283 44.6033 47.6061 44.6908 47.6029 44.8659C47.5996 45.0831 47.6029 45.3036 47.6029 45.5208C47.6029 46.0817 47.6029 46.0817 47.0322 46.0817C46.4292 46.0817 46.4292 46.0817 46.4292 45.4754C46.4292 45.2031 46.4292 44.934 46.4292 44.6033Z" fill="#DC7E43"/>
<path d="M47.5996 43.1896C47.5899 44.0164 47.7099 43.8964 46.841 43.9223C46.5168 43.9321 46.3806 43.8283 46.426 43.5041C46.4389 43.4036 46.426 43.2966 46.4292 43.1929C46.4422 42.3207 46.306 42.4504 47.1879 42.4245C47.5121 42.4147 47.6483 42.5152 47.6029 42.8427C47.5867 42.9562 47.5996 43.0729 47.5996 43.1896Z" fill="#565F64"/>
<path d="M75.456 49.6319C75.4495 50.4392 75.55 50.3257 74.733 50.3549C74.3699 50.3678 74.2402 50.2479 74.2791 49.8912C74.3018 49.687 74.3018 49.4795 74.2791 49.2752C74.2434 48.9478 74.3828 48.8537 74.7006 48.8635C75.5695 48.8894 75.443 48.7694 75.456 49.6319Z" fill="#DC7E43"/>
<path d="M55.2674 45.7543C55.6889 45.7543 56.0617 45.7543 56.4929 45.7543C56.4929 46.166 56.4962 46.5745 56.4897 46.9798C56.4897 47.0771 56.4346 47.1743 56.3373 47.1776C56.0261 47.1873 55.7148 47.1873 55.4068 47.1679C55.2901 47.1614 55.2642 47.0349 55.2642 46.9247C55.2674 46.5486 55.2674 46.1758 55.2674 45.7543Z" fill="#565F64"/>
<path d="M53.432 45.7737C53.834 45.7024 54.1907 45.7413 54.6024 45.7381C54.6024 46.1595 54.6024 46.5681 54.6024 46.9766C54.6024 46.9895 54.6057 47.0057 54.5992 47.0155C54.3658 47.3721 54.0124 47.1257 53.7206 47.1873C53.539 47.2262 53.4255 47.1419 53.4288 46.9312C53.4353 46.5616 53.432 46.1855 53.432 45.7737Z" fill="#565F64"/>
<path d="M16.0825 49.9398C16.0825 49.5248 16.0825 49.1293 16.0825 48.7337C16.0825 48.5586 16.1668 48.4743 16.3419 48.4808C16.3678 48.4808 16.3938 48.4808 16.4197 48.4808C17.2983 48.4841 17.1686 48.403 17.1751 49.2038C17.1784 49.4438 17.1751 49.6837 17.1751 49.943C16.8088 49.9398 16.4781 49.9398 16.0825 49.9398Z" fill="#DC7D43"/>
<path d="M41.8251 39.1727C41.7213 39.1727 41.6176 39.1694 41.5171 39.1694C41.7538 38.641 42.2531 38.3362 42.6129 37.9082C43.216 37.1917 43.9293 36.566 44.5907 35.9013C44.7203 35.7716 44.8598 35.6679 45.0251 35.5901C45.0316 35.6874 45.0219 35.7911 45.1289 35.8462C43.9682 36.8967 42.882 38.0217 41.8251 39.1727Z" fill="#565F64"/>
<path d="M49.4772 52.5141C49.3184 52.3812 49.3929 52.1996 49.3929 52.0408C49.3897 47.813 49.3897 43.582 49.3929 39.3542C49.3929 39.1435 49.38 38.9457 49.2373 38.7771C49.5259 38.8387 49.4805 39.0689 49.4805 39.2699C49.4805 41.2314 49.4805 43.1929 49.4805 45.1577C49.4772 47.6087 49.4772 50.0631 49.4772 52.5141Z" fill="#414B51"/>
<path d="M58.2498 50.423C58.1137 50.4813 58.1007 50.4035 58.1039 50.2965C58.1072 48.361 58.1039 46.4286 58.1104 44.4931C58.1104 44.3796 58.159 44.2694 58.185 44.1559C58.2822 44.1883 58.2693 44.2758 58.2693 44.3472C58.2595 46.3735 58.2531 48.3999 58.2498 50.423Z" fill="#555E63"/>
<path d="M70.6287 47.6315C67.1531 47.6315 63.6743 47.6315 60.1987 47.6282C60.0139 47.6282 59.8421 47.6606 59.667 47.7093C59.7156 47.5212 59.8615 47.5407 60.0074 47.5407C63.483 47.5407 66.9618 47.5407 70.4374 47.5439C70.5282 47.5439 70.6514 47.4888 70.7001 47.6315C70.6774 47.6671 70.6547 47.6671 70.6287 47.6315Z" fill="#485157"/>
<path d="M30.7108 46.7852C30.6297 46.876 30.5227 46.8533 30.4222 46.8533C26.8786 46.8533 23.3381 46.8501 19.7944 46.8468C19.856 46.7269 19.9695 46.7561 20.07 46.7561C23.5683 46.7561 27.0666 46.7561 30.5616 46.7561C30.6103 46.7561 30.6589 46.7755 30.7108 46.7852Z" fill="#444E54"/>
<path d="M18.8026 44.5513C18.7961 44.5675 18.7929 44.5805 18.7929 44.5967C18.7767 44.6388 18.7604 44.6388 18.7345 44.6032C17.1037 44.6032 15.4696 44.6032 13.8388 44.6032C13.6865 44.6032 13.5244 44.6291 13.3882 44.5286C13.4401 44.4411 13.5244 44.4735 13.5957 44.4735C15.2427 44.4735 16.8865 44.4702 18.5335 44.4767C18.621 44.4767 18.7442 44.4119 18.8026 44.5513Z" fill="#495258"/>
<path d="M31.9592 44.6066C32.0176 44.8043 32.0403 45.0054 32.0403 45.2161C32.0338 46.6621 32.0403 48.1081 32.0338 49.5541C32.0338 49.6676 32.1375 49.8686 31.8814 49.8718C31.8814 48.2508 31.8814 46.6264 31.8847 45.0054C31.8814 44.8692 31.8263 44.7168 31.9592 44.6066Z" fill="#545D62"/>
<path d="M30.1927 47.4078C28.442 47.4045 26.6945 47.398 24.9437 47.3948C23.4134 47.3916 21.8863 47.3948 20.356 47.3916C20.2296 47.3916 20.0999 47.4272 19.9702 47.3559C20.0837 47.2846 20.2037 47.3202 20.3139 47.3202C23.488 47.317 26.662 47.317 29.8393 47.3202C29.9755 47.3202 30.1279 47.2684 30.2446 47.3948L30.2219 47.4143L30.1927 47.4078Z" fill="#4F585D"/>
<path d="M32.2873 50.0404C32.1544 49.9496 32.1933 49.8102 32.1933 49.687C32.19 48.1762 32.19 46.6686 32.1997 45.1577C32.1997 45.0799 32.0603 44.8627 32.3327 44.9113C32.3359 46.5778 32.3424 48.2443 32.3424 49.9107C32.3456 49.9561 32.3067 49.9983 32.2873 50.0404Z" fill="#525B60"/>
<path d="M19.5 47.2844C19.5778 47.5211 19.5907 47.761 19.5907 48.0074C19.5843 49.2848 19.5907 50.5655 19.5843 51.8429C19.5843 51.9791 19.6653 52.1768 19.4092 52.1963C19.4157 50.6919 19.4189 49.1876 19.4286 47.6832C19.4286 47.5503 19.3703 47.3979 19.5 47.2844Z" fill="#555E63"/>
<path d="M17.2529 46.4124C17.2529 46.8209 17.2496 47.2067 17.2529 47.5893C17.2561 47.7838 17.1751 47.8746 16.9773 47.8681C16.6693 47.8616 16.3613 47.8681 16.0273 47.8681C16.0273 47.3785 16.0273 46.9084 16.0273 46.4124C16.4196 46.4124 16.8119 46.4124 17.2529 46.4124Z" fill="#555E63"/>
<path d="M50.2448 44.6033C50.2448 47.0997 50.2448 49.593 50.2383 52.0894C50.2383 52.2321 50.3129 52.4039 50.1378 52.5109C50.1378 49.9917 50.1346 47.4726 50.1313 44.9567C50.1346 44.8237 50.1313 44.6973 50.2448 44.6033Z" fill="#465055"/>
<path d="M50.5595 52.5951C50.446 52.5108 50.4784 52.3844 50.4784 52.2741C50.4784 49.8847 50.4784 47.4952 50.4784 45.1057C50.4784 45.0441 50.4881 44.9825 50.4979 44.9209C50.4979 44.9144 50.5173 44.908 50.527 44.908C50.54 44.908 50.5497 44.9177 50.5627 44.9242C50.5627 47.4822 50.5595 50.0403 50.5595 52.5951Z" fill="#4F595E"/>
<path d="M18.417 45.2257C18.5272 45.3132 18.4948 45.4364 18.4948 45.5467C18.4948 47.8746 18.4948 50.2057 18.4948 52.5335C18.4948 52.634 18.5207 52.741 18.43 52.8221C18.4267 50.29 18.4235 47.7578 18.417 45.2257Z" fill="#414C51"/>
<path d="M71.4004 45.7444C71.4004 48.2052 71.4004 50.666 71.4004 53.1268C71.3777 53.1268 71.3518 53.1268 71.3291 53.1268C71.3291 50.6984 71.3291 48.2668 71.3291 45.8384C71.3518 45.8092 71.3777 45.7768 71.4004 45.7444Z" fill="#4F595E"/>
<path d="M71.7022 53.3636C71.6017 53.2533 71.6439 53.1171 71.6439 52.9939C71.6406 50.7925 71.6406 48.5943 71.6439 46.3929C71.6439 46.26 71.5855 46.1044 71.7314 46.0006C71.7314 48.3155 71.7314 50.6272 71.7282 52.9421C71.7282 53.0815 71.7119 53.2241 71.7022 53.3636Z" fill="#404B50"/>
<path d="M57.7895 44.8465C57.7895 44.8692 57.7862 44.8919 57.7765 44.9145C55.387 44.9113 53.0008 44.9081 50.6113 44.9048C50.6178 44.8789 50.6243 44.8562 50.6308 44.8303C50.7151 44.7816 50.8059 44.7978 50.8966 44.7978C53.0948 44.7978 55.293 44.7978 57.4912 44.7978C57.5917 44.8011 57.7019 44.7686 57.7895 44.8465Z" fill="#F3F3F4"/>
<path d="M57.8711 51.1849C57.8711 49.1001 57.8711 47.0122 57.8711 44.9275C57.897 44.9275 57.923 44.9275 57.9489 44.9275C57.9489 47.0187 57.9489 49.1066 57.9489 51.1978C57.923 51.1913 57.897 51.1881 57.8711 51.1849Z" fill="#4F585E"/>
<path d="M77.1582 45.378C75.4918 45.378 73.822 45.3813 72.1556 45.378C71.961 45.378 71.7698 45.391 71.585 45.4559C71.6271 45.3035 71.7373 45.2743 71.8832 45.2743C73.5692 45.2775 75.2551 45.2775 76.941 45.2775C77.0253 45.2775 77.1323 45.2484 77.1582 45.378Z" fill="#485257"/>
<path d="M70.6284 47.6315C70.6511 47.6315 70.6738 47.6315 70.6997 47.6283C70.6997 49.4634 70.6997 51.2984 70.6997 53.1367C70.583 53.02 70.6316 52.8676 70.6316 52.7315C70.6284 51.0326 70.6284 49.3304 70.6284 47.6315Z" fill="#535C61"/>
<path d="M8.10051 53.6651C8.06809 53.6716 8.03242 53.6748 8 53.6813C8.00973 53.6521 8.0227 53.6229 8.03242 53.5938C8.05512 53.6164 8.07781 53.6424 8.10051 53.6651Z" fill="#676F74"/>
<path d="M70.1361 48.1599C66.7545 48.1599 63.3762 48.1599 59.9946 48.1599C59.9946 48.1469 59.9946 48.1339 59.9946 48.121C63.3794 48.121 66.7675 48.121 70.1523 48.121C70.1491 48.1339 70.1426 48.1469 70.1361 48.1599Z" fill="#515A5F"/>
<path d="M57.7897 44.8466C55.4035 44.8401 53.0173 44.8368 50.6343 44.8303C50.751 44.7104 50.9034 44.759 51.0395 44.759C53.1599 44.7558 55.277 44.7558 57.3974 44.759C57.5271 44.7623 57.6827 44.7039 57.7897 44.8466Z" fill="#485258"/>
<path d="M70.3208 53.9083C70.3208 52.0505 70.3208 50.1928 70.3208 48.3383C70.337 48.3383 70.3565 48.3383 70.3727 48.3383C70.3727 50.1766 70.3727 52.0149 70.3694 53.8532C70.3727 53.8694 70.3403 53.8888 70.3208 53.9083Z" fill="#4F585E"/>
<path d="M41.193 44.2046C38.2783 44.2046 35.3668 44.2046 32.4521 44.2046C32.4521 44.1916 32.4521 44.1786 32.4521 44.1656C35.3701 44.1656 38.2913 44.1656 41.2092 44.1656C41.2027 44.1786 41.1963 44.1916 41.193 44.2046Z" fill="#4C555B"/>
<path d="M18.7344 44.6033C18.7538 44.6033 18.7733 44.6 18.7927 44.5968C18.7992 46.9344 18.8057 49.272 18.8089 51.6096C18.8089 51.7749 18.8089 51.9403 18.7344 52.1056C18.7344 49.6059 18.7344 47.1062 18.7344 44.6033Z" fill="#505A5F"/>
<path d="M16.18 46.4902C16.5042 46.4578 16.77 46.4448 17.0586 46.4934C17.1396 46.8792 17.0813 47.2586 17.0942 47.6412C16.796 47.7644 16.5139 47.6768 16.1994 47.7092C16.1346 47.2975 16.1637 46.9084 16.18 46.4902Z" fill="#565F64"/>
</g>
<defs>
<clipPath id="clip0_3085_210">
<rect width="90" height="90" fill="white"/>
</clipPath>
</defs>
</svg>
