<svg xmlns="http://www.w3.org/2000/svg" width="90" height="90" fill="none"><circle cx="45" cy="45" r="45" fill="#228BE7"/><path fill="#fff" d="m62.71 30.21-9.893-.105a2.527 2.527 0 0 1-2.48-2.579A2.526 2.526 0 0 1 52.784 25l9.893.112a2.525 2.525 0 0 1 2.48 2.572 2.526 2.526 0 0 1-2.447 2.526ZM38.432 30.21l-9.892-.105A2.53 2.53 0 0 1 26 27.526 2.533 2.533 0 0 1 28.507 25l9.945.112a2.526 2.526 0 0 1 2.487 2.572 2.533 2.533 0 0 1-2.507 2.526ZM45.37 71.49c-8.817 0-17.068-6.325-19.231-14.714a2.546 2.546 0 0 1 1.78-3.113 2.5 2.5 0 0 1 3.06 1.814 15.169 15.169 0 0 0 14.392 10.915c7.75 0 14.641-6.358 14.747-13.6V36.054a2.505 2.505 0 0 1 4.278-1.773 2.505 2.505 0 0 1 .734 1.773v16.804c-.152 10.104-9.2 18.632-19.76 18.632Z"/></svg>