<svg width="90" height="90" fill="none" xmlns="http://www.w3.org/2000/svg"><g clip-path="url(#a)"><path d="M45 90c24.853 0 45-20.147 45-45S69.853 0 45 0 0 20.147 0 45s20.147 45 45 45Z" fill="#F5F5F5"/><path d="M18.96 39.4h-1.02a.83.83 0 0 0-.83.83v8.45c0 .458.372.83.83.83h1.02a.83.83 0 0 0 .83-.83v-8.45a.83.83 0 0 0-.83-.83Z" fill="#AD0000"/><path d="M18.06 43.91v.93a.7.7 0 0 0 .7.7h6.8a.7.7 0 0 0 .7-.7v-.93a.7.7 0 0 0-.7-.7h-6.8a.7.7 0 0 0-.7.7Z" fill="#AD0000"/><path d="M26.35 39.4h-1.02a.83.83 0 0 0-.83.83v8.45c0 .458.372.83.83.83h1.02a.83.83 0 0 0 .83-.83v-8.45a.83.83 0 0 0-.83-.83ZM52.93 40.1v.93a.7.7 0 0 0 .7.7h6.8a.7.7 0 0 0 .7-.7v-.93a.7.7 0 0 0-.7-.7h-6.8a.7.7 0 0 0-.7.7Z" fill="#AD0000"/><path d="M53.44 39.4h-1.02a.83.83 0 0 0-.83.83v8.45c0 .458.372.83.83.83h1.02a.83.83 0 0 0 .83-.83v-8.45a.83.83 0 0 0-.83-.83ZM60.83 39.4h-1.02a.83.83 0 0 0-.83.83v8.45c0 .458.372.83.83.83h1.02a.83.83 0 0 0 .83-.83v-8.45a.83.83 0 0 0-.83-.83ZM7.7 39.4H6.68a.83.83 0 0 0-.83.83v8.45c0 .458.372.83.83.83H7.7a.83.83 0 0 0 .83-.83v-8.45a.83.83 0 0 0-.83-.83Z" fill="#AD0000"/><path d="M8.46 43.45h1.88c.71 0 1.24-.78 1.65-1.5.41-.72.96-1.87 1.26-2.17.3-.3.74-.32 1.54-.32s1.08-.04 1.14.15c.06.19.03.36-.43 1.15-.46.79-1.11 2.26-1.69 2.84-.58.58-.89.7-1.32.73l-4.15.11.11-1 .01.01Z" fill="#AD0000"/><path d="M8.27 45.47h1.98c.75 0 1.3.75 1.73 1.44.43.69 1.01 1.89 1.33 2.18.32.29.78.3 1.62.3.84 0 1.14.04 1.2-.15.06-.19.03-.34-.45-1.11s-1.22-2.21-1.78-2.83c-.73-.8-1.3-.98-1.75-1.01l-3.92-.14.04 1.3v.02ZM65.56 39.4h-1.02a.83.83 0 0 0-.83.83v8.45c0 .458.372.83.83.83h1.02a.83.83 0 0 0 .83-.83v-8.45a.83.83 0 0 0-.83-.83Z" fill="#AD0000"/><path d="M66.32 43.45h1.88c.71 0 1.24-.78 1.65-1.5.41-.72.96-1.87 1.26-2.17.3-.3.74-.32 1.54-.32s1.08-.04 1.14.15c.06.19.03.36-.43 1.15-.46.79-1.11 2.26-1.69 2.84-.58.58-.89.7-1.32.73l-4.15.11.11-1 .01.01Z" fill="#AD0000"/><path d="M66.13 45.47h1.98c.75 0 1.3.75 1.73 1.44.43.69 1.01 1.89 1.33 2.18.32.29.78.3 1.62.3.84 0 1.14.04 1.2-.15.06-.19.03-.34-.45-1.11s-1.22-2.21-1.78-2.83c-.73-.8-1.3-.98-1.75-1.01l-3.92-.14.04 1.3v.02ZM76.32 45.16v.93a.7.7 0 0 0 .7.7h6.8a.7.7 0 0 0 .7-.7v-.93a.7.7 0 0 0-.7-.7h-6.8a.7.7 0 0 0-.7.7Z" fill="#AD0000"/><path d="M84.22 39.4H83.2a.83.83 0 0 0-.83.83v8.45c0 .458.372.83.83.83h1.02a.83.83 0 0 0 .83-.83v-8.45a.83.83 0 0 0-.83-.83Z" fill="#AD0000"/><path d="M74.64 49.39h1.68c.33 0 .55-.3.6-.53.05-.23.76-3.23 1.08-4.54.32-1.31.48-2.22.99-2.58.51-.36.84-.44 1.43-.45.59-.01 2.14-.04 2.14-.04l1.15-1.85h-3.72c-1.59 0-3.53.53-3.95 2.2-.42 1.67-1.69 6.47-1.8 6.86-.11.39-.23.94.39.94l.01-.01Z" fill="#AD0000"/><g filter="url(#b)"><path d="M39.73 54.2a9.47 9.47 0 1 0 0-18.94 9.47 9.47 0 0 0 0 18.94Z" fill="#F4F6F1"/></g><path d="M39.73 53.67a8.94 8.94 0 1 0 0-17.88 8.94 8.94 0 0 0 0 17.88Z" fill="#DD1C1C"/><path d="M35.61 45.91c-.02.45-.03.89-.05 1.34-.1 0-.19-.02-.29-.03l.02-.87c-.45-.03-.9-.06-1.35-.1l-.02.81c-.1-.01-.19-.03-.29-.04V45.8h.03s.08-.01.12-.05c.04-.04.08-.1.12-.19.04-.09.08-.22.11-.38.04-.16.07-.36.1-.61s.06-.54.09-.89.05-.75.07-1.21c.38-.05.75-.09 1.13-.13l-.06 3.55c.09 0 .17 0 .26.01l.01.01Zm-.53-3.07c-.17.01-.35.03-.52.05-.02.41-.04.78-.06 1.12-.02.33-.05.63-.09.88-.03.25-.07.45-.12.62-.04.16-.09.27-.15.34.29.02.58.03.88.05l.06-3.04v-.02ZM37.37 46.46c-.45-.01-.9-.03-1.35-.06l.06-4.11c.44-.04.89-.07 1.33-.09v.49c-.34.01-.68.03-1.02.05l-.02 1.29c.33 0 .65-.01.98-.02v.49h-.99l-.02 1.43 1.03.03v.5ZM39.56 46.49h-.32V44.5h-.99v1.98h-.34c0-1.43.02-2.86.03-4.3.11 0 .21 0 .32-.01v1.82h.98v-1.84h.32v4.34ZM40.37 43.87h.38c.15 0 .28.04.39.1.11.07.2.16.28.27.07.11.13.24.17.39.04.15.06.31.06.49 0 .21-.02.4-.06.57-.04.17-.1.31-.18.42-.08.12-.18.21-.29.27-.11.06-.24.1-.38.1h-.68v-4.34h.31v1.73Zm.93 1.29c0-.12-.01-.24-.03-.33a.626.626 0 0 0-.1-.25.517.517 0 0 0-.17-.16.526.526 0 0 0-.26-.06h-.36v1.63h.38c.19 0 .33-.08.42-.22.09-.15.13-.35.13-.6l-.01-.01ZM42.53 42.75l.04 3.67c-.11 0-.22.01-.33.01l-.04-4.2c.45.03.9.06 1.35.11v.48c-.33-.03-.68-.05-1.02-.07ZM44.33 42.43l.06 2.94c.31-.99.61-1.93.91-2.81.1.01.2.03.3.04l.1 3.61-.32.03-.07-2.78c-.3.9-.6 1.86-.91 2.86-.1 0-.21.02-.31.02l-.07-3.94c.11.01.21.02.32.04l-.01-.01Z" fill="#fff"/></g><defs><clipPath id="a"><path fill="#fff" d="M0 0h90v90H0z"/></clipPath><filter id="b" x="23.26" y="35.26" width="30.94" height="30.94" filterUnits="userSpaceOnUse" color-interpolation-filters="sRGB"><feFlood flood-opacity="0" result="BackgroundImageFix"/><feColorMatrix in="SourceAlpha" values="0 0 0 0 0 0 0 0 0 0 0 0 0 0 0 0 0 0 127 0" result="hardAlpha"/><feOffset dx="-1" dy="6"/><feGaussianBlur stdDeviation="3"/><feColorMatrix values="0 0 0 0 0.278431 0 0 0 0 0 0 0 0 0 0 0 0 0 0.3 0"/><feBlend in2="BackgroundImageFix" result="effect1_dropShadow_1267_1951"/><feBlend in="SourceGraphic" in2="effect1_dropShadow_1267_1951" result="shape"/></filter></defs></svg>