<svg width="90" height="90" fill="none" xmlns="http://www.w3.org/2000/svg"><circle cx="45" cy="45" r="45" fill="#1763C0"/><path d="M71.199 61.204c-2.102.022-4.201.1-6.314.144h-1.98v-1.047c.052-4.903.096-9.802.163-14.7.023-1.542.138-3.08.145-4.617.023-4.149.034-8.298 0-12.443a2.767 2.767 0 0 0-2.681-2.7c-3.235-.06-6.474-.134-9.71-.163a13064 13064 0 0 0-23.28-.253l-.092-1.44a.505.505 0 0 0-.977 0l-.097 1.418c-4.293-.034-7.666-.063-8.538-.06-.777 0-1.698.498-1.698 1.42 0 .998.46 1.697 1.14 1.838.491.08.989.112 1.486.093 1.274-.026 2.544-.115 3.818-.145 1.192-.026 2.422 0 3.67 0v.958c-.049 2.206-.112 4.412-.156 6.619-.063 3.086-.108 6.173-.164 9.26-.052 3.004-.119 6.012-.156 9.017a301.651 301.651 0 0 0 0 6.611 3.112 3.112 0 0 0 3.06 3.083c3.986.048 7.968.111 11.953.16 5.17.06 10.339.112 15.507.16h5.378l.1 1.485a.505.505 0 0 0 .977 0l.1-1.486h4.568c1.3 0 2.6.145 3.9.12A1.712 1.712 0 0 0 73 62.845a1.735 1.735 0 0 0-1.801-1.642Zm-9.568.13h-.676c-6.02.059-12.04.113-18.062.163h-3.84c-3.343.045-6.686.085-10.058.17-.788 0-1.077-.267-.995-1.024a6.93 6.93 0 0 0 0-.877c-.055-4.791-.108-9.582-.16-14.373-.05-5.359-.1-10.73-.152-16.116 0-.208-.02-.431 0-.706.278 0 .512-.022.694-.026l17.341-.16c4.792-.048 9.587-.092 14.378-.174.784 0 1.066.197 1.066 1.025 0 3.643.089 7.29.14 10.934.053 3.644.105 7.343.164 11.013.05 3.055.102 6.113.156 9.174.008.29.004.639.004.977Z" fill="#fff"/><path d="M59.703 53.786c-1.114.038-2.187 0-3.283 0h-2.366v-7.77c.034-3.138.149-6.276.134-9.415 0-1.144-.502-1.857-1.943-1.876-3.524 0-11.61-.078-17.26-.115l-.08-.702a.256.256 0 0 0-.495 0l-.07.71c-2.838 0-4.944-.026-5.327 0a.657.657 0 0 0-.601.479.765.765 0 0 0 .185.743c.234.161.517.235.799.208 1.653.022 3.306 0 4.955 0 0 2.462.022 4.828 0 7.175-.034 3.406-.123 6.812-.145 10.218 0 1.144.743 1.805 1.857 1.816h1.281c5.115.052 10.678.097 15.793.179h.297l.06.56a.257.257 0 0 0 .401.136.256.256 0 0 0 .092-.136l.056-.564c1.512 0 4.457-.03 5.679 0 .472 0 1.003-.208 1.006-.817.023-.684-.52-.829-1.025-.829Zm-6.288 0h-4.434c-4.149.049-8.301.09-12.454.175-.791.026-1.073-.2-1.073-1.006 0-3.618-.078-7.236-.145-10.85-.03-1.7-.104-3.398-.152-5.095v-1.014h17.857c.038.156.063.315.075.475.059 3.566.104 7.128.17 10.69.034 1.886.104 3.77.156 5.652.008.275 0 .61 0 .977v-.004Z" fill="#fff"/></svg>