<svg width="90" height="90" viewBox="0 0 90 90" fill="none" xmlns="http://www.w3.org/2000/svg">
<g clip-path="url(#clip0_2762_1112)">
<circle cx="45" cy="45" r="45" fill="#F5F5F5"/>
<path fill-rule="evenodd" clip-rule="evenodd" d="M71.3498 65.0907C70.874 65.8569 69.8524 66.0368 69.1124 65.5215L67.8822 64.6647C67.1422 64.1492 66.9648 63.1339 67.4333 62.3634C69.6225 58.7618 70.9168 54.6787 71.196 50.4573C71.5113 45.6917 70.5209 40.9303 68.3314 36.6857C66.1419 32.4412 62.8362 28.8741 58.7701 26.3685C54.7041 23.863 50.0317 22.5137 45.256 22.4661C40.4802 22.4185 35.7819 23.6742 31.6666 26.0982C27.5515 28.5222 24.1753 32.0226 21.9016 36.2226C19.6278 40.4227 18.5426 45.1633 18.7627 49.9343C18.9577 54.1604 20.1704 58.2685 22.2873 61.913C22.7402 62.6929 22.5427 63.7044 21.7925 64.2049L20.5455 65.037C19.7954 65.5375 18.7775 65.3373 18.3171 64.5618C15.7233 60.193 14.2379 55.246 14.0029 50.1539C13.7429 44.5172 15.025 38.9163 17.7113 33.9542C20.3977 28.9921 24.3865 24.8565 29.2484 21.9927C34.1103 19.1288 39.6612 17.6452 45.3035 17.7015C50.9458 17.7578 56.466 19.3518 61.2698 22.3121C66.0736 25.2723 69.9791 29.4866 72.566 34.5013C75.1527 39.5161 76.323 45.1414 75.9506 50.7718C75.614 55.8581 74.0302 60.7745 71.3498 65.0907ZM26.9062 51.7033C25.7852 52.161 25.7852 53.7485 26.9062 54.2062L38.3356 58.8727C38.6718 59.01 38.9388 59.2768 39.0761 59.6132L43.7425 71.0426C44.2002 72.1636 45.7876 72.1636 46.2453 71.0426L50.9117 59.6132C51.049 59.2768 51.316 59.01 51.6522 58.8727L63.0816 54.2062C64.2027 53.7485 64.2027 52.161 63.0816 51.7033L51.6522 47.037C51.316 46.8997 51.049 46.6329 50.9117 46.2965L46.2453 34.8671C45.7876 33.7461 44.2002 33.7461 43.7425 34.8671L39.0761 46.2965C38.9388 46.6329 38.6718 46.8997 38.3356 47.037L26.9062 51.7033Z" fill="#8258EB"/>
</g>
<defs>
<clipPath id="clip0_2762_1112">
<rect width="90" height="90" fill="white"/>
</clipPath>
</defs>
</svg>
