<svg xmlns="http://www.w3.org/2000/svg" width="90" height="90" fill="none"><circle cx="45" cy="45" r="45" fill="#FFF066"/><path fill="#EDE02C" d="M76.04 37.41c-.737-.018-4.623.476-4.623.476a8.131 8.131 0 0 1 2.763-.964c.158-.03 2.146-.164 2.392-.937.247-.773-.608-1.182-1.351-1.212-.986-.055-3.28 1.027-4.355 1.424-.64.237-1.522.792-2.739.673a3.765 3.765 0 0 1-1.39-.388c-.23-.142-.512-.32-.409-1.318.45-4.411-1.987-4.763-2.599-4.744-.709.02-1.826.997-.39 2.482 2.463 2.559 1.562 2.901 1.175 3.132-.314.19-.582.448-.785.755-.334.454-.55 1.549-.368 2.08.105.296.24.581.402.851-.037.042-.08.079-.113.124-.444.607-.347 1.404-.304 1.874.17 1.358.913 1.718 1.086 2.71.116.67-.018 1.652-1.156 3.01-.305.764-.63 1.695-.399 1.84.11.067.32-.051.676-.349.87-.724 2.051-1.706 2.392-3.38.2-.985-.037-1.446.429-2.14.237-.356.57-.639.962-.815a2.47 2.47 0 0 1 .98-.182 3.75 3.75 0 0 1 2.087.773c.588.394 1.522 1.028 1.942 2.161.21.576.2 1.058.575 1.213a.935.935 0 0 0 .898-.203c.396-.334.38-.876.368-1.183a2.154 2.154 0 0 0-.286-.997 3.08 3.08 0 0 0-1.105-1.04c-1.311-.909-1.966-1.352-1.902-1.515.064-.164 1.145-.146 2.067.285a7.283 7.283 0 0 1 1.78 1.282c.572.555.822.724 1.111.688.38-.051.609-.543.584-1.094 0-.2-.094-.85-1.266-1.61-1.378-.894-2.194-.606-4.52-1.14l-.145-.04c.39-.245.797-.463 1.217-.654 1.065-.467 3.02-.279 3.956.048.54.191 2.046.789 2.231-.109.286-1.449-1.132-1.846-1.868-1.867Z"/><path fill="#000" d="M62.956 49.602a.412.412 0 0 1-.231-.07c-.371-.227-.305-.809.27-2.221a.304.304 0 0 1 .053-.082c.86-1.031 1.217-1.956 1.086-2.756a2.758 2.758 0 0 0-.432-.991 4.026 4.026 0 0 1-.66-1.734c-.062-.48-.171-1.364.328-2.077a4.732 4.732 0 0 1-.304-.712c-.232-.66.033-1.855.41-2.365.228-.34.527-.626.877-.84.228-.13.304-.187.329-.302.033-.23-.128-.84-1.57-2.338-.941-.979-.828-1.74-.68-2.106a1.517 1.517 0 0 1 1.288-.91 2.731 2.731 0 0 1 1.984.858c.819.876 1.132 2.298.935 4.244-.083.806.094.91.264 1.022.393.191.818.306 1.254.34.75.04 1.497-.122 2.161-.47.158-.067.304-.134.441-.183.247-.094.56-.22.913-.363 1.218-.504 2.715-1.131 3.576-1.083.518.028 1.184.225 1.507.688a1.041 1.041 0 0 1 .124.94c-.252.791-1.573 1.031-2.544 1.14h-.094l-.131.024c.852-.09 1.643-.166 1.948-.157.608.018 1.418.236 1.868.803a1.658 1.658 0 0 1 .305 1.428.845.845 0 0 1-.42.606c-.609.334-1.592-.027-2.13-.221l-.089-.03c-.87-.304-2.739-.482-3.716-.061a7.021 7.021 0 0 0-.484.236c.539.106.968.164 1.36.216.978.13 1.684.224 2.624.836 1.12.725 1.385 1.41 1.41 1.852.042.755-.305 1.352-.86 1.422-.443.049-.757-.182-1.369-.773a6.998 6.998 0 0 0-1.692-1.212 4.111 4.111 0 0 0-1.363-.364c.326.255.889.64 1.522 1.067l.073.051c.46.264.848.64 1.126 1.092.2.349.31.741.325 1.143 0 .32.034.997-.478 1.427a1.22 1.22 0 0 1-1.217.252c-.402-.176-.508-.57-.609-.952-.036-.14-.076-.303-.13-.448-.378-1.037-1.248-1.622-1.826-2.007a3.429 3.429 0 0 0-1.96-.758 1.864 1.864 0 0 0-.856.157 1.953 1.953 0 0 0-.824.7c-.2.315-.297.684-.277 1.056a5.972 5.972 0 0 1-.107.976c-.365 1.776-1.597 2.807-2.498 3.556a1.49 1.49 0 0 1-.81.454Zm.609-2.012a7.568 7.568 0 0 0-.414 1.264 4.67 4.67 0 0 0 .22-.173c.872-.73 1.965-1.637 2.285-3.204.056-.29.088-.584.094-.88a2.381 2.381 0 0 1 .38-1.37c.27-.406.65-.727 1.096-.927a2.397 2.397 0 0 1 1.11-.21c.821.042 1.61.33 2.262.828.609.406 1.616 1.085 2.06 2.31.067.182.11.349.153.506.09.343.136.488.252.537a.63.63 0 0 0 .572-.155c.28-.236.265-.673.256-.934-.01-.3-.094-.593-.244-.854a2.685 2.685 0 0 0-.937-.886l-.073-.048c-1.796-1.234-2.17-1.491-2.018-1.895a.413.413 0 0 1 .256-.248c.423-.173 1.445 0 2.237.36.686.349 1.315.8 1.862 1.34.551.53.718.607.852.607s.341-.34.305-.764c-.015-.246-.18-.752-1.126-1.367-.822-.534-1.403-.607-2.365-.74a20.263 20.263 0 0 1-2.057-.358l-.091-.024a.357.357 0 0 1-.26-.264.302.302 0 0 1 .11-.318c.4-.253.817-.479 1.248-.676 1.166-.512 3.214-.303 4.182.04l.091.033c.347.124 1.263.46 1.61.263a.229.229 0 0 0 .116-.175 1.054 1.054 0 0 0-.168-.91 1.965 1.965 0 0 0-1.397-.567c-.544-.042-3.235.303-4.565.476a.305.305 0 0 1-.335-.203.302.302 0 0 1 .12-.37 8.437 8.437 0 0 1 2.878-1.01l.134-.017c1.726-.194 1.978-.607 2.015-.707a.42.42 0 0 0-.043-.397 1.394 1.394 0 0 0-1.013-.427c-.67-.037-2.261.606-3.302 1.036-.356.146-.676.276-.928.37-.128.046-.262.106-.408.17-.763.39-1.618.57-2.474.518a3.97 3.97 0 0 1-1.522-.433c-.344-.212-.67-.512-.557-1.613.176-1.722-.088-3.013-.77-3.74a2.004 2.004 0 0 0-1.507-.661.885.885 0 0 0-.724.518c-.161.391.037.91.551 1.437 1.677 1.74 1.793 2.464 1.738 2.858a1.017 1.017 0 0 1-.585.731 2.208 2.208 0 0 0-.736.697 2.672 2.672 0 0 0-.341 1.798c.095.278.22.544.374.794a.302.302 0 0 1-.036.37l-.338-.09.256.181c-.372.515-.286 1.212-.229 1.655.071.534.266 1.043.57 1.489.25.366.423.778.51 1.212.165.97-.237 2.055-1.198 3.217h.006Z"/><path fill="#EDE02C" d="M49.386 24.338a4.295 4.295 0 0 1 3.043 1.362c.865.93 1.896 2.122 2.149 2.834.213.606.21 1.249.609 1.75.36.459.632.98.8 1.54l.189.627c.194.648.344 1.308.45 1.976l.66 4.21a9.093 9.093 0 0 0 2.198 3.266l.392.376a15.4 15.4 0 0 1 2.557 3.195l.53.882a11.84 11.84 0 0 1 1.378 3.32c.423 1.733.864 4.364.682 6.14-.204 1.986-.977 5.324-2.015 6.9-1.36 2.07-3.196 3.865-5.563 4.617h-.049a13.257 13.257 0 0 1-3.576.606l-4.324.104c-1.127 0-2.245.178-3.315.53l-7.508 2.95-10.782-46.575.873-.928a2.263 2.263 0 0 1 1.994-.682l3.554.552c.59.093 1.184.146 1.78.157l13.294.291Z"/><path fill="#000" d="M38.673 71.835a.304.304 0 0 1-.307-.243L27.584 25.017a.302.302 0 0 1 .076-.284l.876-.91a2.564 2.564 0 0 1 2.27-.794l3.552.555c.576.088 1.158.139 1.74.151l13.294.303a4.636 4.636 0 0 1 3.275 1.462c1.25 1.343 1.996 2.334 2.215 2.943.075.22.136.445.183.673.05.347.176.68.368.973.383.492.67 1.05.85 1.646l.191.625c.198.662.35 1.336.457 2.019l.663 4.21a8.926 8.926 0 0 0 2.1 3.09l.392.372a15.647 15.647 0 0 1 2.62 3.262l.533.882a12.097 12.097 0 0 1 1.4 3.404c.454 1.856.87 4.472.688 6.245-.198 1.919-.968 5.375-2.063 7.04-1.613 2.454-3.543 4.05-5.73 4.743-1.203.379-2.451.589-3.71.625l-4.325.103a10.26 10.26 0 0 0-3.223.515l-7.49 2.935a.307.307 0 0 1-.113.03ZM28.232 25.042l10.651 46.06 7.17-2.817a10.903 10.903 0 0 1 3.43-.555l4.319-.103a12.884 12.884 0 0 0 3.488-.582c2.1-.66 3.925-2.173 5.447-4.505.928-1.412 1.744-4.607 1.963-6.76.174-1.694-.234-4.244-.672-6.035a11.494 11.494 0 0 0-1.33-3.226l-.533-.882a14.947 14.947 0 0 0-2.514-3.134l-.392-.373a9.511 9.511 0 0 1-2.265-3.368l-.678-4.286a14.568 14.568 0 0 0-.442-1.938l-.188-.624a4.364 4.364 0 0 0-.746-1.44 2.935 2.935 0 0 1-.487-1.234 5.292 5.292 0 0 0-.161-.606c-.186-.515-.928-1.482-2.085-2.728a3.99 3.99 0 0 0-2.827-1.261l-13.293-.303a13.49 13.49 0 0 1-1.826-.161l-3.552-.534a1.956 1.956 0 0 0-1.716.588l-.761.807Z"/><path fill="#4AC800" d="m29.82 24.9 1.266.548c.709.306 1.3.829 1.693 1.491l1.311 2.232c.114.192.173.41.174.633v.097c0 .38.105.752.304 1.076l.383.63c.386.632.662 1.322.82 2.044l.303 1.376c.161.741.193 1.504.095 2.256l-.548 4.159-.037.846a3.148 3.148 0 0 0 .84 2.288l1.979 2.122 1.397 1.677a14.293 14.293 0 0 1 2.215 3.662c.423 1.012.682 2.084.767 3.177.122 1.573.18 3.125.207 4.244.028 1.128-.1 2.255-.38 3.35a456.647 456.647 0 0 1-1.105 4.222c-.1.387-.235.763-.405 1.125-.402.867-1.196 2.352-2.13 3.222-.563.373-1.297.467-2.499.034l-8.302-3.893a5.189 5.189 0 0 1-2.178-1.912 5.16 5.16 0 0 1-.808-2.777v-.607c.014-.81.235-1.603.643-2.304.48-.872.8-1.823.949-2.807.256-1.603.609-3.94.609-4.138 0-.26.13-5.78.182-8.027a9.996 9.996 0 0 0-.13-1.858c-.18-1.119-.61-3.253-.61-3.335 0-.081-.52-1.315-.912-2.282a3.587 3.587 0 0 1-.265-1.495l.125-2.974c.015-.364.085-.723.207-1.067l1.15-3.252c.144-.402.24-.82.286-1.243l.17-1.577a.874.874 0 0 1 .42-.657l.354-.213a1.608 1.608 0 0 1 1.46-.094Z"/><path fill="#000" d="M37.83 71.999a4.394 4.394 0 0 1-1.482-.303L28.043 67.8a5.507 5.507 0 0 1-2.308-2.028 5.477 5.477 0 0 1-.857-2.943v-.607a5.02 5.02 0 0 1 .682-2.455c.462-.84.771-1.756.913-2.704.563-3.544.608-4.029.608-4.093 0-.257.128-5.702.183-8.03a9.984 9.984 0 0 0-.122-1.804c-.103-.627-.28-1.582-.417-2.306-.176-.95-.188-1.022-.188-1.077l-.57-1.373-.325-.791a3.85 3.85 0 0 1-.305-1.625l.113-2.986c.016-.397.091-.79.225-1.164l1.15-3.235c.135-.379.225-.773.268-1.173l.171-1.576a1.21 1.21 0 0 1 .584-.891l.356-.212a1.907 1.907 0 0 1 1.741-.113l1.266.546a3.95 3.95 0 0 1 1.826 1.622l1.312 2.231c.143.24.219.513.219.791v.097c0 .321.088.636.256.91l.383.633a6.76 6.76 0 0 1 .855 2.137l.305 1.377c.17.775.204 1.574.1 2.361l-.545 4.171-.033.819a2.85 2.85 0 0 0 .758 2.061l1.978 2.122 1.406 1.689a14.749 14.749 0 0 1 2.267 3.744c.434 1.042.7 2.146.788 3.27.125 1.62.183 3.208.207 4.244a12.582 12.582 0 0 1-.39 3.432 433.414 433.414 0 0 1-1.104 4.226c-.106.404-.248.8-.423 1.179-.304.673-1.16 2.343-2.206 3.316-.394.27-.862.412-1.34.407ZM29.184 25.08c-.231 0-.459.063-.657.182l-.356.212a.563.563 0 0 0-.271.422l-.161 1.576c-.05.449-.152.89-.305 1.316l-1.16 3.234a3.246 3.246 0 0 0-.188.98l-.112 2.988c-.019.467.063.932.24 1.364l.329.8c.608 1.44.608 1.517.608 1.614 0 .051.082.448.18.96.134.731.304 1.689.417 2.326.102.633.147 1.274.134 1.915a2167.85 2167.85 0 0 0-.186 8.019c0 .066 0 .272-.609 4.186a8.714 8.714 0 0 1-.986 2.91 4.433 4.433 0 0 0-.608 2.152v.607c-.001.924.262 1.83.76 2.61a4.878 4.878 0 0 0 2.046 1.797l8.29 3.887c1.245.448 1.826.23 2.188 0 .913-.864 1.729-2.453 2.027-3.092.162-.352.292-.717.39-1.092.228-.867.739-2.798 1.101-4.222.273-1.066.398-2.163.371-3.262a81.042 81.042 0 0 0-.207-4.223 10.003 10.003 0 0 0-.742-3.083 13.897 13.897 0 0 0-2.17-3.59l-1.394-1.676-1.966-2.122a3.476 3.476 0 0 1-.913-2.513l.037-.845.535-4.172a6.296 6.296 0 0 0-.088-2.149l-.304-1.376a6.278 6.278 0 0 0-.78-1.946l-.383-.63c-.228-.373-.35-.801-.35-1.238v-.097a.94.94 0 0 0-.116-.482l-1.311-2.23a3.324 3.324 0 0 0-1.552-1.371l-1.266-.546a1.31 1.31 0 0 0-.512-.1ZM45.968 60.834a.31.31 0 0 1-.091 0 .306.306 0 0 1-.225-.269.3.3 0 0 1 .015-.122 9.222 9.222 0 0 0 .237-4.453 8.962 8.962 0 0 0-.989-2.677.302.302 0 0 1 .122-.428.304.304 0 0 1 .426.122c.503.892.86 1.858 1.06 2.861a9.938 9.938 0 0 1-.253 4.757.303.303 0 0 1-.302.209Z"/><path fill="#4AC800" d="M51.702 58.278c-2.024-.106-3.999-1.385-5.335-2.476 5.478 12.456 7.079 4.75 9.468 1.194-.764.6-1.784 1.407-4.133 1.282Z"/><path fill="#000" d="M51.477 62.953h-.07c-1.61-.064-3.378-2.468-5.563-7.564l-.122-.285a.303.303 0 0 1 .167-.406.306.306 0 0 1 .411.167l.11.255c2.033 4.74 3.719 7.157 5.021 7.208h.046c1.102 0 2.018-1.737 2.903-3.416.445-.92.974-1.796 1.58-2.62a.312.312 0 0 1 .44-.046.308.308 0 0 1 .103.33.312.312 0 0 1-.056.108c-.58.794-1.09 1.636-1.522 2.519-.965 1.843-1.97 3.75-3.448 3.75Z"/><path fill="#000" d="M52.405 58.59c-2.395 0-4.784-1.388-6.126-2.804a6.964 6.964 0 0 1-.52-.606.31.31 0 0 1 .296-.495.313.313 0 0 1 .206.122c.147.197.306.385.474.564 1.29 1.361 3.61 2.701 5.89 2.601a4.328 4.328 0 0 0 3.332-1.667.313.313 0 0 1 .487.391 4.988 4.988 0 0 1-3.796 1.904l-.243-.01ZM60.74 57.614a.426.426 0 0 1-.103 0c-3.116-1.079-3.153-4.804-3.153-4.85a.303.303 0 0 1 .305-.303.305.305 0 0 1 .304.303c0 .134.04 3.335 2.739 4.244a.309.309 0 0 1 .253.355.307.307 0 0 1-.356.252h.012Z"/><path fill="#EDE02C" d="M16.524 39.45c.003-.292.043-.582.119-.864a4.571 4.571 0 0 1 .806-1.782 2.063 2.063 0 0 1 1.963-.77.978.978 0 0 1 .791.745 1.292 1.292 0 0 1-.16 1.007c-.588 1.167-.433 2.783-.33 3.504a8.498 8.498 0 0 0 2.046 4.244c.608.67.946.8 1.308 1.516.318.647.485 1.357.49 2.077.067 1.476-.435 1.952-.079 2.934.16.373.38.718.654 1.019.992 1.27 1.902 2.425 3.394 2.813.41.103 1.454.363 2.21-.206.103-.076.529-.419.775-1.516.192-.834.125-1.443-.161-3.301-.183-1.18-.304-2.371-.533-3.544-.188-.98-.304-1.437-.164-2.122.085-.38.344-1.546 1.27-1.792a1.582 1.582 0 0 1 1.716.691c.432.77-.162 1.677-.284 1.859-.304.479-.566.47-.821.873-.426.676-.225 1.515-.122 1.995.244 1.136.304 2.591.41 5.502a8.198 8.198 0 0 1-.45 3.095c-.246.676-.459.951-.736 1.1-.49.264-1.156.124-2.292-.488-2.291-1.24-5.073-3.638-6.013-4.32a1.83 1.83 0 0 0-.737-.324 1.805 1.805 0 0 0-.94.082c-.353.13-.362.27-.98.733a1.692 1.692 0 0 1-.913.434 2.345 2.345 0 0 1-1.093-.21 3.15 3.15 0 0 1-.58-.342c-.415-.303-6.24-5.535-4.855-7.776 2.617-4.244 6.924-.209 6.163-2.37-.761-2.162-1.738-2.225-1.872-4.496Z"/><path fill="#000" d="M30.11 58.973c-.49 0-1.096-.212-1.915-.652-1.722-.934-3.691-2.492-4.994-3.526-.447-.351-.81-.642-1.053-.815a1.44 1.44 0 0 0-1.382-.206.96.96 0 0 0-.362.242c-.172.16-.353.31-.541.449a1.996 1.996 0 0 1-1.072.494 2.598 2.598 0 0 1-1.257-.236 3.345 3.345 0 0 1-.63-.382c-.067-.052-6.543-5.575-4.93-8.185 1.707-2.768 4.151-2.237 5.478-1.953.245.068.498.108.752.119-.015-.028-.027-.112-.082-.267a7.68 7.68 0 0 0-.938-1.819c-.6-.799-.936-1.764-.961-2.761.001-.324.044-.646.128-.958.15-.693.447-1.346.873-1.913a2.404 2.404 0 0 1 2.249-.873 1.295 1.295 0 0 1 1.035.973 1.594 1.594 0 0 1-.186 1.212c-.53 1.05-.414 2.532-.304 3.32a8.171 8.171 0 0 0 1.969 4.074c.2.221.371.382.52.524.343.294.626.65.834 1.05.336.688.516 1.441.527 2.206.02.525-.023 1.05-.128 1.564-.122.426-.107.878.042 1.295.15.343.355.659.609.934.986 1.26 1.826 2.352 3.223 2.7.359.088 1.309.328 1.945-.151.127-.097.456-.425.66-1.328.173-.764.119-1.319-.167-3.183-.067-.43-.125-.864-.183-1.294-.103-.737-.204-1.516-.347-2.237l-.06-.304c-.156-.794-.25-1.276-.101-1.946.094-.427.383-1.734 1.491-2.028a1.897 1.897 0 0 1 2.06.846c.341.606.235 1.382-.304 2.183a2.16 2.16 0 0 1-.511.545 1.19 1.19 0 0 0-.305.322c-.344.542-.194 1.242-.094 1.706.262 1.213.304 2.69.426 5.611a8.349 8.349 0 0 1-.469 3.214c-.255.71-.502 1.067-.879 1.27a1.402 1.402 0 0 1-.666.164Zm-8.826-5.915a2.135 2.135 0 0 1 1.236.415c.246.177.608.474 1.074.834 1.287 1.019 3.229 2.559 4.902 3.465 1.014.546 1.61.694 1.994.488.189-.103.362-.303.59-.933a7.78 7.78 0 0 0 .43-2.977c-.11-2.886-.165-4.335-.402-5.457-.125-.588-.305-1.47.164-2.228.118-.183.269-.344.444-.473.15-.111.279-.248.38-.403.229-.349.57-1.006.272-1.537a1.271 1.271 0 0 0-1.364-.543c-.74.197-.968 1.213-1.04 1.559-.122.545-.046.927.106 1.691l.058.303c.146.758.25 1.516.353 2.274.058.427.115.858.182 1.285.28 1.819.366 2.498.159 3.417-.18.788-.496 1.388-.895 1.688-.877.66-2.04.367-2.474.255-1.595-.4-2.554-1.622-3.564-2.92a3.937 3.937 0 0 1-.715-1.1 2.718 2.718 0 0 1-.055-1.598 5.84 5.84 0 0 0 .116-1.427 4.473 4.473 0 0 0-.454-1.95 2.925 2.925 0 0 0-.709-.882 8.831 8.831 0 0 1-.554-.558 8.831 8.831 0 0 1-2.13-4.401c-.125-.864-.247-2.489.356-3.69a.983.983 0 0 0 .143-.788.669.669 0 0 0-.533-.53 1.774 1.774 0 0 0-1.658.667 4.261 4.261 0 0 0-.74 1.658 3.32 3.32 0 0 0-.116.77c.02.89.319 1.75.856 2.462a8.21 8.21 0 0 1 1 1.949c.104.303.193.655-.03.91-.264.302-.727.196-1.363.06-1.32-.291-3.32-.719-4.781 1.667-1.138 1.846 3.838 6.648 4.778 7.364.157.119.326.22.505.303.294.134.615.197.938.184.18 0 .328-.054.757-.372.174-.129.34-.267.5-.413.157-.16.349-.284.56-.363a2.14 2.14 0 0 1 .72-.125h.004Z"/><path fill="#EDE02C" d="M14.549 49.693c-.122-.054-1.443.804-1.85 1.231-.323.34-1.002 1.44.353 2.289 1.543.967 1.956 1.167 2.465 1.24.508.072 2.188-.698 2.267-1.161a.907.907 0 0 0-.803-.998 4.853 4.853 0 0 0-1.273.1.488.488 0 0 1-.429-.097s-.426-.33-.493-.524.25-.579.25-.579"/><path fill="#000" d="M15.565 54.771h-.097c-.575-.085-1.032-.303-2.587-1.288a1.826 1.826 0 0 1-.946-1.298 1.938 1.938 0 0 1 .532-1.47c.082-.085 1.756-1.516 2.213-1.298a.311.311 0 0 1 .242.366.309.309 0 0 1-.367.24c-.588.31-1.136.691-1.631 1.135a1.286 1.286 0 0 0-.362.942 1.236 1.236 0 0 0 .657.85c1.543.966 1.902 1.133 2.34 1.212.39.06 1.802-.607 1.918-.91a.577.577 0 0 0-.128-.397.569.569 0 0 0-.402-.227 4.538 4.538 0 0 0-1.178.1.795.795 0 0 1-.706-.179 1.876 1.876 0 0 1-.572-.649c-.119-.336.177-.73.304-.882a.313.313 0 0 1 .478.403.909.909 0 0 0-.185.303c.02.019.207.204.38.34a.212.212 0 0 0 .18.036 5.176 5.176 0 0 1 1.363-.106 1.2 1.2 0 0 1 .834.47c.197.253.286.574.246.891-.112.67-1.844 1.416-2.526 1.416Z"/><path fill="#EDE02C" d="M14.619 48.423c-.15-.051-1.784.794-2.292 1.213-.414.318-1.26 1.373.365 2.134 1.854.864 2.356 1.043 2.97 1.097.615.055 2.688-.718 2.797-1.158.086-.34-.228-.87-.952-.91a7.673 7.673 0 0 0-1.552.134.72.72 0 0 1-.52-.082s-.509-.303-.588-.478c-.08-.176.323-.55.323-.55"/><path fill="#000" d="M15.705 53.18h-.07c-.672-.058-1.217-.258-3.073-1.125-.685-.321-1.066-.737-1.127-1.237-.094-.746.56-1.319.694-1.428.277-.227 2.17-1.397 2.59-1.26a.31.31 0 0 1 .251.355.307.307 0 0 1-.357.25c-.738.3-1.44.68-2.091 1.137-.192.158-.511.519-.469.867.043.349.448.594.773.755 1.872.876 2.316 1.022 2.864 1.07.548.049 2.307-.66 2.474-.943a.382.382 0 0 0-.088-.23.746.746 0 0 0-.587-.276c-.496-.002-.991.04-1.48.127-.258.05-.526 0-.748-.142a1.823 1.823 0 0 1-.69-.606c-.147-.343.188-.713.398-.91a.312.312 0 0 1 .345-.05.314.314 0 0 1 .178.298.313.313 0 0 1-.103.216c-.077.07-.145.148-.204.233.131.112.27.213.417.304.093.05.201.063.304.04a7.59 7.59 0 0 1 1.625-.134 1.383 1.383 0 0 1 1.053.527.944.944 0 0 1 .183.773c-.158.676-2.359 1.389-3.062 1.389Z"/><path fill="#EDE02C" d="M14.86 46.29c-.165-.07-2.131.657-2.74 1.042-.496.303-1.594 1.334.174 2.313 2.018 1.112 2.568 1.352 3.262 1.476.694.124 3.15-.479 3.324-.934.133-.351-.165-.951-.98-1.073a9.673 9.673 0 0 0-1.79-.024.87.87 0 0 1-.584-.14s-.545-.37-.609-.57c-.064-.2.432-.55.432-.55"/><path fill="#000" d="M15.708 51.443a1.13 1.13 0 0 1-.219 0c-.755-.134-1.351-.4-3.347-1.516-.75-.419-1.142-.898-1.142-1.434-.018-.797.782-1.328.944-1.428.392-.242 2.647-1.212 3.043-1.064a.304.304 0 0 1 .168.406.303.303 0 0 1-.332.191c-.883.24-1.736.575-2.545 1-.225.14-.654.504-.645.883.01.379.439.688.8.891 2.043 1.13 2.536 1.334 3.166 1.443.63.11 2.77-.467 2.985-.758a.369.369 0 0 0-.06-.242.913.913 0 0 0-.685-.388 9.172 9.172 0 0 0-1.72-.022 1.162 1.162 0 0 1-.803-.209 2.002 2.002 0 0 1-.712-.712c-.128-.376.289-.73.547-.91a.315.315 0 0 1 .487.315.313.313 0 0 1-.13.2c-.1.07-.19.15-.271.24.14.136.29.259.453.367a.592.592 0 0 0 .39.085 9.751 9.751 0 0 1 1.853.027 1.547 1.547 0 0 1 1.132.691.925.925 0 0 1 .095.8c-.247.646-2.563 1.144-3.452 1.144Z"/><path fill="#EDE02C" d="M15.294 44.334c-.16-.07-2.13.658-2.739 1.043-.496.303-1.597 1.333.174 2.31 2.015 1.115 2.566 1.355 3.262 1.479.697.124 3.15-.48 3.324-.937.134-.352-.165-.949-.983-1.07a9.386 9.386 0 0 0-1.787-.024.88.88 0 0 1-.587-.14s-.545-.37-.609-.57c-.064-.2.43-.551.43-.551"/><path fill="#000" d="M16.144 49.487a1.344 1.344 0 0 1-.216 0c-.758-.133-1.355-.4-3.348-1.515-.752-.419-1.132-.898-1.145-1.434-.018-.804.783-1.331.947-1.428.39-.243 2.645-1.213 3.043-1.064a.315.315 0 0 1 .223.385.314.314 0 0 1-.387.221c-.88.24-1.733.574-2.541.998-.228.139-.655.503-.648.882.006.379.45.682.8.882 2.039 1.127 2.532 1.334 3.162 1.443.63.109 2.77-.47 2.989-.758a.372.372 0 0 0-.061-.243.912.912 0 0 0-.685-.388 9.206 9.206 0 0 0-1.72-.02 1.163 1.163 0 0 1-.806-.213 1.978 1.978 0 0 1-.712-.712c-.125-.376.304-.728.55-.91a.316.316 0 0 1 .436.082.31.31 0 0 1-.082.434c-.1.069-.19.149-.271.239.14.134.294.256.456.364a.546.546 0 0 0 .387.088 9.621 9.621 0 0 1 1.853.027 1.552 1.552 0 0 1 1.136.706.937.937 0 0 1 .094.8c-.25.637-2.563 1.134-3.454 1.134Z"/><path fill="#4AC800" d="M44.172 43.214c1.448-.54 2.09-2.394 1.434-4.14-.656-1.747-2.363-2.725-3.81-2.185-1.449.54-2.09 2.393-1.434 4.14.656 1.747 2.362 2.725 3.81 2.185Z"/><path fill="#000" d="M43.348 43.57c-1.306 0-2.617-.964-3.183-2.465a3.926 3.926 0 0 1-.073-2.664 2.754 2.754 0 0 1 1.646-1.743c1.555-.58 3.384.454 4.081 2.304.694 1.852 0 3.828-1.558 4.407a2.562 2.562 0 0 1-.913.161Zm-.724-6.627a2.101 2.101 0 0 0-.755.137 2.353 2.353 0 0 0-1.382 1.488 3.506 3.506 0 0 0 .07 2.38c.609 1.637 2.207 2.558 3.543 2.064 1.336-.494 1.926-2.237 1.311-3.871-.502-1.328-1.652-2.198-2.787-2.198Z"/><path fill="#4AC800" d="M53.66 39.422c.316-1.597-.48-3.098-1.777-3.354-1.298-.255-2.606.832-2.923 2.428-.317 1.597.478 3.098 1.776 3.354 1.298.255 2.606-.832 2.923-2.428Z"/><path fill="#000" d="M51.118 42.097c-.143 0-.286-.013-.426-.04a2.385 2.385 0 0 1-1.65-1.288 3.498 3.498 0 0 1-.304-2.316c.338-1.707 1.759-2.87 3.168-2.592a2.385 2.385 0 0 1 1.637 1.282c.364.715.471 1.532.304 2.316a3.512 3.512 0 0 1-1.153 2.031 2.464 2.464 0 0 1-1.576.607Zm.38-5.854c-1.062 0-2.07.958-2.337 2.298-.148.69-.054 1.41.265 2.04a1.871 1.871 0 0 0 1.344 1.077 1.884 1.884 0 0 0 1.66-.47 3.08 3.08 0 0 0 1.022-1.79 3.096 3.096 0 0 0-.262-2.043 1.963 1.963 0 0 0-1.351-1.064 1.599 1.599 0 0 0-.34-.054v.006ZM44.598 42.2c.829-.178 1.32-1.152 1.1-2.177-.222-1.024-1.073-1.711-1.9-1.534-.83.178-1.321 1.152-1.1 2.177.221 1.025 1.072 1.711 1.9 1.534Z"/><path fill="#000" d="M52.183 41.005c.708 0 1.281-.82 1.281-1.834 0-1.013-.573-1.834-1.281-1.834s-1.281.821-1.281 1.834c0 1.013.573 1.834 1.28 1.834Z"/><path fill="#fff" d="M50.299 39.04c.422 0 .764-.34.764-.76s-.342-.76-.764-.76a.762.762 0 0 0-.764.76c0 .42.342.76.764.76ZM41.443 40.284c.422 0 .764-.34.764-.761 0-.42-.342-.76-.764-.76a.762.762 0 0 0-.764.76c0 .42.342.76.764.76Z"/><path fill="#000" d="M38.777 36.161a.211.211 0 0 1-.173-.337c.042-.06 1.046-1.54 2.547-1.84a.212.212 0 0 1 .227.083.21.21 0 0 1-.001.241.209.209 0 0 1-.144.086c-1.327.263-2.27 1.649-2.28 1.664a.213.213 0 0 1-.176.103ZM53.464 34.776a.21.21 0 0 1-.167-.082c-1.014-1.307-1.948-1.27-1.975-1.264a.213.213 0 0 1-.21-.197.205.205 0 0 1 .191-.221c.049 0 1.178-.07 2.338 1.427a.206.206 0 0 1-.165.334l-.012.003ZM46.754 45.043a.21.21 0 0 1-.174-.333c.024-.04.609-.95 1.54-1.08a1.864 1.864 0 0 1 1.522.531.205.205 0 0 1 .02.303.21.21 0 0 1-.303.018 1.475 1.475 0 0 0-1.178-.43c-.737.103-1.245.882-1.251.891a.21.21 0 0 1-.176.1Z"/><path fill="#4AC800" d="M44.949 48.208a.75.75 0 0 0 .752-.749.75.75 0 0 0-.752-.749.75.75 0 0 0-.752.75.75.75 0 0 0 .752.748Z"/><path fill="#000" d="M44.949 48.414a.964.964 0 0 1-.889-.592.955.955 0 0 1 .703-1.306.965.965 0 0 1 .987.41.956.956 0 0 1-.801 1.488Zm0-1.494a.543.543 0 0 0-.528.646.54.54 0 0 0 .739.392.542.542 0 0 0 .292-.706.539.539 0 0 0-.503-.332Z"/><path fill="#4AC800" d="M48.628 47.46a.75.75 0 0 0 .752-.75.75.75 0 0 0-.752-.748.75.75 0 0 0-.752.748.75.75 0 0 0 .752.75Z"/><path fill="#000" d="M48.628 47.665a.964.964 0 0 1-.889-.592.955.955 0 0 1 .704-1.305.964.964 0 0 1 1.147.943.956.956 0 0 1-.962.954Zm0-1.497a.547.547 0 0 0-.505.333.54.54 0 0 0 .395.741.546.546 0 0 0 .652-.531.542.542 0 0 0-.542-.543Z"/><path fill="#4AC800" d="M52.563 47.065a.75.75 0 0 0 .752-.749.75.75 0 0 0-.752-.748.75.75 0 0 0-.752.748.75.75 0 0 0 .752.75Z"/><path fill="#000" d="M52.563 47.274a.965.965 0 0 1-.89-.589.955.955 0 0 1 .698-1.308.964.964 0 0 1 .989.407.956.956 0 0 1-.797 1.49Zm0-1.497a.543.543 0 0 0-.531.645.539.539 0 0 0 .426.424.544.544 0 0 0 .556-.23.538.538 0 0 0-.45-.84Z"/><path fill="#4AC800" d="M56.148 46.71a.75.75 0 0 0 .752-.748.75.75 0 0 0-.752-.75.75.75 0 0 0-.751.75.75.75 0 0 0 .751.748Z"/><path fill="#000" d="M56.148 46.92a.965.965 0 0 1-.888-.592.955.955 0 0 1 .7-1.306.965.965 0 0 1 .988.407.956.956 0 0 1-.8 1.49Zm0-1.498a.543.543 0 0 0-.531.645.538.538 0 0 0 .426.424.543.543 0 0 0 .647-.53.539.539 0 0 0-.542-.53v-.009Z"/><path fill="#4AC800" d="M45.877 50.679a.75.75 0 0 0 .752-.75.75.75 0 0 0-.752-.748.75.75 0 0 0-.752.749.75.75 0 0 0 .752.749Z"/><path fill="#000" d="M45.877 50.888a.964.964 0 0 1-.889-.592.955.955 0 0 1 .701-1.306.966.966 0 0 1 .988.408.956.956 0 0 1-.8 1.49Zm0-1.498a.543.543 0 0 0-.531.645.539.539 0 0 0 .425.424.544.544 0 0 0 .648-.53.538.538 0 0 0-.542-.539Z"/><path fill="#4AC800" d="M49.556 49.93a.75.75 0 0 0 .752-.749.75.75 0 0 0-.752-.749.75.75 0 0 0-.751.749.75.75 0 0 0 .752.749Z"/><path fill="#000" d="M49.556 50.139a.964.964 0 0 1-.89-.59.954.954 0 0 1 .206-1.044.962.962 0 0 1 1.643.676.956.956 0 0 1-.959.958Zm0-1.498a.546.546 0 0 0-.537.648.542.542 0 0 0 .744.396.544.544 0 0 0 .176-.885.546.546 0 0 0-.383-.158Z"/><path fill="#4AC800" d="M53.488 49.536a.75.75 0 0 0 .752-.749.75.75 0 0 0-.752-.749.75.75 0 0 0-.751.749.75.75 0 0 0 .751.749Z"/><path fill="#000" d="M53.488 49.745a.964.964 0 0 1-.888-.591.955.955 0 0 1 .7-1.307.965.965 0 0 1 .988.408.955.955 0 0 1-.8 1.49Zm0-1.498a.546.546 0 0 0-.534.65.54.54 0 0 0 .43.426.547.547 0 0 0 .65-.536.538.538 0 0 0-.546-.54Z"/><path fill="#4AC800" d="M57.077 49.181a.75.75 0 0 0 .751-.749.75.75 0 0 0-.752-.748.75.75 0 0 0-.751.748.75.75 0 0 0 .752.749Z"/><path fill="#000" d="M57.077 49.39a.965.965 0 0 1-.891-.589.955.955 0 0 1 .699-1.308.966.966 0 0 1 .988.407.955.955 0 0 1-.12 1.208.967.967 0 0 1-.676.282Zm0-1.497a.543.543 0 0 0-.501.333.538.538 0 0 0 .395.736.544.544 0 0 0 .647-.53.542.542 0 0 0-.541-.54ZM25.578 35.182a.11.11 0 0 1-.08-.033.109.109 0 0 1 0-.149l1.267-1.143.03-.018 2.064-.864a6.243 6.243 0 0 0 1.853-1.185l1.318-1.228a3.187 3.187 0 0 1 1.363-.767l.304-.07c.462-.054.929.002 1.364.164.339.11.687.189 1.04.234 1.218.145 5.884.327 6.063.333 1.099.027 8.585-.588 9.249-.697.21-.037.466-.091.736-.149a7.28 7.28 0 0 1 1.908-.251c.42.083.81.275 1.133.554a.106.106 0 1 1-.14.158 2.243 2.243 0 0 0-1.014-.506 7.478 7.478 0 0 0-1.844.251c-.27.058-.53.113-.746.146-.654.109-7.912.703-9.221.703h-.067c-.18 0-4.87-.185-6.087-.333a5.511 5.511 0 0 1-1.08-.243 2.75 2.75 0 0 0-1.257-.157c-.11.024-.207.045-.304.07-.477.129-.915.375-1.272.715l-1.318 1.228a6.408 6.408 0 0 1-1.884 1.221l-2.045.858-1.263 1.13a.106.106 0 0 1-.07.028Z"/><path fill="#4AC800" d="M34.94 26.221c.23 1.073.571 2.162 1.54 2.64.654.322 1.147.197 2.279.076 1.32-.14 2.65-.236 3.98-.27 3.266-.088 4.8.125 8.138-.218.335-.033 1.078.015 1.242-.273.304-.518-.527-1.327-1.217-2.122a3.873 3.873 0 0 0-.792-.585 1.22 1.22 0 0 0-.636 0c-.675.118-8.454.194-10.15.158h-.304c-.55-.043-.803-.027-1.664-.136-.7-.091-1.014-.167-1.47-.192-.32-.03-1.111.152-.947.922Z"/><path fill="#000" d="M37.383 29.17a2.02 2.02 0 0 1-.95-.215c-.995-.5-1.354-1.594-1.597-2.713a.788.788 0 0 1 .152-.712 1.172 1.172 0 0 1 .843-.352h.043c.272.017.543.049.812.094.183.03.396.064.667.097.608.076.913.091 1.217.106l.43.03a2 2 0 0 1 .303.016c1.671.033 9.474-.043 10.129-.158.225-.06.462-.06.688 0 .306.16.588.365.836.606l.253.285c.66.74 1.284 1.443.986 1.965-.155.276-.66.303-1.062.303l-.259.015c-1.718.174-3.446.24-5.174.2-.894 0-1.826 0-2.979.018a50.484 50.484 0 0 0-3.974.27l-.46.052c-.3.047-.601.078-.904.094Zm-2.34-2.97c.228 1.067.566 2.122 1.482 2.567.532.264.943.216 1.759.119l.462-.052a53.049 53.049 0 0 1 3.99-.273c1.163-.03 2.091-.024 2.989-.018 1.717.04 3.434-.026 5.143-.197.073 0 .167 0 .271-.015.304 0 .791-.03.889-.206.225-.391-.378-1.07-.962-1.725l-.253-.285a3.774 3.774 0 0 0-.745-.555 1.063 1.063 0 0 0-.585 0c-.687.118-8.448.194-10.17.158h-.305l-.435-.027c-.323 0-.627-.034-1.217-.11-.271-.036-.487-.066-.673-.097-.304-.042-.517-.078-.791-.094a.956.956 0 0 0-.715.28.587.587 0 0 0-.134.53Z"/></svg>