<svg width="90" height="90" fill="none" xmlns="http://www.w3.org/2000/svg"><circle cx="45" cy="45" r="45" fill="#195491"/><path fill-rule="evenodd" clip-rule="evenodd" d="M63.77 23h-1.127c-.61 0-1.145.056-1.588.074a6.648 6.648 0 0 0-2.141.316c-.314.093-.61.186-.886.334-.813.372-1.477.632-2.031 1.412-.554.761-.923 1.671-1.07 2.73l-.795 5.144s.37.056 2.825.056h1.514c1.218 0 2.16-.112 2.788-.186a7.077 7.077 0 0 0 1.846-.557 5.112 5.112 0 0 0 2.03-1.709c.554-.78.905-1.69 1.071-2.748L67 23h-3.23Zm-6.647 14.43H43.831c-.443.019-.85.056-1.182.111a6.53 6.53 0 0 0-1.846.558c-.812.371-1.477.928-2.03 1.708a6.134 6.134 0 0 0-1.072 2.749l-.793 4.995 5.723-.018h12.886c1.218 0 2.16-.037 2.788-.13a6.433 6.433 0 0 0 1.846-.557c.794-.353 1.477-.762 2.03-1.542.554-.78.905-1.69 1.071-2.748l.794-5.126h-6.923ZM54.17 51.934H27.492l-1.606.019c-.443.018-.83.056-1.181.111-.351.056-.665.112-.96.223-.296.074-.591.186-.868.334-.812.372-1.477.929-2.03 1.709a6.133 6.133 0 0 0-1.072 2.749L19 61.98l6.923.019h26.64c1.218 0 2.16-.056 2.788-.13.646-.093 1.255-.074 1.846-.334a5.11 5.11 0 0 0 2.03-1.709c.555-.78.905-1.69 1.072-2.748l.793-5.145h-6.941" fill="#89CAEA"/></svg>