<svg xmlns="http://www.w3.org/2000/svg" width="90" height="90" fill="none"><circle cx="45" cy="45" r="45" fill="#007BFF"/><g fill="#FDFDFE" clip-path="url(#a)"><path d="M55.213 46.852h.828c.316 0 .602-.035.848.302.245.336 1.268.295 1.57.055a.342.342 0 0 0 .125-.375.458.458 0 0 0-.454-.295c-.673-.072-1.373-.147-2.059-.206a3.684 3.684 0 0 1-1.15-.285 1.613 1.613 0 0 1-.805-.639 1.666 1.666 0 0 1-.265-1.004c.02-.731.393-1.233 1.177-1.476a9.24 9.24 0 0 1 4.956-.052c.673.162 1.235.55 1.346 1.35.034.222 0 .322-.25.318h-2.334c-.101 0-.199 0-.273-.1-.38-.528-.932-.342-1.433-.342a.362.362 0 0 0-.272.085.375.375 0 0 0-.132.258c0 .26.182.377.4.398.808.079 1.616.134 2.423.213.256.029.509.084.754.164.84.275 1.184.687 1.228 1.493.054.93-.246 1.562-1.08 1.83a8.311 8.311 0 0 1-5.582-.042 1.645 1.645 0 0 1-.673-.486 1.692 1.692 0 0 1-.356-.76c-.064-.267-.027-.432.313-.408.34.024.77.004 1.15.004ZM25.192 43.687c.273-.392.645-.7 1.078-.89.433-.191.908-.257 1.375-.19.418.008.82.162 1.141.436.32.274.54.651.622 1.07.101.482.13.977.087 1.469-.027.285-.134.343-.387.343a23.097 23.097 0 0 0-1.76 0c-.423.02-.672-.041-.642-.566a.646.646 0 0 0-.165-.527.623.623 0 0 0-.508-.194.694.694 0 0 0-.538.17.719.719 0 0 0-.246.516c-.03.21-.047.42-.05.632 0 .772-.03 1.551 0 2.323.02.446-.115.577-.545.55a18.847 18.847 0 0 0-1.814 0c-.269 0-.403-.045-.403-.371.013-1.796.013-3.591 0-5.385 0-.26.087-.343.336-.343.622 0 1.245.03 1.864 0 .414-.024.626.068.542.532a2.88 2.88 0 0 0 .013.425ZM49.786 45.805V43.11c0-.31.088-.388.38-.381.673.02 1.346 0 2.02 0 .268 0 .336.086.336.343v5.337c0 .302-.101.398-.39.391a39.494 39.494 0 0 0-2.02 0c-.282 0-.336-.106-.336-.37.017-.876.01-1.754.01-2.626ZM48.215 41.402c0-.258-.047-.381-.336-.374-.693.02-1.383.02-2.076 0-.313 0-.374.12-.363.401v1.809c-.922-.618-1.881-.687-2.854-.615a2.745 2.745 0 0 0-1.728.67 2.844 2.844 0 0 0-.933 1.63c-.336 1.688.222 3.12 1.524 3.665a3.878 3.878 0 0 0 3.967-.38c.07.6.07.603.582.603h1.813c.337 0 .407-.113.407-.429-.008-2.324-.01-4.651-.003-6.98Zm-4.131 5.683c-.885 0-1.346-.48-1.346-1.352 0-.872.501-1.322 1.386-1.301.885.02 1.346.501 1.346 1.332 0 .83-.498 1.328-1.386 1.321ZM38.667 46.834h-2.594c-.142 0-.199.124-.293.196-.673.501-2.019.295-2.375-.343-.148-.271-.185-.443.228-.432.811.02 1.626 0 2.436 0h2.436c.236 0 .394 0 .38-.344-.05-1.441-.508-2.632-2.197-3.089a8.137 8.137 0 0 0-4-.048 2.745 2.745 0 0 0-1.649.98 2.847 2.847 0 0 0-.629 1.838c-.06 1.575.623 2.602 2.053 3.089 1.144.388 2.315.323 3.485.237a4.384 4.384 0 0 0 1.958-.594 1.82 1.82 0 0 0 .563-.497c.152-.204.26-.438.319-.687.04-.113.128-.306-.121-.306ZM33.398 44.7c.28-.529.77-.594 1.346-.594.397.041.885.045 1.123.563.108.226.115.395-.228.384-.69-.02-1.38-.017-2.07 0-.326.004-.275-.161-.171-.353ZM74.606 42.575c.81-.03 1.62.058 2.406.261.932.292 1.345.817 1.345 1.805v1.795c0 .196 0 .433.27.419.336 0 .336.175.336.429v1.163c0 .282-.094.368-.36.36-.622-.016-1.245 0-1.867-.016a.87.87 0 0 1-.465-.103.892.892 0 0 1-.346-.333c-.158-.292-.26-.179-.458-.041a3.663 3.663 0 0 1-3.65.323c-.77-.317-1.107-1.01-1.04-1.885.057-.728.43-1.15 1.255-1.417.986-.323 2.019-.248 3.028-.36.24-.028.559.054.592-.344.034-.398-.296-.45-.555-.477-.541-.055-1.117-.165-1.483.443-.071.116-.22.079-.337.079h-1.972c-.31 0-.393-.103-.336-.405.057-.313.198-.604.406-.842.208-.237.476-.411.775-.504a6.42 6.42 0 0 1 2.456-.35Zm1.07 3.806c-.02-.144.044-.343-.185-.305a6.72 6.72 0 0 0-1.706.377.407.407 0 0 0-.288.321.423.423 0 0 0 .15.407c.387.343.865.257 1.319.11a.96.96 0 0 0 .501-.336.993.993 0 0 0 .209-.574ZM70.505 48.8h-2.88c-.23 0-.337-.13-.451-.29a24.941 24.941 0 0 0-1.706-2.197v2.031c0 .32-.05.481-.417.464-.64-.031-1.279-.02-1.918 0-.303 0-.424-.072-.42-.409.013-2.322.013-4.647 0-6.973 0-.285.057-.409.366-.399.673.021 1.346.021 2.019 0 .31 0 .37.11.367.395v3.58c.545-.71 1.01-1.29 1.443-1.888a.83.83 0 0 1 .333-.312.81.81 0 0 1 .444-.086c.811.03 1.622 0 2.54 0-.645.796-1.214 1.555-1.847 2.255-.336.364-.306.604-.023.96.71.903 1.383 1.844 2.15 2.87ZM52.067 41.017h-1.796a.496.496 0 0 0-.491.501v.168c0 .277.22.501.49.501h1.797a.496.496 0 0 0 .492-.5v-.169a.496.496 0 0 0-.492-.5ZM14.897 43.804c.952-.913 1.793-1.716 2.63-2.536a.71.71 0 0 1 .529-.268h3.132c-.777.762-1.497 1.435-2.203 2.114-.414.398-1.138.9-1.104 1.356 0 .144.61.707.986 1.129.777.872 1.595 1.716 2.389 2.567.19.16.335.37.42.608h-3.364c-.27 0-.394-.268-.552-.443-.925-1.013-1.844-2.032-2.857-3.15v3.105c0 .388-.09.529-.487.508a22.16 22.16 0 0 0-1.969 0c-.312 0-.447-.062-.447-.436.017-2.323 0-4.65 0-6.974 0-.305.088-.384.38-.384.71 0 1.417.024 2.127 0 .336 0 .407.106.396.422-.02.752-.006 1.5-.006 2.382Z"/></g><defs><clipPath id="a"><path fill="#fff" d="M12 41h67v8H12z"/></clipPath></defs></svg>