<svg xmlns="http://www.w3.org/2000/svg" width="90" height="90" fill="none"><circle cx="45" cy="45" r="45" fill="#047EEF"/><path fill="#fff" d="M17.383 45.283v5.264c0 .578-.041 1.136-.123 1.715-.142.956-.956 1.635-1.952 1.674-1.079.04-1.933-.518-2.177-1.475a3.742 3.742 0 0 1-.122-.957c0-4.805-.02-9.61 0-14.416 0-1.535.834-2.453 2.156-2.453 1.14 0 1.973.698 2.136 1.815.224 1.695.061 3.39.102 5.084v.598c.407-.18.59-.498.814-.737a1208.23 1208.23 0 0 1 4.698-5.184 9.52 9.52 0 0 1 1.017-.997c.916-.758 1.974-.778 2.787-.1.814.678.977 1.794.387 2.771-.224.4-.55.718-.875 1.037-1.424 1.416-2.828 2.852-4.272 4.247-.346.34-.346.539 0 .878 1.933 1.974 3.825 3.987 5.737 5.981.488.519.874 1.077.895 1.835.02 1.675-1.506 2.632-3.052 1.874-.407-.2-.752-.498-1.057-.837a2419.973 2419.973 0 0 0-6.428-6.92c-.163-.199-.346-.358-.671-.697Zm38.323-1.556c1.16-1.076 2.36-2.173 3.56-3.27.325-.299.65-.638 1.017-.897.956-.698 1.973-.598 2.725.22.733.797.733 1.874-.06 2.691a66.979 66.979 0 0 1-2.726 2.612c-.367.34-.367.539-.062.898 1.079 1.256 2.116 2.552 3.154 3.848.305.379.59.758.813 1.176.448.838.265 1.775-.447 2.373-.773.658-1.71.718-2.523.18-.345-.22-.61-.519-.854-.838-1.465-1.874-2.95-3.728-4.577-5.762v3.45c0 .637.04 1.295-.122 1.933-.224.937-1.078 1.615-2.034 1.595a2.03 2.03 0 0 1-1.973-1.655 6.568 6.568 0 0 1-.122-1.256V35.931c0-.378.04-.737.101-1.116.163-1.077.956-1.775 2.014-1.775 1.017 0 1.81.658 2.014 1.675.081.419.122.837.122 1.256-.02 2.592-.02 5.224-.02 7.757Zm-19.915 3.75a650.229 650.229 0 0 1 2.055-5.943c.142-.399.285-.797.468-1.176.529-1.077 1.566-1.456 2.664-1.057 1.038.379 1.587 1.376 1.302 2.453-.345 1.336-.956 2.552-1.464 3.828a802.894 802.894 0 0 1-2.543 6.24c-.447 1.078-1.017 2.075-2.42 2.054-1.363-.02-2.075-.877-2.523-2.033-.793-1.974-1.607-3.928-2.38-5.882-.529-1.316-1.098-2.612-1.566-3.968-.488-1.416.224-2.532 1.648-2.812 1.037-.199 1.912.32 2.36 1.456.447 1.156.833 2.353 1.24 3.53.387 1.036.753 2.093 1.16 3.31Z"/><path fill="#F39301" d="M44.437 46.579c0-1.635-.02-3.29.02-4.925.02-.878.183-1.715 1.119-2.213 1.16-.599 2.542-.08 2.909 1.156.101.359.203.718.203 1.097 0 3.23 0 6.48-.02 9.71 0 .857-.224 1.675-1.058 2.153-1.485.838-3.072-.12-3.153-1.914-.04-.837-.02-1.694-.02-2.532V46.58Z"/><path fill="#F39303" d="M49.013 35.413c0 1.376-.996 2.313-2.4 2.393-1.505.08-2.481-1.336-2.481-2.373 0-1.276 1.139-2.433 2.46-2.433 1.364-.02 2.401 1.037 2.421 2.413Z"/><path fill="#fff" d="M78.997 41.255c0-.857-.346-1.555-1.22-1.894-.814-.32-1.587-.22-2.279.359a1.6 1.6 0 0 0-.57 1.176v6.58s0 2.532-2.4 2.532-2.4-2.532-2.4-2.532v-6.58a1.6 1.6 0 0 0-.57-1.176c-.671-.578-1.464-.678-2.278-.36-.854.34-1.2 1.038-1.22 1.895-.02 2.532-.041 5.085 0 7.617.02 1.176.488 2.213 1.362 3.07 1.445 1.436 3.194 2.034 5.086 2.014 1.892.02 3.62-.578 5.085-2.014.875-.857 1.343-1.894 1.363-3.07.061-2.532.04-5.065.04-7.617Z"/></svg>