<svg width="90" height="90" viewBox="0 0 90 90" fill="none" xmlns="http://www.w3.org/2000/svg">
<g clip-path="url(#clip0_3117_70)">
<circle cx="45" cy="45" r="45" fill="#F5F5F5"/>
<path d="M42.1186 40.0246C40.9328 40.2983 39.8383 41.1648 38.5842 42.1909L36.988 44.0151L39.8383 47.7774L42.4606 49.4876L45.5389 53.364L48.9592 54.7321L50.8974 54.1621L51.6955 49.4876L51.9235 45.2692L48.8452 41.2788C48.1612 40.8227 45.8809 39.6826 44.8548 39.6826C42.6856 39.6826 43.6007 39.6826 42.1186 40.0246Z" fill="#3B3A39"/>
<path d="M30.1475 68.4134C32.4619 69.6644 35.0499 71.7197 39.6105 72.5178C41.0926 72.5178 44.5813 72.6318 46.6791 72.6318C49.3013 72.6318 52.9645 72.1471 53.8618 71.9477C54.8879 71.7197 57.1681 71.2922 59.2203 69.6675C61.9566 67.5013 61.8422 62.9154 60.8166 58.6084C59.6764 53.8199 55.1159 47.0932 53.9758 45.9531C52.8357 44.813 50.3276 41.9627 47.9333 40.7086C45.5391 39.4545 45.3112 40.1385 45.4251 40.7086C45.539 41.2787 47.9333 41.9627 49.4154 44.243C50.5268 45.953 50.0559 49.6515 49.6435 51.1977C49.1873 52.9078 47.9399 53.6082 46.6792 52.9078C44.6269 51.7677 41.7767 46.5232 39.6105 43.9009C37.4443 41.2787 33.9099 41.7347 31.8577 42.7608C29.2354 44.072 26.157 48.2334 25.359 54.048C24.561 59.8625 25.929 66.1332 30.1475 68.4134Z" fill="#3B3A39"/>
<path d="M37.1022 65.2211C35.0495 64.6547 32.894 65.0718 31.4016 65.2211C30.261 65.3352 29.4279 64.4178 28.5513 63.0549C27.5247 61.4588 25.3585 58.3386 26.2706 53.022C26.8573 49.6017 28.2088 46.5233 30.375 44.9272C32.8165 43.1282 35.6195 43.9011 37.1022 44.471C38.9584 45.1846 40.294 46.1813 42.0046 48.3474C42.4463 48.9067 44.7789 52.8852 46.2231 53.82C48.1608 55.0742 49.6439 54.2759 50.2135 53.82C50.783 53.364 51.3536 52.1098 51.4676 48.8035C51.5816 45.4972 52.1512 44.0151 53.0633 45.0412C54.178 46.2953 57.09 52.1341 58.1938 55.5303C59.6759 60.0907 57.8522 66.2472 57.2822 67.1593C56.7121 68.0714 55.116 67.5014 52.4937 67.1593C49.8714 66.8173 48.0472 68.7555 45.425 69.4396C42.8027 70.1236 40.408 66.1333 37.1022 65.2211Z" fill="#E3000F"/>
<circle cx="1.59616" cy="1.59616" r="1.59616" transform="matrix(-1 0 0 1 50.6772 35.2361)" fill="#3B3A39"/>
<path d="M48.519 37.7949L46.907 41.3423" stroke="#3B3A39" stroke-width="1.14011"/>
<ellipse cx="46.4052" cy="27.7853" rx="2.00852" ry="3.94855" transform="rotate(-32.8902 46.4052 27.7853)" fill="#3B3A39"/>
<ellipse cx="41.4099" cy="21.0729" rx="1.60153" ry="3.84526" transform="rotate(45.0348 41.4099 21.0729)" fill="#3B3A39"/>
<ellipse cx="44.7779" cy="12.2603" rx="1.87567" ry="3.84526" transform="rotate(-12.4355 44.7779 12.2603)" fill="#3B3A39"/>
<ellipse cx="45.4029" cy="12.1589" rx="1.87567" ry="3.84526" transform="rotate(-12.4355 45.4029 12.1589)" fill="#FFB93A"/>
<ellipse cx="41.1194" cy="20.7545" rx="1.60153" ry="3.84526" transform="rotate(45.0348 41.1194 20.7545)" fill="#FFB93A"/>
<ellipse cx="46.9824" cy="27.462" rx="2.00852" ry="3.94855" transform="rotate(-32.8902 46.9824 27.462)" fill="#FFB93A"/>
<ellipse cx="46.5051" cy="45.8682" rx="2.05544" ry="3.506" transform="rotate(33.5122 46.5051 45.8682)" fill="#FFB93A"/>
<circle cx="1.59616" cy="1.59616" r="1.59616" transform="matrix(-1 0 0 1 50.449 35.2361)" fill="#FFB93A"/>
<path d="M41.7765 50.2856C43.0306 52.1668 43.7146 57.9244 43.4866 58.0384C43.2586 58.2664 42.9166 56.5563 42.6885 55.4161L42.6885 55.4161C42.4377 54.162 42.0985 52.874 40.9784 50.9697C40.433 50.0426 39.4962 49.1455 38.9262 48.6895C38.3561 48.2334 36.4179 47.2073 34.5937 46.9793C32.7695 46.7513 32.3135 46.7513 32.4275 46.2952C32.515 45.9455 33.6816 45.2691 35.5058 45.4971C38.1281 45.8249 40.4083 48.2334 41.7765 50.2856Z" fill="#3B3A39"/>
<path d="M51.9233 51.0838C51.1252 52.5659 50.2128 54.2761 49.8707 54.2761L50.7829 44.8132C50.8953 44.1764 43.2537 41.0286 42.8168 41.2663C42.7949 41.2918 42.7899 41.2976 42.8024 41.2788C42.8056 41.2739 42.8104 41.2698 42.8168 41.2663C43.1446 40.8839 47.25 36.0591 52.4932 42.875C54.7587 45.82 52.5567 49.9079 51.9353 51.0615L51.9233 51.0838Z" fill="#3B3A39"/>
<path d="M52.9495 52.1098C52.5107 54.0114 51.087 55.3091 50.4264 55.9606C50.3997 55.6852 50.7552 55.1879 50.4264 55.1881C50.3273 55.1881 51.3533 54.7321 52.7215 51.4258C52.9013 50.9914 53.2915 50.6277 52.9495 52.1098Z" fill="#3B3A39"/>
<path d="M49.1866 43.217C48.485 42.3049 45.9943 40.2527 44.8541 40.2527C44.0561 40.3667 43.7141 40.5263 46.1083 41.9629C46.5644 42.2365 47.8817 43.217 48.3885 44.1291C48.9586 45.1552 49.0726 46.4093 49.0726 47.0934C49.0726 47.7774 49.0411 49.3773 48.9585 50.2857C48.8394 51.5969 48.6165 53.022 48.6165 53.364C48.6165 53.6376 49.2626 53.63 49.5286 53.592C49.6426 53.136 49.8517 52.2239 49.9847 51.4258C50.1032 50.7145 50.3267 48.6895 50.3267 47.2074V47.207C50.3267 45.7251 50.3267 44.699 49.1866 43.217Z" fill="white"/>
<path d="M45.8805 49.1457C46.3366 49.9438 47.3247 52.148 47.7047 53.2501C47.4767 53.5541 47.0891 54.3674 46.9067 54.2762C46.6786 54.1622 46.5646 53.8202 45.8805 52.566C45.6076 52.0656 44.37 49.9437 43.9424 49.3737C43.4294 48.6896 42.5742 47.5848 41.7761 46.7514C41.4918 46.4546 40.5503 45.2796 38.8118 44.0152C37.5578 43.1031 35.639 42.546 35.2775 42.305C34.9355 42.077 34.2514 42.077 34.3655 42.077C34.4795 42.077 35.3972 41.7099 36.9877 42.077C38.4699 42.419 39.382 42.875 39.952 43.2171C41.2062 43.9696 41.6622 44.2938 42.5743 45.1553C44.6265 47.0935 45.4387 48.3726 45.8805 49.1457Z" fill="white"/>
<circle cx="32.9973" cy="38.4284" r="1.59616" fill="#3B3A39"/>
<path d="M33.5593 39.391L35.1714 42.9383" stroke="#3B3A39" stroke-width="1.14011"/>
<circle cx="33.2253" cy="38.4284" r="1.59616" fill="#FFB93A"/>
<path d="M53.1028 62.7178C52.2092 62.1631 51.2857 60.1751 50.7153 58.9665C50.4435 58.2672 52.3406 60.2406 53.2895 61.3896C54.2383 62.5386 53.5831 63.016 53.1028 62.7178Z" fill="#3B3A39"/>
<path d="M46.8942 63.3174C46.7797 62.2718 47.7749 60.3188 48.3745 59.1244C48.7572 58.4791 48.374 61.1896 48.0548 62.6451C47.7356 64.1007 46.9557 63.8793 46.8942 63.3174Z" fill="#3B3A39"/>
<path d="M50.2075 64.5554C49.6235 63.4537 49.632 60.8848 49.629 59.3176C49.6809 58.4461 50.5764 61.5895 50.9543 63.3255C51.3322 65.0615 50.5214 65.1475 50.2075 64.5554Z" fill="#3B3A39"/>
<ellipse cx="45.3105" cy="72.974" rx="25.3105" ry="1.0261" fill="#3B3A39"/>
<ellipse cx="42.8816" cy="39.1373" rx="1.81405" ry="4.9213" transform="rotate(6.50178 42.8816 39.1373)" fill="#3B3A39"/>
<ellipse cx="43.3377" cy="39.1911" rx="1.81405" ry="4.9213" transform="rotate(7.21151 43.3377 39.1911)" fill="#FFB93A"/>
<circle cx="48.1608" cy="55.6442" r="2.62226" fill="#FFB93A"/>
<path d="M48.5837 57.5912C49.1495 57.4342 49.6381 57.1245 50.0248 56.7138C49.8101 57.0544 49.5044 57.2883 49.1808 57.4307C48.9823 57.518 48.7777 57.5704 48.5837 57.5912Z" stroke="#3B3A39" stroke-width="0.456046" stroke-linecap="round"/>
</g>
<defs>
<clipPath id="clip0_3117_70">
<rect width="90" height="90" fill="white"/>
</clipPath>
</defs>
</svg>
