<svg width="90" height="90" viewBox="0 0 90 90" fill="none" xmlns="http://www.w3.org/2000/svg">
<g clip-path="url(#clip0_3165_133)">
<circle cx="45" cy="45" r="45" fill="#F5F5F5"/>
<circle cx="45" cy="45" r="27" fill="#106836"/>
<path d="M47.2713 43.8022L38.5703 47.4657C38.4491 47.5168 38.3106 47.5062 38.1986 47.4372L25.8755 39.8538C25.5807 39.6724 25.6319 39.2295 25.9602 39.12L26.6601 38.8867L34.6473 36.3907C34.7521 36.358 34.8655 36.3689 34.9621 36.4209L47.3063 43.0677C47.6078 43.2301 47.5868 43.6693 47.2713 43.8022Z" fill="white" stroke="white" stroke-width="1.01887"/>
<path d="M64.5736 37.1503L57.4032 39.8392C57.2909 39.8813 57.1657 39.8718 57.061 39.8132L45.2761 33.2136C44.9703 33.0423 45.0091 32.5904 45.3396 32.4737L52.9726 29.7797C53.0855 29.7399 53.2102 29.7517 53.3136 29.812L64.6359 36.4166C64.9326 36.5897 64.8952 37.0297 64.5736 37.1503Z" fill="white" stroke="white" stroke-width="1.01887"/>
<path d="M25.6411 42.4528L38.1997 49.9879C38.3111 50.0548 38.4477 50.0645 38.5675 50.014L48.0562 46.0188" stroke="white" stroke-width="1.63019" stroke-linecap="round"/>
<path d="M25.6411 45.5094L38.1997 53.0445C38.3111 53.1114 38.4477 53.1211 38.5675 53.0707L48.0562 49.0754" stroke="white" stroke-width="1.63019" stroke-linecap="round"/>
<path d="M25.6411 48.566L38.1997 56.1011C38.3111 56.168 38.4477 56.1777 38.5675 56.1273L48.0562 52.132" stroke="white" stroke-width="1.63019" stroke-linecap="round"/>
<path d="M25.6411 51.6226L38.1997 59.1577C38.3111 59.2246 38.4477 59.2343 38.5675 59.1838L48.0562 55.1886" stroke="white" stroke-width="1.63019" stroke-linecap="round"/>
<path d="M58.1041 42.1309L64.4989 39.7181" stroke="white" stroke-width="1.63019" stroke-linecap="round"/>
<path d="M58.1041 45.4932L64.4989 43.0804" stroke="white" stroke-width="1.63019" stroke-linecap="round"/>
<path d="M58.1041 48.5498L64.4989 46.1371" stroke="white" stroke-width="1.63019" stroke-linecap="round"/>
<path d="M58.1041 51.6064L64.4989 49.1937" stroke="white" stroke-width="1.63019" stroke-linecap="round"/>
<path d="M42.3264 33.8303L38.0369 35.1172C37.7802 35.1942 37.7398 35.5408 37.972 35.6747L50.4508 42.874C50.5454 42.9286 50.6037 43.0295 50.6037 43.1388V54.6941C50.6037 54.9213 50.8428 55.0691 51.046 54.9675L55.5291 52.726C55.6326 52.6742 55.698 52.5683 55.698 52.4526V41.6105C55.698 41.5012 55.6397 41.4003 55.5451 41.3457L42.567 33.8583C42.4941 33.8163 42.407 33.8061 42.3264 33.8303Z" fill="white" stroke="white" stroke-width="1.01887" stroke-linecap="square"/>
</g>
<defs>
<clipPath id="clip0_3165_133">
<rect width="90" height="90" fill="white"/>
</clipPath>
</defs>
</svg>
