<svg width="90" height="90" fill="none" xmlns="http://www.w3.org/2000/svg"><circle cx="45" cy="45" r="45" fill="#F1FFC7"/><g clip-path="url(#a)"><path d="M11 44.164a34.401 34.401 0 0 1 32.16-34.102c21.224-1.227 35.71 15.222 36.767 32.053a34.589 34.589 0 0 1-21.04 34.158A34.576 34.576 0 0 1 44.99 79c-18.564-.26-34.215-15.504-33.99-34.834Zm4.444.37a30.036 30.036 0 0 0 18.429 27.654 30.026 30.026 0 0 0 40.98-21.483A30.038 30.038 0 0 0 62.6 19.816a30.027 30.027 0 0 0-47.15 24.705l-.005.013Z" fill="#94C022"/><path d="M71.114 44.282a25.54 25.54 0 0 0-7.48-18.125L45.498 44.25l25.616.031Z" fill="#94C021"/><path d="M27.384 26.134a25.553 25.553 0 0 0-7.502 18.117h25.62L27.384 26.134Z" fill="#618016"/><path d="M45.489 18.631a25.5 25.5 0 0 0-18.11 7.512l18.119 18.108-.01-25.62Z" fill="#678818"/><path d="M27.384 62.367a25.544 25.544 0 0 1-7.502-18.116h25.62L27.384 62.367Z" fill="#678818"/><path d="M45.489 69.874a25.536 25.536 0 0 1-18.11-7.511L45.498 44.25l-.01 25.623Z" fill="#739518"/><path d="M63.59 62.371a25.536 25.536 0 0 1-18.12 7.499V44.246l18.12 18.125Z" fill="#7FA41B"/><path d="M71.114 44.25a25.536 25.536 0 0 1-7.502 18.117L45.498 44.251h25.62-.004Z" fill="#8BB21E"/></g><defs><clipPath id="a"><path fill="#fff" transform="translate(11 10)" d="M0 0h69v69H0z"/></clipPath></defs></svg>