<svg width="90" height="90" fill="none" xmlns="http://www.w3.org/2000/svg"><circle cx="45" cy="45" r="45" fill="#F6F6F7"/><path fill-rule="evenodd" clip-rule="evenodd" d="M43.234 70.937c-1.273 0-2.643-.098-3.916-.295-4.013-.59-9.593-2.358-13.999-7.27-1.174-1.376-1.664-3.537-.195-5.01.489-.492 1.174-.787 1.957-.787.98 0 1.958.393 2.937 1.18.686.589 1.469 1.08 2.252 1.375h.098c1.272.688 2.643.982 4.111.982 5.09 0 9.202-4.126 9.202-9.235 0-5.109-4.111-9.235-9.202-9.235-1.37 0-2.643.295-3.915.884-.098.099-.196.099-.294.099l-.196.098a8.443 8.443 0 0 0-1.566.982c-.588.492-1.077.983-1.567 1.572-.88 1.08-1.762 1.572-2.74 1.572-.686 0-1.273-.196-1.86-.688-1.469-1.277-1.273-3.635-.294-5.207 2.251-3.438 6.754-5.6 11.356-5.6.587 0 1.076 0 1.664.099.391 0 .685.098.979.098 1.468 0 3.328-.393 3.328-3.635V22.895c0-2.85 1.468-4.421 3.916-4.421 2.35-.099 3.818 1.572 3.818 4.224v16.604-9.628c0-2.85 1.566-4.716 3.916-4.716 2.251 0 3.915 1.768 3.915 4.42V43.92v-6.582c0-2.653 1.665-4.618 3.818-4.618 2.35 0 4.112 1.867 4.112 4.52v16.014c0 9.53-9.888 17.684-21.635 17.684Z" fill="#fff"/><path fill-rule="evenodd" clip-rule="evenodd" d="m64.967 46.768 6.363 4.127c1.664 1.08 1.468 3.537-.294 4.42l-7.048 3.145c.098 0 1.468-4.323.979-11.692Z" fill="#FFE428"/><path d="M36.577 61.112c5.028 0 9.104-4.09 9.104-9.137 0-5.046-4.076-9.136-9.104-9.136s-9.104 4.09-9.104 9.136c0 5.047 4.076 9.137 9.104 9.137Z" fill="#FFE428"/><path fill-rule="evenodd" clip-rule="evenodd" d="M36.773 44.214c-1.468-.098-2.839.197-4.112.786.686-.098 1.371-.197 2.056-.098 4.797.294 8.42 4.224 8.223 8.744-.097 1.866-.88 3.635-2.153 4.912 2.153-1.277 3.622-3.439 3.72-5.993.196-4.225-3.23-7.958-7.734-8.351Z" fill="#FFFDEC"/><path fill-rule="evenodd" clip-rule="evenodd" d="M40.885 58.656c-4.993.59-9.496-2.75-10.083-7.466-.294-2.555.587-4.913 2.251-6.681-3.035 1.572-4.993 4.814-4.601 8.252.587 4.52 4.895 7.762 9.79 7.172 1.762-.196 3.328-.884 4.503-1.866a5.89 5.89 0 0 1-1.86.59Z" fill="#F7A533"/><path fill-rule="evenodd" clip-rule="evenodd" d="m72.21 49.617-5.873-3.733V37.14c0-3.537-2.35-5.993-5.58-5.993-.88 0-1.664.197-2.35.59v-2.358c0-3.439-2.25-5.895-5.383-5.895-.882 0-1.763.197-2.448.59v-1.277c0-3.44-2.154-5.797-5.188-5.797-3.329 0-5.384 2.26-5.384 5.895v9.923c0 2.063-.686 2.16-1.762 2.16h-.784c-.587-.097-1.174-.097-1.762-.097-5.188 0-9.985 2.358-12.53 6.287-1.762 2.457-1.469 5.502.49 7.074.782.688 1.663.983 2.642.983-.195.884-.391 1.768-.391 2.652 0 1.474.293 2.85.783 4.127-.98.098-1.762.49-2.448 1.178-1.86 1.867-1.762 4.814.196 6.976 4.7 5.305 10.67 7.074 14.782 7.761 1.37.197 2.742.295 4.112.295 9.692 0 18.208-5.305 21.537-12.575l6.853-3.046c1.37-.59 2.153-1.867 2.251-3.34.196-1.474-.49-2.751-1.762-3.636Zm-39.06-4.42s.099 0 .099-.099c.979-.393 2.056-.688 3.23-.688 2.448 0 4.7 1.081 6.07 2.948 1.958 2.554 2.056 5.796.587 8.449 0 .098-.098.098-.098.197-.098.098-.195.196-.195.393-1.371 1.964-3.623 3.242-6.266 3.242-4.21 0-7.635-3.439-7.635-7.664 0-2.849 1.566-5.403 4.013-6.68 0-.099.098-.099.196-.099Zm10.28 24.168c-1.175 0-2.447-.098-3.72-.295-3.72-.59-9.006-2.161-13.02-6.779-.783-.884-1.077-2.161-.294-2.947.196-.197.49-.295.881-.295.588 0 1.273.295 1.958.884.783.688 1.664 1.18 2.545 1.572 1.469.688 3.035 1.18 4.797 1.18 5.874 0 10.573-4.717 10.573-10.611 0-5.895-4.7-10.61-10.573-10.61-1.566 0-3.132.392-4.503.982-.196.098-.294.098-.391.196 0 0-.098 0-.098.098-.588.295-1.175.688-1.762 1.081-.784.491-1.273 1.08-1.86 1.67-.49.59-1.077.884-1.567.884-.294 0-.587-.098-.88-.294-.882-.688-.686-2.162 0-3.144 1.957-2.947 5.97-4.912 10.082-4.912.49 0 .98 0 1.469.098.391 0 .783.098 1.077.098 3.132 0 4.796-1.867 4.796-5.109V23.19c0-2.652 1.37-2.947 2.448-2.947 1.664 0 2.251 1.474 2.251 2.85v16.504c0 .787.686 1.474 1.469 1.474s1.468-.688 1.468-1.474v-9.628c0-.785.196-3.242 2.448-3.242 1.762 0 2.349 1.572 2.349 2.85v14.441c0 .786.685 1.474 1.469 1.474.783 0 1.468-.688 1.468-1.474v-6.582c0-1.768.979-3.144 2.35-3.144 1.86 0 2.545 1.67 2.545 3.046v15.916c.195 8.645-9.007 16.112-19.775 16.112Zm27.606-16.21c0 .196-.098.589-.587.884l-4.405 1.965a13.39 13.39 0 0 0 .293-2.85v-3.831l4.21 2.849c.49.295.49.786.49.982Z" fill="#28282A"/><path d="M57.037 52.761a2.354 2.354 0 0 0 2.35-2.358 2.354 2.354 0 0 0-2.35-2.357 2.354 2.354 0 0 0-2.35 2.358 2.354 2.354 0 0 0 2.35 2.357Z" fill="#010202"/></svg>