<svg width="90" height="90" viewBox="0 0 90 90" fill="none" xmlns="http://www.w3.org/2000/svg">
<g clip-path="url(#clip0_2383_964)">
<circle cx="45" cy="45" r="45" fill="#F5F5F5"/>
<path fill-rule="evenodd" clip-rule="evenodd" d="M44.8202 66.9762C57.0566 66.9762 66.9762 57.0566 66.9762 44.8202C66.9762 32.5839 57.0566 22.6644 44.8202 22.6644C32.5839 22.6644 22.6644 32.5839 22.6644 44.8202C22.6644 57.0566 32.5839 66.9762 44.8202 66.9762ZM44.8202 71.6406C59.6327 71.6406 71.6406 59.6327 71.6406 44.8202C71.6406 30.0079 59.6327 18 44.8202 18C30.0079 18 18 30.0079 18 44.8202C18 59.6327 30.0079 71.6406 44.8202 71.6406Z" fill="url(#paint0_linear_2383_964)"/>
<path fill-rule="evenodd" clip-rule="evenodd" d="M44.4341 67.3356C53.3525 67.3356 60.5821 60.1059 60.5821 51.1875C60.5821 42.2694 53.3525 35.0397 44.4341 35.0397C35.5159 35.0397 28.2862 42.2694 28.2862 51.1875C28.2862 60.1059 35.5159 67.3356 44.4341 67.3356ZM44.4341 72C55.9285 72 65.2465 62.682 65.2465 51.1875C65.2465 39.6933 55.9285 30.3753 44.4341 30.3753C32.9398 30.3753 23.6218 39.6933 23.6218 51.1875C23.6218 62.682 32.9398 72 44.4341 72Z" fill="url(#paint1_linear_2383_964)"/>
<path fill-rule="evenodd" clip-rule="evenodd" d="M40.1851 64.7154C45.9967 64.7154 50.708 60.0041 50.708 54.1923C50.708 48.3807 45.9967 43.6694 40.1851 43.6694C34.3734 43.6694 29.6621 48.3807 29.6621 54.1923C29.6621 60.0041 34.3734 64.7154 40.1851 64.7154ZM40.1851 69.3798C48.5729 69.3798 55.3724 62.5801 55.3724 54.1923C55.3724 45.8047 48.5729 39.0049 40.1851 39.0049C31.7973 39.0049 24.9977 45.8047 24.9977 54.1923C24.9977 62.5801 31.7973 69.3798 40.1851 69.3798Z" fill="url(#paint2_linear_2383_964)"/>
</g>
<defs>
<linearGradient id="paint0_linear_2383_964" x1="15.996" y1="23.306" x2="81.8223" y2="18.2664" gradientUnits="userSpaceOnUse">
<stop stop-color="#468EFD"/>
<stop offset="0.310401" stop-color="#835AFF"/>
<stop offset="0.871042" stop-color="#FE64D8"/>
</linearGradient>
<linearGradient id="paint1_linear_2383_964" x1="22.0668" y1="34.4927" x2="73.1474" y2="30.5821" gradientUnits="userSpaceOnUse">
<stop stop-color="#468EFD"/>
<stop offset="0.310401" stop-color="#835AFF"/>
<stop offset="0.871042" stop-color="#FE64D8"/>
</linearGradient>
<linearGradient id="paint2_linear_2383_964" x1="23.8629" y1="42.0096" x2="61.138" y2="39.1558" gradientUnits="userSpaceOnUse">
<stop stop-color="#468EFD"/>
<stop offset="0.310401" stop-color="#835AFF"/>
<stop offset="0.871042" stop-color="#FE64D8"/>
</linearGradient>
<clipPath id="clip0_2383_964">
<rect width="90" height="90" fill="white"/>
</clipPath>
</defs>
</svg>
