<svg width="90" height="90" fill="none" xmlns="http://www.w3.org/2000/svg"><circle cx="45" cy="45" r="45" fill="#F2F5F7"/><path d="M28.835 50.408c-.902.318-1.738.617-2.58.903-.387.1-.727.336-.955.665a1.668 1.668 0 0 0-.291 1.125c.025 4.285.025 8.57 0 12.858 0 .934.42 1.446 1.243 1.802a4051.348 4051.348 0 0 1 16.157 7.028 2.067 2.067 0 0 0 1.821 0 7220.01 7220.01 0 0 1 23.494-10.436c.906-.4 1.292-.982 1.275-1.945-.019-3.652-.038-7.311 0-10.957 0-1.272-.701-1.742-1.73-2.114-4.583-1.637-9.15-3.306-13.884-5.022V40.71c0-1.856-.68-2.352-2.494-1.799-4.856 1.478-9.71 2.982-14.562 4.472-1.974.604-3.938 1.234-5.922 1.8-1.138.318-1.683.953-1.594 2.177.076.973.022 1.99.022 3.048Zm-.893 15.109c-.538-3.354-.277-6.532-.318-9.698-.03-2.454 1.473-3.414 3.743-2.429 2.382 1.033 4.783 2.04 7.13 3.134 1.135.531 2.395.855 3.44 1.79v8.067c0 .81 0 1.59.721 2.178a1.598 1.598 0 0 0 1.594-.162c.143-.192.251-.407.32-.636.44-3.15-.055-6.332.277-9.59 1.814-.954 3.826-1.478 5.704-2.295a3.682 3.682 0 0 1 3.039-.06c2.264.896 4.576 1.678 6.872 2.488 1.074.378 1.913.108 2.133-.696.248-.972-.32-1.478-1.164-1.78-1.544-.563-3.096-1.093-4.63-1.678-1.126-.43-2.337-.671-3.377-1.466.035-1.722-.175-3.445.172-5.429l12.513 4.574v10.255l-22.79 10.13-15.379-6.697Zm3.865-17.744c.127-.119.271-.218.427-.295a5278.907 5278.907 0 0 1 16.7-5.125c.484-.146 1.03-.317 1.693.144v10.381c-1.936 1.002-4.095 1.59-6.116 2.476a2.724 2.724 0 0 1-2.433-.098c-1.725-.82-3.508-1.516-5.22-2.346-1.712-.83-3.559-1.399-5.153-2.425-.076-.98-.198-1.863.099-2.712h.003Z" fill="#3581AB"/><path d="M33.873 37.382v2.489c0 .677.14 1.272.88 1.51s1.225-.026 1.7-.531c1.67-1.77 3.374-3.516 5.025-5.305a4.665 4.665 0 0 1 2.232-1.396c2.59-.743 5.16-1.557 7.74-2.342 1.81-.553 1.938-.71 1.941-2.521v-12.06c0-2.2-.564-2.597-2.723-1.936a23033.07 23033.07 0 0 0-19.865 6.075c-1.837.562-1.968.747-1.968 2.673v12.057c0 1.996.596 2.397 2.551 1.847.766-.21 1.483-.585 2.487-.56Zm16.38-19.155c.46.318.517.585.517.852v9.053c0 .915-.53 1.272-1.34 1.49-2.084.592-4.144 1.304-6.233 1.867a7.701 7.701 0 0 0-3.855 2.333c-.781.858-1.41 1.97-2.66 2.38-.455-2.281-.745-2.466-2.87-1.808-.727.297-1.53.36-2.295.178 0-3.496-.15-6.993.016-10.595l18.72-5.75Z" fill="#77C591"/><path d="M38.72 26.953c-.07.765.15 1.528.616 2.139 1.074 1.424 2.71 1.532 3.963.254 1.253-1.277 1.553-3.518.746-5.019-.905-1.688-2.723-1.974-4.097-.617a4.007 4.007 0 0 0-1.228 3.243Z" fill="#77C591"/></svg>