<svg xmlns="http://www.w3.org/2000/svg" width="90" height="90" fill="none"><circle cx="45" cy="45" r="45" fill="#154899"/><path fill="#FEFEFE" d="m18.637 45.033-1.802 1.888c-.598.63-1.262.63-1.87 0l-1.748-1.83c-.089.068-.048.153-.048.226v3.048a.89.89 0 0 1-.056.395.952.952 0 0 1-.224.34c-.1.097-.221.175-.355.227a1.127 1.127 0 0 1-.425.076 1.13 1.13 0 0 1-.43-.06 1.061 1.061 0 0 1-.368-.216.96.96 0 0 1-.24-.335.893.893 0 0 1-.07-.396V42.42a.928.928 0 0 1 .185-.588c.128-.173.312-.304.527-.374.214-.075.45-.084.67-.028.222.057.418.177.56.342.927.972 1.854 1.941 2.774 2.92.14.144.208.173.362 0 .92-.966 1.854-1.932 2.787-2.898.142-.172.34-.297.565-.356.225-.06.465-.05.684.027.219.077.404.218.529.4a.932.932 0 0 1 .161.612v5.883a.925.925 0 0 1-.06.398.987.987 0 0 1-.227.345c-.1.1-.222.179-.356.233a1.165 1.165 0 0 1-.858.008 1.093 1.093 0 0 1-.36-.228.992.992 0 0 1-.235-.34.926.926 0 0 1-.068-.398v-2.994l-.004-.35Z"/><path fill="#EC1C24" d="M41.453 45.244a3.63 3.63 0 0 1 .711-2.099 4.12 4.12 0 0 1 1.847-1.396c1.638-.682 3.2-.453 4.606.576.232.147.392.372.448.626a.937.937 0 0 1-.148.737 1.092 1.092 0 0 1-.663.437 1.174 1.174 0 0 1-.806-.108 1.87 1.87 0 0 1-.233-.16 2.263 2.263 0 0 0-1.105-.46 2.344 2.344 0 0 0-1.2.158 2.133 2.133 0 0 0-.922.725c-.226.317-.35.687-.355 1.067-.006.38.106.752.322 1.075.216.323.528.583.898.75.371.165.785.23 1.195.188.41-.042.798-.191 1.12-.43.133-.119.296-.208.474-.26.178-.05.367-.063.551-.035.198.031.382.116.529.243a.93.93 0 0 1 .295.47c.06.185.06.383 0 .567a.982.982 0 0 1-.342.472 4.546 4.546 0 0 1-2.27.953 4.702 4.702 0 0 1-2.466-.347 4.26 4.26 0 0 1-1.857-1.533 3.77 3.77 0 0 1-.64-2.219l.011.003Z"/><path fill="#FEFEFE" d="M30.585 43.385c.141-.002.281.024.411.074.13.05.248.125.345.219.417.387.841.764 1.252 1.154.126.123.195.12.318 0 .396-.38.807-.748 1.214-1.12.098-.099.217-.178.35-.233a1.161 1.161 0 0 1 1.21.198.998.998 0 0 1 .241.33.927.927 0 0 1-.01.78 1 1 0 0 1-.25.325c-.406.38-.816.758-1.237 1.133-.116.103-.12.166 0 .27.41.365.814.743 1.217 1.114.115.09.209.2.274.325a.935.935 0 0 1-.214 1.149 1.102 1.102 0 0 1-.377.222 1.174 1.174 0 0 1-.875-.04 1.077 1.077 0 0 1-.35-.256c-.396-.365-.8-.727-1.19-1.098-.123-.12-.188-.126-.318 0-.41.39-.838.767-1.258 1.148-.1.092-.22.166-.35.216a1.162 1.162 0 0 1-.827 0 1.09 1.09 0 0 1-.35-.215.992.992 0 0 1-.235-.321.926.926 0 0 1 0-.76.993.993 0 0 1 .233-.323c.414-.387.831-.774 1.258-1.151.127-.11.134-.173 0-.29-.434-.38-.861-.77-1.275-1.17a.924.924 0 0 1-.301-.512.876.876 0 0 1 .082-.576c.08-.184.22-.34.403-.446.181-.107.395-.157.61-.146Z"/><path fill="#EC1C24" d="M74.627 46.584v-.988c0-.15-.041-.21-.212-.242-.26-.03-.5-.147-.673-.328a.946.946 0 0 1-.269-.655c0-.241.096-.474.27-.655.172-.18.412-.297.672-.328.184-.031.212-.1.208-.245v-.774c0-.258.111-.505.308-.687.198-.183.466-.287.746-.288.283-.01.56.083.769.26a.957.957 0 0 1 .345.683v.774c0 .192.041.274.27.258.23-.015.561 0 .845 0a1.14 1.14 0 0 1 .774.283.964.964 0 0 1 .33.703.96.96 0 0 1-.309.712c-.2.19-.476.3-.764.303h-.96c-.138 0-.186.04-.182.17v1.708c0 .27.154.343.482.261a1.02 1.02 0 0 1 .654.008c.21.075.385.216.492.398a.79.79 0 0 1 .09.57.842.842 0 0 1-.326.493 2.243 2.243 0 0 1-1.067.435 2.318 2.318 0 0 1-1.156-.142 2.035 2.035 0 0 1-.983-.706 1.781 1.781 0 0 1-.358-1.1c-.017-.292.004-.585.004-.88ZM52.348 44.146c.192-.26.457-.47.766-.606a2.08 2.08 0 0 1 .995-.168 1.2 1.2 0 0 1 .448.108c.14.063.263.154.363.264.1.11.173.239.216.377a.953.953 0 0 1-.125.825c-.082.122-.19.227-.32.308a1.215 1.215 0 0 1-.89.154c-.861-.17-1.44.26-1.443 1.079v1.887a.942.942 0 0 1-.152.542 1.06 1.06 0 0 1-.445.383 1.173 1.173 0 0 1-1.164-.104.969.969 0 0 1-.307-.335.882.882 0 0 1-.11-.426v-4.112a.923.923 0 0 1 .244-.612c.156-.172.372-.29.61-.331.24-.048.488-.02.708.078.219.098.396.261.503.463.035.066.062.132.103.226ZM72.602 46.373v2.008a.9.9 0 0 1-.063.393.964.964 0 0 1-.23.337c-.1.096-.221.173-.356.224a1.14 1.14 0 0 1-.424.074 1.128 1.128 0 0 1-.429-.065 1.059 1.059 0 0 1-.362-.22.958.958 0 0 1-.234-.336.89.89 0 0 1-.066-.395V44.38a.904.904 0 0 1 .069-.393.969.969 0 0 1 .234-.336c.103-.095.225-.17.361-.22.135-.05.28-.074.427-.07.146 0 .29.027.425.08.134.053.255.131.355.23.1.097.178.213.228.34.05.126.07.26.062.394.003.651.003 1.309.003 1.97ZM37.295 47.893c-.342-.541-.223-.994.39-1.284.33-.164.7-.248 1.075-.244.375.003.743.095 1.069.267.127.047.24.121.33.217.09.095.155.209.189.332a.74.74 0 0 1 .004.374.78.78 0 0 1-.181.335.49.49 0 0 1-.128.25.556.556 0 0 1-.252.152c-.333.152-.7.23-1.072.23-.372 0-.739-.078-1.072-.23-.171-.094-.339-.188-.352-.4ZM70.43 41.944a.969.969 0 0 1 .34-.67 1.14 1.14 0 0 1 .747-.274c.278 0 .545.098.747.273a.969.969 0 0 1 .338.671c.001.13-.026.26-.08.38a.983.983 0 0 1-.232.322 1.08 1.08 0 0 1-.35.215c-.13.05-.27.075-.411.074a1.143 1.143 0 0 1-.422-.065 1.074 1.074 0 0 1-.359-.213.975.975 0 0 1-.238-.326.907.907 0 0 1-.08-.387Z"/><path fill="#FEFEFE" d="M37.295 47.893c.396.325.908.505 1.44.505.53 0 1.043-.18 1.439-.505.342.484.24.915-.29 1.205-.344.199-.74.304-1.146.304-.406 0-.803-.105-1.146-.304a.838.838 0 0 1-.306-.216.75.75 0 0 1-.169-.319.713.713 0 0 1 .003-.354.754.754 0 0 1 .175-.316Z"/><path fill="#EC1C24" d="M69.097 45.405v-2.97a.957.957 0 0 0-.298-.715 1.132 1.132 0 0 0-.76-.312 1.143 1.143 0 0 0-.778.274.967.967 0 0 0-.339.7c-.02.276-.02.554 0 .83.02.261-.061.296-.342.236a3.553 3.553 0 0 0-1.518-.011c-.5.105-.967.318-1.361.62a3.051 3.051 0 0 0-.911 1.117 2.801 2.801 0 0 0 .173 2.714c.258.408.616.755 1.046 1.012.43.258.92.418 1.43.47a3.543 3.543 0 0 0 1.507-.175c.12-.04.226-.116.373 0a1.1 1.1 0 0 0 1.197.107c.19-.09.348-.232.45-.406a.922.922 0 0 0 .124-.569c0-.978.007-1.95.007-2.922Zm-3.272 1.944c-.21 0-.417-.056-.593-.163a1.005 1.005 0 0 1-.394-.438.909.909 0 0 1-.064-.566c.04-.19.14-.365.287-.503.148-.138.336-.233.543-.273.206-.04.42-.022.615.05.196.073.364.197.483.357.118.16.183.348.186.542 0 .26-.111.511-.31.697-.2.186-.47.293-.753.297Z"/><path fill="#FEFEFE" d="M28.397 46.38v-2.032a.913.913 0 0 0-.14-.498 1.02 1.02 0 0 0-.397-.363 1.13 1.13 0 0 0-1.077.02.58.58 0 0 1-.554.03 3.54 3.54 0 0 0-1.554-.15 3.44 3.44 0 0 0-1.452.529c-.43.282-.78.655-1.02 1.088-.24.434-.361.914-.355 1.4.006.486.14.963.39 1.391.25.428.61.794 1.048 1.067.437.272.94.443 1.465.498a3.537 3.537 0 0 0 1.55-.184c.12-.04.215-.081.341 0a1.098 1.098 0 0 0 1.197.098c.184-.09.336-.226.436-.394.1-.168.143-.36.125-.55-.007-.648-.003-1.299-.003-1.95Zm-3.273.975c-.212 0-.42-.058-.597-.167a1.01 1.01 0 0 1-.395-.443.915.915 0 0 1-.06-.572.966.966 0 0 1 .294-.505c.15-.138.342-.232.55-.27.21-.038.425-.018.622.058.196.075.363.202.48.365.118.163.18.354.18.55a.963.963 0 0 1-.32.692c-.2.184-.47.289-.754.292Z"/><path fill="#EC1C24" d="M57.946 47.022h1.282c.455 0 .913.019 1.368 0 .25-.006.489-.09.68-.238a.993.993 0 0 0 .366-.577c.138-.53.061-1.089-.215-1.571a2.393 2.393 0 0 0-1.286-1.053c-2.051-.704-4.893.315-4.674 3.077.082 1.06.578 1.94 1.651 2.416a5.118 5.118 0 0 0 3.683.082.94.94 0 0 0 .336-.173.848.848 0 0 0 .228-.284.784.784 0 0 0 0-.692.856.856 0 0 0-.207-.29.945.945 0 0 0-.316-.19 1.008 1.008 0 0 0-.738.021 3.074 3.074 0 0 1-.903.189 1.748 1.748 0 0 1-.74-.104 1.625 1.625 0 0 1-.61-.4c-.049-.05-.127-.106-.08-.185.048-.079.11-.028.175-.028Zm-.236-1.205c.048-.151.134-.29.25-.406.117-.116.26-.205.421-.262a1.205 1.205 0 0 1 .984.086.436.436 0 0 1 .199.189.388.388 0 0 1-.105.488.433.433 0 0 1-.268.087h-1.335c-.204 0-.184-.05-.146-.182Z"/></svg>