<svg xmlns="http://www.w3.org/2000/svg" width="90" height="90" fill="none"><g clip-path="url(#a)"><path fill="#F5F5F5" d="M90 45C90 20.147 69.853 0 45 0S0 20.147 0 45s20.147 45 45 45 45-20.147 45-45Z"/><path fill="#fff" d="M72 44.466c0 2.362-.27 4.657-.742 6.816-.54 2.43-1.418 4.724-2.632 6.816-.068.203-.203.338-.27.473-1.417 2.429-3.104 4.589-5.13 6.41-1.416 1.283-3.036 2.43-4.79 3.442-4.184 2.362-8.773 3.51-13.835 3.51-5.061 0-9.65-1.148-13.902-3.51-1.754-.945-3.374-2.092-4.791-3.441a26.738 26.738 0 0 1-5.196-6.411c-.068-.135-.203-.27-.27-.473-1.215-2.16-2.092-4.454-2.7-6.883-.54-2.16-.742-4.454-.742-6.884 0-5.264 1.215-9.988 3.712-14.172 2.497-4.183 5.803-7.423 9.987-9.785C34.816 18.147 39.472 17 44.534 17c5.061 0 9.65 1.147 13.902 3.51 4.184 2.361 7.49 5.6 9.92 9.784C70.786 34.478 72 39.203 72 44.466Z"/><path fill="#EBEBFF" d="M71.19 51.282c-.54 2.43-1.417 4.724-2.632 6.816-.067.203-.202.338-.27.473-1.417 2.43-3.104 4.589-5.128 6.41-1.417 1.283-3.037 2.43-4.792 3.442-4.184 2.362-8.773 3.51-13.834 3.51-5.062 0-9.65-1.148-13.902-3.51-1.755-.945-3.374-2.092-4.791-3.441a26.73 26.73 0 0 1-5.197-6.411c-.067-.135-.202-.27-.27-.473-1.214-2.16-2.092-4.454-2.699-6.883.607-2.565 1.62-4.994 2.97-7.289 2.496-4.184 5.803-7.423 9.987-9.785s8.84-3.509 13.902-3.509c5.061 0 9.65 1.147 13.902 3.51 4.184 2.361 7.49 5.6 9.92 9.784 1.282 2.362 2.227 4.792 2.834 7.356Z"/><path fill="#B8B8FF" d="M68.56 58.166c-.067.202-.202.337-.27.472-1.416 2.43-3.104 4.589-5.128 6.411-1.417 1.282-3.037 2.43-4.792 3.442C54.186 70.853 49.597 72 44.536 72s-9.65-1.148-13.902-3.51c-1.754-.945-3.374-2.092-4.791-3.442a26.734 26.734 0 0 1-5.197-6.41c-.067-.136-.202-.27-.27-.473.068-.135.203-.27.27-.473 2.497-4.184 5.804-7.423 9.988-9.785 4.184-2.362 8.84-3.51 13.902-3.51 5.061 0 9.65 1.148 13.902 3.51 4.184 2.362 7.49 5.601 9.92 9.785.067.135.135.338.203.473Z"/><path fill="#7D7FDE" d="M63.16 65.049c-1.418 1.282-3.037 2.429-4.792 3.441C54.184 70.852 49.595 72 44.534 72s-9.65-1.148-13.902-3.51c-1.755-.945-3.374-2.092-4.791-3.441a24.432 24.432 0 0 1 4.79-3.375c4.185-2.362 8.842-3.509 13.903-3.509s9.65 1.147 13.901 3.51a26.11 26.11 0 0 1 4.724 3.374Z"/></g><defs><clipPath id="a"><path fill="#fff" d="M0 0h90v90H0z"/></clipPath></defs></svg>