<svg width="90" height="90" viewBox="0 0 90 90" fill="none" xmlns="http://www.w3.org/2000/svg">
<g clip-path="url(#clip0_3209_232)">
<circle cx="45" cy="45" r="45" fill="#F5F5F5"/>
<g clip-path="url(#clip1_3209_232)">
<rect width="46" height="46" transform="translate(22 22)" fill="#51AF5A"/>
<circle cx="44.7642" cy="24.0051" r="2.00513" fill="white"/>
<circle cx="41.8152" cy="26.4821" r="1.88718" fill="white"/>
<circle cx="41.8153" cy="31.908" r="1.65128" fill="white"/>
<circle cx="44.1745" cy="34.2668" r="1.65128" fill="white"/>
<circle cx="46.7692" cy="36.8616" r="1.65128" fill="white"/>
<circle cx="49.6003" cy="39.6923" r="1.65128" fill="white"/>
<circle cx="52.4303" cy="42.5232" r="1.65128" fill="white"/>
<circle cx="55.2609" cy="45.3539" r="1.65128" fill="white"/>
<circle cx="57.8561" cy="47.9486" r="1.65128" fill="white"/>
<circle cx="60.6872" cy="50.7797" r="1.65128" fill="white"/>
<circle cx="39.4565" cy="29.313" r="1.65128" fill="white"/>
<circle cx="38.985" cy="34.7385" r="1.41538" fill="white"/>
<circle cx="36.3893" cy="31.9081" r="1.41538" fill="white"/>
<circle cx="33.5586" cy="34.7384" r="1.17949" fill="white"/>
<circle cx="30.9636" cy="37.3336" r="0.943589" fill="white"/>
<circle cx="28.0156" cy="40.0462" r="0.82564" fill="white"/>
<circle cx="28.1337" cy="45.3537" r="0.707691" fill="white"/>
<circle cx="30.9638" cy="48.1847" r="0.707691" fill="white"/>
<circle cx="33.5588" cy="50.7796" r="0.707691" fill="white"/>
<circle cx="36.3898" cy="53.6102" r="0.707691" fill="white"/>
<circle cx="38.749" cy="56.2052" r="0.707691" fill="white"/>
<circle cx="41.3434" cy="59.0361" r="0.707691" fill="white"/>
<circle cx="44.1747" cy="61.6305" r="0.707691" fill="white"/>
<circle cx="46.7692" cy="64.2256" r="0.707691" fill="white"/>
<circle cx="25.3024" cy="42.7592" r="0.707691" fill="white"/>
<circle cx="25.421" cy="48.0668" r="0.589743" fill="white"/>
<circle cx="22.59" cy="45.4718" r="0.589743" fill="white"/>
<circle cx="22.472" cy="50.5437" r="0.471794" fill="white"/>
<circle cx="25.5389" cy="53.6102" r="0.471794" fill="white"/>
<circle cx="25.1851" cy="58.9178" r="0.353846" fill="white"/>
<circle cx="25.303" cy="64.4615" r="0.235897" fill="white"/>
<circle cx="22.4717" cy="61.6307" r="0.235897" fill="white"/>
<circle cx="27.8975" cy="67.0565" r="0.235897" fill="white"/>
<circle cx="22.3541" cy="55.8514" r="0.353846" fill="white"/>
<circle cx="27.7799" cy="61.2767" r="0.353846" fill="white"/>
<circle cx="30.6099" cy="64.3437" r="0.353846" fill="white"/>
<circle cx="33.2049" cy="66.7027" r="0.353846" fill="white"/>
<circle cx="27.8978" cy="55.9694" r="0.471794" fill="white"/>
<circle cx="30.9637" cy="59.0358" r="0.471794" fill="white"/>
<circle cx="33.3229" cy="61.3946" r="0.471794" fill="white"/>
<circle cx="36.39" cy="64.4617" r="0.471794" fill="white"/>
<circle cx="38.7489" cy="67.2924" r="0.471794" fill="white"/>
<circle cx="27.7797" cy="50.6616" r="0.589743" fill="white"/>
<circle cx="30.8458" cy="53.4922" r="0.589743" fill="white"/>
<circle cx="33.2047" cy="56.3231" r="0.589743" fill="white"/>
<circle cx="36.2719" cy="58.9181" r="0.589743" fill="white"/>
<circle cx="38.631" cy="61.5126" r="0.589743" fill="white"/>
<circle cx="41.4613" cy="64.3435" r="0.589743" fill="white"/>
<circle cx="44.0568" cy="67.4103" r="0.589743" fill="white"/>
<circle cx="30.8457" cy="42.6412" r="0.82564" fill="white"/>
<circle cx="33.4406" cy="45.4716" r="0.82564" fill="white"/>
<circle cx="36.2717" cy="48.0669" r="0.82564" fill="white"/>
<circle cx="38.8669" cy="50.8975" r="0.82564" fill="white"/>
<circle cx="41.4614" cy="53.7281" r="0.82564" fill="white"/>
<circle cx="44.2927" cy="56.3232" r="0.82564" fill="white"/>
<circle cx="46.8872" cy="58.9179" r="0.82564" fill="white"/>
<circle cx="49.7175" cy="61.9846" r="0.82564" fill="white"/>
<circle cx="33.5586" cy="39.9282" r="0.943589" fill="white"/>
<circle cx="36.3896" cy="42.7591" r="0.943589" fill="white"/>
<circle cx="38.9848" cy="45.5896" r="0.943589" fill="white"/>
<circle cx="41.5793" cy="48.1848" r="0.943589" fill="white"/>
<circle cx="44.4106" cy="50.7795" r="0.943589" fill="white"/>
<circle cx="47.0051" cy="53.6102" r="0.943589" fill="white"/>
<circle cx="49.8354" cy="56.2053" r="0.943589" fill="white"/>
<circle cx="52.4302" cy="59.0359" r="0.943589" fill="white"/>
<circle cx="36.3897" cy="37.3335" r="1.17949" fill="white"/>
<circle cx="38.9847" cy="40.1641" r="1.17949" fill="white"/>
<circle cx="41.5794" cy="42.759" r="1.17949" fill="white"/>
<circle cx="44.4104" cy="45.5898" r="1.17949" fill="white"/>
<circle cx="47.0052" cy="48.1846" r="1.17949" fill="white"/>
<circle cx="49.8355" cy="50.7796" r="1.17949" fill="white"/>
<circle cx="52.43" cy="53.8461" r="1.17949" fill="white"/>
<circle cx="55.2613" cy="56.4412" r="1.17949" fill="white"/>
<circle cx="41.5794" cy="37.5694" r="1.41538" fill="white"/>
<circle cx="44.4105" cy="40.4" r="1.41538" fill="white"/>
<circle cx="47.2411" cy="42.9949" r="1.41538" fill="white"/>
<circle cx="49.836" cy="45.5898" r="1.41538" fill="white"/>
<circle cx="52.6659" cy="48.1849" r="1.41538" fill="white"/>
<circle cx="55.2611" cy="51.0155" r="1.41538" fill="white"/>
<circle cx="57.8563" cy="53.6103" r="1.41538" fill="white"/>
<circle cx="44.4104" cy="29.0768" r="1.88718" fill="white"/>
<circle cx="46.7693" cy="31.9077" r="1.88718" fill="white"/>
<circle cx="49.5998" cy="34.2668" r="1.88718" fill="white"/>
<circle cx="52.4309" cy="36.6255" r="1.88718" fill="white"/>
<circle cx="55.0251" cy="39.4565" r="1.88718" fill="white"/>
<circle cx="57.6201" cy="42.2872" r="1.88718" fill="white"/>
<circle cx="60.2155" cy="45.118" r="1.88718" fill="white"/>
<circle cx="63.0461" cy="47.7129" r="1.88718" fill="white"/>
<circle cx="47.3589" cy="26.6001" r="2.00513" fill="white"/>
<ellipse cx="49.8362" cy="29.6669" rx="1.88718" ry="2.00513" fill="white"/>
<circle cx="52.7842" cy="32.0256" r="2.00513" fill="white"/>
<circle cx="55.4968" cy="34.7385" r="1.88718" fill="white"/>
<circle cx="58.21" cy="37.451" r="2.00513" fill="white"/>
<circle cx="60.687" cy="40.164" r="1.88718" fill="white"/>
<circle cx="63.3999" cy="42.8771" r="2.00513" fill="white"/>
<circle cx="65.9946" cy="45.236" r="2.00513" fill="white"/>
</g>
</g>
<defs>
<clipPath id="clip0_3209_232">
<rect width="90" height="90" fill="white"/>
</clipPath>
<clipPath id="clip1_3209_232">
<rect width="46" height="46" fill="white" transform="translate(22 22)"/>
</clipPath>
</defs>
</svg>
