<svg width="90" height="90" viewBox="0 0 90 90" fill="none" xmlns="http://www.w3.org/2000/svg">
<g clip-path="url(#clip0_3209_124)">
<circle cx="45" cy="45" r="45" fill="#F5F5F5"/>
<path d="M8 39.9862V42.0505H28.8486L36.8991 36.6835L61.2569 51.7523L71.578 45.5596H81.8991V43.4954H70.3394L61.2569 49.2752L36.8991 34L27.6101 39.9862H8Z" fill="#34558B"/>
<path d="M8 44.7339V46.7981H28.8486L36.8991 41.4312L61.2569 56.5L71.578 50.3073H81.8991V48.2431H70.3394L61.2569 54.0229L36.8991 38.7477L27.6101 44.7339H8Z" fill="#34558B"/>
<path d="M37.518 43.4954L29.4675 48.6559L37.518 54.0229L45.5684 48.6559L37.518 43.4954Z" fill="#34558B"/>
<path d="M61.257 36.2706L53.2065 41.4312L61.257 46.7982L69.3075 41.4312L61.257 36.2706Z" fill="#34558B"/>
</g>
<defs>
<clipPath id="clip0_3209_124">
<rect width="90" height="90" fill="white"/>
</clipPath>
</defs>
</svg>
