<svg width="90" height="90" fill="none" xmlns="http://www.w3.org/2000/svg"><circle cx="45" cy="45" r="45" fill="#BF0101"/><path d="M19.5 54a8.5 8.5 0 1 0 0-17 8.5 8.5 0 0 0 0 17Z" fill="#F30000"/><path d="M23.872 50.661h-1.847V42.21l-2.75 8.451h-.94l-2.767-8.451v8.451H14.12v-9.655h2.804l2.08 6.218 2.043-6.218h2.82l.005 9.655ZM26.784 49.984v.677h-1.552v-6.685h1.552v2.907c0 .436 0 .903-.034 1.394.299-.454.625-.89.978-1.307l1.768-2.13v-.864h1.552v6.685h-1.535v-2.744c0-.55 0-1.03.046-1.446-.274.424-.574.831-.899 1.22l-1.876 2.293ZM36.31 46.293l2.397 4.357h-1.664l-1.806-3.228-1.248 1.255v1.98h-1.551v-6.685h1.551v1.98c0 .428 0 .793-.045 1.145.198-.262.413-.512.644-.748l2.31-2.377h1.526l-2.113 2.321ZM40.575 52.919h-1.581v-8.943h1.485v1.165c.178-.39.473-.722.847-.953a2.36 2.36 0 0 1 1.258-.35 2.19 2.19 0 0 1 1.048.252c.32.17.589.415.779.714.48.74.718 1.599.682 2.467a4.574 4.574 0 0 1-.653 2.476c-.187.33-.468.603-.81.79a2.195 2.195 0 0 1-1.125.263 2.108 2.108 0 0 1-1.135-.26 1.97 1.97 0 0 1-.795-.813v3.192Zm0-4.998c-.017.442.144.874.45 1.208.116.145.266.263.438.346.17.082.36.128.551.133.226.009.45-.046.643-.158a1.11 1.11 0 0 0 .443-.472 3.355 3.355 0 0 0 .345-1.608 3.418 3.418 0 0 0-.35-1.655 1.077 1.077 0 0 0-.416-.468 1.156 1.156 0 0 0-.619-.17c-.206.002-.41.05-.592.141-.183.091-.34.222-.46.382a2.08 2.08 0 0 0-.416 1.37l-.017.95ZM48.741 50.8a2.804 2.804 0 0 1-1.308-.249 2.659 2.659 0 0 1-1.021-.816 3.941 3.941 0 0 1-.807-2.444 3.558 3.558 0 0 1 .89-2.467c.287-.323.647-.58 1.054-.75a3.06 3.06 0 0 1 1.292-.236c.43-.011.857.07 1.25.236.393.166.742.414 1.022.726a3.98 3.98 0 0 1 .89 2.524 3.984 3.984 0 0 1-.924 2.514c-.293.312-.654.56-1.057.726-.404.166-.841.247-1.28.236Zm.054-1.244c1.043 0 1.565-.756 1.565-2.269.03-.562-.1-1.121-.375-1.62a1.223 1.223 0 0 0-.488-.45 1.3 1.3 0 0 0-.664-.14 1.348 1.348 0 0 0-.685.145c-.21.108-.385.269-.505.465a3.006 3.006 0 0 0-.387 1.624 2.834 2.834 0 0 0 .416 1.667c.119.18.285.329.482.43.196.102.418.153.641.148ZM56.82 46.293l2.4 4.357h-1.663l-1.806-3.228-1.223 1.255v1.98h-1.556v-6.685h1.556v1.98c0 .428 0 .793-.05 1.145a8.57 8.57 0 0 1 .65-.748l2.308-2.377h1.527l-2.143 2.321Z" fill="#fff"/><path d="m58.505 50.661 2.201-6.685h1.835l2.138 6.685h-1.622l-1.552-5.513-1.74 5.513h-1.26ZM70.973 50.661h-1.477a5.169 5.169 0 0 1-.237-1.35 2.21 2.21 0 0 1-.899 1.12c-.421.27-.924.4-1.43.37a2.346 2.346 0 0 1-.896-.13 2.263 2.263 0 0 1-.768-.457 1.977 1.977 0 0 1-.475-.675 1.897 1.897 0 0 1-.15-.798c0-1.532 1.387-2.299 4.16-2.301h.446v-.503c0-.692-.487-1.04-1.46-1.042-.974-.003-1.51.345-1.606 1.042l-1.323-.194a1.92 1.92 0 0 1 .29-.777c.152-.237.355-.44.596-.598a3.96 3.96 0 0 1 2.246-.538c.439-.01.876.034 1.303.13.317.077.61.226.852.436.216.182.38.412.479.67.11.397.155.808.133 1.22v3.017c.008.46.08.917.216 1.358ZM69.26 47.26c-2.008 0-3.012.466-3.012 1.398a.926.926 0 0 0 .075.385c.052.122.13.232.23.324.122.107.267.188.424.239.158.051.325.071.49.058.253.016.506-.025.739-.12.233-.095.439-.24.6-.426a1.92 1.92 0 0 0 .454-1.244v-.614ZM71.81 49.49l1.614-5.514h2.52l1.428 5.513H78v2.705h-1.007l-.183-1.533h-4.447l-.187 1.533h-1.007v-2.705h.64Zm1.248 0h2.766l-1.027-4.357h-.562l-1.177 4.356Z" fill="#fff"/></svg>