<svg width="90" height="90" fill="none" xmlns="http://www.w3.org/2000/svg"><g clip-path="url(#a)"><circle cx="45" cy="45" r="45" fill="#F5F5F5"/><path d="M46.773 41.92c-1.692-1.268-4.123-1.903-7.084-1.903h-9.411v11.737h-2.96v3.067h2.96v2.22H27v2.327h3.278v3.383h4.23v-3.383h7.19V57.04h-7.19v-1.903h5.18c2.962 0 5.393-.634 7.085-1.903 1.692-1.27 2.538-3.173 2.538-5.71 0-2.538-.846-4.336-2.538-5.605Zm-2.96 8.671c-.952.74-2.327 1.057-4.019 1.057H34.72v-8.247h5.075c1.692 0 3.067.317 4.019 1.057.951.74 1.374 1.692 1.374 3.067 0 1.374-.423 2.326-1.374 3.066Z" fill="url(#b)"/><path d="M27.423 34.413a20.957 20.957 0 0 1 12.583-4.23c11.526 0 21.042 9.411 21.042 21.042 0 11.526-9.41 21.043-21.042 21.043-4.758 0-9.094-1.586-12.477-4.23m29.078-31.51s.952-.846 5.499-2.75c4.123-1.691 6.027-1.903 4.97-4.44-1.164-2.644-3.173-.74-5.5-2.644-1.902-1.48-1.268-4.97-2.748-5.816-2.22-1.269-2.115-.105-4.97.529-2.96.74-3.278-1.058-6.027-3.49-2.75-2.432-3.701.74-3.701.74v11.526" stroke="url(#c)" stroke-width="3.149" stroke-miterlimit="10"/></g><defs><linearGradient id="b" x1="27.194" y1="51.35" x2="49.418" y2="51.35" gradientUnits="userSpaceOnUse"><stop stop-color="#F4991D"/><stop offset="1" stop-color="#FDC904"/></linearGradient><linearGradient id="c" x1="26.516" y1="44.634" x2="69.004" y2="44.634" gradientUnits="userSpaceOnUse"><stop stop-color="#987BF3"/><stop offset="1" stop-color="#5959E2"/></linearGradient><clipPath id="a"><path fill="#fff" d="M0 0h90v90H0z"/></clipPath></defs></svg>