<svg xmlns="http://www.w3.org/2000/svg" width="90" height="90" fill="none"><g clip-path="url(#a)"><circle cx="45" cy="45" r="45" fill="#EFEFEF"/><path fill="#046D99" d="M11.662 37.367c-3.187 1.227-4.58 4.945-3.022 8.023.714 1.392 2.967 2.949 4.268 2.949.274 0 .28.148.33.88.125 1.856.69 2.296 1.5 2.666l.37.126c.38.116.776.174 1.174.174h30.825c12.053-.045 30.674-.143 30.925-.167.252-.023.535-.055.763-.118.393-.078.45-.12.715-.22.731-.346.882-.513 1.156-1.045.348-.678.365-.959.31-5.135-.055-4.177-.043-4.615-.404-5.087-.236-.354-.575-.542-1.022-.739-.608-.267-2.219-.31-26.05-.31H28.075v.915h25.37l25.16.016.441.063.252.095.066.03c.233.108.43.284.563.504l.047.157.023.205.064 4.132c.038 2.464.022 3.41-.072 4.013-.071.454-.259.922-.626 1.198-.868.653-4.05.571-32.604.541H16.742a3.79 3.79 0 0 1-1.966-.55c-.501-.324-.513-.714-.586-1.41-.073-.843-.037-.934.275-.934 1.483 0 3.736-1.685 4.47-3.334.622-1.465.604-3.37-.074-4.763-1.3-2.656-4.488-3.92-7.199-2.875Zm4.524.75c3.005 1.777 3.627 5.477 1.356 7.987-2.07 2.308-5.532 2.326-7.657.055-2.583-2.766-1.374-7.272 2.253-8.463.257-.091.886-.33 1.885-.24 1.093.127 1.485.256 2.163.661Z"/><path fill="#046D99" d="M12.725 38.283c-1.905.367-3.352 2.089-3.48 4.14-.055.641 0 1.264.091 1.356.293.293 2.418-.403 2.84-.934.659-.843 1.74-2.84 1.886-3.444.147-.715.385-.751.678-.11.183.366.165.623-.092 1.3-.183.459-.274.88-.238.916.037.055.421.129.843.184.842.11 1.007.348 1.08 1.483.092 1.576-.586 2.235-2.307 2.235-.843 0-1.704.421-1.704.824 0 .129-.11.294-.22.33-.366.147.202.458 1.08.605 1.027.146 2.639-.348 3.481-1.081 1.502-1.319 1.942-3.59 1.044-5.422-.934-1.85-2.894-2.785-4.982-2.382Z"/><path fill="#32A549" fill-rule="evenodd" d="M20.942 48.752h.728l1.73-3.79 1.73 3.79h2.41l-2.93-6.442L27.034 37h-.915l-5.177 11.752ZM25.44 37h-.836L23.4 39.65 22.195 37h-2.428l2.423 5.31-2.93 6.442h.679L25.441 37Z" clip-rule="evenodd"/><path fill="#32A549" d="M29.363 48.751a1.46 1.46 0 0 1-.951-.317c-.267-.215-.47-.52-.609-.9a3.934 3.934 0 0 1-.216-1.345c0-.52.076-.964.216-1.344.14-.38.342-.685.609-.9a1.46 1.46 0 0 1 .951-.318c.368 0 .685.101.951.317.267.216.47.52.61.9.139.381.215.838.215 1.345 0 .508-.076.964-.216 1.345-.14.38-.342.685-.608.9a1.533 1.533 0 0 1-.952.317Zm.013-1.078a.542.542 0 0 0 .418-.19c.115-.127.19-.304.254-.533a2.88 2.88 0 0 0 .089-.774 2.88 2.88 0 0 0-.089-.773c-.063-.229-.14-.406-.254-.533a.555.555 0 0 0-.418-.203.516.516 0 0 0-.419.203 1.228 1.228 0 0 0-.253.533 2.884 2.884 0 0 0-.09.773c0 .292.026.546.09.774.063.228.14.406.253.533.102.127.241.19.419.19ZM31.8 50.516v-6.85h.989v.838h.05c.038-.14.102-.266.19-.406.09-.14.19-.254.33-.355.14-.101.305-.14.508-.14.266 0 .507.09.723.28.228.19.406.469.533.85.126.38.203.85.203 1.42 0 .558-.064 1.027-.19 1.408-.128.38-.305.672-.52.862a1.11 1.11 0 0 1-.75.292.898.898 0 0 1-.494-.127 1.166 1.166 0 0 1-.33-.33 2.025 2.025 0 0 1-.203-.405h-.025v2.663H31.8Zm.976-4.35c0 .291.025.558.089.773.063.216.14.394.253.52a.522.522 0 0 0 .406.178.542.542 0 0 0 .419-.19 1.11 1.11 0 0 0 .254-.52c.05-.229.088-.482.088-.761 0-.292-.025-.546-.088-.761-.064-.216-.14-.394-.254-.508a.587.587 0 0 0-.419-.19.528.528 0 0 0-.406.178 1.062 1.062 0 0 0-.253.507c-.064.216-.089.47-.089.774ZM37.608 48.751a1.46 1.46 0 0 1-.951-.317c-.266-.215-.47-.52-.609-.9a3.934 3.934 0 0 1-.215-1.345c0-.52.076-.964.215-1.344.14-.38.343-.685.609-.9a1.46 1.46 0 0 1 .951-.318c.368 0 .685.101.952.317.266.216.469.52.608.9.14.381.216.838.216 1.345 0 .508-.076.964-.215 1.345-.14.38-.343.685-.61.9a1.56 1.56 0 0 1-.95.317Zm0-1.078a.542.542 0 0 0 .419-.19c.114-.127.19-.304.254-.533.063-.228.088-.482.088-.774 0-.291-.025-.545-.088-.773-.064-.229-.14-.406-.254-.533a.555.555 0 0 0-.419-.203.516.516 0 0 0-.418.203 1.23 1.23 0 0 0-.254.533 2.885 2.885 0 0 0-.089.773c0 .292.026.546.089.774.063.228.14.406.254.533.114.127.253.19.418.19ZM40.03 43.668h.952v3.881h1.015v-3.881h.951v3.881h1.015v-3.881h.951v4.985h-4.896v-4.985h.013ZM46.666 46.826l1.294-3.158h.989v4.985h-.951v-3.171l-1.294 3.17h-.99v-4.984h.952v3.158ZM51.397 48.753a1.46 1.46 0 0 1-.951-.317c-.267-.203-.47-.507-.622-.888-.14-.38-.216-.837-.216-1.37 0-.507.077-.964.216-1.344.14-.393.343-.685.609-.9.266-.216.57-.33.926-.33.24 0 .456.05.66.152.202.101.38.266.545.469.152.216.279.47.355.786.089.318.127.685.127 1.117v.38h-3.044v-.862h2.105c0-.203-.025-.38-.089-.533a.998.998 0 0 0-.253-.368.598.598 0 0 0-.38-.127.655.655 0 0 0-.407.14 1.232 1.232 0 0 0-.279.38 1.475 1.475 0 0 0-.101.533v.812c0 .24.038.456.101.634.064.178.165.317.28.419a.64.64 0 0 0 .43.152.768.768 0 0 0 .305-.064.7.7 0 0 0 .241-.19c.063-.089.114-.19.152-.317l.926.089c-.05.304-.14.57-.292.799-.14.228-.33.406-.558.533a1.385 1.385 0 0 1-.786.215ZM54.96 50.109v-2.55h.28c.076-.063.139-.177.19-.33a5.168 5.168 0 0 0 .203-1.205c.012-.24.038-.482.05-.723l.09-1.623h2.764v3.881h.559v2.55h-.952v-1.46h-2.207v1.46h-.977Zm1.269-2.55h1.357v-2.816h-.977l-.038.558c-.025.533-.063.99-.114 1.357-.038.368-.127.66-.228.901ZM61.315 48.753a1.46 1.46 0 0 1-.951-.317c-.267-.203-.47-.507-.622-.888-.14-.38-.216-.837-.216-1.37 0-.507.076-.964.216-1.344.14-.393.343-.685.609-.9.266-.216.57-.33.926-.33.24 0 .456.05.66.152.202.101.38.266.545.469.152.216.279.47.355.786.089.318.127.685.127 1.117v.38H59.92v-.862h2.105c0-.203-.025-.38-.089-.533a1 1 0 0 0-.253-.368.599.599 0 0 0-.38-.127.655.655 0 0 0-.407.14 1.232 1.232 0 0 0-.279.38 1.475 1.475 0 0 0-.101.533v.812c0 .24.038.456.101.634.064.178.165.317.28.419a.663.663 0 0 0 .43.152.767.767 0 0 0 .305-.064.698.698 0 0 0 .24-.19 1.05 1.05 0 0 0 .153-.317l.926.089c-.05.304-.14.57-.292.799-.14.228-.33.406-.558.533a1.385 1.385 0 0 1-.786.215ZM64.575 43.668v4.985h-.952v-4.985h.952Zm1.56 1.94V46.7h-1.877v-1.091h1.877Zm.621-1.94v4.985h-.95v-4.985h.95ZM68.165 45.203h1.078c.482 0 .85.152 1.116.47.266.316.406.735.406 1.255 0 .342-.064.647-.178.9a1.52 1.52 0 0 1-.52.61c-.228.139-.495.215-.812.215h-1.7v-4.985h.952v3.894h.748a.575.575 0 0 0 .419-.178.602.602 0 0 0 .165-.444c0-.19-.05-.355-.165-.469a.513.513 0 0 0-.419-.177h-1.078v-1.091h-.013ZM73.898 43.668v1.09H72.4v3.895h-.977v-4.985h2.474ZM75.458 46.826l1.294-3.158h.99v4.985h-.952v-3.171l-1.294 3.17h-.99v-4.984h.952v3.158Z"/></g><defs><clipPath id="a"><path fill="#fff" d="M0 0h90v90H0z"/></clipPath></defs></svg>