<?xml version="1.0" encoding="UTF-8"?><svg id="a" xmlns="http://www.w3.org/2000/svg" viewBox="0 0 90 90"><defs><style>.b{fill:#00bff0;fill-rule:evenodd;}</style></defs><path class="b" d="M45,90c24.85,0,45-20.15,45-45S69.85,0,45,0,0,20.15,0,45s20.15,45,45,45Zm11.47-51.61c.41,1.66,.41,2.97,.41,4.81v3.6c0,1.87,.59,3.31,1.71,4.72,1.15,1.37,2.72,2.05,4.7,2.05s3.53-.68,4.64-2.05c1.15-1.4,1.73-3.04,1.73-4.91s-.58-3.44-1.73-4.81c-1.15-1.37-2.72-2.05-4.7-2.05-1.75,0-3.48,.59-4.55,1.66,0-1.35-.11-2.48-.52-3.62-.5-1.38-1.3-2.61-2.36-3.68,2.19-1.13,4.67-1.7,7.43-1.7,4.21,0,7.76,1.3,10.64,3.89,2.88,2.59,4.32,6.03,4.32,10.31s-1.44,7.76-4.32,10.42c-2.88,2.66-6.43,4-10.64,4s-7.7-1.33-10.58-4c-2.88-2.66-4.32-6.14-4.32-10.42v-2.05c-.2-3.17-1.35-4.75-3.69-4.75-1.44,0-2.56,.58-3.35,1.73-.76,1.12-1.13,2.48-1.13,4.1v10.1c0,1.87-.47,3.17-1.4,3.89-.94,.72-1.94,1.08-3.02,1.08s-2.09-.36-3.02-1.08c-.94-.72-1.4-2.02-1.4-3.89v-10.91c0-3.35-1.28-5.02-3.83-5.02-1.37,0-2.45,.56-3.24,1.67-.79,1.08-1.19,2.45-1.19,4.1v10.15c0,1.87-.49,3.17-1.46,3.89-.94,.72-1.94,1.08-3.02,1.08s-2.09-.36-3.02-1.08c-.94-.72-1.4-2.02-1.4-3.89v-18.25c0-1.8,.45-3.04,1.35-3.73,.9-.68,1.87-1.03,2.92-1.03s1.96,.32,2.86,.97c.9,.61,1.39,1.71,1.46,3.29h.11c.68-1.26,1.73-2.32,3.13-3.19,1.4-.86,3.04-1.3,4.91-1.3,3.82,0,6.52,1.53,8.1,4.59,1.15-1.81,2.62-3.08,4.41-3.82,1.24-.51,2.63-.77,4.18-.77,2.3,0,4.21,.59,5.72,1.78,.31,.23,.61,.48,.88,.73,1.05,.98,1.99,2.11,2.3,3.38Z"/></svg>