<svg width="90" height="90" fill="none" xmlns="http://www.w3.org/2000/svg"><circle cx="45" cy="45" r="45" fill="#FF5A1E"/><path d="M56.899 52.176c-.06 1.61-.948 2.498-1.884 2.498-1.279 0-2.108-1.053-3.612-3.824-.664.829-1.28 1.61-1.777 2.214-.782.947-1.504 1.551-2.38 1.551-.948 0-1.28-.722-1.28-1.67 0-2.107.557-8.761.107-11.591.438-.272 1.113-.438 1.61-.438 1.611 0 2.109 1.113 2.109 2.995 0 1.28-.166 3.718-.332 4.879 2.5-3.612 3.992-6.216 4.548-7.768 1.718-.272 2.606.557 2.606 1.836 0 1.326-.829 2.605-3.056 5.21 1.398 2.45 2.393 3.777 3.34 4.108ZM33.815 47.913c0-4.108 2.049-6.938 5.555-6.938 3.494 0 5.33 2.83 5.33 6.773 0 4.108-1.943 7.045-5.555 7.045-3.163 0-5.33-2.451-5.33-6.88Zm3.387.048c0 2.38.664 3.718 2.05 3.718 1.385 0 2.049-1.445 2.049-4.05 0-1.942-.439-3.552-1.943-3.552-1.433 0-2.156 1.445-2.156 3.884ZM69.005 52.176c-.059 1.61-.947 2.498-1.883 2.498-1.28 0-2.05-1.053-3.388-3.824-.663.829-1.279 1.551-1.717 2.167-.782.947-1.492 1.55-2.381 1.55-.947 0-1.28-.721-1.28-1.669 0-2.107.557-8.762.107-11.592.439-.272 1.114-.438 1.611-.438 1.611 0 2.108 1.113 2.108 2.996 0 1.279-.165 3.718-.331 4.878 2.487-3.611 3.98-6.216 4.536-7.767 1.718-.272 2.606.556 2.606 1.835 0 1.326-.888 2.605-3.055 5.27 1.231 2.38 2.12 3.824 3.067 4.096ZM80.767 50.956c.331 1.61.829 2.937.995 3.268-.391.332-.995.557-1.777.557-1.777 0-2.274-.947-2.665-3.612-1.054.06-2.108.107-3.056.166-.497 2.664-1.054 3.386-2.558 3.386-.723 0-1.327-.224-1.67-.722.272-.497.556-1.55 1.054-3.883.438-2.215 1.16-5.21 1.836-6.773.616-1.386 1.445-2.38 3.269-2.38 2.89 0 3.435 2.332 4.11 7.21.722-.106 1.22-.165 1.552-.272.355 1.563.07 2.664-1.09 3.055Zm-5.946-2.38c.782-.059 1.492-.106 2.215-.106-.273-2.724-.391-4.44-.83-4.831-.379.272-.876 2.107-1.385 4.937ZM12.044 54.994c1.943-.035 2.867-1.634 2.772-4.867 0-.248-.036-1.847-.095-4.83-.036-1.232.095-2.155.343-2.735.214.402.498 1.172.865 2.273.344 1.136.675 2.06.983 2.806.273.77.77 1.445 1.422 2.096.651.651 1.35.959 2.19.923.806-.035 1.576-.615 2.346-1.787.77-1.173 1.386-2.463 1.883-3.849.498-1.385 1.019-2.676 1.6-3.848.556-1.172 1.042-1.752 1.444-1.752.095.58 0 2.403-.343 5.446-.344 3.043-.498 5.352-.427 6.868.06 1.326.711 2.214 1.967 2.676 1.267.462 2.369.272 3.387-.557a44.444 44.444 0 0 1-.308-4.617c-.035-.96.036-2.404.119-4.37.094-1.965.118-3.386.094-4.274-.118-4.061-1.196-6.346-4.619-6.216-1.327.035-2.31.58-3.174 1.942-.462.71-.806 1.326-1.078 1.906-.273.58-.652 1.42-1.114 2.557a55.73 55.73 0 0 1-1.172 2.712c-.095-.213-.249-.651-.462-1.35-.462-1.385-.71-2.12-1.327-3.54-.616-1.421-1.196-2.25-2.037-3.197-.853-.971-1.895-1.433-3.032-1.41-1.327 0-2.44.557-3.305 1.694-.035.521-.154 1.788-.343 3.813-.19 2.06-.344 3.789-.498 5.174-.154 1.42-.308 2.984-.52 4.677C9.402 51.087 9.19 52.413 9 53.3c.343 1.207 1.35 1.764 3.044 1.693Z" fill="#fff"/></svg>