<svg xmlns="http://www.w3.org/2000/svg" width="90" height="90" fill="none"><circle cx="45" cy="45" r="45" fill="#EEE"/><path fill="#FDB82E" d="M46.408 41.6a3.444 3.444 0 0 0 0 4.881l2.176 2.17a3.468 3.468 0 0 0 4.894 0h.001a3.444 3.444 0 0 0 0-4.881l-2.176-2.17a3.468 3.468 0 0 0-4.895 0Z"/><path fill="#FDB82E" d="M66.626 38.76c-.03-.945-1.345-1.167-1.678-.28-8.68 22.755-31.556 9.015-31.556 9.015-.872-.55-1.8.618-1.067 1.335 2.225 2.191 5.63 4.92 10.702 7.699 9.076 4.97.162 17.966-4.127 23.364a.676.676 0 0 0 .403 1.086c.153.03.312.006.45-.068 7.608-4.018 27.675-17.04 26.873-42.15Z"/><path fill="#558F3F" d="M27.7 29.172s2.365 10.44 13.392 9.205c.005 0-.671-9.317-13.391-9.205ZM35.833 12.471s-4.464 10.236 5.584 15.977c0 0 5.188-8.254-5.584-15.977ZM53.315 19.247s-9.13 6.258-3.713 16.326c0 0 8.695-4.215 3.713-16.326ZM46.59 12.471s-5.173 5.61.02 11.555c0 0 5.2-4.17-.02-11.555ZM42.658 31.014s-1.91 6.114 4.177 8.769c0 0 2.448-5.03-4.177-8.77ZM31.546 42.984s5.804 4.085 10.677-1.398c0 0-4.474-4.28-10.677 1.398ZM20.88 37.41s4.504 6.654 11.878 2.792c0 .005-3.017-6.325-11.878-2.792ZM18.925 29.183s2.329 6.423 9.215 4.767c0 0-1.17-5.846-9.215-4.767Z"/><path fill="#558F3F" d="M27.703 19.544s-.014 8.035 8.267 8.965c0 0 1.064-6.932-8.267-8.965ZM61.489 33.25s-7.842-1.838-10.63 5.991c0 0 6.527 2.607 10.63-5.992ZM64.832 21.772s-8.007.893-7.997 9.203c0 0 7.026.27 7.997-9.203ZM62.878 41.144s-4.698-3.77-9.118.617c0 0 3.56 3.864 9.118-.617ZM38.567 48.703s4.402.128 5.036-4.37c.005 0-3.78-.683-5.036 4.37ZM24.617 45.977s3.409 1.04 4.87-2.334c0 0-2.8-1.341-4.87 2.334ZM17.642 43.804s4.139 2.307 6.978-1.671c-.003-.004-3.267-2.529-6.978 1.671ZM15 33.243s2.519 3.998 6.927 1.87c0 .001-1.65-3.777-6.927-1.87ZM21.553 23.532s1.32 4.533 6.145 3.695c0-.005-.546-4.088-6.145-3.695ZM67.736 34.415s-4.338-1.89-6.78 2.343c0 .006 3.496 2.19 6.78-2.343ZM70.999 24.95s-4.504-1.47-6.528 2.974c.001 0 3.692 1.854 6.528-2.974ZM67.506 30.442s-3.314-1.609-5.349 1.605c0 0 2.649 1.82 5.35-1.605ZM65.298 16.249s-4.222.593-4.092 4.989c0 .005 3.722.041 4.092-4.99ZM59.664 15.693s-4.766 1.99-3.258 7.101c0 0 4.374-1.097 3.258-7.101ZM53.841 12s-4.549 2.444-2.548 7.385c0 0 4.245-1.518 2.548-7.385Z"/></svg>