<svg width="90" height="90" viewBox="0 0 90 90" fill="none" xmlns="http://www.w3.org/2000/svg">
<g clip-path="url(#clip0_3209_441)">
<circle cx="45" cy="45" r="45" fill="#F5F5F5"/>
<path d="M24.4743 33.8053C23.499 32.1297 24.0742 29.954 25.7747 28.9787C27.4753 28.0033 29.626 28.6035 30.6013 30.3041L33.3773 35.1057V21.5512C33.3773 19.6005 34.9778 18 36.9284 18C38.9041 18 40.4796 19.6005 40.4796 21.5512V29.1787C39.3543 29.904 38.3039 30.7543 37.3286 31.7296C33.8024 35.2558 31.8518 39.9823 31.8518 44.959C31.8518 45.5592 31.8768 46.1594 31.9268 46.7346L24.4743 33.8053Z" fill="#2F7DE4"/>
<path fill-rule="evenodd" clip-rule="evenodd" d="M59.9604 39.307C63.0864 39.307 65.6123 41.8328 65.6123 44.9589C65.6123 48.0849 63.0864 50.5858 59.9604 50.5858C56.8593 50.5858 54.3335 48.0849 54.3335 44.9589C54.3335 41.8328 56.8593 39.307 59.9604 39.307Z" fill="#F9B302"/>
<path d="M60.2614 30.7792C61.8619 31.8796 62.2871 34.0803 61.1867 35.7058C60.0863 37.3064 57.8606 37.7315 56.2601 36.6311C55.4348 36.056 54.5095 35.6058 53.5592 35.3307C52.6339 35.0306 51.6335 34.8806 50.5582 34.8806C47.7822 34.8806 45.2564 36.0059 43.4308 37.8315C41.6052 39.6572 40.4798 42.183 40.4798 44.9589C40.4798 47.7348 41.6052 50.2607 43.4308 52.0863C45.2564 53.9119 47.7822 55.0373 50.5582 55.0373C51.6335 55.0373 52.6339 54.8872 53.5592 54.5871C54.5095 54.312 55.4348 53.8619 56.2601 53.2867C57.8606 52.1863 60.0863 52.6115 61.1867 54.212C62.2871 55.8375 61.8619 58.0383 60.2614 59.1387C58.8609 60.089 57.3104 60.8642 55.6349 61.3644C54.0093 61.8646 52.3088 62.1397 50.5582 62.1397C50.2831 62.1397 50.008 62.1396 49.7329 62.1146V65.5908C49.7329 67.5164 48.0823 68.5668 46.2067 69.117L36.9036 71.8429C35.053 72.3931 33.3774 71.4678 33.3774 69.5421V44.9589V44.1587C33.3774 44.0336 33.4024 43.8836 33.4275 43.7335C33.7276 39.4821 35.5782 35.6558 38.4041 32.8049C41.5302 29.7038 45.8316 27.7782 50.5582 27.7782C52.3088 27.7782 54.0093 28.0533 55.6349 28.5535C57.3104 29.0536 58.8609 29.8289 60.2614 30.7792Z" fill="#2F7DE4"/>
</g>
<defs>
<clipPath id="clip0_3209_441">
<rect width="90" height="90" fill="white"/>
</clipPath>
</defs>
</svg>
