<?xml version="1.0" encoding="UTF-8"?><svg id="a" xmlns="http://www.w3.org/2000/svg" viewBox="0 0 90 90"><defs><style>.b{fill:#56646b;}.c{fill:#fff;}.d{fill:#f5f5f5;}.e{fill:#7baf22;}</style></defs><circle class="d" cx="45" cy="45" r="45"/><g><g><path class="b" d="M19.82,49.56c-.75,0-1.23-.42-1.34-1.19l-.62-4.35-1.3,4.56c-.18,.65-.66,.99-1.37,.99s-1.18-.34-1.37-.99l-1.3-4.55-.63,4.34c-.11,.77-.59,1.19-1.34,1.19-.37,0-.67-.12-.91-.35s-.36-.54-.36-.91v-.11s0-.1,.02-.17l1.28-7.63c.06-.37,.26-.68,.59-.94,.3-.23,.65-.35,1.02-.35s.71,.11,1.02,.32c.3,.22,.52,.5,.62,.86l1.36,4.56,1.36-4.56c.1-.37,.32-.66,.63-.87,.3-.21,.64-.31,1-.31s.71,.12,1.03,.36c.33,.25,.53,.56,.58,.93l1.28,7.63c0,.07,.02,.12,.02,.17v.11c0,.37-.12,.68-.36,.91-.23,.24-.54,.36-.91,.36Z"/><path class="c" d="M18.19,39.38c.3,0,.59,.1,.86,.3,.27,.2,.43,.45,.48,.75l1.28,7.63c0,.06,.02,.1,.02,.12v.11c0,.3-.09,.53-.27,.71s-.42,.27-.71,.27c-.62,0-.98-.32-1.07-.95l-.8-5.57h-.03l-1.64,5.74c-.15,.53-.52,.79-1.1,.79s-.94-.26-1.1-.79l-1.65-5.75h-.02l-.81,5.57c-.1,.64-.45,.95-1.06,.95-.3,0-.54-.09-.71-.27-.18-.18-.27-.42-.27-.71v-.11s0-.06,.02-.12l1.28-7.63c.05-.3,.21-.55,.48-.75,.26-.2,.54-.3,.86-.3s.59,.09,.86,.27c.26,.18,.43,.42,.52,.71l1.61,5.42h.02l1.61-5.42c.09-.3,.26-.55,.52-.72,.25-.18,.53-.26,.83-.26m0-.56c-.42,0-.8,.12-1.15,.35-.37,.25-.62,.59-.74,1.03l-1.1,3.66-1.1-3.66c-.13-.42-.38-.76-.74-1.01-.35-.25-.74-.38-1.18-.38s-.84,.14-1.19,.41c-.39,.3-.62,.66-.7,1.11l-1.28,7.63c-.02,.09-.02,.15-.02,.22v.11c0,.44,.15,.82,.44,1.11,.29,.28,.67,.43,1.11,.43,.9,0,1.48-.52,1.61-1.43l.44-3.05,.94,3.29c.22,.77,.8,1.19,1.63,1.19s1.42-.42,1.63-1.19l.94-3.29,.44,3.05c.14,.91,.73,1.44,1.62,1.44,.44,0,.82-.15,1.11-.43,.29-.29,.44-.67,.44-1.11v-.13c0-.06,0-.13-.02-.21l-1.28-7.63c-.07-.44-.3-.82-.7-1.1-.35-.28-.76-.42-1.18-.42h0Z"/></g><g><path class="b" d="M24.94,49.65c-1.13,0-2.06-.41-2.78-1.22-.68-.78-1.02-1.73-1.02-2.85s.35-2.05,1.05-2.85c.74-.83,1.66-1.25,2.76-1.25s2.04,.42,2.77,1.25c.7,.79,1.05,1.75,1.05,2.85s-.34,2.08-1.03,2.85c-.72,.8-1.65,1.21-2.78,1.21Zm0-5.8c-.41,0-.72,.18-.95,.54-.22,.33-.32,.73-.32,1.2s.11,.88,.33,1.2c.23,.34,.54,.5,.94,.5s.71-.17,.94-.52c.23-.34,.34-.73,.34-1.18,0-.77-.23-1.29-.72-1.59-.14-.1-.33-.14-.56-.14Z"/><path class="c" d="M24.94,41.77c1.03,0,1.88,.38,2.56,1.15,.65,.74,.98,1.63,.98,2.66s-.32,1.94-.96,2.66c-.67,.75-1.53,1.13-2.57,1.13s-1.9-.38-2.57-1.12c-.64-.72-.95-1.61-.95-2.67s.33-1.92,.98-2.66c.68-.77,1.53-1.15,2.55-1.15m0,5.8c.5,0,.89-.22,1.18-.64,.26-.38,.38-.83,.38-1.34,0-.86-.28-1.47-.85-1.83-.19-.12-.43-.18-.71-.18-.5,0-.9,.22-1.19,.66-.25,.38-.37,.82-.37,1.35s.13,.98,.38,1.36c.29,.42,.68,.62,1.18,.62m0-6.36c-1.18,0-2.18,.46-2.97,1.34-.74,.84-1.12,1.86-1.12,3.03s.37,2.22,1.1,3.05c.78,.87,1.78,1.31,2.99,1.31s2.21-.44,2.99-1.32c.74-.82,1.1-1.85,1.1-3.04s-.38-2.19-1.11-3.04c-.78-.89-1.78-1.34-2.97-1.34h0Zm0,5.8c-.31,0-.54-.12-.71-.38-.19-.28-.28-.62-.28-1.04s.09-.76,.28-1.04c.18-.28,.41-.41,.72-.41,.18,0,.32,.03,.42,.1,.39,.25,.58,.7,.58,1.36,0,.4-.1,.74-.29,1.03-.19,.26-.41,.38-.72,.38h0Z"/></g><g><path class="b" d="M34.81,49.56c-.38,0-.7-.14-.93-.42-.22-.26-.34-.58-.34-.95v-3.43c0-.34-.09-.6-.26-.79-.18-.18-.42-.28-.74-.28s-.55,.09-.71,.28c-.18,.2-.26,.46-.26,.79v3.43c0,.38-.1,.7-.32,.95-.23,.28-.55,.42-.95,.42s-.7-.14-.93-.42c-.22-.26-.34-.58-.34-.95v-5.24c0-.37,.11-.69,.34-.95,.23-.28,.54-.42,.93-.42,.47,0,.82,.17,1.02,.49,.44-.38,1.04-.57,1.79-.57,.89,0,1.61,.26,2.16,.79s.82,1.25,.82,2.14v3.77c0,.38-.1,.7-.32,.95-.23,.29-.55,.42-.95,.42Z"/><path class="c" d="M33.1,41.77c.82,0,1.47,.24,1.97,.71,.49,.47,.74,1.12,.74,1.94v3.77c0,.32-.09,.58-.26,.78-.18,.22-.42,.32-.74,.32s-.54-.1-.71-.32c-.18-.22-.26-.47-.26-.78v-3.43c0-.41-.11-.74-.34-.98-.22-.25-.54-.37-.95-.37s-.7,.13-.93,.38c-.22,.25-.33,.58-.33,.98v3.43c0,.32-.09,.58-.26,.78-.18,.22-.42,.32-.74,.32s-.54-.1-.71-.32c-.18-.22-.26-.47-.26-.78v-5.24c0-.3,.09-.56,.26-.78,.18-.22,.42-.32,.71-.32,.53,0,.83,.24,.91,.73,.39-.54,1.02-.81,1.89-.81m0-.56c-.7,0-1.29,.15-1.74,.46-.26-.25-.62-.38-1.06-.38s-.86,.18-1.14,.52c-.26,.32-.4,.7-.4,1.14v5.24c0,.44,.14,.82,.4,1.14,.29,.34,.68,.52,1.14,.52s.88-.18,1.17-.52c.26-.3,.38-.68,.38-1.14v-3.43c0-.26,.06-.46,.19-.61,.07-.08,.2-.18,.5-.18,.33,0,.46,.1,.54,.19,.13,.14,.19,.34,.19,.6v3.43c0,.44,.14,.82,.4,1.14,.29,.34,.68,.52,1.14,.52s.88-.18,1.17-.52c.26-.3,.38-.68,.38-1.14v-3.77c0-.98-.3-1.76-.9-2.34-.6-.58-1.39-.86-2.36-.86h0Z"/></g><g><path class="b" d="M40.19,49.65c-1.17,0-2.13-.39-2.87-1.16-.74-.77-1.1-1.75-1.1-2.91s.35-2.06,1.06-2.85c.73-.82,1.65-1.24,2.76-1.24,.79,0,1.52,.23,2.17,.7,.62,.46,1.09,1.06,1.38,1.8,.18,.45,.26,.9,.26,1.36,0,.74-.42,1.16-1.14,1.16h-3.84c.09,.22,.22,.4,.42,.54,.3,.22,.66,.32,1.07,.32,.26,0,.54-.06,.82-.19,.11-.06,.4-.21,.86-.45,.19-.1,.38-.15,.56-.15,.3,0,.55,.12,.77,.35,.22,.22,.32,.49,.32,.78,0,.62-.5,1.14-1.46,1.52-.72,.28-1.4,.42-2.03,.42Zm1.07-5.02c-.07-.25-.18-.46-.35-.62-.22-.22-.51-.33-.89-.33s-.65,.11-.87,.34c-.17,.17-.28,.37-.35,.61h2.46Z"/><path class="c" d="M40.03,41.77c.74,0,1.4,.22,2.01,.65,.58,.42,1.02,.98,1.29,1.68,.17,.42,.25,.83,.25,1.26,0,.59-.29,.88-.86,.88h-4.2c.06,.46,.27,.81,.62,1.06s.77,.37,1.24,.37c.3,0,.62-.07,.94-.22,.11-.06,.4-.21,.86-.46,.15-.08,.3-.12,.42-.12,.22,0,.4,.09,.57,.26,.16,.18,.24,.37,.24,.59,0,.5-.43,.93-1.29,1.26-.69,.27-1.34,.41-1.93,.41-1.09,0-1.98-.36-2.66-1.08-.69-.72-1.03-1.62-1.03-2.72s.33-1.93,.98-2.66c.66-.78,1.52-1.15,2.54-1.15m-1.57,3.14h3.13c-.06-.46-.22-.82-.49-1.1-.27-.27-.63-.41-1.08-.41s-.79,.14-1.07,.42c-.28,.28-.45,.64-.5,1.08m1.57-3.7c-1.18,0-2.18,.45-2.97,1.34-.74,.84-1.12,1.86-1.12,3.04,0,1.24,.4,2.29,1.18,3.1,.79,.83,1.82,1.25,3.07,1.25,.66,0,1.38-.15,2.13-.45,1.09-.43,1.65-1.03,1.65-1.78,0-.36-.14-.7-.39-.97-.04-.04-.08-.08-.12-.11,.43-.22,.67-.66,.67-1.28,0-.5-.1-.98-.29-1.46-.31-.79-.82-1.44-1.48-1.92-.7-.5-1.49-.75-2.33-.75h0Zm-.78,3.14s.07-.09,.11-.13c.18-.18,.38-.26,.67-.26,.3,0,.52,.08,.69,.24,.04,.04,.08,.09,.12,.14h-1.59Zm.16,2.44h1.92c-.13,.06-.21,.11-.26,.14-.25,.11-.48,.17-.7,.17-.36,0-.66-.09-.91-.27-.02,0-.03-.02-.05-.03h0Z"/></g><g><path class="b" d="M45.99,52.46c-.33,0-.62-.09-.86-.26-.29-.22-.44-.51-.44-.86,0-.21,.05-.44,.14-.68l.82-2.02-2.13-5.32c-.07-.19-.11-.39-.11-.62,0-.31,.13-.58,.38-.81,.25-.22,.52-.32,.82-.32,.61,0,1.04,.3,1.26,.89l1.1,3.01,1.18-3.01c.22-.58,.66-.88,1.25-.88,.31,0,.58,.1,.83,.31,.25,.22,.38,.5,.38,.82,0,.22-.04,.42-.11,.61l-3.3,8.21c-.33,.78-.83,.95-1.2,.95Z"/><path class="c" d="M49.38,41.85c.24,0,.46,.08,.65,.25,.19,.17,.28,.37,.28,.6,0,.18-.03,.35-.1,.5l-3.3,8.21c-.21,.52-.52,.78-.93,.78-.27,0-.5-.07-.7-.22-.22-.16-.33-.38-.33-.63,0-.18,.04-.37,.13-.58l.86-2.13-2.17-5.43c-.06-.15-.1-.33-.1-.5,0-.22,.1-.42,.29-.59s.41-.26,.64-.26c.49,0,.82,.23,.99,.7l1.35,3.71,1.45-3.71c.18-.47,.52-.7,.99-.7m0-.56c-.7,0-1.25,.38-1.51,1.06l-.9,2.33-.85-2.32c-.25-.69-.79-1.07-1.51-1.07-.37,0-.71,.13-1.01,.39-.31,.27-.48,.62-.48,1.02,0,.26,.05,.5,.14,.72l2.09,5.22-.78,1.92c-.11,.27-.17,.54-.17,.78,0,.44,.19,.82,.55,1.09,.3,.22,.64,.32,1.03,.32,.37,0,1.05-.14,1.45-1.13l3.3-8.2c.09-.22,.14-.46,.14-.72,0-.4-.17-.75-.48-1.02-.29-.25-.64-.38-1.02-.38h0Z"/></g><g><path class="e" d="M63.69,49.56c-.38,0-.7-.14-.93-.42-.22-.26-.34-.58-.34-.95v-3.43c0-.34-.09-.6-.26-.79-.18-.18-.42-.28-.74-.28s-.55,.09-.71,.28c-.18,.2-.26,.46-.26,.79v3.43c0,.38-.1,.7-.32,.96-.23,.28-.55,.42-.95,.42s-.7-.14-.93-.42c-.22-.26-.34-.58-.34-.95v-8.43c0-.37,.11-.69,.34-.95,.23-.28,.54-.42,.93-.42s.71,.14,.94,.41c.22,.26,.33,.58,.33,.97v2.09c.4-.25,.91-.38,1.53-.38,.89,0,1.61,.26,2.16,.79s.82,1.25,.82,2.14v3.77c0,.38-.1,.7-.32,.96-.24,.28-.56,.42-.95,.42Z"/><path class="c" d="M59.17,38.67c.31,0,.55,.1,.73,.31,.18,.21,.26,.47,.26,.78v2.68h.02c.38-.46,.97-.68,1.79-.68s1.47,.24,1.97,.71c.49,.47,.74,1.12,.74,1.94v3.77c0,.32-.09,.58-.26,.78-.18,.22-.42,.32-.74,.32s-.54-.1-.71-.32-.26-.47-.26-.78v-3.43c0-.41-.11-.74-.34-.98-.22-.25-.54-.37-.95-.37s-.7,.13-.93,.38-.33,.58-.33,.98v3.43c0,.32-.09,.58-.26,.78-.18,.22-.42,.32-.74,.32s-.54-.1-.71-.32-.26-.47-.26-.78v-8.42c0-.3,.09-.56,.26-.78,.18-.22,.42-.32,.71-.32m0-.56c-.46,0-.86,.18-1.14,.52-.26,.32-.4,.7-.4,1.14v8.42c0,.44,.14,.82,.4,1.14,.29,.34,.68,.52,1.14,.52s.88-.18,1.17-.52c.26-.3,.38-.68,.38-1.14v-3.43c0-.26,.06-.46,.19-.61,.07-.08,.2-.18,.5-.18,.33,0,.46,.1,.54,.19,.13,.14,.19,.34,.19,.6v3.43c0,.44,.14,.82,.4,1.14,.29,.34,.68,.52,1.14,.52s.88-.18,1.17-.52c.26-.3,.38-.68,.38-1.14v-3.77c0-.98-.3-1.76-.9-2.34-.59-.58-1.39-.87-2.35-.87-.48,0-.9,.07-1.26,.21v-1.64c0-.45-.13-.83-.39-1.14-.29-.34-.69-.51-1.17-.51h0Z"/></g><g><path class="e" d="M69.04,49.65c-1.13,0-2.06-.41-2.78-1.22-.68-.78-1.02-1.73-1.02-2.85s.35-2.05,1.05-2.85c.74-.83,1.66-1.25,2.76-1.25s2.04,.42,2.77,1.25c.7,.79,1.05,1.75,1.05,2.85s-.34,2.08-1.03,2.85c-.72,.8-1.65,1.21-2.78,1.21Zm0-5.8c-.41,0-.72,.18-.95,.54-.22,.33-.32,.73-.32,1.2s.11,.88,.33,1.2c.23,.34,.54,.5,.94,.5s.71-.17,.94-.52c.23-.34,.34-.73,.34-1.18,0-.77-.23-1.29-.72-1.59-.14-.1-.33-.14-.56-.14Z"/><path class="c" d="M69.04,41.77c1.03,0,1.88,.38,2.56,1.15,.65,.74,.98,1.63,.98,2.66s-.32,1.94-.96,2.66c-.67,.75-1.53,1.13-2.57,1.13s-1.9-.38-2.57-1.12c-.64-.72-.95-1.61-.95-2.67s.33-1.92,.98-2.66c.68-.77,1.53-1.15,2.55-1.15m0,5.8c.5,0,.89-.22,1.18-.64,.26-.38,.38-.83,.38-1.34,0-.86-.28-1.47-.85-1.83-.19-.12-.43-.18-.71-.18-.5,0-.9,.22-1.19,.66-.25,.38-.37,.82-.37,1.35s.13,.98,.38,1.36c.29,.42,.68,.62,1.18,.62m0-6.36c-1.18,0-2.18,.46-2.97,1.34-.74,.84-1.12,1.86-1.12,3.03s.37,2.22,1.1,3.05c.78,.87,1.78,1.31,2.99,1.31s2.21-.44,2.99-1.32c.74-.82,1.1-1.85,1.1-3.04s-.38-2.19-1.11-3.04c-.78-.89-1.78-1.34-2.97-1.34h0Zm0,5.8c-.31,0-.54-.12-.71-.38-.19-.28-.28-.62-.28-1.04s.09-.76,.28-1.04c.18-.28,.41-.41,.72-.41,.18,0,.32,.03,.42,.1,.39,.25,.58,.7,.58,1.36,0,.4-.1,.74-.29,1.03-.19,.26-.42,.38-.72,.38h0Z"/></g><g><path class="e" d="M74.39,52.46c-.38,0-.7-.14-.94-.42-.22-.26-.33-.57-.33-.94v-8.15c0-.37,.11-.69,.34-.95,.23-.28,.54-.42,.93-.42,.48,0,.85,.19,1.07,.55,.42-.42,1.02-.63,1.79-.63,1.1,0,1.98,.46,2.62,1.36,.55,.78,.83,1.73,.83,2.82s-.31,1.97-.94,2.73c-.68,.83-1.55,1.26-2.59,1.26-.55,0-1.06-.14-1.53-.42v1.86c0,.38-.1,.7-.32,.95-.23,.26-.55,.41-.94,.41Zm2.53-8.62c-.4,0-.71,.17-.94,.5-.21,.3-.32,.7-.32,1.16s.1,.89,.32,1.22c.23,.37,.54,.54,.94,.54s.7-.18,.93-.53c.22-.33,.33-.72,.33-1.18s-.11-.82-.34-1.18c-.23-.37-.54-.54-.91-.54Z"/><path class="c" d="M77.25,41.77c1.01,0,1.81,.42,2.4,1.24,.52,.74,.78,1.62,.78,2.66s-.29,1.85-.87,2.56c-.63,.77-1.42,1.15-2.37,1.15-.67,0-1.27-.23-1.81-.69v2.41c0,.31-.09,.57-.26,.77-.18,.22-.42,.32-.74,.32s-.54-.11-.72-.33c-.18-.21-.26-.46-.26-.76v-8.15c0-.3,.09-.56,.26-.78s.42-.32,.71-.32c.53,0,.86,.27,.99,.82,.38-.62,1-.91,1.88-.91m-.33,5.8c.49,0,.87-.22,1.16-.66,.25-.38,.38-.82,.38-1.33s-.13-.94-.38-1.34c-.29-.45-.67-.67-1.15-.67s-.89,.21-1.18,.63c-.25,.36-.37,.79-.37,1.32s.12,.99,.36,1.38c.28,.44,.67,.66,1.18,.66m.33-6.36c-.8,0-1.36,.22-1.75,.51-.27-.28-.66-.43-1.1-.43s-.86,.18-1.14,.52c-.26,.32-.4,.7-.4,1.14v8.15c0,.44,.14,.82,.39,1.13,.29,.34,.69,.53,1.15,.53s.87-.18,1.16-.52c.26-.3,.39-.69,.39-1.14v-1.41c.39,.16,.81,.25,1.25,.25,1.13,0,2.07-.46,2.81-1.35,.66-.82,1-1.79,1-2.91s-.3-2.15-.89-2.98c-.7-.99-1.66-1.49-2.86-1.49h0Zm-.33,5.8c-.31,0-.53-.13-.7-.41-.18-.3-.28-.65-.28-1.08,0-.41,.09-.74,.27-1,.18-.26,.41-.38,.71-.38,.19,0,.44,.05,.68,.42,.2,.31,.3,.65,.3,1.03s-.09,.74-.28,1.02c-.18,.28-.4,.41-.7,.41h0Z"/></g><g><path class="e" d="M53.82,51.18c-.54,0-.94-.57-.94-1.08v-.5c-.94-.1-1.65-.36-2.15-.77-.31-.26-.47-.59-.47-1,0-.34,.11-.64,.33-.88,.22-.25,.51-.37,.87-.37,.25,0,.62,.09,1.15,.28,.48,.17,.86,.26,1.15,.26,.34,0,.61-.08,.81-.22,.21-.16,.3-.38,.3-.67s-.33-.55-.97-.74c-.26-.07-.64-.18-1.14-.31-.4-.12-.78-.28-1.13-.48-.89-.5-1.34-1.26-1.34-2.28s.38-1.85,1.1-2.49c.42-.37,.92-.62,1.48-.77v-.69c0-.51,.42-.94,.94-.94h.27c.51,0,.94,.42,.94,.94v.66c.59,.12,1.1,.34,1.5,.67,.27,.22,.42,.53,.42,.89s-.1,.66-.31,.9c-.22,.26-.52,.4-.89,.4-.2,0-.44-.05-.74-.16l-.61-.22c-.14-.03-.3-.04-.47-.04-.24,0-.44,.06-.61,.17s-.24,.25-.24,.44c0,.21,.37,.44,.99,.62,.5,.14,.88,.26,1.14,.35,.46,.16,.84,.34,1.14,.53,.86,.56,1.3,1.41,1.3,2.53,0,1.05-.38,1.9-1.14,2.55-.42,.37-.93,.62-1.48,.77v.58c0,.51-.4,1.08-.94,1.08h-.28v-.02Z"/><path class="c" d="M54.1,37.81c.36,0,.66,.3,.66,.66v.89c.65,.1,1.18,.31,1.59,.65,.21,.18,.31,.4,.31,.67,0,.29-.08,.53-.24,.71-.17,.2-.39,.3-.67,.3-.17,0-.38-.05-.64-.14l-.63-.22c-.17-.03-.34-.06-.55-.06-.3,0-.55,.07-.76,.22-.24,.17-.36,.39-.36,.67,0,.36,.4,.66,1.19,.89,.5,.14,.87,.26,1.12,.34,.44,.15,.8,.32,1.08,.5,.78,.5,1.18,1.27,1.18,2.29,0,.97-.34,1.74-1.04,2.33-.45,.38-.98,.64-1.58,.76v.81c0,.36-.3,.8-.66,.8h-.27c-.36,0-.66-.44-.66-.8v-.75c-1.01-.07-1.76-.32-2.25-.73-.25-.2-.37-.46-.37-.78,0-.28,.09-.5,.26-.69,.17-.18,.39-.28,.66-.28,.22,0,.57,.09,1.06,.26,.51,.18,.93,.27,1.24,.27,.4,0,.72-.1,.98-.28,.28-.22,.42-.51,.42-.9,0-.45-.39-.78-1.18-1.02-.26-.06-.63-.17-1.14-.31-.38-.11-.73-.26-1.07-.46-.79-.44-1.19-1.12-1.19-2.04s.34-1.69,1.01-2.28c.45-.38,.98-.64,1.57-.75v-.9c0-.36,.3-.66,.66-.66h.28m0-.55h-.27c-.67,0-1.22,.54-1.22,1.22v.48c-.51,.16-.98,.42-1.38,.77-.8,.7-1.2,1.6-1.2,2.7s.51,1.99,1.48,2.53c.37,.21,.77,.38,1.18,.5h.02c.5,.14,.88,.25,1.14,.31,.46,.14,.77,.33,.77,.48,0,.26-.1,.37-.2,.45-.16,.11-.37,.17-.64,.17-.18,0-.5-.04-1.06-.24-.57-.2-.96-.3-1.25-.3-.42,0-.8,.16-1.07,.46-.26,.29-.4,.66-.4,1.07,0,.49,.2,.91,.58,1.22,.5,.42,1.18,.68,2.05,.8v.25c0,.64,.52,1.36,1.22,1.36h.27c.7,0,1.22-.72,1.22-1.36v-.38c.51-.16,.98-.42,1.38-.77,.82-.7,1.24-1.63,1.24-2.77,0-1.22-.48-2.16-1.43-2.77-.32-.21-.73-.39-1.2-.56-.26-.1-.64-.21-1.15-.36-.59-.18-.75-.34-.78-.38,0-.08,.02-.13,.12-.19,.11-.08,.26-.11,.45-.11,.14,0,.28,0,.4,.03l.59,.21c.33,.11,.59,.17,.82,.17,.45,0,.82-.18,1.1-.5,.25-.29,.38-.65,.38-1.08s-.18-.82-.52-1.1c-.38-.32-.85-.54-1.39-.68v-.43c-.02-.66-.56-1.21-1.22-1.21h0Z"/></g></g></svg>