<svg width="90" height="90" viewBox="0 0 90 90" fill="none" xmlns="http://www.w3.org/2000/svg">
<circle cx="45" cy="45" r="45" fill="#FFF5E2"/>
<path d="M55.6218 29.7885V34.7616C58.7148 36.6426 61.2668 39.3111 63.0235 42.5014C64.7803 45.6916 65.6804 49.2922 65.6341 52.9442C65.5879 56.5963 64.597 60.1723 62.7601 63.316C60.9232 66.4596 58.3045 69.0611 55.1649 70.8613C52.0253 72.6614 48.4745 73.5974 44.8663 73.5758C41.258 73.5542 37.7184 72.5759 34.6 70.7383C31.4817 68.9007 28.8935 66.2681 27.0934 63.1027C25.2934 59.9372 24.3443 56.3496 24.3407 52.6973C24.3407 52.3078 24.3407 51.923 24.3735 51.543V38.4C21.4834 42.6731 19.9582 47.741 20.0039 52.9193C20.0495 58.0976 21.6637 63.1371 24.6286 67.3573C27.5936 71.5776 31.7664 74.7754 36.5837 76.519C41.4011 78.2627 46.631 78.4681 51.5674 77.1077C56.5038 75.7473 60.909 72.8866 64.1882 68.9116C67.4673 64.9367 69.4627 60.039 69.9047 54.8799C70.3467 49.7207 69.2142 44.5485 66.6601 40.0615C64.1059 35.5745 60.2531 31.9888 55.6218 29.7885Z" fill="black"/>
<path d="M44.9977 66.2677C52.4021 66.2677 58.4045 60.192 58.4045 52.6972C58.4045 45.2024 52.4021 39.1267 44.9977 39.1267C37.5933 39.1267 31.5908 45.2024 31.5908 52.6972C31.5908 60.192 37.5933 66.2677 44.9977 66.2677Z" fill="url(#paint0_linear_338_505)"/>
<path d="M44.9977 64.0828C51.2099 64.0828 56.2459 58.9854 56.2459 52.6973C56.2459 46.4092 51.2099 41.3118 44.9977 41.3118C38.7854 41.3118 33.7494 46.4092 33.7494 52.6973C33.7494 58.9854 38.7854 64.0828 44.9977 64.0828Z" fill="url(#paint1_linear_338_505)"/>
<path d="M46.7105 55.3002C47.9762 55.3002 49.1901 54.7913 50.0851 53.8854C50.9801 52.9794 51.4829 51.7507 51.4829 50.4696C51.4829 49.1884 50.9801 47.9597 50.0851 47.0538C49.1901 46.1479 47.9762 45.6389 46.7105 45.6389H40.8306V55.3002V56.1742H39.7419V58.5492H40.8494V59.7794H44.4908V58.5492H47.5364V56.1742H44.4908V55.3002H46.7105ZM44.5049 49.2014H46.5556C46.8879 49.2014 47.2066 49.335 47.4416 49.5728C47.6765 49.8106 47.8085 50.1332 47.8085 50.4696C47.8085 50.8059 47.6765 51.1285 47.4416 51.3664C47.2066 51.6042 46.8879 51.7378 46.5556 51.7378H44.5049V49.2014Z" fill="url(#paint2_linear_338_505)"/>
<path d="M33.5523 26.2164L26.8512 30.4581V32.3106L26.0816 32.7998V37.0842L32.7827 32.8426V28.8479L33.5523 28.3586V26.2164Z" fill="black"/>
<path d="M44.2187 19.0774L37.5176 23.3191V25.1763L36.748 25.6608V29.9499L43.4491 25.7083V21.7088L44.2187 21.2196V19.0774Z" fill="black"/>
<path d="M54.7771 12L48.076 16.2417V18.0941L47.3064 18.5834V22.8725L54.0075 18.6309V14.6315L54.7771 14.1422V12Z" fill="black"/>
<path d="M53.9934 20.5831L47.2924 24.8248V33.5504C46.5402 33.4587 45.7834 33.4127 45.0258 33.4126C44.4909 33.4126 43.9606 33.4364 43.435 33.4839V27.6747L36.7339 31.9497V35.3648C35.3084 36.0722 33.9763 36.9579 32.7687 38.001V34.7996L26.0676 39.0413V50.3128C26.0676 50.3128 26.1192 51.087 26.1192 52.5453C26.1128 53.0496 26.1347 53.5539 26.1849 54.0557L29.9062 51.5905C30.1473 47.6971 31.845 44.0429 34.6539 41.3718C37.4628 38.7007 41.1718 37.2134 45.0258 37.2126C46.7977 37.2162 48.5549 37.5378 50.2159 38.1625L53.8339 35.7496L53.9934 35.8351V20.5831Z" fill="black"/>
<path d="M60.3567 41.3782L57.7569 43.1119L57.2267 43.4634C58.4474 45.1426 59.317 47.0561 59.7824 49.0871C60.2477 51.118 60.2989 53.2236 59.9329 55.2753C59.567 57.327 58.7915 59.2815 57.6539 61.0195C56.5163 62.7575 55.0404 64.2424 53.3166 65.3834C51.5928 66.5244 49.6572 67.2976 47.6281 67.6558C45.599 68.0139 43.5191 67.9494 41.5155 67.4662C39.5119 66.983 37.6267 66.0913 35.9751 64.8456C34.3235 63.5999 32.9403 62.0263 31.9099 60.2211L28.7612 62.3015C30.0485 64.5529 31.7757 66.515 33.8373 68.068C35.899 69.621 38.2518 70.7322 40.752 71.3338C43.2522 71.9355 45.8474 72.0148 48.3789 71.5671C50.9104 71.1194 53.3252 70.154 55.4758 68.7299C57.6263 67.3057 59.4674 65.4528 60.8867 63.2842C62.3059 61.1156 63.2735 58.6769 63.7303 56.117C64.1871 53.5572 64.1235 50.93 63.5435 48.3958C62.9634 45.8617 61.8791 43.4738 60.3567 41.3782Z" fill="url(#paint3_linear_338_505)"/>
<path d="M26.4148 55.8654C26.5228 56.4639 26.6448 57.0624 26.8043 57.6419L30.1502 55.4284C30.0326 54.8007 29.9542 54.1661 29.9155 53.5284L26.4148 55.8654Z" fill="url(#paint4_linear_338_505)"/>
<path d="M51.985 38.9415C52.542 39.2212 53.0797 39.5386 53.5946 39.8914L56.9357 37.678C56.4664 37.298 55.9972 36.9417 55.4904 36.6045L51.985 38.9415Z" fill="url(#paint5_linear_338_505)"/>
<path d="M58.1933 38.8275L54.9554 40.9745C55.3885 41.3566 55.8005 41.7626 56.1896 42.1904L59.3665 40.091C58.9958 39.6492 58.6016 39.2313 58.1933 38.8275Z" fill="url(#paint6_linear_338_505)"/>
<path d="M30.5678 57.1241L27.3252 59.2616C27.5223 59.8031 27.7429 60.3351 27.9869 60.8528L28.3482 60.6153L31.1638 58.7486C30.935 58.2189 30.7361 57.6766 30.5678 57.1241Z" fill="url(#paint7_linear_338_505)"/>
<defs>
<linearGradient id="paint0_linear_338_505" x1="35.5232" y1="43.1024" x2="54.7068" y2="62.0593" gradientUnits="userSpaceOnUse">
<stop offset="0.06" stop-color="#FDDE2D"/>
<stop offset="0.94" stop-color="#EF9B0E"/>
</linearGradient>
<linearGradient id="paint1_linear_338_505" x1="37.3581" y1="44.9597" x2="53.5636" y2="60.9745" gradientUnits="userSpaceOnUse">
<stop offset="0.28" stop-color="#F9C82F"/>
<stop offset="0.94" stop-color="#F9C731"/>
</linearGradient>
<linearGradient id="paint2_linear_338_505" x1="38.076" y1="48.1991" x2="49.4781" y2="55.9689" gradientUnits="userSpaceOnUse">
<stop stop-color="#F1A314"/>
<stop offset="0.08" stop-color="#F3AB1D"/>
<stop offset="0.28" stop-color="#F8B82D"/>
<stop offset="0.43" stop-color="#F9BD33"/>
<stop offset="0.94" stop-color="#EF9B0E"/>
</linearGradient>
<linearGradient id="paint3_linear_338_505" x1="39.6058" y1="47.2348" x2="63.7859" y2="71.128" gradientUnits="userSpaceOnUse">
<stop offset="0.05" stop-color="#FDDE2D"/>
<stop offset="0.45" stop-color="#F09F10"/>
<stop offset="0.66" stop-color="#EF9B0E"/>
<stop offset="0.82" stop-color="#EF9B0E"/>
</linearGradient>
<linearGradient id="paint4_linear_338_505" x1="26.6964" y1="54.9059" x2="33.0297" y2="57.4645" gradientUnits="userSpaceOnUse">
<stop offset="0.33" stop-color="#FAD227"/>
<stop offset="0.94" stop-color="#EF9B0E"/>
</linearGradient>
<linearGradient id="paint5_linear_338_505" x1="394.575" y1="211.338" x2="441.687" y2="245.706" gradientUnits="userSpaceOnUse">
<stop offset="0.06" stop-color="#FDDE2D"/>
<stop offset="0.94" stop-color="#EF9B0E"/>
</linearGradient>
<linearGradient id="paint6_linear_338_505" x1="55.5701" y1="39.4213" x2="59.7632" y2="42.1673" gradientUnits="userSpaceOnUse">
<stop offset="0.06" stop-color="#FDDE2D"/>
<stop offset="0.89" stop-color="#EF9B0E"/>
</linearGradient>
<linearGradient id="paint7_linear_338_505" x1="28.1042" y1="58.0124" x2="31.1129" y2="60.4418" gradientUnits="userSpaceOnUse">
<stop stop-color="#FDDE2D"/>
<stop offset="0.47" stop-color="#FDDE2D"/>
<stop offset="0.98" stop-color="#EF9B0E"/>
</linearGradient>
</defs>
</svg>
