<svg width="90" height="90" fill="none" xmlns="http://www.w3.org/2000/svg"><circle cx="45" cy="45" r="45" fill="#423AFE"/><g clip-path="url(#a)" fill="#fff"><path d="M62.998 19.585c0-.477-.136-.585-.59-.585-11.27.014-22.537.014-33.799 0-.513 0-.61.135-.61.617.015 8.46.015 16.92 0 25.38-.016 8.46-.016 16.92 0 25.38 0 .415.026.626.554.623a10849.7 10849.7 0 0 1 33.849 0c.484 0 .59-.143.59-.603-.01-16.937-.008-33.875.006-50.812Zm-4.476 47.586a8262.04 8262.04 0 0 0-26.06 0c-.51 0-.62-.138-.617-.626.012-14.365.012-28.73 0-43.096 0-.54.171-.626.661-.626 8.66.016 17.329.016 26.005 0 .52 0 .646.135.643.644-.018 7.165-.018 14.329 0 21.492v21.603c0 .506-.142.612-.632.609Z"/><path d="M37.524 48.253c.394.023.788.023 1.181 0 .564-.07.724.126.765.69.186 2.443 1.458 4.195 3.717 5.149a6.07 6.07 0 0 0 5.562-.483 5.988 5.988 0 0 0 1.98-2.064 5.924 5.924 0 0 0 .79-2.74c0-.45.144-.57.59-.552.906.03 1.816.04 2.722 0 .508-.026.59.16.57.602-.071 3.92-2.76 7.606-6.566 8.952-6.342 2.247-13.141-2.384-13.236-8.995 0-.454.119-.585.564-.556.446.03.907-.003 1.361-.003Z"/></g><defs><clipPath id="a"><path fill="#fff" transform="translate(28 19)" d="M0 0h35v52H0z"/></clipPath></defs></svg>