<svg width="90" height="90" viewBox="0 0 90 90" fill="none" xmlns="http://www.w3.org/2000/svg">
<circle cx="45" cy="45" r="45" fill="#8FC122"/>
<path d="M57.9242 46.7258C58.3697 45.3015 58.8159 43.8758 59.2628 42.4486C59.3168 42.2777 59.3687 42.1069 59.4379 41.9426C59.5558 41.6298 59.7783 41.3674 60.0676 41.1999C60.3568 41.0324 60.6951 40.9701 61.0251 41.0236C61.3431 41.0539 61.6409 41.1928 61.8685 41.4168C62.0961 41.6409 62.2397 41.9365 62.275 42.254C62.4436 43.2833 62.6037 44.3147 62.7788 45.3419C62.9258 46.2068 63.1183 47.0869 63.2632 47.9627C63.3923 48.5772 63.4697 49.2014 63.4946 49.8288C63.4946 50.2786 63.1313 50.7716 62.7312 50.843C62.1301 50.9489 61.6306 50.7068 61.4619 50.1943C61.2089 49.4201 61.157 48.6027 61.0165 47.8156C60.8651 46.968 60.7375 46.1182 60.5234 45.2662C60.2293 46.2349 59.9374 47.2123 59.6412 48.1746C59.4401 48.8233 59.2368 49.4872 59.0271 50.1402C58.9638 50.3605 58.8279 50.5528 58.6414 50.6859C58.4549 50.8191 58.2288 50.8851 57.9999 50.8733C57.4593 50.897 57.0312 50.7089 56.8495 50.1921C56.417 48.9595 56.03 47.714 55.6234 46.4728C55.5022 46.0609 55.3459 45.6601 55.1564 45.2748C55.0093 46.2003 54.8688 47.1258 54.7239 48.0492C54.6401 48.7456 54.5159 49.4366 54.352 50.1186C54.3137 50.3087 54.2175 50.4823 54.0765 50.6155C53.9356 50.7487 53.7568 50.835 53.5648 50.8624C53.355 50.9089 53.1362 50.8927 52.9355 50.8158C52.7348 50.7389 52.5611 50.6048 52.4361 50.43C52.1982 50.1013 52.2198 49.7272 52.2869 49.3488C52.4663 48.22 52.6545 47.0956 52.8383 45.969C53.0372 44.7472 53.2253 43.5233 53.4394 42.3037C53.6232 41.2593 54.4558 40.79 55.4591 41.1101C55.662 41.1773 55.8452 41.2936 55.9923 41.4486C56.1394 41.6037 56.2459 41.7927 56.3024 41.9988L57.708 46.3322C57.7491 46.4598 57.7945 46.5874 57.8377 46.715L57.9242 46.7258Z" fill="white"/>
<path d="M16.6636 46.7496C16.8517 46.1636 17.0269 45.623 17.1977 45.0802C17.5069 44.0985 17.8118 43.1124 18.1362 42.1307C18.3092 41.5533 18.6724 41.1317 19.2887 41.0322C19.5749 40.9717 19.8725 40.9968 20.1444 41.1045C20.4163 41.2122 20.6504 41.3977 20.8175 41.6377C20.9532 41.8453 21.0363 42.0828 21.0597 42.3296C21.4677 44.6593 21.8721 46.9889 22.2728 49.3185C22.4437 50.3067 21.9852 50.9057 21.0965 50.8538C20.8736 50.8512 20.6587 50.7703 20.4895 50.6252C20.3203 50.4801 20.2075 50.2801 20.171 50.0602C19.9072 49.0201 19.812 47.9475 19.6196 46.8923C19.5244 46.3668 19.4423 45.837 19.3536 45.3008C19.213 45.3202 19.226 45.4327 19.2022 45.517C18.7553 46.9889 18.3092 48.4615 17.8637 49.9348C17.6734 50.564 17.3642 50.8343 16.8085 50.8603C16.1057 50.8949 15.7532 50.6981 15.524 50.0148C15.0223 48.5206 14.5574 47.0264 14.0774 45.53C14.0492 45.4413 14.0536 45.3375 13.913 45.2618C13.7379 46.3733 13.5757 47.4761 13.3919 48.5573C13.3325 49.0765 13.2371 49.591 13.1064 50.097C12.9205 50.6851 12.5377 50.936 11.915 50.8495C11.6593 50.8209 11.4236 50.6976 11.2543 50.5039C11.085 50.3102 10.9944 50.0601 11.0003 49.8029C11.0003 49.0677 11.1992 48.3627 11.3073 47.6405C11.5776 45.8738 11.8847 44.1136 12.1723 42.3491C12.2826 41.5901 12.7086 41.0927 13.3573 41.0192C14.2676 40.9154 14.8018 41.2355 15.0872 42.0637C15.5867 43.5773 16.0732 45.091 16.5684 46.6047C16.5946 46.6564 16.6265 46.705 16.6636 46.7496Z" fill="white"/>
<path d="M71.1646 47.0242C71.1646 47.9043 71.1819 48.7844 71.1646 49.6645C71.1451 50.497 70.5158 50.99 69.8066 50.7759C69.6682 50.7338 69.5401 50.6634 69.4303 50.5692C69.3205 50.4751 69.2314 50.3592 69.1687 50.2288C69.1146 50.1272 69.0951 49.991 68.9157 50.1467C67.8842 51.0419 66.6516 51.0938 65.5488 50.3045C64.1843 49.3293 63.8189 47.9432 64.0351 46.3841C64.2514 44.8704 65.0926 43.7892 66.6084 43.3849C67.3306 43.1924 68.0745 43.214 68.6886 43.7936C68.8811 43.9774 69.0951 44.1785 69.3135 43.7373C69.4995 43.3632 70.0163 43.2573 70.4466 43.3935C70.6605 43.4536 70.8479 43.584 70.9786 43.7637C71.1092 43.9434 71.1755 44.1619 71.1667 44.3839C71.1732 45.264 71.1667 46.1441 71.1646 47.0242ZM69.0216 47.1215C69.0072 46.8889 68.9761 46.6577 68.9286 46.4295C68.7816 45.8997 68.4832 45.4781 67.921 45.3483C67.3587 45.2186 66.8095 45.2878 66.4354 45.7981C65.9791 46.4252 65.9835 47.6037 66.39 48.2719C66.7489 48.8644 67.8474 49.1887 68.4464 48.5443C68.8083 48.158 69.0134 47.6508 69.0216 47.1215Z" fill="white"/>
<path d="M42.4307 47.7897C41.8382 47.7897 41.2478 47.7897 40.6553 47.7897C40.3764 47.7897 40.2618 47.82 40.4391 48.1292C40.6538 48.5103 41.0016 48.7987 41.4158 48.9392C41.83 49.0796 42.2815 49.0623 42.6837 48.8903C43.0015 48.7671 43.3086 48.6092 43.62 48.4579C44.1325 48.2157 44.5498 48.2979 44.8266 48.6936C45.1034 49.0893 45.0428 49.5585 44.6255 49.9478C44.2642 50.2685 43.8334 50.5009 43.367 50.6268C41.5981 51.1565 39.6779 50.843 38.6097 49.2666C37.7253 47.9692 37.8183 45.9365 38.826 44.6261C39.2968 44.0307 39.9467 43.6026 40.6797 43.4052C41.4127 43.2078 42.1897 43.2515 42.8959 43.5299C43.6021 43.8083 44.1999 44.3066 44.601 44.9511C45.002 45.5956 45.185 46.352 45.1229 47.1085C45.0839 47.5216 44.8201 47.7573 44.3314 47.7767C43.7 47.794 43.0664 47.7767 42.4328 47.7767L42.4307 47.7897ZM41.6371 46.3257C41.9939 46.3257 42.3507 46.3149 42.7075 46.3257C42.9951 46.3387 43.0361 46.2263 42.9475 45.9819C42.8619 45.7041 42.69 45.4607 42.4567 45.2873C42.2233 45.1139 41.9408 45.0193 41.65 45.0175C41.347 45.0377 41.0572 45.1494 40.819 45.3378C40.5808 45.5262 40.4053 45.7825 40.3159 46.0727C40.2531 46.2674 40.2986 46.3236 40.4845 46.3236L41.6371 46.3257Z" fill="white"/>
<path d="M48.693 47.4199C49.1254 46.3387 49.4974 45.3765 49.8866 44.412C49.9665 44.2075 50.0635 44.01 50.1764 43.8217C50.3092 43.6011 50.5192 43.4376 50.7657 43.3629C51.0122 43.2882 51.2776 43.3076 51.5106 43.4173C51.7486 43.5165 51.9394 43.7032 52.0436 43.9391C52.1479 44.1749 52.1575 44.4417 52.0706 44.6845C51.5408 46.0403 50.9894 47.3832 50.4229 48.726C49.8434 50.1207 49.253 51.509 48.667 52.8994C48.5156 53.2584 48.3448 53.6087 47.9383 53.7406C47.7494 53.8105 47.5444 53.8243 47.3479 53.7801C47.1514 53.736 46.9719 53.6359 46.8311 53.4919C46.4549 53.1243 46.4635 52.681 46.643 52.2312C46.8874 51.6193 47.136 51.0095 47.4215 50.4148C47.48 50.2931 47.5086 50.1591 47.5048 50.0241C47.501 49.889 47.4651 49.7568 47.3999 49.6385C46.7252 48.06 46.0484 46.4836 45.4018 44.8942C45.0623 44.0574 45.5402 43.3135 46.3662 43.3308C46.5602 43.3229 46.7517 43.3763 46.9136 43.4834C47.0755 43.5906 47.1995 43.746 47.2679 43.9276C47.6723 44.9051 48.0659 45.8868 48.4637 46.8642C48.5243 47.0134 48.587 47.1626 48.693 47.4199Z" fill="white"/>
<path d="M29.5969 47.0437C29.6315 48.9206 28.6043 50.337 26.9133 50.763C26.4377 50.8796 25.943 50.8954 25.4609 50.8094C24.9788 50.7234 24.5201 50.5374 24.1142 50.2635C23.7083 49.9896 23.3642 49.6337 23.1041 49.2189C22.8439 48.804 22.6735 48.3393 22.6037 47.8546C22.4264 46.5204 22.6037 45.2597 23.6438 44.2866C24.725 43.2789 25.9813 43.0043 27.3436 43.5427C28.7492 44.0985 29.4823 45.2013 29.5947 46.7085C29.5969 46.8274 29.5969 46.9291 29.5969 47.0437ZM27.5361 47.0739C27.5392 46.8543 27.5086 46.6355 27.4453 46.4252C27.3699 46.1399 27.2144 45.8821 26.9971 45.6825C26.7798 45.4828 26.5099 45.3496 26.2192 45.2986C25.6051 45.2359 25.1553 45.4889 24.8547 46.1333C24.6926 46.4615 24.6148 46.825 24.6284 47.1908C24.642 47.5567 24.7466 47.9133 24.9326 48.2287C25.0242 48.3981 25.1533 48.5444 25.3101 48.6564C25.4669 48.7684 25.6471 48.8431 25.8372 48.8748C26.0272 48.9065 26.2219 48.8944 26.4066 48.8393C26.5912 48.7843 26.7608 48.6879 26.9025 48.5573C27.3458 48.1941 27.5253 47.7075 27.5339 47.0696L27.5361 47.0739Z" fill="white"/>
<path d="M72.4123 47.0696C72.4123 46.2155 72.4123 45.3635 72.4123 44.5093C72.4123 43.7655 72.8902 43.2984 73.5583 43.3438C73.7108 43.34 73.8613 43.3784 73.9933 43.4547C74.1253 43.531 74.2337 43.6423 74.3065 43.7763C74.4233 44.0163 74.5011 44.0098 74.7131 43.852C75.2555 43.4428 75.9271 43.2428 76.605 43.2884C77.2829 43.3341 77.9216 43.6224 78.4043 44.1006C78.8778 44.5785 78.9881 45.1818 78.9924 45.8089C79.0025 47.0328 79.0025 48.2582 78.9924 49.485C78.9924 49.9715 78.947 50.4516 78.4107 50.7046C78.2682 50.7828 78.1088 50.8253 77.9463 50.8284C77.7837 50.8315 77.6228 50.7951 77.4774 50.7224C77.332 50.6497 77.2064 50.5428 77.1113 50.4109C77.0163 50.279 76.9546 50.126 76.9317 49.9651C76.8171 49.2147 76.9014 48.4514 76.8863 47.6967C76.8754 47.2642 76.8863 46.8144 76.8863 46.3755C76.8646 45.6208 76.3738 45.1148 75.6905 45.1213C75.0071 45.1278 74.5271 45.6424 74.5206 46.3971C74.5098 47.3745 74.5206 48.3433 74.5206 49.3293C74.5324 49.6047 74.5025 49.8803 74.4319 50.1467C74.3573 50.3551 74.2165 50.5332 74.031 50.6539C73.8455 50.7746 73.6255 50.8311 73.4048 50.8149C73.1882 50.8167 72.9775 50.7436 72.8085 50.6081C72.6395 50.4726 72.5224 50.2829 72.4771 50.071C72.3323 49.2515 72.4382 48.4233 72.4101 47.5994C72.4101 47.4199 72.4101 47.2404 72.4101 47.061L72.4123 47.0696Z" fill="white"/>
<path d="M30.5591 47.2599C30.5591 46.2176 30.5591 45.3786 30.5591 44.5396C30.5721 43.7719 30.9916 43.3395 31.6749 43.3438C31.827 43.3326 31.9792 43.3646 32.1139 43.4361C32.2485 43.5077 32.3602 43.6159 32.4361 43.7482C32.5658 43.9817 32.6718 44.0185 32.9161 43.8195C33.9519 42.9762 35.7272 43.1362 36.5922 44.1223C36.9068 44.4558 37.0923 44.8904 37.1155 45.3483C37.1739 46.8317 37.1674 48.3195 37.1155 49.805C37.1205 49.9436 37.0961 50.0816 37.0441 50.21C36.992 50.3385 36.9134 50.4545 36.8133 50.5505C36.7133 50.6464 36.5941 50.7202 36.4636 50.7669C36.333 50.8135 36.1941 50.8321 36.0559 50.8214C35.4829 50.8214 35.0656 50.3889 35.0547 49.7402C35.0374 48.6395 35.0547 47.5388 35.0396 46.4382C35.0396 45.6662 34.5725 45.1516 33.8979 45.1407C33.1799 45.1213 32.6761 45.6338 32.6653 46.4382C32.6523 47.4718 32.6653 48.5033 32.6653 49.5347C32.6653 50.0753 32.5637 50.5489 31.9841 50.7716C31.8403 50.8285 31.6853 50.8518 31.5311 50.8398C31.3768 50.8279 31.2273 50.7809 31.0939 50.7026C30.9605 50.6242 30.8467 50.5165 30.7612 50.3875C30.6756 50.2586 30.6206 50.1119 30.6002 49.9586C30.4986 48.9898 30.5894 48.0232 30.5591 47.2599Z" fill="white"/>
</svg>
