<svg width="90" height="90" viewBox="0 0 90 90" fill="none" xmlns="http://www.w3.org/2000/svg">
<g clip-path="url(#clip0_3056_394)">
<circle cx="45" cy="45" r="45" fill="#F5F5F5"/>
<path d="M29 45C27.6667 44.6666 23.5141 43.9858 22 45.5C20.5 47 19 47.4999 17.5 47.4999" stroke="black"/>
<path fill-rule="evenodd" clip-rule="evenodd" d="M48.7057 29.7472C48.7521 29.7433 48.7991 29.7413 48.8465 29.7413H50.8315C50.8779 29.7413 50.9239 29.7432 50.9693 29.747L49.8376 26.3165L48.7057 29.7472ZM52.309 30.6509C52.3007 30.6025 52.2886 30.5539 52.2726 30.5055L50.7801 25.9815C50.4803 25.0728 49.1949 25.0728 48.8951 25.9815L47.4025 30.5055C47.3856 30.5568 47.3731 30.6083 47.3647 30.6595C47.2544 30.8812 47.1924 31.1311 47.1924 31.3955V32.0571C47.1924 32.4426 47.3242 32.7972 47.5452 33.0784C46.7794 33.2232 46.2002 33.8958 46.2002 34.7037V35.3654C46.2002 36.279 46.9408 37.0195 47.8543 37.0195H51.8243C52.7378 37.0195 53.4784 36.279 53.4784 35.3654V34.7037C53.4784 33.8956 52.8989 33.2229 52.1328 33.0783C52.3538 32.7971 52.4856 32.4425 52.4856 32.0571V31.3955C52.4856 31.1276 52.422 30.8747 52.309 30.6509ZM51.4856 31.797V32.0571C51.4856 32.4184 51.1928 32.7112 50.8315 32.7112H48.8465C48.4852 32.7112 48.1924 32.4184 48.1924 32.0571V31.7974C48.2419 31.805 48.2929 31.8089 48.3451 31.8089H51.3301C51.3832 31.8089 51.4352 31.8048 51.4856 31.797ZM51.1214 30.8089H48.5566C48.644 30.7656 48.7424 30.7413 48.8465 30.7413H50.8315C50.9356 30.7413 51.034 30.7656 51.1214 30.8089ZM51.8243 34.0496H47.8543C47.4931 34.0496 47.2002 34.3425 47.2002 34.7037V35.3654C47.2002 35.7267 47.4931 36.0195 47.8543 36.0195H51.8243C52.1855 36.0195 52.4784 35.7267 52.4784 35.3654V34.7037C52.4784 34.3425 52.1855 34.0496 51.8243 34.0496Z" fill="black"/>
<path d="M26.4277 42.7297C25.2146 40.7447 23.1197 37.4364 19.9765 36.444C17.0683 35.5257 13.1515 35.8122 12.2021 39.4214C11.3753 42.5643 13.2498 44.7077 14.849 45.7071C16.1723 46.5342 19.143 47.2164 19 45.5C18.8346 43.515 19.3421 44.4962 20.5 44" stroke="black" stroke-width="2"/>
<path fill-rule="evenodd" clip-rule="evenodd" d="M46.5706 59.391C43.924 58.8396 38.2999 57.2406 34.33 53.1053C31.6975 50.3631 30.3169 48.0474 29.4546 46.6011C28.8831 45.6426 28.5393 45.0659 28.2096 45C27.3826 44.8346 23.2472 44.5038 22.4202 44.8346C22.1524 44.9417 21.7979 45.2915 21.3568 45.7269C20.4354 46.6364 19.1357 47.9191 17.4578 48.1429C14.9766 48.4737 11.4418 47.5242 9.68337 44.0075C8.19458 41.0301 9.02168 35.7368 13.3224 33.7519C17.0771 32.0189 21.7585 32.594 25.0668 35.0752C25.6169 35.4878 26.1488 35.9095 26.673 36.3252C29.301 38.4093 31.7369 40.3409 35.3224 40.203C39.3783 40.047 43.4559 37.2775 44.5803 36.5139C44.6482 36.4678 44.7053 36.429 44.751 36.3985C45.7435 35.7368 52.0292 35.7368 53.1871 36.3985C53.5402 36.6003 53.9241 37.0174 54.381 37.5139C55.4222 38.6454 56.8426 40.1889 59.142 40.5338C60.7778 40.7792 66.0894 40.203 65.7585 39.0451C65.5879 38.4478 64.87 38.2211 64.1565 37.9958C63.4869 37.7844 62.8213 37.5743 62.6157 37.0601C62.2849 36.2331 63.924 34.9181 66.751 35.0752C68.5264 35.1738 72.2332 35.5077 75.0477 35.7612C76.9532 35.9329 78.4496 36.0677 78.6608 36.0677C79.3225 36.0677 79.6533 36.5639 78.9916 36.8947C78.8182 36.9815 78.497 37.0795 78.0995 37.2009C76.9807 37.5426 75.2578 38.0687 74.5255 39.0451C74.3226 39.3156 73.9567 39.885 73.4831 40.6219C72.0889 42.7916 69.761 46.4142 67.9089 48.1429C65.4277 50.4587 62.2849 53.3435 57.9841 55.7519C55.3595 57.2216 53.0126 58.4415 51.6866 59.1308C51.3412 59.3103 51.065 59.4538 50.8713 59.5564V62.203L53.3525 67H44.9164L47.0668 62.203V59.5564L46.5706 59.391ZM26.058 42.0225C24.845 40.0376 22.7501 36.7293 19.6069 35.7368C16.6987 34.8186 12.7819 35.105 11.8324 38.7143C11.0057 41.8571 12.8802 44.0005 14.4793 45C15.8027 45.827 18.0958 46.2201 17.9528 44.5038C17.9166 44.0688 17.8645 43.6736 17.8173 43.3163C17.6495 42.0431 17.5452 41.2521 18.4494 40.8646C19.6072 40.3684 21.2611 40.8646 23.2461 41.8571C25.231 42.8496 26.885 43.5113 26.058 42.0225Z" fill="url(#paint0_linear_3056_394)"/>
<path d="M44.9157 48.1428C36.6233 46.9849 30.3592 41.3608 28.0435 37.3909L28.0435 37.3909C29.0911 38.3834 31.1863 40.3683 33.1713 41.857C36.4796 44.3382 41.2766 45.9924 43.7578 46.654C46.239 47.3157 51.51 47.1876 54.0134 46.8194C59.6375 45.9924 64.7653 44.1177 67.4119 42.3533C69.4719 40.9799 69.5623 39.5412 68.7352 37.8871C68.1317 36.6801 66.7503 35.461 65.9232 35.0751H67.2465C68.2941 35.5713 70.0743 36.5953 70.7202 37.8871C71.8781 40.2029 70.5548 41.857 68.0736 43.6766C65.5924 45.4961 54.6697 49.5048 44.9157 48.1428Z" fill="#090F04"/>
<rect x="46.7002" y="33.68" width="6.2782" height="2.96993" rx="1.15414" stroke="black"/>
<path d="M48.4385 25.8568C48.7383 24.9481 50.0237 24.9481 50.3235 25.8568L51.8161 30.3808C52.0279 31.0229 51.5497 31.6842 50.8735 31.6842H47.8885C47.2124 31.6842 46.7342 31.0229 46.946 30.3808L48.4385 25.8568Z" fill="#DC9C57"/>
<rect x="45.7437" y="32.9249" width="7.2782" height="3.96993" rx="1.65414" fill="url(#paint1_linear_3056_394)"/>
<rect x="46.7358" y="29.6166" width="5.29324" height="3.96993" rx="1.65414" fill="url(#paint2_linear_3056_394)"/>
</g>
<defs>
<linearGradient id="paint0_linear_3056_394" x1="49.2172" y1="33.7519" x2="49.2172" y2="67" gradientUnits="userSpaceOnUse">
<stop stop-color="#FFD357"/>
<stop offset="0.466374" stop-color="#FFCD3A"/>
<stop offset="0.71935" stop-color="#E9AB34"/>
<stop offset="0.956026" stop-color="#E6A144"/>
</linearGradient>
<linearGradient id="paint1_linear_3056_394" x1="49.3828" y1="30.7745" x2="49.3828" y2="37.8873" gradientUnits="userSpaceOnUse">
<stop stop-color="#DC9C57"/>
<stop offset="1" stop-color="#F3BB66"/>
</linearGradient>
<linearGradient id="paint2_linear_3056_394" x1="49.3825" y1="29.6166" x2="49.3825" y2="33.5866" gradientUnits="userSpaceOnUse">
<stop stop-color="#DC9C57"/>
<stop offset="1" stop-color="#E3A55C"/>
</linearGradient>
<clipPath id="clip0_3056_394">
<rect width="90" height="90" fill="white"/>
</clipPath>
</defs>
</svg>
