<svg width="90" height="90" fill="none" xmlns="http://www.w3.org/2000/svg"><circle cx="45" cy="45" r="45" fill="#8FC122"/><path d="m57.924 46.726 1.339-4.277c.054-.171.106-.342.175-.506a1.449 1.449 0 0 1 1.587-.92 1.39 1.39 0 0 1 1.25 1.231c.169 1.03.329 2.06.504 3.088.147.865.34 1.745.484 2.62.13.615.207 1.24.232 1.867 0 .45-.364.943-.764 1.014-.6.106-1.1-.136-1.27-.649-.252-.774-.304-1.591-.444-2.378-.152-.848-.28-1.698-.494-2.55-.294.969-.586 1.946-.882 2.909-.2.648-.404 1.312-.614 1.965a1.014 1.014 0 0 1-1.027.733c-.54.024-.969-.164-1.15-.68-.433-1.233-.82-2.479-1.227-3.72a7.532 7.532 0 0 0-.467-1.198c-.147.925-.287 1.85-.432 2.774a18.122 18.122 0 0 1-.372 2.07.938.938 0 0 1-.787.743 1.096 1.096 0 0 1-1.129-.432c-.238-.329-.216-.703-.15-1.081.18-1.129.368-2.253.552-3.38.2-1.222.387-2.446.601-3.665.184-1.045 1.017-1.514 2.02-1.194a1.298 1.298 0 0 1 .843.889l1.406 4.333c.041.128.087.255.13.383l.086.01ZM16.664 46.75c.188-.586.363-1.127.534-1.67.309-.981.614-1.968.938-2.95.173-.577.536-.998 1.153-1.098a1.488 1.488 0 0 1 1.528.606c.136.207.22.445.243.692.408 2.33.812 4.659 1.213 6.989.17.988-.288 1.587-1.177 1.535a.95.95 0 0 1-.925-.794c-.264-1.04-.359-2.113-.551-3.168-.096-.525-.178-1.055-.266-1.591-.141.02-.128.132-.152.216-.447 1.472-.893 2.944-1.338 4.418-.19.629-.5.9-1.056.925-.702.035-1.055-.162-1.284-.845-.502-1.494-.967-2.989-1.447-4.485-.028-.089-.023-.193-.164-.268-.175 1.111-.337 2.214-.521 3.295-.06.52-.155 1.034-.286 1.54-.185.588-.568.839-1.191.752A1.03 1.03 0 0 1 11 49.803c0-.735.2-1.44.307-2.162.27-1.767.578-3.527.865-5.292.11-.759.537-1.256 1.185-1.33.91-.104 1.445.217 1.73 1.045.5 1.513.986 3.027 1.481 4.54.027.052.058.101.096.146ZM71.165 47.024c0 .88.017 1.76 0 2.64-.02.833-.65 1.326-1.358 1.112a1.045 1.045 0 0 1-.638-.547c-.054-.102-.074-.238-.253-.082-1.032.895-2.264.947-3.367.157-1.365-.975-1.73-2.36-1.514-3.92.216-1.514 1.058-2.595 2.573-3 .723-.192 1.466-.17 2.08.41.193.183.407.385.626-.057.186-.374.702-.48 1.133-.343a.988.988 0 0 1 .72.99c.006.88 0 1.76-.002 2.64Zm-2.143.097a4.873 4.873 0 0 0-.093-.692c-.147-.53-.446-.95-1.008-1.08-.562-.13-1.112-.061-1.486.45-.456.626-.451 1.805-.045 2.473.359.592 1.457.917 2.056.272a2.13 2.13 0 0 0 .576-1.422ZM42.43 47.79h-1.775c-.279 0-.393.03-.216.34a1.776 1.776 0 0 0 2.245.76c.318-.123.625-.28.936-.432.513-.242.93-.16 1.207.236.276.395.216.864-.201 1.254-.362.32-.793.553-1.259.679-1.769.53-3.69.216-4.757-1.36-.885-1.298-.792-3.33.216-4.64a3.535 3.535 0 0 1 6.297 2.481c-.04.414-.303.65-.792.669-.631.017-1.265 0-1.898 0l-.002.013Zm-.793-1.464c.357 0 .714-.011 1.07 0 .288.013.33-.1.24-.344a1.367 1.367 0 0 0-1.297-.965 1.5 1.5 0 0 0-1.334 1.056c-.063.194-.017.25.168.25l1.153.003ZM48.693 47.42c.432-1.081.804-2.044 1.194-3.008.08-.204.176-.402.29-.59a1.04 1.04 0 0 1 1.334-.405 1.005 1.005 0 0 1 .56 1.267 163.268 163.268 0 0 1-1.648 4.042c-.58 1.395-1.17 2.783-1.756 4.173-.151.36-.322.71-.729.842a1.042 1.042 0 0 1-1.107-.25c-.376-.367-.367-.81-.188-1.26.244-.612.493-1.221.779-1.816a.847.847 0 0 0-.022-.776c-.675-1.579-1.352-3.155-1.998-4.745-.34-.837.138-1.58.964-1.563a.924.924 0 0 1 .902.597c.404.977.798 1.959 1.196 2.936.06.15.123.299.229.556ZM29.597 47.044c.034 1.877-.993 3.293-2.684 3.719a3.51 3.51 0 0 1-4.31-2.908c-.177-1.335 0-2.595 1.04-3.568 1.082-1.008 2.338-1.283 3.7-.744 1.406.556 2.14 1.658 2.252 3.166.002.118.002.22.002.335Zm-2.06.03a2.146 2.146 0 0 0-.092-.649A1.544 1.544 0 0 0 26.22 45.3c-.614-.063-1.064.19-1.364.834a2.203 2.203 0 0 0 .078 2.096 1.265 1.265 0 0 0 1.97.328c.443-.363.622-.85.63-1.487l.003.004ZM72.412 47.07v-2.56c0-.744.478-1.212 1.146-1.166a.828.828 0 0 1 .748.432c.117.24.195.234.407.076a2.826 2.826 0 0 1 3.691.249c.474.477.584 1.08.588 1.708.01 1.224.01 2.45 0 3.676 0 .486-.045.967-.581 1.22a1.005 1.005 0 0 1-1.48-.74c-.114-.75-.03-1.514-.045-2.268-.01-.433 0-.883 0-1.322-.021-.754-.512-1.26-1.195-1.254-.684.007-1.164.521-1.17 1.276-.011.977 0 1.946 0 2.932.011.276-.019.551-.09.818a1.012 1.012 0 0 1-1.026.668.941.941 0 0 1-.928-.744c-.145-.82-.039-1.648-.067-2.472v-.538l.002.009ZM30.56 47.26v-2.72c.012-.768.432-1.2 1.115-1.196a.81.81 0 0 1 .761.404c.13.234.236.27.48.072 1.036-.844 2.811-.684 3.676.302.315.334.5.768.523 1.226a60.045 60.045 0 0 1 0 4.457.984.984 0 0 1-1.06 1.016c-.572 0-.99-.432-1-1.08-.018-1.102 0-2.202-.015-3.303 0-.772-.468-1.286-1.142-1.297-.718-.02-1.222.493-1.233 1.297-.013 1.034 0 2.065 0 3.097 0 .54-.101 1.014-.68 1.237a1.017 1.017 0 0 1-1.385-.813c-.101-.97-.01-1.936-.04-2.7Z" fill="#fff"/></svg>