<svg width="90" height="90" viewBox="0 0 90 90" fill="none" xmlns="http://www.w3.org/2000/svg">
<g clip-path="url(#clip0_3209_461)">
<circle cx="45" cy="45" r="45" fill="#F5F5F5"/>
<path d="M35.4926 32.3511V49.8208H37.6084C39.0189 49.8208 40.0196 50.0972 40.6105 50.65C41.2205 51.1837 41.5255 51.8889 41.5255 52.7657C41.5255 53.6235 41.2205 54.3288 40.6105 54.8816C40.0196 55.4153 39.0189 55.6822 37.6084 55.6822H29.9171C28.5066 55.6822 27.5059 55.4153 26.915 54.8816C26.305 54.3288 26 53.6139 26 52.7371C26 51.8795 26.2955 51.1837 26.8864 50.65C27.4773 50.0972 28.3922 49.8208 29.6312 49.8208V26.89C28.6019 26.7947 27.8204 26.4801 27.2867 25.9464C26.772 25.4127 26.5147 24.7456 26.5147 23.945C26.5147 23.0681 26.8101 22.3629 27.401 21.8292C28.011 21.2764 29.0212 21 30.4318 21L36.865 21.0286L44.8421 38.6698L52.6765 21L59.1669 21.0286C60.5772 21.0286 61.578 21.2954 62.169 21.8292C62.779 22.3629 63.084 23.0681 63.084 23.945C63.084 24.7456 62.8171 25.4127 62.2832 25.9464C61.7495 26.4801 60.9776 26.7947 59.9674 26.89V49.8208C61.2063 49.8208 62.1213 50.0972 62.7122 50.65C63.3031 51.2028 63.5986 51.9079 63.5986 52.7657C63.5986 53.6235 63.2936 54.3288 62.6836 54.8816C62.0927 55.4153 61.092 55.6822 59.6815 55.6822H51.9616C50.5701 55.6822 49.5694 55.4153 48.9595 54.8816C48.3685 54.3288 48.0731 53.6139 48.0731 52.7371C48.0731 51.8795 48.3685 51.1837 48.9595 50.65C49.5694 50.0972 50.5701 49.8208 51.9616 49.8208H54.1059V32.3511L47.3868 47.4476H42.2974L35.4926 32.3511Z" fill="#A80011"/>
<path d="M26.2671 68.23H63.074" stroke="#A80011" stroke-width="5.01913"/>
</g>
<defs>
<clipPath id="clip0_3209_461">
<rect width="90" height="90" fill="white"/>
</clipPath>
</defs>
</svg>
