<svg xmlns="http://www.w3.org/2000/svg" width="90" height="90" fill="none"><g clip-path="url(#a)"><circle cx="45" cy="45" r="45" fill="#F5F5F5"/><path fill="url(#b)" d="M76.364 32.127C76.59 28.76 75.448 26 73.83 26H20.112c-1.625 0-3.142 2.759-3.37 6.127l-.12 1.79h59.62l.121-1.79Z"/><path fill="url(#c)" d="M15.52 40.487h60.96l-2.462 17.508C73.535 61.297 70.455 64 67.15 64H18.205c-3.286 0-5.61-2.703-5.146-6.005l1.132-8.063h12.98a2.466 2.466 0 1 0 0-4.932H14.9l.62-4.513Zm6.05 16.487a2.474 2.474 0 0 0-2.467-2.474h-.17a2.465 2.465 0 1 0 0 4.932h.17a2.478 2.478 0 0 0 2.466-2.458Zm24.308 0a2.471 2.471 0 0 0-2.466-2.474H27.253a2.465 2.465 0 1 0 0 4.932h16.159a2.474 2.474 0 0 0 2.466-2.458Zm-13.063-9.5a2.474 2.474 0 0 0 2.466 2.466h9.84a2.47 2.47 0 1 0 0-4.94h-9.84a2.474 2.474 0 0 0-2.466 2.466v.008Z"/></g><defs><linearGradient id="b" x1="46.23" x2="49.441" y1="39.285" y2="21.555" gradientUnits="userSpaceOnUse"><stop stop-color="#E54581"/><stop offset="1" stop-color="#FF7B4B"/></linearGradient><linearGradient id="c" x1="52.575" x2="92.598" y1="84.698" y2="15.375" gradientUnits="userSpaceOnUse"><stop offset=".2" stop-color="#55D5E1"/><stop offset="1" stop-color="#6690D0"/></linearGradient><clipPath id="a"><path fill="#fff" d="M0 0h90v90H0z"/></clipPath></defs></svg>