<svg width="90" height="90" fill="none" xmlns="http://www.w3.org/2000/svg"><g clip-path="url(#a)"><circle cx="45" cy="45" r="45" fill="#F5F5F5"/><path d="M29.208 36.125c-2.854-1.297-7.777-1.944-10.208-1.458 2.755 5.833 9.722 18.472 13.125 25.763 4.696 10.064 8.521 8.45 11.227 8.215 3.136-.273 7.73-9.673 8.217-11.618.486-1.944-9.722-10.694-11.18-12.152-.769-.769-5.834-6.32-11.18-8.75Z" fill="url(#b)"/><path d="M32.61 52.652c-.971.486-2.947.464-4.081.464 1.458 3.403 6.117 13.764 9.411 15.058 5.69 2.236 7.882-.353 10.353-4.352L70.527 23c-2.43.162-7.014.43-9.722.972-6.587 1.318-11.18 5.347-12.153 6.32-2.916 2.916-7.897 10.873-8.75 12.152-.972 1.459-4.646 8.886-7.291 10.208Z" fill="url(#c)"/></g><defs><linearGradient id="b" x1="12.681" y1="29.319" x2="61.777" y2="88.624" gradientUnits="userSpaceOnUse"><stop offset=".134" stop-color="#25B78F"/><stop offset=".497" stop-color="#0C8950"/><stop offset=".795" stop-color="#0FD29B"/></linearGradient><linearGradient id="c" x1="65.18" y1="27.861" x2="34.069" y2="71.124" gradientUnits="userSpaceOnUse"><stop offset=".102" stop-color="#0CC88E"/><stop offset=".447" stop-color="#07E0A3"/><stop offset=".984" stop-color="#0ED39B" stop-opacity=".64"/></linearGradient><clipPath id="a"><path fill="#fff" d="M0 0h90v90H0z"/></clipPath></defs></svg>