<svg xmlns="http://www.w3.org/2000/svg" width="90" height="90" fill="none"><g clip-path="url(#a)"><circle cx="45" cy="45" r="45" fill="#F5F5F5"/><mask id="b" width="54" height="52" x="17" y="19" maskUnits="userSpaceOnUse" style="mask-type:luminance"><path fill="#fff" d="M70.3 19H17v52h53.3V19Z"/></mask><g mask="url(#b)"><path fill="url(#c)" d="m62.716 19.523-1.606.087-.802.087c-.258.03-.516.058-.775.087-.514.088-1.03.146-1.547.262-.516.116-1.003.203-1.52.348a34.066 34.066 0 0 0-5.702 2.005c-3.64 1.627-6.936 3.776-9.889 6.275-2.952 2.498-5.56 5.345-7.71 8.511-1.06 1.57-2.034 3.225-2.808 4.939-.803 1.714-1.462 3.486-1.863 5.287a54.368 54.368 0 0 1 3.669-4.038 49.48 49.48 0 0 1 3.926-3.515 59.166 59.166 0 0 1 4.156-3.08 56.254 56.254 0 0 1 4.357-2.643c2.952-1.598 6.018-2.905 9.085-3.834.23-.058.459-.117.688-.204a356.467 356.467 0 0 0-3.669 7.437l-.945 1.947-.918 1.946c-.315.639-.602 1.307-.917 1.975l-.888 1.947c-.487 1.133-1.09 2.236-1.749 3.34a32.751 32.751 0 0 1-2.12 3.225c-.373.523-.774 1.046-1.176 1.569-.43.494-.802 1.017-1.26 1.51-.43.494-.86.988-1.32 1.482-.458.465-.916.959-1.375 1.423-.23.233-.459.465-.716.697-.23.233-.488.465-.717.698l-.745.668c-.258.232-.516.436-.745.668a44.733 44.733 0 0 1-3.153 2.528c-1.09.813-2.207 1.597-3.382 2.294a47.795 47.795 0 0 1-3.583 2.034 35.033 35.033 0 0 1-3.84 1.685c-1.319.494-2.695.93-4.128 1.278 1.433.349 2.924.494 4.414.523 1.49.029 3.01-.087 4.5-.29 1.49-.233 2.98-.552 4.442-.988l1.09-.32c.372-.116.716-.261 1.089-.377a11.49 11.49 0 0 0 1.06-.407c.344-.145.717-.29 1.06-.436 1.405-.581 2.78-1.278 4.128-2.034a42.094 42.094 0 0 0 3.898-2.469c1.26-.871 2.493-1.859 3.669-2.876a30.46 30.46 0 0 0 1.72-1.598c.544-.552 1.117-1.103 1.633-1.713a42.56 42.56 0 0 0 3.038-3.719 40.08 40.08 0 0 0 2.609-4.125l1.03-1.917c.345-.64.66-1.279 1.004-1.918l1.004-1.917.974-1.917a387.2 387.2 0 0 0 7.481-15.6L70.196 19l-7.48.523Z"/><path fill="url(#d)" d="M59.419 42.008a388.78 388.78 0 0 0 6.334-13.073c-4.786-.29-8.627.32-11.665 1.278l.258-.087a356.218 356.218 0 0 0-3.669 7.437l-.946 1.947-.917 1.946c-.315.639-.602 1.307-.917 1.975l-.889 1.947c-.487 1.133-1.089 2.236-1.748 3.34a32.758 32.758 0 0 1-2.12 3.225c-.373.523-.775 1.046-1.176 1.569-.43.494-.803 1.017-1.261 1.51-.43.494-.86.988-1.318 1.482-.46.465-.918.959-1.376 1.423-.23.233-.459.465-.717.698-.229.232-.487.464-.716.697l-.745.668c-.258.232-.516.436-.746.668a44.728 44.728 0 0 1-3.152 2.527c-1.09.814-2.207 1.598-3.383 2.296a47.86 47.86 0 0 1-3.582 2.033 35.003 35.003 0 0 1-3.84 1.685c-1.32.494-2.695.93-4.128 1.278 1.433.349 2.923.494 4.414.523 1.49.03 3.01-.087 4.5-.29a33.77 33.77 0 0 0 4.442-.988l1.09-.32c.372-.116.716-.261 1.088-.377.373-.117.717-.262 1.06-.407.345-.145.717-.29 1.061-.436 1.405-.58 2.78-1.278 4.128-2.033a42.117 42.117 0 0 0 3.898-2.47c1.26-.871 2.493-1.859 3.668-2.876a30.534 30.534 0 0 0 1.72-1.597c.544-.552 1.118-1.104 1.634-1.714a42.583 42.583 0 0 0 3.038-3.719 39.92 39.92 0 0 0 2.608-4.125l1.032-1.917c.344-.64.659-1.278 1.003-1.918l1.003-1.917 1.032-1.888Z"/></g></g><defs><linearGradient id="c" x1="73.963" x2="12.894" y1="24.866" y2="63.994" gradientUnits="userSpaceOnUse"><stop stop-color="#89E8FF"/><stop offset=".402" stop-color="#00E0D3"/><stop offset=".496" stop-color="#00DAD8"/><stop offset=".62" stop-color="#00C9E7"/><stop offset=".683" stop-color="#00BEF1"/></linearGradient><linearGradient id="d" x1="43.385" x2="39.328" y1="26.95" y2="72.694" gradientUnits="userSpaceOnUse"><stop stop-color="#0088AB"/><stop offset=".03" stop-color="#0095B2"/><stop offset=".105" stop-color="#00B0C2"/><stop offset=".172" stop-color="#00C0CC"/><stop offset=".224" stop-color="#00C6CF"/><stop offset=".326" stop-color="#00C2D0"/><stop offset=".426" stop-color="#00B6D4"/><stop offset=".525" stop-color="#00A3DA"/><stop offset=".592" stop-color="#0091E0"/><stop offset=".682" stop-color="#0095E1"/><stop offset=".769" stop-color="#00A0E6"/><stop offset=".854" stop-color="#00B4EC"/><stop offset=".938" stop-color="#00CFF6"/><stop offset="1" stop-color="#00E8FF"/></linearGradient><clipPath id="a"><path fill="#fff" d="M0 0h90v90H0z"/></clipPath></defs></svg>