<svg width="90" height="90" viewBox="0 0 90 90" fill="none" xmlns="http://www.w3.org/2000/svg">
<g clip-path="url(#clip0_3210_1365)">
<circle cx="45" cy="45" r="45" fill="#F5F5F5"/>
<path fill-rule="evenodd" clip-rule="evenodd" d="M21 21H49.8557L48.4987 25.2744C47.2948 25.0464 46.0524 24.9271 44.7821 24.9271C33.8168 24.9271 24.9276 33.8163 24.9276 44.7817C24.9276 53.8359 30.9882 61.4746 39.274 63.8622L38.0609 69H21V21Z" fill="#BCCE18"/>
<path d="M42.9951 55.8674C40.1708 55.6172 37.5616 54.2552 35.7414 52.0811C33.9213 49.907 33.0394 47.0989 33.2897 44.2746C33.54 41.4502 34.902 38.841 37.0761 37.0209C39.2501 35.2007 42.0582 34.3188 44.8826 34.5691L43.9388 45.2183L42.9951 55.8674Z" fill="#E4087F"/>
<path d="M27.6725 47.0707C27.1852 48.976 27.3542 50.9899 28.1523 52.7873C28.9503 54.5847 30.3307 56.0608 32.0708 56.9772L34.3516 52.6464C33.5853 52.2428 32.9773 51.5927 32.6259 50.8011C32.2744 50.0095 32.2 49.1226 32.4146 48.2835L27.6725 47.0707Z" fill="#E4087F"/>
<path d="M32.387 33.1866C33.1406 31.3701 34.4844 29.8606 36.2015 28.9017C37.9185 27.9429 39.9086 27.5906 41.8504 27.9018L41.0758 32.7349C40.2206 32.5978 39.3441 32.7529 38.5879 33.1752C37.8317 33.5975 37.2399 34.2623 36.908 35.0623L32.387 33.1866Z" fill="#E4087F"/>
<path d="M61.9407 42.5146C62.2605 40.5741 61.917 38.5825 60.9657 36.8613C60.0145 35.1401 58.5109 33.7896 56.6978 33.028L54.8021 37.5407C55.6006 37.8761 56.2628 38.4709 56.6818 39.2289C57.1007 39.987 57.252 40.8641 57.1111 41.7187L61.9407 42.5146Z" fill="#BCCE18"/>
<path d="M57.063 57.3965C56.1542 59.1405 54.6843 60.5275 52.8904 61.3334C51.0965 62.1393 49.0833 62.3172 47.1759 61.8383L48.3678 57.091C49.2078 57.3019 50.0945 57.2235 50.8845 56.8686C51.6746 56.5136 52.3219 55.9028 52.7222 55.1347L57.063 57.3965Z" fill="#BCCE18"/>
<path d="M44.3355 55.8794C47.1603 56.1241 49.9667 55.2366 52.1372 53.4122C54.3076 51.5877 55.6645 48.9758 55.9092 46.151C56.1539 43.3262 55.2664 40.5198 53.442 38.3493C51.6176 36.1788 49.0056 34.822 46.1808 34.5773L45.2582 45.2283L44.3355 55.8794Z" fill="#BCCE18"/>
<path fill-rule="evenodd" clip-rule="evenodd" d="M53.7414 21L52.1557 26.3413C59.4701 29.2686 64.6369 36.4218 64.6369 44.7817C64.6369 55.747 55.7477 64.6362 44.7823 64.6362C44.2908 64.6362 43.8034 64.6184 43.3208 64.5833L42.3369 69H69.0002V21H53.7414Z" fill="#E4087F"/>
</g>
<defs>
<clipPath id="clip0_3210_1365">
<rect width="90" height="90" fill="white"/>
</clipPath>
</defs>
</svg>
