<svg width="90" height="90" viewBox="0 0 90 90" fill="none" xmlns="http://www.w3.org/2000/svg">
<g clip-path="url(#clip0_3210_1750)">
<circle cx="45" cy="45" r="45" fill="#9CB85E"/>
<path d="M21.3858 42.652C27.4544 33.2628 34.439 28.3392 40.9656 28.5682C41.0802 30.4002 40.3931 32.5757 39.9351 33.6063C39.4939 34.5989 38.4465 37.4993 34.21 39.2169C32.3297 39.9792 28.4849 40.9344 26.1949 44.713C23.4885 49.1786 25.5079 49.5221 20.8133 53.4151C18.221 55.5648 14.6302 57.5372 13.5996 58.3387C12.5333 59.168 11.4242 60.0562 12.3401 58.4532C13.0241 57.256 14.553 53.2234 21.3858 42.652Z" fill="white" stroke="white" stroke-width="0.229003" stroke-linecap="round"/>
<path d="M64.6679 24.6749C58.0726 23.5757 51.6146 22.8429 48.1796 25.1329C47.378 25.5909 54.0191 28.6825 58.8283 29.255C62.9504 29.7457 74.973 28.2244 76.0036 28.2244C77.0341 28.2244 77.7211 27.8809 77.3776 27.5374C77.0341 27.1939 72.912 26.0489 64.6679 24.6749Z" fill="white" stroke="white" stroke-width="0.229003" stroke-linecap="round"/>
<path d="M43.8288 26.3925C43.8288 26.8506 41.7678 28.1101 40.7373 28.6826L39.8213 29.9421C40.2029 29.9039 41.9995 29.0243 42.3403 28.7971C44.4013 27.4231 44.7448 26.965 45.2028 26.8505C45.6609 26.736 46.0744 26.9834 46.5769 27.4231C49.3249 29.8276 49.5539 32.4611 50.2409 32.5756C50.9279 32.6901 53.676 33.7206 49.6684 28.6826C49.1068 27.9766 46.615 25.5529 46.3479 25.133L49.3249 25.591C49.5539 25.591 61.1186 25.7055 59.7446 25.2475C58.3324 24.7768 47.4929 25.2475 45.4319 24.5605C44.2569 24.1689 34.6687 21.1255 33.6382 21.011C32.6077 20.8965 32.0352 21.698 32.3787 22.4995C32.7222 23.301 43.8288 25.82 43.8288 26.3925Z" fill="white" stroke="white" stroke-width="0.229003" stroke-linecap="round"/>
<path fill-rule="evenodd" clip-rule="evenodd" d="M50.4973 64.895C57.9564 64.7262 63.8243 56.6832 63.6037 46.9304C63.383 37.1775 57.1574 29.4081 49.6983 29.5768C42.2392 29.7455 36.3713 37.7886 36.592 47.5414C36.8126 57.2943 43.0382 65.0637 50.4973 64.895ZM38.4527 46.6147C38.7145 48.5574 39.3939 53.5988 41.7681 56.163C43.5818 58.1218 45.6458 59.0671 47.1942 59.7763C48.507 60.3776 49.4491 60.8091 49.5542 61.5446C49.7009 62.571 48.8809 63.4947 46.6916 62.9186C44.5161 62.3461 41.9152 60.3146 39.8215 56.9645C38.6765 55.1325 38.1221 52.27 37.9895 51.0104C37.7604 48.8349 37.9895 44.8274 38.3331 45.8578C38.3627 45.9467 38.3989 46.2152 38.4527 46.6147Z" fill="white"/>
<path fill-rule="evenodd" clip-rule="evenodd" d="M34.6987 40.3637C34.9247 40.3586 35.1492 40.3637 35.372 40.3787C35.8375 40.5405 36.0934 40.9167 35.957 41.6217C35.27 45.1712 35.5858 50.3064 35.957 52.3848C36.6893 56.4858 39.008 59.7284 40.4019 61.3858C40.3206 61.5049 40.2586 61.7313 40.1815 62.013C40.037 62.5407 39.8395 63.2623 39.3625 63.8347C38.2175 65.2087 35.1838 65.8559 32.2634 64.9797C29.9733 64.2927 27.7597 61.4683 26.7674 59.8271C26.3093 59.2546 26.1789 59.6644 26.3094 60.0561C26.4238 60.3997 26.9962 62.0027 27.5688 62.9187C27.5897 62.9521 27.6116 62.9876 27.6348 63.025C28.0879 63.7578 29.0039 65.2393 31.4618 66.4683C33.4822 67.4784 36.6144 67.1552 37.8739 66.8117C39.1335 66.4682 41.1944 64.9798 41.6525 63.0332C41.6643 62.9832 41.6709 62.933 41.6729 62.8827C42.139 63.5316 42.311 64.1421 41.8627 65.0402C40.1315 67.1737 37.8548 68.489 35.3362 68.546C29.7076 68.6733 25.0019 62.4677 24.8259 54.6854C24.6498 46.9031 29.07 40.4911 34.6987 40.3637Z" fill="white"/>
</g>
<defs>
<clipPath id="clip0_3210_1750">
<rect width="90" height="90" fill="white"/>
</clipPath>
</defs>
</svg>
