<svg width="90" height="90" viewBox="0 0 90 90" fill="none" xmlns="http://www.w3.org/2000/svg">
<circle cx="45" cy="45" r="45" fill="#FBBC12"/>
<g clip-path="url(#clip0_307_168)">
<path d="M22.8695 51.1277C22.8695 49.7696 22.8695 48.4116 22.8695 47.0535C22.8695 46.7598 22.9582 46.6693 23.2442 46.6847C23.6068 46.7057 23.9704 46.7057 24.333 46.6847C24.619 46.6693 24.7299 46.804 24.7587 47.0623C24.7764 47.1948 24.7077 47.3869 24.8673 47.4421C24.9826 47.4797 25.0359 47.2964 25.1268 47.2213C25.3993 46.9838 25.7218 46.8101 26.0706 46.713C26.4195 46.616 26.7857 46.598 27.1424 46.6604C27.3948 46.6713 27.6457 46.7053 27.8918 46.762C28.2954 46.9018 28.6507 47.153 28.9163 47.4863C29.036 47.632 29.138 47.674 29.3087 47.4863C30.0848 46.6759 31.056 46.4926 32.1381 46.6361C32.8698 46.7333 33.4685 47.0005 33.912 47.6033C34.321 48.1856 34.5379 48.8802 34.5329 49.5907C34.5683 51.4744 34.5484 53.358 34.5528 55.2416C34.5528 55.4161 34.5262 55.5375 34.3067 55.5353C33.7767 55.5353 33.249 55.5353 32.7213 55.5353C32.4574 55.5353 32.4596 55.3608 32.4596 55.1776C32.4596 54.1817 32.4596 53.1902 32.4596 52.1876C32.4596 51.3043 32.5173 50.4343 32.4064 49.562C32.3044 48.7538 31.7412 48.3519 30.8831 48.5308C30.0649 48.6986 29.7943 49.0608 29.7744 49.8955C29.7544 51.3949 29.7744 52.8965 29.7744 54.3959C29.7744 54.6697 29.7611 54.9435 29.75 55.2173C29.75 55.4227 29.6547 55.5375 29.424 55.5353C28.9628 55.5353 28.4994 55.5243 28.0382 55.5353C27.7921 55.5353 27.6967 55.4271 27.6923 55.2063C27.6923 54.9435 27.6923 54.6807 27.6923 54.4179C27.6768 52.8523 27.7344 51.2845 27.6501 49.721C27.6058 48.8885 27.0892 48.3365 26.0669 48.5352C25.2687 48.6898 25.0115 49.0122 24.9849 49.8756C24.9583 50.686 24.9849 51.4964 24.9849 52.3047C24.9849 53.2365 24.9849 54.1684 24.9849 55.0981C24.9849 55.4911 24.945 55.5243 24.5414 55.5265C24.0979 55.5265 23.6544 55.5132 23.211 55.5265C22.9271 55.5397 22.854 55.4315 22.8562 55.1687C22.8562 53.8107 22.8562 52.4526 22.8562 51.0923L22.8695 51.1277Z" fill="white"/>
<path d="M20.8783 38.2625C20.8406 39.0862 20.9426 40.0843 20.8229 41.078C20.6566 42.467 20.0379 43.368 18.5434 43.7544C17.5694 43.9897 16.5571 44.022 15.5699 43.8494C14.6431 43.708 13.796 43.3238 13.3526 42.4074C13.1527 42.044 13.039 41.6399 13.0199 41.226C13.0199 39.0465 12.9645 36.8647 13.0399 34.6896C13.0865 33.3801 13.8869 32.4704 15.3393 32.1965C16.1155 32.0466 16.9091 32.0072 17.6964 32.0795C18.4858 32.1568 19.2485 32.3334 19.8938 32.8568C20.3119 33.2108 20.5965 33.696 20.7009 34.2325C20.8382 34.8634 20.8985 35.5084 20.8805 36.1537C20.8739 36.8007 20.8783 37.4455 20.8783 38.2625ZM15.1131 38.0285H15.1353C15.1353 38.9581 15.1242 39.8878 15.1353 40.8175C15.1314 41.05 15.2004 41.2779 15.3328 41.4695C15.4652 41.6611 15.6543 41.8068 15.8737 41.8862C16.3172 42.0717 16.7784 42.0276 17.2374 42.0143C18.284 41.9834 18.7408 41.4004 18.7519 40.4244C18.7652 39.2319 18.7519 38.0373 18.7519 36.8449C18.7519 36.3635 18.7519 35.8821 18.7408 35.4007C18.7097 34.6256 18.4459 34.2369 17.7053 34.0294C17.1105 33.8502 16.473 33.8711 15.8914 34.089C15.6779 34.1646 15.4917 34.3017 15.3567 34.483C15.2216 34.6643 15.1438 34.8815 15.1331 35.107C15.1105 35.3027 15.1002 35.4996 15.1021 35.6966C15.1035 36.4709 15.1043 37.2482 15.1043 38.0285H15.1131Z" fill="#090A09"/>
<path d="M58.6202 51.9403C57.9705 51.9403 57.3208 51.958 56.6734 51.9403C56.3363 51.9271 56.2654 52.0529 56.2831 52.3599C56.3054 52.643 56.3719 52.9209 56.4805 53.1835C56.5354 53.3146 56.6239 53.4291 56.7371 53.5155C56.8503 53.6019 56.9843 53.6572 57.1257 53.676C57.4912 53.7535 57.8689 53.7535 58.2344 53.676C58.4084 53.6437 58.5693 53.5618 58.6976 53.4403C58.8259 53.3188 58.9161 53.1629 58.9573 52.9914C58.995 52.8236 59.0814 52.7838 59.2344 52.7861C59.7511 52.7861 60.2677 52.7861 60.7866 52.7861C61.0349 52.7861 61.1236 52.8943 61.097 53.1305C60.9972 53.9741 60.7134 54.705 59.9152 55.1466C59.6577 55.2883 59.3815 55.3931 59.0947 55.458C57.8397 55.7517 56.5935 55.7804 55.4361 55.129C55.1116 54.9382 54.8343 54.6772 54.6248 54.3653C54.4152 54.0534 54.2787 53.6986 54.2254 53.3271C53.9748 52.0662 54.0524 50.792 54.13 49.5355C54.232 47.875 55.2565 46.7267 57.1013 46.6251C57.8419 46.5831 58.587 46.5655 59.3054 46.857C59.7103 47.0077 60.0713 47.2564 60.3558 47.5805C60.6403 47.9047 60.8394 48.2942 60.9351 48.7141C61.1724 49.6349 61.0904 50.58 61.1103 51.5185C61.1103 51.8255 60.9595 51.9491 60.6668 51.9469C59.9861 51.9469 59.3032 51.9469 58.6202 51.9469V51.9403ZM57.6357 50.1318C58.0104 50.1318 58.383 50.1318 58.7577 50.1318C58.9284 50.1318 59.0083 50.0567 59.0038 49.9109C58.9905 49.2242 58.8331 48.6368 57.9883 48.4822C57.4406 48.3806 56.5958 48.5595 56.3962 49.2021C56.3408 49.3788 56.3009 49.5598 56.2543 49.7387C56.1789 50.0169 56.2543 50.1296 56.547 50.1362C56.904 50.1384 57.2721 50.134 57.6357 50.1318Z" fill="white"/>
<path d="M36.0939 40.1241H34.1138C33.6925 40.1241 33.6925 40.1241 33.7191 40.5326C33.707 40.8497 33.7725 41.1649 33.9098 41.4512C33.994 41.6175 34.1245 41.7562 34.2857 41.8505C34.447 41.9449 34.6321 41.991 34.8189 41.9834C35.1981 41.9834 35.5839 42.0452 35.9454 41.8377C36.0451 41.7933 36.1338 41.7275 36.2051 41.645C36.2764 41.5626 36.3285 41.4655 36.3578 41.3607C36.365 41.3123 36.382 41.2658 36.4075 41.224C36.4331 41.1822 36.4669 41.1459 36.5067 41.1173C36.5466 41.0887 36.5919 41.0683 36.6398 41.0574C36.6877 41.0465 36.7373 41.0452 36.7858 41.0537C37.2581 41.067 37.7326 41.067 38.2049 41.0537C38.4266 41.0537 38.5042 41.1156 38.502 41.332C38.508 41.8155 38.3614 42.2888 38.0829 42.6849C37.8044 43.0811 37.4081 43.3803 36.9498 43.5402C35.894 43.9087 34.7527 43.9593 33.6681 43.6859C32.3865 43.379 31.7368 42.4891 31.6171 41.1906C31.5106 40.0013 31.5106 38.8049 31.6171 37.6155C31.739 36.2265 32.6282 35.1666 34.1471 34.948C34.8539 34.8365 35.5751 34.8537 36.2758 34.9988C36.7417 35.08 37.176 35.288 37.5305 35.5998C37.8851 35.9116 38.1461 36.315 38.2847 36.7654C38.5885 37.6486 38.471 38.5319 38.5064 39.4307C38.5264 40.1307 38.5064 40.1307 37.7902 40.1307L36.0939 40.1241ZM35.0584 38.384H35.4221H35.9831C36.5374 38.384 36.5463 38.384 36.4265 37.8253C36.3534 37.4764 36.3046 37.0944 35.9298 36.9111C35.0429 36.4695 33.7369 36.6307 33.6859 38.0969C33.6859 38.3177 33.7635 38.3884 33.9675 38.3862C34.3333 38.3796 34.6948 38.384 35.0584 38.384Z" fill="#090A09"/>
<path d="M22.8362 39.3379C22.8362 37.9799 22.8362 36.6218 22.8362 35.2638C22.8362 34.9922 22.9272 34.8928 23.2043 34.9082C23.5768 34.9281 23.9516 34.9082 24.3263 34.9082C24.6079 34.9082 24.7698 35.0142 24.7498 35.3168C24.7498 35.4316 24.7144 35.5795 24.8496 35.6392C24.9849 35.6988 25.0359 35.5221 25.1224 35.4559C25.6704 35.0279 26.3592 34.8192 27.0537 34.8707C28.1114 34.9369 28.9451 35.3742 29.4108 36.3767C29.654 36.9474 29.7719 37.5633 29.7567 38.183C29.7677 39.9496 29.7567 41.7162 29.7722 43.4828C29.7722 43.7036 29.6791 43.8251 29.4351 43.8184C28.9917 43.8184 28.5327 43.7986 28.0825 43.8184C27.7655 43.8339 27.679 43.6992 27.6812 43.4121C27.6812 41.7928 27.6812 40.1734 27.6812 38.554C27.6812 38.0726 27.6679 37.5846 27.3486 37.1805C27.1719 36.9922 26.9451 36.8578 26.6946 36.7929C26.4442 36.728 26.1804 36.7353 25.9339 36.8139C25.3153 37.0105 25.0137 37.3439 24.9937 37.9181C24.9317 39.7332 24.9516 41.5506 24.956 43.368C24.956 43.761 24.925 43.8096 24.5392 43.8096C24.0957 43.8096 23.6522 43.7875 23.2088 43.8096C22.9072 43.8295 22.8229 43.7169 22.8229 43.4386C22.8229 42.0695 22.8229 40.7026 22.8229 39.3335L22.8362 39.3379Z" fill="#090A09"/>
<path d="M52.1965 52.3157V55.1864C52.1965 55.5839 52.1455 55.628 51.7352 55.628H50.5467C50.0057 55.628 50.0057 55.628 50.0057 55.0738C50.0057 53.3543 50.0057 51.6341 50.0057 49.9131C50.0115 49.749 49.995 49.5849 49.9569 49.4251C49.6398 48.3343 48.3138 48.3762 47.7395 48.8907C47.3914 49.1999 47.3559 49.646 47.3515 50.0655C47.3338 51.7526 47.3515 53.4375 47.3515 55.1246C47.3515 55.6104 47.3338 55.6258 46.8504 55.6258C46.4313 55.6258 46.0122 55.6258 45.5953 55.6258C45.245 55.6258 45.1519 55.5198 45.1519 55.1842C45.2805 52.4703 45.1851 49.7564 45.2006 47.0402C45.2006 46.7245 45.296 46.5986 45.6175 46.6229C46.0033 46.645 46.3891 46.6361 46.7728 46.6229C46.9945 46.6229 47.1009 46.6891 47.0921 46.921C47.0921 47.0447 47.0632 47.2014 47.2051 47.2743C47.3471 47.3472 47.469 47.2081 47.5754 47.1308C48.4624 46.4683 49.4358 46.4506 50.4403 46.8194C51.5246 47.2169 51.9171 48.109 52.1055 49.1513C52.294 50.2488 52.1321 51.3684 52.1965 52.3157Z" fill="white"/>
<path d="M39.91 55.6612C39.1412 55.7375 38.3666 55.591 37.6793 55.2394C37.2609 54.9987 36.9372 54.6233 36.7613 54.175C36.4576 53.5501 36.4176 52.8678 36.3866 52.1876C36.3356 51.0968 36.3001 49.9949 36.5108 48.9172C36.7148 47.8926 37.2979 47.1507 38.3468 46.8283C39.2102 46.568 40.1261 46.5315 41.0076 46.7223C42.3779 47.0049 43.0631 47.8418 43.2538 49.2507C43.4201 50.4851 43.2982 51.7217 43.2405 52.9517C43.1629 54.5769 42.174 55.4735 40.5797 55.6479C40.3569 55.6659 40.1333 55.6703 39.91 55.6612ZM38.4998 51.1785C38.4998 51.6709 38.4842 52.1633 38.4998 52.6558C38.4986 52.8495 38.545 53.0405 38.6351 53.2122C38.7251 53.3839 38.8561 53.531 39.0164 53.6406C39.2238 53.7825 39.4657 53.8662 39.7167 53.8831C39.9677 53.8999 40.2187 53.8493 40.4433 53.7364C40.6679 53.6235 40.858 53.4526 40.9935 53.2415C41.1291 53.0304 41.2052 52.7869 41.2138 52.5365C41.2604 51.6422 41.2493 50.7434 41.2138 49.8469C41.185 49.0851 40.8568 48.6765 40.1739 48.5595C39.1095 48.374 38.5596 48.8311 38.5064 49.7983C38.4865 50.2576 38.4998 50.7192 38.4998 51.1785Z" fill="white"/>
<path d="M63.4652 39.3954C63.4445 39.9315 63.4571 40.4684 63.5029 41.003C63.5916 41.6654 63.8887 41.9679 64.5539 42.0298C64.74 42.0408 64.9266 42.0408 65.1127 42.0298C65.809 42.0165 66.1593 41.5616 66.2214 40.9257C66.2525 40.6099 66.3567 40.5216 66.6649 40.5414C67.0906 40.5701 67.5208 40.5414 67.951 40.5414C68.1239 40.5414 68.2259 40.579 68.2281 40.7623C68.2281 41.8134 68.0064 42.7497 67.0818 43.4121C66.7467 43.6415 66.3639 43.7924 65.962 43.8538C65.151 44.0121 64.3157 44.0001 63.5096 43.8184C63.0043 43.7151 62.5391 43.4708 62.1681 43.114C61.6849 42.6316 61.3955 41.99 61.3543 41.3099C61.25 40.076 61.2545 38.8354 61.3676 37.6023C61.5228 36.2089 62.2878 35.2152 63.8621 34.9701C64.5043 34.8751 65.1567 34.8707 65.8001 34.9568C67.2215 35.1379 68.0884 36.0101 68.1993 37.4322C68.2769 38.4326 68.2703 38.2294 67.4698 38.2405C67.1616 38.2405 66.8534 38.2294 66.5474 38.2405C66.3256 38.2405 66.2458 38.1565 66.2325 37.9578C66.2286 37.8602 66.2145 37.7632 66.1904 37.6685C66.0108 37.0392 65.7469 36.8051 65.0285 36.7587C64.0972 36.6969 63.5007 37.0635 63.4586 38.0439C63.4497 38.4966 63.4652 38.9471 63.4652 39.3954Z" fill="#090A09"/>
<path d="M43.8414 39.6272C43.8303 38.7329 43.7217 37.8319 43.9944 36.9508C44.2428 36.1426 44.7151 35.5177 45.5089 35.2108C46.6578 34.77 47.9271 34.7528 49.0877 35.1622C50.0124 35.4669 50.4447 36.1868 50.6399 37.0811C50.6839 37.3516 50.7113 37.6244 50.7219 37.8982C50.7441 38.119 50.662 38.2471 50.4093 38.2427C49.9458 38.2316 49.4846 38.2316 49.0212 38.2427C48.7994 38.2427 48.7374 38.1477 48.7218 37.949C48.6531 36.9994 48.1076 36.719 47.2451 36.7631C46.3825 36.8073 45.9834 37.2357 45.9501 38.1367C45.8873 39.0982 45.8999 40.0632 45.9878 41.0228C46.0499 41.544 46.3515 41.9966 46.9635 42.0276C47.3848 42.0496 47.7994 42.0894 48.1808 41.8708C48.3513 41.7682 48.4909 41.6218 48.5849 41.447C48.679 41.2721 48.724 41.0752 48.7152 40.8771C48.7263 40.59 48.8371 40.5304 49.0988 40.5414C49.5423 40.5591 49.9857 40.5414 50.4292 40.5414C50.5867 40.5414 50.7064 40.5591 50.7396 40.749C50.8971 41.661 50.3139 42.9837 49.5267 43.4585C48.846 43.8692 48.0899 43.9576 47.3094 43.9531C46.5289 43.9487 45.7129 43.8692 45.0188 43.3989C44.276 42.8954 43.9478 42.1534 43.868 41.3033C43.7993 40.7468 43.8414 40.1859 43.8414 39.6272Z" fill="#090A09"/>
<path d="M63.259 46.698C63.4568 46.7101 63.6553 46.7101 63.8532 46.698C64.1592 46.656 64.2967 46.7775 64.3832 47.069C64.6293 47.9522 64.953 48.809 65.1481 49.6967C65.3624 50.5864 65.5106 51.4905 65.5916 52.4018C65.5916 52.4769 65.6049 52.5542 65.6138 52.6226C65.6227 52.6911 65.6537 52.7264 65.7202 52.722C65.7867 52.7176 65.7868 52.6734 65.7978 52.6315C65.8434 52.4739 65.8804 52.3139 65.9087 52.1523C66.0648 50.9129 66.3229 49.6884 66.6803 48.4911C66.8333 47.9854 67.0107 47.4841 67.1238 46.9652C67.1343 46.883 67.1771 46.8083 67.2427 46.7574C67.3084 46.7065 67.3916 46.6836 67.4742 46.6936C67.993 46.6936 68.5097 46.6936 69.0263 46.6936C69.288 46.6936 69.3634 46.7995 69.2924 47.0358C69.0995 47.6828 68.911 48.3299 68.7159 48.9747C68.4698 49.7829 68.2192 50.5911 67.9709 51.4037C67.7735 52.0441 67.5739 52.6867 67.381 53.3315C67.1327 54.1618 66.9087 55.0009 66.6427 55.8268C66.3544 56.7101 66.2679 57.6905 65.6204 58.4479C65.3732 58.7535 65.0143 58.9488 64.6226 58.9912C64.13 59.0468 63.6311 58.9902 63.1636 58.8256C62.8731 58.7196 62.7933 58.5584 62.9197 58.13C62.98 57.9327 63.0252 57.7312 63.055 57.5271C63.0926 57.2754 63.2102 57.1606 63.4984 57.2754C63.8931 57.4366 64.2146 57.2467 64.3854 56.8558C64.5295 56.5135 64.6071 56.1536 64.7291 55.8069C64.8798 55.4028 64.6625 55.0362 64.5583 54.6697C64.2989 53.7621 63.9951 52.8678 63.7157 51.9668C63.423 51.0239 63.1392 50.081 62.851 49.1359C62.647 48.4734 62.4252 47.7933 62.2478 47.1109C62.1525 46.7399 62.199 46.7134 62.5738 46.709L63.259 46.698Z" fill="white"/>
<path d="M52.4071 36.889C52.4071 35.4316 52.4071 33.9764 52.4071 32.5189C52.4071 32.2981 52.4958 32.2054 52.7175 32.2076C53.212 32.2076 53.7087 32.2186 54.2032 32.2076C54.4537 32.2076 54.5247 32.2937 54.5247 32.5322C54.5158 34.3164 54.5158 36.1014 54.5247 37.8871C54.5247 38.8941 54.5247 39.901 54.5602 40.908C54.5735 41.3828 54.8196 41.767 55.3762 41.7648C55.5447 41.7648 55.5979 41.8597 55.5979 42.0187C55.5979 42.5112 55.5979 43.0036 55.5979 43.4983C55.5979 43.6771 55.5513 43.8471 55.3207 43.814C54.8019 43.7412 54.2741 43.7721 53.7686 43.5667C53.4568 43.4443 53.1835 43.2411 52.9769 42.9783C52.7703 42.7155 52.6379 42.4025 52.5934 42.0717C52.314 40.5856 52.4847 39.0796 52.4448 37.5824C52.4448 37.3616 52.4448 37.1231 52.4448 36.8934L52.4071 36.889Z" fill="#090A09"/>
<path d="M57.405 39.4594C57.405 38.1345 57.405 36.8095 57.405 35.4846C57.405 35.1975 57.5092 35.0893 57.7931 35.0981C58.2365 35.1114 58.68 35.1158 59.1124 35.0981C59.4228 35.0827 59.5138 35.2063 59.5115 35.5C59.5115 37.8982 59.5115 40.2956 59.5115 42.6922C59.5115 42.944 59.5381 43.1957 59.5359 43.4452C59.5337 43.6948 59.4738 43.8626 59.1568 43.8449C58.6955 43.8206 58.2321 43.8295 57.7709 43.8449C57.4871 43.8449 57.4072 43.7235 57.4095 43.4695C57.4095 42.1446 57.4095 40.7976 57.4095 39.4616L57.405 39.4594Z" fill="#090A09"/>
<path d="M58.5093 32C59.1169 31.9183 59.6756 32.5543 59.669 33.1505C59.6523 33.4557 59.5207 33.7435 59.3004 33.9563C59.0801 34.1691 58.7873 34.2914 58.4805 34.2988C58.3236 34.3036 58.1675 34.2759 58.0219 34.2176C57.8764 34.1592 57.7445 34.0715 57.6347 33.9599C57.5249 33.8482 57.4395 33.7151 57.384 33.569C57.3284 33.4228 57.3039 33.2668 57.3119 33.1107C57.3122 32.9579 57.3439 32.8068 57.4053 32.6667C57.4666 32.5267 57.5562 32.4006 57.6685 32.2965C57.7807 32.1923 57.9133 32.1123 58.058 32.0613C58.2026 32.0103 58.3562 31.9894 58.5093 32Z" fill="#090A09"/>
<path d="M76.6851 46.1437C76.7102 46.1425 76.7346 46.1345 76.7555 46.1204C76.7763 46.1064 76.7929 46.0869 76.8035 46.0642C76.814 46.0414 76.818 46.0161 76.8151 45.9912C76.8122 45.9663 76.8025 45.9427 76.7871 45.9229C75.1802 44.1165 73.5711 42.3132 71.9599 40.5127C71.9413 40.4923 71.917 40.4779 71.8901 40.4714C71.8632 40.465 71.8349 40.4667 71.8091 40.4765C71.7832 40.4863 71.7609 40.5036 71.7451 40.5262C71.7292 40.5489 71.7206 40.5757 71.7204 40.6033L71.7026 46.0222C71.7032 46.0588 71.7182 46.0936 71.7443 46.1192C71.7705 46.1448 71.8057 46.1592 71.8423 46.1592H73.2371C73.2775 46.1592 73.3169 46.1715 73.3502 46.1944C73.3834 46.2172 73.4089 46.2496 73.4233 46.2872L74.9245 50.3195C74.9429 50.3685 74.9759 50.4109 75.0191 50.4409C75.0622 50.4708 75.1135 50.487 75.1662 50.4873H76.4434C76.4846 50.487 76.5252 50.4768 76.5617 50.4576C76.5981 50.4384 76.6294 50.4107 76.6529 50.3769C76.6764 50.3432 76.6914 50.3043 76.6966 50.2635C76.7018 50.2228 76.6971 50.1814 76.6829 50.1428L75.246 46.2828C75.2407 46.2682 75.239 46.2525 75.241 46.2371C75.243 46.2217 75.2487 46.207 75.2576 46.1942C75.2665 46.1815 75.2784 46.171 75.2922 46.1638C75.306 46.1565 75.3213 46.1527 75.3369 46.1525L76.6851 46.1437Z" fill="white"/>
<path d="M76.9246 43.3768C75.9948 41.9414 75.0605 40.5046 74.1219 39.0663C74.0642 38.9758 74.0154 38.9206 74.0975 38.8124C74.4545 38.3398 76.3658 35.6988 76.694 35.2351C76.8248 35.0496 76.7605 34.906 76.5432 34.906C75.9401 34.906 75.3348 34.9171 74.7294 34.9259C74.6633 34.9237 74.5977 34.9389 74.5394 34.9699C74.481 35.0009 74.4318 35.0466 74.3968 35.1026C74.2549 35.3234 74.1063 35.5442 73.9533 35.7518C73.4611 36.4584 72.9622 37.1628 72.4721 37.8739C72.4246 37.9545 72.3527 38.0181 72.2666 38.0554C72.1805 38.0927 72.0848 38.1018 71.9932 38.0815C71.7714 38.0395 71.8003 37.8606 71.8003 37.6862C71.8003 35.9682 71.8003 34.2502 71.8003 32.5322C71.8003 32.2782 71.7227 32.1722 71.4655 32.1789H70.2082C70.1594 32.1789 70.1084 32.1789 70.0596 32.1789C69.7426 32.1612 69.6805 32.2782 69.6805 32.5719C69.6805 36.0742 69.6805 39.5764 69.6805 43.0765C69.6559 43.2975 69.6656 43.5209 69.7093 43.7389C70.2769 43.7389 70.8446 43.7389 71.4122 43.7588C71.6229 43.7588 71.6894 43.6661 71.7027 43.5027V40.6121C71.7036 40.5846 71.7127 40.5579 71.7288 40.5355C71.7449 40.5131 71.7673 40.496 71.7932 40.4863C71.819 40.4766 71.8472 40.4748 71.8741 40.4811C71.9011 40.4873 71.9255 40.5014 71.9444 40.5216L71.9644 40.5436C71.9995 40.5749 72.0322 40.6088 72.0619 40.6452C72.9289 41.6168 73.8026 42.5818 74.6696 43.5557C74.7292 43.6327 74.8069 43.6941 74.8957 43.7345C74.9846 43.7749 75.082 43.7931 75.1796 43.7875C75.6851 43.7677 76.1907 43.7875 76.6962 43.7743C76.7916 43.7743 76.9069 43.803 76.9623 43.6926C76.9861 43.6416 76.9951 43.5851 76.9885 43.5294C76.9818 43.4736 76.9597 43.4208 76.9246 43.3768Z" fill="#090A09"/>
</g>
<g clip-path="url(#clip1_307_168)">
<path d="M22.8695 51.1277C22.8695 49.7696 22.8695 48.4116 22.8695 47.0535C22.8695 46.7598 22.9582 46.6693 23.2442 46.6847C23.6068 46.7057 23.9704 46.7057 24.333 46.6847C24.619 46.6693 24.7299 46.804 24.7587 47.0623C24.7764 47.1948 24.7077 47.3869 24.8673 47.4421C24.9826 47.4797 25.0359 47.2964 25.1268 47.2213C25.3993 46.9838 25.7218 46.8101 26.0706 46.713C26.4195 46.616 26.7857 46.598 27.1424 46.6604C27.3948 46.6713 27.6457 46.7053 27.8918 46.762C28.2954 46.9018 28.6507 47.153 28.9163 47.4863C29.036 47.632 29.138 47.674 29.3087 47.4863C30.0848 46.6759 31.056 46.4926 32.1381 46.6361C32.8698 46.7333 33.4685 47.0005 33.912 47.6033C34.321 48.1856 34.5379 48.8802 34.5329 49.5907C34.5683 51.4744 34.5484 53.358 34.5528 55.2416C34.5528 55.4161 34.5262 55.5375 34.3067 55.5353C33.7767 55.5353 33.249 55.5353 32.7213 55.5353C32.4574 55.5353 32.4596 55.3608 32.4596 55.1776C32.4596 54.1817 32.4596 53.1902 32.4596 52.1876C32.4596 51.3043 32.5173 50.4343 32.4064 49.562C32.3044 48.7538 31.7412 48.3519 30.8831 48.5308C30.0649 48.6986 29.7943 49.0608 29.7744 49.8955C29.7544 51.3949 29.7744 52.8965 29.7744 54.3959C29.7744 54.6697 29.7611 54.9435 29.75 55.2173C29.75 55.4227 29.6547 55.5375 29.424 55.5353C28.9628 55.5353 28.4994 55.5243 28.0382 55.5353C27.7921 55.5353 27.6967 55.4271 27.6923 55.2063C27.6923 54.9435 27.6923 54.6807 27.6923 54.4179C27.6768 52.8523 27.7344 51.2845 27.6501 49.721C27.6058 48.8885 27.0892 48.3365 26.0669 48.5352C25.2687 48.6898 25.0115 49.0122 24.9849 49.8756C24.9583 50.686 24.9849 51.4964 24.9849 52.3047C24.9849 53.2365 24.9849 54.1684 24.9849 55.0981C24.9849 55.4911 24.945 55.5243 24.5414 55.5265C24.0979 55.5265 23.6544 55.5132 23.211 55.5265C22.9271 55.5397 22.854 55.4315 22.8562 55.1687C22.8562 53.8107 22.8562 52.4526 22.8562 51.0923L22.8695 51.1277Z" fill="white"/>
<path d="M20.8783 38.2625C20.8406 39.0862 20.9426 40.0843 20.8229 41.078C20.6566 42.467 20.0379 43.368 18.5434 43.7544C17.5694 43.9897 16.5571 44.022 15.5699 43.8494C14.6431 43.708 13.796 43.3238 13.3526 42.4074C13.1527 42.044 13.039 41.6399 13.0199 41.226C13.0199 39.0465 12.9645 36.8647 13.0399 34.6896C13.0865 33.3801 13.8869 32.4704 15.3393 32.1965C16.1155 32.0466 16.9091 32.0072 17.6964 32.0795C18.4858 32.1568 19.2485 32.3334 19.8938 32.8568C20.3119 33.2108 20.5965 33.696 20.7009 34.2325C20.8382 34.8634 20.8985 35.5084 20.8805 36.1537C20.8739 36.8007 20.8783 37.4455 20.8783 38.2625ZM15.1131 38.0285H15.1353C15.1353 38.9581 15.1242 39.8878 15.1353 40.8175C15.1314 41.05 15.2004 41.2779 15.3328 41.4695C15.4652 41.6611 15.6543 41.8068 15.8737 41.8862C16.3172 42.0717 16.7784 42.0276 17.2374 42.0143C18.284 41.9834 18.7408 41.4004 18.7519 40.4244C18.7652 39.2319 18.7519 38.0373 18.7519 36.8449C18.7519 36.3635 18.7519 35.8821 18.7408 35.4007C18.7097 34.6256 18.4459 34.2369 17.7053 34.0294C17.1105 33.8502 16.473 33.8711 15.8914 34.089C15.6779 34.1646 15.4917 34.3017 15.3567 34.483C15.2216 34.6643 15.1438 34.8815 15.1331 35.107C15.1105 35.3027 15.1002 35.4996 15.1021 35.6966C15.1035 36.4709 15.1043 37.2482 15.1043 38.0285H15.1131Z" fill="#090A09"/>
<path d="M58.6202 51.9403C57.9705 51.9403 57.3208 51.958 56.6734 51.9403C56.3363 51.9271 56.2654 52.0529 56.2831 52.3599C56.3054 52.643 56.3719 52.9209 56.4805 53.1835C56.5354 53.3146 56.6239 53.4291 56.7371 53.5155C56.8503 53.6019 56.9843 53.6572 57.1257 53.676C57.4912 53.7535 57.8689 53.7535 58.2344 53.676C58.4084 53.6437 58.5693 53.5618 58.6976 53.4403C58.8259 53.3188 58.9161 53.1629 58.9573 52.9914C58.995 52.8236 59.0814 52.7838 59.2344 52.7861C59.7511 52.7861 60.2677 52.7861 60.7866 52.7861C61.0349 52.7861 61.1236 52.8943 61.097 53.1305C60.9972 53.9741 60.7134 54.705 59.9152 55.1466C59.6577 55.2883 59.3815 55.3931 59.0947 55.458C57.8397 55.7517 56.5935 55.7804 55.4361 55.129C55.1116 54.9382 54.8343 54.6772 54.6248 54.3653C54.4152 54.0534 54.2787 53.6986 54.2254 53.3271C53.9748 52.0662 54.0524 50.792 54.13 49.5355C54.232 47.875 55.2565 46.7267 57.1013 46.6251C57.8419 46.5831 58.587 46.5655 59.3054 46.857C59.7103 47.0077 60.0713 47.2564 60.3558 47.5805C60.6403 47.9047 60.8394 48.2942 60.9351 48.7141C61.1724 49.6349 61.0904 50.58 61.1103 51.5185C61.1103 51.8255 60.9595 51.9491 60.6668 51.9469C59.9861 51.9469 59.3032 51.9469 58.6202 51.9469V51.9403ZM57.6357 50.1318C58.0104 50.1318 58.383 50.1318 58.7577 50.1318C58.9284 50.1318 59.0083 50.0567 59.0038 49.9109C58.9905 49.2242 58.8331 48.6368 57.9883 48.4822C57.4406 48.3806 56.5958 48.5595 56.3962 49.2021C56.3408 49.3788 56.3009 49.5598 56.2543 49.7387C56.1789 50.0169 56.2543 50.1296 56.547 50.1362C56.904 50.1384 57.2721 50.134 57.6357 50.1318Z" fill="white"/>
<path d="M36.0939 40.1241H34.1138C33.6925 40.1241 33.6925 40.1241 33.7191 40.5326C33.707 40.8497 33.7725 41.1649 33.9098 41.4512C33.994 41.6175 34.1245 41.7562 34.2857 41.8505C34.447 41.9449 34.6321 41.991 34.8189 41.9834C35.1981 41.9834 35.5839 42.0452 35.9454 41.8377C36.0451 41.7933 36.1338 41.7275 36.2051 41.645C36.2764 41.5626 36.3285 41.4655 36.3578 41.3607C36.365 41.3123 36.382 41.2658 36.4075 41.224C36.4331 41.1822 36.4669 41.1459 36.5067 41.1173C36.5466 41.0887 36.5919 41.0683 36.6398 41.0574C36.6877 41.0465 36.7373 41.0452 36.7858 41.0537C37.2581 41.067 37.7326 41.067 38.2049 41.0537C38.4266 41.0537 38.5042 41.1156 38.502 41.332C38.508 41.8155 38.3614 42.2888 38.0829 42.6849C37.8044 43.0811 37.4081 43.3803 36.9498 43.5402C35.894 43.9087 34.7527 43.9593 33.6681 43.6859C32.3865 43.379 31.7368 42.4891 31.6171 41.1906C31.5106 40.0013 31.5106 38.8049 31.6171 37.6155C31.739 36.2265 32.6282 35.1666 34.1471 34.948C34.8539 34.8365 35.5751 34.8537 36.2758 34.9988C36.7417 35.08 37.176 35.288 37.5305 35.5998C37.8851 35.9116 38.1461 36.315 38.2847 36.7654C38.5885 37.6486 38.471 38.5319 38.5064 39.4307C38.5264 40.1307 38.5064 40.1307 37.7902 40.1307L36.0939 40.1241ZM35.0584 38.384H35.4221H35.9831C36.5374 38.384 36.5463 38.384 36.4265 37.8253C36.3534 37.4764 36.3046 37.0944 35.9298 36.9111C35.0429 36.4695 33.7369 36.6307 33.6859 38.0969C33.6859 38.3177 33.7635 38.3884 33.9675 38.3862C34.3333 38.3796 34.6948 38.384 35.0584 38.384Z" fill="#090A09"/>
<path d="M22.8362 39.3379C22.8362 37.9799 22.8362 36.6218 22.8362 35.2638C22.8362 34.9922 22.9272 34.8928 23.2043 34.9082C23.5768 34.9281 23.9516 34.9082 24.3263 34.9082C24.6079 34.9082 24.7698 35.0142 24.7498 35.3168C24.7498 35.4316 24.7144 35.5795 24.8496 35.6392C24.9849 35.6988 25.0359 35.5221 25.1224 35.4559C25.6704 35.0279 26.3592 34.8192 27.0537 34.8707C28.1114 34.9369 28.9451 35.3742 29.4108 36.3767C29.654 36.9474 29.7719 37.5633 29.7567 38.183C29.7677 39.9496 29.7567 41.7162 29.7722 43.4828C29.7722 43.7036 29.6791 43.8251 29.4351 43.8184C28.9917 43.8184 28.5327 43.7986 28.0825 43.8184C27.7655 43.8339 27.679 43.6992 27.6812 43.4121C27.6812 41.7928 27.6812 40.1734 27.6812 38.554C27.6812 38.0726 27.6679 37.5846 27.3486 37.1805C27.1719 36.9922 26.9451 36.8578 26.6946 36.7929C26.4442 36.728 26.1804 36.7353 25.9339 36.8139C25.3153 37.0105 25.0137 37.3439 24.9937 37.9181C24.9317 39.7332 24.9516 41.5506 24.956 43.368C24.956 43.761 24.925 43.8096 24.5392 43.8096C24.0957 43.8096 23.6522 43.7875 23.2088 43.8096C22.9072 43.8295 22.8229 43.7169 22.8229 43.4386C22.8229 42.0695 22.8229 40.7026 22.8229 39.3335L22.8362 39.3379Z" fill="#090A09"/>
<path d="M52.1965 52.3157V55.1864C52.1965 55.5839 52.1455 55.628 51.7352 55.628H50.5467C50.0057 55.628 50.0057 55.628 50.0057 55.0738C50.0057 53.3543 50.0057 51.6341 50.0057 49.9131C50.0115 49.749 49.995 49.5849 49.9569 49.4251C49.6398 48.3343 48.3138 48.3762 47.7395 48.8907C47.3914 49.1999 47.3559 49.646 47.3515 50.0655C47.3338 51.7526 47.3515 53.4375 47.3515 55.1246C47.3515 55.6104 47.3338 55.6258 46.8504 55.6258C46.4313 55.6258 46.0122 55.6258 45.5953 55.6258C45.245 55.6258 45.1519 55.5198 45.1519 55.1842C45.2805 52.4703 45.1851 49.7564 45.2006 47.0402C45.2006 46.7245 45.296 46.5986 45.6175 46.6229C46.0033 46.645 46.3891 46.6361 46.7728 46.6229C46.9945 46.6229 47.1009 46.6891 47.0921 46.921C47.0921 47.0447 47.0632 47.2014 47.2051 47.2743C47.3471 47.3472 47.469 47.2081 47.5754 47.1308C48.4624 46.4683 49.4358 46.4506 50.4403 46.8194C51.5246 47.2169 51.9171 48.109 52.1055 49.1513C52.294 50.2488 52.1321 51.3684 52.1965 52.3157Z" fill="white"/>
<path d="M39.91 55.6612C39.1412 55.7375 38.3666 55.591 37.6793 55.2394C37.2609 54.9987 36.9372 54.6233 36.7613 54.175C36.4576 53.5501 36.4176 52.8678 36.3866 52.1876C36.3356 51.0968 36.3001 49.9949 36.5108 48.9172C36.7148 47.8926 37.2979 47.1507 38.3468 46.8283C39.2102 46.568 40.1261 46.5315 41.0076 46.7223C42.3779 47.0049 43.0631 47.8418 43.2538 49.2507C43.4201 50.4851 43.2982 51.7217 43.2405 52.9517C43.1629 54.5769 42.174 55.4735 40.5797 55.6479C40.3569 55.6659 40.1333 55.6703 39.91 55.6612ZM38.4998 51.1785C38.4998 51.6709 38.4842 52.1633 38.4998 52.6558C38.4986 52.8495 38.545 53.0405 38.6351 53.2122C38.7251 53.3839 38.8561 53.531 39.0164 53.6406C39.2238 53.7825 39.4657 53.8662 39.7167 53.8831C39.9677 53.8999 40.2187 53.8493 40.4433 53.7364C40.6679 53.6235 40.858 53.4526 40.9935 53.2415C41.1291 53.0304 41.2052 52.7869 41.2138 52.5365C41.2604 51.6422 41.2493 50.7434 41.2138 49.8469C41.185 49.0851 40.8568 48.6765 40.1739 48.5595C39.1095 48.374 38.5596 48.8311 38.5064 49.7983C38.4865 50.2576 38.4998 50.7192 38.4998 51.1785Z" fill="white"/>
<path d="M63.4652 39.3954C63.4445 39.9315 63.4571 40.4684 63.5029 41.003C63.5916 41.6654 63.8887 41.9679 64.5539 42.0298C64.74 42.0408 64.9266 42.0408 65.1127 42.0298C65.809 42.0165 66.1593 41.5616 66.2214 40.9257C66.2525 40.6099 66.3567 40.5216 66.6649 40.5414C67.0906 40.5701 67.5208 40.5414 67.951 40.5414C68.1239 40.5414 68.2259 40.579 68.2281 40.7623C68.2281 41.8134 68.0064 42.7497 67.0818 43.4121C66.7467 43.6415 66.3639 43.7924 65.962 43.8538C65.151 44.0121 64.3157 44.0001 63.5096 43.8184C63.0043 43.7151 62.5391 43.4708 62.1681 43.114C61.6849 42.6316 61.3955 41.99 61.3543 41.3099C61.25 40.076 61.2545 38.8354 61.3676 37.6023C61.5228 36.2089 62.2878 35.2152 63.8621 34.9701C64.5043 34.8751 65.1567 34.8707 65.8001 34.9568C67.2215 35.1379 68.0884 36.0101 68.1993 37.4322C68.2769 38.4326 68.2703 38.2294 67.4698 38.2405C67.1616 38.2405 66.8534 38.2294 66.5474 38.2405C66.3256 38.2405 66.2458 38.1565 66.2325 37.9578C66.2286 37.8602 66.2145 37.7632 66.1904 37.6685C66.0108 37.0392 65.7469 36.8051 65.0285 36.7587C64.0972 36.6969 63.5007 37.0635 63.4586 38.0439C63.4497 38.4966 63.4652 38.9471 63.4652 39.3954Z" fill="#090A09"/>
<path d="M43.8414 39.6272C43.8303 38.7329 43.7217 37.8319 43.9944 36.9508C44.2428 36.1426 44.7151 35.5177 45.5089 35.2108C46.6578 34.77 47.9271 34.7528 49.0877 35.1622C50.0124 35.4669 50.4447 36.1868 50.6399 37.0811C50.6839 37.3516 50.7113 37.6244 50.7219 37.8982C50.7441 38.119 50.662 38.2471 50.4093 38.2427C49.9458 38.2316 49.4846 38.2316 49.0212 38.2427C48.7994 38.2427 48.7374 38.1477 48.7218 37.949C48.6531 36.9994 48.1076 36.719 47.2451 36.7631C46.3825 36.8073 45.9834 37.2357 45.9501 38.1367C45.8873 39.0982 45.8999 40.0632 45.9878 41.0228C46.0499 41.544 46.3515 41.9966 46.9635 42.0276C47.3848 42.0496 47.7994 42.0894 48.1808 41.8708C48.3513 41.7682 48.4909 41.6218 48.5849 41.447C48.679 41.2721 48.724 41.0752 48.7152 40.8771C48.7263 40.59 48.8371 40.5304 49.0988 40.5414C49.5423 40.5591 49.9857 40.5414 50.4292 40.5414C50.5867 40.5414 50.7064 40.5591 50.7396 40.749C50.8971 41.661 50.3139 42.9837 49.5267 43.4585C48.846 43.8692 48.0899 43.9576 47.3094 43.9531C46.5289 43.9487 45.7129 43.8692 45.0188 43.3989C44.276 42.8954 43.9478 42.1534 43.868 41.3033C43.7993 40.7468 43.8414 40.1859 43.8414 39.6272Z" fill="#090A09"/>
<path d="M63.259 46.698C63.4568 46.7101 63.6553 46.7101 63.8532 46.698C64.1592 46.656 64.2967 46.7775 64.3832 47.069C64.6293 47.9522 64.953 48.809 65.1481 49.6967C65.3624 50.5864 65.5106 51.4905 65.5916 52.4018C65.5916 52.4769 65.6049 52.5542 65.6138 52.6226C65.6227 52.6911 65.6537 52.7264 65.7202 52.722C65.7867 52.7176 65.7868 52.6734 65.7978 52.6315C65.8434 52.4739 65.8804 52.3139 65.9087 52.1523C66.0648 50.9129 66.3229 49.6884 66.6803 48.4911C66.8333 47.9854 67.0107 47.4841 67.1238 46.9652C67.1343 46.883 67.1771 46.8083 67.2427 46.7574C67.3084 46.7065 67.3916 46.6836 67.4742 46.6936C67.993 46.6936 68.5097 46.6936 69.0263 46.6936C69.288 46.6936 69.3634 46.7995 69.2924 47.0358C69.0995 47.6828 68.911 48.3299 68.7159 48.9747C68.4698 49.7829 68.2192 50.5911 67.9709 51.4037C67.7735 52.0441 67.5739 52.6867 67.381 53.3315C67.1327 54.1618 66.9087 55.0009 66.6427 55.8268C66.3544 56.7101 66.2679 57.6905 65.6204 58.4479C65.3732 58.7535 65.0143 58.9488 64.6226 58.9912C64.13 59.0468 63.6311 58.9902 63.1636 58.8256C62.8731 58.7196 62.7933 58.5584 62.9197 58.13C62.98 57.9327 63.0252 57.7312 63.055 57.5271C63.0926 57.2754 63.2102 57.1606 63.4984 57.2754C63.8931 57.4366 64.2146 57.2467 64.3854 56.8558C64.5295 56.5135 64.6071 56.1536 64.7291 55.8069C64.8798 55.4028 64.6625 55.0362 64.5583 54.6697C64.2989 53.7621 63.9951 52.8678 63.7157 51.9668C63.423 51.0239 63.1392 50.081 62.851 49.1359C62.647 48.4734 62.4252 47.7933 62.2478 47.1109C62.1525 46.7399 62.199 46.7134 62.5738 46.709L63.259 46.698Z" fill="white"/>
<path d="M52.4071 36.889C52.4071 35.4316 52.4071 33.9764 52.4071 32.5189C52.4071 32.2981 52.4958 32.2054 52.7175 32.2076C53.212 32.2076 53.7087 32.2186 54.2032 32.2076C54.4537 32.2076 54.5247 32.2937 54.5247 32.5322C54.5158 34.3164 54.5158 36.1014 54.5247 37.8871C54.5247 38.8941 54.5247 39.901 54.5602 40.908C54.5735 41.3828 54.8196 41.767 55.3762 41.7648C55.5447 41.7648 55.5979 41.8597 55.5979 42.0187C55.5979 42.5112 55.5979 43.0036 55.5979 43.4983C55.5979 43.6771 55.5513 43.8471 55.3207 43.814C54.8019 43.7412 54.2741 43.7721 53.7686 43.5667C53.4568 43.4443 53.1835 43.2411 52.9769 42.9783C52.7703 42.7155 52.6379 42.4025 52.5934 42.0717C52.314 40.5856 52.4847 39.0796 52.4448 37.5824C52.4448 37.3616 52.4448 37.1231 52.4448 36.8934L52.4071 36.889Z" fill="#090A09"/>
<path d="M57.405 39.4594C57.405 38.1345 57.405 36.8095 57.405 35.4846C57.405 35.1975 57.5092 35.0893 57.7931 35.0981C58.2365 35.1114 58.68 35.1158 59.1124 35.0981C59.4228 35.0827 59.5138 35.2063 59.5115 35.5C59.5115 37.8982 59.5115 40.2956 59.5115 42.6922C59.5115 42.944 59.5381 43.1957 59.5359 43.4452C59.5337 43.6948 59.4738 43.8626 59.1568 43.8449C58.6955 43.8206 58.2321 43.8295 57.7709 43.8449C57.4871 43.8449 57.4072 43.7235 57.4095 43.4695C57.4095 42.1446 57.4095 40.7976 57.4095 39.4616L57.405 39.4594Z" fill="#090A09"/>
<path d="M58.5093 32C59.1169 31.9183 59.6756 32.5543 59.669 33.1505C59.6523 33.4557 59.5207 33.7435 59.3004 33.9563C59.0801 34.1691 58.7873 34.2914 58.4805 34.2988C58.3236 34.3036 58.1675 34.2759 58.0219 34.2176C57.8764 34.1592 57.7445 34.0715 57.6347 33.9599C57.5249 33.8482 57.4395 33.7151 57.384 33.569C57.3284 33.4228 57.3039 33.2668 57.3119 33.1107C57.3122 32.9579 57.3439 32.8068 57.4053 32.6667C57.4666 32.5267 57.5562 32.4006 57.6685 32.2965C57.7807 32.1923 57.9133 32.1123 58.058 32.0613C58.2026 32.0103 58.3562 31.9894 58.5093 32Z" fill="#090A09"/>
<path d="M76.6851 46.1437C76.7102 46.1425 76.7346 46.1345 76.7555 46.1204C76.7763 46.1064 76.7929 46.0869 76.8035 46.0642C76.814 46.0414 76.818 46.0161 76.8151 45.9912C76.8122 45.9663 76.8025 45.9427 76.7871 45.9229C75.1802 44.1165 73.5711 42.3132 71.9599 40.5127C71.9413 40.4923 71.917 40.4779 71.8901 40.4714C71.8632 40.465 71.8349 40.4667 71.8091 40.4765C71.7832 40.4863 71.7609 40.5036 71.7451 40.5262C71.7292 40.5489 71.7206 40.5757 71.7204 40.6033L71.7026 46.0222C71.7032 46.0588 71.7182 46.0936 71.7443 46.1192C71.7705 46.1448 71.8057 46.1592 71.8423 46.1592H73.2371C73.2775 46.1592 73.3169 46.1715 73.3502 46.1944C73.3834 46.2172 73.4089 46.2496 73.4233 46.2872L74.9245 50.3195C74.9429 50.3685 74.9759 50.4109 75.0191 50.4409C75.0622 50.4708 75.1135 50.487 75.1662 50.4873H76.4434C76.4846 50.487 76.5252 50.4768 76.5617 50.4576C76.5981 50.4384 76.6294 50.4107 76.6529 50.3769C76.6764 50.3432 76.6914 50.3043 76.6966 50.2635C76.7018 50.2228 76.6971 50.1814 76.6829 50.1428L75.246 46.2828C75.2407 46.2682 75.239 46.2525 75.241 46.2371C75.243 46.2217 75.2487 46.207 75.2576 46.1942C75.2665 46.1815 75.2784 46.171 75.2922 46.1638C75.306 46.1565 75.3213 46.1527 75.3369 46.1525L76.6851 46.1437Z" fill="white"/>
<path d="M76.9246 43.3768C75.9948 41.9414 75.0605 40.5046 74.1219 39.0663C74.0642 38.9758 74.0154 38.9206 74.0975 38.8124C74.4545 38.3398 76.3658 35.6988 76.694 35.2351C76.8248 35.0496 76.7605 34.906 76.5432 34.906C75.9401 34.906 75.3348 34.9171 74.7294 34.9259C74.6633 34.9237 74.5977 34.9389 74.5394 34.9699C74.481 35.0009 74.4318 35.0466 74.3968 35.1026C74.2549 35.3234 74.1063 35.5442 73.9533 35.7518C73.4611 36.4584 72.9622 37.1628 72.4721 37.8739C72.4246 37.9545 72.3527 38.0181 72.2666 38.0554C72.1805 38.0927 72.0848 38.1018 71.9932 38.0815C71.7714 38.0395 71.8003 37.8606 71.8003 37.6862C71.8003 35.9682 71.8003 34.2502 71.8003 32.5322C71.8003 32.2782 71.7227 32.1722 71.4655 32.1789H70.2082C70.1594 32.1789 70.1084 32.1789 70.0596 32.1789C69.7426 32.1612 69.6805 32.2782 69.6805 32.5719C69.6805 36.0742 69.6805 39.5764 69.6805 43.0765C69.6559 43.2975 69.6656 43.5209 69.7093 43.7389C70.2769 43.7389 70.8446 43.7389 71.4122 43.7588C71.6229 43.7588 71.6894 43.6661 71.7027 43.5027V40.6121C71.7036 40.5846 71.7127 40.5579 71.7288 40.5355C71.7449 40.5131 71.7673 40.496 71.7932 40.4863C71.819 40.4766 71.8472 40.4748 71.8741 40.4811C71.9011 40.4873 71.9255 40.5014 71.9444 40.5216L71.9644 40.5436C71.9995 40.5749 72.0322 40.6088 72.0619 40.6452C72.9289 41.6168 73.8026 42.5818 74.6696 43.5557C74.7292 43.6327 74.8069 43.6941 74.8957 43.7345C74.9846 43.7749 75.082 43.7931 75.1796 43.7875C75.6851 43.7677 76.1907 43.7875 76.6962 43.7743C76.7916 43.7743 76.9069 43.803 76.9623 43.6926C76.9861 43.6416 76.9951 43.5851 76.9885 43.5294C76.9818 43.4736 76.9597 43.4208 76.9246 43.3768Z" fill="#090A09"/>
</g>
<defs>
<clipPath id="clip0_307_168">
<rect width="64" height="27" fill="white" transform="translate(13 32)"/>
</clipPath>
<clipPath id="clip1_307_168">
<rect width="64" height="27" fill="white" transform="translate(13 32)"/>
</clipPath>
</defs>
</svg>
