<svg width="90" height="90" fill="none" xmlns="http://www.w3.org/2000/svg"><circle cx="45" cy="45" r="45" fill="#FBBC12"/><g clip-path="url(#a)"><path d="M22.87 51.128v-4.075c0-.293.088-.384.374-.368.363.02.726.02 1.089 0 .286-.016.397.119.426.377.017.133-.051.325.108.38.116.038.169-.146.26-.22a2.427 2.427 0 0 1 2.015-.562c.253.011.504.045.75.102.403.14.759.391 1.024.724.12.146.222.188.393 0 .776-.81 1.747-.993 2.83-.85.73.097 1.33.364 1.773.967.409.583.626 1.277.62 1.988.036 1.883.016 3.767.02 5.65 0 .175-.026.297-.245.294H32.72c-.264 0-.261-.174-.261-.357v-2.99c0-.884.057-1.754-.054-2.626-.102-.808-.665-1.21-1.523-1.031-.818.168-1.089.53-1.109 1.364-.02 1.5 0 3.002 0 4.5 0 .275-.013.548-.024.822 0 .206-.095.32-.326.318-.461 0-.925-.01-1.386 0-.246 0-.341-.108-.346-.329v-.788c-.015-1.566.042-3.133-.042-4.697-.044-.832-.56-1.384-1.583-1.186-.798.155-1.055.477-1.082 1.34-.027.811 0 1.621 0 2.43v2.793c0 .393-.04.426-.444.428-.443 0-.887-.013-1.33 0-.284.014-.357-.095-.355-.357v-4.077l.013.036Z" fill="#fff"/><path d="M20.878 38.263c-.037.823.065 1.821-.055 2.815-.166 1.389-.785 2.29-2.28 2.676a7.305 7.305 0 0 1-2.973.095c-.927-.141-1.774-.525-2.217-1.442a2.71 2.71 0 0 1-.333-1.181c0-2.18-.056-4.361.02-6.536.046-1.31.847-2.22 2.3-2.493.776-.15 1.57-.19 2.356-.117.79.077 1.552.253 2.198.777.418.354.703.839.807 1.376.137.63.197 1.275.18 1.92-.007.648-.003 1.293-.003 2.11Zm-5.765-.234h.022c0 .93-.01 1.859 0 2.788a1.114 1.114 0 0 0 .739 1.07c.443.185.904.14 1.363.127 1.047-.03 1.504-.614 1.515-1.59.013-1.192 0-2.387 0-3.58 0-.48 0-.962-.011-1.443-.031-.775-.295-1.164-1.036-1.372a2.838 2.838 0 0 0-1.814.06 1.142 1.142 0 0 0-.758 1.018 4.74 4.74 0 0 0-.03.59l.001 2.331h.01Z" fill="#090A09"/><path d="M58.62 51.94c-.65 0-1.3.018-1.947 0-.337-.013-.408.113-.39.42.022.283.089.56.197.824a.813.813 0 0 0 .646.492c.365.078.743.078 1.108 0a.917.917 0 0 0 .723-.685c.038-.167.124-.207.277-.205h1.553c.248 0 .337.108.31.344-.1.844-.384 1.575-1.182 2.017a3.139 3.139 0 0 1-.82.311c-1.255.294-2.502.322-3.659-.329a2.51 2.51 0 0 1-1.21-1.802c-.251-1.26-.174-2.535-.096-3.791.102-1.661 1.127-2.81 2.971-2.91.74-.043 1.486-.06 2.204.231a2.608 2.608 0 0 1 1.63 1.857c.237.92.155 1.866.175 2.805 0 .306-.15.43-.443.428H58.62v-.007Zm-.984-1.808h1.122c.17 0 .25-.075.246-.221-.014-.687-.17-1.274-1.016-1.429-.547-.101-1.392.078-1.592.72-.055.177-.095.358-.142.537-.075.278 0 .39.293.397.357.002.725-.002 1.089-.004Z" fill="#fff"/><path d="M36.094 40.124h-1.98c-.421 0-.421 0-.395.409-.012.317.053.632.19.918a.97.97 0 0 0 .91.532c.38 0 .765.062 1.126-.145a.742.742 0 0 0 .413-.477.366.366 0 0 1 .428-.307c.472.013.947.013 1.419 0 .222 0 .3.062.297.278a2.318 2.318 0 0 1-1.552 2.208 5.718 5.718 0 0 1-3.282.146c-1.282-.307-1.931-1.197-2.05-2.495a20.042 20.042 0 0 1 0-3.576c.121-1.389 1.01-2.448 2.53-2.667a5.936 5.936 0 0 1 2.128.05 2.567 2.567 0 0 1 2.009 1.767c.304.884.186 1.767.221 2.666.02.7 0 .7-.716.7l-1.696-.007Zm-1.036-1.74h.925c.554 0 .563 0 .444-.559-.074-.349-.122-.73-.497-.914-.887-.442-2.193-.28-2.244 1.186 0 .22.078.291.282.29.365-.007.727-.003 1.09-.003ZM22.836 39.338v-4.074c0-.272.091-.371.368-.356.373.02.748 0 1.122 0 .282 0 .444.106.424.409 0 .115-.036.263.1.322.135.06.186-.117.272-.183a2.801 2.801 0 0 1 1.932-.585c1.057.066 1.891.503 2.357 1.506.243.57.36 1.186.346 1.806.01 1.767 0 3.533.015 5.3 0 .22-.093.342-.337.335-.443 0-.902-.02-1.352 0-.317.016-.404-.119-.402-.406v-4.858c0-.481-.013-.97-.332-1.373a1.367 1.367 0 0 0-1.415-.367c-.619.197-.92.53-.94 1.104-.062 1.815-.042 3.633-.038 5.45 0 .393-.031.442-.417.442-.443 0-.887-.023-1.33 0-.302.02-.386-.093-.386-.371v-4.105l.013.004Z" fill="#090A09"/><path d="M52.197 52.316v2.87c0 .398-.052.442-.462.442h-1.188c-.541 0-.541 0-.541-.554v-5.16a1.826 1.826 0 0 0-.05-.489c-.316-1.09-1.642-1.049-2.217-.534-.348.309-.383.755-.387 1.175-.018 1.687 0 3.371 0 5.059 0 .485-.018.5-.502.5h-1.255c-.35 0-.443-.105-.443-.44.129-2.715.033-5.429.049-8.145 0-.316.095-.441.416-.417.386.022.772.013 1.156 0 .221 0 .328.066.32.298 0 .124-.03.28.112.353.142.073.264-.066.37-.143.887-.663 1.86-.68 2.865-.312 1.085.398 1.477 1.29 1.666 2.332.188 1.098.026 2.217.09 3.165ZM39.91 55.661a4.026 4.026 0 0 1-2.23-.422 2.123 2.123 0 0 1-.919-1.064c-.303-.625-.343-1.307-.374-1.987-.051-1.091-.087-2.193.124-3.27.204-1.025.787-1.767 1.836-2.09a5.32 5.32 0 0 1 2.66-.106c1.37.283 2.056 1.12 2.247 2.529.166 1.234.044 2.47-.014 3.7-.077 1.626-1.066 2.523-2.66 2.697a5.523 5.523 0 0 1-.67.013Zm-1.41-4.483c0 .493-.016.985 0 1.478a1.181 1.181 0 0 0 .516.985 1.408 1.408 0 0 0 1.977-.4c.136-.21.212-.454.22-.705.047-.894.036-1.793 0-2.69-.028-.76-.356-1.17-1.04-1.286-1.064-.186-1.613.271-1.667 1.238-.02.46-.006.921-.006 1.38Z" fill="#fff"/><path d="M63.465 39.395a12.97 12.97 0 0 0 .038 1.608c.089.662.386.965 1.05 1.027.187.01.374.01.56 0 .696-.014 1.046-.468 1.108-1.104.031-.316.136-.404.444-.385.426.03.856 0 1.286 0 .173 0 .275.038.277.221 0 1.051-.222 1.988-1.146 2.65-.335.23-.718.38-1.12.442a5.96 5.96 0 0 1-2.452-.036 2.721 2.721 0 0 1-1.342-.704 2.787 2.787 0 0 1-.814-1.804c-.104-1.234-.1-2.475.014-3.708.155-1.393.92-2.387 2.494-2.632a6.947 6.947 0 0 1 1.938-.013c1.422.18 2.288 1.053 2.4 2.475.077 1 .07.797-.73.808-.308 0-.617-.01-.923 0-.221 0-.301-.084-.314-.282a1.4 1.4 0 0 0-.043-.29c-.18-.629-.443-.863-1.162-.91-.93-.061-1.527.305-1.57 1.286-.008.453.007.903.007 1.351ZM43.841 39.627c-.01-.894-.12-1.795.153-2.676.249-.808.721-1.433 1.515-1.74a5.181 5.181 0 0 1 3.579-.049c.924.305 1.357 1.025 1.552 1.92.044.27.071.542.082.816.022.221-.06.35-.313.345a28.935 28.935 0 0 0-1.388 0c-.222 0-.284-.095-.3-.294-.068-.95-.613-1.23-1.476-1.186-.862.044-1.262.473-1.295 1.374-.063.961-.05 1.926.038 2.886.062.521.364.974.976 1.005.42.022.835.061 1.217-.157a1.106 1.106 0 0 0 .534-.994c.011-.287.122-.347.384-.336.443.018.887 0 1.33 0 .158 0 .277.018.31.208.158.912-.425 2.235-1.212 2.71-.681.41-1.437.499-2.218.494-.78-.004-1.596-.084-2.29-.554-.743-.504-1.071-1.246-1.151-2.096-.069-.556-.027-1.117-.027-1.676Z" fill="#090A09"/><path d="M63.259 46.698c.198.012.396.012.594 0 .306-.042.444.08.53.371.246.883.57 1.74.765 2.628.214.89.363 1.793.444 2.705 0 .075.013.152.022.22.009.07.04.104.106.1.067-.004.067-.049.078-.09.045-.158.082-.318.11-.48a22.73 22.73 0 0 1 .772-3.66c.153-.507.33-1.008.444-1.527a.313.313 0 0 1 .35-.271h1.552c.262 0 .337.105.266.342-.192.647-.381 1.294-.576 1.939-.246.808-.497 1.616-.745 2.429-.198.64-.397 1.283-.59 1.927-.248.83-.472 1.67-.738 2.496-.289.883-.375 1.864-1.023 2.62a1.49 1.49 0 0 1-.997.544 3.284 3.284 0 0 1-1.46-.165c-.29-.106-.37-.268-.243-.696.06-.197.105-.399.135-.603.038-.252.155-.366.443-.252.395.162.717-.028.887-.42.144-.341.222-.701.344-1.048.15-.404-.067-.77-.17-1.137-.26-.908-.564-1.802-.843-2.703-.293-.943-.577-1.886-.865-2.831-.204-.663-.426-1.343-.603-2.025-.095-.371-.049-.398.326-.402l.685-.011Z" fill="#fff"/><path d="M52.407 36.889v-4.37c0-.22.089-.314.31-.311.495 0 .992.01 1.486 0 .25 0 .322.086.322.324-.01 1.784-.01 3.57 0 5.355 0 1.007 0 2.014.035 3.021.014.475.26.859.816.857.169 0 .222.095.222.254v1.48c0 .178-.047.348-.277.315-.52-.073-1.047-.042-1.552-.247a1.882 1.882 0 0 1-1.176-1.495c-.279-1.486-.108-2.992-.148-4.49v-.689l-.038-.004ZM57.405 39.46v-3.975c0-.288.104-.396.388-.387.444.013.887.018 1.32 0 .31-.015.4.108.398.402v7.192c0 .252.027.504.025.753-.002.25-.062.418-.38.4a16.134 16.134 0 0 0-1.385 0c-.284 0-.364-.121-.361-.376v-4.007l-.005-.003ZM58.51 32c.607-.082 1.166.554 1.159 1.15a1.213 1.213 0 0 1-.369.806c-.22.213-.513.335-.82.343a1.14 1.14 0 0 1-1.096-.73 1.127 1.127 0 0 1-.072-.458 1.111 1.111 0 0 1 .746-1.05c.145-.05.298-.072.451-.061Z" fill="#090A09"/><path d="M76.685 46.144a.138.138 0 0 0 .13-.153.137.137 0 0 0-.028-.068c-1.607-1.806-3.216-3.61-4.827-5.41a.138.138 0 0 0-.215.013.136.136 0 0 0-.025.077l-.017 5.42a.139.139 0 0 0 .14.136h1.394a.2.2 0 0 1 .186.128l1.501 4.032a.259.259 0 0 0 .242.168h1.277a.258.258 0 0 0 .254-.224.256.256 0 0 0-.014-.12l-1.437-3.86a.097.097 0 0 1 .09-.13l1.35-.01Z" fill="#fff"/><path d="M76.925 43.377a1520.12 1520.12 0 0 0-2.803-4.31c-.058-.091-.107-.146-.025-.255.358-.472 2.269-3.113 2.597-3.577.13-.185.066-.329-.15-.329-.604 0-1.21.011-1.815.02a.378.378 0 0 0-.332.177c-.142.22-.29.441-.444.649-.492.706-.99 1.41-1.48 2.122a.443.443 0 0 1-.48.207c-.222-.042-.193-.22-.193-.395v-5.154c0-.254-.077-.36-.334-.353H70.06c-.317-.018-.38.1-.38.393v10.505c-.024.22-.014.444.03.662.567 0 1.135 0 1.702.02.21 0 .277-.093.29-.256v-2.89a.14.14 0 0 1 .172-.132c.027.006.052.02.07.04l.02.023a.891.891 0 0 1 .098.101c.867.972 1.74 1.937 2.608 2.91a.6.6 0 0 0 .51.233c.505-.02 1.01 0 1.516-.014.096 0 .21.029.266-.081a.302.302 0 0 0-.037-.316Z" fill="#090A09"/></g><g clip-path="url(#b)"><path d="M22.87 51.128v-4.075c0-.293.088-.384.374-.368.363.02.726.02 1.089 0 .286-.016.397.119.426.377.017.133-.051.325.108.38.116.038.169-.146.26-.22a2.427 2.427 0 0 1 2.015-.562c.253.011.504.045.75.102.403.14.759.391 1.024.724.12.146.222.188.393 0 .776-.81 1.747-.993 2.83-.85.73.097 1.33.364 1.773.967.409.583.626 1.277.62 1.988.036 1.883.016 3.767.02 5.65 0 .175-.026.297-.245.294H32.72c-.264 0-.261-.174-.261-.357v-2.99c0-.884.057-1.754-.054-2.626-.102-.808-.665-1.21-1.523-1.031-.818.168-1.089.53-1.109 1.364-.02 1.5 0 3.002 0 4.5 0 .275-.013.548-.024.822 0 .206-.095.32-.326.318-.461 0-.925-.01-1.386 0-.246 0-.341-.108-.346-.329v-.788c-.015-1.566.042-3.133-.042-4.697-.044-.832-.56-1.384-1.583-1.186-.798.155-1.055.477-1.082 1.34-.027.811 0 1.621 0 2.43v2.793c0 .393-.04.426-.444.428-.443 0-.887-.013-1.33 0-.284.014-.357-.095-.355-.357v-4.077l.013.036Z" fill="#fff"/><path d="M20.878 38.263c-.037.823.065 1.821-.055 2.815-.166 1.389-.785 2.29-2.28 2.676a7.305 7.305 0 0 1-2.973.095c-.927-.141-1.774-.525-2.217-1.442a2.71 2.71 0 0 1-.333-1.181c0-2.18-.056-4.361.02-6.536.046-1.31.847-2.22 2.3-2.493.776-.15 1.57-.19 2.356-.117.79.077 1.552.253 2.198.777.418.354.703.839.807 1.376.137.63.197 1.275.18 1.92-.007.648-.003 1.293-.003 2.11Zm-5.765-.234h.022c0 .93-.01 1.859 0 2.788a1.114 1.114 0 0 0 .739 1.07c.443.185.904.14 1.363.127 1.047-.03 1.504-.614 1.515-1.59.013-1.192 0-2.387 0-3.58 0-.48 0-.962-.011-1.443-.031-.775-.295-1.164-1.036-1.372a2.838 2.838 0 0 0-1.814.06 1.142 1.142 0 0 0-.758 1.018 4.74 4.74 0 0 0-.03.59l.001 2.331h.01Z" fill="#090A09"/><path d="M58.62 51.94c-.65 0-1.3.018-1.947 0-.337-.013-.408.113-.39.42.022.283.089.56.197.824a.813.813 0 0 0 .646.492c.365.078.743.078 1.108 0a.917.917 0 0 0 .723-.685c.038-.167.124-.207.277-.205h1.553c.248 0 .337.108.31.344-.1.844-.384 1.575-1.182 2.017a3.139 3.139 0 0 1-.82.311c-1.255.294-2.502.322-3.659-.329a2.51 2.51 0 0 1-1.21-1.802c-.251-1.26-.174-2.535-.096-3.791.102-1.661 1.127-2.81 2.971-2.91.74-.043 1.486-.06 2.204.231a2.608 2.608 0 0 1 1.63 1.857c.237.92.155 1.866.175 2.805 0 .306-.15.43-.443.428H58.62v-.007Zm-.984-1.808h1.122c.17 0 .25-.075.246-.221-.014-.687-.17-1.274-1.016-1.429-.547-.101-1.392.078-1.592.72-.055.177-.095.358-.142.537-.075.278 0 .39.293.397.357.002.725-.002 1.089-.004Z" fill="#fff"/><path d="M36.094 40.124h-1.98c-.421 0-.421 0-.395.409-.012.317.053.632.19.918a.97.97 0 0 0 .91.532c.38 0 .765.062 1.126-.145a.742.742 0 0 0 .413-.477.366.366 0 0 1 .428-.307c.472.013.947.013 1.419 0 .222 0 .3.062.297.278a2.318 2.318 0 0 1-1.552 2.208 5.718 5.718 0 0 1-3.282.146c-1.282-.307-1.931-1.197-2.05-2.495a20.042 20.042 0 0 1 0-3.576c.121-1.389 1.01-2.448 2.53-2.667a5.936 5.936 0 0 1 2.128.05 2.567 2.567 0 0 1 2.009 1.767c.304.884.186 1.767.221 2.666.02.7 0 .7-.716.7l-1.696-.007Zm-1.036-1.74h.925c.554 0 .563 0 .444-.559-.074-.349-.122-.73-.497-.914-.887-.442-2.193-.28-2.244 1.186 0 .22.078.291.282.29.365-.007.727-.003 1.09-.003ZM22.836 39.338v-4.074c0-.272.091-.371.368-.356.373.02.748 0 1.122 0 .282 0 .444.106.424.409 0 .115-.036.263.1.322.135.06.186-.117.272-.183a2.801 2.801 0 0 1 1.932-.585c1.057.066 1.891.503 2.357 1.506.243.57.36 1.186.346 1.806.01 1.767 0 3.533.015 5.3 0 .22-.093.342-.337.335-.443 0-.902-.02-1.352 0-.317.016-.404-.119-.402-.406v-4.858c0-.481-.013-.97-.332-1.373a1.367 1.367 0 0 0-1.415-.367c-.619.197-.92.53-.94 1.104-.062 1.815-.042 3.633-.038 5.45 0 .393-.031.442-.417.442-.443 0-.887-.023-1.33 0-.302.02-.386-.093-.386-.371v-4.105l.013.004Z" fill="#090A09"/><path d="M52.197 52.316v2.87c0 .398-.052.442-.462.442h-1.188c-.541 0-.541 0-.541-.554v-5.16a1.826 1.826 0 0 0-.05-.489c-.316-1.09-1.642-1.049-2.217-.534-.348.309-.383.755-.387 1.175-.018 1.687 0 3.371 0 5.059 0 .485-.018.5-.502.5h-1.255c-.35 0-.443-.105-.443-.44.129-2.715.033-5.429.049-8.145 0-.316.095-.441.416-.417.386.022.772.013 1.156 0 .221 0 .328.066.32.298 0 .124-.03.28.112.353.142.073.264-.066.37-.143.887-.663 1.86-.68 2.865-.312 1.085.398 1.477 1.29 1.666 2.332.188 1.098.026 2.217.09 3.165ZM39.91 55.661a4.026 4.026 0 0 1-2.23-.422 2.123 2.123 0 0 1-.919-1.064c-.303-.625-.343-1.307-.374-1.987-.051-1.091-.087-2.193.124-3.27.204-1.025.787-1.767 1.836-2.09a5.32 5.32 0 0 1 2.66-.106c1.37.283 2.056 1.12 2.247 2.529.166 1.234.044 2.47-.014 3.7-.077 1.626-1.066 2.523-2.66 2.697a5.523 5.523 0 0 1-.67.013Zm-1.41-4.483c0 .493-.016.985 0 1.478a1.181 1.181 0 0 0 .516.985 1.408 1.408 0 0 0 1.977-.4c.136-.21.212-.454.22-.705.047-.894.036-1.793 0-2.69-.028-.76-.356-1.17-1.04-1.286-1.064-.186-1.613.271-1.667 1.238-.02.46-.006.921-.006 1.38Z" fill="#fff"/><path d="M63.465 39.395a12.97 12.97 0 0 0 .038 1.608c.089.662.386.965 1.05 1.027.187.01.374.01.56 0 .696-.014 1.046-.468 1.108-1.104.031-.316.136-.404.444-.385.426.03.856 0 1.286 0 .173 0 .275.038.277.221 0 1.051-.222 1.988-1.146 2.65-.335.23-.718.38-1.12.442a5.96 5.96 0 0 1-2.452-.036 2.721 2.721 0 0 1-1.342-.704 2.787 2.787 0 0 1-.814-1.804c-.104-1.234-.1-2.475.014-3.708.155-1.393.92-2.387 2.494-2.632a6.947 6.947 0 0 1 1.938-.013c1.422.18 2.288 1.053 2.4 2.475.077 1 .07.797-.73.808-.308 0-.617-.01-.923 0-.221 0-.301-.084-.314-.282a1.4 1.4 0 0 0-.043-.29c-.18-.629-.443-.863-1.162-.91-.93-.061-1.527.305-1.57 1.286-.008.453.007.903.007 1.351ZM43.841 39.627c-.01-.894-.12-1.795.153-2.676.249-.808.721-1.433 1.515-1.74a5.181 5.181 0 0 1 3.579-.049c.924.305 1.357 1.025 1.552 1.92.044.27.071.542.082.816.022.221-.06.35-.313.345a28.935 28.935 0 0 0-1.388 0c-.222 0-.284-.095-.3-.294-.068-.95-.613-1.23-1.476-1.186-.862.044-1.262.473-1.295 1.374-.063.961-.05 1.926.038 2.886.062.521.364.974.976 1.005.42.022.835.061 1.217-.157a1.106 1.106 0 0 0 .534-.994c.011-.287.122-.347.384-.336.443.018.887 0 1.33 0 .158 0 .277.018.31.208.158.912-.425 2.235-1.212 2.71-.681.41-1.437.499-2.218.494-.78-.004-1.596-.084-2.29-.554-.743-.504-1.071-1.246-1.151-2.096-.069-.556-.027-1.117-.027-1.676Z" fill="#090A09"/><path d="M63.259 46.698c.198.012.396.012.594 0 .306-.042.444.08.53.371.246.883.57 1.74.765 2.628.214.89.363 1.793.444 2.705 0 .075.013.152.022.22.009.07.04.104.106.1.067-.004.067-.049.078-.09.045-.158.082-.318.11-.48a22.73 22.73 0 0 1 .772-3.66c.153-.507.33-1.008.444-1.527a.313.313 0 0 1 .35-.271h1.552c.262 0 .337.105.266.342-.192.647-.381 1.294-.576 1.939-.246.808-.497 1.616-.745 2.429-.198.64-.397 1.283-.59 1.927-.248.83-.472 1.67-.738 2.496-.289.883-.375 1.864-1.023 2.62a1.49 1.49 0 0 1-.997.544 3.284 3.284 0 0 1-1.46-.165c-.29-.106-.37-.268-.243-.696.06-.197.105-.399.135-.603.038-.252.155-.366.443-.252.395.162.717-.028.887-.42.144-.341.222-.701.344-1.048.15-.404-.067-.77-.17-1.137-.26-.908-.564-1.802-.843-2.703-.293-.943-.577-1.886-.865-2.831-.204-.663-.426-1.343-.603-2.025-.095-.371-.049-.398.326-.402l.685-.011Z" fill="#fff"/><path d="M52.407 36.889v-4.37c0-.22.089-.314.31-.311.495 0 .992.01 1.486 0 .25 0 .322.086.322.324-.01 1.784-.01 3.57 0 5.355 0 1.007 0 2.014.035 3.021.014.475.26.859.816.857.169 0 .222.095.222.254v1.48c0 .178-.047.348-.277.315-.52-.073-1.047-.042-1.552-.247a1.882 1.882 0 0 1-1.176-1.495c-.279-1.486-.108-2.992-.148-4.49v-.689l-.038-.004ZM57.405 39.46v-3.975c0-.288.104-.396.388-.387.444.013.887.018 1.32 0 .31-.015.4.108.398.402v7.192c0 .252.027.504.025.753-.002.25-.062.418-.38.4a16.134 16.134 0 0 0-1.385 0c-.284 0-.364-.121-.361-.376v-4.007l-.005-.003ZM58.51 32c.607-.082 1.166.554 1.159 1.15a1.213 1.213 0 0 1-.369.806c-.22.213-.513.335-.82.343a1.14 1.14 0 0 1-1.096-.73 1.127 1.127 0 0 1-.072-.458 1.111 1.111 0 0 1 .746-1.05c.145-.05.298-.072.451-.061Z" fill="#090A09"/><path d="M76.685 46.144a.138.138 0 0 0 .13-.153.137.137 0 0 0-.028-.068c-1.607-1.806-3.216-3.61-4.827-5.41a.138.138 0 0 0-.215.013.136.136 0 0 0-.025.077l-.017 5.42a.139.139 0 0 0 .14.136h1.394a.2.2 0 0 1 .186.128l1.501 4.032a.259.259 0 0 0 .242.168h1.277a.258.258 0 0 0 .254-.224.256.256 0 0 0-.014-.12l-1.437-3.86a.097.097 0 0 1 .09-.13l1.35-.01Z" fill="#fff"/><path d="M76.925 43.377a1520.12 1520.12 0 0 0-2.803-4.31c-.058-.091-.107-.146-.025-.255.358-.472 2.269-3.113 2.597-3.577.13-.185.066-.329-.15-.329-.604 0-1.21.011-1.815.02a.378.378 0 0 0-.332.177c-.142.22-.29.441-.444.649-.492.706-.99 1.41-1.48 2.122a.443.443 0 0 1-.48.207c-.222-.042-.193-.22-.193-.395v-5.154c0-.254-.077-.36-.334-.353H70.06c-.317-.018-.38.1-.38.393v10.505c-.024.22-.014.444.03.662.567 0 1.135 0 1.702.02.21 0 .277-.093.29-.256v-2.89a.14.14 0 0 1 .172-.132c.027.006.052.02.07.04l.02.023a.891.891 0 0 1 .098.101c.867.972 1.74 1.937 2.608 2.91a.6.6 0 0 0 .51.233c.505-.02 1.01 0 1.516-.014.096 0 .21.029.266-.081a.302.302 0 0 0-.037-.316Z" fill="#090A09"/></g><defs><clipPath id="a"><path fill="#fff" transform="translate(13 32)" d="M0 0h64v27H0z"/></clipPath><clipPath id="b"><path fill="#fff" transform="translate(13 32)" d="M0 0h64v27H0z"/></clipPath></defs></svg>