<svg width="90" height="90" viewBox="0 0 90 90" fill="none" xmlns="http://www.w3.org/2000/svg">
<circle cx="45" cy="45" r="45" fill="#F2F3F8"/>
<g clip-path="url(#clip0_205_624)">
<path d="M13.7417 45.6776C13.7417 46.3455 13.6245 46.9312 13.3902 47.4347C13.156 47.9381 12.8208 48.3248 12.3847 48.5948C11.9494 48.8648 11.448 48.9998 10.8805 48.9998C10.3515 49.0087 9.83093 48.8681 9.38051 48.5948C8.93369 48.317 8.57974 47.9159 8.36267 47.4415C8.12375 46.9427 8.00286 46.3672 8 45.715V45.3311C8 44.6666 8.11964 44.0802 8.35892 43.5719C8.5982 43.0635 8.93569 42.6743 9.3714 42.4043C9.82147 42.1308 10.342 41.9904 10.8708 41.9998C11.3993 41.9901 11.9197 42.129 12.3708 42.4001C12.8069 42.6666 13.1436 43.0501 13.3811 43.5508C13.6186 44.0514 13.739 44.6339 13.7422 45.2984L13.7417 45.6776ZM12.539 45.3221C12.539 44.567 12.3942 43.9883 12.1046 43.5861C11.8149 43.1839 11.4042 42.9826 10.8724 42.9823C10.3503 42.9823 9.94335 43.1822 9.65157 43.5819C9.35979 43.9816 9.21015 44.5492 9.20265 45.2847V45.6776C9.20265 46.4264 9.35069 47.0051 9.64675 47.4136C9.94282 47.8221 10.3535 48.0264 10.8789 48.0264C11.4114 48.0264 11.8208 47.8267 12.1072 47.4273C12.3937 47.0279 12.5365 46.4447 12.5358 45.6776L12.539 45.3221Z" fill="#CA3D35"/>
<path d="M20.4283 48.9082H19.2267L16.1427 44.073V48.9082H14.9395V42.0933H16.1427L19.2369 46.9449V42.0933H20.4283V48.9082Z" fill="#CA3D35"/>
<path d="M23.0532 47.959H26.1951V48.9082H21.8506V42.0933H23.0532V47.959Z" fill="#CA3D35"/>
<path d="M28.3862 48.9082H27.1883V42.0933H28.3862V48.9082Z" fill="#CA3D35"/>
<path d="M35.3546 48.9082H34.1519L31.0668 44.073V48.9082H29.8647V42.0933H31.0668L34.1616 46.9449V42.0933H35.3546V48.9082Z" fill="#CA3D35"/>
<path d="M40.8204 45.8649H37.9779V47.959H41.2993V48.9082H36.7758V42.0933H41.2672V43.0484H37.9779V44.9289H40.8204V45.8649Z" fill="#CA3D35"/>
<path d="M44.409 46.4682H41.9137V45.5511H44.409V46.4682Z" fill="#CA3D35"/>
<path d="M46.6049 47.959H50.3012V48.9082H45.1505V48.1388L48.7295 43.0484H45.1746V42.0933H50.1887V42.8438L46.6049 47.959Z" fill="#CA3D35"/>
<path d="M55.2699 47.3199H52.5914L52.0283 48.9082H50.7785L53.3928 42.0933H54.4717L57.0907 48.9082H55.8382L55.2699 47.3199ZM52.9267 46.3654H54.9324L53.9295 43.5393L52.9267 46.3654Z" fill="#CA3D35"/>
<path d="M59.1441 48.9082H57.9463V42.0933H59.1441V48.9082Z" fill="#CA3D35"/>
<path d="M62.181 42.0933L64.1775 47.3141L66.1693 42.0933H67.7228V48.9082H66.5255V46.6602L66.6444 43.6543L64.6007 48.9082H63.7404L61.701 43.6611L61.8199 46.6602V48.9082H60.6221V42.0933H62.181Z" fill="#CA3D35"/>
<path d="M69.7531 47.7085C69.9674 47.7085 70.1336 47.7685 70.2519 47.8884C70.3101 47.9485 70.3556 48.0194 70.3858 48.0969C70.416 48.1745 70.4302 48.2573 70.4276 48.3403C70.4301 48.4218 70.4159 48.503 70.3857 48.579C70.3555 48.6549 70.31 48.7241 70.2519 48.7822C70.1344 48.8993 69.9681 48.9578 69.7531 48.9578C69.5471 48.9578 69.3838 48.9 69.2635 48.7843C69.2036 48.7268 69.1567 48.6575 69.1256 48.5811C69.0945 48.5046 69.08 48.4226 69.083 48.3403C69.0803 48.2573 69.0945 48.1745 69.1247 48.0969C69.1549 48.0194 69.2004 47.9485 69.2587 47.8884C69.3762 47.7688 69.541 47.7089 69.7531 47.7085Z" fill="#CA3D35"/>
<path d="M74.4063 46.2857H73.067V48.9082H71.8643V42.0933H74.298C75.0962 42.0933 75.7125 42.2691 76.1468 42.6207C76.581 42.9722 76.7982 43.482 76.7982 44.15C76.7982 44.607 76.6864 44.9886 76.4628 45.2949C76.2259 45.6146 75.9018 45.8618 75.528 46.0078L77.0816 48.845V48.9082H75.7959L74.4063 46.2857ZM73.067 45.3312H74.3029C74.7082 45.3312 75.025 45.2307 75.2532 45.0296C75.4814 44.8285 75.5955 44.5532 75.5955 44.2038C75.5955 43.8389 75.4902 43.5565 75.2795 43.3569C75.0688 43.1572 74.7543 43.0543 74.3361 43.0484H73.067V45.3312Z" fill="#CA3D35"/>
<path d="M82.9984 42.0933V46.6464C82.9984 47.37 82.763 47.943 82.2923 48.3656C81.8216 48.7882 81.195 48.9991 80.4125 48.9984C79.6204 48.9984 78.9915 48.7901 78.5258 48.3735C78.0601 47.9569 77.828 47.3791 77.8294 46.6401V42.0933H79.0272V46.6507C79.0272 47.1077 79.1445 47.4556 79.3792 47.6943C79.6138 47.933 79.9592 48.0531 80.4152 48.0545C81.3402 48.0545 81.8029 47.5741 81.8032 46.6132V42.0933H82.9984Z" fill="#CA3D35"/>
</g>
<defs>
<clipPath id="clip0_205_624">
<rect width="75" height="7" fill="white" transform="translate(8 42)"/>
</clipPath>
</defs>
</svg>
