<svg width="90" height="90" fill="none" xmlns="http://www.w3.org/2000/svg"><g clip-path="url(#a)"><circle cx="45" cy="45" r="45" fill="#F97C13"/><path d="M27.122 57.385h.131a3.715 3.715 0 0 1 3.445 2.36 10.676 10.676 0 0 0 20.536-3.408 10.671 10.671 0 0 0-20.537-4.383 3.803 3.803 0 0 1-3.51 2.356h-.065a3.778 3.778 0 0 1-3.645-4.916A21.036 21.036 0 0 1 42.49 35.11l-7.355-12.782a4.748 4.748 0 0 1 1.724-6.48 4.817 4.817 0 0 1 6.574 1.768l8.663 14.876-3.576-13.17a4.23 4.23 0 0 1 2.98-5.175 4.291 4.291 0 0 1 5.234 2.947l4.04 14.938v-8.649a3.18 3.18 0 1 1 6.361 0V54.57c0 12.187-10.003 22.143-22.391 22.143h-1.326a20.926 20.926 0 0 1-19.94-14.28c-.731-2.49 1.058-5.047 3.644-5.047Z" fill="#fff"/></g><defs><clipPath id="a"><path fill="#fff" d="M0 0h90v90H0z"/></clipPath></defs></svg>