<svg width="90" height="90" fill="none" xmlns="http://www.w3.org/2000/svg"><circle cx="45" cy="45" r="45" fill="url(#a)"/><mask id="b" style="mask-type:alpha" maskUnits="userSpaceOnUse" x="0" y="0" width="90" height="90"><circle cx="45" cy="45" r="45" fill="#F5F5F5"/></mask><g mask="url(#b)"><path d="M79.004 96.491a20.45 20.45 0 0 0-.54-1.376c-.094-.224-.2-.456-.308-.697-.105-.224-.21-.466-.315-.7a65.477 65.477 0 0 0-1.706-3.363c-.052-.105-.115-.214-.168-.308-.305-.571-.634-1.142-.984-1.755-.179-.308-.357-.624-.56-.974-.35-.592-1.09-1.492-1.98-2.392a2.038 2.038 0 0 0-.157-.147c-.371-.36-.76-.729-1.173-1.09a.56.56 0 0 0-.042-.031l-.01-.01a5.064 5.064 0 0 0-.33-.277 1.177 1.177 0 0 1-.074-.063c-.178-.147-.37-.305-.55-.456a1.802 1.802 0 0 1-.084-.073 35.105 35.105 0 0 1-.57-.445c-.12-.084-.246-.179-.361-.263a27.858 27.858 0 0 0-2.032-1.355 25.95 25.95 0 0 0-1.492-.844 28.861 28.861 0 0 0-1.397-.7 32.205 32.205 0 0 0-1.629-.74c-.273-.308-4.09-3.565-5.593-4.592 2.802-1.068 5.075-2.973 6.588-4.518 1.66-1.692 3.586-4.2 4.02-6.164.032-.13.053-.266.074-.414.01-.042.01-.073.021-.105.01-.108.032-.203.042-.308v-.01c0-.032.01-.074.01-.105a3.25 3.25 0 0 0 .022-.32V61.814c.01-.137.01-.256.01-.382v-.021c.021-2.56-.875-6.115-2.514-9.986a12.484 12.484 0 0 1-.162-.382c0-.241-.02-.528-.094-.823.01-.01.031-.02.042-.031 1.958-1.43 2.974-4.666 3.152-5.3.256-.89.477-2.16.56-3.302.137-1.797-.041-3.069-.56-3.997-.315-.564-.91-1.334-2.739-2.255-.02-.01-.031-.021-.052-.032.094-.424.168-.974.073-1.597.105-.392.22-.77.33-1.142.21-.753.41-1.45.612-2.178.032-.13.063-.256.084-.393.01-.031.01-.063.01-.105l.032-.297c0-.032 0-.053.011-.084v-.011a2.19 2.19 0 0 0 0-.371v-.095c0-.084-.01-.178-.021-.262 0-.032-.01-.057-.01-.088v-.01a3.496 3.496 0 0 0-.053-.326c0-.032-.01-.053-.021-.084-.021-.078-.032-.162-.053-.235-.01-.032-.01-.063-.02-.084-.032-.095-.053-.19-.088-.287a.196.196 0 0 1-.021-.074c-.021-.073-.053-.137-.074-.21-.01-.032-.02-.053-.031-.084 0-.01-.01-.01-.01-.021a.592.592 0 0 0 .052-.13.15.15 0 0 0 .02-.063c.032-.073.064-.157.099-.241.01-.021.02-.053.031-.074.032-.105.063-.193.074-.256.01-.031.02-.052.02-.084.032-.105.043-.189.064-.252.01-.031.01-.067.02-.098.011-.073.032-.158.043-.252.01-.042.01-.074.01-.105.011-.074.021-.161.021-.256 0-.042 0-.073.011-.116 0-.084.01-.168 0-.252v-.119c0-.084-.01-.157-.01-.241 0-.043-.011-.085-.011-.127l-.032-.234c-.01-.042-.01-.084-.02-.116-.011-.073-.032-.147-.043-.22a5.15 5.15 0 0 0-.095-.33c-.01-.042-.02-.084-.041-.115-.021-.074-.053-.14-.077-.203-.021-.042-.032-.084-.053-.116-.01-.031-.02-.052-.031-.084a5.219 5.219 0 0 0-.676-1.163c-.01-.658-.158-1.387-.498-2.213-1.418-3.447-5.943-6.907-8.462-8.27C55.446 10.939 49.765 8 44.54 8c-1.131 0-2.178.147-3.11.424-1.226.368-2.053 1.068-2.434 2.073-.084.21-.137.42-.168.645a27.902 27.902 0 0 0-7.934 4.315c-1.544 1.205-2.973 2.602-3.947 3.828-1.545.15-2.876.508-3.968 1.093-1.724.907-2.708 2.284-2.708 3.765 0 .456.095.897.298 1.31.02.053.042.095.063.15.54 1.058 1.492 1.52 2.22 1.755v.011c.151.413.372.781.67 1.11.115.137.252.266.399.382.508.413 1.1.697 1.947.9.242 1.913.592 4.039.963 6.175-.126.15-.245.298-.35.445-1.016.644-2.031 1.692-2.823 2.963-.742 1.173-1.587 2.995-1.376 4.96.178 1.684.91 3.576 2.052 5.334.476.739 1.335 1.902 2.466 2.855.063.189.126.35.178.455.021.042.043.084.064.115-.414 2.456-.603 5.132-.011 7.713.15.634.36 1.289.644 1.926.964 2.231 2.638 4.316 4.89 6.102a2.3 2.3 0 0 0 .284.466c.318.434.742.868 1.282 1.292-.074.368-.148.74-.179 1.09-.109.126-.721.77-.932.973-.073.074-.16.147-.234.22-.116.106-.231.235-.347.351-.36.371-.732.781-1.1 1.215 0 0 0 .01-.014.01-.042.053-.095.106-.137.158-.003.008-.02.029-.052.067-.007.01-.01.017-.01.021l-.011.01c-.042.053-.095.106-.137.169a1.169 1.169 0 0 0-.042.052l-.02.021-.011.01c-.004 0-.01.011-.01.011-.011.01-2.582 2.837-2.635 2.858-.15.095-.308.19-.465.294-.074.053-.162.095-.235.151-2.01 1.32-3.965 2.96-5.268 4.091-.063.053-2.78 2.592-2.918 2.732 0 0-.528.487-.658.581-1.226.929-3.765 2.876-5.572 6.981-.13.287-.246.581-.372.9 0 .004-.01.028-.01.032-.021.042-.032.084-.053.126l-.031.094c-.151.403-.277.806-.393 1.198-.115.4 8.41 12.112 9.457 12.206 1.811.158 25.856 1.895 28.626 2.032h.158c.858 0 1.685-.371 2.245-1.026a2.974 2.974 0 0 0 .634-2.634v-.042c0-.011 0-.021-.01-.032a.136.136 0 0 0-.011-.021v-.01a.114.114 0 0 1-.01-.032V105.398a.897.897 0 0 0-.011-.056l-.01-.021-.011-.031v-.021l-.01-.021v-.011l-.022-.063V105.153a.803.803 0 0 1-.02-.074V105.058l-.011-.021a1.047 1.047 0 0 1-.021-.084V104.932l-.035-.108-.01-.021a2.424 2.424 0 0 0-.032-.126v-.011c-.116-.403-.231-.833-.368-1.268h9.128a2.948 2.948 0 0 0 1.821.708c.031 0 .739.031 1.828.031.308 0 .624 0 .932-.01.179 0 .36-.011.55-.011.189 0 .382-.01.581-.01h.074c.392.189.826.287 1.271.287h.792c.623 0 1.23-.203 1.727-.55a29.213 29.213 0 0 0 1.965-.298l.329-.063c1.639-.35 3.936-1.026 5.036-2.9.603-1.079.729-2.273.379-3.415-.063-.224-.147-.445-.221-.676Z" fill="#fff"/><path d="M50.472 107.174c-.262-.021-26.318-2.168-28.128-2.326-1.556-.14-3.598-2.571-4.676-4.01-1.342-1.79-2.855-4.305-3.1-6.01 0-.014-.01-.095-.031-.242.052-.133.08-.207.084-.224 1.621-4.305 4.042-6.154 5.344-7.149.242-.193.498-.382.592-.487.624-.7 5.955-5.947 10.326-8.147.42-.994 1.478-2.315 1.986-2.917 1.219-1.44 2.203-2.33 2.952-2.638.708-.539 2.126-.592 4.708-.483.35.01.774.032.91.021.284-.066.974-.109 5.587.592 2.178.326 4.304.686 4.655.739.676.042 2.136.214 2.907.869.91.413 2.319 1.492 3.376 2.42 1.545 1.345 2.19 2.16 2.484 2.637 7.502 2.526 11.712 7.573 12.24 8.483 2.456 4.22 3.966 7.31 4.624 9.447.22.697.095 1.408-.35 1.979-1.236 1.618-4.886 2.031-7.52 2.21-2.879.189-5.481.094-5.586.094-.025 0-.137-.003-.34-.01-.15-.133-.235-.207-.252-.221a5.151 5.151 0 0 1-.477-.476H50.06c.942 2.707 1.398 4.571 1.419 4.655l.318 1.299-1.324-.105Zm-31.312-7.52c1.769 2.368 3.047 3.257 3.355 3.299 1.566.137 21.359 1.766 26.763 2.211a69.443 69.443 0 0 0-1.46-4.452c-.032-.088-.19-.515-.477-1.282h16.325c.169.21.267.326.284.35.116.137.22.263.33.371 4.749.137 10.269-.413 11.158-1.576.053-.077.084-.13.042-.266-.612-1.968-2.105-5.016-4.451-9.054-.445-.774-4.498-5.492-11.576-7.754-.032-.011-.207-.07-.519-.172l-.105-.508c-.357-.792-3.922-3.944-5.089-4.357a4.497 4.497 0 0 0-.241-.084 9.046 9.046 0 0 0-.158-.179c-.203-.171-1.09-.371-1.832-.413a1.066 1.066 0 0 0-.105-.01c-4.179-.701-8.886-1.398-9.614-1.346-.235.042-.519.042-1.345.01-.718-.03-2.844-.115-3.44.095a3.778 3.778 0 0 1-.136.193c-.21.042-.326.067-.35.074-.21.084-1.013.686-2.19 2.084-1.057 1.246-1.65 2.23-1.723 2.507l-.063.508-.487.221c-3.828 1.79-9.225 6.907-10.09 7.87-.214.235-.488.445-.848.722-1.132.865-3.205 2.44-4.624 6.07.256 1.12 1.293 3.036 2.666 4.868Zm22.65-25.222c.011 0 .022 0 .032-.01-.01 0-.02 0-.031.01Z" fill="#000"/><path d="M36.648 73.746a3.337 3.337 0 0 0-.053-.126 3.754 3.754 0 0 1-.01-.14c-.403-4.19-.01-7.678 0-7.818l.105-.939 18.83 1.944c-.225.673-.347 1.047-.372 1.121-.434 1.314-1.492 5.1-1.247 6.88l.01.094v.094c-.244 4.42-2.094 6.042-3.323 7.12l-.273.243a9.74 9.74 0 0 0-.235.213c-.182.018-.284.028-.305.032-.36 0-.732.02-1.089.02-5.544 0-10.189-4.255-12.038-8.738Zm12.64 6.812.043-.042c1.089-.963 2.455-2.147 2.665-5.702-.126-1.1.052-2.718.55-4.791.147-.648.308-1.24.445-1.706-1.46-.15-13.138-1.359-14.599-1.51-.073 1.258-.168 3.66.074 6.337 2.21 5.225 7.047 7.645 10.822 7.414Z" fill="#000"/><path d="M52.588 72.573c-6.676 0-12.504-1.419-16.861-4.084-3.597-2.2-6.053-5.195-6.75-8.21-.655-2.834-.22-5.86.34-8.568-2.382-1.103-4.76-4.9-5.058-7.66-.266-2.444 1.937-5.32 3.514-6.147.399-.21.854-.329 1.352-.35-.011-.073-.021-.147-.043-.23-.57-3.29-1.152-6.687-1.429-9.395-1.754-.189-2.802-.55-3.001-1.502a1.289 1.289 0 0 1 .094-.823c-.868-.098-1.733-.298-2.136-.68a1.106 1.106 0 0 1-.361-.812c0-1.08 1.566-2.774 5.723-2.911.645-.974 2.084-2.602 4.137-4.2a25.915 25.915 0 0 1 9.064-4.528c-.273-.242-.43-.55-.41-.939.053-.848.929-1.124 1.226-1.208 1.829-.56 4.242-.435 7.163.37a31.785 31.785 0 0 1 6.399 2.582c2.75 1.492 6.96 5.037 7.744 7.797.158.56.179 1.079.084 1.555 1.079 1.11 1.765 2.529.424 4.56.602.981.802 1.86.602 2.634-.189.708-.392 1.405-.602 2.147-.57 1.969-1.152 3.997-1.66 6.813a50.13 50.13 0 0 0-.245 1.31c-.613 3.204-1.153 6 .01 10.178.095.02.182.042.266.063.028.007.165.049.41.126.109.235.168.368.182.392 2.252 4.897 3.331 9.426 2.802 11.818-.325 1.457-2.105 3.954-4.241 5.923-3.545 3.257-6.592 3.979-8.578 3.979h-.161ZM28.669 39.575c-1.058.56-2.665 2.774-2.504 4.252.126 1.209.813 2.785 1.786 4.116 1.026 1.408 2.042 2.094 2.592 2.16l1.047.116c-.133.62-.206.967-.22 1.037-.596 2.708-1.167 5.828-.53 8.588.572 2.487 2.771 5.1 5.892 7.016 4.063 2.483 9.551 3.807 15.877 3.807h.15c5.458 0 10.589-6.78 10.95-8.43.346-1.566-.288-5.29-2.456-10.137h-.031c-.05.004-.295.01-.732.021-.127-.417-.197-.651-.21-.697-1.545-4.98-.911-8.252-.242-11.709.084-.424.168-.858.242-1.292.528-2.907 1.152-5.09 1.702-7.002.213-.732.403-1.408.592-2.105.066-.234-.084-.784-.687-1.586-.028-.042-.178-.239-.445-.596.28-.34.435-.532.466-.57 1.173-1.458.858-1.976-.252-2.97l-.581-.52c.234-.399.364-.623.388-.668.042-.074.172-.284.021-.813-.592-2.115-4.44-5.352-6.823-6.644a29.664 29.664 0 0 0-5.996-2.413c-1.706-.463-3.205-.676-4.466-.634.074.031.137.063.214.105.172.09 1.044.529 2.613 1.324l-2.89.466c-4.907.791-8.535 2.963-10.714 4.633-2.487 1.902-3.821 3.713-3.979 4.074-.014.038-.087.245-.224.613h-.665c-1.745 0-2.876.305-3.566.613.648.073 1.46.115 2.203.073.277-.014 1.667-.094 4.168-.23a1118.996 1118.996 0 0 0-3.65 2.02 8.322 8.322 0 0 0-.616.357c.34.063.837.127 1.534.183.056.003.322.024.806.063.038.48.06.75.063.802.22 2.728.868 6.434 1.481 10.017.084.508.168 1.005.253 1.492l.255 1.482-1.45-.403a2.335 2.335 0 0 0-.75-.137c-.245 0-.444.042-.616.126Zm28.787 10.168-.02-.053-3.398-8.497 5.131 7.692.042.095-1.734.805-.02-.042ZM37.8 72.495c.77-.2 14.798 1.664 14.798 1.664s.932.792 1.461 1.405c.529.616 11.817 24.808 11.817 24.808h-22.08l-8.714-24.097c1.296-2.386 2.203-3.643 2.718-3.78Z" fill="#000"/><path d="M53.72 75.427c-.326 1.45-1.31 4.021-3.416 5.383.305.172 2.466 1.335 4.378 3.577.14.16.508.868.659.329.441-1.597-.01-3.916-.01-3.916.062-.14.57-1.264.633-1.404-.508-1.048-.942-1.948-1.271-2.603-.242-.487-.455-1.005-.974-1.366Z" fill="#fff"/><path d="M55.625 85.14c-.105.539-.603.791-.858.465-1.121-1.418-3.51-3.863-4.855-4.402-.942.56-2.687 4.126-3.131 7.576-.084.665-.424 1.026-1.058.802-3.09-1.1-7.86-3.5-6.623-5.09 1.047.974 3.523 3.146 5.905 4.214 1.236.56 1.163-.35 1.215-.721.435-2.655 1.713-5.681 2.823-6.76-6.388.392-10.735-4.505-12.258-7.383-.424.157-.624.931-1.408 3.215l8.43 23.316h22.07c-.011.011-6.126-13.085-9.566-20.248.01 1.215-.263 2.837-.686 5.016Z" fill="#fff"/><path d="M50.028 88.355c-.053 2.105 1.187 8.017 1.187 8.017l7.3.203s-4.582-8.147-5.248-9.299c.519-1.355.305-2.676.358-2.995-.886-1.173-3.478-3.278-3.923-3.078-1.261 1.23-2.074 4.042-2.074 4.042.48.623-.126 1.481 2.4 3.11Z" fill="url(#c)"/><path d="M31.653 79.255c-4.157 1.948-9.677 7.3-10.388 8.095-.718.791-4.462 2.812-6.105 8.41.392 2.749 4.795 8.78 6.623 8.938 1.832.161 28.784 1.513 28.784 1.513s-2.126-8.641-6.578-15.762c-4.455-7.12-6.052-10.514-7.597-16.598-1.068.042-4.623 4.378-4.739 5.404ZM59.74 80.61c7.457 2.393 11.625 7.353 12.112 8.19 1.068 1.849 3.628 6.304 4.54 9.257 1.11 3.572-12.515 3.054-12.515 3.054-3.331-2.96-9.195-18.605-9.829-25.526 1.366.487 5.482 4.042 5.692 5.026Z" fill="#9E5926"/><path d="M52.08 96.383c-.126-1.016-1.068-5.797-1.545-8.028 1.058-.126 2.074-.445 2.732-1.058 0 0 .158-.487.2-.742-.382.616-2.508 1.26-3.289.942-.858-.368-1.968-1.703-2.224-3.237-.21.571-.357 1.058-.357 1.058s.378 2.242 2.42 3.142c-.01.424.032.91.109 1.566.02.147.031.308.052.465.01.053.01.106.021.158.032.214.063.434.095.659.01.052.02.115.02.168.351 2.346.88 4.886.88 4.886l.063.01.823.01Z" fill="#005EBC"/><path d="M32.49 81.192c.718-1.162 1.195-2.973 2.865-4.126 1.1 6.456 7.703 12.791 10.242 18.08.063-.02.56-.182.623-.2 0 0 .042-.066.116-.16a45.698 45.698 0 0 0-2.368-4.316c-4.455-7.11-6.042-10.525-7.586-16.608-1.069.041-4.624 4.381-4.74 5.404-4.157 1.947-9.677 7.3-10.388 8.094-.718.795-4.462 2.813-6.105 8.41.046.329.151.697.298 1.11.308-1.005 2.168-6.028 5.373-8.525.476.22 1.43 1.184 2.623 2.77-.399-.833-1.078-2.497-1.67-3.089.402-.4 6.665-6.844 10.717-6.844ZM59.96 80.59c-.949-1.398-4.546-4.519-5.901-5.005.487 5.355 4.105 15.933 7.268 21.813.028.025.178.14.445.35.024-.92.038-1.432.042-1.534-3.492-6.633-5.703-14.661-6.22-17.813 1.575.094 5.14 3.205 5.69 4.23.54.52.074-.497.074-.497 3.905 1.366 8.907 5.394 9.468 6.22.56.838 4.115 7.227 5.576 9.689-.922-2.95-3.482-7.405-4.55-9.254-.487-.837-4.504-5.502-11.891-8.2Z" fill="#CE783E"/><path d="M69.789 101.377h-.792s-3.303-8.938-4.644-11.796c2.939 4.802 4.35 9.436 5.436 11.796Z" fill="#522800"/><path d="M50.038 88.386c.067 1.205.806 6.22 1.1 7.65-.581.01-.834.031-.834.031-.403-3.523-.644-5.576-.707-7.152-1.314-1.303-2.54-2.686-2.392-3.513.157-.833.126-1.11.126-1.11.423 2.466 2.23 3.863 2.707 4.094ZM60.311 96.87c.105 0 .806.192.476-.498-2.686-5.604-7.299-20.024-6.55-21.197l-.55.01c.55 5.626 4.666 19.516 6.624 21.685ZM53.775 87.287c.519-1.885.284-3.153.284-3.153l-.57-.318c.146.69.104 2.952-.267 3.47-.01 0 5.303 9.3 5.303 9.3.049-.014.297-.077.75-.193-2.568-4.774-4.4-7.81-5.5-9.106ZM46.917 94.785c-.178-.136-1.247-.654-1.513-1.225-1.425-3.09-4.683-8.105-6.451-12.08-1.692-3.832-2.498-6.624-2.718-8.01l.56-.211c0 4.497 8.007 17.211 10.122 21.526Z" fill="#000"/><path d="M37.44 72.688c-.393-4.147 0-7.628 0-7.628 1.67.171 15.043 1.551 16.714 1.726 0 0-1.608 4.918-1.279 7.3-.245 4.346-2.094 5.625-3.278 6.704-5.587.56-10.336-3.692-12.157-8.102Z" fill="#FFCA8F"/><path d="M37.44 70.646c.182-5.492 9.596-3.408 9.596-3.408.39.133 2.344.788 5.86 1.969l-.224 3.502c-9.124.315-14.203-.371-15.232-2.063ZM44.392 79.935c.116.052.242.094.357.147-.115-.053-.23-.095-.357-.147ZM44.812 80.103c.12.042.235.095.361.137-.116-.042-.242-.084-.36-.137ZM42.858 79.108c.116.074.22.137.336.203-.115-.066-.22-.14-.336-.203ZM43.236 79.343c.12.063.235.126.35.189-.115-.063-.23-.126-.35-.19ZM43.99 79.742c.115.053.23.109.356.172-.126-.053-.241-.12-.357-.172ZM43.607 79.543c.127.073.246.136.372.189-.126-.063-.245-.126-.372-.19ZM45.215 80.25c.126.053.256.098.382.13l-.382-.13ZM47.352 80.758a4.49 4.49 0 0 1 0 0ZM45.618 80.39c.115.032.242.074.382.105-.13-.031-.256-.073-.382-.105ZM46.917 80.695c.14.021.267.042.393.063-.127-.021-.263-.031-.393-.063ZM46.476 80.61c.137.032.252.053.378.074-.126-.02-.252-.042-.378-.073ZM46.042 80.506l.378.094c-.126-.031-.252-.052-.378-.094ZM42.476 78.867c.116.073.231.147.34.22-.12-.073-.224-.147-.34-.22ZM38.847 75.238c.074.116.148.22.232.326-.084-.105-.158-.22-.232-.326ZM39.09 75.574c.244.34.507.67.794.984-.276-.315-.54-.644-.795-.984ZM38.172 74.18c.2.347.42.697.665 1.047-.235-.35-.455-.7-.666-1.047ZM39.895 76.569c.084.105.178.214.273.308-.095-.094-.179-.203-.273-.308Z" fill="#BC8358"/><path d="M37.44 65.06s-.393 3.481 0 7.628c.203.498.455.995.732 1.492-.183-4.273.105-8.367.157-9.026-.178-.017-.798-.084-.89-.094ZM47.775 80.81c.137 0 .267.01.403.021-.136-.01-.266-.01-.403-.02ZM40.476 77.192a11.33 11.33 0 0 1-.287-.294c.098.095.193.2.287.294ZM41.79 78.37ZM41.45 78.082ZM48.634 80.842c-.13-.01-.256-.01-.393-.01.126 0 .263.01.393.01ZM41.11 77.798ZM40.476 77.206c.2.2.413.39.613.582-.21-.193-.413-.382-.613-.582ZM51.656 78.537a.224.224 0 0 0 .067-.094c-.021.031-.042.063-.067.094ZM51.31 79.066c.02-.031.041-.052.063-.084-.021.032-.042.053-.063.084ZM51.415 78.93c.031-.053.073-.106.105-.158-.032.052-.074.105-.105.158ZM51.162 79.266a.674.674 0 0 1 .105-.137l-.105.137ZM51.043 79.395c.021-.02.042-.052.063-.073-.02.02-.042.052-.063.073ZM50.938 79.522c.021-.022.042-.053.063-.074-.02.021-.042.053-.063.074ZM51.562 78.706c.02-.032.042-.064.063-.095l-.063.094ZM52.22 77.427c.01-.032.021-.074.042-.116-.01.042-.031.074-.042.116ZM51.765 78.37c.031-.053.063-.116.094-.183-.031.067-.063.12-.094.182ZM50.78 79.69c.032-.042.074-.074.106-.116-.032.042-.074.074-.105.116ZM52.122 77.648c.021-.042.032-.084.053-.116-.01.042-.032.074-.053.116ZM49.597 80.79c-.15.01-.288.02-.424.031l.424-.031ZM51.901 78.113a.496.496 0 0 0 .053-.105c-.021.032-.032.074-.053.105ZM51.996 77.924c.032-.063.063-.126.084-.178-.032.063-.052.126-.084.178ZM49.597 80.779c.031-.021.063-.052.105-.084a.41.41 0 0 1-.105.084ZM49.723 80.674c.031-.032.063-.063.094-.084-.031.031-.063.052-.094.084ZM49.828 80.58a.904.904 0 0 0 .147-.137c-.053.042-.105.084-.147.136ZM50.623 79.85l-.067.064c.022-.021.043-.042.067-.063ZM49.11 80.82c-.13.011-.266.011-.403.011.137 0 .263-.01.403-.01ZM50.147 80.292c.031-.021.052-.042.084-.073-.032.02-.053.052-.084.073ZM52.493 66.615c-.2 1.737-.89 8.304-.168 10.504.273-.802.477-1.797.55-3.033-.33-2.382 1.279-7.3 1.279-7.3l-1.66-.171ZM50.028 80.4a.278.278 0 0 0 .063-.052c-.021.021-.042.032-.063.053ZM50.399 80.061c.02-.021.042-.032.063-.053-.021.021-.042.032-.063.053ZM50.294 80.166c.02-.021.042-.031.052-.052-.02.02-.042.031-.052.052ZM50.665 79.809c.021-.025.042-.046.063-.067-.02.021-.042.042-.063.067Z" fill="#BC8358"/><path d="M31.303 46.42c-.116 3.099 28.321 5.281 28.321 5.281s-8.336-11.415 2.477-23.835c2.241-2.37 1.723-3.565.2-4.931 1.365-2.368-4.043-7.075-7.174-8.767-3.131-1.695-9.127-4-12.83-2.88-1.46.446.284.901 1.703 1.608-9.797 1.587-15.107 8.41-15.436 9.3-4.084 0-5.33 1.523-5.33 1.968 0 .445 2.412.718 4.02.624-2.592 1.429-2.115 2.063 1.31 2.325.476 5.843 2.858 16.21 2.74 19.306Z" fill="url(#d)"/><path d="M56.85 38.17c-1.341-.024-8.045-.132-20.118-.328-3.541 2.374-5.51 3.691-5.902 3.957.305 1.997.519 3.66.473 4.62-.116 3.1-2.494 8.813-1.362 13.702 1.13 4.886 8.153 11.551 22.689 11.551 5.958.116 11.555-7.026 12.038-9.173.476-2.147-.592-6.556-2.728-11.211-1.048-.308-2.273.315-2.273.315-.137.172-4.263-5.615-2.817-13.432Z" fill="url(#e)"/><path d="M47.975 48.601c-.56-.71-4.441.592-6.515 2.624-1.47-.172-4.073-1.524-4.739-2.445.88 1.387 3.65 2.76 4.316 2.9a4.726 4.726 0 0 0-.922 1.373c3.587-3.912 7.153-4.336 7.513-3.86.358.477 2.477 1.555 5.828 1.881 2.922.298 4.105-.897 4.865-1.67-.486-.011-1.523 1.418-4.623 1.057-3.1-.357-5.159-1.152-5.723-1.86Z" fill="#662F09"/><path d="M60.374 21.604c1.313 1.047 2.774 2.77 2.476 3.839-.297 1.068-1.345 1.82-1.429 2.02-.042.095.414.137.91.148 1.98-2.21 1.451-3.363-.03-4.676 1.365-2.368-4.043-7.075-7.174-8.767-3.131-1.695-9.127-4-12.83-2.88-.213.064-.35.127-.434.19 5.086-.886 11.285 2.15 13.411 3.492 2.277 1.419 6.89 5.32 6.697 7.425-.319-.157-.875-.613-1.597-.791Z" fill="#C08657"/><path d="M52.315 20.09c1.902.404 5.838 2.75 8.514 5.163 0 0-2.529-3.44-6.168-5.34-1.523-.796-2.507-1.23-4.686-.964-5.488.665-10.798 3.965-12.44 5.247-1.08.844-1.682 2.252-1.84 3.257a.732.732 0 0 1 .063-.179c1.566-3.989 13.541-7.828 16.557-7.183Z" fill="#703711"/><path d="M32.014 18.388c-2.137 1.787-3.303 3.405-3.45 3.808-4.084 0-5.33 1.523-5.33 1.968 0 .445 2.412.718 4.02.623-2.592 1.43-2.115 2.053 1.31 2.326.277 3.366 1.184 8.22 1.874 12.336l.655.308c-.382-5.691-1.513-11.393-1.629-12.504 1.163-.203 1.64-.508 1.84-.784-1.237.126-5.045.182-4.96-.382.084-.56 1.67-1.142 1.947-1.247 1.016-.147 2.084-.497 2.241-.77-1.302.042-6.02.399-6.02-.204 0-.602 3.177-1.481 4.686-1.204.637-1.598 1.314-2.729 2.816-4.274Z" fill="#512A10"/><path d="M36.585 48.524c-1.674-5.002-2.182-17.803-.837-21.24 1.565-3.989 13.54-7.827 16.556-7.183 3.173.676 11.954 6.707 11.201 9.53-.686 2.582-1.565 5.1-2.283 9.037-.722 3.933-1.682 7.19-.021 12.567-.193.021-1.132.231-1.598.487-.56-.487-.952-1.355-1.282-2.298-.497 0-1.534 1.43-4.633 1.069-3.1-.358-5.163-1.153-5.723-1.86-.54-.753-4.431.56-6.494 2.592-1.618-.183-4.581-1.8-4.886-2.7Z" fill="#FFCA8F"/><path d="M64.787 61.378c-1.079 3.419-6.37 8.063-10.325 8.865-3.958.806-14.928-1.429-19.604-5.183-4.676-3.755-4.494-8.263-4.105-10.41.382-2.147.182-2.147 1.79-3.478 1.608-1.334.984-2.298.89-4.613 0 0-1.25 1.027-2.414 1.99-.634 3.205-1.978 7.646-1.068 11.562 1.131 4.886 8.154 11.55 22.69 11.55 5.947.127 11.554-7.015 12.027-9.162.077-.326.109-.697.12-1.12Z" fill="#994500"/><path d="M28.27 38.742c-1.324.697-3.219 3.268-3.005 5.204.325 3.069 3.457 7.279 5.51 7.117 1.334-.105 2.412-1.754 2.742-2.294.77-1.278.57-6.886.57-6.886-.36-1.79-3.915-4.147-5.817-3.141Z" fill="#FFCA8F"/><path d="M31.548 43.47c-.805-.953-1.313-1.905-2.126-1.481-.816.413-1.895 1.628-1.618 2.252.179.413.445-.21.953-.687.508-.476.886-.91 1.205-.665.315.241.22.791.581 1.173-.508.508-1.047 1.503-.655 1.895.336.326.729.518.918.55-.624.508-.54 1.639-.21 2.073.329.431.287-.434.189-.847-.095-.414.36-.816.837-.984.476-.169.34-.508-.477-.848-.812-.336-.147-.98.158-1.174.245.064.33.204.7.498.368.287.698.56.855.298.193-.34-.508-1.1-1.31-2.053Z" fill="#996441"/><path d="M39.555 35.873c-.147 1.068-.263 3.047-.263 3.047-2.89-.241-6.115 2.361-6.115 2.361l-1.629-1.821c4.725-2.368 7.394-3.566 8.007-3.587Z" fill="#000"/><path d="M28.648 39.27c.995-.753 3.46 1.11 4.242 1.703.784.592 1.005 2.21 1.187 4.315.074-1.723.01-3.394.01-3.394-.36-1.79-3.915-4.147-5.817-3.142-1.324.697-3.219 3.268-3.005 5.205.325 3.068 3.457 7.278 5.51 7.117-2.929-1.047-4.708-5.488-4.95-7.278-.245-1.786 1.829-3.776 2.823-4.526ZM63.18 29.071c.01 1.1-1.377 5.545-2.806 11.226-1.173 4.644-.476 8.262.193 11.064.147-.031.529-.126.655-.136-1.66-5.366-.687-8.634.02-12.567.719-3.937 1.598-6.456 2.284-9.037.256-.984-.634-2.346-2.031-3.733.606.612 1.674 2.136 1.684 3.183Z" fill="#BC8358"/><path d="M54.154 30.245c-.974-.463-1.069-.148-1.069-.148-1.026 2.063-1.502 7.1-1.068 8.571.382-2.784.392-4.837 2.136-8.423ZM55.18 32.72c.497.053.434.509.434.509-.34 1.047-.644 2.287-.739 3.576-.119-.816-.193-2.865.305-4.084Z" fill="#996441"/><path d="M44.455 29.856c.865.084 3.289-.042 4.823.75 1.534.794 2.445 1.628 3.513 1.313 1.068-.319 1.986-2.7 1.545-3.78-.435-1.068-2.021-2.357-5.247-2.336-2.382.01-4.645 1.11-5.079 1.787-.434.68-.424 2.182.445 2.266Z" fill="url(#f)"/><path d="M44.665 29.38c-.879-.085-.529-1.461-.094-2.137.094-.15.262-.308.508-.476-.54.273-.922.57-1.08.812-.434.68-.423 2.182.445 2.266.876.084 3.29-.042 4.823.75 1.535.795 2.445 1.629 3.514 1.313.178-.052.357-.171.528-.329-1.047.298-1.957-.518-3.47-1.313-1.535-.792-4.295-.802-5.174-.886Z" fill="#662F09"/><path d="M55.127 35.81c.403.403 1.23-.319 2.74-.403 1.512-.084 2.92.224 3.334.753.423.53.952-.318 1.152-1.068.2-.753.403-1.11-.56-1.947-.953-.838-1.724-1.44-3.671-1.45-1.303 0-2.445.073-2.697.486-.669 1.1-.69 3.226-.298 3.629Z" fill="url(#g)"/><path d="M58.227 35.071c-1.608 0-2.529.666-2.932.242-.367-.382-.283-2.2.32-3.31a.518.518 0 0 0-.19.178c-.669 1.1-.69 3.226-.298 3.629.392.403 1.23-.319 2.74-.403 1.512-.084 2.92.224 3.334.753.2.253.434.19.644-.031a.537.537 0 0 1-.115-.12c-.414-.55-1.895-.928-3.503-.938Z" fill="#662F09"/><path d="M46.465 42.664c1.121.01 1.965 0 2.802-.413.708-.791.932-3.033 0-3.818-.92-.791-4.178-.592-5.617 1.864-.508.875.994 2.357 2.816 2.367ZM57.159 39.66c.413.203 2.23 1.831 1.544 3.491-.686 1.671-3.429.498-3.429.498.01-.207.067-1.244.161-3.11.873-.718 1.45-1.013 1.724-.88Z" fill="#fff"/><path d="M49.089 38.052c-.54-.242-2.953-.508-4.592.837-1.64 1.345-1.313 2.262-.984 2.676.326.413 2.995 2.052 5.755.686-2.687.89-5.142-.357-5.268-1.163-.126-.802 1.173-2.623 3.236-2.77 1.629-.126 2.592 0 2.655 2.263.33-1.787-.263-2.295-.802-2.53Z" fill="#000"/><path d="M45.32 41.088c.193.764 1.1 1.048 1.576 1.09 1.048.084 1.77-1.132 1.566-1.682-.623.764-1.426.508-1.534 0-.105-.518.33-1.288 1.114-1.184-.487-.816-3.261-.444-2.722 1.776ZM57.498 39.47c.368.214 1.766 1.524 1.524 3.681-.193 1.713-3.8.953-4.084.34 1.194.371 2.347.434 2.855.179.508-.253 1.334-.823.623-2.347-.697-1.513-1.457-1.576-1.797-1.513-.444.094-1.184.728-1.184.728.624-1.257 1.692-1.278 2.063-1.068Z" fill="#000"/><path d="M55.372 41.554c-.14.413-.287 1.194.687 1.64.974.444 2.529-.358 1.608-1.619-.074.837-.582.9-.974.837-.392-.063-.571-.413-.403-.868.098-.221.519-.435.858-.466-.634-.718-1.639.063-1.776.476ZM46.41 34.14c-3.51-.614-6.662.157-7.233 1.047-.837 1.278-.585 8.283.2 9.89.91 1.86 10.314 1.98 11.414.922.855-.827 1.31-2.806 1.524-4.413.21-1.608.325-4.452-.105-5.152-.445-.697-2.224-1.682-5.8-2.295Zm-1.153 10.64c-2.283-.21-3.828-.57-4.178-1.047-.358-.477-.74-5.5-.232-6.641.414-.932 3.535-.942 4.77-.753 1.237.189 4.55 1.09 4.876 1.895.33.802-.094 4.96-.686 5.583-.592.627-2.263 1.177-4.55.963Z" fill="#000"/><path d="M61.232 36.941c-1.769-.357-4.623-.486-5.33.105-.54.445-1.136 2.487-1.283 3.482-.147.995-.413 3.355.245 4.984.73 1.818 7.3 3.058 8.39 2.263.812-.592 1.67-2.382 2.052-3.724.399-1.334.739-4.168.262-5.036-.325-.582-2.57-1.713-4.336-2.074Zm-1.608 9.331c-1.618-.305-3.13-.995-3.418-1.492-.487-.823-.424-5.205.403-5.87.665-.54 2.728-.56 3.67-.413 2.326.36 3.419 1.1 3.755 1.386.56.487-.55 5.965-1.257 6.316-.764.381-2.074.276-3.153.073Z" fill="#000"/><path d="M54.154 45.607c.56.858 1.429.78 1.936 1.026.519.241 1.916 2.466-4.241 2.283 2.22.592 3.891.445 4.76-.063.879-.518.963-1.247.816-1.786-.298-1.068-1.25-1.26-2.161-1.47-.886-.204-.907-3.864-.22-7.31-.687 2.21-1.735 6.017-.89 7.32Z" fill="#996441"/><path d="M55.604 37.852c.795.676-.508 2.445-.508 2.445s-.802-1.45-3.005-.582c-2.2.865 0-2.297 0-2.297 1.068-.263 2.721-.242 3.513.434Z" fill="#000"/><path d="M54.672 25.803c-2.592-1.79-4.504-1.79-5.394-1.744 1.289-.319 3.3-.518 5.394 1.744ZM53.499 23.625c-1.226-1.24-3.205-1.121-3.84-1.037 1.111-.245 2.876-.518 3.84 1.037Z" fill="#BC8358"/><path d="M53.404 53.267c1.968-.151 3.278-.596 4.084-1.135.802-.54.739.245.21.595-.529.347-.868.284-1.016.56-.147.274-1.397 3.573-1.429 4.442-.031.868.267 1.215-.581 1.544-.844.33-4.834.89-7.16-.802-2.328-1.695-2.805-3.936-2.857-4.826-.242.245-.445.592-.508.805-.063.21-.624.54-.36-.539.265-1.068 1.652-2.54 2.59-2.858.33-.095.372.021.561.36.785 1.377 4.498 2 6.466 1.854Z" fill="#000"/><path d="M54.865 53.687c.115.627-.214 1.716-.911 1.895-.697.178-1.765.413-4.263-.242-2-.518-2.774-1.653-3.005-2.16-.231-.509.319-1.017.319-1.017.508.995 5.184 2.55 7.86 1.524ZM52.896 58.766c0-1.058-.105-1.216-1.566-1.398-1.45-.168-2.728-.368-3.439.109-.042.241 2.308 1.902 5.005 1.289Z" fill="#fff"/><path d="M44 12.896c-.592.095-1.174.214-1.737.35 3.141.803 9.13 3.405 10.812 4.603-2.498-2.69-7.373-4.487-9.075-4.953ZM47.901 16.896c-1.425-1.345-4.717-2.76-7.849-3.026-.707.242-1.383.508-2.02.785 2.083-.025 5.68.315 9.87 2.241ZM34.88 16.315a23.37 23.37 0 0 0-1.682 1.142c2.105-.434 5.45-.753 9.572.115-1.607-.952-4.886-1.586-7.89-1.257Z" fill="#C08657"/><path d="M29.04 37.842c-.2.189-.318.57-.318.57 1.513-.178 3.916 1.345 4.612 2.126-1.786-2.528-3.53-2.675-4.294-2.696ZM29.632 50.8c-.147.498 0 .793 0 .793 1.198.329 2.179-.666 2.858-1.49-1.397 1.111-1.639 1.164-2.858.698ZM62.066 51.361c.098-.592-.042-.508-.042-.508-1.216-.01-2.4.848-2.4.848 1.058-.34 1.969-.518 2.442-.34ZM54.62 71.448c-.284.456-.372.753-.372.753-8.854 1.247-17.526-2.707-19.019-4.739v-.413c3.881 2.623 11.87 5.341 19.39 4.4ZM38.827 75.227c-1.121-.931-1.958-2.57-1.958-3.13.01-.572.413-2.032.413-2.032.073 2.42 1.09 4.529 1.545 5.162ZM52.22 77.438c1.016-2.424 1.1-4.179 1.1-4.179-.032-.021-.193-.123-.476-.308-.12 2.364-.33 3.86-.624 4.487ZM36.245 91.35c-2.189-3.272-5.205-11.012-5.12-12.22.084-1.206.92-1.482.92-1.482-.591 2.042 2.508 9.31 4.2 13.702ZM59.709 80.25c.75 0 .707.33.707.33.172-.298 2.266 4.115 2.581 6.146-.823-1.502-2.41-5.194-3.288-6.476Z" fill="#000"/></g><defs><linearGradient id="a" x1="45" y1="0" x2="45" y2="90" gradientUnits="userSpaceOnUse"><stop stop-color="#469BF5"/><stop offset="1" stop-color="#2A63D3"/></linearGradient><linearGradient id="c" x1="50.525" y1="83.686" x2="56.108" y2="100.151" gradientUnits="userSpaceOnUse"><stop stop-color="#479EF7"/><stop offset="1" stop-color="#285FD0"/></linearGradient><linearGradient id="d" x1="39.94" y1="39.586" x2="56.024" y2="20.644" gradientUnits="userSpaceOnUse"><stop offset=".2" stop-color="#804726"/><stop offset=".472" stop-color="#8D502D"/><stop offset=".791" stop-color="#975732"/></linearGradient><linearGradient id="e" x1="51.958" y1="71.686" x2="41.502" y2="43.81" gradientUnits="userSpaceOnUse"><stop offset=".125" stop-color="#D57008"/><stop offset=".659" stop-color="#BB5E1D"/><stop offset=".991" stop-color="#B15725"/></linearGradient><linearGradient id="f" x1="45.779" y1="33.582" x2="50.339" y2="27.327" gradientUnits="userSpaceOnUse"><stop offset=".2" stop-color="#804726"/><stop offset=".472" stop-color="#8D502D"/><stop offset=".791" stop-color="#975732"/></linearGradient><linearGradient id="g" x1="56.111" y1="37.631" x2="60.668" y2="31.376" gradientUnits="userSpaceOnUse"><stop offset=".2" stop-color="#804726"/><stop offset=".472" stop-color="#8D502D"/><stop offset=".791" stop-color="#975732"/></linearGradient></defs></svg>