<svg width="90" height="90" fill="none" xmlns="http://www.w3.org/2000/svg"><circle cx="45" cy="45" r="45" fill="#273557"/><path d="M36.502 50.557h-1.476a.255.255 0 0 0-.28.21c-.15.462-1.211 3.537-1.58 4.619-.03.08-.027.217-.155.2-.078 0-.076-.134-.101-.21l-.254-.725c-.102-.299-1.311-3.682-1.332-3.75-.02-.069-.035-.134-.058-.198a.161.161 0 0 0-.18-.134h-1.634a.09.09 0 0 0-.073.038.087.087 0 0 0-.011.081c.186.52.254.758.297.847.318.814 2.376 5.966 2.404 6.065.037.132.056.269.056.406v1.307c0 .121.091.212.312.212H33.5c.34 0 .425 0 .437-.253 0-.022 0-.937.023-1.336 0-.091.018-.18.033-.27.47-1.229 2.678-6.932 2.68-6.935.046-.146-.025-.177-.17-.174Z" fill="#FEFEFE"/><path d="M75 37.816V30.36c0-.283-.074-.361-.356-.361-4.573.018-9.146-.025-13.72.03-.64 0-1.27.05-1.923.096a31.87 31.87 0 0 0-3.173.422c-.255.013-.232.18-.232.36v16.854l.105.073c.477-.505 1.661-1.746 1.778-1.86 0 0 .628-.657.968-.962l.114-.116a.408.408 0 0 1 .445-.215c.762.103 11.18.134 15.63.144.283 0 .362-.06.359-.352-.013-1.955 0-3.911 0-5.865l.005-.793Zm-5.874-1.157c-.427.993-1.143 1.768-1.916 2.486-.414.387-.866.73-1.296 1.1-.114.098-.203.126-.332.022-1.017-.826-2.033-1.663-2.795-2.757a3.905 3.905 0 0 1-.57-1.157c-.23-.816.158-1.542 1.045-1.94a1.34 1.34 0 0 1 .74-.173c.594 0 1.016.326 1.369.746s.366.422.7 0c.865-1.077 1.965-.905 2.796-.091.454.45.53 1.107.259 1.764Z" fill="#F9DD4C"/><path d="M29.06 57.21c0-.73-.025-2.974-.017-3.616a3.933 3.933 0 0 0-.135-1.263 2.08 2.08 0 0 0-1.43-1.554 5.439 5.439 0 0 0-.88-.205l-.157-.008a10.647 10.647 0 0 0-3.034.253c-.193.038-.337.06-.322.344.015.283-.051 1.028.035 1.172.087.144.254.053.381.026a10.469 10.469 0 0 1 2.43-.253 1.338 1.338 0 0 1 1.09.505c.18.235.083.506.096.758 0 .12-.097.089-.17.074a6.575 6.575 0 0 0-1.24-.106c-1.017 0-2.015.073-2.782.849a.942.942 0 0 0-.122.159v.017a2.636 2.636 0 0 0-.277 1.496c.043.322.134.634.272.928.07.14.162.268.272.381.272.26.615.435.985.506a3.889 3.889 0 0 0 2.851-.303.61.61 0 0 1 .724.055c.348.253.714.468 1.077.69a.21.21 0 0 0 .348-.18c.016-.222.008-.421.006-.725Zm-1.935-1.395c0 .064-.061.092-.11.12-.615.366-1.27.59-1.992.429a.764.764 0 0 1-.597-.46c-.254-.723.056-1.216.813-1.302a4.926 4.926 0 0 1 1.852.13c.05.358.062.722.034 1.084ZM21.614 52.96l-.059-.285-.127-.387c-.462-.988-1.27-1.494-2.327-1.66-1.27-.205-2.541-.033-3.811.139-.165.022-.254.073-.29.176V59.401a.114.114 0 0 0 .107.068h1.506c.163 0 .211-.047.209-.207v-1.89a3.83 3.83 0 0 0 2.378.253c1.341-.27 2.154-1.08 2.4-2.408.153-.745.157-1.511.014-2.257Zm-2.097 2.643a1.235 1.235 0 0 1-1.122.6 2.712 2.712 0 0 1-1.525-.352.104.104 0 0 1-.05-.038v-3.631c.017-.074.065-.119.185-.127a5.85 5.85 0 0 1 1.613 0 1.339 1.339 0 0 1 1.06.789 3.107 3.107 0 0 1-.15 2.76h-.01ZM45.568 52.958c-.313-1.036-.828-1.77-1.878-2.128a6.84 6.84 0 0 0-2.467-.23c-.745.045-1.487.13-2.223.252-.043 0-.043.046-.043.046v8.415c0 .119.063.192.213.187h1.177c.421 0 .421 0 .421-.42v-1.493c0-.132.041-.192.125-.111.115.11.25.195.399.252.51.152 1.05.186 1.575.099a2.956 2.956 0 0 0 1.72-.666c.486-.4.83-.944.983-1.553.093-.342.15-.694.168-1.048a4.509 4.509 0 0 0-.17-1.602Zm-1.926 2.42a1.33 1.33 0 0 1-1.215.867 2.685 2.685 0 0 1-1.552-.328c-.135-.038-.094-.147-.096-.235v-3.318c0-.099-.03-.23.119-.253.706-.063 1.42-.187 2.104.106a1.1 1.1 0 0 1 .579.505c.036.071.074.142.112.21.127.281.189.587.18.895a3.456 3.456 0 0 1-.231 1.551ZM53.569 55.12a2.363 2.363 0 0 0-.325-.912 2.002 2.002 0 0 0-1.233-.733 2.843 2.843 0 0 0-.411-.06c-.168-.015-.674 0-.674 0h-.912c-.297 0-.582-.026-.737-.336-.218-.506-.033-.885.521-1.011.907-.215 1.802-.08 2.69.131.174.043.344.096.557.154v-1.21c.044-.253-.091-.334-.315-.382a11.82 11.82 0 0 0-1.572-.237l-.354-.015a6.71 6.71 0 0 0-1.572.172c-.89.22-1.525.697-1.703 1.657a2.78 2.78 0 0 0-.043.642c.005.085.015.17.03.253.03.17.07.34.12.505.05.154.124.299.219.43 0 0 .056.07.058.07.455.526 1.072.663 1.728.683.508.015 1.003 0 1.506 0a.55.55 0 0 1 .582.392c.153.432.046.722-.338.92-.36.14-.751.186-1.135.136a8.339 8.339 0 0 1-2.13-.374v1.11a.85.85 0 0 0 .07.393.14.14 0 0 0 .07.038c.84.194 1.702.28 2.564.253a4.635 4.635 0 0 0 1.575-.31c.989-.377 1.362-1.343 1.164-2.358ZM55.408 56.965a.757.757 0 0 0-.758-.755.757.757 0 0 0-.759.755v.099c0 .417.34.755.759.755a.757.757 0 0 0 .758-.755v-.099ZM47.263 56.965a.757.757 0 0 0-.759-.755.757.757 0 0 0-.758.755v.099c0 .417.34.755.758.755a.757.757 0 0 0 .759-.755v-.099ZM36.502 50.557h-1.476a.255.255 0 0 0-.28.21c-.15.462-1.211 3.537-1.58 4.619-.03.08-.027.217-.155.2-.078 0-.076-.134-.101-.21l-.254-.725c-.102-.299-1.311-3.682-1.332-3.75-.02-.069-.035-.134-.058-.198a.161.161 0 0 0-.18-.134h-1.634a.09.09 0 0 0-.073.038.087.087 0 0 0-.011.081c.186.52.254.758.297.847.318.814 2.376 5.966 2.404 6.065.037.132.056.269.056.406v1.307c0 .121.091.212.312.212H33.5c.34 0 .425 0 .437-.253 0-.022 0-.937.023-1.336 0-.091.018-.18.033-.27.47-1.229 2.678-6.932 2.68-6.935.046-.146-.025-.177-.17-.174Z" fill="#FEFEFE"/><path d="M75 37.816V30.36c0-.283-.074-.361-.356-.361-4.573.018-9.146-.025-13.72.03-.64 0-1.27.05-1.923.096a31.87 31.87 0 0 0-3.173.422c-.255.013-.232.18-.232.36v16.854l.105.073c.477-.505 1.661-1.746 1.778-1.86 0 0 .628-.657.968-.962l.114-.116a.408.408 0 0 1 .445-.215c.762.103 11.18.134 15.63.144.283 0 .362-.06.359-.352-.013-1.955 0-3.911 0-5.865l.005-.793Zm-5.874-1.157c-.427.993-1.143 1.768-1.916 2.486-.414.387-.866.73-1.296 1.1-.114.098-.203.126-.332.022-1.017-.826-2.033-1.663-2.795-2.757a3.905 3.905 0 0 1-.57-1.157c-.23-.816.158-1.542 1.045-1.94a1.34 1.34 0 0 1 .74-.173c.594 0 1.016.326 1.369.746s.366.422.7 0c.865-1.077 1.965-.905 2.796-.091.454.45.53 1.107.259 1.764Z" fill="#F9DD4C"/><path d="M29.06 57.21c0-.73-.025-2.974-.017-3.616a3.933 3.933 0 0 0-.135-1.263 2.08 2.08 0 0 0-1.43-1.554 5.439 5.439 0 0 0-.88-.205l-.157-.008a10.647 10.647 0 0 0-3.034.253c-.193.038-.337.06-.322.344.015.283-.051 1.028.035 1.172.087.144.254.053.381.026a10.469 10.469 0 0 1 2.43-.253 1.338 1.338 0 0 1 1.09.505c.18.235.083.506.096.758 0 .12-.097.089-.17.074a6.575 6.575 0 0 0-1.24-.106c-1.017 0-2.015.073-2.782.849a.942.942 0 0 0-.122.159v.017a2.636 2.636 0 0 0-.277 1.496c.043.322.134.634.272.928.07.14.162.268.272.381.272.26.615.435.985.506a3.889 3.889 0 0 0 2.851-.303.61.61 0 0 1 .724.055c.348.253.714.468 1.077.69a.21.21 0 0 0 .348-.18c.016-.222.008-.421.006-.725Zm-1.935-1.395c0 .064-.061.092-.11.12-.615.366-1.27.59-1.992.429a.764.764 0 0 1-.597-.46c-.254-.723.056-1.216.813-1.302a4.926 4.926 0 0 1 1.852.13c.05.358.062.722.034 1.084ZM21.614 52.96l-.059-.285-.127-.387c-.462-.988-1.27-1.494-2.327-1.66-1.27-.205-2.541-.033-3.811.139-.165.022-.254.073-.29.176V59.401a.114.114 0 0 0 .107.068h1.506c.163 0 .211-.047.209-.207v-1.89a3.83 3.83 0 0 0 2.378.253c1.341-.27 2.154-1.08 2.4-2.408.153-.745.157-1.511.014-2.257Zm-2.097 2.643a1.235 1.235 0 0 1-1.122.6 2.712 2.712 0 0 1-1.525-.352.104.104 0 0 1-.05-.038v-3.631c.017-.074.065-.119.185-.127a5.85 5.85 0 0 1 1.613 0 1.339 1.339 0 0 1 1.06.789 3.107 3.107 0 0 1-.15 2.76h-.01ZM45.568 52.958c-.313-1.036-.828-1.77-1.878-2.128a6.84 6.84 0 0 0-2.467-.23c-.745.045-1.487.13-2.223.252-.043 0-.043.046-.043.046v8.415c0 .119.063.192.213.187h1.177c.421 0 .421 0 .421-.42v-1.493c0-.132.041-.192.125-.111.115.11.25.195.399.252.51.152 1.05.186 1.575.099a2.956 2.956 0 0 0 1.72-.666c.486-.4.83-.944.983-1.553.093-.342.15-.694.168-1.048a4.509 4.509 0 0 0-.17-1.602Zm-1.926 2.42a1.33 1.33 0 0 1-1.215.867 2.685 2.685 0 0 1-1.552-.328c-.135-.038-.094-.147-.096-.235v-3.318c0-.099-.03-.23.119-.253.706-.063 1.42-.187 2.104.106a1.1 1.1 0 0 1 .579.505c.036.071.074.142.112.21.127.281.189.587.18.895a3.456 3.456 0 0 1-.231 1.551ZM53.569 55.12a2.363 2.363 0 0 0-.325-.912 2.002 2.002 0 0 0-1.233-.733 2.843 2.843 0 0 0-.411-.06c-.168-.015-.674 0-.674 0h-.912c-.297 0-.582-.026-.737-.336-.218-.506-.033-.885.521-1.011.907-.215 1.802-.08 2.69.131.174.043.344.096.557.154v-1.21c.044-.253-.091-.334-.315-.382a11.82 11.82 0 0 0-1.572-.237l-.354-.015a6.71 6.71 0 0 0-1.572.172c-.89.22-1.525.697-1.703 1.657a2.78 2.78 0 0 0-.043.642c.005.085.015.17.03.253.03.17.07.34.12.505.05.154.124.299.219.43 0 0 .056.07.058.07.455.526 1.072.663 1.728.683.508.015 1.003 0 1.506 0a.55.55 0 0 1 .582.392c.153.432.046.722-.338.92-.36.14-.751.186-1.135.136a8.339 8.339 0 0 1-2.13-.374v1.11a.85.85 0 0 0 .07.393.14.14 0 0 0 .07.038c.84.194 1.702.28 2.564.253a4.635 4.635 0 0 0 1.575-.31c.989-.377 1.362-1.343 1.164-2.358ZM55.408 56.965a.757.757 0 0 0-.758-.755.757.757 0 0 0-.759.755v.099c0 .417.34.755.759.755a.757.757 0 0 0 .758-.755v-.099ZM47.263 56.965a.757.757 0 0 0-.759-.755.757.757 0 0 0-.758.755v.099c0 .417.34.755.758.755a.757.757 0 0 0 .759-.755v-.099Z" fill="#FEFEFE"/></svg>