<svg xmlns="http://www.w3.org/2000/svg" width="90" height="90" fill="none"><circle cx="45" cy="45" r="45" fill="#00BDA0"/><path fill="#fff" d="M34.943 58.38c.957-1.61 1.683-3.343 2.484-5.035 1.768-3.736 3.526-7.471 5.275-11.207.093-.232.207-.454.313-.68l.351-.75c.176-.447.42-.864.612-1.305.352-.712.675-1.435 1.055-2.13.703-1.303 1.742-2.288 2.959-3.083a7.582 7.582 0 0 1 1.856-.893c.46-.139.93-.238 1.407-.297H72.099c.455-.006.907.07 1.336.226a2.37 2.37 0 0 1 1.18.956c.281.442.415.966.38 1.494-.02.947-.38 1.787-.778 2.615l-.963 2.056c-.158.361-.352.692-.492 1.053-.218.46-.438.917-.656 1.374-.218.457-.441.855-.612 1.309l-2.32 4.953c-1.165 2.47-2.26 4.978-3.517 7.4-1.287 2.485-3.34 4.022-6.074 4.519-.27.038-.542.052-.814.041h-26.47a.829.829 0 0 1-.299-.05c1.164-.401 2.004-1.206 2.702-2.193a2.07 2.07 0 0 0 .241-.372ZM24.426 47.005h6.319c1.195 0 2.21.52 3.134 1.351.104.093.16.178.09.34-1.182 2.774-2.229 5.637-3.492 8.369-.555 1.188-1.263 2.274-2.24 3.072a3.264 3.264 0 0 1-1.793.792c-1.046.109-2.099.092-3.142-.05-1.452-.23-2.562-1.2-3.467-2.485-.442-.622-.693-1.365-.999-2.07-.826-1.908-1.636-3.826-2.456-5.745a5.034 5.034 0 0 1-.341-1.189c-.222-1.406.526-2.377 1.851-2.377 2.18-.024 4.358-.008 6.536-.008Z"/></svg>