<svg width="90" height="90" viewBox="0 0 90 90" fill="none" xmlns="http://www.w3.org/2000/svg">
<g clip-path="url(#clip0_3212_1888)">
<circle cx="45" cy="45" r="45" fill="#F5F5F5"/>
<circle cx="37.4018" cy="30.2055" r="15.2055" fill="#D10C6D"/>
<circle cx="37.8122" cy="30.6166" r="9.86301" fill="white"/>
<mask id="path-4-inside-1_3212_1888" fill="white">
<path fill-rule="evenodd" clip-rule="evenodd" d="M37.399 26.5067C34.9024 26.5067 32.8785 28.5306 32.8785 31.0273V60.792L29.0333 54.132C27.6967 51.8169 24.7363 51.0236 22.4211 52.3603C20.1059 53.697 19.3126 56.6574 20.6493 58.9726L24.6699 65.9363L24.6595 65.9591L26.2885 68.7399L28.1376 71.9426C28.2237 72.0918 28.3166 72.2347 28.4157 72.3712L29.9557 75.0002H69.043V54.4522H69.0426V54.4519C69.0426 51.7283 66.8347 49.5204 64.1111 49.5204C62.0898 49.5204 60.3525 50.7365 59.591 52.477C58.8295 50.7365 57.0922 49.5204 55.0708 49.5204C53.0492 49.5204 51.3118 50.7368 50.5504 52.4776C49.789 50.7368 48.0516 49.5204 46.03 49.5204C44.3141 49.5204 42.803 50.3967 41.9196 51.7262V31.0273C41.9196 28.5306 39.8957 26.5067 37.399 26.5067Z"/>
</mask>
<path fill-rule="evenodd" clip-rule="evenodd" d="M37.399 26.5067C34.9024 26.5067 32.8785 28.5306 32.8785 31.0273V60.792L29.0333 54.132C27.6967 51.8169 24.7363 51.0236 22.4211 52.3603C20.1059 53.697 19.3126 56.6574 20.6493 58.9726L24.6699 65.9363L24.6595 65.9591L26.2885 68.7399L28.1376 71.9426C28.2237 72.0918 28.3166 72.2347 28.4157 72.3712L29.9557 75.0002H69.043V54.4522H69.0426V54.4519C69.0426 51.7283 66.8347 49.5204 64.1111 49.5204C62.0898 49.5204 60.3525 50.7365 59.591 52.477C58.8295 50.7365 57.0922 49.5204 55.0708 49.5204C53.0492 49.5204 51.3118 50.7368 50.5504 52.4776C49.789 50.7368 48.0516 49.5204 46.03 49.5204C44.3141 49.5204 42.803 50.3967 41.9196 51.7262V31.0273C41.9196 28.5306 39.8957 26.5067 37.399 26.5067Z" fill="#22E891"/>
<path d="M32.8785 60.792L31.8108 61.4085L34.1114 65.3932V60.792H32.8785ZM29.0333 54.132L30.101 53.5156L30.101 53.5156L29.0333 54.132ZM22.4211 52.3603L23.0375 53.428L23.0375 53.428L22.4211 52.3603ZM20.6493 58.9726L19.5816 59.589L19.5816 59.589L20.6493 58.9726ZM24.6699 65.9363L25.7911 66.449L26.0555 65.8707L25.7376 65.3199L24.6699 65.9363ZM24.6595 65.9591L23.5382 65.4464L23.2717 66.0292L23.5957 66.5822L24.6595 65.9591ZM26.2885 68.7399L27.3562 68.1234L27.3523 68.1167L26.2885 68.7399ZM28.1376 71.9426L29.2053 71.3262L29.2053 71.3262L28.1376 71.9426ZM28.4157 72.3712L29.4795 71.748L29.4489 71.6958L29.4133 71.6468L28.4157 72.3712ZM29.9557 75.0002L28.8919 75.6233L29.2491 76.233H29.9557V75.0002ZM69.043 75.0002V76.233H70.2759V75.0002H69.043ZM69.043 54.4522H70.2759V53.2193H69.043V54.4522ZM69.0426 54.4522H67.8098V55.6851H69.0426V54.4522ZM59.591 52.477L58.4615 52.9712L59.591 55.5528L60.7205 52.9712L59.591 52.477ZM50.5504 52.4776L49.4208 52.9716L50.5504 55.5542L51.68 52.9716L50.5504 52.4776ZM41.9196 51.7262H40.6867V55.8094L42.9464 52.4085L41.9196 51.7262ZM34.1114 31.0273C34.1114 29.2115 35.5833 27.7396 37.399 27.7396V25.2738C34.2215 25.2738 31.6456 27.8497 31.6456 31.0273H34.1114ZM34.1114 60.792V31.0273H31.6456V60.792H34.1114ZM27.9656 54.7485L31.8108 61.4085L33.9462 60.1756L30.101 53.5156L27.9656 54.7485ZM23.0375 53.428C24.763 52.4318 26.9694 53.023 27.9656 54.7485L30.101 53.5156C28.4239 50.6108 24.7095 49.6155 21.8046 51.2926L23.0375 53.428ZM21.717 58.3561C20.7208 56.6306 21.312 54.4242 23.0375 53.428L21.8046 51.2926C18.8998 52.9697 17.9045 56.6841 19.5816 59.589L21.717 58.3561ZM25.7376 65.3199L21.717 58.3561L19.5816 59.589L23.6022 66.5528L25.7376 65.3199ZM25.7807 66.4717L25.7911 66.449L23.5486 65.4237L23.5382 65.4464L25.7807 66.4717ZM27.3523 68.1167L25.7233 65.3359L23.5957 66.5822L25.2247 69.363L27.3523 68.1167ZM29.2053 71.3262L27.3562 68.1234L25.2208 69.3563L27.0699 72.559L29.2053 71.3262ZM29.4133 71.6468C29.3395 71.5451 29.2699 71.4382 29.2053 71.3262L27.0699 72.559C27.1775 72.7455 27.2938 72.9244 27.418 73.0955L29.4133 71.6468ZM31.0195 74.377L29.4795 71.748L27.3519 72.9943L28.8919 75.6233L31.0195 74.377ZM69.043 73.7673H29.9557V76.233H69.043V73.7673ZM67.8102 54.4522V75.0002H70.2759V54.4522H67.8102ZM69.0426 55.6851H69.043V53.2193H69.0426V55.6851ZM67.8098 54.4519V54.4522H70.2755V54.4519H67.8098ZM64.1111 50.7533C66.1538 50.7533 67.8098 52.4092 67.8098 54.4519H70.2755C70.2755 51.0474 67.5156 48.2875 64.1111 48.2875V50.7533ZM60.7205 52.9712C61.2927 51.6632 62.597 50.7533 64.1111 50.7533V48.2875C61.5825 48.2875 59.4122 49.8098 58.4615 51.9828L60.7205 52.9712ZM55.0708 50.7533C56.5849 50.7533 57.8892 51.6632 58.4615 52.9712L60.7205 51.9828C59.7697 49.8098 57.5994 48.2875 55.0708 48.2875V50.7533ZM51.68 52.9716C52.2521 51.6634 53.5566 50.7533 55.0708 50.7533V48.2875C52.5419 48.2875 50.3714 49.8101 49.4208 51.9835L51.68 52.9716ZM46.03 50.7533C47.5443 50.7533 48.8487 51.6634 49.4208 52.9716L51.68 51.9835C50.7294 49.8101 48.5589 48.2875 46.03 48.2875V50.7533ZM42.9464 52.4085C43.6111 51.4083 44.7443 50.7533 46.03 50.7533V48.2875C43.884 48.2875 41.9949 49.3852 40.8927 51.0439L42.9464 52.4085ZM40.6867 31.0273V51.7262H43.1525V31.0273H40.6867ZM37.399 27.7396C39.2148 27.7396 40.6867 29.2115 40.6867 31.0273H43.1525C43.1525 27.8497 40.5766 25.2738 37.399 25.2738V27.7396Z" fill="white" mask="url(#path-4-inside-1_3212_1888)"/>
</g>
<defs>
<clipPath id="clip0_3212_1888">
<rect width="90" height="90" fill="white"/>
</clipPath>
</defs>
</svg>
