<svg width="90" height="90" viewBox="0 0 90 90" fill="none" xmlns="http://www.w3.org/2000/svg">
<g clip-path="url(#clip0_3210_1442)">
<circle cx="45" cy="45" r="45" fill="#F5F5F5"/>
<path d="M45 73C60.464 73 73 60.464 73 45C73 29.536 60.464 17 45 17C29.536 17 17 29.536 17 45C17 60.464 29.536 73 45 73Z" fill="#CF1A30"/>
<path d="M41.1814 48.5388V50.7166H49.5814V53.9444H41.1814V57.4444H34.8425V53.9444H31.0703V50.7166H34.8425V30.2222H46.6259C50.3343 30.2222 53.2245 30.9999 55.2981 32.5555C57.3981 34.1111 58.4481 36.3926 58.4481 39.3999C58.4481 42.3815 57.3981 44.6499 55.2981 46.2055C53.2245 47.7611 50.3343 48.5388 46.6259 48.5388H41.1814ZM52.0703 39.4388C52.0703 38.1166 51.5912 37.1055 50.6314 36.4055C49.6981 35.7055 48.351 35.3555 46.587 35.3555H41.1814V43.5999H46.587C48.351 43.5999 49.6981 43.2499 50.6314 42.5499C51.5912 41.824 52.0703 40.787 52.0703 39.4388Z" fill="white"/>
</g>
<defs>
<clipPath id="clip0_3210_1442">
<rect width="90" height="90" fill="white"/>
</clipPath>
</defs>
</svg>
