<svg width="90" height="90" viewBox="0 0 90 90" fill="none" xmlns="http://www.w3.org/2000/svg">
<g clip-path="url(#clip0_138_7388)">
<circle cx="45" cy="45" r="45" fill="#C11F3E"/>
<path d="M60.9806 48.6949C59.0757 49.556 56.6164 51.7936 56.6164 51.7936C56.6164 51.7936 56.7469 50.815 56.812 50.3584C57.2035 47.6185 58.0515 44.9439 58.9649 42.3345C60.5305 38.0941 63.5965 32.4187 59.6824 31.5706C58.182 31.2444 56.4859 31.4402 56.4859 31.4402C56.4859 31.4402 57.0077 29.0264 59.0952 28.7655C60.5305 28.5698 63.3356 28.4393 65.1622 28.3088C68.424 28.0479 69.4677 26.3518 68.8154 24.3295C67.7064 21.133 61.2481 22.4377 53.0936 22.9595C44.1564 23.5467 34.5667 25.2428 31.8921 26.0256C27.2604 27.3955 25.1077 28.4393 25.4338 30.3964C25.76 32.7448 28.5651 32.6144 31.0441 32.1577C33.0664 31.7663 38.8724 30.6573 42.8517 30.1354C48.5271 29.4178 51.0061 29.2221 51.0061 29.2221C51.0061 29.2221 48.2662 37.3766 45.4611 44.9439C44.2869 48.1404 41.8731 54.7944 39.329 59.2956C37.8285 61.8399 35.9368 63.4055 32.2184 63.4707C27.7823 63.536 25.0424 60.6004 23.9334 56.7515C23.0201 53.4897 23.803 50.0322 26.4776 48.858C28.9566 47.6838 31.7616 48.7275 31.7616 48.7275C31.7616 48.7275 31.6312 49.3799 30.7831 49.706C30.3265 49.8365 28.6304 50.1628 28.3694 50.2931C27.3909 50.6194 26.6081 52.0545 27.9128 53.555C29.9351 55.773 33.7188 55.2511 35.6758 53.8159C37.6329 52.3808 39.1985 48.9885 38.1548 46.3139C37.111 43.6391 33.784 42.8564 30.5222 42.8564C25.4338 42.9216 21.6502 45.1396 20.0193 48.7927C18.4536 52.3807 18.4536 58.5781 21.7154 63.1445C24.651 67.3196 29.7394 68.82 33.1969 68.6244C36.2629 68.4939 38.9376 67.5154 40.9599 65.8193C43.8302 63.4055 46.1788 58.4476 48.5271 52.3808C50.8104 46.7053 52.7022 41.4211 52.7022 41.4211C52.7022 41.4211 51.7238 46.5748 51.267 49.9018C50.6799 54.403 50.8104 57.991 51.1366 59.1C51.528 60.4699 52.637 61.2528 53.8765 61.4484C55.1811 61.6441 55.964 60.6656 56.8773 59.4914C60.1391 55.3815 60.674 55.4729 62.1614 54.403C65.4492 52.0415 64.014 47.325 60.9806 48.6949Z" fill="white"/>
</g>
<defs>
<clipPath id="clip0_138_7388">
<rect width="90" height="90" fill="white"/>
</clipPath>
</defs>
</svg>
