<svg width="90" height="90" fill="none" xmlns="http://www.w3.org/2000/svg"><circle cx="45" cy="45" r="45" fill="#F6F8F9"/><path d="M65.633 45.64 47.205 19.847a2.046 2.046 0 0 0-.733-.624 2.087 2.087 0 0 0-1.89.007c-.29.15-.54.366-.727.63L25.626 45.792a1.948 1.948 0 0 0-.12 2.056c.174.321.434.59.752.776.32.187.632.215 1.004.214h7.92l8.279-11.41c.206-.29.48-.528.801-.693a2.288 2.288 0 0 1 2.078-.008c.32.162.597.398.806.687l8.403 11.424h8.414c.372-.002.745-.172 1.062-.362.316-.189.575-.459.746-.781a1.956 1.956 0 0 0-.138-2.055Z" fill="#F18D00"/><path d="M65.365 65.858 46.936 40.065a2.032 2.032 0 0 0-.733-.625 2.082 2.082 0 0 0-1.889.007 2.03 2.03 0 0 0-.728.63L25.357 66.01a1.955 1.955 0 0 0-.12 2.057c.174.32.434.588.752.775.268.156.644.147.979.14.064-.002.126-.004.187-.004H39.6s.44-.513.492-.588l4.502-6.483a.505.505 0 0 1 .827-.003l4.55 6.449.457.633h13.275a2.07 2.07 0 0 0 1.053-.292c.316-.189.575-.46.746-.781a1.956 1.956 0 0 0-.137-2.055Z" fill="#013040"/><path d="M65.365 65.858 46.936 40.065a2.032 2.032 0 0 0-.733-.625 2.082 2.082 0 0 0-1.889.007 2.03 2.03 0 0 0-.728.63L25.357 66.01a1.955 1.955 0 0 0-.12 2.057c.174.32.434.588.752.775.268.156.644.147.979.14.064-.002.126-.004.187-.004H39.6s.44-.513.492-.588l4.502-6.483a.505.505 0 0 1 .827-.003l4.55 6.449.457.633h13.275a2.07 2.07 0 0 0 1.053-.292c.316-.189.575-.46.746-.781a1.956 1.956 0 0 0-.137-2.055Z" stroke="#F6F8F9"/><path d="m45.28 64.641 2.73 3.87a.28.28 0 0 1 .053.15.287.287 0 0 1-.032.157.303.303 0 0 1-.267.161l-2.16.008-.573-.008-.465.013-2.233.008a.3.3 0 0 1-.303-.316.296.296 0 0 1 .054-.151l2.699-3.89a.309.309 0 0 1 .248-.129.305.305 0 0 1 .248.127Z" fill="#F18D00"/><path d="m45.28 64.641 2.73 3.87a.28.28 0 0 1 .053.15.287.287 0 0 1-.032.157.303.303 0 0 1-.267.161l-2.16.008-.573-.008-.465.013-2.233.008a.3.3 0 0 1-.303-.316.296.296 0 0 1 .054-.151l2.699-3.89a.309.309 0 0 1 .248-.129.305.305 0 0 1 .248.127Z" stroke="#fff"/></svg>