<svg xmlns="http://www.w3.org/2000/svg" width="91" height="91" fill="none"><g clip-path="url(#a)"><path fill="url(#b)" d="M45.04 90.08c24.875 0 45.04-20.165 45.04-45.04S69.915 0 45.04 0 0 20.165 0 45.04s20.165 45.04 45.04 45.04Z"/><path fill="url(#c)" d="M45.04 86.73c23.025 0 41.69-18.665 41.69-41.69S68.065 3.35 45.04 3.35 3.35 22.015 3.35 45.04s18.665 41.69 41.69 41.69Z"/><path fill="#FFE9A4" d="M86.66 45.04c.36 37.56-44.99 56.25-71.44 29.75-7.75-7.81-12.2-18.77-11.94-29.75.1 22.4 19.28 41.52 41.69 41.19 22.4.33 41.59-18.79 41.69-41.19Z"/><path fill="#6B4D2E" d="M87.14 45.33c-.1-22.4-19.28-41.52-41.69-41.19-22.4-.33-41.59 18.8-41.69 41.19C3.5 34.35 7.95 23.39 15.7 15.58c26.45-26.51 71.8-7.79 71.44 29.75Z"/><path fill="url(#d)" stroke="url(#e)" stroke-miterlimit="10" stroke-width=".25" d="M45.04 77.6c17.982 0 32.56-14.578 32.56-32.56 0-17.982-14.578-32.56-32.56-32.56-17.982 0-32.56 14.578-32.56 32.56 0 17.982 14.578 32.56 32.56 32.56Z"/><path fill="#000" d="M55.05 22.41c-4.94-.89-16.07.71-17 .85a.16.16 0 0 0-.11.05l-2.38 2.06c-.47.41-.16 1.18.46 1.14 1.16-.07 2.75-.17 4.48-.26v.19s-2.18 16.95-3.64 25.4c-.02.11-.12.19-.23.19h-4.31c-.1 0-.19.06-.22.15l-.96 2.64c-.05.15.06.31.22.31h4.59c.15 0 .26.13.23.28-1.54 7.63-3.67 16.23-.32 16.05 2.13-.11 4.46-1.37 6.07-2.44.4-.27.14-.89-.33-.81-1.09.2-2.22.19-2.56-.59-.5-1.13.08-6.42 1.05-12.3.02-.11.11-.2.23-.2h13.3c.1 0 .18-.07.21-.16l.84-2.64c.05-.15-.06-.3-.22-.3H40.94a.23.23 0 0 1-.23-.28c.29-1.56.59-3.12.9-4.6 1.72-8.28 3.04-20.71 3.04-20.71v-.38c1.16-.04 2.29-.07 3.31-.09 5.42-.07 8.07 1.06 9.19 3.97 1.12 2.91 1.27 8.83-3.04 12.43-3.32 2.78-7.19 2.53-8.71 2.71-.19.02-.37.14-.48.29l-1.24 1.62c-.06.08-.05.21.04.25 1.36.68 6.78.39 11.06-2.12 4.96-2.91 8.4-7.05 8.4-13.07 0-6.02-2.98-8.73-8.13-9.65v.02Z"/><path fill="url(#f)" d="M53.53 20.92c-4.94-.89-16.07.71-17 .85a.16.16 0 0 0-.11.05l-2.38 2.06c-.47.41-.16 1.18.46 1.14 1.16-.07 2.75-.17 4.48-.26v.19s-2.18 16.95-3.64 25.4c-.02.11-.12.19-.23.19H30.8c-.1 0-.19.06-.22.15l-.96 2.64c-.05.15.06.31.22.31h4.59c.15 0 .26.13.23.28-1.54 7.63-3.67 16.23-.32 16.05 2.13-.11 4.46-1.37 6.07-2.44.4-.27.14-.89-.33-.81-1.09.2-2.22.19-2.56-.59-.5-1.13.08-6.42 1.05-12.3.02-.11.11-.2.23-.2h13.3c.1 0 .18-.07.21-.16l.84-2.64c.05-.15-.06-.3-.22-.3H39.42a.23.23 0 0 1-.23-.28c.29-1.56.59-3.12.9-4.6 1.72-8.28 3.04-20.71 3.04-20.71v-.38c1.16-.04 2.29-.07 3.31-.09 5.42-.07 8.07 1.06 9.19 3.97 1.12 2.91 1.27 8.83-3.04 12.43-3.32 2.78-7.19 2.53-8.71 2.71-.19.02-.37.14-.48.29l-1.24 1.62c-.06.08-.05.21.04.25 1.36.68 6.78.39 11.06-2.12 4.96-2.91 8.4-7.05 8.4-13.07 0-6.02-2.98-8.73-8.13-9.65v.02Z"/><path fill="#000" d="m45.45 79.02.9 1.83 2.01.29-1.45 1.42.34 2-1.8-.94-1.8.94.35-2-1.46-1.42 2.01-.29.9-1.83Z"/><path fill="#D8B963" d="m45.04 78.76.9 1.82 2.01.29-1.45 1.42.34 2.01-1.8-.95-1.8.95.34-2.01-1.45-1.42 2.01-.29.9-1.82Z"/><path fill="#000" d="m45.45 5.24.9 1.82 2.01.3-1.45 1.42.34 2-1.8-.95-1.8.95.35-2-1.46-1.42 2.01-.3.9-1.82Z"/><path fill="#D8B963" d="m45.04 4.98.9 1.82 2.01.29-1.45 1.42.34 2.01-1.8-.95-1.8.95.34-2.01-1.45-1.42 2.01-.29.9-1.82Z"/><path fill="#000" d="m81.91 44.17.9 1.82 2.01.29-1.46 1.42.35 2.01-1.8-.95-1.8.95.34-2.01-1.46-1.42 2.02-.29.9-1.82Z"/><path fill="#D8B963" d="m81.5 43.9.89 1.83 2.02.29-1.46 1.42.34 2-1.79-.94-1.8.94.34-2-1.46-1.42 2.02-.29.9-1.83Z"/><path fill="#000" d="m80.93 35 .9 1.82 2.01.29-1.46 1.42.35 2.01-1.8-.95-1.8.95.34-2.01-1.46-1.42 2.02-.29.9-1.82Z"/><path fill="#D8B963" d="m80.52 34.73.9 1.83 2.01.29-1.46 1.42.34 2-1.79-.94-1.8.94.34-2-1.46-1.42 2.02-.29.9-1.83Z"/><path fill="#000" d="m79.88 53.47.9 1.82 2.01.29L81.33 57l.35 2.01-1.8-.95-1.8.95.34-2.01-1.46-1.42 2.02-.29.9-1.82Z"/><path fill="#D8B963" d="m79.46 53.2.9 1.83 2.02.29-1.46 1.42.34 2-1.8-.94-1.8.94.35-2-1.46-1.42 2.01-.29.9-1.83Z"/><path fill="#000" d="m78.01 25.96.9 1.83 2.02.29-1.46 1.42.34 2-1.8-.94-1.8.94.35-2-1.46-1.42 2.01-.29.9-1.83Z"/><path fill="#D8B963" d="m77.6 25.7.9 1.82 2.02.29-1.46 1.42.34 2.01-1.8-.95-1.8.95.35-2.01-1.46-1.42 2.01-.29.9-1.82Z"/><path fill="#000" d="m75.72 61.58.9 1.82 2.01.29-1.45 1.42.34 2.01-1.8-.95-1.8.95.34-2.01-1.45-1.42 2.01-.29.9-1.82Z"/><path fill="#D8B963" d="m75.31 61.31.9 1.83 2.01.29-1.46 1.42.35 2-1.8-.94-1.8.94.34-2-1.45-1.42 2.01-.29.9-1.83Z"/><path fill="#000" d="m72.6 18.02.9 1.82 2.01.3-1.45 1.42.34 2-1.8-.95-1.8.95.35-2-1.46-1.42 2.01-.3.9-1.82Z"/><path fill="#D8B963" d="m72.19 17.76.9 1.82 2.01.29-1.45 1.42.34 2-1.8-.94-1.8.94.34-2-1.45-1.42 2.01-.29.9-1.82Z"/><path fill="#000" d="m70.57 69.01.9 1.83 2.01.29-1.45 1.42.34 2-1.8-.94-1.8.94.35-2-1.46-1.42 2.01-.29.9-1.83Z"/><path fill="#D8B963" d="m70.16 68.75.9 1.82 2.01.29-1.45 1.42.34 2.01-1.8-.95-1.8.95.34-2.01-1.45-1.42 2.01-.29.9-1.82Z"/><path fill="#000" d="m64.99 11.04.9 1.83 2.01.29-1.46 1.42.35 2-1.8-.94-1.8.94.34-2-1.45-1.42 2.01-.29.9-1.83Z"/><path fill="#D8B963" d="m64.58 10.78.9 1.82 2.01.3-1.46 1.42.35 2-1.8-.95-1.8.95.34-2-1.46-1.42 2.02-.3.9-1.82Z"/><path fill="#000" d="m62.54 74.29.9 1.82 2.01.3-1.46 1.42.35 2-1.8-.95-1.8.95.34-2-1.46-1.42 2.02-.3.9-1.82Z"/><path fill="#D8B963" d="m62.12 74.03.9 1.82 2.02.29-1.46 1.42.34 2-1.8-.94-1.79.94.34-2-1.46-1.42 2.01-.29.9-1.82Z"/><path fill="#000" d="m55.63 6.48.9 1.82 2.01.3-1.45 1.41.34 2.01-1.8-.95-1.8.95.34-2.01-1.45-1.41 2.01-.3.9-1.82Z"/><path fill="#D8B963" d="m55.22 6.22.9 1.82 2.01.29-1.45 1.42.34 2-1.8-.94-1.8.94.34-2-1.45-1.42 2.01-.29.9-1.82Z"/><path fill="#000" d="m54.4 77.79.9 1.82 2.01.29-1.45 1.42.34 2-1.8-.94-1.8.94.34-2-1.45-1.42 2.01-.29.9-1.82Z"/><path fill="#D8B963" d="m53.99 77.52.9 1.82 2.01.3-1.46 1.42.35 2-1.8-.95-1.8.95.34-2-1.45-1.42 2.01-.3.9-1.82Z"/></g><defs><linearGradient id="b" x1="40.04" x2="51.5" y1="0" y2="103.32" gradientUnits="userSpaceOnUse"><stop stop-color="#F5EFD6"/><stop offset=".07" stop-color="#F7EDCA"/><stop offset=".2" stop-color="#FDE9AA"/><stop offset=".22" stop-color="#FFE9A4"/><stop offset=".38" stop-color="#FDE18E"/><stop offset=".5" stop-color="#FCDB7B"/><stop offset=".87" stop-color="#BA7A00"/></linearGradient><linearGradient id="c" x1="40.44" x2="49.64" y1="3.6" y2="86.48" gradientUnits="userSpaceOnUse"><stop stop-color="#FFE9A4"/><stop offset=".28" stop-color="#FDE18E"/><stop offset=".5" stop-color="#FCDB7B"/><stop offset=".87" stop-color="#BA7A00"/></linearGradient><linearGradient id="d" x1="45.25" x2="45.78" y1="55.01" y2="79.69" gradientUnits="userSpaceOnUse"><stop stop-color="#EBE9EA"/><stop offset=".23" stop-color="#D8D5D4"/><stop offset=".71" stop-color="#AAA39D"/><stop offset="1" stop-color="#8C8279"/></linearGradient><linearGradient id="e" x1="12.35" x2="77.73" y1="45.04" y2="45.04" gradientUnits="userSpaceOnUse"><stop stop-color="#8C8279"/><stop offset="1" stop-color="#EBE9EA"/></linearGradient><radialGradient id="f" cx="0" cy="0" r="1" gradientTransform="matrix(22.46 0 0 19.091 39.85 47.004)" gradientUnits="userSpaceOnUse"><stop stop-color="#FFD880"/><stop offset=".17" stop-color="#ECC26E"/><stop offset=".54" stop-color="#BD8A40"/><stop offset="1" stop-color="#7B3C00"/></radialGradient><clipPath id="a"><path fill="#fff" d="M0 0h90.08v90.08H0z"/></clipPath></defs></svg>