<?xml version="1.0" encoding="UTF-8"?><svg id="a" xmlns="http://www.w3.org/2000/svg" xmlns:xlink="http://www.w3.org/1999/xlink" viewBox="0 0 90.08 90.08"><defs><style>.g{fill:#d8b963;}.h{fill:url(#c);}.i{fill:url(#d);stroke:url(#e);stroke-miterlimit:10;stroke-width:.25px;}.j{fill:#6b4d2e;}.k{fill:url(#f);}.l{fill:url(#b);}.m{fill:#ffe9a4;}</style><linearGradient id="b" x1="40.04" y1="0" x2="51.5" y2="103.32" gradientTransform="matrix(1, 0, 0, 1, 0, 0)" gradientUnits="userSpaceOnUse"><stop offset="0" stop-color="#f5efd6"/><stop offset=".07" stop-color="#f7edca"/><stop offset=".2" stop-color="#fde9aa"/><stop offset=".22" stop-color="#ffe9a4"/><stop offset=".38" stop-color="#fde18e"/><stop offset=".5" stop-color="#fcdb7b"/><stop offset=".87" stop-color="#ba7a00"/></linearGradient><linearGradient id="c" x1="40.44" y1="3.6" x2="49.64" y2="86.48" gradientTransform="matrix(1, 0, 0, 1, 0, 0)" gradientUnits="userSpaceOnUse"><stop offset="0" stop-color="#ffe9a4"/><stop offset=".28" stop-color="#fde18e"/><stop offset=".5" stop-color="#fcdb7b"/><stop offset=".87" stop-color="#ba7a00"/></linearGradient><linearGradient id="d" x1="45.25" y1="55.01" x2="45.78" y2="79.69" gradientTransform="matrix(1, 0, 0, 1, 0, 0)" gradientUnits="userSpaceOnUse"><stop offset="0" stop-color="#ebe9ea"/><stop offset=".23" stop-color="#d8d5d4"/><stop offset=".71" stop-color="#aaa39d"/><stop offset="1" stop-color="#8c8279"/></linearGradient><linearGradient id="e" x1="12.35" y1="45.04" x2="77.73" y2="45.04" gradientTransform="matrix(1, 0, 0, 1, 0, 0)" gradientUnits="userSpaceOnUse"><stop offset="0" stop-color="#8c8279"/><stop offset="1" stop-color="#ebe9ea"/></linearGradient><radialGradient id="f" cx="39.85" cy="46.91" fx="39.85" fy="46.91" r="22.46" gradientTransform="translate(0 7.13) scale(1 .85)" gradientUnits="userSpaceOnUse"><stop offset="0" stop-color="#ffd880"/><stop offset=".17" stop-color="#ecc26e"/><stop offset=".54" stop-color="#bd8a40"/><stop offset="1" stop-color="#7b3c00"/></radialGradient></defs><circle class="l" cx="45.04" cy="45.04" r="45.04"/><circle class="h" cx="45.04" cy="45.04" r="41.69"/><path class="m" d="M86.66,45.04c.36,37.56-44.99,56.25-71.44,29.75-7.75-7.81-12.2-18.77-11.94-29.75,.1,22.4,19.28,41.52,41.69,41.19,22.4,.33,41.59-18.79,41.69-41.19h0Z"/><path class="j" d="M87.14,45.33c-.1-22.4-19.28-41.52-41.69-41.19C23.05,3.81,3.86,22.94,3.76,45.33c-.26-10.98,4.19-21.94,11.94-29.75,26.45-26.51,71.8-7.79,71.44,29.75h0Z"/><circle class="i" cx="45.04" cy="45.04" r="32.56"/><path d="M55.05,22.41c-4.94-.89-16.07,.71-17,.85-.04,0-.08,.02-.11,.05l-2.38,2.06c-.47,.41-.16,1.18,.46,1.14,1.16-.07,2.75-.17,4.48-.26v.19s-2.18,16.95-3.64,25.4c-.02,.11-.12,.19-.23,.19h-4.31c-.1,0-.19,.06-.22,.15l-.96,2.64c-.05,.15,.06,.31,.22,.31h4.59c.15,0,.26,.13,.23,.28-1.54,7.63-3.67,16.23-.32,16.05,2.13-.11,4.46-1.37,6.07-2.44,.4-.27,.14-.89-.33-.81-1.09,.2-2.22,.19-2.56-.59-.5-1.13,.08-6.42,1.05-12.3,.02-.11,.11-.2,.23-.2,1.55,0,11.88,0,13.3,0,.1,0,.18-.07,.21-.16l.84-2.64c.05-.15-.06-.3-.22-.3h-13.51c-.15,0-.26-.13-.23-.28,.29-1.56,.59-3.12,.9-4.6,1.72-8.28,3.04-20.71,3.04-20.71v-.38c1.16-.04,2.29-.07,3.31-.09,5.42-.07,8.07,1.06,9.19,3.97,1.12,2.91,1.27,8.83-3.04,12.43-3.32,2.78-7.19,2.53-8.71,2.71-.19,.02-.37,.14-.48,.29l-1.24,1.62c-.06,.08-.05,.21,.04,.25,1.36,.68,6.78,.39,11.06-2.12,4.96-2.91,8.4-7.05,8.4-13.07s-2.98-8.73-8.13-9.65Z"/><path class="k" d="M53.53,20.92c-4.94-.89-16.07,.71-17,.85-.04,0-.08,.02-.11,.05l-2.38,2.06c-.47,.41-.16,1.18,.46,1.14,1.16-.07,2.75-.17,4.48-.26v.19s-2.18,16.95-3.64,25.4c-.02,.11-.12,.19-.23,.19h-4.31c-.1,0-.19,.06-.22,.15l-.96,2.64c-.05,.15,.06,.31,.22,.31h4.59c.15,0,.26,.13,.23,.28-1.54,7.63-3.67,16.23-.32,16.05,2.13-.11,4.46-1.37,6.07-2.44,.4-.27,.14-.89-.33-.81-1.09,.2-2.22,.19-2.56-.59-.5-1.13,.08-6.42,1.05-12.3,.02-.11,.11-.2,.23-.2,1.55,0,11.88,0,13.3,0,.1,0,.18-.07,.21-.16l.84-2.64c.05-.15-.06-.3-.22-.3h-13.51c-.15,0-.26-.13-.23-.28,.29-1.56,.59-3.12,.9-4.6,1.72-8.28,3.04-20.71,3.04-20.71v-.38c1.16-.04,2.29-.07,3.31-.09,5.42-.07,8.07,1.06,9.19,3.97,1.12,2.91,1.27,8.83-3.04,12.43-3.32,2.78-7.19,2.53-8.71,2.71-.19,.02-.37,.14-.48,.29l-1.24,1.62c-.06,.08-.05,.21,.04,.25,1.36,.68,6.78,.39,11.06-2.12,4.96-2.91,8.4-7.05,8.4-13.07s-2.98-8.73-8.13-9.65Z"/><g><polygon points="45.45 79.02 46.35 80.85 48.36 81.14 46.91 82.56 47.25 84.56 45.45 83.62 43.65 84.56 44 82.56 42.54 81.14 44.55 80.85 45.45 79.02"/><polygon class="g" points="45.04 78.76 45.94 80.58 47.95 80.87 46.5 82.29 46.84 84.3 45.04 83.35 43.24 84.3 43.58 82.29 42.13 80.87 44.14 80.58 45.04 78.76"/></g><g><polygon points="45.45 5.24 46.35 7.06 48.36 7.36 46.91 8.78 47.25 10.78 45.45 9.83 43.65 10.78 44 8.78 42.54 7.36 44.55 7.06 45.45 5.24"/><polygon class="g" points="45.04 4.98 45.94 6.8 47.95 7.09 46.5 8.51 46.84 10.52 45.04 9.57 43.24 10.52 43.58 8.51 42.13 7.09 44.14 6.8 45.04 4.98"/></g><g><polygon points="81.91 44.17 82.81 45.99 84.82 46.28 83.36 47.7 83.71 49.71 81.91 48.76 80.11 49.71 80.45 47.7 78.99 46.28 81.01 45.99 81.91 44.17"/><polygon class="g" points="81.5 43.9 82.39 45.73 84.41 46.02 82.95 47.44 83.29 49.44 81.5 48.5 79.7 49.44 80.04 47.44 78.58 46.02 80.6 45.73 81.5 43.9"/></g><g><polygon points="80.93 35 81.83 36.82 83.84 37.11 82.38 38.53 82.73 40.54 80.93 39.59 79.13 40.54 79.47 38.53 78.01 37.11 80.03 36.82 80.93 35"/><polygon class="g" points="80.52 34.73 81.42 36.56 83.43 36.85 81.97 38.27 82.31 40.27 80.52 39.33 78.72 40.27 79.06 38.27 77.6 36.85 79.62 36.56 80.52 34.73"/></g><g><polygon points="79.88 53.47 80.78 55.29 82.79 55.58 81.33 57 81.68 59.01 79.88 58.06 78.08 59.01 78.42 57 76.96 55.58 78.98 55.29 79.88 53.47"/><polygon class="g" points="79.46 53.2 80.36 55.03 82.38 55.32 80.92 56.74 81.26 58.74 79.46 57.8 77.66 58.74 78.01 56.74 76.55 55.32 78.56 55.03 79.46 53.2"/></g><g><polygon points="78.01 25.96 78.91 27.79 80.93 28.08 79.47 29.5 79.81 31.5 78.01 30.56 76.21 31.5 76.56 29.5 75.1 28.08 77.11 27.79 78.01 25.96"/><polygon class="g" points="77.6 25.7 78.5 27.52 80.52 27.81 79.06 29.23 79.4 31.24 77.6 30.29 75.8 31.24 76.15 29.23 74.69 27.81 76.7 27.52 77.6 25.7"/></g><g><polygon points="75.72 61.58 76.62 63.4 78.63 63.69 77.18 65.11 77.52 67.12 75.72 66.17 73.92 67.12 74.26 65.11 72.81 63.69 74.82 63.4 75.72 61.58"/><polygon class="g" points="75.31 61.31 76.21 63.14 78.22 63.43 76.76 64.85 77.11 66.85 75.31 65.91 73.51 66.85 73.85 64.85 72.4 63.43 74.41 63.14 75.31 61.31"/></g><g><polygon points="72.6 18.02 73.5 19.84 75.51 20.14 74.06 21.56 74.4 23.56 72.6 22.61 70.8 23.56 71.15 21.56 69.69 20.14 71.7 19.84 72.6 18.02"/><polygon class="g" points="72.19 17.76 73.09 19.58 75.1 19.87 73.65 21.29 73.99 23.29 72.19 22.35 70.39 23.29 70.73 21.29 69.28 19.87 71.29 19.58 72.19 17.76"/></g><g><polygon points="70.57 69.01 71.47 70.84 73.48 71.13 72.03 72.55 72.37 74.55 70.57 73.61 68.77 74.55 69.12 72.55 67.66 71.13 69.67 70.84 70.57 69.01"/><polygon class="g" points="70.16 68.75 71.06 70.57 73.07 70.86 71.62 72.28 71.96 74.29 70.16 73.34 68.36 74.29 68.7 72.28 67.25 70.86 69.26 70.57 70.16 68.75"/></g><g><polygon points="64.99 11.04 65.89 12.87 67.9 13.16 66.44 14.58 66.79 16.58 64.99 15.64 63.19 16.58 63.53 14.58 62.08 13.16 64.09 12.87 64.99 11.04"/><polygon class="g" points="64.58 10.78 65.48 12.6 67.49 12.9 66.03 14.32 66.38 16.32 64.58 15.37 62.78 16.32 63.12 14.32 61.66 12.9 63.68 12.6 64.58 10.78"/></g><g><polygon points="62.54 74.29 63.44 76.11 65.45 76.41 63.99 77.83 64.34 79.83 62.54 78.88 60.74 79.83 61.08 77.83 59.62 76.41 61.64 76.11 62.54 74.29"/><polygon class="g" points="62.12 74.03 63.02 75.85 65.04 76.14 63.58 77.56 63.92 79.56 62.12 78.62 60.33 79.56 60.67 77.56 59.21 76.14 61.22 75.85 62.12 74.03"/></g><g><polygon points="55.63 6.48 56.53 8.3 58.54 8.6 57.09 10.01 57.43 12.02 55.63 11.07 53.83 12.02 54.17 10.01 52.72 8.6 54.73 8.3 55.63 6.48"/><polygon class="g" points="55.22 6.22 56.12 8.04 58.13 8.33 56.68 9.75 57.02 11.75 55.22 10.81 53.42 11.75 53.76 9.75 52.31 8.33 54.32 8.04 55.22 6.22"/></g><g><polygon points="54.4 77.79 55.3 79.61 57.31 79.9 55.86 81.32 56.2 83.32 54.4 82.38 52.6 83.32 52.94 81.32 51.49 79.9 53.5 79.61 54.4 77.79"/><polygon class="g" points="53.99 77.52 54.89 79.34 56.9 79.64 55.44 81.06 55.79 83.06 53.99 82.11 52.19 83.06 52.53 81.06 51.08 79.64 53.09 79.34 53.99 77.52"/></g></svg>