<svg width="90" height="90" fill="none" xmlns="http://www.w3.org/2000/svg"><g clip-path="url(#a)"><circle cx="45" cy="45" r="45" fill="#D82133"/><path d="m66.294 22.156-34.12 49.782a29.535 29.535 0 0 1-3.563-2.04C37.059 51.772 45.46 33.8 54.124 15.229a30.438 30.438 0 0 1 12.17 6.927ZM46.178 14a63567.425 63567.425 0 0 1-19.243 54.692 30.27 30.27 0 0 1-3.562-3.198c.017-.703.095-1.403.235-2.092 2.616-15.007 5.198-30.003 7.748-44.989.059-.381.163-.754.31-1.111A30.349 30.349 0 0 1 45.507 14h.671ZM76.014 42.758c-.205.272-.44.52-.7.74-11.972 10.06-24.001 20.036-35.908 30.16a3.894 3.894 0 0 1-.817.55 29.719 29.719 0 0 1-4.355-1.36l37.884-43.32a30.298 30.298 0 0 1 3.896 13.23ZM21.003 26.334c-.286 11.908-.568 23.482-.854 35.122a30.494 30.494 0 0 1 .854-35.122ZM73.433 56.86a30.49 30.49 0 0 1-11.267 13.214A30.524 30.524 0 0 1 45.507 75c-.568 0-1.131 0-1.69-.047L73.433 56.86Z" fill="#fff"/></g><defs><clipPath id="a"><path fill="#fff" d="M0 0h90v90H0z"/></clipPath></defs></svg>