<svg width="90" height="90" viewBox="0 0 90 90" fill="none" xmlns="http://www.w3.org/2000/svg">
<circle cx="45" cy="45" r="45" fill="#F6F8FB"/>
<g clip-path="url(#clip0_208_3)">
<path d="M47.7292 58.8851C47.3692 58.885 47.0105 58.9256 46.6596 59.0062H46.6552C46.5774 59.0276 46.4992 59.0475 46.421 59.0666C45.283 59.348 44.115 59.4899 42.9429 59.4891C34.9593 59.4891 28.4874 53.0017 28.4874 44.9991C28.4874 36.9964 34.9593 30.5101 42.9429 30.5101C43.7475 30.5098 44.5508 30.5764 45.3445 30.7092C45.752 30.7777 46.1536 30.8629 46.5491 30.965C46.6754 30.9748 46.8031 30.9799 46.9321 30.9801C48.0858 30.9797 49.2005 30.5606 50.0698 29.8002C50.9392 29.0399 51.5045 27.9897 51.6612 26.8439C51.8179 25.6981 51.5554 24.5341 50.9223 23.5673C50.2892 22.6004 49.3282 21.8961 48.2171 21.5844C48.0213 21.5403 47.8248 21.4987 47.6275 21.4597C46.0847 21.1531 44.5157 20.9992 42.9429 21C29.7211 21 19 31.7467 19 45.0002C19 58.2536 29.7211 68.9999 42.9429 68.9999C44.793 69.0018 46.6371 68.7893 48.4385 68.3666C48.7533 68.2929 49.0656 68.2127 49.3755 68.1259C50.4219 67.738 51.299 66.9937 51.8532 66.0231C52.4075 65.0525 52.6037 63.9175 52.4075 62.8166C52.2113 61.7157 51.6352 60.719 50.78 60.0009C49.9247 59.2827 48.8448 58.8888 47.7292 58.8881V58.8851Z" fill="#196AF9"/>
<path d="M68.3593 59.4146L50.414 41.4263C48.2266 39.2338 44.6803 39.2338 42.4929 41.4263L42.4927 41.4266C40.3053 43.6192 40.3053 47.174 42.4927 49.3666L60.438 67.3548C62.6253 69.5474 66.1717 69.5474 68.359 67.3548L68.3593 67.3546C70.5466 65.162 70.5466 61.6071 68.3593 59.4146Z" fill="#196AF9"/>
<path d="M43.8883 50.7651C43.3681 50.2438 42.9555 49.6249 42.674 48.9437C42.3925 48.2625 42.2476 47.5324 42.2476 46.7951C42.2476 46.0578 42.3925 45.3277 42.674 44.6465C42.9555 43.9653 43.3681 43.3464 43.8883 42.8251V42.8251C46.0755 40.6323 45.5879 46.2401 47.7754 48.4329L51.447 52.5181L48.111 54.9979L43.8887 50.7655" fill="#67D3FA"/>
<path d="M41.318 40.24L58.7493 22.767C59.7997 21.7141 61.2243 21.1226 62.7098 21.1226C64.1953 21.1226 65.6199 21.7141 66.6703 22.767C67.7207 23.8199 68.3108 25.248 68.3108 26.737C68.3108 28.2261 67.7207 29.6541 66.6703 30.707L45.2775 52.151L41.317 48.181C40.7968 47.6596 40.3842 47.0405 40.1027 46.3592C39.8212 45.6779 39.6764 44.9477 39.6765 44.2103C39.6766 43.4729 39.8216 42.7427 40.1032 42.0615C40.3849 41.3802 40.7977 40.7613 41.318 40.24Z" fill="#67D3FA"/>
<path d="M50.6943 56.1345C52.7322 56.1345 54.3843 54.3555 54.3843 52.1611C54.3843 49.9667 52.7322 48.1878 50.6943 48.1878C48.6564 48.1878 47.0044 49.9667 47.0044 52.1611C47.0044 54.3555 48.6564 56.1345 50.6943 56.1345Z" fill="#196AF9"/>
</g>
<defs>
<clipPath id="clip0_208_3">
<rect width="51" height="48" fill="white" transform="translate(19 21)"/>
</clipPath>
</defs>
</svg>
