<svg width="90" height="90" fill="none" xmlns="http://www.w3.org/2000/svg"><g clip-path="url(#a)"><circle cx="45" cy="45" r="45" fill="#F5F5F5"/><path d="M44.943 65c-1.493 0-2.637-.398-3.433-1.194-.796-.796-1.194-1.94-1.194-3.432v-2.189l2.189 2.288h-1.393c-3.515 0-6.55-.564-9.103-1.691-2.554-1.16-4.527-2.869-5.92-5.124C24.696 51.403 24 48.634 24 45.351c0-2.487.381-4.676 1.144-6.566.763-1.89 1.874-3.466 3.333-4.726 1.492-1.294 3.3-2.255 5.422-2.885 2.123-.63 4.527-.946 7.213-.946h1.393l-2.189 2.289v-1.89c0-1.526.398-2.67 1.194-3.433.796-.796 1.94-1.194 3.433-1.194 1.459 0 2.57.398 3.332 1.194.796.763 1.194 1.907 1.194 3.432v1.89l-2.139-2.288h1.343c3.615 0 6.7.58 9.253 1.741 2.553 1.128 4.51 2.82 5.87 5.074 1.36 2.222 2.04 4.991 2.04 8.308 0 2.487-.399 4.676-1.195 6.566a12.879 12.879 0 0 1-3.432 4.726c-1.492 1.26-3.3 2.222-5.422 2.885-2.09.63-4.46.945-7.114.945H47.33l2.14-2.288v2.189c0 1.492-.382 2.636-1.145 3.432-.763.796-1.89 1.194-3.383 1.194Zm-4.527-9.9V35.6l1.74 1.344h-1.79a7.69 7.69 0 0 0-2.786.497 5.71 5.71 0 0 0-2.288 1.493c-.63.663-1.128 1.525-1.492 2.586-.365 1.062-.547 2.338-.547 3.83 0 1.957.315 3.566.945 4.826.663 1.227 1.542 2.14 2.636 2.736a7.602 7.602 0 0 0 3.532.846h1.79l-1.74 1.343Zm9.004 0-1.791-1.342h1.79c.962 0 1.858-.15 2.687-.448a6.212 6.212 0 0 0 2.288-1.542c.697-.697 1.227-1.575 1.592-2.637.398-1.06.597-2.321.597-3.78 0-1.99-.315-3.599-.945-4.825-.63-1.228-1.493-2.123-2.587-2.687-1.095-.597-2.305-.895-3.632-.895h-1.79l1.79-1.343v19.5Z" fill="#008F01"/></g><defs><clipPath id="a"><path fill="#fff" d="M0 0h90v90H0z"/></clipPath></defs></svg>