<svg width="90" height="90" viewBox="0 0 90 90" fill="none" xmlns="http://www.w3.org/2000/svg">
<g clip-path="url(#clip0_3105_32)">
<circle cx="45" cy="45" r="45" fill="#F5F5F5"/>
<path fill-rule="evenodd" clip-rule="evenodd" d="M17.6128 38.9507L16.1494 34.2229L18.9636 28.3693L24.2543 23.4164L29.7701 19.2513L35.1734 18.2382L41.3646 17.788L46.8804 20.377L50.37 25.8928L50.9329 32.0841L49.8072 37.0371L48.1187 41.8775L45.1919 47.1682L45.6422 48.8567L47.6684 53.3594L50.37 57.5244L52.8465 60.3386L55.7733 62.0271L61.1765 64.1659L67.5929 63.8282L71.8705 62.0271H74.347L74.0093 63.8282L71.3076 66.8675L67.2552 69.9069L63.5405 71.7079L59.488 72.2708L53.2968 71.2577L47.6684 68.4435L44.0662 64.9539L40.4641 58.0872L39.0007 54.3725L36.9745 55.4982L32.3592 56.6239L28.5319 56.9616L25.0423 56.061L20.7647 52.9091L17.2751 47.1682L17.6128 38.9507ZM28.982 45.4799L31.5711 46.8307L33.2596 46.2678L33.4847 45.1422L32.5842 44.4668L31.1208 43.6788L30.1077 43.0034L30.8957 41.4274L32.9219 38.3881L33.2596 37.8253L34.8356 38.3881L37.0869 38.8384L39.3383 40.0766L41.2519 39.4012L42.9404 35.5739L44.1787 29.9455L43.6158 26.6811L41.9273 25.1051H40.3514L37.0869 25.8931L33.935 27.1313L32.3591 28.8198L31.346 29.9455L32.3591 31.4089L33.2596 33.5477V35.5739L32.5842 37.4876L31.6837 39.4012L30.1077 41.7651L29.2072 43.4537L28.982 44.4668V45.4799Z" fill="#FFF200"/>
<path d="M31.3469 45.5923C30.3564 45.5923 29.696 44.9168 29.5459 44.5791H28.5328L28.3076 45.1419C28.3451 45.4797 28.5778 46.3127 29.2082 46.9431C29.9962 47.7311 33.0355 47.6185 33.4857 47.6185C33.936 47.6185 34.8365 47.6185 35.3994 48.1813C35.9622 48.7442 36.9753 51.2207 37.0879 51.4458C37.2005 51.6709 38.0191 53.9324 38.101 54.26C38.3262 55.1605 40.5775 60.1135 40.8026 60.6763C41.1629 61.5769 43.3218 65.6293 45.7556 67.7681C49.4704 71.0326 51.9201 71.8022 53.7479 72.2708C58.1381 73.3965 61.0648 73.0106 62.8659 72.496C67.2561 71.2416 70.0703 69.0064 71.3085 67.7681C72.0965 66.9801 74.4604 64.3911 74.9107 62.9277C75.361 61.4643 74.573 60.7889 73.6724 60.7889C72.7719 60.7889 70.1828 61.8824 68.2692 62.7026C66.243 63.5709 62.1542 63.6835 60.1643 63.1528C58.4758 62.7026 54.0329 60.0683 53.2977 59.4381C50.1458 56.7365 48.4573 53.5846 47.219 51.1081C46.5626 49.7953 45.5305 47.1948 45.5305 46.9431C45.5305 46.0425 43.7294 46.7179 43.9545 47.6185C44.1797 48.519 46.2059 53.3594 47.1064 54.8228C48.2148 56.6239 50.596 59.4381 52.172 60.7889C53.4426 61.878 57.125 64.1659 60.3894 64.8414C64.2167 65.6332 67.5938 64.9539 70.0703 63.9408C71.9165 63.1856 73.785 62.59 73.4473 63.1528C73.1096 63.7157 71.4211 65.7828 69.9577 66.9801C68.4943 68.1775 64.1401 70.3596 62.8659 70.6949C60.041 71.4383 58.7009 71.4829 55.4365 70.92C53.6477 70.6116 50.3709 69.4133 47.8944 67.3178C44.9677 64.8414 43.5043 62.1397 43.054 61.5769C42.6037 61.0141 39.4518 53.8097 38.889 52.1212C38.3262 50.4327 35.9622 46.4928 34.8365 45.3671C34.0486 44.5792 30.7841 42.8906 30.4464 42.778C30.1087 42.6655 28.7579 44.0163 29.2082 43.7911C29.6585 43.566 32.2475 44.9168 32.4726 45.1419C32.6978 45.3671 32.5852 45.5923 31.3469 45.5923Z" fill="black"/>
<path d="M20.4267 32.8721C20.9671 31.8815 23.466 28.482 24.5917 28.3694C24.7043 29.0448 22.8871 30.6207 21.665 32.7595C20.7001 34.448 19.4136 37.8251 18.9633 39.401C18.3844 41.4272 18.4005 45.142 18.8508 47.3933C19.301 49.6447 22.1635 54.4434 26.2802 55.6108C33.8223 57.7496 38.5773 52.412 39.2255 53.3594C40.6889 55.4982 34.6536 59.3792 25.9425 57.637C20.3142 56.5113 16.8246 48.519 16.2617 46.9431C15.6989 45.3671 17.5 38.8382 17.7251 37.8251C17.9502 36.812 19.7513 34.1103 20.4267 32.8721Z" fill="black"/>
<path d="M31.571 52.9094C33.7098 53.2471 35.9612 52.0087 35.9612 51.6711C35.9612 51.1082 34.1804 51.8565 33.8224 51.8963C32.8093 52.0087 31.7962 52.0088 30.8956 51.2209C30.2848 50.6864 29.8825 50.3203 29.3197 49.0821C28.7568 47.8438 28.9898 46.3543 29.3197 45.2548C29.6574 44.1291 30.7831 42.7783 31.1208 42.4406C31.4585 42.1029 32.8093 40.0767 33.147 39.4012C33.7098 38.4472 35.3983 34.7858 33.9349 31.7466C32.9466 29.6939 27.2934 29.4952 29.3197 30.8461C30.1076 31.1838 30.4004 31.1838 31.1208 31.6341C32.0213 32.1969 32.5842 33.5477 32.5842 35.3488C32.5842 37.0523 31.571 39.5138 29.3197 42.1029C27.0683 44.6919 27.184 47.4094 27.5186 49.0821C27.8563 50.7704 29.8449 52.6368 31.571 52.9094Z" fill="black"/>
<path d="M40.5757 22.7413C38.3134 22.138 34.6096 22.7413 32.9211 23.7544C34.0468 23.867 34.4986 23.6947 35.3976 23.6418C37.3113 23.5293 37.9827 23.5569 38.6621 23.6418C39.5626 23.7544 39.9379 23.867 40.238 24.0921C40.238 24.2047 39.9228 24.0471 38.6621 24.3172C37.0861 24.6549 35.0599 25.2553 33.3714 26.5686C32.3583 27.3566 30.8199 29.0826 30.1069 30.0582L32.1332 30.3959C32.8086 29.2702 34.0468 28.1445 34.7222 27.6943C35.3845 27.2528 37.0891 26.1366 38.5495 25.8932C39.9003 25.668 40.6883 25.7525 41.3637 26.3435C42.2643 27.1314 42.7145 28.3697 42.602 30.8462C42.4742 33.6575 41.3579 35.7722 40.9134 36.5871C39.5626 39.0636 39.7127 38.7259 39.2249 39.4013C38.8122 39.1387 37.8921 38.5661 37.3113 38.2757C36.4107 37.8254 34.8348 37.2625 33.9342 37.0374L33.3714 38.5008C33.7466 38.6134 34.6184 38.8249 35.0599 38.9511C35.8479 39.1762 37.7615 40.1893 38.6621 40.7521C39.5159 41.2858 41.4763 43.6789 42.2643 44.5794C42.8946 45.2999 44.0278 47.8064 44.5156 48.9696C44.7407 48.5193 45.146 47.3261 44.9659 46.1554C44.7858 44.9847 42.9772 42.8534 42.0391 41.8778C42.1892 41.7277 42.8276 41.074 43.7276 39.5139C45.4162 36.5871 45.979 32.197 45.979 29.3828C45.979 26.5686 43.9528 23.6418 40.5757 22.7413Z" fill="black"/>
<path d="M17.0496 50.9955C18.513 53.9222 23.5786 57.7495 27.4059 57.8621L28.5316 57.0741L24.4791 55.7233L18.9633 51.3332L17.4999 45.9299L17.8376 38.2753C17.9127 37.2622 17.6124 36.1366 18.0628 33.9977C18.6079 31.4088 19.5261 29.6077 21.2147 27.5814C23.0744 25.3498 27.2352 22.3178 28.1939 21.7278C29.6572 20.8274 33.3719 18.9137 36.9742 18.6885C39.0003 18.5618 42.4899 18.8573 44.4036 19.8142C46.6549 20.9398 48.0057 23.0787 48.5686 24.317C49.3872 26.1181 50.0319 28.9285 50.0319 30.6208C50.0319 33.0973 49.3566 36.024 49.1315 36.9245C48.9063 37.825 47.2202 42.2671 46.7676 43.1157C45.8669 44.8043 45.2291 45.8174 44.6288 46.7179C44.8914 47.2432 45.0575 49.009 45.5292 48.6316C46.0921 48.1814 49.5029 40.9885 50.4823 38.0502C51.833 33.9978 51.833 29.8328 51.2702 26.906C50.8429 24.6842 49.0187 21.3902 47.3303 19.8142C45.9146 18.4927 42.8276 17.0001 38.2124 17C34.385 16.9999 31.5708 17.7692 29.207 18.6885C25.1545 20.2645 22.1152 22.9661 20.5393 24.4295C17.4998 27.2518 16.0603 30.6562 15.5863 32.1967C15.136 33.66 14.5731 36.6994 15.136 38.5005C15.7731 40.539 15.4384 40.3095 15.2486 41.7649C14.9108 44.354 15.3611 47.6185 17.0496 50.9955Z" fill="black"/>
</g>
<defs>
<clipPath id="clip0_3105_32">
<rect width="90" height="90" fill="white"/>
</clipPath>
</defs>
</svg>
