<svg width="90" height="90" viewBox="0 0 90 90" fill="none" xmlns="http://www.w3.org/2000/svg">
<g clip-path="url(#clip0_1052_1603)">
<circle cx="45" cy="45" r="45" fill="#F5F5F5"/>
<path fill-rule="evenodd" clip-rule="evenodd" d="M23.2054 50.2101C21.4945 49.3971 19.8372 48.3076 19 47.6887C26.4918 47.1604 33.3325 45.5896 39.2514 43.5935C46.3125 40.7758 52.1714 36.4729 56.0275 30.6495C48.539 37.7397 37.1798 41.8456 24.526 41.4251L27.5371 21.3948C27.6576 20.593 28.3465 20 29.1573 20H42.8199H43.8659H49.7011H50.6842V20.0223C61.991 20.5359 71 29.8654 71 41.299C71 52.7327 61.991 62.0621 50.6842 62.5758V62.598H49.7011H41.3454C39.9357 62.786 39.3683 63.4063 39.1601 63.9638L38.4421 68.74C38.3216 69.5417 37.6327 70.1347 36.8219 70.1347H22.1133C21.1114 70.1347 20.3442 69.2435 20.4931 68.2524L23.2054 50.2101Z" fill="#009AFF"/>
<path fill-rule="evenodd" clip-rule="evenodd" d="M23.2054 50.2101C21.4945 49.3971 19.8372 48.3076 19 47.6887C26.4918 47.1604 33.3325 45.5896 39.2514 43.5935C46.3125 40.7758 52.1714 36.4729 56.0275 30.6495C48.539 37.7397 37.1798 41.8456 24.526 41.4251L27.5371 21.3948C27.6576 20.593 28.3465 20 29.1573 20H42.8199H43.8659H49.7011H50.6842V20.0223C61.991 20.5359 71 29.8654 71 41.299C71 52.7327 61.991 62.0621 50.6842 62.5758V62.598H49.7011H41.3454C39.9357 62.786 39.3683 63.4063 39.1601 63.9638L38.4421 68.74C38.3216 69.5417 37.6327 70.1347 36.8219 70.1347H22.1133C21.1114 70.1347 20.3442 69.2435 20.4931 68.2524L23.2054 50.2101Z" fill="url(#paint0_linear_1052_1603)"/>
</g>
<defs>
<linearGradient id="paint0_linear_1052_1603" x1="61.598" y1="23.2768" x2="26.7004" y2="57.0275" gradientUnits="userSpaceOnUse">
<stop stop-color="#00E0FF"/>
<stop offset="1" stop-color="#00E0FF" stop-opacity="0"/>
</linearGradient>
<clipPath id="clip0_1052_1603">
<rect width="90" height="90" fill="white"/>
</clipPath>
</defs>
</svg>
