<svg xmlns="http://www.w3.org/2000/svg" width="90" height="90" fill="none"><circle cx="45" cy="45" r="45" fill="#FF6339"/><path fill="#fff" d="M68.838 64.878 52.946 20.959C52.459 19.653 51.649 19 50.189 19H39.65c-1.298 0-2.27.653-2.757 1.96L21 64.877v.653c0 .326.162.653.486.98.325.326.65.489.973.489h8.92c1.134 0 1.783-.49 2.27-1.47l2.432-6.693H53.92l2.432 6.694c.487.98 1.298 1.469 2.27 1.469h8.92c.324 0 .648-.163.972-.49.325-.326.487-.653.487-.98-.162-.326-.162-.49-.162-.652ZM53.432 46.102v.327c-.162.49-.648.653-1.135.49l-2.432-.98c-.325.653-.649 1.306-1.135 1.959l-.325.49c-.162.163-.324.326-.486.326h-5.676c-.162 0-.486-.163-.486-.326l-.325-.49c-.486-.653-.81-1.306-1.135-1.96l-2.594.98h-.325c-.486 0-.81-.326-.81-.816v-2.775c0-1.143.486-2.123 1.297-2.94l.648-.652c0-1.47.163-2.94.487-4.245.973-3.592 2.919-6.694 5.514-9.143.324-.163.648-.163.81 0 2.757 2.449 4.703 5.551 5.514 9.143.324 1.47.486 2.775.486 4.245l.649.653c.81.816 1.297 1.796 1.297 2.939l.162 2.775Z"/><path fill="#fff" d="M45 31.898c-1.783 0-3.242 1.47-3.242 3.265 0 1.796 1.46 3.266 3.243 3.266 1.784 0 3.243-1.47 3.243-3.266 0-.816-.324-1.632-.973-2.285-.648-.653-1.46-.98-2.27-.98Zm1.136 4.571c-.649.654-1.784.654-2.595 0-.648-.653-.648-1.795 0-2.612.65-.653 1.784-.653 2.595 0 .325.327.487.817.487 1.306.162.49 0 .817-.487 1.306Z"/></svg>