<svg width="90" height="90" fill="none" xmlns="http://www.w3.org/2000/svg"><circle cx="45" cy="45" r="45" fill="#00AA1E"/><path d="m70.478 44.98-14.36-14.284c-.63-.705-1.915-1.28-2.855-1.28h-5.548l5.23 5.23s2.817 2.627-.575 2.627h-6.877c-1.05 0-2.254-.502-2.93-1.234l-6.66-6.623h-8.444A2.445 2.445 0 0 0 25 31.87c0 .353.07.69.213.996.127.301.332.627.635.968l11.215 11.151c.706.774.639 1.821-.021 2.468l-11.19 11.143a3.392 3.392 0 0 0-.64.962A2.446 2.446 0 0 0 27.459 63h25.8c.946-.004 2.145-.579 2.86-1.275l14.359-14.28c.668-.659.726-1.692.001-2.466ZM41.8 47.495 28.072 61.151a.857.857 0 0 1-1.21.012.852.852 0 0 1-.019-1.214l12.527-12.47a1.754 1.754 0 0 0 .044-2.502l-12.571-12.51a.854.854 0 0 1 .019-1.216.863.863 0 0 1 1.21.015l13.768 13.71a1.777 1.777 0 0 1-.04 2.52Zm2.043-12.606c.346.376 1.084.69 1.65.69h4.881c.576 0 .754-.314.416-.69l-8.201-8.194c-.344-.394-1.087-.696-1.648-.696h-4.882c-.572 0-.758.303-.4.692l8.184 8.198Zm-4.792-7.369c.41-.348 1.576-.245 2.582.217 1.002.473 1.496 1.12 1.085 1.473-.42.341-1.569.25-2.571-.22-1.029-.468-1.507-1.124-1.096-1.47Z" fill="#fff"/></svg>