<svg width="90" height="90" viewBox="0 0 90 90" fill="none" xmlns="http://www.w3.org/2000/svg">
<circle cx="45" cy="45" r="45" fill="#119769"/>
<path d="M39.2404 24H28V66H39.2404V24Z" fill="white"/>
<path fill-rule="evenodd" clip-rule="evenodd" d="M48.0304 53.2276H43.8422V24.2211H50.519C52.8255 24.2211 54.9398 24.5792 56.8619 25.2954C58.784 26.0116 60.4431 27.0262 61.8392 28.3393C63.2352 29.6523 64.3278 31.214 65.1168 33.0245C65.9059 34.8349 66.3005 36.8343 66.3005 39.0227C66.3005 41.6091 65.7036 43.9069 64.5099 45.9163C63.3161 47.9256 61.6672 49.547 59.563 50.7805L68 66H54.9499L48.0304 53.2276ZM43.8422 43.4991H49.1836C50.8427 43.4991 52.1174 43.0713 53.0076 42.2158C53.8978 41.3604 54.343 40.2761 54.343 38.9631C54.343 37.65 53.8978 36.5657 53.0076 35.7103C52.1174 34.8548 50.8427 34.4271 49.1836 34.4271H43.8422V43.4991Z" fill="#FFD800"/>
</svg>
