<svg width="90" height="90" fill="none" xmlns="http://www.w3.org/2000/svg"><circle cx="45" cy="45" r="45" fill="#FFD800"/><g clip-path="url(#a)"><path d="M32.314 67.116c10.666 0 19.313-8.78 19.313-19.612 0-10.831-8.647-19.612-19.313-19.612C21.647 27.892 13 36.672 13 47.504c0 10.832 8.647 19.612 19.314 19.612Z" fill="#FAF144"/><path fill-rule="evenodd" clip-rule="evenodd" d="M30.306 75h3.467v-9.24h-3.467V75Zm19.07-15.835H19.257v-3.524h30.117a15.702 15.702 0 0 0 11.02-4.795 16.191 16.191 0 0 0 4.542-11.265 16.19 16.19 0 0 0-4.543-11.266 15.702 15.702 0 0 0-11.019-4.794H33.993v25.537h-3.467V20h18.85c5.114 0 10.019 2.063 13.636 5.736 3.616 3.672 5.648 8.653 5.648 13.847 0 5.193-2.032 10.174-5.648 13.847-3.617 3.672-8.522 5.735-13.637 5.735Z" fill="#191919"/><path fill-rule="evenodd" clip-rule="evenodd" d="M58.798 39.578a2.232 2.232 0 0 1-.6 1.62 2.142 2.142 0 0 1-3.134 0 2.208 2.208 0 0 1-.6-1.62 2.218 2.218 0 0 1 .667-1.494 2.152 2.152 0 0 1 1.5-.612c.559 0 1.096.22 1.5.612.403.392.642.927.667 1.494Zm18.202 0c0 .436-.126.862-.364 1.225a2.176 2.176 0 0 1-.972.813 2.138 2.138 0 0 1-2.365-.474 2.235 2.235 0 0 1-.472-2.4c.164-.404.442-.748.799-.99a2.145 2.145 0 0 1 2.737.272c.407.412.636.971.637 1.554Z" fill="#191919"/></g><defs><clipPath id="a"><path fill="#fff" transform="translate(13 20)" d="M0 0h64v55H0z"/></clipPath></defs></svg>