<svg width="90" height="90" viewBox="0 0 90 90" fill="none" xmlns="http://www.w3.org/2000/svg">
<g clip-path="url(#clip0_3210_1504)">
<circle cx="45" cy="45" r="45" fill="#F5F5F5"/>
<path d="M69.8893 44.4568L65.3765 33.2314L68.479 32.498C68.9867 32.3852 69.3252 31.934 69.3252 31.4263L69.2124 23.4161C69.2124 23.3033 69.2124 23.2469 69.156 23.1341C69.156 23.0777 69.0995 22.9649 69.0995 22.9085C69.0431 22.7392 68.9303 22.57 68.7611 22.4008L64.8124 19.2418C64.474 18.9598 63.9663 18.9034 63.5714 19.1854L55.6177 24.0366L45.182 22.7392C45.1256 22.7392 45.0691 22.7392 45.0127 22.7392H44.9563C44.8999 22.7392 44.8435 22.7392 44.7307 22.7392L34.3514 24.0366L26.3976 19.1854C26.0028 18.9598 25.4951 18.9598 25.1566 19.2418L21.208 22.4008C21.0387 22.5136 20.9259 22.6828 20.8695 22.9085C20.8131 22.9649 20.8131 23.0777 20.8131 23.1341C20.7567 23.2469 20.7567 23.3033 20.7567 23.4161L20.6439 31.4263C20.6439 31.934 20.9823 32.3852 21.49 32.498L24.5925 33.2314L20.0798 44.4568C20.0234 44.6261 19.967 44.7953 20.0234 45.0209C20.0234 45.0773 20.0234 45.1902 20.0798 45.2466C20.0798 45.303 20.1362 45.4158 20.1362 45.4722L24.931 57.5438C24.9874 57.6566 25.0438 57.7695 25.1002 57.8823C25.1566 57.9951 25.2694 58.0515 25.3259 58.1079C25.3823 58.1643 25.3823 58.2207 25.4387 58.2207L36.4385 67.1898C36.4949 67.1898 36.4949 67.2462 36.5513 67.2462L36.6077 67.3026L44.3922 72.8308C44.5615 72.9436 44.7871 73 45.0127 73C45.2384 73 45.464 72.9436 45.6332 72.8308L53.3613 67.3026L53.4177 67.2462C53.4177 67.2462 53.4741 67.1898 53.5305 67.1898L64.5304 58.2207C64.5868 58.1643 64.6432 58.1643 64.6432 58.1079C64.6996 58.0515 64.8124 57.9951 64.8688 57.8823C64.9252 57.7695 65.0381 57.6566 65.0381 57.5438L69.8329 45.4722C69.8893 45.4158 69.8893 45.303 69.8893 45.2466C69.8893 45.1902 69.9457 45.0773 69.9457 45.0209C69.9457 44.7953 69.9457 44.6261 69.8893 44.4568Z" fill="#1C1715"/>
<path d="M36.4386 40.7339L38.6949 38.9852L32.8848 37.4058L36.4386 40.7339Z" fill="#1C1715"/>
<path d="M53.4727 40.7339L57.0829 37.4058L51.2163 38.9852L53.4727 40.7339Z" fill="#1C1715"/>
<path d="M44.9552 54.2154L48.7346 51.3949H41.1758L44.9552 54.2154Z" fill="#1C1715"/>
<path d="M51.1613 55.1748L53.7561 51.0569L49.5254 48.4056V51.1697H49.5818H49.5254L51.1613 55.1748Z" fill="#C8967A"/>
<path d="M49.4099 47.6723L53.8098 50.4928L53.2457 41.0724L50.9329 39.3237L47.4355 46.2621L49.4099 47.6723Z" fill="#845A43"/>
<path d="M36.2119 51.0569L38.8068 55.1748L40.3862 51.1697V48.4056L36.2119 51.0569Z" fill="#C8967A"/>
<path d="M40.7809 51.621L39.145 55.626L44.9552 59.8567L50.7654 55.626L49.1295 51.621L45.1244 54.6107C45.068 54.6107 45.0116 54.6671 44.9552 54.6671C44.8988 54.6671 44.8424 54.6671 44.786 54.6107L40.7809 51.621Z" fill="#DDA783"/>
<path d="M42.981 46.0927H46.9861L50.4835 38.9851L44.9554 33.5134L39.4272 38.9851L42.981 46.0927Z" fill="#C8967A"/>
<path d="M54.3759 50.9438C54.3759 51.0003 54.3759 51.0003 54.3759 51.0003C54.3759 51.0003 54.3759 51.0567 54.3195 51.0567L51.3298 55.8515L45.1248 60.4206C45.0684 60.4206 45.0119 60.477 44.9555 60.477C44.8991 60.477 44.8427 60.477 44.7863 60.4206L38.6377 55.9079L35.648 51.1131C35.648 51.1131 35.648 51.0567 35.5916 51.0567V51.0003L36.0993 41.9747L29.1045 52.8054L44.9555 64.9898L60.8066 52.8054L53.8118 41.9183L54.3759 50.9438Z" fill="#C8916B"/>
<path d="M39.0326 38.6465L43.9966 33.6825L33.166 37.0671L39.0326 38.6465Z" fill="#784E35"/>
<path d="M40.5003 47.6723L42.4746 46.2621L39.0336 39.3237L36.6644 41.0724L36.1567 50.4928L40.5003 47.6723Z" fill="#845A43"/>
<path d="M67.3495 23.1903L63.965 20.4263L56.9702 24.657L67.3495 23.1903Z" fill="#432B1F"/>
<path d="M56.3516 25.2777L63.7412 32.0468L67.577 23.6982L56.3516 25.2777Z" fill="#1C1715"/>
<path d="M63.4013 32.4982L56.1245 25.8419L57.8732 36.6161L63.4013 32.4982Z" fill="#784E35"/>
<path d="M64.2471 32.1036L67.8573 31.3138L67.7445 24.4883L64.2471 32.1036Z" fill="#452E21"/>
<path d="M49.016 48.067L47.0417 46.6003H42.8674L40.8931 48.067V51.0003H49.016V48.067Z" fill="#DDA783"/>
<path d="M55.5606 25.3344L45.689 24.0934L57.3093 36.2778L55.5606 25.3344Z" fill="#A47557"/>
<path d="M44.9544 32.8933H45.0108L56.8003 36.5035L44.9544 24.0934L33.1084 36.5035L44.9544 32.8933Z" fill="#C8967A"/>
<path d="M52.6837 65.9487L62.3297 58.1078L45.9146 65.159L52.6837 65.9487Z" fill="#452E21"/>
<path d="M63.5146 56.9795L61.089 53.2001L46.7046 64.1999L63.5146 56.9795Z" fill="#845A43"/>
<path d="M37.8477 66.3999L44.9552 71.4203L52.0628 66.3999L44.9552 65.5537L37.8477 66.3999Z" fill="#1C1715"/>
<path d="M63.8526 56.5285L68.0269 45.98L61.4834 52.8619L63.8526 56.5285Z" fill="#452E21"/>
<path d="M37.2283 65.9487L43.9974 65.159L27.6387 58.1078L37.2283 65.9487Z" fill="#452E21"/>
<path d="M43.2045 64.1999L28.8201 53.2001L26.3945 56.9795L43.2045 64.1999Z" fill="#845A43"/>
<path d="M61.2013 52.4106L68.3089 44.9646L54.0938 41.3544L61.2013 52.4106Z" fill="#784E35"/>
<path d="M57.8725 37.2931L54.0366 40.7905L68.3646 44.4571L63.6826 32.8932L57.8725 37.2931Z" fill="#A47557"/>
<path d="M56.7452 37.0671L45.9146 33.6825L50.8786 38.6465L56.7452 37.0671Z" fill="#784E35"/>
<path d="M32.9399 24.657L25.9451 20.4263L22.5605 23.1903L32.9399 24.657Z" fill="#432B1F"/>
<path d="M22.1668 24.4883L22.1104 31.3138L25.6641 32.1036L22.1668 24.4883Z" fill="#452E21"/>
<path d="M26.5093 32.4982L32.0374 36.6161L33.7861 25.8419L26.5093 32.4982Z" fill="#784E35"/>
<path d="M44.2785 24.0934L34.4069 25.3344L32.6582 36.2778L44.2785 24.0934Z" fill="#A47557"/>
<path d="M22.3931 23.6982L26.2289 32.0468L33.5621 25.2777L22.3931 23.6982Z" fill="#1C1715"/>
<path d="M28.4263 52.8619L21.8828 45.98L26.0571 56.5285L28.4263 52.8619Z" fill="#452E21"/>
<path d="M21.6577 44.9646L28.7653 52.4106L35.8729 41.3544L21.6577 44.9646Z" fill="#784E35"/>
<path d="M35.8741 40.7905L32.0947 37.2367L26.2281 32.8932L21.6025 44.4571L35.8741 40.7905Z" fill="#A47557"/>
</g>
<defs>
<clipPath id="clip0_3210_1504">
<rect width="90" height="90" fill="white"/>
</clipPath>
</defs>
</svg>
