<svg xmlns="http://www.w3.org/2000/svg" width="90" height="90" fill="none"><circle cx="45" cy="45" r="45" fill="#276599"/><g fill="#fff" clip-path="url(#a)"><path d="M53.964 33.11c-.067-3.434-7.747-2.679-13.115.961-5.368 3.64-4.825 7.212-4.825 7.212v12.57c0 2.199-1.835 3.366-1.835 3.366h3.139c6.2 0 5.791-5.8 5.791-5.8v-5.793c8.072-5.044 10.913-9.08 10.845-12.516ZM43.04 43.754v-4.168s.88-4.495 2.606-4.938c1.487-.384 1.358 1.636 1.264 2.47-.095.833-.508 2.952-3.87 6.638v-.002Z"/><path d="M54.857 55.197c-1.402-.132-1.173-1.285-1.173-1.285V42.185c-9.225 0-9.388 7.873-9.388 7.873v3.69c0 1.877-2.445 3.47-2.445 3.47h11.833c1.14.002 2.575-1.887 1.173-2.022Zm-5.121-.01h-2.93v-2.87c0-5.37 2.93-6.311 2.93-6.311v9.18Z"/><path d="M76.928 44.554c0-.652.293-3.186-2.51-4.602-2.804-1.417-5.665-7.673-6.487-9.054-.82-1.38-1.752-1.039-2.686-1.039-.935 0-1.577-.472-2.682-1.889-1.105-1.416-1.056-1.475-1.056-4.957 0-3.482-4.901-5.013-4.901-5.013h-7.709C46.795 18 45 20.715 45 20.715S43.206 18 41.103 18h-7.709s-4.905 1.534-4.905 5.016.05 3.542-1.056 4.958c-1.105 1.415-1.748 1.889-2.682 1.889-.934 0-1.869-.343-2.686 1.038s-3.68 7.638-6.486 9.054c-2.807 1.417-2.508 3.95-2.508 4.599s-.7 2.716 2.278 4.368c2.978 1.653 4.38 5.265 4.907 6.265.526 1 1.927 3.95 3.738 4.186 1.81.237 2.043.236 2.92 1.239.876 1.003 1.518 1.653 1.576 3.305.058 1.652-.467 3.305 1.11 4.778 1.578 1.472 2.452 2.302 4.145 2.302h7.241s1.028 0 2.208-.945A10.16 10.16 0 0 0 45 68.222c.523.685 1.13 1.3 1.806 1.83 1.18.945 2.208.945 2.208.945h7.241c1.694 0 2.57-.827 4.147-2.302 1.576-1.476 1.05-3.128 1.11-4.778.057-1.65.7-2.302 1.576-3.305.875-1.004 1.11-1 2.92-1.239 1.811-.239 3.212-3.188 3.738-4.186.527-1 1.928-4.608 4.906-6.261 2.978-1.653 2.276-3.718 2.276-4.372Zm-11.62 1.444c-.176 1.271-3.446 6.111-4.308 6.58-.862.469-1.532-.414-2.818.53-1.285.945-.467 2.89-.116 3.72.35.83-.059 1.77-1.518 3.186-1.46 1.417-4.322 1.181-5.256 1.181-.935 0-1.286-1.063-2.648-1.181C47.282 59.896 45 63.26 45 63.26s-2.281-3.364-3.644-3.246c-1.364.118-1.713 1.181-2.648 1.181-.934 0-3.795.236-5.255-1.181s-1.869-2.36-1.519-3.186c.35-.826 1.169-2.778-.116-3.72-1.286-.94-1.956-.058-2.818-.53-.862-.472-4.127-5.301-4.307-6.572-.18-1.271-.175-3.454.88-5.165 1.053-1.711 3.153-4.778 4.204-4.722 1.051.055.99.354 2.22-.472 1.23-.827-.35-4.12-.176-4.746.175-.625 1.869-2.632 2.748-2.75.88-.117 4.906-.53 5.373.06.467.59 1.716 1.187 3.104-.267 1.389-1.454 1.96-2.371 1.96-2.371s.574.916 1.962 2.37c1.387 1.455 2.638.857 3.103.267.465-.59 4.498-.176 5.373-.058.875.117 2.57 2.124 2.748 2.75.178.625-1.401 3.92-.175 4.745 1.227.825 1.168.53 2.22.472 1.052-.059 3.153 3.01 4.204 4.722 1.05 1.712 1.041 3.895.866 5.165v-.008Z"/></g><defs><clipPath id="a"><path fill="#fff" d="M13 18h64v53H13z"/></clipPath></defs></svg>