<svg width="90" height="90" viewBox="0 0 90 90" fill="none" xmlns="http://www.w3.org/2000/svg">
<g clip-path="url(#clip0_3210_1568)">
<circle cx="45" cy="45" r="45" fill="#F5F5F5"/>
<mask id="mask0_3210_1568" style="mask-type:luminance" maskUnits="userSpaceOnUse" x="13" y="24" width="64" height="42">
<path d="M76.5122 24H13V66H76.5122V24Z" fill="white"/>
</mask>
<g mask="url(#mask0_3210_1568)">
<path d="M34.4335 24.2163C38.0458 24.2118 41.5951 25.1709 44.7218 26.9963C41.5927 28.8192 38.9945 31.4413 37.1885 34.599C35.3825 37.7566 34.4323 41.3384 34.4335 44.9842H55.0153C55.0163 49.0932 53.8096 53.1102 51.5479 56.5272C49.2862 59.9441 46.071 62.6075 42.309 64.1804C38.547 65.7533 34.4072 66.1651 30.4133 65.3638C26.4193 64.5624 22.7506 62.5839 19.8711 59.6783C16.9916 56.7729 15.0308 53.071 14.2366 49.0409C13.4424 45.0108 13.8506 40.8335 15.4094 37.0375C16.9682 33.2415 19.6077 29.9972 22.9941 27.715C26.3803 25.4329 30.3614 24.2153 34.4335 24.2163Z" fill="url(#paint0_linear_3210_1568)"/>
<path d="M44.7209 26.9963C47.8516 28.8177 50.4515 31.4394 52.2585 34.5973C54.0656 37.7552 55.0162 41.3378 55.0144 44.9843H34.4326C34.4314 41.3385 35.3816 37.7567 37.1877 34.599C38.9937 31.4413 41.5919 28.8192 44.7209 26.9963Z" fill="url(#paint1_linear_3210_1568)"/>
<path d="M44.7209 26.996C41.5919 28.8189 38.9937 31.441 37.1877 34.5987C35.3816 37.7563 34.4314 41.3381 34.4326 44.9839H55.0144C55.0154 48.631 54.0647 52.2141 52.2577 55.3727C50.4508 58.5313 47.8513 61.1541 44.7209 62.9771C47.8505 64.8002 51.4006 65.7598 55.0143 65.7597C58.6279 65.7596 62.1779 64.7997 65.3072 62.9764C68.4367 61.1532 71.0356 58.5308 72.8426 55.3729C74.6491 52.215 75.6003 48.6329 75.6003 44.9865C75.6003 41.3402 74.6491 37.758 72.8426 34.6002C71.0356 31.4423 68.4367 28.82 65.3072 26.9967C62.1779 25.1734 58.6279 24.2135 55.0143 24.2134C51.4006 24.2133 47.8505 25.1729 44.7209 26.996Z" fill="url(#paint2_linear_3210_1568)"/>
<path style="mix-blend-mode:multiply" opacity="0.3" d="M55.0144 44.9843H34.4326L44.7104 62.9827C47.8447 61.1618 50.4476 58.539 52.2566 55.379C54.0657 52.2191 55.0169 48.6336 55.0144 44.9843Z" fill="url(#paint3_linear_3210_1568)"/>
<path style="mix-blend-mode:multiply" opacity="0.3" d="M55.0161 45.0157C55.0218 48.6673 54.0732 52.2558 52.266 55.4195C50.4588 58.5831 47.8569 61.21 44.7227 63.0353C47.8482 64.8537 51.3926 65.8109 55.0004 65.8109C58.6083 65.8109 62.1527 64.8537 65.2782 63.0353L55.0161 45.0157Z" fill="url(#paint4_linear_3210_1568)"/>
</g>
</g>
<defs>
<linearGradient id="paint0_linear_3210_1568" x1="33.7121" y1="65.7415" x2="35.1758" y2="24.2278" gradientUnits="userSpaceOnUse">
<stop stop-color="#84FF5B"/>
<stop offset="1" stop-color="#066BFF"/>
</linearGradient>
<linearGradient id="paint1_linear_3210_1568" x1="65.444" y1="60.5932" x2="32.5467" y2="29.3495" gradientUnits="userSpaceOnUse">
<stop stop-color="#FFCF8B"/>
<stop offset="1" stop-color="#FF8B79"/>
</linearGradient>
<linearGradient id="paint2_linear_3210_1568" x1="24.4424" y1="6.02764" x2="80.2833" y2="73.9896" gradientUnits="userSpaceOnUse">
<stop stop-color="#00BAEC"/>
<stop offset="0.06" stop-color="#08B1E5"/>
<stop offset="0.35" stop-color="#2A87C4"/>
<stop offset="0.62" stop-color="#4368AD"/>
<stop offset="0.84" stop-color="#53569E"/>
<stop offset="1" stop-color="#584F99"/>
</linearGradient>
<linearGradient id="paint3_linear_3210_1568" x1="44.7209" y1="79.6148" x2="44.7209" y2="45.5487" gradientUnits="userSpaceOnUse">
<stop offset="0.49" stop-color="white"/>
<stop offset="0.54" stop-color="#F3F3F3"/>
<stop offset="0.62" stop-color="#D1D1D1"/>
<stop offset="0.73" stop-color="#9C9C9C"/>
<stop offset="0.87" stop-color="#515151"/>
<stop offset="1"/>
</linearGradient>
<linearGradient id="paint4_linear_3210_1568" x1="61.2999" y1="72.81" x2="48.9592" y2="52.8797" gradientUnits="userSpaceOnUse">
<stop offset="0.49" stop-color="white"/>
<stop offset="0.54" stop-color="#F3F3F3"/>
<stop offset="0.62" stop-color="#D1D1D1"/>
<stop offset="0.73" stop-color="#9C9C9C"/>
<stop offset="0.87" stop-color="#515151"/>
<stop offset="1"/>
</linearGradient>
<clipPath id="clip0_3210_1568">
<rect width="90" height="90" fill="white"/>
</clipPath>
</defs>
</svg>
