<svg width="90" height="90" fill="none" xmlns="http://www.w3.org/2000/svg"><g clip-path="url(#a)"><circle cx="45" cy="45" r="45" fill="#D9FFED"/><path d="M60.944 23.427a2.091 2.091 0 0 0-1.421-2.422H25.308a2.044 2.044 0 0 0-.29 0c-2.826.137-2.06 2.475-1.397 3.274l17.49 20.865 18.94-20.264s.784-.783.893-1.453Z" fill="url(#b)"/><path d="M75.447 38.718s-3.165-3.77-6.543-7.763c-3.67-4.343-7.59-8.953-7.96-9.272a2.423 2.423 0 0 0-1.211-.666h-.243a2.087 2.087 0 0 1 1.454 2.41c-.11.67-.889 1.453-.889 1.453L41.112 45.144l-7.67 8.19-4.722 4.845a2.39 2.39 0 0 0-.307 3.362l11.662 13.935a2.38 2.38 0 0 0 3.363.307l31.695-33.694a2.39 2.39 0 0 0 .315-3.37Z" fill="url(#c)"/></g><defs><linearGradient id="b" x1="41.979" y1="44.676" x2="41.979" y2="21.094" gradientUnits="userSpaceOnUse"><stop stop-color="#09738C"/><stop offset="1" stop-color="#009CA3"/></linearGradient><linearGradient id="c" x1="25.494" y1="48.672" x2="74.563" y2="48.672" gradientUnits="userSpaceOnUse"><stop stop-color="#A8E4B6"/><stop offset="1" stop-color="#009CA3"/></linearGradient><clipPath id="a"><path fill="#fff" d="M0 0h90v90H0z"/></clipPath></defs></svg>