<svg xmlns="http://www.w3.org/2000/svg" width="90" height="90" fill="none"><circle cx="45" cy="45" r="45" fill="#11ADD1"/><path fill="#065162" d="M35.078 44.505v-1.473c.022-1.154.715-1.9 1.857-1.984.296-.026.594-.026.89 0 .222.023.295-.032.287-.26-.014-.345 0-.692 0-1.037 0-.206.067-.276.268-.27.371.013.743.013 1.114 0 .186 0 .249.07.243.252-.01.357 0 .715 0 1.072 0 .213.064.262.27.243a3.243 3.243 0 0 1 1.654.188c.63.278 1.022.755 1.078 1.443.09 1.193.09 2.39 0 3.583-.064.932-.691 1.549-1.6 1.698-.367.072-.744.08-1.114.02-.248-.049-.304.046-.293.276.015.345 0 .692 0 1.039 0 .175-.032.267-.234.262a18.158 18.158 0 0 0-1.155 0c-.186 0-.25-.07-.242-.257.011-.345 0-.692 0-1.037.01-.234-.057-.315-.3-.279a2.971 2.971 0 0 1-1.59-.164 1.713 1.713 0 0 1-.816-.632 1.755 1.755 0 0 1-.313-.992c-.026-.565 0-1.116 0-1.674l-.004-.017Zm4.643.026v1.94c0 .19.054.255.238.272.783.078 1.194-.286 1.195-1.082v-2.276c0-.811-.38-1.16-1.175-1.106-.186.014-.266.07-.262.278.022.658.013 1.316.013 1.974h-.01Zm-1.623 0c0-.645-.011-1.29 0-1.935 0-.241-.088-.301-.303-.31-.756-.037-1.114.306-1.114 1.083v2.303c0 .768.371 1.115 1.127 1.083.225-.01.303-.087.297-.321-.007-.641.002-1.275.002-1.91l-.01.007Z"/><path fill="#fff" d="M27 44.697c-.255.6-.52 1.196-.758 1.803a.442.442 0 0 1-.176.263.43.43 0 0 1-.305.075c-.722-.034-.548.096-.832-.553-.236-.537-.457-1.082-.683-1.624-.114.01-.082.09-.078.15.06.942 0 1.874.031 2.81 0 .233-.072.318-.304.306a13.953 13.953 0 0 0-1.089 0c-.185 0-.276-.054-.276-.265V41.37c0-.205.072-.277.269-.273.371.008.743.008 1.114 0a.344.344 0 0 1 .232.059.353.353 0 0 1 .14.197c.393.957.804 1.905 1.209 2.858.03.07.035.175.12.188.12.011.115-.117.145-.188.398-.932.797-1.862 1.18-2.797a.422.422 0 0 1 .174-.258.41.41 0 0 1 .3-.065c.352.021.705.012 1.056 0 .185 0 .248.07.248.257v6.325c0 .188-.06.258-.248.253a13.119 13.119 0 0 0-1.089 0c-.245.013-.325-.066-.319-.32.018-.925.018-1.851.024-2.777a1.033 1.033 0 0 0-.017-.13L27 44.697Z"/><path fill="#065162" d="M78.996 44.51v2.279c0 .246-.081.33-.323.331-.743.01-.743.017-.743.783v2.31c0 1.075-.7 1.782-1.755 1.797-.35 0-.703-.01-1.054 0-.208 0-.305-.049-.298-.277.013-.377.012-.754 0-1.131 0-.189.073-.25.253-.244.297.012.596-.01.891 0 .296.012.36-.071.357-.354-.013-1.305 0-2.612-.013-3.917 0-.326.091-.423.408-.413.712.023.712 0 .712-.713v-1.373c0-.188-.052-.275-.242-.254h-.066c-.808-.016-.808-.016-.808-.823 0-1.161-.01-2.321 0-3.48 0-.288-.065-.412-.372-.387-.306.024-.594 0-.891 0-.154 0-.249-.027-.243-.22.01-.399 0-.803 0-1.204 0-.16.066-.217.219-.215.438 0 .882-.02 1.318.019.96.079 1.558.754 1.568 1.729 0 .943.009 1.886 0 2.814 0 .25.07.324.315.322.743 0 .743 0 .743.768l.024 1.853ZM45.558 44.937c.67-1.183 1.333-2.335 1.98-3.499a.476.476 0 0 1 .51-.307c.34.018.682.018 1.023 0 .177 0 .253.041.25.241v6.293c0 .189-.064.253-.25.247a14.005 14.005 0 0 0-1.088 0c-.24.012-.3-.082-.293-.31.024-1.115-.034-2.232.038-3.346 0-.063-.005-.126-.014-.189-.104-.017-.121.057-.153.113-.631 1.149-1.27 2.294-1.892 3.448a.454.454 0 0 1-.494.281 10.784 10.784 0 0 0-.99 0c-.186 0-.278-.05-.277-.262v-6.26c0-.217.088-.264.277-.258.351.01.704.017 1.055 0 .243-.013.293.083.29.31-.013 1.06-.013 2.119-.013 3.179-.002.092-.041.194.04.319ZM12 44.516v-5.69c0-1.056.602-1.721 1.638-1.793.416-.028.834 0 1.252-.015.131 0 .211.038.211.188v1.273c0 .159-.085.18-.21.18h-1.023c-.186 0-.265.073-.256.256V49.921c0 .437 0 .437.43.437h.825c.167 0 .24.044.236.225-.01.401 0 .803 0 1.205 0 .113 0 .234-.165.224-.557-.028-1.114.066-1.671-.071a1.605 1.605 0 0 1-.912-.573A1.65 1.65 0 0 1 12 50.341v-5.825ZM55.729 44.544v3.044c0 .25-.063.338-.314.322a9.29 9.29 0 0 0-1.023 0c-.216 0-.29-.07-.288-.288.01-.737 0-1.473.01-2.21 0-.247-.071-.336-.318-.328-.474.015-.947.013-1.42 0-.215 0-.287.066-.285.286.01.755 0 1.496.01 2.243 0 .237-.073.309-.302.297-.35-.016-.704-.01-1.055 0-.185 0-.276-.047-.276-.26v-6.259c0-.188.044-.266.237-.26.387.01.771.011 1.156 0 .195 0 .24.074.24.256-.01.693 0 1.383-.01 2.075 0 .22.04.322.286.313a20.63 20.63 0 0 1 1.45 0c.242 0 .292-.083.286-.311-.015-.68 0-1.36-.01-2.04 0-.216.055-.304.278-.295.35.015.703.017 1.054 0 .236-.011.296.076.294.306-.006 1.033 0 2.07 0 3.11ZM67.805 44.52v3.08c0 .226-.055.322-.297.309a9.207 9.207 0 0 0-1.021 0c-.245.015-.295-.089-.292-.312.01-.724 0-1.45.01-2.174 0-.268-.076-.35-.337-.341-.46.019-.928.017-1.385 0-.241 0-.327.062-.323.319.017.735 0 1.472.011 2.208 0 .237-.069.313-.299.3a13.111 13.111 0 0 0-1.056 0c-.196 0-.274-.053-.274-.264.008-2.086.008-4.173 0-6.26 0-.188.056-.26.244-.256.371.01.743.013 1.114 0 .202 0 .266.062.262.268-.011.692 0 1.384 0 2.074 0 .236.065.311.295.304.494-.015.99-.011 1.486 0 .2 0 .264-.066.26-.27-.011-.692 0-1.384 0-2.074 0-.243.076-.311.302-.3.319.019.638.019.957 0 .27-.019.36.06.355.349-.02 1.005-.011 2.023-.011 3.04ZM61.398 45.267c0 .78-.009 1.561 0 2.342 0 .235-.07.32-.3.3a3.26 3.26 0 0 0-.557 0c-.21.013-.372-.03-.415-.272-.042-.241-.156-.217-.313-.077-.49.43-1.07.496-1.672.377-.743-.145-1.263-.754-1.38-1.601v-.034c-.21-1.718.557-2.608 2.273-2.61.055.01.11.01.164 0 .204-.075.574.217.592-.268.03-.673-.161-.98-.64-1.003-.501-.024-1 .062-1.466.253-.198.08-.297.06-.371-.153a6.206 6.206 0 0 0-.3-.741c-.077-.163-.044-.247.11-.313.93-.396 1.878-.566 2.864-.334.866.211 1.35.86 1.397 1.765v2.376l.014-.007Zm-1.61.35v-.133c0-.734-.033-.755-.76-.651-.454.072-.658.287-.703.743-.016.191.007.384.067.566.12.401.397.546.888.467.421-.068.508-.188.508-.652v-.34Z"/><path fill="#fff" d="M29.845 44.463v-1.37c.015-1.11.542-1.79 1.608-2.01a4.758 4.758 0 0 1 2.414.152c.203.064.258.162.221.365-.056.295-.093.595-.126.892-.019.166-.073.21-.234.148a3.319 3.319 0 0 0-1.226-.227c-.672.012-.991.332-.995 1.01v2.14c0 .712.334 1.044 1.038 1.04.418.01.835-.053 1.231-.188.171-.064.268-.043.288.168.03.311.072.62.132.926.028.15 0 .24-.145.277-1.025.264-2.054.404-3.072-.011-.778-.317-1.088-.968-1.123-1.773-.022-.511 0-1.024 0-1.537l-.011-.002ZM17.272 44.45c0-.49-.022-.983 0-1.47.06-1.085.63-1.738 1.672-1.913a4.884 4.884 0 0 1 2.345.173c.186.06.25.132.208.332-.06.295-.102.594-.128.894-.019.208-.085.23-.271.162a2.616 2.616 0 0 0-1.517-.167.771.771 0 0 0-.496.283.794.794 0 0 0-.171.55 74.644 74.644 0 0 0 0 2.408c0 .53.32.847.841.892.473.044.95-.014 1.399-.17.245-.086.308 0 .326.227.025.288.065.576.121.86a.216.216 0 0 1-.092.26.208.208 0 0 1-.094.028c-.973.242-1.953.364-2.923.025a1.722 1.722 0 0 1-.866-.619 1.767 1.767 0 0 1-.346-1.016c-.041-.577 0-1.158 0-1.739h-.008Z"/><path fill="#065162" d="M68.953 44.463v-1.339c0-1.197.633-1.921 1.813-2.063a5.076 5.076 0 0 1 2.152.189c.186.06.273.141.23.354a6.069 6.069 0 0 0-.115.794c-.015.234-.094.289-.31.202a2.902 2.902 0 0 0-1.26-.189c-.558.03-.885.353-.896.911-.015.77-.017 1.54 0 2.309.015.622.371.963.973.993.451.024.902-.037 1.332-.179.139-.045.23-.062.252.127.037.32.084.64.134.96.02.132-.011.213-.147.247-.993.256-1.994.377-2.982 0-.843-.32-1.15-1.019-1.174-1.886-.013-.472-.002-.956-.002-1.43Z"/></svg>