<svg width="90" height="90" viewBox="0 0 90 90" fill="none" xmlns="http://www.w3.org/2000/svg">
<g clip-path="url(#clip0_3210_1702)">
<circle cx="45" cy="45" r="45" fill="#E50004"/>
<path d="M57.0257 28.6719C57.2629 33.4178 56.3667 42.51 53.0719 42.51C49.4477 42.51 49.5652 38.7568 50.4361 36.5794C51.2575 34.526 54.3898 25.7066 51.4245 23.7298C50.1986 22.9125 46.8119 23.7298 44.1761 26.0361C39.7613 29.899 36.6166 38.7933 36.2686 40.5331C35.2802 45.4752 35.9392 48.1111 38.2455 50.0879C43.0508 54.2068 47.4581 52.4377 50.7656 53.3827C55.3783 54.7006 56.0357 58.3397 55.7076 61.9491C55.3781 65.5733 51.5111 69.1761 46.153 70.5155C40.8811 71.8334 33.3032 70.186 29.6792 68.8681C25.1706 67.2286 24.0781 64.5849 25.7255 63.5965C27.3728 62.6081 32.2264 64.5616 38.5751 66.2323C44.8349 67.8797 49.9985 65.186 51.0951 63.267C52.413 60.9606 51.1278 57.9976 46.153 57.6659C41.2108 57.3364 32.9739 57.0069 30.3381 49.7584C28.0946 43.5889 31.3265 32.9552 33.9623 29.0015C37.5865 23.5651 43.5171 18.1287 50.7656 19.1172C55.0095 19.6959 56.6962 22.0824 57.0257 28.6719Z" fill="white" stroke="white" stroke-width="1.31791" stroke-linecap="round"/>
</g>
<defs>
<clipPath id="clip0_3210_1702">
<rect width="90" height="90" fill="white"/>
</clipPath>
</defs>
</svg>
