<svg width="90" height="90" viewBox="0 0 90 90" fill="none" xmlns="http://www.w3.org/2000/svg">
<g clip-path="url(#clip0_3210_1765)">
<circle cx="45" cy="45" r="45" fill="#F5F5F5"/>
<path d="M40.5147 16.2115C35.6584 16.9508 31.7418 18.3628 27.8657 20.7712C20.8482 25.1313 16.0911 31.8222 14.3852 39.7313C13.8337 42.2889 13.8827 47.8935 14.479 50.4764C15.0688 53.0307 16.1469 55.8859 17.3569 58.0982C18.3959 59.9979 20.2233 62.5837 20.5265 62.5837C20.6237 62.5837 20.9809 62.1905 21.3205 61.7099C23.0555 59.2543 23.2771 56.919 22.0673 53.8437C20.0607 48.7428 19.7031 44.1223 20.9414 39.2924C22.5628 32.9668 27.2503 27.4382 33.5476 24.4241C37.3276 22.6149 40.3742 21.9452 44.8245 21.9452C48.1392 21.9452 50.4382 22.2889 53.1533 23.1907C56.5069 24.3043 57.5519 24.4864 59.1304 24.2326C60.5201 24.0093 62.3895 23.2437 63.2892 22.5295L63.7904 22.1318L63.1881 21.6547C62.2567 20.9164 59.4585 19.3665 57.6224 18.5716C55.4869 17.6471 52.6078 16.7859 50.3345 16.3918C47.8307 15.9576 42.7912 15.865 40.5147 16.2115Z" fill="#0F3856"/>
<path fill-rule="evenodd" clip-rule="evenodd" d="M43.9096 34.4866C43.539 34.62 43.0667 32.7404 43.1981 31.6543C43.2094 31.5601 44.1242 31.5317 45.2755 31.5897C47.3649 31.6951 49.7174 32.2621 51.2339 33.0262L51.9239 33.374L49.4276 33.4668C47.1476 33.5519 45.8321 33.7949 43.9096 34.4866ZM37.5762 34.6222C37.8991 33.5093 38.4657 32.9328 39.6611 32.5023C40.2378 32.2944 40.7571 32.1198 40.8151 32.1144C40.8729 32.109 41.0289 32.7186 41.1618 33.4687C41.2944 34.2189 41.4564 35.0075 41.5216 35.2209C41.6176 35.5355 41.4268 35.7419 40.5162 36.3088C39.8981 36.6935 39.0318 37.3137 38.5908 37.6873C38.1498 38.0606 37.74 38.3202 37.68 38.264C37.4403 38.0391 37.3637 35.3555 37.5762 34.6222ZM32.96 38.0016C33.0945 37.5425 33.5813 36.8101 34.1395 36.2276L35.0903 35.2358L35.245 36.7276C35.3301 37.5481 35.5251 38.6271 35.6784 39.1255L35.9572 40.0314L35.0221 41.2088C34.5076 41.8565 33.8953 42.6339 33.6614 42.9369L33.2361 43.4873L32.982 42.3584C32.6671 40.9592 32.6574 39.0356 32.96 38.0016ZM49.4796 42.1703L52.0122 39.7749C53.7528 38.1285 54.6097 37.44 54.7521 37.5734C54.8699 37.6838 54.9592 38.6771 54.9592 39.8748C54.9592 41.5696 54.8647 42.2691 54.4761 43.4475C54.2104 44.2533 53.9117 44.9597 53.8122 45.0175C53.5846 45.1494 52.3131 44.3749 50.714 43.131L49.4796 42.1703ZM56.3802 44.6245C56.9463 42.9533 57.3376 40.2302 57.1789 39.0659L57.0635 38.2193L57.5462 39.0681C58.4883 40.7242 58.9026 42.2519 59.0202 44.5003L59.1319 46.6427L58.1492 46.5129C57.609 46.4416 56.884 46.2999 56.5384 46.198L55.9098 46.0128L56.3802 44.6245ZM30.8033 47.1337C30.5497 45.7682 30.5014 43.791 30.7092 43.2833C30.8039 43.0515 30.9439 43.2835 31.1825 44.0675C31.3685 44.6798 31.6076 45.3922 31.7134 45.6509C31.8586 46.006 31.7988 46.3962 31.4688 47.2432L31.0319 48.3649L30.8033 47.1337ZM43.9568 47.3176L45.8416 45.5436C46.8781 44.5678 47.773 43.7709 47.8304 43.7726C47.8878 43.7744 48.6123 44.2881 49.4401 44.9141C50.268 45.5403 51.329 46.2664 51.7982 46.528C52.2674 46.7898 52.6512 47.0624 52.6512 47.1339C52.6512 47.2969 50.1833 50.1985 49.7734 50.5175C49.5273 50.7089 49.2934 50.6669 48.5026 50.2889C47.4033 49.7637 45.6102 48.6358 44.6224 47.8483L43.9568 47.3176ZM52.5313 50.8583C52.9222 50.426 53.5836 49.587 54.0005 48.9938C54.4915 48.2953 54.8645 47.945 55.0596 47.9991C55.9419 48.2443 57.2467 48.4645 57.8408 48.4685C58.4748 48.4728 58.5067 48.5037 58.3781 48.9903C58.0369 50.2808 57.5186 51.0418 56.7423 51.3909C55.8466 51.7939 54.085 51.9628 52.7434 51.7741L51.8202 51.6444L52.5313 50.8583ZM38.962 52.0009L40.627 50.432C41.666 49.4528 42.3716 48.9229 42.5043 49.022C43.8118 50.0007 45.7016 51.2496 46.5745 51.7113L47.657 52.284L46.5917 53.0064C46.0057 53.4037 45.0654 53.9584 44.5022 54.2391L43.4777 54.7495L42.4952 54.2185C41.9546 53.9263 40.9387 53.3079 40.2372 52.844L38.962 52.0009ZM47.0735 55.28C47.4755 55.0471 48.3039 54.493 48.9142 54.0485L50.024 53.2408L51.3878 53.5741C52.1379 53.7574 53.3385 53.9159 54.0562 53.9265L55.3606 53.9455L54.2568 54.8764C53.6496 55.3883 52.8368 55.9119 52.4505 56.0395C51.5388 56.3409 48.3882 56.2945 47.239 55.9623L46.3425 55.7034L47.0735 55.28ZM35.7927 55.09C35.7927 55.0293 36.127 54.6587 36.5359 54.2662C36.9448 53.8737 37.3154 53.5528 37.3599 53.5528C37.4045 53.5528 37.7699 53.7962 38.1721 54.0936C38.5744 54.3911 39.3404 54.8932 39.8744 55.2095L40.8455 55.7848L37.9499 56.593L36.8713 55.8968C36.278 55.5136 35.7927 55.1507 35.7927 55.09ZM41.7364 57.9705C41.4195 57.8448 41.5009 57.7675 42.2381 57.4935C43.399 57.062 43.5568 57.0628 44.9244 57.5038C45.5659 57.7108 46.2577 57.8802 46.461 57.8802C46.6644 57.8802 46.8311 57.9751 46.8311 58.0913C46.8311 58.3326 42.3829 58.227 41.7364 57.9705Z" fill="#0F3856"/>
<path d="M68.659 27.4461C67.2912 29.1285 66.5466 31.4628 66.7655 33.3822C66.8326 33.973 67.2865 35.5147 67.7739 36.8081C68.8749 39.7297 69.3074 42.0403 69.3074 45.0008C69.3074 47.6121 68.9558 49.7949 68.1859 51.962C65.3018 60.0822 57.8383 66.1455 48.9399 67.5976C47.5791 67.8198 46.3346 67.8681 43.9193 67.7933C40.412 67.6842 38.9622 67.4143 35.6546 66.2534C33.4471 65.4789 31.7141 65.2745 30.0646 65.5943C28.776 65.8439 27.0178 66.613 26.0746 67.3395L25.4897 67.79L27.488 69.0372C38.16 75.6973 51.7591 75.6503 62.3834 68.9167C64.8586 67.3478 68.8686 63.5697 70.4932 61.2754C75.7565 53.8433 77.1985 45.2556 74.6129 36.7468C73.6953 33.7275 71.8747 30.2465 69.945 27.8221L69.1578 26.8326L68.659 27.4461Z" fill="#0F3856"/>
<path d="M41.4939 38.0826C40.932 38.4681 39.9942 39.1786 39.4097 39.6612L38.3472 40.5387L39.0785 41.7645C39.8331 43.0293 41.9861 45.839 42.2009 45.839C42.2676 45.839 43.2199 44.9941 44.3175 43.9615L46.3127 42.0839L45.8644 41.5628C45.4937 41.1321 43.8369 39.0673 42.7701 37.7064C42.5355 37.4075 42.4344 37.4373 41.4939 38.0826Z" fill="#0F3856"/>
<path d="M47.8338 35.4222C47.0328 35.5655 44.7397 36.2762 44.5477 36.4411C44.3492 36.6114 45.1935 37.8501 46.6953 39.5909L47.7161 40.7741L50.4253 38.2344C51.9153 36.8374 53.0691 35.6329 52.9889 35.5579C52.8207 35.4 48.5818 35.2886 47.8338 35.4222Z" fill="#0F3856"/>
<path d="M36.4971 42.5995C36.2773 42.881 35.6708 43.7756 35.1496 44.5879L34.2017 46.0648L34.7749 47.1278C35.0902 47.7124 35.7729 48.7313 36.2922 49.3917L37.2362 50.5929L39.0195 48.9287C40.5492 47.5015 40.7677 47.221 40.5558 46.9572C40.4197 46.7883 39.8354 46.0652 39.2573 45.3508C38.6793 44.6363 37.9568 43.6076 37.6519 43.0643C37.3468 42.5214 37.0522 42.0796 36.9969 42.0825C36.9418 42.0856 36.7167 42.3182 36.4971 42.5995Z" fill="#0F3856"/>
<path d="M32.7899 49.7158C32.5646 50.3992 32.3804 51.0991 32.3804 51.2706C32.3804 51.6193 33.7097 53.5529 33.9495 53.5529C34.034 53.5529 34.4958 53.178 34.9755 52.7196L35.8478 51.8863L34.9005 50.7051C34.3794 50.0553 33.8228 49.2873 33.6633 48.9983C33.504 48.7095 33.3343 48.473 33.2865 48.473C33.2386 48.473 33.0151 49.0323 32.7899 49.7158Z" fill="#0F3856"/>
<path d="M40.5147 16.2115C35.6584 16.9508 31.7418 18.3628 27.8657 20.7712C20.8482 25.1313 16.0911 31.8222 14.3852 39.7313C13.8337 42.2889 13.8827 47.8935 14.479 50.4764C15.0688 53.0307 16.1469 55.8859 17.3569 58.0982C18.3959 59.9979 20.2233 62.5837 20.5265 62.5837C20.6237 62.5837 20.9809 62.1905 21.3205 61.7099C23.0555 59.2543 23.2771 56.919 22.0673 53.8437C20.0607 48.7428 19.7031 44.1223 20.9414 39.2924C22.5628 32.9668 27.2503 27.4382 33.5476 24.4241C37.3276 22.6149 40.3742 21.9452 44.8245 21.9452C48.1392 21.9452 50.4382 22.2889 53.1533 23.1907C56.5069 24.3043 57.5519 24.4864 59.1304 24.2326C60.5201 24.0093 62.3895 23.2437 63.2892 22.5295L63.7904 22.1318L63.1881 21.6547C62.2567 20.9164 59.4585 19.3665 57.6224 18.5716C55.4869 17.6471 52.6078 16.7859 50.3345 16.3918C47.8307 15.9576 42.7912 15.865 40.5147 16.2115Z" fill="#2885D1"/>
<path fill-rule="evenodd" clip-rule="evenodd" d="M43.9096 34.4866C43.539 34.62 43.0667 32.7404 43.1981 31.6543C43.2094 31.5601 44.1242 31.5317 45.2755 31.5897C47.3649 31.6951 49.7174 32.2621 51.2339 33.0262L51.9239 33.374L49.4276 33.4668C47.1476 33.5519 45.8321 33.7949 43.9096 34.4866ZM37.5762 34.6222C37.8991 33.5093 38.4657 32.9328 39.6611 32.5023C40.2378 32.2944 40.7571 32.1198 40.8151 32.1144C40.8729 32.109 41.0289 32.7186 41.1618 33.4687C41.2944 34.2189 41.4564 35.0075 41.5216 35.2209C41.6176 35.5355 41.4268 35.7419 40.5162 36.3088C39.8981 36.6935 39.0318 37.3137 38.5908 37.6873C38.1498 38.0606 37.74 38.3202 37.68 38.264C37.4403 38.0391 37.3637 35.3555 37.5762 34.6222ZM32.96 38.0016C33.0945 37.5425 33.5813 36.8101 34.1395 36.2276L35.0903 35.2358L35.245 36.7276C35.3301 37.5481 35.5251 38.6271 35.6784 39.1255L35.9572 40.0314L35.0221 41.2088C34.5076 41.8565 33.8953 42.6339 33.6614 42.9369L33.2361 43.4873L32.982 42.3584C32.6671 40.9592 32.6574 39.0356 32.96 38.0016ZM49.4796 42.1703L52.0122 39.7749C53.7528 38.1285 54.6097 37.44 54.7521 37.5734C54.8699 37.6838 54.9592 38.6771 54.9592 39.8748C54.9592 41.5696 54.8647 42.2691 54.4761 43.4475C54.2104 44.2533 53.9117 44.9597 53.8122 45.0175C53.5846 45.1494 52.3131 44.3749 50.714 43.131L49.4796 42.1703ZM56.3802 44.6245C56.9463 42.9533 57.3376 40.2302 57.1789 39.0659L57.0635 38.2193L57.5462 39.0681C58.4883 40.7242 58.9026 42.2519 59.0202 44.5003L59.1319 46.6427L58.1492 46.5129C57.609 46.4416 56.884 46.2999 56.5384 46.198L55.9098 46.0128L56.3802 44.6245ZM30.8033 47.1337C30.5497 45.7682 30.5014 43.791 30.7092 43.2833C30.8039 43.0515 30.9439 43.2835 31.1825 44.0675C31.3685 44.6798 31.6076 45.3922 31.7134 45.6509C31.8586 46.006 31.7988 46.3962 31.4688 47.2432L31.0319 48.3649L30.8033 47.1337ZM43.9568 47.3176L45.8416 45.5436C46.8781 44.5678 47.773 43.7709 47.8304 43.7726C47.8878 43.7744 48.6123 44.2881 49.4401 44.9141C50.268 45.5403 51.329 46.2664 51.7982 46.528C52.2674 46.7898 52.6512 47.0624 52.6512 47.1339C52.6512 47.2969 50.1833 50.1985 49.7734 50.5175C49.5273 50.7089 49.2934 50.6669 48.5026 50.2889C47.4033 49.7637 45.6102 48.6358 44.6224 47.8483L43.9568 47.3176ZM52.5313 50.8583C52.9222 50.426 53.5836 49.587 54.0005 48.9938C54.4915 48.2953 54.8645 47.945 55.0596 47.9991C55.9419 48.2443 57.2467 48.4645 57.8408 48.4685C58.4748 48.4728 58.5067 48.5037 58.3781 48.9903C58.0369 50.2808 57.5186 51.0418 56.7423 51.3909C55.8466 51.7939 54.085 51.9628 52.7434 51.7741L51.8202 51.6444L52.5313 50.8583ZM38.962 52.0009L40.627 50.432C41.666 49.4528 42.3716 48.9229 42.5043 49.022C43.8118 50.0007 45.7016 51.2496 46.5745 51.7113L47.657 52.284L46.5917 53.0064C46.0057 53.4037 45.0654 53.9584 44.5022 54.2391L43.4777 54.7495L42.4952 54.2185C41.9546 53.9263 40.9387 53.3079 40.2372 52.844L38.962 52.0009ZM47.0735 55.28C47.4755 55.0471 48.3039 54.493 48.9142 54.0485L50.024 53.2408L51.3878 53.5741C52.1379 53.7574 53.3385 53.9159 54.0562 53.9265L55.3606 53.9455L54.2568 54.8764C53.6496 55.3883 52.8368 55.9119 52.4505 56.0395C51.5388 56.3409 48.3882 56.2945 47.239 55.9623L46.3425 55.7034L47.0735 55.28ZM35.7927 55.09C35.7927 55.0293 36.127 54.6587 36.5359 54.2662C36.9448 53.8737 37.3154 53.5528 37.3599 53.5528C37.4045 53.5528 37.7699 53.7962 38.1721 54.0936C38.5744 54.3911 39.3404 54.8932 39.8744 55.2095L40.8455 55.7848L37.9499 56.593L36.8713 55.8968C36.278 55.5136 35.7927 55.1507 35.7927 55.09ZM41.7364 57.9705C41.4195 57.8448 41.5009 57.7675 42.2381 57.4935C43.399 57.062 43.5568 57.0628 44.9244 57.5038C45.5659 57.7108 46.2577 57.8802 46.461 57.8802C46.6644 57.8802 46.8311 57.9751 46.8311 58.0913C46.8311 58.3326 42.3829 58.227 41.7364 57.9705Z" fill="#2885D1"/>
</g>
<defs>
<clipPath id="clip0_3210_1765">
<rect width="90" height="90" fill="white"/>
</clipPath>
</defs>
</svg>
