<svg width="90" height="90" viewBox="0 0 90 90" fill="none" xmlns="http://www.w3.org/2000/svg">
<g clip-path="url(#clip0_3212_2776)">
<circle cx="45" cy="45" r="45" fill="#F5F5F5"/>
<path d="M20.8188 28.5398C20.8188 25.2136 23.5153 22.5171 26.8416 22.5171H60.5688C63.8951 22.5171 66.5916 25.2136 66.5916 28.5398V34.8637C66.5916 38.1899 63.8951 40.8864 60.5688 40.8864H26.8416C23.5153 40.8864 20.8188 38.1899 20.8188 34.8637V28.5398Z" fill="white"/>
<path fill-rule="evenodd" clip-rule="evenodd" d="M60.9474 25.0656H27.0526C24.8798 25.0656 23.1184 26.783 23.1184 28.9016V35.0984C23.1184 37.217 24.8798 38.9344 27.0526 38.9344H60.9474C63.1202 38.9344 64.8816 37.217 64.8816 35.0984V28.9016C64.8816 26.783 63.1202 25.0656 60.9474 25.0656ZM27.0526 23C23.7099 23 21 25.6423 21 28.9016V35.0984C21 38.3577 23.7099 41 27.0526 41H60.9474C64.2901 41 67 38.3577 67 35.0984V28.9016C67 25.6423 64.2901 23 60.9474 23H27.0526Z" fill="#3F3460"/>
<path fill-rule="evenodd" clip-rule="evenodd" d="M26.2384 26.4318C25.2405 26.4318 24.4316 27.2407 24.4316 28.2386V35.3283C19.2306 39.1032 16 44.381 16 50.2216C16 61.6972 28.4712 70.9999 43.8551 70.9999C59.2391 70.9999 71.7102 61.6972 71.7102 50.2216C71.7102 44.4944 68.6038 39.3083 63.5793 35.5498V28.2386C63.5793 27.2407 62.7704 26.4318 61.7725 26.4318H26.2384Z" fill="#D62124"/>
<path fill-rule="evenodd" clip-rule="evenodd" d="M26.5395 36.403L25.6698 37.0342C20.8737 40.5153 18.108 45.2138 18.108 50.2216C18.108 55.1422 20.7769 59.7618 25.419 63.2245C30.0612 66.6874 36.5725 68.892 43.8551 68.892C51.1378 68.892 57.649 66.6874 62.2913 63.2245C66.9333 59.7618 69.6023 55.1422 69.6023 50.2216C69.6023 45.31 66.9431 40.6985 62.3167 37.2378L61.4713 36.6054V28.5397H26.5395V36.403ZM24.4316 28.2386C24.4316 27.2407 25.2405 26.4318 26.2384 26.4318H61.7725C62.7704 26.4318 63.5793 27.2407 63.5793 28.2386V35.5498C68.6038 39.3083 71.7102 44.4944 71.7102 50.2216C71.7102 61.6972 59.2391 70.9999 43.8551 70.9999C28.4712 70.9999 16 61.6972 16 50.2216C16 44.381 19.2306 39.1032 24.4316 35.3283V28.2386Z" fill="#3F3460"/>
<path d="M44.0055 21.1619C44.0055 22.9082 42.5899 24.3239 40.8436 24.3239C39.0973 24.3239 37.6816 22.9082 37.6816 21.1619C37.6816 19.4156 39.0973 18 40.8436 18C42.5899 18 44.0055 19.4156 44.0055 21.1619Z" fill="white"/>
<path fill-rule="evenodd" clip-rule="evenodd" d="M40.8436 22.2159C41.4257 22.2159 41.8975 21.744 41.8975 21.1619C41.8975 20.5798 41.4257 20.108 40.8436 20.108C40.2615 20.108 39.7896 20.5798 39.7896 21.1619C39.7896 21.744 40.2615 22.2159 40.8436 22.2159ZM40.8436 24.3239C42.5899 24.3239 44.0055 22.9082 44.0055 21.1619C44.0055 19.4156 42.5899 18 40.8436 18C39.0973 18 37.6816 19.4156 37.6816 21.1619C37.6816 22.9082 39.0973 24.3239 40.8436 24.3239Z" fill="#3F3460"/>
<path d="M49.7272 21.1619C49.7272 22.9082 48.3115 24.3239 46.5653 24.3239C44.819 24.3239 43.4033 22.9082 43.4033 21.1619C43.4033 19.4156 44.819 18 46.5653 18C48.3115 18 49.7272 19.4156 49.7272 21.1619Z" fill="white"/>
<path fill-rule="evenodd" clip-rule="evenodd" d="M46.5653 22.2159C47.1473 22.2159 47.6192 21.744 47.6192 21.1619C47.6192 20.5798 47.1473 20.108 46.5653 20.108C45.9832 20.108 45.5113 20.5798 45.5113 21.1619C45.5113 21.744 45.9832 22.2159 46.5653 22.2159ZM46.5653 24.3239C48.3115 24.3239 49.7272 22.9082 49.7272 21.1619C49.7272 19.4156 48.3115 18 46.5653 18C44.819 18 43.4033 19.4156 43.4033 21.1619C43.4033 22.9082 44.819 24.3239 46.5653 24.3239Z" fill="#3F3460"/>
<path d="M73.517 57.5994C73.517 65.0003 67.5173 71 60.1164 71C52.7155 71 46.7158 65.0003 46.7158 57.5994C46.7158 50.1985 52.7155 44.1989 60.1164 44.1989C67.5173 44.1989 73.517 50.1985 73.517 57.5994Z" fill="white"/>
<path fill-rule="evenodd" clip-rule="evenodd" d="M60.1164 68.892C66.3531 68.892 71.409 63.8362 71.409 57.5994C71.409 51.3627 66.3531 46.3068 60.1164 46.3068C53.8797 46.3068 48.8238 51.3627 48.8238 57.5994C48.8238 63.8362 53.8797 68.892 60.1164 68.892ZM60.1164 71C67.5173 71 73.517 65.0003 73.517 57.5994C73.517 50.1985 67.5173 44.1989 60.1164 44.1989C52.7155 44.1989 46.7158 50.1985 46.7158 57.5994C46.7158 65.0003 52.7155 71 60.1164 71Z" fill="#3F3460"/>
<path d="M61.2837 59.2696H54.6108V57.858H61.2837C61.8997 57.858 62.4087 57.7511 62.8108 57.5372C63.2129 57.319 63.5123 57.0239 63.7091 56.6517C63.9059 56.2753 64.0042 55.8476 64.0042 55.3685C64.0042 54.8894 63.9059 54.4638 63.7091 54.0917C63.5123 53.7152 63.2129 53.4201 62.8108 53.2062C62.4087 52.9881 61.8997 52.879 61.2837 52.879H58.2809V64.6079H56.6897V51.4674H61.2837C62.259 51.4674 63.0632 51.6449 63.6963 52C64.3293 52.355 64.7999 52.8277 65.1078 53.4179C65.4158 54.0082 65.5698 54.6584 65.5698 55.3685C65.5698 56.0786 65.4158 56.7287 65.1078 57.319C64.7999 57.9093 64.3293 58.382 63.6963 58.737C63.0632 59.0921 62.259 59.2696 61.2837 59.2696ZM61.1811 60.5015V61.9131H54.6108V60.5015H61.1811Z" fill="#D62124"/>
</g>
<defs>
<clipPath id="clip0_3212_2776">
<rect width="90" height="90" fill="white"/>
</clipPath>
</defs>
</svg>
