<svg xmlns="http://www.w3.org/2000/svg" width="90" height="90" fill="none"><circle cx="45" cy="45" r="45" fill="#B0C14C"/><path fill="#1E2733" d="M50.024 11c.112.795-.32 1.277-.68 1.807-2.749 4.15-5.392 8.367-7.61 12.977a32.438 32.438 0 0 0-2.418 6.385 9.913 9.913 0 0 0 .128 5.108c1.038 3.764 2.787 7.053 4.59 10.293 1.648 2.956 3.436 5.785 5.297 8.54.186.266.352.545.495.836.121.256.377.559.157.837-.176.23-.489.111-.731.025a4.018 4.018 0 0 1-1.271-.884c-5.108-4.581-9.578-9.938-13.01-16.553-.054-.105-.105-.217-.162-.32-2.235-3.984-1.862-7.853.252-11.722C38.844 21.4 43.51 15.597 49.21 11.07a.387.387 0 0 0 .048-.07h.766Z"/><path fill="#fff" d="M40.373 79c.428-1.504 1.42-2.513 2.184-3.72 2.854-4.517 5.587-9.12 7.71-14.247 1.471-3.557 1.503-6.954.032-10.535-2.206-5.367-5.067-10.165-8.087-14.846-.54-.836-1.073-1.677-1.596-2.522-.121-.194-.278-.43-.128-.68.118-.188.32-.118.508-.111.517.019.9.418 1.296.747 3.253 2.7 6.091 6.008 8.747 9.536 1.964 2.614 3.78 5.37 5.108 8.562.128.32.233.638.364.935 1.453 3.41.52 6.459-.958 9.415-2.324 4.687-5.363 8.62-8.62 12.3A62.962 62.962 0 0 1 41.597 79h-1.223Z"/></svg>