<svg width="90" height="90" viewBox="0 0 90 90" fill="none" xmlns="http://www.w3.org/2000/svg">
<g clip-path="url(#clip0_3212_1906)">
<circle cx="45" cy="45" r="45" fill="#E11A3A"/>
<path fill-rule="evenodd" clip-rule="evenodd" d="M19.1094 26L47.8013 26.2449C53.3747 26.2319 60.9906 26.9467 61.3388 32.2727L47.7984 35.2927C44.9299 35.9323 43.682 35.8473 40.9113 35.1247L31.8272 32.7556C25.2285 31.0343 20.0183 28.5796 19.1094 26ZM78.1065 37.2301C75.0255 32.6422 64.1318 34.1401 55.6955 36.235L12 46.1638C19.728 52.6388 35.3101 52.2825 50.2649 48.7072C51.1094 48.5066 51.4128 49.2681 50.8849 49.7117L38.6534 59.9976C33.4327 64.3879 30.2502 69.2803 30.5455 72L56.7788 59.426C62.8565 56.513 69.2506 49.9795 64.8442 44.1246C69.9998 42.0708 75.0941 39.5179 78.1065 37.2301Z" fill="#FEFEFE"/>
</g>
<defs>
<clipPath id="clip0_3212_1906">
<rect width="90" height="90" fill="white"/>
</clipPath>
</defs>
</svg>
