<svg width="90" height="90" viewBox="0 0 90 90" fill="none" xmlns="http://www.w3.org/2000/svg">
<g clip-path="url(#clip0_3209_418)">
<circle cx="45" cy="45" r="45" fill="#F5F5F5"/>
<path d="M18 44.8125L17.0625 42.625H17.6875L19.5625 44.1875L21.75 45.75L23.9375 46.6875H25.8125L27.0625 46.0625L28 45.4375L28.9375 43.875L29.5625 42.3125L30.1875 40.4375L30.5 39.5L31.125 40.75L32.375 42L33 42.9375L34.5625 43.5625L36.4375 43.875H38L39.5625 43.25L40.5 42.625L41.4375 41.375L42.375 39.1875L43.3125 36.6875L43.625 34.8125L43.9375 33.5625L44.5625 32.9375L44.875 32.625L45.5 33.875L46.125 36.375L47.0625 39.1875L48 41.0625L49.25 42.625L51.125 43.5625L53 43.875L54.5625 43.5625L56.125 42.9375L58 41.0625L58.9375 39.8125L59.5625 42L60.8125 44.5L61.75 45.75L63.625 46.6875H65.1875L67.6875 45.75L71.125 43.25L72.6875 42L72.0625 43.5625L70.1875 47.3125L68.625 51.375L67.6875 53.875L67.0625 56.6875V58.25V61.6875L66.75 62H28H22.375V61.0625L22.6875 58.875L22.375 57.3125L22.0625 54.8125L21.125 52.3125L18 44.8125Z" fill="#284BF9"/>
<path fill-rule="evenodd" clip-rule="evenodd" d="M44.5961 32.958C44.9331 33.338 45.3028 33.9226 45.5421 34.8799C45.6312 35.2361 45.7142 35.6087 45.7999 35.9934C46.3052 38.2612 46.9036 40.9467 49.3772 43.1454C50.1973 43.8743 51.4786 44.1744 52.7021 44.1951C53.9281 44.2158 55.1739 43.9573 55.9553 43.4885C57.2844 42.691 58.2408 41.3299 58.8338 40.2853C58.8601 40.4004 58.8899 40.5263 58.924 40.6618C59.0642 41.2186 59.2768 41.9364 59.6188 42.7345C60.0917 43.838 60.6541 44.8897 61.3913 45.6678C62.1355 46.4534 63.0642 46.9657 64.2496 46.9657C65.906 46.9657 67.4745 46.1706 68.9041 45.1988C69.6217 44.7109 70.314 44.1715 70.9717 43.6541C71.0251 43.6122 71.0782 43.5703 71.1311 43.5287C71.4186 43.3023 71.6989 43.0817 71.9724 42.8718C71.1187 44.7158 70.016 47.1877 69.0468 49.5505C68.4689 50.9594 67.9373 52.3322 67.5341 53.5114C67.1335 54.683 66.8512 55.6869 66.7852 56.3472C66.5329 58.8697 66.6794 61.4335 66.7859 62.2856L67.3382 62.2166C67.2364 61.402 67.0912 58.8801 67.339 56.4026C67.398 55.8129 67.66 54.8636 68.0608 53.6915C68.459 52.5269 68.986 51.1654 69.5617 49.7617C70.7131 46.9548 72.0548 43.9905 72.9387 42.1187L73.3838 41.1762L72.5282 41.7714C71.971 42.159 71.3878 42.6182 70.7894 43.0893C70.7356 43.1317 70.6816 43.1742 70.6276 43.2167C69.9694 43.7345 69.2909 44.2628 68.5912 44.7385C67.1861 45.6937 65.7337 46.4091 64.2496 46.4091C63.2475 46.4091 62.4574 45.9839 61.7954 45.2851C61.1263 44.5788 60.5949 43.5993 60.1304 42.5153C59.803 41.7514 59.5989 41.063 59.4637 40.5259C59.3961 40.2571 59.3457 40.0265 59.3053 39.841L59.3005 39.8192C59.2639 39.6515 59.2318 39.5041 59.2011 39.4119L58.9886 38.7745L58.6882 39.3754C58.1707 40.4104 57.1585 42.1175 55.6689 43.0113C55.0072 43.4083 53.8758 43.6582 52.7115 43.6386C51.5446 43.6189 50.4224 43.3298 49.747 42.7294C47.418 40.6592 46.8586 38.1645 46.3503 35.8977C46.2623 35.5055 46.1759 35.1201 46.0821 34.7449C45.8214 33.7021 45.4098 33.0368 45.0125 32.5887C44.815 32.366 44.6245 32.2009 44.4663 32.0733C44.4046 32.0236 44.3528 31.9831 44.3086 31.9486C44.2295 31.8868 44.1751 31.8444 44.1339 31.8031L43.7403 32.1967C43.8062 32.2625 43.9039 32.339 44.002 32.4158C44.0409 32.4462 44.0798 32.4766 44.1169 32.5065C44.2614 32.6231 44.4264 32.7666 44.5961 32.958Z" fill="#284BF9"/>
<path fill-rule="evenodd" clip-rule="evenodd" d="M44.8407 32.958C44.5037 33.338 44.134 33.9226 43.8947 34.8799C43.8056 35.2361 43.7226 35.6087 43.6369 35.9934C43.1315 38.2612 42.5331 40.9467 40.0596 43.1454C39.2395 43.8743 37.9582 44.1744 36.7347 44.1951C35.5087 44.2158 34.2629 43.9573 33.4815 43.4885C32.1524 42.691 31.196 41.3299 30.603 40.2853C30.5767 40.4004 30.5469 40.5263 30.5128 40.6618C30.3726 41.2186 30.16 41.9364 29.818 42.7345C29.345 43.838 28.7826 44.8897 28.0455 45.6678C27.3012 46.4534 26.3726 46.9657 25.1872 46.9657C23.5307 46.9657 21.9622 46.1706 20.5327 45.1988C19.8151 44.7109 19.1228 44.1715 18.4651 43.6541C18.4117 43.6122 18.3586 43.5703 18.3057 43.5287C18.0182 43.3023 17.7379 43.0817 17.4643 42.8718C18.3181 44.7158 19.4208 47.1877 20.39 49.5505C20.9679 50.9594 21.4994 52.3322 21.9026 53.5114C22.3033 54.683 22.5856 55.6869 22.6516 56.3472C22.8776 58.6069 22.7835 60.698 22.6849 61.7216H67.0622V62.2782H22.0594L22.0985 61.9654C22.2004 61.1504 22.3455 58.8797 22.0978 56.4026C22.0388 55.8129 21.7768 54.8636 21.376 53.6915C20.9778 52.5269 20.4508 51.1654 19.875 49.7617C18.7237 46.9548 17.382 43.9905 16.498 42.1187L16.053 41.1762L16.9086 41.7714C17.4658 42.159 18.0489 42.6182 18.6474 43.0893C18.7012 43.1317 18.7551 43.1742 18.8092 43.2167C19.4674 43.7345 20.1459 44.2628 20.8456 44.7385C22.2507 45.6937 23.703 46.4091 25.1872 46.4091C26.1893 46.4091 26.9794 45.9839 27.6414 45.2851C28.3105 44.5788 28.8418 43.5993 29.3064 42.5153C29.6338 41.7514 29.8378 41.063 29.973 40.5259C30.0407 40.2571 30.091 40.0265 30.1315 39.841L30.1363 39.8192C30.1728 39.6515 30.205 39.5041 30.2357 39.4119L30.4481 38.7745L30.7486 39.3754C31.2661 40.4104 32.2782 42.1175 33.7679 43.0113C34.4295 43.4083 35.561 43.6582 36.7253 43.6386C37.8922 43.6189 39.0144 43.3298 39.6898 42.7294C42.0187 40.6592 42.5782 38.1645 43.0865 35.8977C43.1745 35.5055 43.2609 35.1201 43.3547 34.7449C43.6154 33.7021 44.0269 33.0368 44.4243 32.5887C44.6218 32.366 44.8123 32.2009 44.9705 32.0733C45.0321 32.0236 45.084 31.9831 45.1282 31.9486C45.2073 31.8868 45.2616 31.8444 45.3029 31.8031L45.6965 32.1967C45.6306 32.2625 45.5329 32.339 45.4347 32.4158C45.3959 32.4462 45.357 32.4766 45.3199 32.5065C45.1754 32.6231 45.0104 32.7666 44.8407 32.958Z" fill="#284BF9"/>
<path d="M18.625 39.8125C18.625 41.3658 17.3658 42.625 15.8125 42.625C14.2592 42.625 13 41.3658 13 39.8125C13 38.2592 14.2592 37 15.8125 37C17.3658 37 18.625 38.2592 18.625 39.8125Z" fill="#284BF9"/>
<path d="M76.7495 39.8125C76.7495 41.3658 75.4903 42.625 73.937 42.625C72.3837 42.625 71.1245 41.3658 71.1245 39.8125C71.1245 38.2592 72.3837 37 73.937 37C75.4903 37 76.7495 38.2592 76.7495 39.8125Z" fill="#284BF9"/>
<path d="M61.125 37.9375C61.125 39.1456 60.1456 40.125 58.9375 40.125C57.7294 40.125 56.75 39.1456 56.75 37.9375C56.75 36.7294 57.7294 35.75 58.9375 35.75C60.1456 35.75 61.125 36.7294 61.125 37.9375Z" fill="#284BF9"/>
<path d="M32.375 37.9375C32.375 39.1456 31.3956 40.125 30.1875 40.125C28.9794 40.125 28 39.1456 28 37.9375C28 36.7294 28.9794 35.75 30.1875 35.75C31.3956 35.75 32.375 36.7294 32.375 37.9375Z" fill="#284BF9"/>
<path d="M48.6245 31.0625C48.6245 33.3062 46.8057 35.125 44.562 35.125C42.3184 35.125 40.4995 33.3062 40.4995 31.0625C40.4995 28.8188 42.3184 27 44.562 27C46.8057 27 48.6245 28.8188 48.6245 31.0625Z" fill="#284BF9"/>
<path fill-rule="evenodd" clip-rule="evenodd" d="M28.3125 59.5C28.3125 58.9822 28.7322 58.5625 29.25 58.5625H64.5625C65.0803 58.5625 65.5 58.9822 65.5 59.5C65.5 60.0178 65.0803 60.4375 64.5625 60.4375H29.25C28.7322 60.4375 28.3125 60.0178 28.3125 59.5Z" fill="url(#paint0_linear_3209_418)"/>
</g>
<defs>
<linearGradient id="paint0_linear_3209_418" x1="64.875" y1="60.5" x2="23" y2="60.5" gradientUnits="userSpaceOnUse">
<stop stop-color="white"/>
<stop offset="1" stop-color="#3557FF" stop-opacity="0"/>
</linearGradient>
<clipPath id="clip0_3209_418">
<rect width="90" height="90" fill="white"/>
</clipPath>
</defs>
</svg>
