<svg width="90" height="90" viewBox="0 0 90 90" fill="none" xmlns="http://www.w3.org/2000/svg">
<g clip-path="url(#clip0_3210_1731)">
<circle cx="45" cy="45" r="45" fill="#086A50"/>
<path d="M39.8394 39C39.0394 38.6 20.1727 32.1667 10.8394 29C10.0394 30.2 10.8394 31.1667 11.3394 31.5C16.6727 34.1667 27.7394 39.6 29.3394 40C31.3394 40.5 35.8394 48 37.8394 50C39.8394 52 41.3394 53.5 40.8394 55C40.3394 56.5 37.3394 57 36.3394 57.5C35.3394 58 34.8394 59 35.8394 59C36.8394 59 36.8394 59.5 36.8394 60.5C36.8394 61.5 38.3394 61.5 39.3394 61.5C40.3394 61.5 41.3394 60 41.8394 59.5C42.3394 59 48.8394 59.5 51.3394 59.5C53.8394 59.5 55.3394 58.5 56.3394 57.5C57.3394 56.5 59.8394 56 60.3394 55.5C60.8394 55 60.3394 55 59.8394 54C59.3394 53 59.8394 53 61.3394 52.5C62.8394 52 75.8394 53 77.8394 53.5C79.8394 54 81.3394 53 79.8394 52.5C78.3394 52 70.3394 49.5 66.3394 49.5C62.3394 49.5 57.8394 51.5 56.8394 52C55.8394 52.5 51.3394 52 50.3394 51.5C49.3394 51 40.8394 39.5 39.8394 39Z" fill="white"/>
</g>
<defs>
<clipPath id="clip0_3210_1731">
<rect width="90" height="90" fill="white"/>
</clipPath>
</defs>
</svg>
