<svg width="90" height="90" viewBox="0 0 90 90" fill="none" xmlns="http://www.w3.org/2000/svg">
<g clip-path="url(#clip0_2383_776)">
<circle cx="45" cy="45" r="45" fill="#F5F5F5"/>
<path d="M53.1602 35.3272C54.6308 35.3272 55.8234 34.1337 55.8234 32.6641C55.8234 31.1925 54.6308 30 53.1602 30C51.6886 30 50.4971 31.1925 50.4971 32.6641C50.4971 34.1337 51.6886 35.3272 53.1602 35.3272Z" fill="#FC7321"/>
<path d="M67.4313 38.8594C68.4681 38.8594 69.3104 38.018 69.3104 36.9812C69.3104 35.9436 68.469 35.1022 67.4313 35.1022C66.3936 35.1022 65.5532 35.9436 65.5532 36.9812C65.5532 38.018 66.3936 38.8594 67.4313 38.8594Z" fill="#FC7321"/>
<path d="M75.0986 47.8852C75.0817 47.874 75.0647 47.8639 75.0487 47.8535C66.0862 42.0614 55.6975 38.7417 44.6193 38.7229H44.6146H44.6099C33.5318 38.7417 23.1428 42.0614 14.1803 47.8535C14.1634 47.8639 14.1475 47.874 14.1306 47.8852C14.0517 47.9463 14 48.0423 14 48.1484C14 48.1841 14.0076 48.2169 14.017 48.2489C14.0602 48.385 14.1859 48.4855 14.3371 48.4855C14.3785 48.4855 14.4189 48.4762 14.4555 48.4621C14.4621 48.4601 14.4687 48.458 14.4753 48.4552L15.0049 48.2489L17.4455 47.3015C17.4455 47.3015 17.9141 47.1539 18.2268 47.2694C18.5884 47.4046 18.8701 47.7033 18.9847 48.0714C18.9997 48.1202 19.0166 48.1803 19.0335 48.2479C19.0363 48.2601 19.04 48.2724 19.0428 48.2855C19.1461 48.7043 19.2692 49.3672 19.2692 49.3672L20.9802 60.0229C21.0206 60.4098 21.3661 60.7227 21.753 60.7227C22.139 60.7227 22.4187 60.4098 22.3784 60.0229C22.3784 60.0229 22.261 55.3342 22.261 55.3051C22.2685 54.9605 22.5352 54.6953 22.8911 54.6953C23.2357 54.6953 23.5494 54.9463 23.6405 55.274C23.6517 55.3125 23.6706 55.401 23.6706 55.401L24.7138 60.0239C24.7543 60.4108 25.0999 60.7235 25.4858 60.7235C25.8727 60.7235 26.1525 60.4108 26.1122 60.0239L25.5214 48.2489L25.5017 47.8627L25.4699 47.2245L25.4416 46.2075C25.4416 44.5838 26.7563 43.2696 28.3781 43.2696C30.0008 43.2696 31.3155 44.5838 31.3155 46.2075L32.3889 59.7139C32.3889 60.2717 32.8396 60.7235 33.3974 60.7235C33.9552 60.7235 34.4069 60.2717 34.4069 59.7139C34.4069 59.7139 34.9121 53.0304 34.9178 52.9882C34.9807 52.4915 35.4061 52.1074 35.9188 52.1074C36.4175 52.1074 36.8316 52.468 36.9133 52.9433C36.9226 52.9996 36.9367 53.1253 36.9367 53.1253L37.7782 59.7139C37.7782 60.2717 38.2298 60.7235 38.7876 60.7235C39.3444 60.7235 39.7972 60.2717 39.7972 59.7139L39.7474 48.2489L39.7999 46.9274L39.8243 46.3124C39.8243 43.7263 41.9204 41.6313 44.5057 41.6313C44.5404 41.6313 44.5751 41.6323 44.6089 41.6341H44.6137H44.6184C44.6522 41.6323 44.6869 41.6313 44.7217 41.6313C47.3069 41.6313 49.4029 43.7263 49.4029 46.3124L49.4273 46.9274L49.4799 48.2489L49.5147 59.7139C49.5147 60.2717 49.9663 60.7235 50.5241 60.7235C51.081 60.7235 51.5335 60.2717 51.5335 59.7139L52.374 53.1253C52.374 53.1253 52.3891 52.9987 52.3976 52.9433C52.4801 52.468 52.8944 52.1074 53.393 52.1074C53.9076 52.1074 54.331 52.4905 54.3939 52.9882C54.3986 53.0304 54.9049 59.7139 54.9049 59.7139C54.9049 60.2717 55.3565 60.7235 55.9143 60.7235C56.4712 60.7235 56.9228 60.2717 56.9228 59.7139L57.9118 46.2075C57.9118 44.5838 59.2264 43.2696 60.8491 43.2696C62.4709 43.2696 63.7856 44.5838 63.7856 46.2075L63.7574 47.2245L63.7264 47.8627L63.7066 48.2489L63.1161 60.0239C63.0757 60.4108 63.3555 60.7235 63.7414 60.7235C64.1283 60.7235 64.4739 60.4108 64.5142 60.0239L65.5576 55.3161C65.5576 55.3161 65.5773 55.2291 65.5867 55.1896C65.6788 54.8609 65.9924 54.6109 66.3371 54.6109C66.6929 54.6109 66.9596 54.8766 66.9672 55.2213C66.9672 55.2504 66.8497 60.0229 66.8497 60.0229C66.8094 60.4098 67.0892 60.7227 67.4752 60.7227C67.8622 60.7227 68.2076 60.4098 68.2481 60.0229L69.9591 49.3672C69.9591 49.3672 70.0821 48.7043 70.1854 48.2855C70.1882 48.2724 70.1909 48.2601 70.1947 48.2479C70.2116 48.1803 70.2286 48.1192 70.2436 48.0714C70.3581 47.7023 70.6399 47.4037 71.0014 47.2694C71.3142 47.1539 71.7828 47.3015 71.7828 47.3015L74.2224 48.2489L74.753 48.4552C74.7605 48.458 74.7661 48.4601 74.7727 48.4621C74.8093 48.477 74.8488 48.4855 74.891 48.4855C75.0421 48.4855 75.168 48.385 75.2113 48.2489C75.2207 48.2169 75.2282 48.1841 75.2282 48.1484C75.2282 48.0423 75.1775 47.9463 75.0986 47.8852Z" fill="#FC7321"/>
<path d="M36.0679 35.3272C37.5385 35.3272 38.7311 34.1337 38.7311 32.6641C38.7311 31.1925 37.5385 30 36.0679 30C34.5983 30 33.4038 31.1925 33.4038 32.6641C33.4038 34.1337 34.5983 35.3272 36.0679 35.3272Z" fill="#FC7321"/>
<path d="M21.7966 38.8594C22.8343 38.8594 23.6747 38.018 23.6747 36.9812C23.6747 35.9436 22.8343 35.1022 21.7966 35.1022C20.7599 35.1022 19.9185 35.9436 19.9185 36.9812C19.9185 38.018 20.7589 38.8594 21.7966 38.8594Z" fill="#FC7321"/>
</g>
<defs>
<clipPath id="clip0_2383_776">
<rect width="90" height="90" fill="white"/>
</clipPath>
</defs>
</svg>
