<svg width="90" height="90" viewBox="0 0 90 90" fill="none" xmlns="http://www.w3.org/2000/svg">
<g clip-path="url(#clip0_3084_104)">
<circle cx="45" cy="45" r="45" fill="#F5F5F5"/>
<path d="M74.12 58.7245H15V61.4231H74.12V58.7245Z" fill="url(#paint0_linear_3084_104)"/>
<path d="M54.9283 45.0039H36.9192C37.7847 49.4178 40.4016 51.6248 44.7697 51.6248C46.363 51.6248 47.6987 51.3772 48.7773 50.8824C49.8554 50.3872 50.8961 49.5416 51.8992 48.3454L53.9599 49.5621C53.0842 51.0292 51.8129 52.2195 50.2919 52.9963C48.663 53.8402 46.8512 54.269 45.0171 54.2442C41.8851 54.2442 39.2887 53.2405 37.228 51.233C35.1679 49.2255 34.1376 46.6953 34.1372 43.6428C34.1372 40.6448 35.1537 38.1216 37.1868 36.0729C39.2196 34.0242 41.7335 32.9998 44.7285 33C47.764 33 50.2299 34.0484 52.1256 36.145C54.0214 38.242 54.9693 40.9544 54.9695 44.2821L54.9283 45.0039ZM44.7697 35.7016C40.6485 35.7016 38.059 37.9016 37.0016 42.3019H52.0228C51.6653 40.0881 50.8685 38.4345 49.6325 37.3412C48.3963 36.2484 46.7753 35.702 44.7697 35.7016Z" fill="#0099B5"/>
<path d="M59.1396 33H74.1198L63.0135 51.4596H74.1198V53.9967H58.2124L69.6072 35.619H59.1396V33Z" fill="#0099B5"/>
<path d="M30.9068 35.4956V33H15V35.537H21.6038V53.9972H24.4032L24.3443 35.4956H30.9068Z" fill="#0099B5"/>
</g>
<defs>
<linearGradient id="paint0_linear_3084_104" x1="15" y1="59.7512" x2="74.3525" y2="59.7512" gradientUnits="userSpaceOnUse">
<stop stop-color="#CAFFD4"/>
<stop offset="1" stop-color="#1EB53A"/>
</linearGradient>
<clipPath id="clip0_3084_104">
<rect width="90" height="90" fill="white"/>
</clipPath>
</defs>
</svg>
