<svg width="90" height="90" viewBox="0 0 90 90" fill="none" xmlns="http://www.w3.org/2000/svg">
<circle cx="45" cy="45" r="45" fill="#F2F2F2"/>
<path fill-rule="evenodd" clip-rule="evenodd" d="M44.5026 19.0691C52.9861 19.0691 59.8693 25.8858 59.8693 34.2872C59.8693 42.6995 52.9861 49.5162 44.5026 49.5162C36.0081 49.5162 29.1358 42.6995 29.1358 34.2872C29.1358 25.8858 36.0081 19.0691 44.5026 19.0691Z" fill="#FEFEFE"/>
<path fill-rule="evenodd" clip-rule="evenodd" d="M44.5026 14C59.957 14 69.6462 30.2493 62.7301 43.557C57.4909 54.2054 52.2517 64.8429 47.0016 75.4912C46.5412 76.3921 45.5877 77 44.5026 77C43.4065 77 42.4529 76.3813 41.9926 75.4804C36.7424 64.8429 31.5033 54.1945 26.2641 43.557C19.3589 30.2493 29.0481 14 44.5026 14ZM44.5026 19.0691C52.9861 19.0691 59.8693 25.8858 59.8693 34.2872C59.8693 42.6995 52.9861 49.5162 44.5026 49.5162C36.0081 49.5162 29.1358 42.6995 29.1358 34.2872C29.1358 25.8858 36.0081 19.0691 44.5026 19.0691Z" fill="#54AF3A"/>
<path fill-rule="evenodd" clip-rule="evenodd" d="M44.5026 21.6091C51.5721 21.6091 57.3045 27.286 57.3045 34.2872C57.3045 41.2993 51.5721 46.9762 44.5026 46.9762C37.422 46.9762 31.6896 41.2993 31.6896 34.2872C31.6896 27.286 37.422 21.6091 44.5026 21.6091ZM44.5026 24.149C50.1582 24.149 54.7398 28.6863 54.7398 34.2872C54.7398 39.899 50.1582 44.4363 44.5026 44.4363C38.8359 44.4363 34.2544 39.899 34.2544 34.2872C34.2544 28.6863 38.8359 24.149 44.5026 24.149ZM44.5026 26.6782C48.7443 26.6782 52.1859 30.0865 52.1859 34.2872C52.1859 38.4988 48.7443 41.8963 44.5026 41.8963C40.2608 41.8963 36.8192 38.4988 36.8192 34.2872C36.8192 30.0865 40.2608 26.6782 44.5026 26.6782Z" fill="#EF7F1A"/>
</svg>
