<svg width="90" height="90" viewBox="0 0 90 90" fill="none" xmlns="http://www.w3.org/2000/svg">
<g clip-path="url(#clip0_3212_2718)">
<circle cx="45" cy="45" r="45" fill="#F5F5F5"/>
<path d="M24.8706 34.7398C23.7437 34.3637 22.9901 35.2094 23.4618 36.1486C24.435 38.086 24.9167 38.0852 26.2808 39.9963C28.6271 43.2834 31.7635 52.3838 33.7943 55.9624C36.141 60.0977 40.8382 61.1279 44.5949 60.1887C48.3516 59.2495 55.8651 52.2057 61.0306 46.5706C66.1961 40.9355 74.6487 29.5743 74.6487 25.9086C74.6487 24.0302 73.2399 22.6214 70.892 23.091C67.6032 23.7488 59.6218 32.0132 57.2738 34.8308C54.9259 37.6483 42.7165 50.3273 40.3686 50.7969C38.0206 51.2665 35.2014 45.1618 32.8535 41.8747C30.5055 38.5875 26.2778 35.2094 24.8706 34.7398Z" fill="#DE2429"/>
<path fill-rule="evenodd" clip-rule="evenodd" d="M39.7451 60.276L74.3239 24.4598C74.5385 24.884 74.6511 25.3775 74.6511 25.9086C74.6511 29.5743 66.1985 40.9356 61.033 46.5707C55.8675 52.2057 48.354 59.2496 44.5973 60.1888C43.0621 60.5726 41.3698 60.6275 39.7451 60.276Z" fill="#C42526"/>
<path fill-rule="evenodd" clip-rule="evenodd" d="M39.8304 50.795C38.9507 51.229 37.6235 51.5559 36.0088 51.1735C33.8587 50.6642 31.9093 49.9144 30.53 48.7532C29.084 45.3316 27.5642 41.7942 26.2808 39.9962C25.739 39.2371 25.3364 38.7796 24.9869 38.3825C24.4565 37.7799 24.0485 37.3163 23.4618 36.1484C22.9901 35.2092 23.7437 34.3635 24.8706 34.7397C26.2778 35.2093 30.5055 38.5874 32.8535 41.8746C33.4662 42.7323 34.1109 43.782 34.7711 44.8566C36.4501 47.5899 38.2284 50.4847 39.8304 50.795Z" fill="#E9502F"/>
<path fill-rule="evenodd" clip-rule="evenodd" d="M20.5745 32.1489H47.1064C48.6222 32.1489 49.8511 33.3777 49.8511 34.8936V40.3069L51.6809 38.7005V34.8936C51.6809 32.3672 49.6328 30.3191 47.1064 30.3191H20.5745C18.0481 30.3191 16 32.3671 16 34.8936V61.4255C16 63.9519 18.0481 65.9999 20.5745 65.9999H47.1064C49.6328 65.9999 51.6809 63.9519 51.6809 61.4255V58.0639L49.8511 59.2872V61.4255C49.8511 62.9413 48.6222 64.1702 47.1064 64.1702H20.5745C19.0586 64.1702 17.8298 62.9413 17.8298 61.4255V34.8936C17.8298 33.3777 19.0586 32.1489 20.5745 32.1489Z" fill="#74736E"/>
</g>
<defs>
<clipPath id="clip0_3212_2718">
<rect width="90" height="90" fill="white"/>
</clipPath>
</defs>
</svg>
