<svg xmlns="http://www.w3.org/2000/svg" width="90" height="90" fill="none"><circle cx="45" cy="45" r="45" fill="#EFFFF5"/><path fill="#0078BF" fill-rule="evenodd" d="M22.458 26.667h46.083a4.48 4.48 0 0 1 3.148 1.298 4.415 4.415 0 0 1 1.308 3.124v27.819a4.39 4.39 0 0 1-1.308 3.124 4.448 4.448 0 0 1-3.146 1.298H22.458a4.485 4.485 0 0 1-3.148-1.298A4.418 4.418 0 0 1 18 58.908V31.092a4.39 4.39 0 0 1 1.308-3.124 4.455 4.455 0 0 1 3.15-1.301Zm46.083 1.293H22.458a3.155 3.155 0 0 0-3.152 3.134v27.814c.004.829.337 1.623.928 2.21.591.586 1.391.917 2.227.92h46.08a3.164 3.164 0 0 0 2.911-1.93 3.1 3.1 0 0 0 .241-1.198V31.092a3.129 3.129 0 0 0-.926-2.21 3.176 3.176 0 0 0-2.226-.922Z" clip-rule="evenodd"/><path fill="url(#a)" fill-rule="evenodd" d="M28.52 47.12H62.48a4.591 4.591 0 0 1 3.222 1.329 4.523 4.523 0 0 1 1.34 3.198 4.523 4.523 0 0 1-1.34 3.198 4.591 4.591 0 0 1-3.222 1.33H28.52c-1.21 0-2.37-.477-3.226-1.327a4.51 4.51 0 0 1-1.336-3.201c0-1.2.48-2.352 1.336-3.202a4.579 4.579 0 0 1 3.226-1.326Z" clip-rule="evenodd"/><path fill="url(#b)" fill-rule="evenodd" d="M28.487 48.706h25.93a2.982 2.982 0 0 1 2.149.831 2.939 2.939 0 0 1 .898 2.109 2.921 2.921 0 0 1-.898 2.108 2.965 2.965 0 0 1-2.15.831H28.488a2.984 2.984 0 0 1-2.15-.83 2.94 2.94 0 0 1-.897-2.11 2.922 2.922 0 0 1 .898-2.108 2.965 2.965 0 0 1 2.15-.83Z" clip-rule="evenodd"/><path fill="url(#c)" fill-rule="evenodd" d="M28.379 49.233h26.146a1.223 1.223 0 0 1 .893.333 1.204 1.204 0 0 1 .278 1.345 1.204 1.204 0 0 1-.69.655 1.225 1.225 0 0 1-.481.076H28.379a1.225 1.225 0 0 1-.894-.333 1.206 1.206 0 0 1-.277-1.345 1.205 1.205 0 0 1 .69-.655c.153-.057.317-.083.481-.076Z" clip-rule="evenodd"/><defs><linearGradient id="a" x1="45.817" x2="46.186" y1="60.664" y2="71.275" gradientUnits="userSpaceOnUse"><stop stop-color="#0D5190"/><stop offset="1" stop-color="#00A0E3"/></linearGradient><linearGradient id="b" x1="41.452" x2="41.452" y1="35.836" y2="41.717" gradientUnits="userSpaceOnUse"><stop stop-color="#B0CB1F"/><stop offset="1" stop-color="#009846"/></linearGradient><linearGradient id="c" x1="41.452" x2="41.452" y1="36.255" y2="38.665" gradientUnits="userSpaceOnUse"><stop stop-color="#FEFEFE"/><stop offset="1" stop-color="#5DB139"/></linearGradient></defs></svg>