<svg width="90" height="90" viewBox="0 0 90 90" fill="none" xmlns="http://www.w3.org/2000/svg">
<g clip-path="url(#clip0_3210_1791)">
<circle cx="45" cy="45" r="45" fill="#64FD16"/>
<path d="M25.5408 41.6465C24.9669 41.7105 24.4988 41.7189 24.1339 41.6743C23.7717 41.6284 23.3845 41.4654 22.9749 41.1826C22.2221 40.695 21.5958 40.0357 21.1473 39.2589C20.7199 38.4954 20.4246 37.6651 20.2739 36.8031C20.0009 35.2471 20.1054 33.6368 20.5874 31.9722C21.0693 30.2993 21.7575 28.9119 22.649 27.8114C23.554 26.7111 24.6206 25.7544 25.8124 24.9739C27.0772 24.1367 28.2822 23.5364 29.4286 23.1728C31.6114 22.4902 34.272 22.1086 37.4103 22.0264C40.5487 21.9442 43.2191 22.0542 45.42 22.3537C47.2308 22.5989 49.0765 22.904 50.9598 23.2675C52.8515 23.6227 54.739 23.7829 56.6223 23.7453C60.2788 23.6812 62.4519 23.3093 63.1442 22.6268C63.2264 22.5446 63.349 22.4596 63.5119 22.3677C63.5882 22.3228 63.6746 22.298 63.763 22.2956C63.8514 22.2932 63.939 22.3132 64.0176 22.3537C64.3714 22.5446 64.3895 22.727 64.0719 22.8998C63.4172 23.2536 62.6386 23.6408 61.7387 24.0587C60.8472 24.4766 60.1688 24.7371 59.7049 24.8374C57.7492 25.2456 55.3533 25.3375 52.5144 25.1104C49.7688 24.8856 47.0396 24.4935 44.3418 23.9362C42.7279 23.6111 41.1032 23.3426 39.4706 23.131C37.771 22.8977 36.0529 22.8291 34.3402 22.9262C32.2758 23.0446 30.3925 23.4584 28.6917 24.1688C26.4546 25.0881 24.6354 26.4658 23.234 28.3031C22.525 29.2225 21.9469 30.4817 21.5012 32.0823C21.0652 33.6745 20.9328 35.1886 21.1056 36.6262C21.2421 37.8172 21.6432 38.8229 22.3063 39.6406C22.9708 40.4513 24.0127 40.833 25.4307 40.787C25.6676 40.741 25.8082 40.8552 25.8542 41.1283C25.9002 41.4556 25.7943 41.6297 25.5408 41.6465ZM50.3595 25.8599C50.4138 26.0145 50.4096 26.1384 50.3455 26.229C50.1366 26.502 49.7814 26.9923 49.2813 27.7028C48.7798 28.4118 48.2393 29.3938 47.6571 30.6489C47.2361 31.5528 46.8495 32.4724 46.4981 33.4056L45.4604 36.1623C45.0703 37.1987 44.6524 38.2309 44.2067 39.2589C43.7627 40.301 43.2427 41.309 42.6507 42.2747C41.7773 43.7025 40.9262 44.9032 40.0988 45.8769C39.2714 46.8409 38.625 47.5276 38.1612 47.9371C38.0247 48.0374 37.8965 48.0277 37.7795 47.9093C37.5524 47.6641 37.5009 47.4775 37.629 47.3507C38.2113 46.7768 38.7574 46.0803 39.2658 45.2612C39.7756 44.4436 40.2492 43.5757 40.6866 42.6564C41.2034 41.5462 41.6352 40.4415 41.9821 39.3411C42.3276 38.2406 42.7051 37.1889 43.1146 36.1888C43.5506 35.1343 44.0548 34.1146 44.6288 33.1326C45.2013 32.1505 45.8699 31.0849 46.6346 29.9399C47.4077 28.7754 48.0805 27.8657 48.6545 27.211L49.9917 25.6829C50.1366 25.5102 50.2592 25.5687 50.3595 25.8599ZM54.2069 46.2865C53.5522 46.7865 53.0925 47.1278 52.8278 47.3089C52.5743 47.49 52.006 47.6683 51.1228 47.841C50.3859 47.9678 49.7814 47.9316 49.3092 47.7324C48.6085 47.4134 48.2031 46.7907 48.0945 45.863C47.997 44.8569 48.0382 43.8421 48.2171 42.8472C48.4079 41.7746 48.6628 40.7508 48.9818 39.7771C49.3092 38.795 49.5627 38.0985 49.7452 37.6904C50.2992 36.3641 50.9371 35.0744 51.6549 33.8291C52.388 32.573 53.2328 31.3856 54.179 30.2812C54.8253 29.5345 55.363 28.9355 55.7893 28.48C56.2267 28.0162 56.7532 27.498 57.3717 26.9241C57.5263 26.7792 57.745 26.5967 58.0264 26.378C58.3189 26.1607 58.546 25.9518 58.709 25.7512C58.819 25.6244 58.95 25.6105 59.1046 25.7094C59.2508 25.8195 59.2689 25.9379 59.1603 26.0646C58.9681 26.2917 58.7549 26.5104 58.5195 26.7193C58.2827 26.9199 58.0779 27.1205 57.9038 27.3197C57.0583 28.2948 56.2044 29.5526 55.3394 31.1002C54.4113 32.7845 53.5598 34.5099 52.7874 36.271C52.0208 37.9828 51.3155 39.7214 50.6729 41.4835C50.0265 43.2749 49.6992 44.7208 49.6908 45.8212C49.6727 46.8228 50.0001 47.3131 50.6729 47.295C51.0002 47.2866 51.3917 47.2003 51.8458 47.0359C52.3013 46.8632 52.8835 46.5038 53.5926 45.9577C53.8391 45.7766 54.0481 45.7725 54.2194 45.9438C54.3476 46.0803 54.3434 46.1959 54.2069 46.2865ZM43.5227 25.1787C43.5603 25.1327 43.637 25.0464 43.7554 24.9182C43.8738 24.7817 43.9866 24.7552 44.0966 24.8374C44.2415 24.9558 44.2499 25.0784 44.1245 25.2052C43.4419 25.9699 42.8095 26.6608 42.2273 27.2793C41.645 27.8894 41.177 28.5748 40.8218 29.3395C39.8448 31.3863 38.9839 33.4865 38.2433 35.6302C37.2128 38.6652 35.5209 41.4333 33.2899 43.7345C32.4722 44.5801 31.3941 45.3713 30.0568 46.1082C29.5205 46.409 28.6471 46.7448 27.438 47.1181C26.2359 47.4816 25.2232 47.7045 24.3944 47.7867C23.0209 47.9232 21.77 47.9455 20.6417 47.855C19.5231 47.7644 18.8266 47.6502 18.555 47.5137C17.963 47.249 17.8446 47.0317 18.1998 46.859C18.5634 46.6862 18.8225 46.6445 18.9771 46.7364C19.2418 46.8994 19.4925 47.0094 19.7279 47.0637C19.9647 47.1181 20.3547 47.164 20.9008 47.2003C22.7938 47.3535 24.6312 47.1863 26.4128 46.6946C28.1682 46.2118 29.7464 45.2311 30.9567 43.871C32.8679 41.7426 34.141 39.8036 34.7776 38.0582C35.4142 36.303 35.9867 34.8473 36.4966 33.6926C37.325 31.8118 38.4282 30.0645 39.7701 28.5079C41.1449 26.9157 42.3944 25.8055 43.5227 25.1787Z" fill="black"/>
<path d="M57.0838 53.9366C56.4876 54.1233 55.3885 54.459 53.7866 54.9437C52.1847 55.4466 51.048 55.8102 50.3766 56.033C49.708 56.2559 48.7287 56.6111 47.443 57.0959C46.1392 57.5792 45.1056 58.0264 44.3408 58.4359C43.46 58.9172 42.6024 59.4396 41.7708 60.0016C40.8027 60.6535 39.9362 61.3431 39.1715 62.0688C36.4705 64.6402 35.1207 67.1922 35.1207 69.726C35.1207 70.6203 35.3812 71.346 35.9022 71.9046C36.4245 72.4646 37.0026 72.7432 37.635 72.7432C39.0503 72.7432 40.4948 72.4367 41.9672 71.821C43.44 71.1941 44.8139 70.3565 46.0458 69.3346C47.3562 68.2682 48.5802 67.1001 49.7066 65.841C50.8808 64.5567 51.9325 63.1957 52.8644 61.7624C53.8145 60.3457 54.6433 58.9764 55.3509 57.6531C56.0585 56.3311 56.6366 55.0914 57.0838 53.9366ZM66.2496 49.7744C65.691 50.2759 64.6839 50.8818 63.231 51.5908C61.7781 52.279 60.3614 52.8571 58.9838 53.3223C58.6857 54.7571 58.0435 56.3687 57.0559 58.1559C56.0683 59.964 54.8202 61.7526 53.3116 63.5217C51.8341 65.2784 50.2176 66.9135 48.478 68.411C46.7811 69.8671 44.8905 71.0808 42.8601 72.0174C40.8486 72.948 38.9389 73.4146 37.1322 73.4146C35.9203 73.4146 34.9619 73.136 34.2543 72.576C33.5271 72.0175 33.1636 71.2165 33.1636 70.1732C33.1636 67.3412 34.8964 64.4438 38.3622 61.4824C39.3304 60.6583 40.3472 59.8931 41.4072 59.1909C42.3206 58.5956 43.2624 58.0452 44.2294 57.5416C45.2293 57.0563 46.2557 56.6275 47.3037 56.2573C48.2839 55.9108 49.2713 55.5847 50.2652 55.2794C51.0299 55.0566 52.1749 54.7292 53.703 54.3002C54.9067 53.9834 56.108 53.6574 57.3067 53.3223C57.7176 52.1313 57.9223 51.2273 57.9223 50.613C57.9223 49.8858 57.8109 49.2715 57.5866 48.7687C56.7481 49.103 56.1435 49.2701 55.7702 49.2701C55.1935 49.2701 54.9038 49.1308 54.9038 48.8522C54.9038 48.6294 55.2019 48.4051 55.7981 48.1808C56.3943 47.958 56.8706 47.8465 57.2231 47.8465C57.5017 47.8465 57.7357 47.8925 57.9223 47.9858C58.8166 47.6125 59.6733 46.9327 60.4924 45.9465C61.3129 44.9575 61.7224 43.9712 61.7224 42.9836C61.7224 42.4055 61.5552 41.95 61.2195 41.6143C60.8852 41.2605 60.4924 41.0836 60.0452 41.0836C58.2386 41.0836 56.1714 42.6201 53.8423 45.6944C53.7685 45.8058 53.6933 45.8615 53.6194 45.8615C53.5442 45.8615 53.508 45.8253 53.508 45.7501C53.508 45.7125 53.5261 45.6568 53.5637 45.5829C55.2771 43.3472 56.7021 41.8386 57.8388 41.0558C58.974 40.2729 60.1107 39.8815 61.2474 39.8815C62.0665 39.8815 62.71 40.1336 63.1753 40.6365C63.6405 41.1212 63.8745 41.755 63.8745 42.5365C63.8745 43.5812 63.3341 44.6329 62.2531 45.6944C61.1917 46.7558 59.8781 47.6585 58.3138 48.4051C58.871 49.2437 59.151 50.3692 59.151 51.7859C59.151 52.0282 59.1231 52.3723 59.0674 52.8194C60.3712 52.4294 61.6945 51.907 63.036 51.2551C64.3955 50.6032 65.3915 50.0154 66.0253 49.4944C67.42 48.3214 68.6931 47.011 69.8253 45.5829C69.9006 45.4715 69.9744 45.4158 70.0482 45.4158C70.1234 45.4158 70.161 45.452 70.161 45.5272C70.1543 45.5862 70.1353 45.6431 70.1053 45.6944C69.1372 47.0177 67.8515 48.3772 66.2496 49.7744Z" fill="black"/>
</g>
<defs>
<clipPath id="clip0_3210_1791">
<rect width="90" height="90" fill="white"/>
</clipPath>
</defs>
</svg>
