<svg width="90" height="90" fill="none" xmlns="http://www.w3.org/2000/svg"><circle cx="45" cy="45" r="45" fill="#EFEFEF"/><g clip-path="url(#a)"><path d="M29.66 34.256V19.885a2.907 2.907 0 0 1 .84-2.04A2.856 2.856 0 0 1 32.521 17H59.2L29.66 34.256Z" fill="url(#b)"/><path d="M61.317 54.744v14.371c0 .765-.3 1.498-.836 2.04a2.847 2.847 0 0 1-2.02.845H31.778l29.538-17.256Z" fill="url(#c)"/><path d="m44.612 63.684-12.386 7.1c-.659.377-1.44.475-2.171.272a2.864 2.864 0 0 1-1.727-1.357l-13.18-23.402 29.464 17.387Z" fill="url(#d)"/><path d="M28.674 53.254 16.406 45.95a2.882 2.882 0 0 1-1.315-1.765A2.907 2.907 0 0 1 15.398 42l13.557-23.18-.28 34.435Z" fill="url(#e)"/><path d="m46.5 25.19 12.444-6.992a2.84 2.84 0 0 1 3.889 1.116l12.982 23.515L46.5 25.19Z" fill="url(#f)"/><path d="m62.268 35.526 12.311 7.231a2.867 2.867 0 0 1 1.326 1.757 2.91 2.91 0 0 1-.294 2.188l-13.425 23.26.082-34.436Z" fill="url(#g)"/><path d="M49.697 35.845c-1.836 0-3.631.549-5.158 1.578a9.35 9.35 0 0 0-3.42 4.204 9.444 9.444 0 0 0-.528 5.413 9.393 9.393 0 0 0 2.54 4.796 9.26 9.26 0 0 0 4.755 2.564 9.21 9.21 0 0 0 5.365-.533 9.304 9.304 0 0 0 4.167-3.45 9.427 9.427 0 0 0 1.565-5.205 9.41 9.41 0 0 0-2.72-6.624 9.244 9.244 0 0 0-6.566-2.743Zm0 16.489c-3.688 0-6.678-3.189-6.678-7.122s2.99-7.121 6.678-7.121c3.689 0 6.68 3.188 6.68 7.121 0 3.933-2.987 7.122-6.68 7.122Z" fill="#C32329"/><path d="M41.5 43.35h-4.127v2.081H41.5V43.35Z" fill="#C32329"/><path d="M37.89 54.169V36.2h-2.824v17.968h2.823Z" fill="#C32329"/><path d="M38.975 54.169s-1.086-.522-1.086-2.452v2.452h1.086ZM35.066 54.169H33.98s1.086-.522 1.086-2.452M38.975 36.2s-1.086.522-1.086 2.453V36.2h1.086ZM35.066 36.2H33.98s1.086.522 1.086 2.453" fill="#C32329"/></g><defs><linearGradient id="b" x1="29.663" y1="25.628" x2="59.202" y2="25.628" gradientUnits="userSpaceOnUse"><stop stop-color="#EAB82A"/><stop offset="1" stop-color="#F8E336"/></linearGradient><linearGradient id="c" x1="61.32" y1="63.372" x2="31.781" y2="63.372" gradientUnits="userSpaceOnUse"><stop stop-color="#C32329"/><stop offset=".72" stop-color="#CC5558"/></linearGradient><linearGradient id="d" x1="37.179" y1="67.947" x2="22.393" y2="42.148" gradientUnits="userSpaceOnUse"><stop stop-color="#4372BB"/><stop offset=".72" stop-color="#4377BB"/></linearGradient><linearGradient id="e" x1="37609.4" y1="7653.77" x2="41518.6" y2="1088.63" gradientUnits="userSpaceOnUse"><stop stop-color="#4372BB"/><stop offset=".72" stop-color="#4377BB"/></linearGradient><linearGradient id="f" x1="2868.7" y1="20245.5" x2="10734.7" y2="34242.2" gradientUnits="userSpaceOnUse"><stop stop-color="#EAB82A"/><stop offset="1" stop-color="#F8E336"/></linearGradient><linearGradient id="g" x1="-20655.9" y1="2342.61" x2="-24486.9" y2="8864.53" gradientUnits="userSpaceOnUse"><stop stop-color="#C32329"/><stop offset=".72" stop-color="#CC5558"/></linearGradient><clipPath id="a"><path fill="#fff" transform="translate(15 17)" d="M0 0h61v55H0z"/></clipPath></defs></svg>