<svg width="90" height="90" fill="none" xmlns="http://www.w3.org/2000/svg"><g clip-path="url(#a)"><path d="M90 45C90 20.147 69.853 0 45 0S0 20.147 0 45s20.147 45 45 45 45-20.147 45-45Z" fill="#F5F5F5"/><path d="M70.016 33.106a27.192 27.192 0 0 0-11.85-12.003 27.77 27.77 0 0 0-16.753-2.814 27.567 27.567 0 0 0-15.218 7.456 26.867 26.867 0 0 0-7.83 14.86 26.644 26.644 0 0 0 2.57 16.55 27.205 27.205 0 0 0 11.98 11.876 27.775 27.775 0 0 0 16.784 2.636 27.558 27.558 0 0 0 15.135-7.618l-5.828-5.714a19.29 19.29 0 0 1-10.594 5.332c-4.016.627-8.13-.02-11.749-1.845a19.044 19.044 0 0 1-8.386-8.313 18.651 18.651 0 0 1-1.798-11.585 18.807 18.807 0 0 1 5.48-10.402 19.297 19.297 0 0 1 10.652-5.22c4.023-.584 8.13.106 11.729 1.97a19.033 19.033 0 0 1 8.294 8.402l7.382-3.568Z" fill="url(#b)" fill-opacity=".9"/><path d="M70.016 33.106a27.192 27.192 0 0 0-11.85-12.003 27.77 27.77 0 0 0-16.753-2.814 27.567 27.567 0 0 0-15.218 7.456 26.867 26.867 0 0 0-7.83 14.86 26.644 26.644 0 0 0 2.57 16.55 27.205 27.205 0 0 0 11.98 11.876 27.775 27.775 0 0 0 16.784 2.636 27.558 27.558 0 0 0 15.135-7.618l-5.828-5.714a19.29 19.29 0 0 1-10.594 5.332c-4.016.627-8.13-.02-11.749-1.845a19.044 19.044 0 0 1-8.386-8.313 18.651 18.651 0 0 1-1.798-11.585 18.807 18.807 0 0 1 5.48-10.402 19.297 19.297 0 0 1 10.652-5.22c4.023-.584 8.13.106 11.729 1.97a19.033 19.033 0 0 1 8.294 8.402l7.382-3.568Z" fill="url(#c)"/><path fill-rule="evenodd" clip-rule="evenodd" d="M68.848 31.49a4.284 4.284 0 0 1 .345 6.113l-18.68 20.565a4.424 4.424 0 0 1-3.27 1.443 4.425 4.425 0 0 1-3.274-1.435l-9.752-10.689a4.284 4.284 0 0 1 .331-6.114c1.806-1.598 4.585-1.452 6.207.326l6.476 7.098L62.64 31.83c1.62-1.782 4.398-1.934 6.207-.34Z" fill="#FF3E00"/></g><defs><linearGradient id="b" x1="54.546" y1="67.5" x2="-16.076" y2="45.529" gradientUnits="userSpaceOnUse"><stop offset=".066" stop-color="#FF9400" stop-opacity="0"/><stop offset="1" stop-color="#FF3E00"/></linearGradient><linearGradient id="c" x1="51.12" y1="52.875" x2="61.159" y2="33.625" gradientUnits="userSpaceOnUse"><stop offset=".066" stop-color="#FF9400" stop-opacity="0"/><stop offset="1" stop-color="#FF3E00"/></linearGradient><clipPath id="a"><path fill="#fff" d="M0 0h90v90H0z"/></clipPath></defs></svg>