<svg width="90" height="90" viewBox="0 0 90 90" fill="none" xmlns="http://www.w3.org/2000/svg">
<g clip-path="url(#clip0_2681_993)">
<circle cx="45" cy="45" r="45" fill="#F5F5F5"/>
<path fill-rule="evenodd" clip-rule="evenodd" d="M59.9378 67.5464L26.5676 64.997L29.2443 27.6074L23.296 26.9871C21.5285 29.3239 19.4466 59.975 20.1349 66.1272C20.4748 69.1184 21.469 70.1721 24.0268 70.92C32.4565 73.4013 47.3018 72.6195 56.4198 72.6195C65.8863 72.6195 64.8411 73.6477 64.9174 64.0114C65.0449 53.2959 65.2659 41.9174 62.3682 32.2556C60.4732 27.9133 59.8783 25.0666 54.3888 25.1006L29.1509 24.9051C29.4483 25.2365 29.2698 25.1346 29.7202 25.449C32.3884 27.327 51.1768 27.9388 51.882 28.1003C59.6744 28.3722 59.53 34.8049 60.1843 41.637C61.102 50.1942 60.3287 58.9722 59.9378 67.5464Z" fill="#313130"/>
<path fill-rule="evenodd" clip-rule="evenodd" d="M63.4048 22.7809C55.8164 30.8706 50.4288 39.3088 44.9478 49.1235C44.2171 47.0927 43.4183 43.5492 42.2287 41.9602C40.4017 39.5043 36.1868 40.9998 36.0508 43.8126C35.9404 46.0644 40.4102 57.3153 41.4978 58.59C43.5204 60.9608 46.4093 60.145 47.786 57.8591C48.126 57.2898 52.2729 46.9737 53.9979 43.532C57.3717 36.9125 61.3304 30.6077 65.8267 24.6928C66.8208 23.3757 67.6622 22.1945 68.3759 21.1748C71.6901 16.2547 71.3925 14.963 66.6764 19.4753C65.7671 20.2825 64.6793 21.4212 63.4048 22.7809Z" fill="#52BD09"/>
</g>
<defs>
<clipPath id="clip0_2681_993">
<rect width="90" height="90" fill="white"/>
</clipPath>
</defs>
</svg>
