<svg xmlns="http://www.w3.org/2000/svg" width="90" height="90" fill="none"><circle cx="45" cy="45" r="45" fill="#007FBD"/><path fill="#fff" d="M34.327 68.663a1.757 1.757 0 0 0-1.783 0c-.989.369-2.027.586-3.08.646a5.253 5.253 0 0 1-3.5-1.175 5.207 5.207 0 0 1-1.851-3.182c-.324-1.452-.324-2.904-.649-4.356a7.046 7.046 0 0 0-1.134-3.066 24.914 24.914 0 0 1-3.081-9.036 23.984 23.984 0 0 1 3.729-16.62 24.83 24.83 0 0 1 6.835-7.38 24.962 24.962 0 0 1 9.216-4.076 25.889 25.889 0 0 1 17.996 2.097c1.135.484 1.135.646 2.108-.322 1.297-1.291 2.431-2.582 3.728-3.712a7.014 7.014 0 0 1 4.54-2.42 7.313 7.313 0 0 1 6.091 1.654 7.247 7.247 0 0 1 1.912 2.6c.433.999.635 2.082.59 3.168a7.405 7.405 0 0 1-2.108 4.841l-4.864 4.84a.951.951 0 0 0-.162 1.13 25.227 25.227 0 0 1 2.432 12.909 24.634 24.634 0 0 1-5.35 14.038A24.951 24.951 0 0 1 50.864 70.6a36.48 36.48 0 0 1-5.512.484 30.198 30.198 0 0 1-11.025-2.42Zm2.918-35.982c.649-.323 1.135-.484 1.784-.807a15.663 15.663 0 0 1 8.106-1.29 6.68 6.68 0 0 0 1.784-.162 3.455 3.455 0 0 0 1.78-1.172 3.427 3.427 0 0 0 .749-1.99 3.46 3.46 0 0 0-.84-2.224 3.49 3.49 0 0 0-2.079-1.165 21.177 21.177 0 0 0-7.133.161 22.073 22.073 0 0 0-8.947 3.753 21.947 21.947 0 0 0-6.455 7.22 19.665 19.665 0 0 0-2.757 9.52 5.031 5.031 0 0 0 .649 3.065 3.843 3.843 0 0 0 3.891 1.29 3.116 3.116 0 0 0 1.666-.975 3.09 3.09 0 0 0 .766-1.767l.973-5.325c.22-.822.492-1.63.81-2.42.973.968 1.946 1.775 2.919 2.743 2.431 2.42 4.864 4.84 7.295 7.1a4.773 4.773 0 0 0 2.919 1.613 4.331 4.331 0 0 0 3.242-1.452l9.404-9.359.486-.484c3.08 4.518 2.756 12.263-2.108 17.265a15.184 15.184 0 0 1-8.462 4.3 15.223 15.223 0 0 1-9.372-1.556c.162-.162.162-.323.325-.323a21.706 21.706 0 0 0 1.783-2.26 1.61 1.61 0 0 0-.973-2.581l-2.432-.484c-2.756-.323-5.512-.645-8.43-.807a.976.976 0 0 0-.649.162c-.648.484-1.459 1.129-1.135 2.097v.646c.162 2.42.487 4.84.649 7.26.028.763.137 1.52.324 2.26a1.757 1.757 0 0 0 1.12 1.21 1.775 1.775 0 0 0 1.636-.242 8.481 8.481 0 0 0 1.784-1.614c.324-.322.486-.322.972-.161a22.784 22.784 0 0 0 14.105 3.388 21.133 21.133 0 0 0 11.35-4.518 20.985 20.985 0 0 0 7.133-9.52 19.502 19.502 0 0 0 .486-13.876 45.6 45.6 0 0 0-2.594-5.81c-.162-.322-.162-.483.163-.806.324-.323.81-.807 1.297-1.13 1.945-1.936 4.053-4.033 5.998-6.131a3.308 3.308 0 0 0 .974-2.34 3.296 3.296 0 0 0-.974-2.34 3.252 3.252 0 0 0-4.54-.323 16.178 16.178 0 0 0-1.783 1.614c-2.756 2.743-5.512 5.487-8.43 8.23-3.405 3.388-6.81 6.777-10.377 10.165l-.81.807c-2.691-2.808-5.772-5.067-8.042-8.455Z"/></svg>