<svg width="90" height="90" viewBox="0 0 90 90" fill="none" xmlns="http://www.w3.org/2000/svg">
<g clip-path="url(#clip0_4_18)">
<circle cx="45" cy="45" r="45" fill="#F5F5F5"/>
<path d="M47.5186 56.9443L57 28.5C57.246 27.7621 56.6967 27 55.9189 27H55.1754C54.2501 27 53.5 26.2499 53.5 25.3246V25C53.5 23.8954 54.3954 23 55.5 23H64.5C65.6046 23 66.5 23.8954 66.5 25C66.5 26.1046 65.6046 27 64.5 27H64.3979C63.5584 27 62.8082 27.5244 62.5197 28.3128L48 68C46 74 43 73.5 41.5 70L26.4198 28.1646C26.1679 27.4658 25.5049 27 24.7621 27C23.7889 27 23 26.2111 23 25.2379V25C23 23.8954 23.8954 23 25 23H38C39.1046 23 40 23.8954 40 25V25.7116C40 26.4232 39.4232 27 38.7116 27C37.8546 27 37.2364 27.8212 37.4735 28.6448L45.6089 56.9047C45.8806 57.8485 47.208 57.876 47.5186 56.9443Z" fill="#2F0C1D" stroke="white"/>
</g>
<defs>
<clipPath id="clip0_4_18">
<rect width="90" height="90" fill="white"/>
</clipPath>
</defs>
</svg>
