<svg width="90" height="90" fill="none" xmlns="http://www.w3.org/2000/svg"><circle cx="45" cy="45" r="45" fill="#E31E24"/><path d="M45 79c18.778 0 34-15.222 34-34S63.778 11 45 11 11 26.222 11 45s15.222 34 34 34Z" fill="#F6A30C"/><path fill-rule="evenodd" clip-rule="evenodd" d="M75.762 44.683a29.979 29.979 0 0 0-3.042-13.195L61.35 70.466a30.41 30.41 0 0 0 14.412-25.783ZM14.345 44.683a29.977 29.977 0 0 1 3.043-13.195l11.37 38.978a30.412 30.412 0 0 1-14.413-25.783ZM45 61.956l12.757-44.07a1.358 1.358 0 0 0-.798-1.632 31.878 31.878 0 0 0-23.918 0 1.353 1.353 0 0 0-.793 1.633L45 61.956Z" fill="#E31E24"/></svg>