<svg xmlns="http://www.w3.org/2000/svg" width="90" height="90" fill="none"><circle cx="45" cy="45" r="45" fill="#EFFFCF"/><path fill="#3A7240" d="M23.257 46.407c-5.113 0-9.257-4.015-9.257-8.972v-5.479h5.02c5.113 0 9.257 4.016 9.257 8.968v5.483h-5.02ZM52.877 33.705V26h-6.811c-.851 0-1.7.086-2.535.254a12.562 12.562 0 0 0-7.162 4.332c-.507.628-.954 1.301-1.334 2.013-1 1.844-1.521 3.91-1.516 6.01v7.705h6.794c3.332 0 6.528-1.329 8.884-3.693a12.63 12.63 0 0 0 3.68-8.916Z"/><path fill="#A5CD38" d="M62.632 26h-2.836v7.705a19.607 19.607 0 0 1-5.713 13.818 19.471 19.471 0 0 1-13.77 5.733H33.5v2.503c-.002 1.657.32 3.299.951 4.83a12.612 12.612 0 0 0 2.723 4.097 12.563 12.563 0 0 0 4.078 2.738c1.526.634 3.161.961 4.813.961h16.566c1.652 0 3.287-.327 4.813-.961a12.563 12.563 0 0 0 4.078-2.738 12.645 12.645 0 0 0 3.674-8.927v-17.15a12.63 12.63 0 0 0-3.68-8.916A12.543 12.543 0 0 0 62.632 26Z"/></svg>