<svg xmlns="http://www.w3.org/2000/svg" width="90" height="90" fill="none"><g clip-path="url(#a)"><circle cx="45" cy="45" r="45" fill="#F1EDFF"/><path fill="#45269B" d="M14.003 44.639h3.72c.279-.001.557.042.823.127a1.785 1.785 0 0 1 .992 2.49c-.184.33-.48.582-.837.71.038.12.152.107.229.139a1.47 1.47 0 0 1 .985 1.353 2.18 2.18 0 0 1-.409 1.492c-.158.22-.379.387-.634.478-.44.157-.904.232-1.371.222H14l.003-7.011Zm2.677 5.452h.466a.802.802 0 0 0 .437-.13.606.606 0 0 0 .247-.633.634.634 0 0 0-.59-.504c-.348-.025-.7 0-1.048-.016-.104 0-.155.038-.152.143v.982c0 .101.041.152.146.149l.494.01Zm-.063-2.775h.513a.582.582 0 1 0 .041-1.163c-.317-.035-.659 0-.988-.015-.105 0-.152.04-.15.145.004.105 0 .266 0 .403 0 .193-.078.44.036.57.114.13.396.022.548.05v.01Z"/><path fill="#DF5F00" d="M38.3 47.48c-.681.178-1.383.26-2.085.245-1.23 0-2.459 0-3.688.019h-.215c-.045 0-.099.019-.099.06v.494c0 .044.051.06.095.063H38.195c.07 0 .13.045.13.134v1.33c0 .108-.058.146-.156.143h-5.617a1.76 1.76 0 0 1-.184 0c-.117 0-.174.04-.167.161.006.12 0 .146 0 .219v3.871a.132.132 0 0 1-.09.147.132.132 0 0 1-.062.005H30.65c-.101 0-.152-.044-.152-.149v-3.966c0-.285 0-.279-.285-.291a2.217 2.217 0 0 1-.706-.035v-1.546c.193-.025.388-.032.583-.023.465 0 .405.096.412-.43v-.032c0-.124-.051-.155-.165-.159a5.182 5.182 0 0 1-.83-.022v-1.584c.266-.04.536-.05.804-.028.15 0 .206-.054.194-.2v-6.434c-.007-.469-.007-.469.475-.469h5.579c.444-.012.887.011 1.327.07a3.677 3.677 0 0 1 2.972 2.297 4.719 4.719 0 0 1-.165 4.286 2.75 2.75 0 0 1-.684.868c-.276-.513-.491-1.055-.741-1.584a.788.788 0 0 0-.184-.317 3.447 3.447 0 0 0 .101-2.42 2.534 2.534 0 0 0-.884-1.239 1.777 1.777 0 0 0-1.15-.285h-4.707c-.238 0-.244 0-.244.237v4.946c0 .247 0 .25.266.25h4.679c.124 0 .246-.02.364-.057.29.46.553.936.79 1.426Z"/><path fill="#45269B" d="m67.35 49.049-.633.903a.466.466 0 0 0-.044.27v1.21c0 .164-.06.212-.216.212h-1.616c-.161 0-.221-.06-.212-.219.01-.158 0-.225 0-.339v-6.298c0-.063.038-.152.146-.152h1.736c.184 0 .155.123.155.234v2.535a.57.57 0 0 0 .235-.263c.507-.754 1.013-1.511 1.51-2.272a.456.456 0 0 1 .448-.247c.525.02 1.051 0 1.584 0 .038.13-.054.19-.105.26-.478.7-.95 1.4-1.445 2.09a.358.358 0 0 0-.038.422c.66 1.312 1.305 2.627 1.955 3.941.032.064.041.143.152.178.06-.18.124-.358.177-.542a772.51 772.51 0 0 0 1.876-6.07c.098-.317.057-.276.38-.279H75.1c.263 0 .263-.047.36.266l1.712 5.437.342 1.096a.22.22 0 0 1 0 .184.74.74 0 0 1-.301.022h-1.521c-.298 0-.301.073-.396-.292-.076-.288-.171-.573-.244-.865-.035-.152-.098-.224-.27-.221h-1.488a.225.225 0 0 0-.263.193c-.086.317-.187.634-.285.95a.288.288 0 0 1-.317.241c-1.202-.013-2.4-.013-3.596 0a.317.317 0 0 1-.348-.231c-.308-.678-.624-1.347-.941-2.021a1.027 1.027 0 0 0-.194-.333Zm7.227-.34c-.18-.652-.352-1.266-.526-1.9a16.996 16.996 0 0 0-.558 1.9h1.084ZM59.48 48.561a.067.067 0 0 0 .09-.047 31.69 31.69 0 0 1 1.584-2.81c.137-.242.201-.518.183-.796 0-.266 0-.269.266-.272h1.553c.263 0 .266 0 .266.279V51.5c0 .082-.038.152-.146.152h-1.8c-.107 0-.145-.057-.142-.155.003-.098 0-.124 0-.187 0-1.137-.019-2.275.02-3.409 0-.038 0-.082-.02-.11-.019-.03-.057.015-.07.04-.434.903-.95 1.755-1.47 2.617-.186.274-.278.6-.262.932.022.266 0 .269-.27.272h-1.584c-.237 0-.24 0-.244-.24v-6.391a1.82 1.82 0 0 0 0-.187c0-.155.06-.193.2-.19h1.736c.12 0 .171.048.165.165v.187c0 1.147.038 2.294-.045 3.44-.01.038-.01.07-.01.124ZM47.379 49.185a2.49 2.49 0 0 1-1.584.469 3.26 3.26 0 0 1-.583-.076 1.87 1.87 0 0 1-1.553-1.87c-.031-.785 0-1.583 0-2.356v-.558c0-.12.051-.158.165-.158h1.8c.152 0 .193.054.19.2v2.385c0 .145.009.29.025.434.044.291.15.386.447.418.31.026.622-.014.915-.117a.256.256 0 0 0 .203-.292v-2.819c0-.136.025-.21.187-.21h1.796c.13 0 .197.042.184.178V51.48c0 .117-.054.165-.168.161h-1.83c-.172 0-.166-.107-.166-.224v-2.218l-.028-.013ZM20.799 48.143V44.92c0-.282 0-.285.291-.285h1.55c.24 0 .243 0 .243.237v1.952c0 .272 0 .272.273.276.475 0 .95 0 1.425.019.154.004.308.02.46.047a1.901 1.901 0 0 1 1.692 1.879 2.534 2.534 0 0 1-.41 1.65 2.162 2.162 0 0 1-1.532.89c-.267.04-.536.059-.805.054h-2.912c-.269 0-.275 0-.275-.275v-3.222Zm2.075 1.178v.434c0 .349 0 .317.317.317h.526c.662.02.912-.187.81-1a.507.507 0 0 0-.522-.476h-.95c-.118 0-.172.044-.168.165-.013.187-.013.38-.013.56ZM56.798 51.64h-1.654c-.171 0-.377.07-.513-.038-.137-.107-.118-.316-.171-.484a5.88 5.88 0 0 1-.181-.656c-.032-.155-.11-.197-.26-.197h-1.517a.214.214 0 0 0-.212.108.212.212 0 0 0-.026.08c-.092.338-.2.671-.298 1.007-.031.108-.07.187-.206.184h-1.533c-.063-.099 0-.165 0-.228.663-2.15 1.326-4.292 1.99-6.425a1.7 1.7 0 0 0 .063-.206.175.175 0 0 1 .13-.146.175.175 0 0 1 .07-.003h1.951c.174 0 .203.098.24.222.251.795.505 1.584.755 2.392a535.91 535.91 0 0 0 1.29 4.118c.025.063.056.142.082.272Zm-2.975-2.924-.53-1.9h-.056l-.52 1.9h1.106ZM38.3 47.48c-.237-.489-.5-.965-.79-1.425l-.757-1.429h2.332a.79.79 0 0 1 .184.317c.25.523.465 1.065.741 1.584.091.251.197.497.317.735.11-.035.101-.133.13-.203.278-.735.56-1.466.826-2.217a.276.276 0 0 1 .317-.212h1.603c.051.133-.025.221-.06.316-.648 1.61-1.299 3.22-1.951 4.829a4.79 4.79 0 0 1-.317.633 2.256 2.256 0 0 1-1.952 1.226h-1.115c-.133 0-.184-.05-.184-.184v-1.207c0-.142.067-.17.19-.17.31.016.62.002.926-.042a.847.847 0 0 0 .58-.374.282.282 0 0 0 0-.317c-.333-.614-.675-1.238-1.02-1.86ZM29.505 48.384v1.546c-.051.453 0 .909-.023 1.362v.187a.146.146 0 0 1-.174.161h-1.73c-.133 0-.193-.044-.187-.177a1.82 1.82 0 0 0 0-.187V44.94a.837.837 0 0 0 0-.127c0-.152.06-.19.203-.19h1.67c.212 0 .221 0 .221.235v1.118c0 .05 0 .101.016.155v1.584c-.024.222-.023.447.004.669ZM58.59 42.326h.783c.086 0 .124.06.162.124.047.08.1.156.158.228a.91.91 0 0 0 1.52-.07.487.487 0 0 1 .546-.282.796.796 0 0 0 .123 0c.45 0 .45 0 .282.409a1.854 1.854 0 0 1-3.485-.054.804.804 0 0 1-.088-.355Z"/></g><defs><clipPath id="a"><path fill="#fff" d="M0 0h90v90H0z"/></clipPath></defs></svg>