<svg width="90" height="90" viewBox="0 0 90 90" fill="none" xmlns="http://www.w3.org/2000/svg">
<g clip-path="url(#clip0_3210_1819)">
<circle cx="45" cy="45" r="45" fill="#F5F5F5"/>
<path d="M61.9605 38.4433C61.9605 43.4577 61.4772 49.6199 56.2816 53.7884C52.7172 56.6883 48.1862 57.1716 43.8364 57.1716C40.0907 57.1716 35.1368 56.8695 31.3912 53.7884C26.1956 49.5594 25.7123 43.4577 25.7123 38.4433L26.4977 27.2668H22.6312C21.9666 27.2668 21 27.5688 21 25.6356V21.6483C21 19.7151 21.9666 20.0171 22.6312 20.0171H35.0764C35.741 20.0171 36.7076 19.7151 36.7076 21.6483V27.3272L35.9222 38.5037C35.9222 41.1015 35.1368 49.0157 43.8364 49.0157C51.4485 49.0157 51.7506 43.0348 51.7506 38.5037L50.9652 27.3272V21.6483C50.9652 19.7151 51.9318 20.0171 52.5964 20.0171H65.0416C65.7062 20.0171 66.6728 19.7151 66.6728 21.6483V25.696C66.6728 27.6293 65.7062 27.3272 65.0416 27.3272H61.1751L61.9605 38.4433Z" fill="#93C01F"/>
<path d="M59.0606 57.2319C56.4628 59.3464 53.3817 60.4339 50.4818 61.0984C49.5152 63.3337 47.5819 64.9649 43.5342 64.9649C38.2178 64.9649 35.8013 61.5817 35.8013 60.7359L35.1367 58.9839C35.1367 58.9839 34.9555 58.1986 33.868 58.5006C33.0826 58.6819 26.9204 60.2526 26.4371 60.4339C25.9538 60.6151 25.4705 61.0984 25.6518 61.7026C25.9538 63.3337 27.2829 66.2336 31.1494 69.6167C34.8951 72.6978 39.849 72.9999 43.5946 72.9999C47.9444 72.9999 52.4755 72.5166 56.0399 69.6167C61.0542 65.569 61.7188 59.4068 61.7188 54.5737C60.9938 55.4195 60.2084 56.3861 59.0606 57.2319Z" fill="#262B5E"/>
</g>
<defs>
<clipPath id="clip0_3210_1819">
<rect width="90" height="90" fill="white"/>
</clipPath>
</defs>
</svg>
