<svg width="90" height="90" viewBox="0 0 90 90" fill="none" xmlns="http://www.w3.org/2000/svg">
<circle cx="45" cy="45" r="45" fill="#18762A"/>
<path d="M73.4087 48.0708C73.7847 47.4989 73.9987 46.8603 73.9987 46.1794C73.9987 43.6714 71.1727 41.7063 67.5659 41.7063C65.2262 41.7063 63.2204 42.5363 62.0963 43.8024V41.649V37.5854C62.0963 36.8809 61.5209 36.309 60.8121 36.309H56.8865H56.7571L54.3669 30.1697L53.4536 27.8257L52.2285 24.6775C52.0146 24.1323 51.3981 23.8601 50.8487 24.0719L47.8081 25.2416L45.4218 26.1594L24.1129 34.3581L21.6232 35.3159L18.6852 36.4463C18.2439 36.6158 17.9858 37.0449 18.0103 37.4897C18.0079 37.5226 18 37.5532 18 37.5862V41.7643V44.8387V53.2696V56.3439V60.1361C18 60.8406 18.5755 61.4125 19.2843 61.4125H23.4719H26.4794H53.7212H56.7287H60.8137C61.5225 61.4125 62.0979 60.8406 62.0979 60.1361V59.9046C63.222 61.17 65.2278 62 67.5675 62C71.174 62 74 60.0349 74 57.5261C74 56.8452 73.786 56.2074 73.4107 55.6355C73.786 55.0629 74 54.4251 74 53.7441C74 53.0632 73.786 52.4254 73.4107 51.8528C73.786 51.2809 74 50.6423 74 49.9614C74 49.2805 73.7847 48.6434 73.4087 48.0708ZM50.6245 26.4332L51.773 29.3836H51.7723C50.1722 29.9995 48.3669 29.2063 47.7473 27.6162C47.7378 27.5934 47.7323 27.5707 47.7244 27.5487L50.6245 26.4332ZM45.7352 28.3136C45.7439 28.3356 45.7494 28.3591 45.7573 28.3811C46.8016 31.0616 49.8446 32.3984 52.5419 31.3597H52.5435L54.4703 36.309H53.8041H42.1088C40.523 33.838 38.0689 32.5859 35.9841 33.3876C34.7685 33.8552 33.9365 34.9268 33.5505 36.309H26.2915H25.4895C25.4635 36.2494 25.4366 36.1914 25.4098 36.1317L45.7352 28.3136ZM39.3579 36.309H35.8468C36.0757 35.8501 36.382 35.5081 36.7537 35.3653C37.4571 35.0955 38.4501 35.4516 39.3579 36.309ZM20.5686 42.8791V38.8625H20.7699H23.6629H24.4041C24.412 38.9614 24.4199 39.0602 24.4199 39.1614C24.4199 41.2144 22.7393 42.8846 20.6736 42.8846C20.6373 42.8846 20.6033 42.8799 20.5686 42.8791ZM20.5686 58.8598V55.2292C20.6033 55.2284 20.6381 55.2237 20.6736 55.2237C22.7101 55.2237 24.3694 56.8475 24.4152 58.8598H20.5686ZM59.5277 58.8598H55.7846C55.8311 56.8475 57.4896 55.2237 59.5262 55.2237H59.5277V58.8598ZM59.5277 52.6702H59.5262C56.0727 52.6702 53.2625 55.4394 53.216 58.8598H26.9838C26.9688 57.7897 26.6838 56.784 26.1936 55.9062C25.7311 55.0801 25.0838 54.3717 24.311 53.8273C23.2817 53.1017 22.0281 52.6702 20.6736 52.6702C20.6381 52.6702 20.6041 52.6749 20.5686 52.6757V45.4318C20.6041 45.4326 20.6381 45.4373 20.6736 45.4373C20.7959 45.4373 20.9159 45.4255 21.0367 45.4192C21.7771 45.3768 22.486 45.2152 23.1372 44.9399C25.3987 43.9837 26.9885 41.7541 26.9885 39.1614C26.9885 39.0602 26.9775 38.9622 26.9727 38.8625H33.3319H35.4813H41.0227H43.2731H52.4953H53.2175C53.2168 38.8916 53.2128 38.9198 53.2128 38.9488C53.2128 39.7655 53.3755 40.5437 53.662 41.2599C53.8759 41.7965 54.1648 42.2946 54.5113 42.7473C54.9999 43.3827 55.6062 43.9208 56.2993 44.3327C57.2449 44.8952 58.3477 45.2247 59.5277 45.2247H59.5293V52.6702H59.5277ZM59.5277 42.672H59.5262C59.3778 42.672 59.2373 42.6453 59.0936 42.628C57.2339 42.4123 55.7799 40.8543 55.7799 38.9488C55.7799 38.9198 55.7838 38.8916 55.7846 38.8625H57.7533H59.5277V42.672ZM67.5659 60.0302C64.9428 60.0302 63.1147 58.7107 63.1147 57.5269C63.1147 57.3716 63.1501 57.2139 63.2109 57.0563C64.3492 57.7788 65.8679 58.2173 67.5659 58.2173C69.2622 58.2173 70.782 57.7788 71.9207 57.057C71.9807 57.2139 72.016 57.3716 72.016 57.5269C72.0153 58.7107 70.1889 60.0302 67.5659 60.0302ZM71.92 54.2148C71.7147 54.7444 71.168 55.2551 70.3879 55.6355C69.6395 56.0011 68.6821 56.2474 67.5659 56.2474C66.4505 56.2474 65.4922 56.0011 64.7439 55.6355C63.964 55.2551 63.4162 54.7444 63.2117 54.2148C63.1509 54.0579 63.1154 53.9002 63.1154 53.7441C63.1154 53.5888 63.1509 53.4312 63.2117 53.2743C63.4864 53.4484 63.7817 53.6061 64.0974 53.7449C65.0936 54.1819 66.2784 54.4353 67.5667 54.4353C68.8549 54.4353 70.0397 54.1811 71.036 53.7449C71.352 53.6061 71.6467 53.4484 71.9213 53.2743C71.9827 53.4312 72.018 53.5888 72.018 53.7441C72.016 53.9002 71.9807 54.0579 71.92 54.2148ZM63.1147 49.9614C63.1147 49.8061 63.1501 49.6484 63.2109 49.4907C63.4857 49.6648 63.7809 49.8225 64.0974 49.9614C65.0928 50.3975 66.2776 50.6517 67.5659 50.6517C68.8541 50.6517 70.0389 50.3975 71.0353 49.9614C71.3507 49.8225 71.646 49.6656 71.9207 49.4915C71.9807 49.6484 72.016 49.8053 72.016 49.9614C72.016 50.1175 71.9807 50.2744 71.92 50.432C71.7153 50.9616 71.168 51.4723 70.3887 51.8535C69.6403 52.2191 68.6828 52.4654 67.5667 52.4654C66.4513 52.4654 65.493 52.2191 64.7447 51.8535C63.9656 51.4731 63.417 50.9616 63.2125 50.432C63.1501 50.2751 63.1147 50.1175 63.1147 49.9614ZM71.92 46.65C71.7147 47.1796 71.168 47.6903 70.3879 48.0715C69.6395 48.4371 68.6821 48.6835 67.5659 48.6835C66.4505 48.6835 65.4922 48.4371 64.7439 48.0715C63.964 47.6911 63.4162 47.1796 63.2117 46.65C63.1509 46.4932 63.1154 46.3355 63.1154 46.1794C63.1154 44.9964 64.9436 43.6769 67.5667 43.6769C70.1897 43.6769 72.018 44.9964 72.018 46.1794C72.016 46.3347 71.9807 46.4924 71.92 46.65Z" fill="white"/>
<path d="M45.6271 46.1638C45.2743 44.5078 44.5709 43.0918 43.6371 42.0688C43.0064 41.3777 42.2715 40.8717 41.464 40.5947C41.0109 40.4394 40.5381 40.3484 40.0463 40.3484C38.7233 40.3484 37.5211 40.9517 36.5518 41.9676C36.0481 42.4964 35.6085 43.1341 35.2509 43.866C34.5957 45.2068 34.2129 46.8447 34.2129 48.6349C34.2129 49.2782 34.2665 49.9003 34.3605 50.4981C34.4757 51.2315 34.6525 51.9266 34.8917 52.5675C35.8627 55.1791 37.7848 56.9221 40.0471 56.9221C43.319 56.9221 45.8821 53.2822 45.8821 48.6357C45.8821 48.5376 45.8742 48.4419 45.8718 48.3439C45.8537 47.5853 45.7731 46.8534 45.6271 46.1638ZM40.0463 54.3687C39.0217 54.3687 37.9229 53.3269 37.2969 51.6418C37.0673 51.0245 36.9039 50.32 36.8297 49.5481C36.8012 49.2523 36.7815 48.9494 36.7815 48.6349C36.7815 47.5421 36.9631 46.5591 37.2591 45.7253C37.5298 44.9627 37.8961 44.3265 38.3113 43.8535C38.8457 43.2447 39.4582 42.9019 40.0455 42.9019C40.4071 42.9019 40.7781 43.0353 41.1341 43.2761C41.6685 43.637 42.1681 44.2496 42.5541 45.0561C42.8359 45.6437 43.0554 46.3332 43.1833 47.1044C43.2637 47.5861 43.3111 48.0968 43.3111 48.6357C43.3111 48.8765 43.3001 49.1095 43.2835 49.3394C43.0664 52.3361 41.4814 54.3687 40.0463 54.3687Z" fill="white"/>
</svg>
