<svg width="90" height="90" fill="none" xmlns="http://www.w3.org/2000/svg"><circle cx="45" cy="45" r="45" fill="#F8DA5E"/><path d="M26.398 54.376c-.2-.22-.372-.462-.514-.722a2.575 2.575 0 0 1 0-1.753c.104-.282.282-.53.514-.722L55.423 22.05c.22-.2.462-.373.722-.514a2.534 2.534 0 0 1 1.753 0c.282.104.531.282.722.514l17.322 17.375c.2.215.374.454.517.71a2.568 2.568 0 0 1 0 1.751 1.695 1.695 0 0 1-.517.722L46.919 71.737c-.207.202-.454.36-.724.464-.28.106-.577.158-.875.154-.299 0-.595-.053-.876-.154a2.115 2.115 0 0 1-.721-.464L26.398 54.376Z" fill="#F8DA5E"/><path d="M26.398 54.376c-.2-.22-.372-.462-.514-.722a2.575 2.575 0 0 1 0-1.753c.104-.282.282-.53.514-.722L55.423 22.05c.22-.2.462-.373.722-.514a2.534 2.534 0 0 1 1.753 0c.282.104.531.282.722.514l17.322 17.375c.2.215.374.454.517.71a2.568 2.568 0 0 1 0 1.751 1.695 1.695 0 0 1-.517.722L46.919 71.737c-.207.202-.454.36-.724.464-.28.106-.577.158-.875.154-.299 0-.595-.053-.876-.154a2.115 2.115 0 0 1-.721-.464L26.398 54.376Z" fill="#fff"/><path d="M26.398 54.376c-.2-.22-.372-.462-.514-.722a2.575 2.575 0 0 1 0-1.753c.104-.282.282-.53.514-.722L55.423 22.05c.22-.2.462-.373.722-.514a2.534 2.534 0 0 1 1.753 0c.282.104.531.282.722.514l17.322 17.375c.2.215.374.454.517.71a2.568 2.568 0 0 1 0 1.751 1.695 1.695 0 0 1-.517.722L46.919 71.737c-.207.202-.454.36-.724.464-.28.106-.577.158-.875.154-.299 0-.595-.053-.876-.154a2.115 2.115 0 0 1-.721-.464L26.398 54.376Z" fill="#F8DA5E"/><path d="M26.398 54.376c-.2-.22-.372-.462-.514-.722a2.575 2.575 0 0 1 0-1.753c.104-.282.282-.53.514-.722L55.423 22.05c.22-.2.462-.373.722-.514a2.534 2.534 0 0 1 1.753 0c.282.104.531.282.722.514l17.322 17.375c.2.215.374.454.517.71a2.568 2.568 0 0 1 0 1.751 1.695 1.695 0 0 1-.517.722L46.919 71.737c-.207.202-.454.36-.724.464-.28.106-.577.158-.875.154-.299 0-.595-.053-.876-.154a2.115 2.115 0 0 1-.721-.464L26.398 54.376Z" fill="#fff"/><path d="M45.32 73.753a4.025 4.025 0 0 1-1.315-.227 3.634 3.634 0 0 1-1.264-.8L25.417 55.353a4.91 4.91 0 0 1-.722-.993l-.095-.185a3.969 3.969 0 0 1 0-2.796c.195-.5.516-.941.931-1.281l28.914-29.023c.29-.28.617-.52.97-.715l.218-.11a3.988 3.988 0 0 1 2.777 0c.505.195.95.518 1.292.937l17.221 17.272c.281.297.523.627.722.984l.1.202c.34.894.34 1.882 0 2.776a3.076 3.076 0 0 1-.94 1.295L47.902 72.727a3.556 3.556 0 0 1-1.194.772 3.768 3.768 0 0 1-1.387.254ZM27.383 53.4l17.319 17.372c.074.066.16.119.254.154.235.077.49.077.724 0a.811.811 0 0 0 .263-.16l29.23-29.38c.04-.117.059-.24.056-.364 0-.094-.011-.188-.034-.28a2.217 2.217 0 0 0-.232-.33l-17.576-17.59a1.52 1.52 0 0 0-.652-.025 1.853 1.853 0 0 0-.327.23L27.168 52.42a1.03 1.03 0 0 0-.054.355c0 .094.01.188.034.28.065.123.144.238.235.344Z" fill="#030608"/><path d="M46.539 71.988c-.214.196-.45.365-.705.504a2.365 2.365 0 0 1-.858.15 2.556 2.556 0 0 1-.856-.15 1.677 1.677 0 0 1-.705-.504L15.04 43.573a2.183 2.183 0 0 1 0-3.118l16.978-16.95c.213-.196.45-.365.704-.504.274-.103.564-.154.856-.15.293 0 .583.051.858.15.275.104.518.277.705.504L63.522 51.92a2.177 2.177 0 0 1 0 3.118L46.54 71.989Z" fill="#F8DA5E"/><path d="M46.539 71.988c-.214.196-.45.365-.705.504a2.365 2.365 0 0 1-.858.15 2.556 2.556 0 0 1-.856-.15 1.677 1.677 0 0 1-.705-.504L15.04 43.573a2.183 2.183 0 0 1 0-3.118l16.978-16.95c.213-.196.45-.365.704-.504.274-.103.564-.154.856-.15.293 0 .583.051.858.15.275.104.518.277.705.504L63.522 51.92a2.177 2.177 0 0 1 0 3.118L46.54 71.989Z" fill="#fff"/><path d="M44.976 74.027c-.441 0-.879-.075-1.295-.22a3.118 3.118 0 0 1-1.348-.952L14.06 44.551a3.568 3.568 0 0 1 0-5.075l16.986-16.959a5.05 5.05 0 0 1 .97-.707l.207-.1a3.834 3.834 0 0 1 2.651-.031c.53.19 1 .519 1.357.953l28.273 28.304a3.57 3.57 0 0 1 0 5.076L47.518 72.964a4.962 4.962 0 0 1-.98.713l-.192.095c-.437.17-.902.256-1.37.255ZM33.415 24.246a.472.472 0 0 0-.168.061c-.085.05-.166.109-.24.174l-16.99 16.955a.812.812 0 0 0-.248.576.839.839 0 0 0 .248.582L44.394 71.01a.76.76 0 0 0 .576.251c.157 0 .31-.046.44-.134a1.19 1.19 0 0 0 .153-.12l16.983-16.95a.801.801 0 0 0 .25-.579.839.839 0 0 0-.25-.579L34.17 24.475l-.05-.05a.594.594 0 0 0-.303-.182 1.161 1.161 0 0 0-.402.003Z" fill="#030608"/><path d="M51.33 61.398a1.605 1.605 0 1 0 0-3.21 1.605 1.605 0 0 0 0 3.21ZM60.862 23.896 48.37 36.39l4.542 4.542 12.493-12.494-4.542-4.542Z" fill="#000"/></svg>