<svg width="90" height="90" fill="none" xmlns="http://www.w3.org/2000/svg"><path d="M90 45c0 24.853-20.147 45-45 45S0 69.853 0 45 20.147 0 45 0s45 20.147 45 45Z" fill="#DDF4F8"/><g clip-path="url(#a)"><path d="m50.498 35.872 6.797 9.082c1.945 2.65 3.892 5.298 5.84 7.945 2.206 2.978 4.42 5.95 6.64 8.918a.655.655 0 0 1 .136.815c-1.772 3.376-3.524 6.767-5.28 10.148 0 .036-.058.061-.084.087-1.394-1.872-2.8-3.75-4.214-5.635-1.145-1.537-2.274-3.074-3.42-4.61a4.852 4.852 0 0 0-.423-.44c-.094-.14-.183-.278-.282-.41L44.433 45.947c-.732-.984-.737-.989 0-1.978l6.065-8.098Z" fill="#01E4B8"/><path d="M31.98 50.778V38.356H21v23.892h10.933v-11.47h.047Z" fill="#2E5A7C"/><path d="M31.98 17v10.711h24.484c.089-.123 5.364-7.258 7.931-10.711H31.98Z" fill="#276DCC"/><path d="m64.395 17-.162.195c-2.53 3.415-5.063 6.83-7.597 10.245-.068.087 0 0-.204.282h13.542L64.395 17Z" fill="#1789B5"/><path d="M56.427 27.716c-2.206 2.961-3.754 5.24-5.96 8.197l6.724 9.04c4.846-6.561 11.58-15.577 12.762-17.262l-13.526.025Z" fill="#1B689F"/><path d="M21 27.66v10.69h10.98V27.66H21Z" fill="#01E4B8"/><path d="m60.965 68.093-.632-.846c-.664-.886-1.323-1.777-1.982-2.663l-1.438-1.942a2.111 2.111 0 0 0-.203-.225l-.157-.17H31.917v10.466c.063.21.214.292.575.287h31.475a.85.85 0 0 0 .564-.118l-3.566-4.79Z" fill="#2B56B8"/><path d="M56.898 62.693c1.145 1.537 2.29 3.023 3.435 4.554 1.394 1.875 2.799 3.754 4.214 5.635a.212.212 0 0 0 .084-.082c1.756-3.386 3.508-6.777 5.28-10.153a.63.63 0 0 0 .084-.384H56.553c.127.134.242.278.345.43Z" fill="#14B2C6"/></g><defs><clipPath id="a"><path fill="#fff" transform="translate(21 17)" d="M0 0h49v56H0z"/></clipPath></defs></svg>