<svg width="90" height="90" viewBox="0 0 90 90" fill="none" xmlns="http://www.w3.org/2000/svg">
<circle cx="45" cy="45" r="45" fill="#00AAAE"/>
<g clip-path="url(#clip0_411_50)">
<path d="M27.7226 50C27.6197 49.9769 27.5143 49.9635 27.4082 49.9599C26.6081 49.8669 25.8589 49.5578 25.2612 49.074C24.7114 48.6268 24.2947 48.0648 24.0484 47.4383C23.8549 46.9496 23.7473 46.4371 23.7295 45.919C23.6968 45.382 23.7376 44.8436 23.8508 44.3154C24.0011 43.5627 24.3714 42.8588 24.9243 42.2749C25.5451 41.6295 26.4036 41.203 27.3453 41.0722C28.1513 40.9378 28.9822 40.986 29.7619 41.2125C30.2856 41.3689 30.7652 41.6247 31.1678 41.9622C31.9014 42.5873 32.3897 43.4069 32.5602 44.2994C32.6508 44.7516 32.6854 45.2114 32.6635 45.6704C32.6529 46.3822 32.485 47.0852 32.1694 47.739C31.7818 48.5521 31.0829 49.2157 30.1976 49.6112C29.7071 49.8257 29.1748 49.9537 28.63 49.988C28.63 49.988 28.594 49.988 28.5895 49.988L27.7226 50ZM30.8084 45.3738V45.2775C30.806 45.2468 30.806 45.216 30.8084 45.1853C30.7903 44.7503 30.6916 44.3209 30.5165 43.9145C30.3425 43.4959 30.029 43.135 29.6181 42.8802C29.1275 42.6121 28.5496 42.5005 27.9787 42.5635C27.373 42.5984 26.8076 42.8464 26.4066 43.253C26.0536 43.6098 25.8065 44.0398 25.6879 44.5038C25.5659 44.9781 25.531 45.4668 25.5846 45.951C25.6176 46.431 25.7711 46.8982 26.0338 47.3181C26.2736 47.7214 26.6469 48.049 27.1028 48.2562C27.5364 48.434 28.0174 48.4993 28.4907 48.4446C29.0531 48.4106 29.5821 48.1938 29.9775 47.8352C30.3147 47.5141 30.553 47.1204 30.6692 46.6927C30.7849 46.2611 30.8318 45.8171 30.8084 45.3738Z" fill="white"/>
<path d="M49.211 50.0001C49.1458 49.9807 49.0775 49.9712 49.0089 49.972C48.1767 49.9018 47.3907 49.5987 46.763 49.1061C46.1385 48.607 45.6814 47.963 45.4424 47.2459C45.3022 46.8357 45.2192 46.4115 45.1954 45.9831C45.1477 45.3176 45.2159 44.6496 45.3975 44.0027C45.5787 43.3651 45.9231 42.7736 46.4037 42.2749C47.0119 41.6425 47.8468 41.2175 48.7663 41.0722C49.1616 41.0067 49.564 40.9825 49.9656 41.0001C50.9158 41.0104 51.8311 41.3215 52.5483 41.878C53.1578 42.3587 53.6095 42.9781 53.8554 43.67C54.0103 44.1038 54.0994 44.5541 54.1204 45.009C54.1775 45.7152 54.1031 46.425 53.9003 47.1096C53.7142 47.7466 53.3582 48.3339 52.8627 48.8214C52.1748 49.502 51.2225 49.9234 50.1992 50.0001C50.1497 50.0001 50.0914 50.0001 50.0464 50.0201L49.211 50.0001ZM52.2968 45.4339C52.2971 45.2665 52.2866 45.0992 52.2653 44.9328C52.2172 44.4731 52.0643 44.027 51.8162 43.6219C51.5691 43.2009 51.1588 42.8746 50.6618 42.7038C50.2541 42.5709 49.8175 42.5242 49.3862 42.5675C48.8571 42.6165 48.3635 42.8276 47.9892 43.1649C47.6181 43.4984 47.3516 43.9131 47.2167 44.3675C47.0671 44.8554 47.0154 45.363 47.0639 45.8669C47.0903 46.3707 47.2438 46.8627 47.5131 47.3061C47.7698 47.7475 48.1883 48.0971 48.6989 48.2963C49.1149 48.4444 49.5671 48.4928 50.0105 48.4366C50.3822 48.4077 50.7408 48.3005 51.0571 48.1239C51.5079 47.8575 51.8499 47.4678 52.0318 47.0134C52.2292 46.5062 52.3191 45.9705 52.2968 45.4339Z" fill="white"/>
<path d="M14.6383 46.8931C14.7596 46.5123 14.8719 46.1435 14.9886 45.7786C15.2132 45.041 15.4393 44.306 15.6669 43.5737C15.9094 42.772 16.1565 41.9902 16.4035 41.1965C16.4035 41.1484 16.435 41.1363 16.4889 41.1363H17.9262C17.9801 41.1363 17.9981 41.1363 18.0116 41.1965C18.3529 42.3631 18.6988 43.5296 19.0402 44.6962L19.6465 46.7528L19.678 46.841C19.7768 46.5003 19.8666 46.1715 19.961 45.8388C20.3802 44.3769 20.7964 42.9136 21.2097 41.449L21.2905 41.1844C21.2905 41.1484 21.3175 41.1363 21.3534 41.1363H23.1501C23.2085 41.1363 23.204 41.1363 23.1905 41.1925C23.0333 41.7056 22.8806 42.2187 22.7413 42.7319C22.4224 43.7582 22.1125 44.7884 21.7801 45.8107C21.5151 46.6927 21.2456 47.5706 20.9806 48.4526C20.8458 48.9016 20.7066 49.3506 20.5718 49.7996C20.5718 49.8477 20.5404 49.8677 20.482 49.8677H18.8515C18.7931 49.8677 18.7752 49.8677 18.7617 49.8036C18.4787 48.8575 18.1912 47.9154 17.9083 46.9693C17.6597 46.1675 17.4157 45.3657 17.1761 44.5639L17.1492 44.4798L17.0099 44.9288C16.6955 45.959 16.3856 46.9893 16.0711 48.0196L15.5276 49.8196C15.5276 49.8717 15.4917 49.8838 15.4333 49.8838H13.8028C13.791 49.8885 13.778 49.8905 13.7651 49.8896C13.7522 49.8887 13.7398 49.8848 13.729 49.8784C13.7182 49.872 13.7094 49.8632 13.7035 49.8529C13.6975 49.8426 13.6946 49.8312 13.695 49.8196C13.3761 48.7893 13.0482 47.759 12.7248 46.7288C12.4733 45.8976 12.2202 45.0691 11.9657 44.2432L11 41.2165C11 41.1363 11 41.1363 11.0719 41.1363H12.7967C12.8124 41.1328 12.8288 41.1323 12.8448 41.135C12.8607 41.1377 12.8758 41.1434 12.8891 41.1518C12.9023 41.1602 12.9134 41.171 12.9214 41.1836C12.9295 41.1961 12.9345 41.2101 12.9359 41.2245C13.2459 42.2548 13.5648 43.2851 13.8702 44.3154L14.6203 46.837L14.6383 46.8931Z" fill="white"/>
<path d="M38.9654 47.0615L39.7469 45.4098L41.5796 41.6254C41.6514 41.4771 41.7233 41.3288 41.7907 41.1804C41.7959 41.1645 41.8075 41.1509 41.8232 41.142C41.8389 41.1331 41.8577 41.1297 41.876 41.1323H43.6727C43.7221 41.1323 43.7401 41.1323 43.7311 41.1885V41.2285C43.7311 44.0802 43.7311 46.9305 43.7311 49.7795C43.7311 49.8477 43.7311 49.8717 43.6323 49.8717H42.0467C41.9703 49.8717 41.9524 49.8717 41.9524 49.7876V44.6802C41.9114 44.7442 41.8769 44.8113 41.8491 44.8807L40.4072 47.8954C40.1063 48.5328 39.8008 49.1662 39.5089 49.8036C39.5026 49.8251 39.4877 49.8439 39.467 49.8565C39.4464 49.869 39.4214 49.8744 39.3966 49.8717H38.5207C38.4996 49.8737 38.4783 49.8692 38.4604 49.859C38.4424 49.8488 38.4289 49.8335 38.4219 49.8156L37.1912 47.2419L35.9694 44.6922C35.9559 44.6743 35.9439 44.6556 35.9335 44.6361V49.7876C35.9335 49.8517 35.9335 49.8717 35.8437 49.8717H34.2446C34.1817 49.8717 34.1682 49.8717 34.1682 49.8036V41.2085C34.1682 41.1564 34.1682 41.1363 34.2446 41.1363H36.0817C36.1048 41.1326 36.1287 41.1366 36.1487 41.1478C36.1686 41.1589 36.1832 41.1763 36.1895 41.1965C36.7645 42.4392 37.3514 43.6793 37.9503 44.9167C38.2767 45.6116 38.6031 46.3052 38.9295 46.9974L38.9654 47.0615Z" fill="white"/>
<path d="M61.1814 46.9733V41.2285C61.1814 41.1243 61.1814 41.1363 61.2847 41.1363H62.9017C62.9601 41.1363 62.9781 41.1363 62.9781 41.2004V49.8196C62.9781 49.8757 62.9781 49.8878 62.9017 49.8878H61.1949C61.1732 49.8888 61.1517 49.8845 61.1327 49.8753C61.1137 49.8661 61.0979 49.8524 61.0871 49.8356L59.6317 47.735L58.163 45.5982L57.04 43.9746V49.7835C57.04 49.8557 57.04 49.8717 56.9412 49.8717H55.3332C55.2658 49.8717 55.2389 49.8717 55.2389 49.7955C55.2389 46.9332 55.2389 44.0735 55.2389 41.2165C55.2389 41.1483 55.2613 41.1363 55.3332 41.1363H57.0939C57.1152 41.1338 57.1369 41.1371 57.1561 41.1457C57.1753 41.1542 57.1912 41.1677 57.2017 41.1844L59.0613 43.8944L61.123 46.9051C61.1379 46.9287 61.1544 46.9515 61.1724 46.9733H61.1814Z" fill="white"/>
<path d="M65.0263 45.498V41.2165C65.0263 41.1524 65.0263 41.1364 65.1206 41.1364H70.1064C70.1828 41.1364 70.1962 41.1364 70.1962 41.2165C70.1962 41.6816 70.1962 42.1506 70.1962 42.6156C70.1962 42.6838 70.1962 42.6958 70.1019 42.6958H66.9128C66.8409 42.6958 66.823 42.6958 66.823 42.772C66.823 43.3773 66.823 43.9747 66.823 44.584C66.823 44.6522 66.823 44.6642 66.9128 44.6642H69.8414C69.9178 44.6642 69.9357 44.6882 69.9312 44.7524C69.9312 45.2094 69.9312 45.6704 69.9312 46.1315C69.9312 46.2076 69.9043 46.2196 69.8279 46.2196H66.9083C66.8319 46.2196 66.8095 46.2196 66.8095 46.3038C66.8095 46.9533 66.8095 47.6067 66.8095 48.2562C66.8095 48.3203 66.8095 48.3364 66.8993 48.3364H70.2906C70.3624 48.3364 70.3849 48.3364 70.3849 48.4165C70.3849 48.8856 70.3849 49.3506 70.3849 49.8196C70.3849 49.8718 70.3849 49.8878 70.3085 49.8878H65.1026C65.0308 49.8878 65.0263 49.8637 65.0263 49.8116V45.498Z" fill="white"/>
<path d="M75.0653 44.7324C75.1461 44.5801 75.227 44.4398 75.3078 44.2994L75.7794 43.4496L76.7766 41.6576C76.8619 41.5012 76.9518 41.3489 77.0326 41.1925C77.0405 41.1743 77.0548 41.1589 77.0735 41.1487C77.0922 41.1386 77.1142 41.1342 77.1359 41.1364H78.9326C79.0225 41.1364 79.0225 41.1364 78.982 41.2086L76.9158 44.8847C76.6014 45.45 76.287 46.0112 75.9681 46.5765C75.9452 46.6191 75.9329 46.6656 75.9322 46.7128C75.9322 47.7391 75.9322 48.7654 75.9322 49.7916C75.9322 49.8518 75.9322 49.8718 75.8423 49.8718H74.2118C74.1445 49.8718 74.131 49.8718 74.131 49.7997C74.131 48.7734 74.131 47.7484 74.131 46.7248C74.1308 46.6788 74.1185 46.6335 74.0951 46.5925C73.6549 45.7908 73.2162 44.989 72.779 44.1872C72.514 43.7021 72.249 43.217 71.9884 42.732L71.1305 41.1484C71.1305 41.1484 71.1799 41.1484 71.2024 41.1484H73.0799C73.1018 41.1455 73.1241 41.1495 73.143 41.1598C73.1619 41.17 73.1761 41.1859 73.1832 41.2046L73.8076 42.3832L74.8182 44.2834L75.0653 44.7324Z" fill="white"/>
</g>
<defs>
<clipPath id="clip0_411_50">
<rect width="68" height="9" fill="white" transform="translate(11 41)"/>
</clipPath>
</defs>
</svg>
