<svg width="90" height="90" viewBox="0 0 90 90" fill="none" xmlns="http://www.w3.org/2000/svg">
<g clip-path="url(#clip0_1265_1863)">
<path d="M90 45C90 20.1472 69.8528 0 45 0C20.1472 0 0 20.1472 0 45C0 69.8528 20.1472 90 45 90C69.8528 90 90 69.8528 90 45Z" fill="#F5F5F5"/>
<path d="M74.4299 22H24.5699V28.08H74.4299V22Z" fill="#FF6700"/>
<path d="M67.1399 31.73H24.5699V37.81H67.1399V31.73Z" fill="#FF6700"/>
<path d="M59.8399 41.46H24.5699V47.54H59.8399V41.46Z" fill="#FF6700"/>
<path d="M52.5399 51.1899H24.5699V57.2699H52.5399V51.1899Z" fill="#FF6700"/>
<path d="M44.0299 60.92H24.5699V67H44.0299V60.92Z" fill="#FF6700"/>
</g>
<defs>
<clipPath id="clip0_1265_1863">
<rect width="90" height="90" fill="white"/>
</clipPath>
</defs>
</svg>
