<svg xmlns="http://www.w3.org/2000/svg" width="90" height="90" fill="none"><circle cx="45" cy="45" r="45" fill="#F5F5F5"/><path fill="#F5F5F5" d="M73.83 54.021a122.242 122.242 0 0 0 7.797-4.537l1.758-1.218-10.386.854.532-.358a105.938 105.938 0 0 0 7.17-5.426l1.663-1.371-21.217 3.763-.73.132.73-.132v-5.711l-1.116-.81-3.282-2.37-.452-.328-.554-.4-.256.138-.306.167-.671.365v-4.216l-1.116-.81-4.026-2.91-1.116-.809-1.145.46V16l-1.116.598-6.841 3.69-1.116.606v9.212l-3.399 1.823-1.116.613v4.274l-.379-.278-.292-.211-.517-.38-.599.322-.495.262-3.239 1.75-1.116.606v5.623l-.488.35c-.008.008-.015.008-.022.015l-.015.014c-10.721 7.732-14.871 15.2-10.845 19.875 2.516 2.932 7.855 4.479 15.433 4.479 11.443 0 26.978-3.582 41.565-9.577a137.916 137.916 0 0 0 8.942-4.048l3.202-1.59H73.831v-.007Zm-53.81 7.432c-2.16-1.91-.03-6.965 6.366-12.683v-.015l.489-.408v12.756c-2.713.656-5.791.948-6.856.35Z"/><path fill="url(#a)" d="M43.963 22.41c-.678-.014-1.364-.014-2.042-.021-.423-.007-.525.095-.532.518-.008.452-.008.911-.015 1.386-.197 0-.364-.008-.532-.008-.263 0-.423.139-.43.35 0 .212.16.358.422.365.175.007.343.007.511.007 0 .248-.007.467-.007.693h-.277c-.095 0-.19-.007-.292 0-.219.015-.372.168-.372.365 0 .197.153.343.38.35.181.007.364.007.568.007 0 .248-.007.474-.007.693 0 .248.138.401.343.409.218.007.364-.146.372-.409.007-.219.007-.43.007-.685h.291c.504.007 1.007.014 1.517.014.249 0 .402-.131.416-.335.015-.22-.145-.372-.4-.38-.358-.014-.723-.007-1.08-.014-.241 0-.474-.008-.715-.008 0-.248.007-.459.007-.692.584.007 1.145.014 1.714.014.175 0 .358-.014.518-.066.598-.175 1-.78.926-1.378-.08-.678-.598-1.152-1.29-1.174Zm-.095 1.904c-.583 0-1.16-.014-1.757-.014.007-.401.007-.773.014-1.167.059-.008.117-.015.175-.015.526.008 1.058.008 1.583.015.401.007.671.255.664.598 0 .35-.277.583-.678.583Z"/><path fill="url(#b)" d="m27.998 39.558 3.734-2.013v21.676c.365-.204.737-.423 1.116-.642V37.706l.671.488 1.116.81.525.379V57.15c.394-.255.766-.496 1.116-.73V38.807l-1.116-.81-.525-.38v-4.419l5.084-2.735v23.478c.372-.307.744-.613 1.116-.934V30.784l2.013 1.459v18.94c.379-.364.75-.728 1.115-1.1v-18.41l-1.115-.809-1.642-1.189-.371-.27-.635-.46-.481.264-.57.306V21.558l6.842-3.69v30.537l1.116-.197V16l-1.116.598-6.841 3.69-1.116.606v9.212l-3.399 1.823-1.116.613v4.274l-.379-.278-.292-.211-.518-.38-.598.322-.496.262-3.238 1.75-1.116.606V61.11c.38-.087.759-.19 1.116-.291V39.558Z"/><path fill="url(#c)" d="m49.368 30.207 4.026 2.91v4.252l-1.451.78-.16.088v9.14l1.115-.198v-8.278l.496-.263 1.116-.605.671-.364v9.109l1.116-.197v-8.708l3.734 2.706v5.338l1.116-.197v-5.71l-1.116-.81-3.282-2.378-.452-.328-.554-.394-.256.132-.306.167-.67.365v-4.216l-1.117-.81-4.026-2.91-1.116-.809v19.984l1.116-.197V30.207Z"/><path fill="url(#d)" d="M72.904 53.868c.102-.052.204-.11.306-.16 2.874-1.525 5.58-3.1 8.104-4.705l-35.469 2.925c-4.82 4.055-10.08 7.125-14.63 8.766 4.274-1.415 9.095-3.763 13.719-6.826h27.97Z"/><path fill="url(#e)" d="m45.838 50.892 26.782-2.203c.197-.131.386-.262.583-.394a104.08 104.08 0 0 0 7.133-5.404L45.73 49.032c-3.713 4.135-7.958 7.469-11.896 9.562 3.88-1.758 8.088-4.406 12.005-7.702Z"/><path fill="url(#f)" d="M44.985 54.903c-10.328 6.841-21.64 10.145-25.651 7.367-3.4-2.349-.49-8.33 6.513-14.442v-1.283c-8.986 6.841-12.888 13.53-9.248 17.767 2.21 2.567 6.9 3.88 13.135 4.026-.664-.285-1.087-.664-1.174-1.13-.35-1.78 4.12-4.158 9.985-5.303 5.864-1.145 10.896-.627 11.246 1.152.24 1.218-1.78 2.713-4.952 3.902 8.35-1.51 17.701-4.23 27.015-8.06a142.027 142.027 0 0 0 8.854-4.003H44.985v.007Z"/><defs><linearGradient id="a" x1="42.839" x2="42.839" y1="27.528" y2="22.388" gradientUnits="userSpaceOnUse"><stop offset=".406" stop-color="#009E8B"/><stop offset=".975" stop-color="#00880E"/></linearGradient><linearGradient id="b" x1="36.993" x2="36.993" y1="63.303" y2="15.998" gradientUnits="userSpaceOnUse"><stop stop-color="#EAFF00"/><stop offset=".749" stop-color="#009E8B"/><stop offset=".975" stop-color="#00880E"/></linearGradient><linearGradient id="c" x1="54.698" x2="54.698" y1="63.303" y2="28.018" gradientUnits="userSpaceOnUse"><stop stop-color="#EAFF00"/><stop offset=".749" stop-color="#009E8B"/><stop offset=".975" stop-color="#00880E"/></linearGradient><linearGradient id="d" x1="31.216" x2="81.321" y1="54.85" y2="54.85" gradientUnits="userSpaceOnUse"><stop stop-color="#006C45"/><stop offset=".776" stop-color="#56E87E"/></linearGradient><linearGradient id="e" x1="33.836" x2="80.335" y1="50.744" y2="50.744" gradientUnits="userSpaceOnUse"><stop stop-color="#006C45"/><stop offset=".776" stop-color="#56E87E"/></linearGradient><linearGradient id="f" x1="47.372" x2="48.681" y1="69.282" y2="44.304" gradientUnits="userSpaceOnUse"><stop stop-color="#006C45"/><stop offset=".776" stop-color="#56E87E"/></linearGradient></defs></svg>