<svg width="90" height="90" fill="none" xmlns="http://www.w3.org/2000/svg"><g clip-path="url(#a)"><path d="M45 90c24.853 0 45-20.147 45-45S69.853 0 45 0 0 20.147 0 45s20.147 45 45 45Z" fill="#F2F3F8"/><path d="M9.574 49v-.688l3.595-5.26H9.544v-.888h4.887v.687l-3.595 5.261h3.625V49H9.574Zm6.758 0h-1.095l2.46-6.836h1.192L21.349 49h-1.095l-1.932-5.595h-.054L16.332 49Zm.184-2.677h3.551v.868h-3.551v-.868Zm6.852-4.16V49h-1.032v-6.836h1.032Zm1.502 0h1.252l2.176 5.315h.08l2.177-5.314h1.252V49h-.982v-4.947h-.063l-2.017 4.937h-.814l-2.016-4.94h-.064V49h-.981v-6.836Zm11.377 2.985v.868h-3.031v-.868h3.031Zm1.622-2.984 1.903 5.567h.077l1.903-5.567h1.114L40.406 49h-1.191l-2.46-6.836h1.114ZM43.854 49v-6.836h2.436c.53 0 .97.09 1.319.273.352.183.614.435.788.758.173.32.26.691.26 1.112 0 .418-.088.786-.264 1.105a1.774 1.774 0 0 1-.787.737c-.35.176-.79.264-1.319.264h-1.846v-.888h1.753c.333 0 .605-.048.814-.143a.95.95 0 0 0 .464-.418c.098-.182.147-.401.147-.657 0-.259-.05-.482-.15-.671a.97.97 0 0 0-.464-.434c-.21-.103-.484-.154-.825-.154h-1.295V49h-1.031Zm3.374-3.084L48.918 49h-1.175l-1.656-3.084h1.141Zm7.08-3.752h1.035v4.496c0 .479-.112.902-.337 1.272-.225.367-.54.656-.948.868-.407.209-.885.314-1.432.314-.545 0-1.021-.105-1.429-.314a2.356 2.356 0 0 1-.948-.868 2.398 2.398 0 0 1-.337-1.272v-4.496h1.032v4.413c0 .309.067.584.203.824.138.24.333.43.584.567.252.136.55.204.895.204.347 0 .647-.068.898-.203.254-.138.447-.328.58-.568.137-.24.204-.515.204-.824v-4.413ZM56.843 49v-6.836h1.031v3.264h.084l2.867-3.264h1.299l-2.758 3.077L62.134 49h-1.242l-2.21-3.054-.808.928V49h-1.031Zm7.273-6.836V49h-1.031v-6.836h1.032Zm2.08 6.9a.648.648 0 0 1-.47-.194.646.646 0 0 1-.198-.474c0-.183.066-.338.197-.468a.642.642 0 0 1 .471-.197c.183 0 .34.066.47.197.132.13.198.285.198.468a.636.636 0 0 1-.094.337.69.69 0 0 1-.24.24c-.1.06-.212.09-.334.09ZM68.281 49v-6.836h2.436c.53 0 .97.09 1.32.273.35.183.613.435.787.758.173.32.26.691.26 1.112 0 .418-.088.786-.264 1.105a1.774 1.774 0 0 1-.787.737c-.35.176-.79.264-1.319.264h-1.846v-.888h1.753c.334 0 .605-.048.814-.143a.95.95 0 0 0 .464-.418c.098-.182.147-.401.147-.657 0-.259-.05-.482-.15-.671a.97.97 0 0 0-.464-.434c-.21-.103-.484-.154-.825-.154h-1.295V49h-1.031Zm3.374-3.084L73.346 49H72.17l-1.656-3.084h1.142Zm7.08-3.752h1.035v4.496c0 .479-.112.902-.337 1.272-.225.367-.54.656-.948.868-.407.209-.884.314-1.432.314-.545 0-1.021-.105-1.428-.314a2.357 2.357 0 0 1-.948-.868 2.397 2.397 0 0 1-.338-1.272v-4.496h1.032v4.413c0 .309.068.584.203.824.138.24.333.43.585.567.251.136.55.204.894.204.347 0 .647-.068.898-.203.254-.138.447-.328.581-.568.136-.24.204-.515.204-.824v-4.413Z" fill="#CA3D35"/></g><defs><clipPath id="a"><path fill="#fff" d="M0 0h90v90H0z"/></clipPath></defs></svg>