<svg width="90" height="90" viewBox="0 0 90 90" fill="none" xmlns="http://www.w3.org/2000/svg">
<g clip-path="url(#clip0_3212_1882)">
<circle cx="45" cy="45" r="45" fill="#F5F5F5"/>
<path d="M57.1758 64.9298C57.1758 66.7012 57.1758 69.3578 47.2138 72.6785L49.4262 73.7856L54.9619 72.6785L63.819 68.2499L66.0333 62.7142C67.5095 60.869 70.2405 56.9571 69.3547 56.0713C68.2476 54.9642 61.6047 51.6428 58.2833 50.5356C54.9619 49.4285 46.1047 49.4285 43.8905 49.4285C41.6817 49.4285 43.8812 47.2253 44.9892 46.1154L44.9976 46.1071C46.1038 44.999 52.7472 40.5706 54.9619 39.4642C57.178 38.3571 53.8547 36.1429 49.4262 33.9286C44.9976 31.7143 41.678 31.7142 42.7833 32.8215C44.1825 34.2232 48.3209 36.1428 49.4262 37.25C50.5352 38.3571 48.319 39.4643 44.9972 40.5715C41.6754 41.6786 33.9262 44.9999 32.819 48.3213C31.7119 51.6428 39.5507 54.5864 44.9972 56.0715C57.1758 59.3922 57.1758 62.7131 57.1758 64.9274V64.9286V64.9298Z" fill="url(#paint0_linear_3212_1882)"/>
<circle cx="45" cy="45" r="28.7857" stroke="url(#paint1_linear_3212_1882)" stroke-width="4.42857"/>
</g>
<defs>
<linearGradient id="paint0_linear_3212_1882" x1="50.5352" y1="31.7142" x2="58.2852" y2="71.5713" gradientUnits="userSpaceOnUse">
<stop stop-color="#8BCFF2"/>
<stop offset="1" stop-color="#3199CC"/>
</linearGradient>
<linearGradient id="paint1_linear_3212_1882" x1="58.2857" y1="9.57143" x2="48.3214" y2="78.2143" gradientUnits="userSpaceOnUse">
<stop stop-color="#98D7F7"/>
<stop offset="1" stop-color="#2693C8"/>
</linearGradient>
<clipPath id="clip0_3212_1882">
<rect width="90" height="90" fill="white"/>
</clipPath>
</defs>
</svg>
