<svg xmlns="http://www.w3.org/2000/svg" width="90" height="90" fill="none"><circle cx="45" cy="45" r="45" fill="#49ADE9"/><path fill="#fff" d="m27.416 48.884.074-.012c6.046-1.025 10.606-6.362 10.606-12.424 0-5.925-4.149-10.983-10.091-12.31l-.282-.058-.137-.08-.507.01-.07.042c-.58.146-1.009.656-1.009 1.26v5.951c0 .325.127.628.361.868l.089.162.258.12c1.637.738 2.823 2.438 2.823 4.037 0 1.604-1.186 3.3-2.818 4.035l-.263.136-.07.123c-.246.247-.38.55-.38.882v5.955c0 .715.608 1.308 1.347 1.308h.07v-.005Zm34.873-.36.27-.14.068-.123c.244-.242.373-.55.373-.88v-5.953c0-.717-.593-1.296-1.462-1.296h-.028c-6.046 1.023-10.608 6.363-10.608 12.42 0 5.93 4.148 10.992 10.098 12.312l.28.058.134.078h.242l.27-.005.07-.044c.583-.148 1.004-.656 1.004-1.258v-5.956c0-.32-.12-.616-.344-.851l-.084-.167-.278-.127c-1.636-.739-2.823-2.439-2.823-4.042 0-1.592 1.185-3.29 2.819-4.026ZM61.895 25.1c-.3-.204-.72-.31-1.266-.31h-7.622c-.851 0-1.655.25-2.316 1.093-.244.308-23.722 36.603-23.722 36.603-.364 1.063.12 1.592 1.445 1.592h7.258c.91 0 1.536-.08 2.397-.921.319-.308 23.912-36.775 23.912-36.775.244-.647.215-1.072-.086-1.282Z"/></svg>