<svg width="90" height="90" viewBox="0 0 90 90" fill="none" xmlns="http://www.w3.org/2000/svg">
<circle cx="45" cy="45" r="45" fill="#3C5126"/>
<path d="M61.0246 65.0816H32.6867V53.832H25.979V33.7701H61.0246V65.0816ZM35.4633 62.3271H58.2444V36.5282H28.752V51.0811H35.4633V62.3271Z" fill="#A8F879"/>
<path d="M37.9846 40.8043H34.9346V43.8261H37.9846V40.8043Z" fill="#A8F879"/>
<path d="M48.1738 41.9696C47.5952 41.9703 47.0294 41.8009 46.548 41.4828C46.0666 41.1648 45.6912 40.7124 45.4695 40.1829C45.2477 39.6534 45.1895 39.0706 45.3022 38.5083C45.4149 37.946 45.6935 37.4294 46.1026 37.0241C46.5118 36.6187 47.0331 36.3427 47.6007 36.231C48.1682 36.1194 48.7565 36.177 49.2909 36.3967C49.8254 36.6165 50.282 36.9883 50.603 37.4653C50.924 37.9422 51.095 38.5028 51.0943 39.0761C51.0934 39.8432 50.7854 40.5787 50.2379 41.1211C49.6904 41.6635 48.9481 41.9687 48.1738 41.9696ZM48.1738 36.8846C47.7335 36.8846 47.3031 37.014 46.937 37.2564C46.5709 37.4988 46.2855 37.8432 46.117 38.2463C45.9485 38.6493 45.9044 39.0928 45.9903 39.5207C46.0762 39.9486 46.2882 40.3416 46.5996 40.6501C46.911 40.9585 47.3076 41.1686 47.7395 41.2537C48.1714 41.3388 48.619 41.2952 49.0258 41.1282C49.4326 40.9613 49.7803 40.6786 50.025 40.3158C50.2696 39.9531 50.4002 39.5266 50.4002 39.0904C50.4002 38.5054 50.1656 37.9443 49.7481 37.5307C49.3306 37.117 48.7643 36.8846 48.1738 36.8846Z" fill="#A8F879"/>
<path d="M48.1738 47.2183C47.5962 47.2183 47.0316 47.0486 46.5513 46.7307C46.071 46.4128 45.6967 45.9609 45.4757 45.4321C45.2546 44.9034 45.1968 44.3217 45.3095 43.7604C45.4222 43.1991 45.7003 42.6835 46.1087 42.2789C46.5172 41.8742 47.0376 41.5986 47.6041 41.487C48.1706 41.3753 48.7578 41.4327 49.2914 41.6516C49.8251 41.8706 50.2812 42.2415 50.6021 42.7173C50.923 43.1932 51.0943 43.7526 51.0943 44.3249C51.0933 45.092 50.7853 45.8274 50.2379 46.3698C49.6904 46.9122 48.9481 47.2174 48.1738 47.2183ZM48.1738 42.1191C47.7335 42.1191 47.3031 42.2485 46.937 42.4909C46.5708 42.7332 46.2855 43.0777 46.117 43.4808C45.9485 43.8838 45.9044 44.3273 45.9903 44.7552C46.0762 45.1831 46.2882 45.5761 46.5996 45.8846C46.9109 46.193 47.3076 46.4031 47.7395 46.4882C48.1714 46.5733 48.619 46.5296 49.0258 46.3627C49.4326 46.1958 49.7803 45.913 50.0249 45.5503C50.2696 45.1876 50.4001 44.7611 50.4001 44.3249C50.3992 43.7402 50.1643 43.1797 49.747 42.7662C49.3297 42.3528 48.764 42.1201 48.1738 42.1191Z" fill="#A8F879"/>
<path d="M48.1738 52.4708C47.5954 52.4715 47.0297 52.3022 46.5483 51.9843C46.067 51.6664 45.6917 51.2142 45.4698 50.6849C45.2479 50.1556 45.1895 49.573 45.3019 49.0108C45.4144 48.4486 45.6926 47.9321 46.1014 47.5265C46.5101 47.121 47.0312 46.8448 47.5985 46.7327C48.1658 46.6206 48.7539 46.6778 49.2884 46.8969C49.8229 47.1161 50.2798 47.4874 50.6013 47.9639C50.9227 48.4404 51.0943 49.0007 51.0943 49.5738C51.0943 50.3415 50.7867 51.0778 50.2392 51.621C49.6916 52.1642 48.9487 52.4699 48.1738 52.4708ZM48.1738 47.3681C47.7335 47.3681 47.3031 47.4974 46.937 47.7398C46.5709 47.9822 46.2855 48.3266 46.117 48.7297C45.9485 49.1327 45.9044 49.5762 45.9903 50.0041C46.0762 50.432 46.2882 50.825 46.5996 51.1335C46.911 51.442 47.3077 51.652 47.7395 51.7371C48.1714 51.8222 48.619 51.7786 49.0258 51.6116C49.4326 51.4447 49.7803 51.162 50.025 50.7992C50.2696 50.4365 50.4002 50.01 50.4002 49.5738C50.3992 48.9891 50.1644 48.4286 49.747 48.0151C49.3297 47.6017 48.764 47.369 48.1738 47.3681Z" fill="#A8F879"/>
<path d="M61.5138 36.5282H25.4863L26.0401 34.7465C28.4895 26.8322 35.1828 21.9183 43.4982 21.9183C51.8137 21.9183 58.507 26.8322 60.9599 34.7465L61.5138 36.5282ZM29.3527 33.7701H57.651C55.1801 28.0367 50.0117 24.6728 43.4982 24.6728C36.9847 24.6728 31.8235 28.0367 29.3527 33.7701Z" fill="#A8F879"/>
<path d="M65.0816 33.6882H21.9184V36.6066H65.0816V33.6882Z" fill="#A8F879"/>
</svg>
