<svg width="90" height="90" viewBox="0 0 90 90" fill="none" xmlns="http://www.w3.org/2000/svg">
<circle cx="45" cy="45" r="45" fill="#F2F3F8"/>
<g clip-path="url(#clip0_203_57)">
<path d="M11.034 48.6644H16.2057V49.8774H9V48.8929L14.0059 42.3476H9.03354V41.1203H16.0462V42.083L11.034 48.6644Z" fill="#739552"/>
<path d="M23.1526 47.8402H19.4035L18.6194 49.8774H16.8708L20.5268 41.1203H22.0368L25.6985 49.8774H23.9436L23.1526 47.8402ZM19.8756 46.6128H22.6804L21.2774 42.9794L19.8756 46.6128Z" fill="#739552"/>
<path d="M28.5704 49.8774H26.8953V41.1203H28.5704V49.8774Z" fill="#739552"/>
<path d="M32.8182 41.1203L35.6103 47.8345L38.3949 41.1203H40.5687V49.8774H38.8942V46.992L39.0606 43.1294L36.202 49.8774H34.9996L32.1467 43.1357L32.3131 46.992V49.8774H30.638V41.1203H32.8182Z" fill="#739552"/>
<path d="M50.2818 45.7285C50.2818 46.5869 50.1177 47.34 49.7895 47.988C49.4612 48.6359 48.9927 49.1333 48.3839 49.48C47.7742 49.8267 47.0728 50 46.2796 50C45.4949 50 44.7958 49.8267 44.1823 49.48C43.5689 49.1333 43.0947 48.6388 42.7597 47.9966C42.4247 47.3551 42.2559 46.6151 42.2534 45.7766V45.2835C42.2534 44.429 42.4207 43.6749 42.7553 43.0212C43.0898 42.3675 43.5617 41.8673 44.171 41.5206C44.7793 41.1735 45.4778 41 46.2663 41C47.0549 41 47.754 41.1718 48.3636 41.5155C48.9729 41.8591 49.4437 42.3524 49.7762 42.9954C50.1086 43.6384 50.2774 44.3874 50.2824 45.2423L50.2818 45.7285ZM48.5997 45.2703C48.5997 44.2997 48.397 43.5552 47.9915 43.0367C47.5861 42.5181 47.011 42.2604 46.2663 42.2635C45.539 42.2635 44.9707 42.5212 44.5614 43.0367C44.1522 43.5521 43.9429 44.281 43.9336 45.2234V45.7285C43.9336 46.6915 44.1408 47.436 44.5551 47.9622C44.9694 48.4884 45.5445 48.7511 46.2803 48.7503C47.0245 48.7503 47.5972 48.4937 47.9985 47.9805C48.3997 47.4674 48.6003 46.7173 48.6003 45.7302L48.5997 45.2703Z" fill="#739552"/>
<path d="M59.6348 49.8774H57.9527L53.6385 43.6649V49.8774H51.957V41.1203H53.6385L57.9659 47.3574V41.1203H59.6348V49.8774Z" fill="#739552"/>
<path d="M62.4763 48.3396C62.7775 48.3396 63.0096 48.416 63.1724 48.5687C63.254 48.6459 63.3177 48.737 63.3599 48.8367C63.4022 48.9364 63.4222 49.0427 63.4186 49.1495C63.4221 49.2544 63.4021 49.3589 63.3598 49.4566C63.3175 49.5544 63.2538 49.6434 63.1724 49.7182C63.0087 49.8683 62.7767 49.9435 62.4763 49.9439C62.1881 49.9439 61.9599 49.8696 61.7916 49.7211C61.7077 49.6468 61.6418 49.5575 61.5982 49.4589C61.5546 49.3603 61.5343 49.2545 61.5384 49.1483C61.5346 49.0424 61.5539 48.9369 61.5954 48.8378C61.6369 48.7387 61.6997 48.648 61.7802 48.571C61.9456 48.4171 62.1776 48.34 62.4763 48.3396Z" fill="#739552"/>
<path d="M68.9814 46.5109H67.1063V49.8774H65.4248V41.1203H68.8283C69.9455 41.1203 70.8074 41.3471 71.4141 41.8007C72.0208 42.2543 72.3244 42.9106 72.3248 43.7698C72.3248 44.3559 72.1685 44.8465 71.8559 45.2417C71.5432 45.6369 71.108 45.9412 70.5503 46.1546L72.7235 49.8024V49.8774H70.9224L68.9814 46.5109ZM67.1063 45.2835H68.8346C69.4025 45.2835 69.8455 45.1541 70.1636 44.8952C70.4817 44.6363 70.6406 44.2824 70.6402 43.8333C70.6402 43.3644 70.4925 43.0017 70.1972 42.7451C69.9018 42.4885 69.462 42.3562 68.8777 42.3482H67.1063V45.2835Z" fill="#739552"/>
<path d="M81 41.1203V46.9742C81 47.9043 80.6709 48.6413 80.0127 49.185C79.3546 49.7287 78.4783 50.0004 77.3839 50C76.2759 50 75.3963 49.7327 74.7449 49.1982C74.0934 48.6636 73.7677 47.9206 73.7677 46.9691V41.1203H75.4429V46.98C75.4429 47.5661 75.6068 48.0134 75.9346 48.3219C76.2624 48.6304 76.7455 48.7846 77.3839 48.7846C78.6774 48.7846 79.3244 48.167 79.3248 46.9318V41.1203H81Z" fill="#739552"/>
</g>
<defs>
<clipPath id="clip0_203_57">
<rect width="72" height="9" fill="white" transform="translate(9 41)"/>
</clipPath>
</defs>
</svg>
