<svg width="90" height="90" fill="none" xmlns="http://www.w3.org/2000/svg"><circle cx="45" cy="45" r="45" fill="#F0FFC0"/><path d="M51.396 17.317a16.823 16.823 0 0 0-6.065 8.36c.09-.557.197-1.114.342-1.664-.613-1.43-1.412-2.544-2.355-3.907a.617.617 0 0 0-.527-.27c-.743 0-1.694.163-2.11.523a.123.123 0 0 0 0 .186c1.954 1.778 3.313 3.413 3.974 6.54h.163c.602 0 1.193.059 1.783.115-.022-.127-.048-.245-.074-.372a16.8 16.8 0 0 0 9.448-3.309 16.764 16.764 0 0 0 6.387-9.492 16.787 16.787 0 0 0-10.966 3.29Z" fill="url(#a)"/><path d="M44.636 77.834c14.159 0 25.637-11.478 25.637-25.637 0-14.158-11.478-25.636-25.637-25.636C30.478 26.561 19 38.039 19 52.197c0 14.159 11.478 25.637 25.636 25.637Z" fill="url(#b)"/><defs><linearGradient id="a" x1="59.235" y1="13.544" x2="45.101" y2="24.425" gradientUnits="userSpaceOnUse"><stop stop-color="#AED12C"/><stop offset=".02" stop-color="#AACF2E"/><stop offset=".18" stop-color="#88BB3F"/><stop offset=".35" stop-color="#6DAC4C"/><stop offset=".52" stop-color="#5AA156"/><stop offset=".69" stop-color="#4F9A5B"/><stop offset=".88" stop-color="#4B985D"/></linearGradient><linearGradient id="b" x1="29.7" y1="26.372" x2="65.222" y2="87.798" gradientUnits="userSpaceOnUse"><stop stop-color="#FFE027"/><stop offset=".05" stop-color="#FFD322"/><stop offset=".17" stop-color="#FFB81A"/><stop offset=".29" stop-color="#FFA513"/><stop offset=".41" stop-color="#FF9A0F"/><stop offset=".54" stop-color="#FF960E"/><stop offset="1" stop-color="#FD8606"/></linearGradient></defs></svg>