<svg width="90" height="90" viewBox="0 0 90 90" fill="none" xmlns="http://www.w3.org/2000/svg">
<g clip-path="url(#clip0_3210_1832)">
<circle cx="45" cy="45" r="45" fill="#F5F5F5"/>
<path d="M36.607 36.5605C29.7287 39.2563 17.2911 44.1408 13.2749 45.7517C12.7627 45.9571 12.7563 46.6133 13.2599 46.8389L52.6168 64.4708C52.7822 64.5449 52.971 64.5471 53.138 64.4767L76.3156 54.7178C76.8465 54.4942 76.85 53.7431 76.3212 53.5146L37.0999 36.571C36.9416 36.5026 36.7676 36.4976 36.607 36.5605Z" fill="#E2001A" stroke="black" stroke-width="0.654018" stroke-linecap="round"/>
<path d="M36.607 33.9447C29.7287 36.6405 17.2911 41.525 13.2749 43.1358C12.7627 43.3412 12.7563 43.9975 13.2599 44.2231L52.6168 61.855C52.7822 61.9291 52.971 61.9312 53.138 61.8609L76.3156 52.1019C76.8465 51.8784 76.85 51.1272 76.3212 50.8988L37.0999 33.9552C36.9416 33.8868 36.7676 33.8817 36.607 33.9447Z" fill="#E2001A" stroke="black" stroke-width="0.654018" stroke-linecap="round"/>
<path d="M36.607 31.3285C29.7287 34.0243 17.2911 38.9088 13.2749 40.5196C12.7627 40.725 12.7563 41.3813 13.2599 41.6069L52.6168 59.2388C52.7822 59.3129 52.971 59.315 53.138 59.2447L76.3156 49.4857C76.8465 49.2622 76.85 48.511 76.3212 48.2826L37.0999 31.339C36.9416 31.2706 36.7676 31.2655 36.607 31.3285Z" fill="#E2001A" stroke="black" stroke-width="0.654018" stroke-linecap="round"/>
<path d="M36.607 28.7124C29.7287 31.4082 17.2911 36.2927 13.2749 37.9035C12.7627 38.1089 12.7563 38.7652 13.2599 38.9908L52.6168 56.6227C52.7822 56.6968 52.971 56.6989 53.138 56.6286L76.3156 46.8696C76.8465 46.6461 76.85 45.8949 76.3212 45.6665L37.0999 28.7229C36.9416 28.6545 36.7676 28.6494 36.607 28.7124Z" fill="#E2001A" stroke="black" stroke-width="0.654018" stroke-linecap="round"/>
<path d="M36.607 26.0963C29.7287 28.7921 17.2911 33.6766 13.2749 35.2874C12.7627 35.4928 12.7563 36.1491 13.2599 36.3747L52.6168 54.0066C52.7822 54.0807 52.971 54.0828 53.138 54.0125L76.3156 44.2535C76.8465 44.03 76.85 43.2788 76.3212 43.0504L37.0999 26.1068C36.9416 26.0384 36.7676 26.0333 36.607 26.0963Z" fill="#E2001A" stroke="black" stroke-width="0.654018" stroke-linecap="round"/>
<path d="M36.8532 47.0425V57.4033C36.8532 57.8673 36.3835 58.1837 35.9535 58.0094L25.1622 53.6345C24.9154 53.5345 24.7539 53.2948 24.7539 53.0284V42.1344C24.7539 41.8695 24.9137 41.6308 25.1585 41.5298L50.6556 31.0122C50.821 30.944 51.0072 30.9465 51.1706 31.0192L61.2794 35.512C61.8068 35.7464 61.7943 36.4991 61.2594 36.7158L37.2617 46.4364C37.0148 46.5364 36.8532 46.7762 36.8532 47.0425Z" fill="white" stroke="black" stroke-width="0.654018" stroke-linecap="round"/>
</g>
<defs>
<clipPath id="clip0_3210_1832">
<rect width="90" height="90" fill="white"/>
</clipPath>
</defs>
</svg>
