<svg xmlns="http://www.w3.org/2000/svg" width="90" height="90" fill="none"><circle cx="45" cy="45" r="45" fill="#2A374A"/><g clip-path="url(#a)"><path fill="#358DC1" d="M73 38.339c-.817.719-1.738 1.315-2.6 1.956a5346.456 5346.456 0 0 1-13.824 10.138c-.101.075-.191.156-.285.235a.56.56 0 0 1-.424.133H17.89a3.056 3.056 0 0 1-.748-.048.466.466 0 0 1-.142-.082v-.082c.1-.147.232-.27.386-.364 5.291-3.883 10.58-7.755 15.864-11.617.196-.174.436-.292.696-.34.208-.021.417 0 .626 0h37.57c.287-.038.58-.014.858.071Z"/><path fill="#3CB39C" d="M33.761 38.342 26.68 33.13l-9.331-6.856c-.084-.055-.167-.1-.247-.15.111-.191.299-.103.448-.103h38.314a.96.96 0 0 1 .622.157 7487.636 7487.636 0 0 0 16.341 11.981c.07.048.184.069.188.188H33.76v-.004Z"/><path fill="#3AB39B" d="M72.976 62.911c-.153.143-.348.072-.515.072H33.768l-16.403-12.04c-.108-.078-.205-.176-.31-.265h39.232l7.927 5.827 8.762 6.406Z"/></g><defs><clipPath id="a"><path fill="#fff" d="M17 26h56v37H17z"/></clipPath></defs></svg>