<svg width="90" height="90" fill="none" xmlns="http://www.w3.org/2000/svg"><circle cx="45" cy="45" r="45" fill="#FEFFDC"/><path d="M34.333 50.667H18V67h16.333V50.667Z" fill="#FF8900"/><path d="M34.333 50.667 18 67V50.667h16.333Z" fill="#FFA700"/><path d="M50.667 50.667H34.333V67h16.334V50.667Z" fill="#FFB83A"/><path d="M50.667 50.667 34.333 67V50.667h16.334Z" fill="#FFCA49"/><path d="M50.667 34.333H34.333v16.334h16.334V34.333Z" fill="#B8BA3C"/><path d="M50.667 34.333 34.333 50.667V34.333h16.334Z" fill="#CACB4B"/><path d="M67 34.333H50.667v16.334H67V34.333Z" fill="#71BB3E"/><path d="M67 34.333 50.667 50.667V34.333H67Z" fill="#8DCC4E"/><path d="M67 18H50.667v16.333H67V18Z" fill="#4C9D33"/><path d="M67 18 50.667 34.333V18H67Z" fill="#5FB640"/></svg>