<svg xmlns="http://www.w3.org/2000/svg" width="90" height="90" fill="none"><circle cx="45" cy="45" r="45" fill="#F2F1ED"/><path fill="#fff" fill-rule="evenodd" d="M47.988 15.656a30.045 30.045 0 0 1 16.674 5.05 29.975 29.975 0 0 1 11.053 13.449 29.922 29.922 0 0 1 1.708 17.314 29.956 29.956 0 0 1-8.213 15.344 30.027 30.027 0 0 1-15.367 8.201 30.054 30.054 0 0 1-17.34-1.705 30.002 30.002 0 0 1-13.47-11.037 29.934 29.934 0 0 1 3.733-37.839 30.035 30.035 0 0 1 21.222-8.777Z" clip-rule="evenodd"/><path fill="#231F20" d="M45.453 15.135a30.509 30.509 0 0 1 19.342 6.892 30.427 30.427 0 0 1 10.571 17.58 30.389 30.389 0 0 1-2.998 20.286 30.462 30.462 0 0 1-15.206 13.782 30.521 30.521 0 0 1-20.51 1.02 30.475 30.475 0 0 1-16.504-12.203 30.398 30.398 0 0 1 3.766-38.43c.198-.205.396-.396.6-.587l.37.854-.357.345a29.448 29.448 0 0 0-8.607 19.854 29.442 29.442 0 0 0 7.291 20.374A29.545 29.545 0 0 0 63.32 68.92a29.461 29.461 0 0 0 11.2-18.52 29.43 29.43 0 0 0-4.486-21.167 29.512 29.512 0 0 0-17.752-12.404 29.553 29.553 0 0 0-21.452 3.043l-.269-.848a30.381 30.381 0 0 1 14.892-3.876"/><path fill="#F9C412" fill-rule="evenodd" d="M49.258 51.381c-4.336-.236-4.418.287-7.88 2.627-1.743 1.186-3.243 1.83-5.657.14 3.314 11.095 11.928 8.927 16.552 2.028 8.824 4.214 10.855-.638 10.855-7.855-.639 2.608-1.693 3.047-2.944 2.843-2.777-.459-2.4-1.447-5.587-.637-1.067 1.415-3.416 1.842-5.352.822" clip-rule="evenodd"/><path fill="#F4E321" fill-rule="evenodd" d="M50.714 25.49c5.185-.115 8.94 1.096 9.65 3.493.535 1.856-.876 4.087-3.61 6.23l-.702-.925-1.507-1.434-2.963-.134-6.008-.185-5.268 1.199-3.41 1.804-3.883 2.257-3.04 2.716-.638 2.346c-3.193-.427-5.364-1.549-5.868-3.315-.683-2.366 1.794-5.343 6.15-7.964a97.37 97.37 0 0 0-4.854-11.604c-.46-.899-1.277-1.798-.92-2.856 1.623-4.999 16.552-9.456 21.712-7.887 2.197.67 1.851 1.912 2.164 3.825.746 4.195 1.746 8.34 2.995 12.414" clip-rule="evenodd"/><path fill="#231F20" d="M45.587 7.483c2.241.682 2.363 1.836 2.554 3.5.038.332.07.682.135 1.052a111.354 111.354 0 0 0 3.192 13.25l.083.299h-.9v-.09a113.873 113.873 0 0 1-3.193-13.35 16.018 16.018 0 0 1-.134-1.097c-.14-1.326-.237-2.245-1.916-2.761-2.899-.88-8.774.057-13.933 1.913-4.521 1.645-8.448 3.985-9.234 6.376-.23.727.192 1.44.6 2.13.128.21.256.427.377.637a106.169 106.169 0 0 1 5.192 12.427l.076.21-.76.465-.089-.242a105.682 105.682 0 0 0-5.192-12.465c-.095-.185-.223-.401-.35-.637-.511-.861-1.035-1.741-.677-2.838.874-2.71 5.018-5.234 9.763-6.956 5.306-1.913 11.411-2.882 14.476-1.945"/><path fill="#231F20" d="M39.06 27.255c5.614-1.563 10.952-2.136 15.045-1.799 4.227.351 7.184 1.69 7.848 3.94.638 2.181-1.035 4.738-4.234 7.148l-.498-.695c2.893-2.187 4.413-4.425 3.89-6.235l.42-.115-.415.115c-.555-1.875-3.224-3.01-7.094-3.329-3.991-.331-9.22.23-14.731 1.767h-.09c-5.492 1.542-10.217 3.755-13.41 6.089-3.071 2.244-4.7 4.571-4.163 6.44l-.421.12.421-.114c.556 1.874 3.225 3.009 7.088 3.328h.16l-.083.841h-.147c-4.234-.344-7.184-1.69-7.855-3.934-.638-2.238 1.118-4.87 4.47-7.332 3.27-2.39 8.09-4.654 13.685-6.223h.083l.032-.012Z"/><path fill="#231F20" d="M28.352 44.783a19.64 19.64 0 0 1 1.341-4.712l1.469-1.04a18.72 18.72 0 0 0-1.98 6.051l-.383-.255-.447-.044ZM47.164 67.15a19.331 19.331 0 0 1-10.907-3.227c-.49-.326-.96-.68-1.41-1.058a18.936 18.936 0 0 1-6.386-11.266l.562.331a.381.381 0 0 0 .166 0l.236.045a18.032 18.032 0 0 0 6.009 10.201c.43.356.877.69 1.34 1.001a18.456 18.456 0 0 0 10.147 3.105l.243.868Zm11.711-29.145a16.123 16.123 0 0 1 4.891 4.999 13.79 13.79 0 0 1 1.974 6.503 15.56 15.56 0 0 1-2.631 9.698 16.252 16.252 0 0 1-2.86 3.188l-.48-.733a15.81 15.81 0 0 0 2.618-2.959 14.738 14.738 0 0 0 2.484-9.168 12.899 12.899 0 0 0-1.851-6.096 15.315 15.315 0 0 0-4.739-4.8.43.43 0 0 1-.198-.256l.422-.12-.422.12c-.683-2.372-2.49-4.31-4.783-5.68l1.278.108.197-.185a10.627 10.627 0 0 1 4.1 5.407v-.026ZM51.392 45.253a.448.448 0 0 0-.33-.115.441.441 0 0 0-.31.16.433.433 0 0 0 .052.637c.402.35.766.638 1.098.9a9.386 9.386 0 0 1 1.437 1.274c.427.44.684 1.016.728 1.626a1.277 1.277 0 0 1-.376.874 2.56 2.56 0 0 1-1.022.637 4.317 4.317 0 0 1-2.887-.07 4.81 4.81 0 0 1-.67-.427c-.428-.306-.888-.638-1.041-.797a.435.435 0 0 0-.581.638c.178.153.638.535 1.117.854.267.202.551.38.85.53a5.246 5.246 0 0 0 3.486.082c.521-.163.994-.45 1.38-.835.392-.387.621-.91.638-1.46a3.432 3.432 0 0 0-.92-2.187c-.473-.526-1-1.003-1.57-1.422a30.16 30.16 0 0 1-1.073-.873M43.154 44.896a1.052 1.052 0 0 0-1.205-.254c-.134.06-.255.146-.353.254a1.273 1.273 0 0 0 0 1.696 1.056 1.056 0 0 0 1.558 0 1.276 1.276 0 0 0 0-1.696Zm-.78-1.211a1.914 1.914 0 0 1 1.412.637 2.129 2.129 0 0 1 0 2.895 1.923 1.923 0 0 1-1.411.619 1.917 1.917 0 0 1-1.412-.62 2.129 2.129 0 0 1 0-2.894 1.918 1.918 0 0 1 1.412-.637Z"/><path fill="#231F20" d="M54.603 42.736a1.028 1.028 0 0 0-.728-.312 1.01 1.01 0 0 0-.721.312c-.2.218-.31.503-.307.797-.003.294.107.576.307.79a.98.98 0 0 0 .72.313 1.005 1.005 0 0 0 .73-.312c.197-.216.306-.498.306-.79 0-.295-.11-.58-.307-.798Zm-.728-1.186a1.867 1.867 0 0 1 1.354.587c.358.377.557.877.555 1.396a1.994 1.994 0 0 1-.555 1.39 1.864 1.864 0 0 1-1.354.587 1.881 1.881 0 0 1-1.354-.587 2.016 2.016 0 0 1-.549-1.39c0-.518.196-1.017.55-1.396a1.883 1.883 0 0 1 1.353-.587ZM54.559 57.974a.443.443 0 0 0 .1-.492.443.443 0 0 0-.1-.146.43.43 0 0 0-.32-.14.44.44 0 0 0-.32.14c-1.238 1.135-2.209 1.365-3.313 1.18l-.556.79c1.52.376 2.759.236 4.47-1.339"/><path fill="#231F20" d="M43.115 52.35c1.635-1.225 2.268-1.696 6.009-1.492a.423.423 0 0 1 .21.044c.791.436 1.695.62 2.593.53l.058.433-.051-.434a2.864 2.864 0 0 0 1.916-1.07.45.45 0 0 1 .249-.18l.108.422-.108-.415a7.07 7.07 0 0 1 2.369-.363c.745.105 1.47.32 2.151.637 1.355.517 2.229.491 2.81.045s.977-1.441 1.277-2.78a.46.46 0 0 1 .269-.344.44.44 0 0 1 .568.242 10.46 10.46 0 0 1 .543 5.738 7.59 7.59 0 0 1-2.49 4.597c-3.315 2.621-6.316.676-9.113-1.135l-.147-.095a13.44 13.44 0 0 1-5.108 5.407 8.598 8.598 0 0 1-5.306 1.064 8.714 8.714 0 0 1-4.975-2.55c-1.833-1.792-3.32-4.533-4.144-8.289a.433.433 0 0 1 .115-.42.428.428 0 0 1 .638 0c.396.395.709.7.977.943.238.228.49.441.754.638a5.617 5.617 0 0 0 2.63 1.192c.954.09 1.909-.15 2.708-.676a26.892 26.892 0 0 0 2.49-1.696v.007Zm5.913-.6c-3.37-.172-3.933.242-5.376 1.327a28.036 28.036 0 0 1-2.554 1.746 5.064 5.064 0 0 1-3.257.797 6.537 6.537 0 0 1-3.04-1.358 8.069 8.069 0 0 1-.728-.593 14.41 14.41 0 0 0 3.532 6.376 7.897 7.897 0 0 0 4.47 2.29 7.73 7.73 0 0 0 4.77-.97 12.674 12.674 0 0 0 4.993-5.464.439.439 0 0 1 .588-.191l.057.038.53.344c2.554 1.645 5.275 3.411 8.097 1.18a6.673 6.673 0 0 0 2.178-4.068 10.078 10.078 0 0 0-.065-3.909 3.963 3.963 0 0 1-1.2 1.875c-.837.638-1.98.72-3.659.09a6.936 6.936 0 0 0-1.916-.555c-.65-.001-1.296.1-1.916.3a3.742 3.742 0 0 1-2.432 1.274h-.038a5.23 5.23 0 0 1-3.033-.529ZM28.786 40.274a.44.44 0 1 0 .524.701c4.961-3.685 8.57-6.019 12.496-7.172 3.928-1.155 8.218-1.142 14.572-.14a.437.437 0 0 0 .495-.367.436.436 0 0 0-.367-.495c-6.482-1.02-10.887-1.026-14.942.166-4.055 1.193-7.733 3.57-12.771 7.307"/><path fill="#231F20" d="M32.094 38.794a.446.446 0 0 0-.498-.37.44.44 0 0 0-.37.492c.166 1.135.638 3.78.798 4.794.16 1.014.287 1.996.396 2.78l-.69.147c-.926-1.403-2.427-2.55-4.195-2.506a2.672 2.672 0 0 0-1.814.752c-.293.301-.511.665-.639 1.065-.135.411-.196.843-.178 1.275a5.34 5.34 0 0 0 1.628 3.456 7.025 7.025 0 0 0 2.177 1.537 3.25 3.25 0 0 0 2.133.223.437.437 0 0 0 .313-.53.433.433 0 0 0-.53-.312 2.481 2.481 0 0 1-1.577-.178 6.385 6.385 0 0 1-1.916-1.352 4.46 4.46 0 0 1-1.373-2.882c-.016-.333.03-.666.134-.982.09-.276.243-.527.447-.733.335-.313.774-.49 1.233-.497a3.35 3.35 0 0 1 2.069.67 5.584 5.584 0 0 1 1.507 1.689.44.44 0 0 0 .479.223l1.366-.293a.434.434 0 0 0 .358-.491c-.166-1.16-.307-2.175-.447-3.188-.166-1.173-.677-3.94-.798-4.795M40.318 41.644a7.763 7.763 0 0 0-1.583 1.448.434.434 0 0 1-.773-.345c.07-.674.236-1.335.492-1.964a3.102 3.102 0 0 1 1.48-1.51 1.414 1.414 0 0 1 1.278-.096.982.982 0 0 1 .39.331c.096.14.153.303.166.472a1.036 1.036 0 0 1-.402.93c-.505.396-.805.6-1.042.76l-.006-.026Zm-1.187-.16c.222-.192.457-.371.702-.535.236-.16.53-.357.996-.72.07-.058.103-.115.096-.16a.099.099 0 0 0 0-.038.14.14 0 0 0-.058-.045.566.566 0 0 0-.498.083 2.266 2.266 0 0 0-1.098 1.103 2.664 2.664 0 0 0-.147.287l.007.026ZM53.785 38.833c.296.011.591.043.882.095a2.335 2.335 0 0 0-1.807-.568.64.64 0 0 0-.473.192.121.121 0 0 0 0 .064.052.052 0 0 0 0 .045.198.198 0 0 0 .16.083c.638.076.958.095 1.226.114l.012-.025Zm2.03 1.3a7.515 7.515 0 0 0-2.093-.42c-.294 0-.64-.045-1.277-.115a1.038 1.038 0 0 1-.837-.561 1.003 1.003 0 0 1-.102-.491c.014-.171.072-.335.166-.478a1.406 1.406 0 0 1 1.187-.6 3.2 3.2 0 0 1 2.05.536c.543.41 1.026.893 1.437 1.434l-.339.28.34-.28a.424.424 0 0 1 .111.332.436.436 0 0 1-.629.35l-.013.013Z"/><path fill="#231F20" fill-rule="evenodd" d="M42.318 45.248a.506.506 0 0 1 .523.585.509.509 0 0 1-.39.41.506.506 0 0 1-.476-.84.497.497 0 0 1 .343-.155ZM53.773 43.129a.48.48 0 0 1 .48.478.478.478 0 1 1-.48-.478Z" clip-rule="evenodd"/><path fill="#231F20" d="M26.551 28.612a.433.433 0 0 0-.102.606.44.44 0 0 0 .639.108 36.134 36.134 0 0 1 11.18-5.273 33.288 33.288 0 0 1 11.942-1.07.432.432 0 1 0 .082-.862 34.001 34.001 0 0 0-12.253 1.097 37.157 37.157 0 0 0-11.456 5.394M55.822 65.089c.02.066.032.135.039.204 0 .146.058.293.09.414a9.663 9.663 0 0 0 3.058 1.875c.23.08.473.108.715.083a.637.637 0 0 0 .409-.217c.096-.126.167-.269.21-.421.16-.561-.09-2.13-.255-3.188l.269-.045-.268.045-.058-.37.428-.063-.428.063a4.442 4.442 0 0 0-.224-.905 1.403 1.403 0 0 0-.364-.587.46.46 0 0 0-.345-.108l-.16.038-.16-.408.154.408c-.396.275-.76.594-1.085.95a41.947 41.947 0 0 0-2.011 2.136c.003.053.003.106 0 .16l-.014-.064Zm-1.94.465.038.255.038.236a.523.523 0 0 0 .153.198.57.57 0 0 0 .39.134h.044a.568.568 0 0 0 .498-.593.102.102 0 0 1 0-.045v-.351a.567.567 0 0 0-.178-.261.523.523 0 0 0-.39-.128h-.044a.567.567 0 0 0-.492.587l-.058-.032Zm-.773.714a1.706 1.706 0 0 1-.07-.325V65.6a42.154 42.154 0 0 0-3.06-.931c-.7-.218-1.417-.374-2.144-.466v-.433.433h-.083a.978.978 0 0 0-.205.039.502.502 0 0 0-.338.274 1.273 1.273 0 0 0-.096.625c.026.296.084.589.172.873v.09c.307 1.045.888 3.009 1.348 3.506a.99.99 0 0 0 1.187.236c.455-.19.867-.467 1.213-.816a11.56 11.56 0 0 0 2.063-2.735l.013-.026Zm2.12-1.912a61.058 61.058 0 0 1 1.973-2.085c.4-.484.875-.901 1.405-1.237.107-.041.218-.071.332-.09h.038a1.28 1.28 0 0 1 1.022.3c.29.257.51.584.638.95.124.35.214.71.269 1.078l.063.376c.185 1.154.447 2.837.237 3.583-.074.271-.205.523-.383.74a1.497 1.497 0 0 1-.939.516c-.365.044-.735.01-1.086-.102a10.005 10.005 0 0 1-3.154-1.862l-.058.077a1.398 1.398 0 0 1-.97.51h-.045a1.44 1.44 0 0 1-.818-.191 12.111 12.111 0 0 1-2.087 2.703 4.727 4.727 0 0 1-1.5.995 1.88 1.88 0 0 1-1.617-.058 1.998 1.998 0 0 1-.517-.401c-.6-.638-1.213-2.742-1.539-3.826l-.032-.096a5.324 5.324 0 0 1-.204-1.064.075.075 0 0 0 0-.039h.44-.434a2.185 2.185 0 0 1 .192-1.128 1.381 1.381 0 0 1 .874-.708c.128-.035.259-.058.39-.07h.033c.823.083 1.636.25 2.425.497 1.137.306 2.396.689 3.06.925a1.433 1.433 0 0 1 1.079-.657h.038a1.42 1.42 0 0 1 .862.268l.012.096ZM36.666 64.095a.466.466 0 0 0 .273-.713.455.455 0 0 0-.477-.18c-4.694 1.065-6.45 1.99-10.562 4.157l-.37.198a.459.459 0 0 0 .428.81l.37-.198c4.042-2.13 5.747-3.035 10.338-4.074ZM62.208 59.977a.46.46 0 1 0-.166.899c1.494.28 2.727.523 3.933.854a26.19 26.19 0 0 1 3.787 1.371.462.462 0 0 0 .648-.213.46.46 0 0 0 0-.373.455.455 0 0 0-.277-.25 26.95 26.95 0 0 0-3.921-1.415c-1.239-.344-2.49-.593-4.004-.873Z"/></svg>