<svg width="90" height="90" viewBox="0 0 90 90" fill="none" xmlns="http://www.w3.org/2000/svg">
<circle cx="45" cy="45" r="45" fill="#195491"/>
<path fill-rule="evenodd" clip-rule="evenodd" d="M63.7692 23H62.6431C62.0338 23 61.4985 23.0557 61.0554 23.0743C60.3293 23.0618 59.606 23.1684 58.9138 23.39C58.6 23.4829 58.3046 23.5757 58.0277 23.7243C57.2154 24.0957 56.5508 24.3557 55.9969 25.1357C55.4431 25.8971 55.0738 26.8071 54.9262 27.8657L54.1323 33.01C54.1323 33.01 54.5015 33.0657 56.9569 33.0657H58.4708C59.6892 33.0657 60.6308 32.9543 61.2585 32.88C61.9046 32.7686 62.5138 32.6014 63.1046 32.3229C63.8985 31.9514 64.5815 31.3943 65.1354 30.6143C65.6892 29.8343 66.04 28.9243 66.2062 27.8657L67 23H63.7692ZM57.1231 37.43H43.8308C43.3877 37.4486 42.9815 37.4857 42.6492 37.5414C42.0099 37.6347 41.3878 37.8224 40.8031 38.0986C39.9908 38.47 39.3262 39.0271 38.7723 39.8071C38.2185 40.5871 37.8492 41.4971 37.7015 42.5557L36.9077 47.5514L42.6308 47.5329H55.5169C56.7354 47.5329 57.6769 47.4957 58.3046 47.4029C58.9508 47.31 59.56 47.1243 60.1508 46.8457C60.9446 46.4929 61.6277 46.0843 62.1815 45.3043C62.7354 44.5243 63.0862 43.6143 63.2523 42.5557L64.0462 37.43H57.1231ZM54.1692 51.9343H27.4923L25.8862 51.9529C25.4431 51.9714 25.0554 52.0086 24.7046 52.0643C24.3538 52.12 24.04 52.1757 23.7446 52.2871C23.4492 52.3614 23.1538 52.4729 22.8769 52.6214C22.0646 52.9929 21.4 53.55 20.8462 54.33C20.2923 55.11 19.9231 56.02 19.7754 57.0786L19 61.9814L25.9231 62H52.5631C53.7815 62 54.7231 61.9443 55.3508 61.87C55.9969 61.7771 56.6062 61.7957 57.1969 61.5357C57.9908 61.1643 58.6738 60.6071 59.2277 59.8271C59.7815 59.0471 60.1323 58.1371 60.2985 57.0786L61.0923 51.9343H54.1508" fill="#89CAEA"/>
</svg>
