<svg width="90" height="90" viewBox="0 0 90 90" fill="none" xmlns="http://www.w3.org/2000/svg">
<circle cx="45" cy="45" r="45" fill="#F6F6F7"/>
<path fill-rule="evenodd" clip-rule="evenodd" d="M43.2341 70.9368C41.9614 70.9368 40.5909 70.8386 39.3183 70.6421C35.3046 70.0526 29.7246 68.2842 25.3193 63.3719C24.1446 61.9965 23.6551 59.8351 25.1236 58.3614C25.613 57.8702 26.2983 57.5754 27.0814 57.5754C28.0604 57.5754 29.0393 57.9684 30.0183 58.7544C30.7036 59.3439 31.4867 59.8351 32.2699 60.1298H32.3678C33.6404 60.8175 35.0109 61.1123 36.4793 61.1123C41.5699 61.1123 45.6814 56.986 45.6814 51.8772C45.6814 46.7684 41.5699 42.6421 36.4793 42.6421C35.1088 42.6421 33.8362 42.9368 32.5636 43.5263C32.4657 43.6246 32.3678 43.6246 32.2699 43.6246L32.0741 43.7228C31.4867 44.0175 30.9972 44.3123 30.5078 44.7053C29.9204 45.1965 29.4309 45.6877 28.9414 46.2772C28.0604 47.3579 27.1793 47.8491 26.2004 47.8491C25.5151 47.8491 24.9278 47.6526 24.3404 47.1614C22.872 45.8842 23.0678 43.5263 24.0467 41.9544C26.2983 38.5158 30.8014 36.3544 35.4025 36.3544C35.9899 36.3544 36.4793 36.3544 37.0667 36.4526C37.4583 36.4526 37.752 36.5509 38.0457 36.5509C39.5141 36.5509 41.3741 36.1579 41.3741 32.9158V22.8947C41.3741 20.0456 42.8425 18.4737 45.2899 18.4737C47.6393 18.3754 49.1078 20.0456 49.1078 22.6982V39.3018V29.6737C49.1078 26.8246 50.6741 24.9579 53.0236 24.9579C55.2751 24.9579 56.9393 26.7263 56.9393 29.3789V43.9193V37.3368C56.9393 34.6842 58.6036 32.7193 60.7572 32.7193C63.1067 32.7193 64.8688 34.586 64.8688 37.2386V53.2526C64.8688 62.7825 54.9814 70.9368 43.2341 70.9368Z" fill="white"/>
<path fill-rule="evenodd" clip-rule="evenodd" d="M64.9667 46.7684L71.3299 50.8947C72.9941 51.9754 72.7983 54.4316 71.0362 55.3158L63.9878 58.4596C64.0857 58.4596 65.4562 54.1368 64.9667 46.7684Z" fill="#FFE428"/>
<path d="M36.5772 61.1123C41.6054 61.1123 45.6814 57.0216 45.6814 51.9754C45.6814 46.9293 41.6054 42.8386 36.5772 42.8386C31.5491 42.8386 27.473 46.9293 27.473 51.9754C27.473 57.0216 31.5491 61.1123 36.5772 61.1123Z" fill="#FFE428"/>
<path fill-rule="evenodd" clip-rule="evenodd" d="M36.773 44.214C35.3046 44.1158 33.9341 44.4105 32.6614 45C33.3467 44.9018 34.032 44.8035 34.7172 44.9018C39.5141 45.1965 43.1362 49.1263 42.9404 53.6456C42.8425 55.5123 42.0593 57.2807 40.7867 58.5579C42.9404 57.2807 44.4088 55.1193 44.5067 52.5649C44.7025 48.3404 41.2762 44.607 36.773 44.214Z" fill="#FFFDEC"/>
<path fill-rule="evenodd" clip-rule="evenodd" d="M40.8846 58.6561C35.892 59.2456 31.3888 55.9053 30.8015 51.1895C30.5078 48.6351 31.3888 46.2772 33.053 44.5088C30.0183 46.0807 28.0604 49.3228 28.452 52.7614C29.0394 57.2807 33.3467 60.5228 38.2415 59.9333C40.0036 59.7368 41.5699 59.0491 42.7446 58.0667C42.1573 58.3614 41.5699 58.5579 40.8846 58.6561Z" fill="#F7A533"/>
<path fill-rule="evenodd" clip-rule="evenodd" d="M72.2109 49.6175L66.3372 45.8842V37.1404C66.3372 33.6035 63.9878 31.1474 60.7572 31.1474C59.8762 31.1474 59.093 31.3439 58.4078 31.7368V29.3789C58.4078 25.9404 56.1562 23.4842 53.0236 23.4842C52.1425 23.4842 51.2615 23.6807 50.5762 24.0737V22.7965C50.5762 19.3579 48.4225 17 45.3878 17C42.0593 17 40.0036 19.2596 40.0036 22.8947V32.8175C40.0036 34.8807 39.3183 34.9789 38.2415 34.9789H37.4583C36.8709 34.8807 36.2836 34.8807 35.6962 34.8807C30.5078 34.8807 25.7109 37.2386 23.1657 41.1684C21.4036 43.6246 21.6972 46.6702 23.6551 48.2421C24.4383 48.9298 25.3193 49.2246 26.2983 49.2246C26.1025 50.1088 25.9067 50.993 25.9067 51.8772C25.9067 53.3509 26.2004 54.7263 26.6899 56.0035C25.7109 56.1018 24.9278 56.4947 24.2425 57.1825C22.3825 59.0491 22.4804 61.9965 24.4383 64.1579C29.1372 69.4632 35.1088 71.2316 39.2204 71.9193C40.5909 72.1158 41.9615 72.214 43.332 72.214C53.0236 72.214 61.5404 66.9088 64.8688 59.6386L71.7215 56.593C73.092 56.0035 73.8751 54.7263 73.973 53.2526C74.1688 51.7789 73.4836 50.5018 72.2109 49.6175ZM33.1509 45.1965C33.1509 45.1965 33.2488 45.1965 33.2488 45.0982C34.2278 44.7053 35.3046 44.4105 36.4793 44.4105C38.9267 44.4105 41.1783 45.4912 42.5488 47.3579C44.5067 49.9123 44.6046 53.1544 43.1362 55.807C43.1362 55.9053 43.0383 55.9053 43.0383 56.0035C42.9404 56.1018 42.8425 56.2 42.8425 56.3965C41.472 58.3614 39.2204 59.6386 36.5772 59.6386C32.3678 59.6386 28.9415 56.2 28.9415 51.9754C28.9415 49.1263 30.5078 46.5719 32.9551 45.2947C32.9551 45.1965 33.053 45.1965 33.1509 45.1965ZM43.4299 69.3649C42.2551 69.3649 40.9825 69.2667 39.7099 69.0702C35.9899 68.4807 30.7036 66.9088 26.6899 62.2912C25.9067 61.407 25.613 60.1298 26.3962 59.3439C26.592 59.1474 26.8857 59.0491 27.2772 59.0491C27.8646 59.0491 28.5499 59.3439 29.2351 59.9333C30.0183 60.6211 30.8993 61.1123 31.7804 61.5053C33.2488 62.193 34.8151 62.6842 36.5772 62.6842C42.4509 62.6842 47.1499 57.9684 47.1499 52.0737C47.1499 46.1789 42.4509 41.4632 36.5772 41.4632C35.0109 41.4632 33.4446 41.8561 32.0741 42.4456C31.8783 42.5439 31.7804 42.5439 31.6825 42.6421C31.6825 42.6421 31.5846 42.6421 31.5846 42.7404C30.9972 43.0351 30.4099 43.4281 29.8225 43.8211C29.0393 44.3123 28.5499 44.9018 27.9625 45.4912C27.473 46.0807 26.8857 46.3754 26.3962 46.3754C26.1025 46.3754 25.8088 46.2772 25.5151 46.0807C24.6341 45.393 24.8299 43.9193 25.5151 42.9368C27.473 39.9895 31.4867 38.0246 35.5983 38.0246C36.0878 38.0246 36.5772 38.0246 37.0667 38.1228C37.4583 38.1228 37.8499 38.2211 38.1436 38.2211C41.2762 38.2211 42.9404 36.3544 42.9404 33.1123V23.1895C42.9404 20.5368 44.3109 20.2421 45.3878 20.2421C47.052 20.2421 47.6393 21.7158 47.6393 23.0912V31.3439V39.5965C47.6393 40.3825 48.3246 41.0702 49.1078 41.0702C49.8909 41.0702 50.5762 40.3825 50.5762 39.5965V29.9684C50.5762 29.1825 50.772 26.7263 53.0236 26.7263C54.7857 26.7263 55.373 28.2982 55.373 29.5754V44.0175C55.373 44.8035 56.0583 45.4912 56.8415 45.4912C57.6246 45.4912 58.3099 44.8035 58.3099 44.0175V37.4351C58.3099 35.6667 59.2888 34.2912 60.6593 34.2912C62.5193 34.2912 63.2046 35.9614 63.2046 37.3368V53.2526C63.4004 61.8982 54.1983 69.3649 43.4299 69.3649ZM71.0362 53.1544C71.0362 53.3509 70.9383 53.7439 70.4488 54.0386L66.0436 56.0035C66.2393 55.1193 66.3372 54.1368 66.3372 53.1544V49.3228L70.5467 52.1719C71.0362 52.4667 71.0362 52.9579 71.0362 53.1544Z" fill="#28282A"/>
<path d="M57.0372 52.7614C58.3348 52.7614 59.3867 51.7057 59.3867 50.4035C59.3867 49.1013 58.3348 48.0456 57.0372 48.0456C55.7397 48.0456 54.6878 49.1013 54.6878 50.4035C54.6878 51.7057 55.7397 52.7614 57.0372 52.7614Z" fill="#010202"/>
</svg>
