<svg width="90" height="90" viewBox="0 0 90 90" fill="none" xmlns="http://www.w3.org/2000/svg">
<circle cx="45" cy="45" r="45" fill="#007FBD"/>
<path d="M34.3269 68.6634C34.0569 68.5044 33.749 68.4205 33.4352 68.4205C33.1215 68.4205 32.8135 68.5044 32.5435 68.6634C31.5553 69.0318 30.5167 69.2494 29.4631 69.3088C28.1918 69.3533 26.9476 68.9357 25.9631 68.134C24.9785 67.3322 24.3208 66.2012 24.1129 64.9522C23.7886 63.5 23.7886 62.0478 23.4644 60.5956C23.3319 59.4994 22.9432 58.4495 22.3295 57.5298C20.7291 54.7426 19.6833 51.6747 19.249 48.4938C18.4161 42.6867 19.7421 36.7768 22.978 31.874C24.7269 28.9759 27.053 26.4646 29.8133 24.4944C32.5736 22.5242 35.7097 21.1369 39.0287 20.4177C45.0848 18.9265 51.4788 19.6718 57.0249 22.5153C58.1598 22.9994 58.1598 23.1607 59.1325 22.1926C60.4296 20.9017 61.5645 19.6109 62.8615 18.4814C64.0109 17.1301 65.6339 16.2648 67.4011 16.061C68.4759 15.8639 69.5816 15.9101 70.636 16.1964C71.6904 16.4826 72.6666 17.0015 73.492 17.7145C74.3174 18.4275 74.9709 19.3163 75.404 20.315C75.8371 21.3137 76.0387 22.3966 75.9938 23.4835C75.9106 25.2995 75.1607 27.0219 73.8862 28.3242L69.0223 33.1649C68.8764 33.3104 68.7817 33.4992 68.7524 33.7028C68.7232 33.9064 68.761 34.1139 68.8602 34.2944C70.797 38.3096 71.6358 42.7621 71.2921 47.2029C71.0153 52.3214 69.1455 57.2274 65.9419 61.241C62.2413 66.0975 56.8742 69.4288 50.864 70.5997C49.0416 70.9004 47.1988 71.0622 45.3517 71.0838C41.5562 70.9768 37.8154 70.1556 34.3269 68.6634V68.6634ZM37.2453 32.6808C37.8938 32.3581 38.3802 32.1967 39.0287 31.874C41.5665 30.731 44.3656 30.2853 47.1351 30.5832C47.7341 30.6097 48.334 30.5554 48.9185 30.4218C49.6217 30.2282 50.2452 29.8178 50.6996 29.2497C51.154 28.6815 51.4159 27.9847 51.4477 27.2592C51.4395 26.443 51.1424 25.6557 50.6087 25.0359C50.0749 24.4162 49.3386 24.0036 48.5294 23.8707C46.1596 23.5206 43.7471 23.5752 41.3957 24.0321C38.1698 24.605 35.1131 25.8873 32.4485 27.7855C29.7839 29.6837 27.5786 32.15 25.9936 35.0043C24.2764 37.8928 23.3278 41.1694 23.2374 44.5244C23.1216 45.5889 23.3487 46.6625 23.8859 47.5902C24.3445 48.1507 24.9539 48.5698 25.643 48.7983C26.332 49.0269 27.0722 49.0556 27.777 48.881C28.4224 48.7399 29.006 48.398 29.4432 47.9049C29.8804 47.4117 30.1486 46.7929 30.2089 46.138L31.1817 40.8132C31.4028 39.9909 31.6735 39.1827 31.9923 38.3928C32.9651 39.361 33.9378 40.1678 34.9106 41.1359C37.3425 43.5563 39.7745 45.9766 42.2064 48.2356C42.9519 49.106 43.9883 49.679 45.1247 49.8492C45.7378 49.8504 46.3442 49.7216 46.9033 49.4712C47.4625 49.2207 47.9615 48.8545 48.3672 48.397L57.7707 39.0383L58.257 38.5542C61.3375 43.0722 61.0132 50.8173 56.1494 55.8194C53.8646 58.1184 50.8981 59.6259 47.6871 60.1198C44.4762 60.6136 41.1908 60.0677 38.3153 58.5625C38.4774 58.4011 38.4774 58.2397 38.6396 58.2397C39.2835 57.5268 39.8793 56.7722 40.423 55.9807C40.5948 55.7629 40.7075 55.5046 40.75 55.2309C40.7925 54.9571 40.7636 54.6771 40.6658 54.4177C40.5681 54.1584 40.4049 53.9284 40.192 53.75C39.9791 53.5716 39.7236 53.4507 39.4502 53.399L37.0183 52.915C34.2621 52.5923 31.5059 52.2695 28.5876 52.1082C28.3591 52.084 28.1293 52.1412 27.9391 52.2695C27.2906 52.7536 26.48 53.399 26.8042 54.3672V55.0126C26.9663 57.433 27.2906 59.8533 27.4527 62.2737C27.481 63.0359 27.5897 63.793 27.777 64.5327C27.8505 64.81 27.991 65.0653 28.1863 65.2762C28.3816 65.4871 28.6258 65.6473 28.8976 65.7427C29.1694 65.8382 29.4605 65.8661 29.7456 65.8239C30.0306 65.7817 30.301 65.6708 30.5332 65.5008C31.2017 65.05 31.8022 64.5067 32.3166 63.8872C32.6408 63.5645 32.8029 63.5645 33.2893 63.7259C37.4919 66.3609 42.4469 67.5513 47.3945 67.1144C51.5428 66.7572 55.4919 65.185 58.7434 62.5964C61.9931 60.1732 64.4703 56.8673 65.8771 53.0763C67.7362 48.665 67.9092 43.7291 66.3634 39.1996C65.6352 37.2058 64.7685 35.2648 63.7694 33.3908C63.6073 33.0681 63.6073 32.9067 63.9315 32.584C64.2558 32.2613 64.7422 31.7772 65.2286 31.4545C67.1741 29.5182 69.2818 27.4206 71.2273 25.3229C71.5361 25.0157 71.7811 24.651 71.9483 24.2495C72.1154 23.8481 72.2015 23.4178 72.2015 22.9832C72.2015 22.5487 72.1154 22.1184 71.9483 21.7169C71.7811 21.3155 71.5361 20.9508 71.2273 20.6436C70.6648 20.0073 69.8733 19.6168 69.0239 19.5564C68.1745 19.496 67.3354 19.7706 66.6877 20.3209C66.0538 20.8139 65.4577 21.3533 64.9043 21.9344C62.1481 24.6775 59.3919 27.4206 56.4736 30.1636C53.0689 33.5521 49.6643 36.9406 46.0974 40.3291L45.2868 41.1359C42.5955 38.3283 39.515 36.0693 37.2453 32.6808V32.6808Z" fill="white"/>
</svg>
