<svg width="90" height="90" viewBox="0 0 90 90" fill="none" xmlns="http://www.w3.org/2000/svg">
<circle cx="45" cy="45" r="45" fill="#F5F5F5"/>
<path d="M74.88 44.55V43.5C74.1 37.74 68.88 32.115 64.215 30C61.3268 28.5324 58.2052 27.5781 54.99 27.18C52.6237 26.9008 50.3159 26.253 48.15 25.26L47.61 24.9C47.43 24.78 47.25 24.72 47.07 24.6C46.0125 23.81 45.0465 22.9044 44.19 21.9C43.7131 21.3114 43.3102 20.6665 42.99 19.98L42.75 19.5V44.79H45.45V26.79C45.9075 27.2228 46.4104 27.605 46.95 27.93C49.1446 28.9014 51.469 29.5481 53.85 29.85C56.7009 30.2688 59.4942 31.0136 62.175 32.07C68.175 34.77 71.76 41.07 72.18 44.595V49.095H47.61V61.68C48.3936 61.683 49.1761 61.6229 49.95 61.5H50.19V51.57H75V48.99C75 47.67 75 45.99 74.88 44.49" fill="#CD1F45"/>
<path d="M42.69 49.89C40.2946 49.982 37.9087 50.2427 35.55 50.67C34.17 50.91 32.79 51.27 31.47 51.63C30.87 51.81 30.21 52.05 29.61 52.29C29.37 51.63 29.19 51.03 29.01 50.43V50.19C28.7816 49.2413 28.6113 48.2796 28.5 47.31H42.705L42.69 49.89V49.89ZM42.69 62.955H42.51C42.03 62.835 41.49 62.775 41.01 62.595C39.842 62.2887 38.7143 61.8456 37.65 61.275C36.9357 60.9161 36.2576 60.489 35.625 60C34.0396 58.9058 32.6757 57.5214 31.605 55.92C31.3641 55.5941 31.1436 55.2534 30.945 54.9C31.065 54.9 31.185 54.9 31.305 54.78C31.3953 54.7655 31.479 54.7236 31.545 54.66C32.745 54.3 34.125 53.88 35.565 53.58C37.9025 53.1347 40.2683 52.854 42.645 52.74V63L42.69 62.955V62.955ZM31.605 60.795C30.7038 60.4661 29.8224 60.0854 28.965 59.655L28.605 59.475C27.885 59.115 27.105 58.755 26.445 58.335C26.445 58.335 26.265 58.335 26.205 58.155C26.145 57.975 26.325 57.975 26.445 57.855L26.625 57.615C27.0522 57.1971 27.5139 56.8157 28.005 56.475C28.005 56.475 28.125 56.475 28.185 56.355C28.2134 56.3427 28.244 56.3363 28.275 56.3363C28.306 56.3363 28.3366 56.3427 28.365 56.355C28.4784 56.5064 28.5787 56.6669 28.665 56.835C28.7513 57.0033 28.8516 57.1638 28.965 57.315C29.7456 58.4538 30.6292 59.5184 31.605 60.495C31.7098 60.6474 31.8305 60.7883 31.965 60.915C31.8453 60.9254 31.7248 60.9254 31.605 60.915V60.795V60.795ZM24.345 55.65C24.1597 55.9211 23.9594 56.1815 23.745 56.43C23.325 56.07 22.905 55.71 22.545 55.35C20.1516 53.2845 18.5591 50.4444 18.045 47.325H25.5C25.6097 48.8472 25.871 50.3547 26.28 51.825C26.4606 52.4423 26.7018 53.0402 27 53.61L26.7 53.79L26.4 53.97C25.6508 54.4466 24.9609 55.0106 24.345 55.65V55.65ZM18.645 42.405C19.0443 41.2188 19.6318 40.1046 20.385 39.105C21.0539 38.205 21.7965 37.3622 22.605 36.585C22.7797 36.4404 22.9404 36.2798 23.085 36.105C23.2396 35.9805 23.3804 35.8397 23.505 35.685C24.3133 36.6513 25.2888 37.4643 26.385 38.085H26.505L26.925 38.325C26.745 38.805 26.505 39.405 26.325 40.005V40.245C26.205 40.725 26.025 41.205 25.965 41.625C25.7489 42.5894 25.5936 43.5663 25.5 44.55H18C18.1088 43.8141 18.2897 43.0907 18.54 42.39L18.645 42.405V42.405ZM25.92 33.825C26.0529 33.7664 26.1747 33.6852 26.28 33.585C27.06 33.105 27.78 32.745 28.62 32.325H28.8C29.4636 31.9892 30.1446 31.6887 30.84 31.425L31.44 31.185H31.62L31.32 31.485C30.3231 32.4642 29.4376 33.5508 28.68 34.725C28.56 34.905 28.44 35.145 28.32 35.325L27.96 35.865C27.381 35.4764 26.8521 35.018 26.385 34.5C26.1869 34.3172 26.0062 34.1163 25.845 33.9C25.9106 33.8691 25.9713 33.8288 26.025 33.78L25.92 33.825V33.825ZM73.8 53.67H52.05V56.25H67.05C66.4722 56.8004 65.8501 57.302 65.19 57.75C59.2999 61.3742 52.5 63.2472 45.585 63.15V47.31H70.5V44.55H28.5C28.5 43.77 28.68 43.05 28.8 42.33C28.8 42.09 28.92 41.79 28.98 41.55C29.1355 40.8774 29.336 40.2159 29.58 39.57L29.94 39.69C30.4289 39.8832 30.9299 40.0436 31.44 40.17C32.7723 40.5842 34.1372 40.8852 35.52 41.07H35.88C36.9 41.25 38.1 41.43 39.42 41.55C40.44 41.67 41.52 41.67 42.66 41.73V38.73C41.6574 38.7269 40.6559 38.6667 39.66 38.55C38.52 38.43 37.38 38.31 36.3 38.13C36.0358 38.1246 35.7737 38.0843 35.52 38.01C34.155 37.7777 32.8107 37.4366 31.5 36.99C31.32 36.99 31.14 36.99 31.02 36.87C30.9 36.75 30.9 36.87 30.84 36.87L31.5 36C31.5462 35.8925 31.6068 35.7915 31.68 35.7C32.7997 34.1394 34.1561 32.7629 35.7 31.62C37.709 30.1923 40.0177 29.2431 42.45 28.8451H42.69V25.8451H42.45C42.3723 25.8176 42.2877 25.8176 42.21 25.8451C39.9951 26.0229 37.7917 26.3234 35.61 26.7451C34.2213 27.0401 32.8574 27.4413 31.53 27.945C30.6291 28.2043 29.747 28.525 28.89 28.9051C28.0265 29.2763 27.1851 29.697 26.37 30.165C25.0285 30.9233 23.736 31.7649 22.5 32.685C20.7806 34.0182 19.2647 35.5947 18 37.365C17.101 38.613 16.3932 39.9882 15.9 41.445C15.4083 42.8955 15.1452 44.4137 15.12 45.945C15 50.85 17.64 55.5 22.5 59.235C22.79 59.4207 23.0703 59.621 23.34 59.835C23.64 60.015 23.88 60.255 24.18 60.435C24.72 60.735 25.26 61.095 25.8 61.395C25.9918 61.5282 26.1922 61.6485 26.4 61.755C27.12 62.115 27.9 62.475 28.56 62.775L28.92 62.955C29.7797 63.3455 30.6612 63.6861 31.56 63.975C32.88 64.395 34.26 64.815 35.64 65.115C38.8242 65.8382 42.0798 66.2004 45.345 66.195C52.9335 66.3432 60.3983 64.2567 66.81 60.195C67.911 59.4776 68.9541 58.6752 69.93 57.795C71.3041 56.529 72.6062 55.1868 73.83 53.775L73.8 53.67V53.67Z" fill="#073D59"/>
</svg>
