<svg xmlns="http://www.w3.org/2000/svg" width="90" height="90" fill="none"><circle cx="45" cy="45" r="45" fill="#FF5000"/><path fill="#fff" d="M30.154 36.043v3.54h-.756c-1.39-2.563-3.98-4.027-6.965-4.027-4.895 0-9.433 4.679-9.433 10.742C13 52.36 17.418 57 22.433 57c2.985 0 5.572-1.465 6.965-4.028h.756v3.5h4.378V36.042h-4.377ZM23.746 52.85c-3.538 0-6.328-2.849-6.328-6.552 0-3.704 2.781-6.55 6.328-6.55a6.282 6.282 0 0 1 2.506.445 6.394 6.394 0 0 1 2.14 1.407 6.559 6.559 0 0 1 1.434 2.148 6.679 6.679 0 0 1 0 5.098 6.559 6.559 0 0 1-1.435 2.147 6.394 6.394 0 0 1-2.139 1.407c-.798.319-1.65.47-2.506.446v.004ZM52.681 43.369H45.08v-3.296h12.854v-4.03H40.698v20.428h11.98c4.06 0 6.886-2.767 6.886-6.552 0-3.785-2.863-6.55-6.883-6.55Zm-.513 9.074H45.08v-5.087h7.088c1.99 0 2.944 1.059 2.944 2.563 0 1.505-.919 2.524-2.944 2.524Z"/><path fill="#00F500" d="M71.057 43.197c3.835 0 6.943-3.178 6.943-7.099C78 32.178 74.892 29 71.057 29c-3.834 0-6.943 3.178-6.943 7.098s3.109 7.099 6.943 7.099Z"/></svg>