<svg width="90" height="90" fill="none" xmlns="http://www.w3.org/2000/svg"><circle cx="45" cy="45" r="45" fill="#832B43"/><path d="M74.92 32.88c-6.56 1.6-12.8.8-19.2-.8-4.8-1.6-9.76-3.04-14.56-4.64-7.04-2.24-13.12-.48-18.4 4.64-4 3.68-6.72 8-9.44 12.48-.64 1.28-.64 1.6.8 1.92 1.76.48 3.2 1.12 4.8 1.92 4.16 2.4 7.84 5.44 11.36 8.8 2.4 2.4 4.8 4.32 7.68 6.4 2.4 1.6 4.96 2.4 8 1.76 5.6-1.12 10.08-4.32 14.24-7.84.64-.64.48-1.12-.48-1.28-.48 0-.8-.16-1.6-.16-1.92-.16-3.68-1.12-5.28-2.24.8-.16 1.28-.48 1.76-.64 6.72-1.76 12.8-5.44 17.44-10.4 1.92-2.24 3.68-4.32 4.32-7.36.96-2.72.8-2.88-1.44-2.56ZM54.28 56.72c.48 0 .8 0 .8.48s-.48.48-.8.64c-4 1.76-7.68.8-10.72-1.92-1.92-1.76-3.52-3.68-5.28-5.6-2.56-3.04-5.44-5.92-9.6-7.2-1.92-.64-4-.8-5.92-.64h-.48c-.16 0-.16-.16-.48-.16 1.76-1.12 3.52-1.76 5.44-2.24 5.92-1.76 10.08 1.12 13.6 5.44 2.4 3.04 4.8 6.4 7.84 8.96 1.76.96 3.52 1.76 5.6 2.24Zm16-19.04c-1.92 1.92-4.16 3.52-6.56 4.64-3.2 1.6-6.56 1.12-9.6-.48-2.4-1.12-4.64-2.56-7.04-4.16-4.16-2.56-8.96-3.68-13.92-3.04-4.16.64-8 1.92-11.84 4.16-.64.48-1.28.64-2.24.8 1.6-2.4 3.52-4.64 5.6-6.08 2.88-2.4 6.08-3.68 9.76-4 2.56 0 5.44.48 7.84 1.28 4.16 1.28 8 3.52 12.16 4.96 4.64 1.6 9.12 2.56 13.92 1.76H69c1.12 0 1.12 0 1.28.16Z" fill="#fff"/></svg>