<svg xmlns="http://www.w3.org/2000/svg" width="90" height="90" fill="none"><circle cx="45" cy="45" r="45" fill="#F5F5F5"/><path fill="#276062" d="M36.335 17.7v33.035L23 58.369V30.907c0-5.29 4.743-3.847 4.98-3.807-1.646-4.23 2.385-5.882 2.385-5.882l5.97-3.518ZM36.335 51.89v2.088L23 61.606v-2.089l13.335-7.627ZM36.335 55.542v1.786L23 64.957v-1.78l13.335-7.634ZM36.335 59.121v1.524L23 68.273V66.75l13.335-7.628ZM23 70.415l13.335-7.634v1.343L24.464 71.12 23 71.98v-1.565ZM65.986 34.93v2.087L51.77 45.15V43.06l14.216-8.13ZM65.986 38.582v1.786L51.77 48.499v-1.786l14.216-8.131ZM65.986 42.154v1.53L51.77 51.817v-1.53l14.216-8.132ZM65.986 45.82v1.423L51.77 55.375V53.95l14.216-8.13ZM65.986 49.379v1.275L51.77 58.786V57.51l14.216-8.131ZM65.986 53.139v1.155l-14.216 8.13V61.27l14.216-8.131ZM65.987 56.718v.745l-14.21 8.124v-.738l14.21-8.132ZM65.987 60.25v.758l-14.21 8.131v-.765l14.21-8.125ZM51.777 72.053l14.21-8.124v.785L51.777 73v-.947ZM65.986 32.022v1.752l-14.229 8.132V17.358c2.975 1.719 6.01 3.505 7.454 4.445 3.32 2.155 2.032 4.881 2.032 4.881 5.197-.457 4.743 5.338 4.743 5.338ZM50.314 16.512v26.226L37.799 49.93V16.8L44.16 13s2.853 1.618 6.153 3.512ZM50.314 43.893v2.088L37.799 53.14V51.05l12.515-7.158ZM50.314 47.546v1.786l-12.515 7.157v-1.78l12.515-7.163ZM50.314 51.124v1.525l-12.515 7.157v-1.524l12.515-7.158ZM50.314 54.784v1.423l-12.515 7.158v-1.417l12.515-7.164ZM50.314 58.35v1.268l-12.515 7.158v-1.27l12.515-7.157ZM37.799 69.267l12.515-7.158v1.256l-12.515 7.218v-1.316Z"/></svg>