<svg width="90" height="90" fill="none" xmlns="http://www.w3.org/2000/svg"><circle cx="45" cy="45" r="45" fill="url(#a)"/><path d="M74.623 44.637c-.837-2.11-2.924-3.27-5.177-2.86l-4.622.82a1.416 1.416 0 0 0-1.144 1.63 1.423 1.423 0 0 0 1.64 1.137l4.622-.82c1.096-.2 1.78.457 2.052 1.137.27.68.224 1.618-.72 2.216l-6.792 4.373a1.987 1.987 0 0 1-2.052.082 1.957 1.957 0 0 1-1.05-1.759V36.407c0-.774-.625-1.407-1.415-1.407-.778 0-1.415.633-1.415 1.407V50.57c0 1.793.944 3.364 2.524 4.22a4.815 4.815 0 0 0 2.311.598c.908 0 1.816-.258 2.63-.785l6.792-4.373c1.922-1.231 2.654-3.482 1.816-5.593Zm-23.88-2.872-4.622.82a1.416 1.416 0 0 0-1.144 1.63 1.423 1.423 0 0 0 1.64 1.137l4.622-.82c1.097-.2 1.78.457 2.052 1.137.271.68.224 1.618-.72 2.216l-6.792 4.373a1.987 1.987 0 0 1-2.052.082 1.957 1.957 0 0 1-1.05-1.759V39.82c0-1.794-.943-3.365-2.523-4.221a4.796 4.796 0 0 0-4.941.188L18.149 46.782c-1.922 1.242-2.641 3.494-1.804 5.604s2.925 3.27 5.177 2.86l14.906-2.66a1.416 1.416 0 0 0 1.143-1.63 1.423 1.423 0 0 0-1.639-1.138l-14.905 2.662c-1.097.199-1.781-.458-2.052-1.138-.272-.68-.224-1.618.719-2.215L36.758 38.13a1.987 1.987 0 0 1 2.052-.082 1.957 1.957 0 0 1 1.05 1.759V50.57c0 1.793.943 3.364 2.523 4.22a4.816 4.816 0 0 0 2.311.598c.908 0 1.816-.258 2.618-.785l6.792-4.373c1.923-1.243 2.642-3.494 1.805-5.604-.826-2.11-2.913-3.26-5.165-2.861Z" fill="#fff"/><defs><linearGradient id="a" x1="69" y1="6" x2="15" y2="82" gradientUnits="userSpaceOnUse"><stop stop-color="#7AD45C"/><stop offset="1" stop-color="#4EA964"/></linearGradient></defs></svg>