<svg width="90" height="90" fill="none" xmlns="http://www.w3.org/2000/svg"><circle cx="45" cy="45" r="45" fill="#F5F5F5"/><g clip-path="url(#a)"><path d="M23.68 57.467a35.734 35.734 0 0 0 5.636 2.208 42.228 42.228 0 0 0 7.581 1.5 46.65 46.65 0 0 0 8.032.189c6.192-.398 12.113-1.793 17.606-4.71 3.06-1.624 5.79-3.659 7.915-6.394 1.454-1.876 2.486-3.951 2.823-6.303.196-1.365.302-2.739-.415-4.027a.477.477 0 0 0-.192-.227.494.494 0 0 0-.292-.072c-6.419 0-12.836-.007-19.252-.023-.341 0-.685 0-1.027.033-.097 0-.242.076-.271.147-.368 1.27-.725 2.556-1.076 3.849.112.022.225.039.34.05 1.853.075 3.709.11 5.557.236 1.895.124 3.79.29 5.623.825.37.117.724.276 1.057.474a.574.574 0 0 1 .306.349.55.55 0 0 1-.064.456 4.371 4.371 0 0 1-.775 1.142 32.203 32.203 0 0 1-2.997 2.477 39.598 39.598 0 0 1-9.263 4.88c-1.26.452-2.541.696-3.876.395-.92-.206-1.393-.68-1.332-1.601.061-1.153.21-2.3.445-3.432.354-1.609.829-3.193 1.253-4.787.02-.067.031-.133.056-.237-.223-.02-.43-.045-.635-.052-.933-.036-1.866-.057-2.798-.102a.552.552 0 0 0-.54.284c-1.304 1.945-2.806 3.717-4.713 5.133-2.113 1.57-4.507 2.605-7.007 3.396a53.073 53.073 0 0 1-8.303 1.988c-.627.095-1.267.123-1.904.156a.787.787 0 0 1-.448-.14c-3.268-2.288-5.059-5.455-5.616-9.297-.39-2.685.242-5.21 1.584-7.56 1.592-2.802 3.894-4.948 6.578-6.727 3.632-2.407 7.649-3.93 11.906-4.882a44.241 44.241 0 0 1 11.251-1.033c5.572.195 10.956 1.296 15.925 3.895 1.274.665 2.445 1.523 3.66 2.295a.831.831 0 0 1 .26.265c-.758-.336-1.507-.692-2.275-1.004a38.901 38.901 0 0 0-9.187-2.45 46.109 46.109 0 0 0-8.16-.459c-6.2.206-12.17 1.421-17.78 4.076-3.097 1.471-5.912 3.333-8.238 5.846-1.83 1.976-3.15 4.214-3.765 6.84-.511 2.18-.136 4.212.83 6.183.071.11.184.19.313.22 2.304.47 4.668.59 7.01.36a23.154 23.154 0 0 0 6.691-1.506c2.953-1.184 5.345-3.098 7.395-5.448.193-.223.385-.45.632-.74-.85-.035-1.602-.056-2.353-.1-3.569-.217-7.135-.475-10.607-1.394-.7-.2-1.384-.457-2.042-.767a3 3 0 0 1-.896-.661c-.47-.488-.456-1.099.072-1.525a5.07 5.07 0 0 1 1.299-.751c1.33-.536 2.742-.753 4.165-.905 2.488-.265 4.98-.08 7.471-.026 2.491.054 4.984.137 7.475.215a.55.55 0 0 0 .484-.265c.826-1.052 1.623-2.132 2.51-3.136a8.268 8.268 0 0 1 3.482-2.425 6.224 6.224 0 0 1 2.621-.237c.485.04.594.192.46.677-.31 1.123-.656 2.236-.99 3.35-.184.608-.38 1.212-.565 1.82-.039.131-.053.269-.09.45h20.41a.582.582 0 0 1 .358.077.562.562 0 0 1 .238.272c.884 1.658 1.543 3.4 1.696 5.275a11.512 11.512 0 0 1-1.006 5.709c-1.194 2.704-3.1 4.865-5.412 6.703-3.261 2.605-6.99 4.318-10.99 5.507a42.813 42.813 0 0 1-8.13 1.525c-2.706.264-5.43.279-8.139.045-4.67-.41-9.158-1.494-13.35-3.612a21.526 21.526 0 0 1-4.234-2.755Zm25.11-5.649.08.021c-.002.218.017.436.059.65.12.395.516.532 1.09.402 1.22-.313 2.396-.77 3.503-1.362a27.117 27.117 0 0 0 5.185-3.224c.326-.266.621-.565.882-.892.426-.54.3-1.026-.335-1.32a4.93 4.93 0 0 0-1.07-.336c-2.484-.498-5.013-.545-7.511-.768-.201-.016-.26.076-.305.237-.294 1.057-.633 2.101-.887 3.165-.276 1.139-.468 2.285-.69 3.427Zm-5.049-12.08h-.458l-2.514.064c-3.2.074-6.401.133-9.602.237-.682.042-1.36.127-2.03.256-.29.047-.676.085-.727.445-.05.36.288.557.58.666.636.27 1.297.483 1.974.634a71.8 71.8 0 0 0 4.714.711c1.629.185 3.269.277 4.904.396a.596.596 0 0 0 .439-.126c.9-1.08 1.778-2.153 2.72-3.297v.014Zm5.573 0h-2.578a.505.505 0 0 0-.317.216 257.897 257.897 0 0 0-2.162 3.117c-.063.092-.113.192-.186.317.09.021.183.036.276.045 1.023.04 2.047.083 3.072.102a.45.45 0 0 0 .305-.237c.373-.82.727-1.658 1.083-2.475.148-.343.306-.663.512-1.106l-.005.021Zm-1.677-1.31.032.105c.727 0 1.453.028 2.168.03a.266.266 0 0 0 .19-.13c.362-.758.755-1.509 1.058-2.29.184-.474-.06-.654-.543-.493-.135.042-.264.1-.385.17-1.069.638-1.737 1.66-2.515 2.587l-.005.021Z" fill="#293C7F"/></g><defs><clipPath id="a"><path fill="#fff" transform="translate(15 26)" d="M0 0h60v38H0z"/></clipPath></defs></svg>