<svg xmlns="http://www.w3.org/2000/svg" width="90" height="90" fill="none"><circle cx="45" cy="45" r="45" fill="#113F72"/><path fill="#fff" fill-rule="evenodd" d="M39.85 33.316 62.513 45 39.85 56.684 17.187 45 39.85 33.316Zm2.062 5.304 9.27 4.779-9.27 4.79V45l3.058-1.601-3.058-1.639v-3.14ZM46.025 28 79 45 46.025 62l-3.081-1.601L72.874 45l-29.93-15.411L46.025 28ZM39.85 44.037l-2.887 1.476v-3.277L31.624 45l8.226 4.266v3.19L25.425 45l14.425-7.443v6.48Zm0-13.91L68.7 45 39.85 59.873 11 45l28.85-14.873Z" clip-rule="evenodd"/></svg>