<svg width="90" height="90" viewBox="0 0 90 90" fill="none" xmlns="http://www.w3.org/2000/svg">
<circle cx="45" cy="45" r="45" fill="#0061AB"/>
<path d="M49.4461 47.3082L47.3141 49.4408L48.7313 52.8656L52.8701 48.7258L49.4461 47.3082ZM46.5239 49.767H43.5013L42.0839 53.1918H47.9285L46.5239 49.767ZM49.7848 43.4946V46.5054L53.1962 47.9229V42.0771L49.7848 43.4946V43.4946ZM42.6985 49.4408L40.5663 47.3082L37.155 48.7258L41.2938 52.8656L42.6985 49.4408ZM48.7313 37.1344L47.3141 40.5592L49.4461 42.6918L52.8701 41.2742L48.7313 37.1344V37.1344ZM43.5013 40.2204H46.5239L47.9285 36.8082H42.0839L43.5013 40.2204ZM40.2403 46.5054V43.4946L36.8289 42.0771V47.9229L40.2403 46.5054ZM40.5663 42.6918L42.6985 40.5592L41.2938 37.1344L37.155 41.2742L40.5663 42.6918ZM42.824 34.5627H63.4932C64.208 34.5627 64.923 34.8387 65.4749 35.3907C66.0266 35.9427 66.3025 36.6577 66.3025 37.3728C66.3025 38.0878 66.0266 38.8154 65.4749 39.3674L70.2157 44.1093C72.0719 42.2526 73 39.8064 73 37.3728C73 34.939 72.0719 32.5054 70.2157 30.6487C68.3594 28.7921 65.9264 27.8638 63.4932 27.8638H49.5214L42.824 34.5627V34.5627ZM50.8383 36.0681L65.4497 50.6953C65.9639 51.1971 66.2775 51.8996 66.2775 52.6775C66.2775 53.4552 65.9639 54.1577 65.4497 54.672C64.948 55.1738 64.2457 55.4874 63.4681 55.4874V62.1989C66.0893 62.1989 68.4724 61.1326 70.1906 59.414C71.9214 57.6827 72.9749 55.3118 72.9749 52.6775C72.9749 50.0555 71.9088 47.672 70.1906 45.9408L60.3201 36.0681H50.8383V36.0681ZM55.4412 42.8047V63.4785C55.4412 64.1936 55.1653 64.9212 54.6134 65.4732C54.0616 66.0126 53.3467 66.2885 52.6318 66.2885C51.917 66.2885 51.1895 66.0126 50.6501 65.4732L45.8967 70.2151C47.7656 72.0717 50.1986 73 52.6318 73C55.065 73 57.4981 72.0717 59.3668 70.2151C61.2231 68.3584 62.1511 65.9122 62.1511 63.4785L62.1387 49.5161L55.4412 42.8047V42.8047ZM53.9362 50.8208L39.3247 65.448C38.8105 65.9499 38.1082 66.2635 37.3305 66.2635C36.553 66.2635 35.8632 65.9499 35.349 65.448C34.8347 64.9338 34.5211 64.2312 34.5211 63.4534H27.8112C27.8112 66.0878 28.8773 68.4588 30.6081 70.1899C32.3264 71.9086 34.7093 72.9749 37.3305 72.9749C39.9643 72.9749 42.3348 71.9086 44.0656 70.1899L53.9362 60.3047V50.8208V50.8208ZM47.2011 55.4247H26.5319C25.817 55.4247 25.0896 55.1487 24.5503 54.6093C23.9984 54.0573 23.7225 53.3423 23.7225 52.6147C23.7225 51.8996 23.9984 51.1846 24.5503 50.6326L19.8094 45.8907C17.9407 47.7474 17.0125 50.181 17.0125 52.6147C17.0125 55.0484 17.9407 57.4946 19.8094 59.3513C21.6656 61.2079 24.0988 62.1361 26.5319 62.1361H40.5038L47.2011 55.4247ZM39.1491 53.8315L24.5377 39.2169C24.0235 38.7025 23.71 38 23.71 37.2222C23.71 36.4445 24.0235 35.7419 24.5377 35.2402C25.0394 34.7258 25.7418 34.4122 26.5194 34.4122V27.7133C23.8981 27.7133 21.5151 28.7796 19.7969 30.4982C18.0661 32.2169 17 34.6004 17 37.2222C17 39.8567 18.0661 42.2276 19.7969 43.9588L29.6674 53.8315H39.1491ZM34.5839 47.1827V26.509C34.5839 25.7939 34.8598 25.0789 35.4117 24.5269C35.951 23.9749 36.6784 23.7115 37.3932 23.6989C38.1082 23.6989 38.8231 23.9749 39.3749 24.5269L44.1284 19.7849C42.2596 17.9283 39.8264 17 37.3932 17C34.9602 17 32.527 17.9283 30.6582 19.7849C28.802 21.6416 27.8739 24.0753 27.8739 26.5215V40.4839L34.5839 47.1827ZM36.0889 39.1666L50.7004 24.552C51.2146 24.0376 51.917 23.7366 52.6945 23.7366C53.4721 23.7366 54.1619 24.0502 54.6761 24.552C55.1903 25.0663 55.5039 25.7563 55.5039 26.5466H62.2138C62.2138 23.9122 61.1353 21.5287 59.4171 19.81C57.6987 18.0914 55.3158 17.0251 52.6945 17.0251C50.0607 17.0251 47.6778 18.0914 45.9594 19.81L36.0889 29.6828V39.1666V39.1666ZM46.6869 49.0394L49.0447 46.6685V43.319L46.6869 40.9606H43.3382L40.9677 43.319V46.6685L43.3382 49.0394H46.6869ZM41.319 53.9194L36.0889 48.7008V41.2992L41.319 36.0681H48.7062L53.9362 41.2992V48.7008L48.7062 53.9194H41.319Z" fill="white"/>
</svg>
