<svg width="90" height="90" fill="none" xmlns="http://www.w3.org/2000/svg"><circle cx="45" cy="45" r="45" fill="#7864A0"/><path d="M35.491 32.255c-7.924-1.073-14.125 1.957-14.125 1.957l2.271 5.904s6.142-2.5 10.38-1.191c4.237 1.31 3.561 5.54 3.561 5.54s-3.869-2.327-10.377-1.073C20.692 44.647 19 47.978 19 52.565c0 4.586 4.58 7.86 10.41 7.86s8.168-3.513 8.168-3.513v3.276h7.002v-16.5c0-4.882-1.167-10.363-9.089-11.433Zm2.026 19.174c-.185.768-2.026 3.757-5.727 3.757-3.701 0-4.836-1.788-4.958-3.277-.122-1.49.674-3.514 4.175-4.11 3.5-.597 6.51 1.072 6.51 1.072s.183 1.788 0 2.558ZM53.494 28.195s10.36 4.8 10.36 16.124c0 11.323-6.186 14.321-9.896 17.47L57.282 67S72 60.739 72 44.543C72 28.348 57.127 23 57.127 23l-3.633 5.195Z" fill="#fff"/></svg>