<svg xmlns="http://www.w3.org/2000/svg" width="90" height="90" fill="none"><circle cx="45" cy="45" r="45" fill="#EE2A23"/><path fill="#fff" d="M45.004 18c3.392 0 4.458 2.49 5.352 4.975l9.456 26.495c.07.206.023.546-.288.669-.313.12-4.893 1.943-5.146 2.04a.487.487 0 0 1-.63-.304c-.095-.255-1.996-5.64-2.21-6.24H38.473c-.206.6-2.13 5.996-2.216 6.24-.087.248-.36.416-.63.304-.272-.109-4.869-1.93-5.144-2.04a.533.533 0 0 1-.291-.67c.324-.924 9.006-25.226 9.448-26.494.862-2.449 1.964-4.975 5.364-4.975Zm-15.51 44.193a.507.507 0 0 0-.494.52v5.772c0 .285.22.515.494.515H60.5c.28 0 .5-.23.5-.515v-5.773a.508.508 0 0 0-.5-.519H29.494Zm15.48-36.128-4.417 13.568h8.905L45.03 26.065h-.058Z"/></svg>