<svg width="90" height="90" viewBox="0 0 90 90" fill="none" xmlns="http://www.w3.org/2000/svg">
<circle cx="45" cy="45" r="45" fill="#F5F5F5"/>
<path d="M28.075 18.675C28.075 18.405 27.94 18.27 27.805 18C26.455 20.16 25.375 22.185 24.16 24.345C23.62 25.425 23.35 26.775 22.945 27.855C22.81 28.53 22.675 28.935 22.675 29.475V31.905C22.675 32.04 22.81 32.175 22.81 32.31C23.08 34.47 23.62 36.36 24.835 38.25C28.075 44.055 31.45 49.725 34.825 55.665C34.96 55.8 35.095 55.935 35.23 56.205C36.175 54.45 37.255 52.965 38.065 51.21C40.9 46.215 40.9 40.95 38.065 35.955C34.69 30.015 31.45 24.345 28.075 18.675Z" fill="#02ACE2"/>
<path d="M72.49 38.385C69.52 33.39 65.065 30.825 59.26 30.825H38.875C39.01 31.095 39.145 31.23 39.145 31.365C39.955 32.985 40.9 34.335 41.71 35.955C44.545 40.815 49 43.38 54.67 43.38H75.325C75.19 43.11 75.055 42.975 75.055 42.84C74.245 41.22 73.3 39.87 72.49 38.385V38.385Z" fill="#FE720A"/>
<path d="M58.855 46.62H52.915C47.11 46.755 42.655 49.185 39.685 54.18C36.445 59.715 33.07 65.52 29.83 71.325C29.695 71.46 29.56 71.73 29.425 72H35.365C41.305 72 45.625 69.435 48.595 64.44C51.835 58.905 55.21 53.1 58.45 47.295C58.72 47.025 58.72 46.89 58.855 46.62Z" fill="#0062A4"/>
</svg>
