<svg xmlns="http://www.w3.org/2000/svg" width="90" height="90" fill="none"><circle cx="45" cy="45" r="45" fill="#F5F5F5"/><g clip-path="url(#a)"><path fill="#7A252F" d="M44.534 18h-8.237c-.316 0-.619.127-.842.354a1.217 1.217 0 0 0-.349.854v.088c.004.321.132.628.358.854.225.227.529.353.846.353.837 0 1.888.216 2.367 1.12.857 1.62 15.67 36.545 15.67 36.545s2.879 8.05 9.913 8.751c7.034.702 9.055-3.414 9.574-6.073.518-2.658.432-8.137-8.796-14.17-9.228-6.032-17.911-5.519-23.935-4.21-5.65 1.248-18.236 8.212-23.05 23.083a1.122 1.122 0 0 0 .152.992 1.096 1.096 0 0 0 .879.459h10.883c.332 0 .65-.134.884-.371a1.284 1.284 0 0 0-.03-1.82 1.247 1.247 0 0 0-.934-.34c-1.442.055-3.43-.35-2.406-3.305 1.542-4.427 9.228-16.269 21.767-16.849 12.539-.58 21.142 7.611 22.944 11.039 1.801 3.428.538 7.422-3.371 8.232-3.91.81-5.033-3.907-7.314-8.65-2.12-4.312-13.695-31.234-15.81-36.16a1.278 1.278 0 0 0-.467-.565 1.25 1.25 0 0 0-.696-.211Z"/></g><defs><clipPath id="a"><path fill="#fff" d="M18 18h56v49H18z"/></clipPath></defs></svg>