<svg width="90" height="90" viewBox="0 0 90 90" fill="none" xmlns="http://www.w3.org/2000/svg">
<circle cx="45" cy="45" r="45" fill="#FE5000"/>
<path d="M61.0959 21H28.9859C24.577 21 21 24.5709 21 28.9723V61.0277C21 65.4291 24.577 69 28.9859 69H61.0127C65.4216 69 68.9986 65.4291 68.9986 61.0277V28.9723C69.0818 24.5709 65.5047 21 61.0959 21ZM66.5862 60.1972C66.503 60.2803 66.3366 60.3633 66.2534 60.2803C60.0976 56.5433 52.7772 54.3841 45.0409 54.3841C37.3045 54.3841 29.9841 56.5433 23.8283 60.2803C23.7452 60.3633 23.5788 60.2803 23.4956 60.1972C23.4124 60.0311 23.4956 59.9481 23.5788 59.8651C29.2355 55.5467 34.0603 50.0657 37.8037 43.5882C41.5471 37.1107 43.8763 30.1349 44.7913 23.1592C44.7913 23.0761 44.8745 22.91 45.0409 22.91C45.2073 22.91 45.2904 22.9931 45.2904 23.1592C46.2055 30.1349 48.5347 37.1107 52.2781 43.5882C56.0215 50.0657 60.9295 55.5467 66.503 59.782C66.6694 59.9481 66.6694 60.0311 66.5862 60.1972Z" fill="white"/>
</svg>
