<svg xmlns="http://www.w3.org/2000/svg" width="90" height="90" fill="none"><circle cx="45" cy="45" r="45" fill="#003F20"/><g fill="#fff" fill-rule="evenodd" clip-path="url(#a)" clip-rule="evenodd"><path d="M29.536 37.088v3.243h1.08c.15.017.262-.08.262-.306v-2.617c0-.207-.065-.32-.262-.32h-1.08Zm-2.896 4.38v-9.454L33.12 32v1.157l-3.58-.019v2.829H31c.702 0 2.767-.037 2.767 1.28v2.923c.012 1.09-1.669 1.267-2.75 1.283l-4.372.015h-.005ZM39.137 33.354l-.787 4.396h1.701l-.768-4.396h-.149.003Zm-4.178 8.12L37.055 32h4.304l2.097 9.468h-2.814l-.448-2.38h-1.992l-.426 2.38-2.817.006ZM44.907 32h2.848v3.807l1.293-.017V32h2.833v9.468h-2.833v-4.333h-1.293v4.318l-2.848.015V32ZM54.047 32h2.781v3.836L58.661 32h2.733l-2.11 4.444 2.422 5.024h-2.67l-2.208-4.3v4.3h-2.781V32ZM15.175 47.728l-.787 4.397h1.717l-.78-4.397h-.15ZM11 55.86l2.088-9.468h4.31L19.5 55.86h-2.823l-.423-2.399h-2.015l-.424 2.4H11ZM32.945 47.754l-.784 4.376h1.703l-.768-4.376h-.15Zm-4.174 8.106 2.088-9.468h4.304l2.097 9.468h-2.805l-.448-2.393h-1.99l-.427 2.393H28.77ZM57.35 47.754l-.77 4.383 1.703-.014-.787-4.369h-.15.004Zm-4.147 8.106 2.087-9.468h4.307l2.106 9.468h-2.834l-.438-2.387h-1.998l-.448 2.387h-2.782ZM41.642 46.392v3.81h1.296v-3.796l2.847-.014v9.453l-2.847.015v-4.323h-1.296v4.323h-2.848v-9.454l2.848-.014ZM23.676 51.544v3.18h.982c.196 0 .312-.115.312-.275V51.9c0-.21-.083-.355-.325-.355h-.97Zm-2.765 4.3v-9.452h4.107c2.75 0 2.666.945 2.666 1.379v1.955c0 .29-.068 1.158-1.563 1.108v.094c1.213-.012 1.614.388 1.614.984v2.605c0 .445-.167 1.311-2.737 1.326h-4.087v.002Zm2.765-8.314v2.714l.969.017c.242 0 .325-.097.325-.226V47.78c0-.142-.066-.256-.312-.256l-.982.006ZM48.179 46.392h5.635v1.138h-2.87v8.33H48.18V46.393ZM65.707 47.529v3.853H66.9c.476.032.476-.175.505-.4l-.014-3.098c.014-.352-.338-.361-.48-.355h-1.204Zm-2.784 8.316v-9.453h4.324c.919 0 2.525 0 2.525 1.362v3.262c0 1.394-1.505 1.443-2.525 1.46h-1.54v3.384l-2.784-.015ZM75.947 47.535h-1.63v6.203c0 .477-.096.877-.589 1.036v-.014l2.212-.009v-7.216h.007ZM70.026 57v-2.21l.195-.016c1.193 0 1.342-.639 1.342-.974v-7.408h6.74v8.374h.698v2.24h-2.75v-1.154H72.78v1.154L70.026 57Z"/></g><defs><clipPath id="a"><path fill="#fff" d="M11 32h68v25H11z"/></clipPath></defs></svg>