<svg width="90" height="90" fill="none" xmlns="http://www.w3.org/2000/svg"><circle cx="45" cy="45" r="45" fill="#216B36"/><path d="M46.198 20.907c-.88 0-1.384 0-1.887.126 2.516.63 3.271 1.762 4.53 3.775l10.695 15.854 3.9-3.523-7.423-11.324c-2.643-3.901-6.92-4.908-9.815-4.908Z" fill="#fff"/><path d="M44.563 16C28.707 16 16 28.709 16 44.437 16 60.166 28.708 73 44.437 73c15.728 0 28.562-12.709 28.562-28.437C73.125 28.96 60.165 16 44.563 16Zm25.542 31.08-5.285-7.928-15.854 14.345c-5.662 5.159-12.96 13.212-17.867 4.278-3.271-5.914-2.516-16.106 1.384-21.14 2.517-3.02 6.166-3.02 8.556.504l8.682 12.96 3.9-3.523-5.913-9.06c-3.02-4.403-6.794-6.29-10.57-6.29-3.27-.127-6.165 1.006-8.681 3.019-7.424 5.914-7.801 18.748-1.888 26.046 6.795 8.305 16.484 5.663 23.781-.88l13.59-12.206 4.53 6.92c-.126.378-.378.756-.504 1.26l-3.649-5.537-4.026 3.775 4.655 6.92c-.377.503-.755.88-1.132 1.384l-4.907-7.424-3.901 3.775 4.907 7.298c-4.278 3.272-9.688 5.16-15.476 5.16-14.093-.127-25.669-11.703-25.669-25.796 0-14.344 11.576-25.668 25.794-25.668 14.219 0 25.669 11.576 25.669 25.794 0 .503-.126 1.258-.126 2.014Z" fill="#fff"/><path d="M40.41 21.662c-2.013 0-4.026.504-5.788 1.51 3.02-.377 5.662.881 7.676 3.775l12.456 18.497 3.9-3.524-11.198-16.86c-1.761-2.643-4.278-3.398-7.046-3.398Z" fill="#fff"/></svg>