<svg width="90" height="90" fill="none" xmlns="http://www.w3.org/2000/svg"><circle cx="45" cy="45" r="45" fill="#F5F5F5"/><path d="M62.23 35.69a1.126 1.126 0 0 0-.99-.135c-1.75-.15-3.508-.21-5.265-.18h-2.88l-7.47-.09H40c-1.395 0-2.79 0-4.14.09-1.35.09-4.905 0-6.975 0H27.13a.732.732 0 0 0-.54.63.382.382 0 0 0 .36.495h7.065a38.62 38.62 0 0 1 5.085-.135h3.375c.238.045.482.045.72 0h.315a1.8 1.8 0 0 0 .855 0c.285-.024.57-.024.855 0 .22-.07.455-.07.675 0a.763.763 0 0 0 .315 0 65.62 65.62 0 0 1 7.515.27l1.395.135a21.229 21.229 0 0 1 3.78 0c.945.09 1.845.135 2.7.135l.45-.36a.573.573 0 0 0 0-.81" fill="#E8B909"/><path d="M49.765 51.71v-3.06c0-.45 0-.945-.09-1.44s0-1.125-.09-1.71c-.041-.802-.147-1.6-.315-2.385l-.09-.54a.799.799 0 0 1-.18-.45c-.04-.157-.1-.308-.18-.45a5.626 5.626 0 0 0-.765-1.035.788.788 0 0 0-.225-.18s-.09 0-.135-.09a2.935 2.935 0 0 0-.945-.495.338.338 0 0 0-.315-.135v-.09H46.3l-.675-.135v.09h-.18a1.92 1.92 0 0 0-.225 0h-.09a.157.157 0 0 0-.09 0l-.27-.09v.135a.663.663 0 0 0-.315 0H43.6v.135a.417.417 0 0 0-.405.135.378.378 0 0 0-.27.135h-.09c0 .09-.27.18-.36.225l-.225.09a.1.1 0 0 0-.09.09h-.225v.18H41.8l-.09.09c-.153.191-.318.372-.495.54a7.87 7.87 0 0 0-.585.675v.18s-.135.09-.18.225a.733.733 0 0 1-.135.27v.09c-.09.09-.09.225-.135.27a.168.168 0 0 1 0 .135l-.09.135a.483.483 0 0 0 0 .225v.09a1.25 1.25 0 0 1 0 .585c-.024.21-.024.42 0 .63a.529.529 0 0 0 0 .36v.36l-.09.09.09.135v.405a.777.777 0 0 0 0 .45v.27l-.09.18.135.09v.585l.09.09a.429.429 0 0 0 .09.315h-.18l.09.225a.428.428 0 0 0 0 .315.956.956 0 0 0 0 .36v.09a.495.495 0 0 0 0 .495c-.09.09 0 .225 0 .315l-.18.09.225.225a.337.337 0 0 0 0 .18l.09.09.09.18a.767.767 0 0 0 0 .315.157.157 0 0 0 0 .09l-.09.09.09.135a.608.608 0 0 1 0 .405.743.743 0 0 0 0 .54l-.135.09.135.09a.27.27 0 0 0 0 .315v.27a1.34 1.34 0 0 0 0 .585v.495c.024.164.024.331 0 .495a1.392 1.392 0 0 0 .315 1.125h.18a.461.461 0 0 0 .27-.45v-.18a3.15 3.15 0 0 1 0-1.125.573.573 0 0 1 0-.27 1.245 1.245 0 0 1 0-.405c.023-.15.023-.3 0-.45V49.73a4.377 4.377 0 0 1-.09-1.125v-.945a2.485 2.485 0 0 0 0-.99v-.27a.214.214 0 0 0 0-.27.99.99 0 0 0 0-.36.337.337 0 0 1 0-.225v-.315a.495.495 0 0 0 0-.36c.107-.289.168-.592.18-.9v-.09a.27.27 0 0 0 0-.18.63.63 0 0 1 .18-.405.99.99 0 0 0 .225-.54.385.385 0 0 0 .135-.27c.09-.094.165-.2.225-.315a.619.619 0 0 1 .36-.315h.09v-.09a.764.764 0 0 1 .27-.27.844.844 0 0 0 .315-.27h.225c.124-.05.245-.11.36-.18.135-.135.18-.135.315-.09h.09a.236.236 0 0 0 .18-.135.17.17 0 0 0 .135 0h.585c.42-.084.856-.053 1.26.09l.135.09.09-.135a.587.587 0 0 0 .495.225.236.236 0 0 0 .18.09c.097.09.227.14.36.135.255.23.442.526.54.855v-.045h-.18c.022.247.116.481.27.675v.495l.09.09a.483.483 0 0 0 .09.27.36.36 0 0 0 .135.495c-.09 0-.09.135-.09.225v.45l.09.135v.315a1.25 1.25 0 0 0 0 .9c-.09.09 0 .225 0 .315v.27c.03-.01.06-.01.09 0v.36a.337.337 0 0 1 0 .225.628.628 0 0 0 .09.495v.09a.168.168 0 0 0 0 .135v.09a.102.102 0 0 0 .09.09v.18h-.09v.09a.337.337 0 0 0 0 .225h-.09a.09.09 0 0 0 .09.09.562.562 0 0 0 .18.495s0 .09.09.09h-.09v.225h-.135v.405a.971.971 0 0 0-.135.225v.855h.135v.225l.225.135a.27.27 0 0 0 0 .18h-.18v1.305l-.135.09.18.18v.18h-.135l.225.27a.456.456 0 0 1 0 .135.382.382 0 0 0-.09.27v.18s-.09 0-.09.09a.09.09 0 0 0 0 .135h-.225l.18.18h-.18l.225.135v.45a.235.235 0 0 0 .09.18.576.576 0 0 0 .27 0v.18h.225a1.25 1.25 0 0 1 .405 0h.18v-.18c.044-.63.044-1.26 0-1.89a10.705 10.705 0 0 1 0-1.71.383.383 0 0 0-.09-.27" fill="#007638"/><path d="M37.3 51.71v-3.06c0-.45 0-.945-.09-1.44s0-1.125-.09-1.71c-.041-.802-.147-1.6-.315-2.385l-.09-.54c-.135-.135-.135-.27-.225-.45-.04-.157-.1-.308-.18-.45a5.627 5.627 0 0 0-.81-1.125.79.79 0 0 0-.225-.18s-.09 0-.135-.09a2.936 2.936 0 0 0-.765-.36.338.338 0 0 0-.315-.135v-.09h-.135l-.63-.09h-.225v.09h-.18a1.964 1.964 0 0 0-.225 0h-.135a.157.157 0 0 0-.09 0l-.315-.225v.135a.663.663 0 0 0-.315 0H31v.135a.416.416 0 0 0-.405.135.382.382 0 0 0-.27.135h-.09a.708.708 0 0 1-.36.225l-.225.09a.102.102 0 0 0-.09.09h-.225v.18H29.2l-.09.09a5.384 5.384 0 0 1-.495.54c-.208.214-.403.44-.585.675v.18s-.135.09-.135.225-.09.225-.135.27v.09c-.09.09-.09.225-.135.27a.169.169 0 0 1 0 .135v.09a.483.483 0 0 0 0 .225v.09a1.25 1.25 0 0 1 0 .585c-.024.21-.024.42 0 .63a.529.529 0 0 0 0 .36v.45h-.495l.09.135v.405a.777.777 0 0 0 0 .45v.27l-.09.18.135.09v.585l.09.09a.43.43 0 0 0 .09.315h-.18l.09.225a.71.71 0 0 0 0 .315.956.956 0 0 0 0 .36v.09a.496.496 0 0 0 0 .495c-.09.09 0 .225 0 .315l-.225.09.225.225a.337.337 0 0 0 0 .18l.09.09.09.18a.767.767 0 0 0 0 .315.158.158 0 0 0 0 .09l-.09.09.09.135a.608.608 0 0 1 0 .405.742.742 0 0 0 0 .54l-.135.09.135.09a.27.27 0 0 0 0 .315v.27a1.34 1.34 0 0 0 0 .585v.495c.024.164.024.33 0 .495a1.395 1.395 0 0 0 .315 1.125h.18a.462.462 0 0 0 .27-.45v-.18a3.15 3.15 0 0 1 0-1.125v-.045a1.25 1.25 0 0 1 0-.405c.023-.15.023-.3 0-.45.047-.75.047-1.5 0-2.25v-.855a3.984 3.984 0 0 1 0-1.035v-.945a2.485 2.485 0 0 0 0-.99V46.4a.213.213 0 0 0 0-.27.99.99 0 0 0 0-.36.338.338 0 0 1 0-.225v-.315a.495.495 0 0 0 0-.36c.107-.289.168-.592.18-.9v-.09a.27.27 0 0 0 0-.18c0-.135.09-.225.18-.405a.99.99 0 0 0 .225-.54.384.384 0 0 0 .135-.27.686.686 0 0 0 .225-.315c.09-.135.135-.27.36-.315h.09v-.09a.506.506 0 0 1 .18-.45.844.844 0 0 0 .27-.315h.225c.124-.05.245-.111.36-.18.135-.135.18-.135.315-.09h.09a.235.235 0 0 0 .18-.135.169.169 0 0 0 .135 0h.63a2.34 2.34 0 0 1 1.26.09l.135.09.09-.135a.585.585 0 0 0 .495.225.235.235 0 0 0 .18.09c.097.09.227.14.36.135.255.23.442.526.54.855v.18h.135c.022.246.116.481.27.675v.45l.09.09a.484.484 0 0 0 .09.27.36.36 0 0 0 .135.495c-.09 0-.09.135-.09.225v.315l-.09.135v.135l.09.135v.315a1.25 1.25 0 0 0 0 .9c-.09.09 0 .225 0 .315v.27c.03-.01.06-.01.09 0v.36a.337.337 0 0 1 0 .225.63.63 0 0 0 .09.495v.09a.169.169 0 0 0 0 .135v.09a.102.102 0 0 0 .09.09v.18h-.09v.09a.337.337 0 0 0 0 .225v.135a.09.09 0 0 0 .09.09.562.562 0 0 0 .18.495l.09.09h-.09v.225h-.135v.405a.98.98 0 0 0-.135.225v.135h.135v.225l.225.135a.27.27 0 0 0 0 .18h-.18v1.08a.169.169 0 0 0 0 .135v.81l-.135.09.18.18v.18h-.135l.225.27a.45.45 0 0 1 0 .135.383.383 0 0 0-.09.27v.18s-.09 0-.09.09a.09.09 0 0 0 0 .135h-.225l.18.18h-.18l.135.135v.45a.235.235 0 0 0 .09.18.573.573 0 0 0 .27 0v.18h.225a1.25 1.25 0 0 1 .405 0h.18v-.18c.044-.63.044-1.26 0-1.89a10.705 10.705 0 0 1 0-1.71 1.015 1.015 0 0 0 0-.405" fill="#0061AF"/><path d="M62.05 51.935v-3.06c0-.45 0-.945-.09-1.44s0-1.125-.09-1.71c-.041-.802-.147-1.6-.315-2.385l-.09-.54a.854.854 0 0 1-.225-.45c-.04-.157-.1-.309-.18-.45a5.62 5.62 0 0 0-.81-1.125.45.45 0 0 0-.225-.18s-.09 0-.135-.09a2.936 2.936 0 0 0-.765-.36.484.484 0 0 0-.45-.27h-.135l-.675-.09h-.09v.09h-.18a1.92 1.92 0 0 0-.225 0h-.09a.157.157 0 0 0-.09 0l-.315-.18v.18a.38.38 0 0 0-.315.09h-.81v.135a.417.417 0 0 0-.405.135.73.73 0 0 0-.27.135h-.09a.71.71 0 0 1-.36.225l-.225.09a.157.157 0 0 0-.09 0h-.225V41h-.135l-.09.09c-.135.18-.315.36-.45.54-.208.214-.403.44-.585.675v.18s-.135.09-.18.225a.383.383 0 0 0-.09.27v.09c-.18.045-.18.18-.18.18a.168.168 0 0 1 0 .135l-.09.135a.483.483 0 0 0 0 .225v.09c.046.192.046.393 0 .585-.024.21-.024.42 0 .63a.529.529 0 0 0 0 .36v.09l-.09.09.09.135v.405a.777.777 0 0 0 0 .45v.27l-.09.18.135.09v.45l-.09.18.09.09a.484.484 0 0 0 .09.315h-.18l.09.225a.428.428 0 0 0 0 .315.956.956 0 0 0 0 .36v.09a.495.495 0 0 0 0 .495c-.09.09 0 .225 0 .315h-.135l.225.225a.337.337 0 0 0 0 .18l.09.09.09.18a.663.663 0 0 0 0 .315.157.157 0 0 0 0 .09l-.09.09.09.135a.607.607 0 0 1 0 .405.743.743 0 0 0 0 .54h-.18l.135.09a.259.259 0 0 0 0 .315v.27a1.124 1.124 0 0 0 0 .54v.495c.024.164.024.33 0 .495a1.393 1.393 0 0 0 .315 1.125h.09a.46.46 0 0 0 .27-.45v-.18a3.15 3.15 0 0 1 0-1.125.573.573 0 0 1 0-.27v-.09a1.25 1.25 0 0 1 0-.405c.023-.15.023-.3 0-.45.047-.75.047-1.5 0-2.25v-.855a3.984 3.984 0 0 1 0-1.035v-.945a2.485 2.485 0 0 0 0-.99v.135a.213.213 0 0 0 0-.27.986.986 0 0 0 0-.36v-.54a.495.495 0 0 0 0-.36c.103-.274.164-.563.18-.855v-.09c0-.09 0-.135-.09-.18-.09-.045.09-.225.18-.36a.99.99 0 0 0 .225-.54.384.384 0 0 0 .135-.27.686.686 0 0 0 .225-.315.619.619 0 0 1 .36-.315h.09v-.09c0-.09.135-.135.27-.225a.844.844 0 0 0 .315-.27.271.271 0 0 0 .225-.09c.124-.05.245-.111.36-.18.135-.135.18-.135.315-.09h.09a.237.237 0 0 0 .18-.135.17.17 0 0 0 .135 0h.54A2 2 0 0 1 58 41l.135.09.09-.09a.586.586 0 0 0 .495.225.62.62 0 0 0 .18.135c.03.009.06.009.09 0 .097.09.227.14.36.135.255.23.442.526.54.855v.18h.135c.022.246.116.481.27.675v.45l.09.09c.009.11.04.217.09.315a.36.36 0 0 0 .135.495c-.09 0-.09.135-.09.225v.315l.09.135v.27a1.25 1.25 0 0 0 0 .9c-.09.09 0 .225 0 .315v.27c.03-.01.06-.01.09 0v.18h.09v.585a.337.337 0 0 1 0 .225.63.63 0 0 0 .09.495v.09a.168.168 0 0 0 0 .135v.09a.102.102 0 0 0 .09.09v.18h-.09v.09a.337.337 0 0 0 0 .225l-.09.135a.09.09 0 0 0 .09.09.62.62 0 0 0 .18.495s0 .09.09.09v.225h-.135v.36a.975.975 0 0 0-.135.225v.135h.135v.225l.225.135a.27.27 0 0 0 0 .18h-.18v1.71l-.135.09.18.18v.18h-.135l.225.27a.45.45 0 0 1 0 .135.383.383 0 0 0-.09.27v.09l-.09.09v.135h-.225l.18.18h-.18l.135.135v.495a.235.235 0 0 0 .09.18.573.573 0 0 0 .27 0v.18h.225a1.25 1.25 0 0 1 .405 0h.18v-.135c.044-.63.044-1.26 0-1.89a10.705 10.705 0 0 1 0-1.71v-.315" fill="#F37021"/><path d="M22 68h45V23H22v45Zm42.615-2.385h-40.23v-40.23h40.23v40.23Z" fill="#F37021"/></svg>