<svg xmlns="http://www.w3.org/2000/svg" width="90" height="90" fill="none"><circle cx="45" cy="45" r="45" fill="#F5F5F5"/><path fill="#2D6E88" d="M44.82 76c-17.55-.644-30.967-13.77-30.819-31.276.149-17.639 13.836-30.902 31.277-30.722 17.503.18 30.8 13.634 30.722 31.065C75.92 62.5 62.468 75.567 44.82 76Zm17.871-30.788c-3.835 0-7.885-.496-11.771.105-7.988 1.233-14.009 11.05-7.288 18.876 2.737 3.193 9.81 5.363 14.372 2.498C67.03 61.02 71.687 50.938 69.79 40.07c-1.677-9.55-9.73-17.83-19.278-19.808-10.161-2.108-20.803 2.04-26.241 10.238a11.063 11.063 0 0 0-.708 1.56c14.857-.78 18.477-.39 22.035 2.226-3.867 1.046-8.07 1.873-12.03 3.345-4.082 1.514-7.3 4.293-9.184 9.004l5.552-1.904.191.363-6.27 7.986.472.448L37.764 42.21l-4.324-1.015c9.273-4.949 22.828-3.278 29.251 4.017Z"/></svg>