<svg xmlns="http://www.w3.org/2000/svg" width="90" height="90" fill="none"><circle cx="45" cy="45" r="45" fill="#E37642"/><path fill="#fff" d="M61.114 44.545c0 3.807-.722 7.046-2.165 9.716-1.432 2.67-3.386 4.71-5.864 6.12-2.466 1.397-5.238 2.096-8.318 2.096-3.102 0-5.886-.704-8.352-2.113-2.466-1.41-4.415-3.45-5.847-6.12-1.432-2.67-2.148-5.903-2.148-9.699 0-3.806.716-7.045 2.148-9.715 1.432-2.67 3.38-4.705 5.847-6.103 2.466-1.409 5.25-2.113 8.352-2.113 3.08 0 5.852.704 8.318 2.113 2.477 1.398 4.432 3.432 5.864 6.103 1.443 2.67 2.165 5.909 2.165 9.715Zm-7.483 0c0-2.465-.37-4.545-1.108-6.238-.728-1.693-1.756-2.977-3.086-3.852-1.329-.875-2.886-1.313-4.67-1.313-1.784 0-3.34.438-4.67 1.313s-2.364 2.159-3.103 3.852c-.727 1.693-1.09 3.773-1.09 6.238 0 2.466.363 4.546 1.09 6.24.739 1.692 1.773 2.976 3.103 3.851 1.33.875 2.886 1.313 4.67 1.313 1.784 0 3.341-.438 4.67-1.313 1.33-.875 2.358-2.159 3.086-3.852.738-1.693 1.108-3.773 1.108-6.239Z"/></svg>