<svg width="90" height="90" viewBox="0 0 90 90" fill="none" xmlns="http://www.w3.org/2000/svg">
<circle cx="45" cy="45" r="45" fill="#F5F5F5"/>
<path d="M44.7375 46.025C53.5809 46.025 60.75 38.856 60.75 30.0125C60.75 21.169 53.5809 14 44.7375 14C35.894 14 28.725 21.169 28.725 30.0125C28.725 38.856 35.894 46.025 44.7375 46.025Z" fill="#F36F21"/>
<path d="M44.7375 75C53.5809 75 60.75 74.5221 60.75 73.9325C60.75 73.3429 53.5809 72.865 44.7375 72.865C35.894 72.865 28.725 73.3429 28.725 73.9325C28.725 74.5221 35.894 75 44.7375 75Z" fill="#F36F21"/>
<path d="M28.725 54.7175C28.725 57.005 35.8925 58.9875 44.7375 58.9875C53.5825 58.9875 60.75 57.005 60.75 54.7175C60.75 52.2775 53.5825 50.4475 44.7375 50.4475C35.8925 50.4475 28.725 52.2775 28.725 54.7175ZM44.7375 63.2575C56.3275 63.2575 60.75 64.325 60.75 65.85C60.75 67.375 56.3275 68.595 44.7375 68.595C33.1475 68.595 28.725 67.375 28.725 65.85C28.725 64.325 33.1475 63.2575 44.7375 63.2575Z" fill="#F36F21"/>
<path d="M44.7375 46.33C35.74 46.33 28.5725 39.01 28.5725 30.0125C28.5725 21.015 35.74 13.8475 44.7375 13.8475C53.735 13.8475 61.055 21.1675 61.055 30.0125C61.055 38.8575 53.735 46.33 44.7375 46.33ZM44.7375 14.305C36.045 14.305 28.8775 21.32 28.8775 30.165C28.8775 39.01 35.8925 46.025 44.7375 46.025C53.5825 46.025 60.445 39.01 60.445 30.165C60.445 21.32 53.43 14.305 44.7375 14.305V14.305Z" fill="#EB690A"/>
<path d="M44.7375 68.9C37.265 68.9 28.5725 68.4425 28.5725 65.85C28.5725 64.02 33.91 62.9525 44.7375 62.9525C55.7175 62.9525 61.055 63.8675 61.055 65.85C61.055 68.29 52.21 68.9 44.7375 68.9ZM44.7375 63.5625C30.555 63.5625 28.8775 65.24 28.8775 65.85C28.8775 66.46 29.945 68.29 44.7375 68.29C59.53 68.29 60.445 66.3075 60.445 65.85C60.445 65.0875 58.92 63.5625 44.7375 63.5625ZM44.7375 59.2925C35.74 59.2925 28.5725 57.31 28.5725 54.7175C28.5725 51.82 36.96 50.1425 44.7375 50.1425C52.515 50.1425 61.055 51.6675 61.055 54.7175C61.055 57.1575 53.735 59.2925 44.7375 59.2925ZM44.7375 50.6C36.045 50.6 28.8775 52.43 28.8775 54.7175C28.8775 56.7 35.435 58.6825 44.7375 58.6825C54.04 58.6825 60.445 56.5475 60.445 54.7175C60.445 52.43 53.43 50.6 44.7375 50.6Z" fill="#EB690A"/>
<path d="M44.7375 75.305C41.9925 75.305 28.5725 75.305 28.5725 73.9325C28.5725 72.56 42.145 72.56 44.7375 72.56C47.33 72.56 61.055 72.56 61.055 73.9325C61.055 75.305 47.4825 75.305 44.7375 75.305ZM29.1825 73.9325C30.25 74.2375 35.8925 74.695 44.7375 74.695C53.5825 74.695 59.225 74.2375 60.445 73.9325C59.3775 73.6275 53.735 73.17 44.7375 73.17C35.74 73.17 30.25 73.6275 29.1825 73.9325Z" fill="#EB690A"/>
</svg>
