<svg width="90" height="90" viewBox="0 0 90 90" fill="none" xmlns="http://www.w3.org/2000/svg">
<circle cx="45" cy="45" r="45" fill="#F5F5F5"/>
<path d="M38.3495 36.3395V43.026H62.5387V56.3989H38.3495V72.0334C40.2177 72.9184 42.1843 73.6067 44.151 74C56.049 71.6401 67.0618 61.1187 67.4552 42.4359L67.5535 36.3395H38.3495V36.3395Z" fill="#2E7E33"/>
<path d="M67.5536 36.3395L67.7502 21.885C59.9821 21.295 52.1157 21 44.2493 21C36.2845 21 28.4181 21.295 20.65 21.885L20.7484 33.193L21.0434 42.436C21.0434 42.436 21.1417 50.9907 23.9933 57.1855C28.7131 68.3952 38.3495 72.1317 38.3495 72.1317V56.4973H62.5387V43.026H38.3495V36.3395H67.5536Z" fill="#76B949"/>
</svg>
