<svg xmlns="http://www.w3.org/2000/svg" width="90" height="90"><defs><linearGradient id="a" gradientUnits="userSpaceOnUse" x1="24.168" y1="-903.649" x2="73.868" y2="-872.049" gradientTransform="translate(-3.9 933)"><stop offset="0" style="stop-color:#00d5d9;stop-opacity:1"/><stop offset="1" style="stop-color:#f000ec;stop-opacity:1"/></linearGradient></defs><path style="stroke:none;fill-rule:nonzero;fill:#f5f5f5;fill-opacity:1" d="M90 45c0 24.852-20.148 45-45 45S0 69.852 0 45 20.148 0 45 0s45 20.148 45 45Zm0 0"/><path style="stroke:none;fill-rule:evenodd;fill:url(#a)" d="M55.898 72.5h16c.602 0 1.102-.398 1.204-1 0-.2 0-.398-.102-.602L63.898 52c-.5-1-1.199-1.5-2.597-1.5h-9.7l20.5-31.2c.297-.5.2-1.198-.3-1.5-.2-.1-.5-.198-.801-.198H54.5c-1 0-1.898.5-2.398 1.398l-9 13.8L36.5 19.103a2.522 2.522 0 0 0-2.3-1.5h-16c-.598 0-1.098.398-1.2 1 0 .199 0 .398.102.597l9.097 18.903c.5 1 1.2 1.5 2.602 1.5H38.5L18 70.8c-.398.5-.2 1.199.3 1.597.2.204.5.204.7.204h16.5c1 0 1.898-.5 2.398-1.301l9-13.801L53.5 71.2c.3.902 1.3 1.5 2.3 1.5Zm0 0"/></svg>