<svg width="90" height="90" fill="none" xmlns="http://www.w3.org/2000/svg"><circle cx="45" cy="45" r="45" fill="#5D1E79"/><path d="m55.077 42.815 10.641-18.392c.141-.212 0-.423-.211-.423h-6.765c-1.621 0-2.96.775-3.735 2.114L43.59 45.846c-.07.14 0 .352.14.423 5.286 1.902 9.584 5.919 11.91 10.922.07.212-.07.423-.282.423H32.668a.303.303 0 0 1-.282-.282V32.668c0-.141.14-.282.282-.282h11.416a4.23 4.23 0 0 0 3.664-2.114l3.383-5.85c.14-.21 0-.422-.212-.422H24.282a.303.303 0 0 0-.282.282v41.436c0 .141.14.282.282.282h41.436c.141 0 .282-.14.282-.282-.07-9.09-4.299-17.195-10.852-22.55-.141-.07-.141-.212-.07-.353Z" fill="#8DC63F"/></svg>