<svg width="90" height="90" fill="none" xmlns="http://www.w3.org/2000/svg"><g clip-path="url(#a)"><circle cx="45" cy="45" r="45" fill="#EFEFEF"/><rect x="22" y="22" width="46" height="46" rx="4.986" fill="#FF333A"/><path d="m33.279 37.333-1.558 2.68h2.68v12.591h2.68v-15.27H33.28ZM52.54 37.333l-1.559 2.68h2.68v12.591h2.68v-15.27H52.54ZM40.946 37.333l-1.527 2.65h6.108L42.878 45h1.87l1.87-2.088 3.116-5.579h-8.788Z" fill="#F5F5F5"/><path fill-rule="evenodd" clip-rule="evenodd" d="M44.408 45.025 42.847 45l1.33-2.471c.158-.015.317-.022.478-.022 2.822 0 5.08 2.288 5.08 5.11a5.111 5.111 0 1 1-10.221-.124h2.51a2.601 2.601 0 1 0 2.384-2.468Z" fill="#F5F5F5"/></g><defs><clipPath id="a"><path fill="#fff" d="M0 0h90v90H0z"/></clipPath></defs></svg>