<svg width="90" height="90" viewBox="0 0 90 90" fill="none" xmlns="http://www.w3.org/2000/svg">
<circle cx="45" cy="45" r="45" fill="#00447C"/>
<path d="M43.4392 34.889C43.5066 34.8085 43.4992 34.6914 43.4243 34.6255C43.1922 34.4279 42.9676 34.2303 42.7281 34.0401C40.0408 31.9322 36.7096 30.7758 33.2437 30.7758C31.7691 30.7758 30.3093 30.9808 28.9095 31.3906C26.1623 32.1884 23.7369 33.7254 21.873 35.7965C20.4357 37.7067 19.8444 39.273 19.6048 40.1513C19.283 41.5931 19.0808 43.0714 19.021 44.5425C18.729 51.6197 21.4987 58.5507 26.6189 63.5567C30.9756 67.8163 36.6422 70.3925 42.7281 70.9048C43.282 70.9488 43.836 70.978 44.3975 70.9926C44.5921 71 44.7941 71 44.9888 71C53.5449 71 61.5546 66.8795 66.4202 59.9852C66.4726 59.9046 66.4652 59.8095 66.3977 59.7437C66.3603 59.707 66.3079 59.6851 66.2555 59.6851C66.2181 59.6851 66.1806 59.6997 66.1432 59.7143C64.0398 61.0537 61.6893 61.9173 59.234 62.2687C58.4181 62.3857 57.5947 62.4443 56.7563 62.4443C50.9773 62.4443 45.8571 59.6485 42.7281 55.3597C41.1337 53.186 40.0631 50.6244 39.6739 47.8506C39.5767 47.1187 39.5167 46.3796 39.5167 45.6184C39.5167 42.0907 40.6545 38.6435 42.7281 35.7965C42.9526 35.4892 43.1922 35.1817 43.4392 34.889V34.889Z" fill="white"/>
<path d="M68.127 54.2033C69.5641 52.2933 70.1555 50.727 70.3951 49.8487C70.717 48.4069 70.9116 46.9358 70.9789 45.4502C71.2709 38.3729 68.5087 31.4493 63.3811 26.4432C58.6201 21.7958 52.3097 19.1537 45.6025 19.0073C45.4079 19 45.2058 19 45.0112 19C44.2477 19 43.484 19.0366 42.7281 19.1025C35.0403 19.7612 28.0037 23.7353 23.5797 30.0148C23.5273 30.0953 23.5348 30.1978 23.6021 30.2636C23.6396 30.3002 23.692 30.3222 23.7444 30.3222C23.7818 30.3222 23.8192 30.3075 23.8492 30.2929C25.9526 28.9536 28.3031 28.0826 30.7584 27.7386C31.5744 27.6215 32.3978 27.563 33.2361 27.563C36.732 27.563 39.9958 28.5949 42.7206 30.3588C46.7777 32.9862 49.6373 37.2385 50.311 42.1566C50.4158 42.8813 50.4682 43.6277 50.4682 44.3889C50.4682 48.3045 49.0759 52.1175 46.5383 55.1256C46.4709 55.206 46.4783 55.3159 46.5608 55.3891C49.3529 57.8701 52.9685 59.2388 56.7412 59.2388C58.2159 59.2388 59.6755 59.0338 61.0754 58.624C63.8376 57.8116 66.263 56.2819 68.127 54.2033Z" fill="white"/>
</svg>
