<svg xmlns="http://www.w3.org/2000/svg" width="90" height="90" fill="none"><circle cx="45" cy="45" r="45" fill="#4B85EA"/><path fill="url(#a)" d="M45 72c14.912 0 27-12.088 27-27S59.912 18 45 18 18 30.088 18 45s12.088 27 27 27Z"/><path fill="url(#b)" d="M45 72c14.912 0 27-12.088 27-27S59.912 18 45 18 18 30.088 18 45s12.088 27 27 27Z"/><path fill="url(#c)" d="M45 18.135c-4.995 0-9.72 1.35-13.635 3.78-.405.27-.81.675-1.08.81-9.18 8.1-7.965 22.815 2.16 32.805 10.125 9.99 25.65 11.475 34.695 3.375.945-.81 2.025-2.025 2.565-2.97 1.35-3.375 2.16-6.885 2.16-10.665C72 30.15 59.85 18.135 45 18.135Z"/><path fill="url(#d)" d="M69.57 44.19c1.215-1.755 1.62-3.915 1.35-6.21-2.025-7.155-6.75-13.095-12.96-16.74-.135-.135-.405-.135-.54-.405C53.775 18.945 49.59 18 45 18c-3.78 0-7.29.81-10.53 2.16-.81.81-1.755 1.62-2.43 2.565-4.05 6.345.81 16.47 11.205 22.275 10.125 6.21 22.005 5.535 26.325-.81Z"/><defs><radialGradient id="c" cx="0" cy="0" r="1" gradientTransform="rotate(-143.994 47.623 17.643) scale(66.1136 93.645)" gradientUnits="userSpaceOnUse"><stop offset=".097" stop-color="#4581E9"/><stop offset=".46" stop-color="#80ACF0"/><stop offset=".794" stop-color="#F0F6FD"/></radialGradient><radialGradient id="d" cx="0" cy="0" r="1" gradientTransform="rotate(176.111 50.233 14.82) scale(58.7643 70.0672)" gradientUnits="userSpaceOnUse"><stop stop-color="#4581E9"/><stop offset=".537" stop-color="#87B1F0"/><stop offset=".806" stop-color="#CCE0FD"/><stop offset="1" stop-color="#F0F6FD"/></radialGradient><linearGradient id="a" x1="45" x2="45" y1="72.538" y2="22.38" gradientUnits="userSpaceOnUse"><stop stop-color="#4581E9"/><stop offset=".479" stop-color="#80ACF0"/><stop offset="1" stop-color="#fff"/></linearGradient><linearGradient id="b" x1="81.224" x2="35.052" y1="72.885" y2="37.342" gradientUnits="userSpaceOnUse"><stop stop-color="#4581E9"/><stop offset="1" stop-color="#4581E9" stop-opacity="0"/></linearGradient></defs></svg>