<svg width="90" height="90" viewBox="0 0 90 90" fill="none" xmlns="http://www.w3.org/2000/svg">
<circle cx="45" cy="45" r="45" fill="#F5F5F5"/>
<path fill-rule="evenodd" clip-rule="evenodd" d="M45 76.9729C49.2691 77.1517 53.5293 76.4441 57.5249 74.8928C61.5205 73.3414 65.169 70.9783 68.2513 67.9453C71.3335 64.9123 73.7859 61.272 75.4612 57.243C77.1364 53.2141 78 48.8796 78 44.5C78 40.1204 77.1364 35.7859 75.4612 31.757C73.7859 27.728 71.3335 24.0877 68.2513 21.0547C65.169 18.0217 61.5205 15.6586 57.5249 14.1072C53.5293 12.5559 49.2691 11.8483 45 12.0271C40.7309 11.8483 36.4707 12.5559 32.4751 14.1072C28.4795 15.6586 24.831 18.0217 21.7487 21.0547C18.6665 24.0877 16.2141 27.728 14.5388 31.757C12.8636 35.7859 12 40.1204 12 44.5C12 48.8796 12.8636 53.2141 14.5388 57.243C16.2141 61.272 18.6665 64.9123 21.7487 67.9453C24.831 70.9783 28.4795 73.3414 32.4751 74.8928C36.4707 76.4441 40.7309 77.1517 45 76.9729V76.9729Z" fill="url(#paint0_radial_613_300)"/>
<path fill-rule="evenodd" clip-rule="evenodd" d="M59.1985 68.7163C47.9958 75.0809 35.8486 76.219 28.0911 72.4074C33.1624 75.3768 38.908 76.9591 44.7643 76.9992C50.6207 77.0393 56.3868 75.5359 61.4973 72.6363C66.5412 69.8245 70.7392 65.6796 73.6448 60.6423C76.5503 55.605 78.0549 49.8636 77.9985 44.0287C77.4817 52.5489 70.3894 62.3277 59.1985 68.7163ZM63.2139 18.5764C62.5462 17.4548 61.6236 16.5114 60.5231 15.8246C64.6184 17.9526 68.2188 20.9415 71.0844 24.5917C71.5833 25.2139 72.0526 25.8582 72.4921 26.5246C73.6705 28.5769 74.232 30.9334 74.1078 33.3046C73.8227 41.9574 66.0295 52.4466 53.7516 59.4254C41.4737 66.4041 28.3643 67.8131 20.6067 63.7246C18.4711 62.6441 16.6798 60.9744 15.439 58.9075L15.3915 58.8292C15.0648 58.1849 14.7975 57.5467 14.5064 56.8903C12.6925 52.6143 11.8442 47.9813 12.0235 43.3302C12.086 44.643 12.4588 45.9213 13.1105 47.0575C17.0784 53.8195 31.5243 52.9343 45.3347 45.0704C59.1451 37.2065 67.1818 25.3384 63.2139 18.5764V18.5764ZM49.1897 14.3915C49.0695 14.2116 48.9343 14.0424 48.7858 13.8857C47.8566 13.1244 46.7773 12.5736 45.6206 12.2703C44.4639 11.967 43.2565 11.9183 42.0796 12.1275C41.6282 12.1636 41.1411 12.2118 40.654 12.29C36.3794 12.8402 32.2503 14.2245 28.495 16.3665C24.7692 18.4599 21.4887 21.2799 18.8426 24.664C18.5515 25.0373 18.2783 25.4166 17.9991 25.796C17.2251 26.6902 16.6623 27.7514 16.3536 28.8991C16.0448 30.0468 15.9981 31.2508 16.2171 32.4195C16.2781 32.6271 16.3576 32.8286 16.4547 33.0216C18.7238 36.8994 27.9069 35.8818 36.9416 30.7275C45.9762 25.5732 51.4588 18.2693 49.1897 14.3915V14.3915Z" fill="url(#paint1_radial_613_300)"/>
<defs>
<radialGradient id="paint0_radial_613_300" cx="0" cy="0" r="1" gradientUnits="userSpaceOnUse" gradientTransform="translate(45.0059 44.1488) scale(32.616 32.4299)">
<stop stop-color="#FEC700"/>
<stop offset="1" stop-color="#FFDB51"/>
</radialGradient>
<radialGradient id="paint1_radial_613_300" cx="0" cy="0" r="1" gradientUnits="userSpaceOnUse" gradientTransform="translate(45.0021 44.09) scale(32.9964 32.4453)">
<stop stop-color="#050007"/>
<stop offset="0.48" stop-color="#050007"/>
<stop offset="1" stop-color="#50504F"/>
</radialGradient>
</defs>
</svg>
