<svg width="90" height="90" viewBox="0 0 90 90" fill="none" xmlns="http://www.w3.org/2000/svg">
<circle cx="45" cy="45" r="45" fill="url(#paint0_linear_516_561)"/>
<path d="M33.0341 62V27.0909H56.1989V33.1761H40.4148V39.9943H46.0909C48.8523 39.9943 51.233 40.4432 53.233 41.3409C55.2443 42.2273 56.7955 43.483 57.8864 45.108C58.9773 46.733 59.5227 48.6477 59.5227 50.8523C59.5227 53.0455 58.9773 54.983 57.8864 56.6648C56.7955 58.3352 55.2443 59.642 53.233 60.5852C51.233 61.5284 48.8523 62 46.0909 62H33.0341ZM40.4148 56.0682H46.0909C47.4091 56.0682 48.5227 55.8295 49.4318 55.3523C50.3409 54.8636 51.0284 54.2216 51.4943 53.4261C51.9716 52.6193 52.2102 51.7386 52.2102 50.7841C52.2102 49.3977 51.6818 48.2273 50.625 47.2727C49.5795 46.3068 48.0682 45.8239 46.0909 45.8239H40.4148V56.0682Z" fill="white"/>
<defs>
<linearGradient id="paint0_linear_516_561" x1="45" y1="0" x2="45" y2="90" gradientUnits="userSpaceOnUse">
<stop stop-color="#64A335"/>
<stop offset="1" stop-color="#3E8926"/>
</linearGradient>
</defs>
</svg>
