<svg width="90" height="90" fill="none" xmlns="http://www.w3.org/2000/svg"><circle cx="45" cy="45" r="45" fill="#1D1D1B"/><path fill-rule="evenodd" clip-rule="evenodd" d="M78.442 44.974v-.11h-2.983V45c0 2.846-2.421 5.154-5.405 5.154-2.984 0-5.404-2.308-5.404-5.154s2.42-5.154 5.404-5.154h.09V37h-.09c-4.627 0-8.388 3.587-8.388 8s3.76 8 8.388 8c4.627 0 8.388-3.587 8.388-8v-.026Zm-38.76-7.684-5.395 15.42h3.082l.608-1.729c.089-.247.241-.4.572-.4h4.93c.33 0 .49.153.572.4l.607 1.73h3.082l-5.396-15.422h-2.661Zm2.815 10.607H39.52c-.312 0-.491-.18-.385-.486l1.564-4.482c.143-.4.491-.4.625 0l1.546 4.482c.116.323-.063.486-.375.486Zm14.382-1.321c.259.477.661.375.661-.153V37.29h2.974v15.413h-3.6l-5.136-9.278c-.259-.477-.661-.375-.661.153v9.134h-2.974V37.288h3.778l4.958 9.288v-.001Zm-29.613 2.897V37.289h-2.975v15.422h9.558v-2.693h-6.002a.566.566 0 0 1-.415-.149.53.53 0 0 1-.166-.396Zm-4.618-7.932c0 1.303-.59 2.369-1.617 3.084a4.234 4.234 0 0 1 1.956 3.604c0 2.59-1.939 4.482-4.53 4.482H12V37.288h6.137c2.787 0 4.51 1.747 4.51 4.252Zm-7.254-1.713c-.26 0-.42.154-.42.4v2.931c0 .24.16.419.42.419h2.198c1.108 0 1.894-.81 1.894-1.876 0-1.047-.777-1.874-1.894-1.874h-2.198Zm.036 10.31h2.206c1.313 0 2.126-.878 2.135-2.028 0-1.133-.822-1.994-2.126-1.994H15.43a.434.434 0 0 0-.456.451v3.136c0 .255.196.434.456.434h-.001Z" fill="#fff"/></svg>