<svg xmlns="http://www.w3.org/2000/svg" width="90" height="90" fill="none"><circle cx="45" cy="45" r="45" fill="#C8DAE4"/><path fill="url(#a)" d="M45.004.075C20.183.075.06 20.195.06 45.017c0 24.821 20.123 44.943 44.944 44.943 24.822 0 44.943-20.122 44.943-44.943C89.947 20.196 69.826.075 45.002.075Zm0 87.637c-23.581 0-42.695-19.115-42.695-42.695 0-23.58 19.114-42.695 42.695-42.695 23.58 0 42.695 19.115 42.695 42.695 0 23.58-19.115 42.695-42.695 42.695Z"/><path fill="#333" d="M88.021 45.017c0 23.756-19.261 43.017-43.017 43.017-23.757 0-43.016-19.26-43.016-43.017S21.248 2.001 45.004 2.001C68.76 2 88.02 21.26 88.02 45.017Z"/><path fill="url(#b)" d="M87.7 45.017c0 23.58-19.116 42.695-42.697 42.695-23.58 0-42.694-19.115-42.694-42.695 0-23.58 19.114-42.695 42.695-42.695 23.58 0 42.695 19.116 42.695 42.695Z"/><path fill="url(#c)" d="M73.628 45.017c0 15.808-12.816 28.623-28.624 28.623-15.81 0-28.625-12.815-28.625-28.623 0-15.809 12.816-28.624 28.625-28.624 15.808 0 28.624 12.816 28.624 28.624Z"/><path fill="#000" d="m46.15 15.62 2.974-7.881v7.88h2.258V4.334h-3.394l-3.087 8.081h.03l-3.087-8.08H38.45V15.62h2.258V7.739l2.973 7.88h2.47ZM77.142 20.68l-3.858 5.627 6.06-2.981 1.644 1.971-9.538 4.79-1.928-2.334 3.698-5.575-.022-.027-6.15 2.632-1.95-2.318 6.432-8.516 1.644 1.973-4.027 5.422 6.232-2.78 1.763 2.117Z"/><path fill="#333" d="M25.014 18.524c-.909-.882-2.311-1.148-3.63-.33.253-.653.15-1.318.017-1.687-.569-1.034-.768-1.164-1.233-1.557-1.516-1.27-3.11-.185-4.25 1.172l-5.507 6.564 8.658 7.265 5.808-6.92c1.328-1.582 1.533-3.15.137-4.506Zm-11.2 3.166 3.308-3.943c.384-.456 1.25-.438 1.806.03.613.514.615 1.242.203 1.733l-3.271 3.897-2.046-1.717Zm9.127.655-3.45 4.11-2.159-1.814 3.475-4.142c.393-.468 1.269-.605 1.86-.11.665.56.73 1.412.274 1.957Z"/><path fill="url(#d)" d="m46.174 15.184 2.973-7.881v7.88h2.259V3.898h-3.394l-3.087 8.08h.03l-3.088-8.08h-3.394v11.287h2.259V7.303l2.973 7.88h2.469Z"/><path fill="url(#e)" d="m77.164 19.923-3.856 5.626 6.06-2.981 1.642 1.972-9.537 4.79-1.927-2.335 3.698-5.574-.022-.028-6.152 2.633-1.947-2.319 6.431-8.515 1.644 1.972-4.027 5.423 6.23-2.78 1.763 2.116Z"/><path fill="url(#f)" d="M24.61 18.302c-.907-.882-2.311-1.148-3.628-.331.25-.654.148-1.318.015-1.685-.569-1.036-.766-1.165-1.235-1.558-1.516-1.27-3.108-.186-4.246 1.173l-5.51 6.563 8.66 7.265 5.807-6.922c1.326-1.582 1.532-3.149.137-4.505Zm-11.2 3.166 3.308-3.942c.382-.457 1.249-.439 1.806.028.613.515.615 1.244.201 1.733l-3.27 3.898-2.045-1.717Zm9.128.655-3.448 4.11-2.164-1.815 3.477-4.143c.393-.467 1.267-.603 1.858-.107.669.56.735 1.41.277 1.955Z"/><path fill="url(#g)" d="M17.332 45.018c0-15.283 12.39-27.673 27.672-27.673 15.284 0 27.671 12.39 27.671 27.673 0 15.282-12.387 27.67-27.671 27.67-15.283 0-27.672-12.388-27.672-27.67Z"/><path fill="url(#h)" d="M18.128 45.018c0-14.844 12.032-26.877 26.876-26.877 14.843 0 26.877 12.033 26.877 26.877 0 14.843-12.034 26.877-26.877 26.877-14.844 0-26.876-12.034-26.876-26.877Z"/><path fill="url(#i)" d="M18.085 45.018h26.919V18.1c-14.868 0-26.919 12.05-26.919 26.918Z"/><path fill="url(#j)" d="M45.004 45.018v26.918c14.867 0 26.918-12.053 26.918-26.918H45.004Z"/><path fill="url(#k)" d="M72.144 44.54H45.481V17.875h-.955v26.663H17.862v.955h26.664V72.16h.955V45.494h26.663v-.955Z"/><path fill="url(#l)" d="M45.48 18.63c14.2.253 25.659 11.71 25.913 25.91h.475c-.254-14.463-11.924-26.135-26.387-26.387v.478Z"/><path fill="#C2D7E8" d="M18.568 44.536c.253-14.218 11.727-25.692 25.945-25.945v-.478c-14.482.254-26.168 11.941-26.422 26.423h.477Z"/><path fill="url(#m)" d="M44.526 71.404c-14.2-.252-25.658-11.71-25.91-25.91h-.477c.254 14.463 11.924 26.136 26.387 26.388v-.478Z"/><path fill="#12404F" d="M71.393 45.494c-.254 14.2-11.713 25.658-25.912 25.91v.478c14.463-.252 26.135-11.925 26.387-26.388h-.475Z"/><path fill="url(#n)" d="M44.016 18.113v25.903H18.115v.51h26.411V18.114h-.51Z"/><path fill="url(#o)" d="M43.972 71.631v-25.59H18.33v-.505h26.148v26.095h-.505Z"/><path fill="url(#p)" d="M46.028 71.631v-25.59h25.59v-.505H45.525v26.095h.503Z"/><path fill="url(#q)" d="M46.028 18.342v25.59h25.59v.504H45.525V18.342h.503Z"/><defs><radialGradient id="i" cx="0" cy="0" r="1" gradientTransform="translate(9.16 .568) scale(106.587)" gradientUnits="userSpaceOnUse"><stop offset=".169" stop-color="#fff"/><stop offset=".196" stop-color="#E0EFF7"/><stop offset=".241" stop-color="#B2D9EC"/><stop offset=".287" stop-color="#8BC5E2"/><stop offset=".335" stop-color="#6BB5DA"/><stop offset=".384" stop-color="#52A9D4"/><stop offset=".436" stop-color="#41A0CF"/><stop offset=".491" stop-color="#369BCD"/><stop offset=".556" stop-color="#39C"/><stop offset=".606" stop-color="#3396C8"/><stop offset=".655" stop-color="#328EBC"/><stop offset=".705" stop-color="#3180A8"/><stop offset=".754" stop-color="#2F6D8C"/><stop offset=".803" stop-color="#2D5468"/><stop offset=".851" stop-color="#2A373D"/><stop offset=".871" stop-color="#292929"/></radialGradient><radialGradient id="d" cx="0" cy="0" r="1" gradientTransform="translate(-11.967 -3.455) scale(153.427)" gradientUnits="userSpaceOnUse"><stop stop-color="#fff"/><stop offset=".31" stop-color="#FDFDFD"/><stop offset=".451" stop-color="#F6F6F6"/><stop offset=".557" stop-color="#E9E9E9"/><stop offset=".646" stop-color="#D7D7D7"/><stop offset=".724" stop-color="#BFBFBF"/><stop offset=".794" stop-color="#A2A2A2"/><stop offset=".859" stop-color="gray"/><stop offset=".92" stop-color="#575757"/><stop offset=".975" stop-color="#2B2B2B"/><stop offset="1" stop-color="#141414"/></radialGradient><radialGradient id="e" cx="0" cy="0" r="1" gradientTransform="translate(-11.974 -3.455) scale(153.44)" gradientUnits="userSpaceOnUse"><stop stop-color="#fff"/><stop offset=".31" stop-color="#FDFDFD"/><stop offset=".451" stop-color="#F6F6F6"/><stop offset=".557" stop-color="#E9E9E9"/><stop offset=".646" stop-color="#D7D7D7"/><stop offset=".724" stop-color="#BFBFBF"/><stop offset=".794" stop-color="#A2A2A2"/><stop offset=".859" stop-color="gray"/><stop offset=".92" stop-color="#575757"/><stop offset=".975" stop-color="#2B2B2B"/><stop offset="1" stop-color="#141414"/></radialGradient><radialGradient id="f" cx="0" cy="0" r="1" gradientTransform="matrix(153.558 0 0 153.557 -11.983 -3.5)" gradientUnits="userSpaceOnUse"><stop stop-color="#fff"/><stop offset=".31" stop-color="#FDFDFD"/><stop offset=".451" stop-color="#F6F6F6"/><stop offset=".557" stop-color="#E9E9E9"/><stop offset=".646" stop-color="#D7D7D7"/><stop offset=".724" stop-color="#BFBFBF"/><stop offset=".794" stop-color="#A2A2A2"/><stop offset=".859" stop-color="gray"/><stop offset=".92" stop-color="#575757"/><stop offset=".975" stop-color="#2B2B2B"/><stop offset="1" stop-color="#141414"/></radialGradient><radialGradient id="g" cx="0" cy="0" r="1" gradientTransform="translate(15.511 17.816) scale(41.3839)" gradientUnits="userSpaceOnUse"><stop stop-color="#E6E6E6"/><stop offset=".104" stop-color="#D6D6D6"/><stop offset=".307" stop-color="#ADADAD"/><stop offset=".588" stop-color="#6C6C6C"/><stop offset=".933" stop-color="#121212"/><stop offset="1"/></radialGradient><radialGradient id="h" cx="0" cy="0" r="1" gradientTransform="translate(26.83 23.382) scale(60.184)" gradientUnits="userSpaceOnUse"><stop stop-color="#fff"/><stop offset=".344" stop-color="#FDFDFD"/><stop offset=".481" stop-color="#F6F6F6"/><stop offset=".582" stop-color="#EAEAEA"/><stop offset=".665" stop-color="#D8D8D8"/><stop offset=".737" stop-color="#C2C2C2"/><stop offset=".802" stop-color="#A6A6A6"/><stop offset=".86" stop-color="#848484"/><stop offset=".913" stop-color="#5F5F5F"/><stop offset=".949" stop-color="#404040"/><stop offset=".957" stop-color="#404040"/><stop offset="1"/></radialGradient><radialGradient id="b" cx="0" cy="0" r="1" gradientTransform="translate(-.5 3.048) scale(63.8519)" gradientUnits="userSpaceOnUse"><stop stop-color="#fff"/><stop offset=".306" stop-color="#A8A8A8"/><stop offset=".646" stop-color="#4F4F4F"/><stop offset=".885" stop-color="#161616"/><stop offset="1"/></radialGradient><radialGradient id="j" cx="0" cy="0" r="1" gradientTransform="translate(9.16 .567) scale(106.584)" gradientUnits="userSpaceOnUse"><stop offset=".169" stop-color="#fff"/><stop offset=".196" stop-color="#E0EFF7"/><stop offset=".241" stop-color="#B2D9EC"/><stop offset=".287" stop-color="#8BC5E2"/><stop offset=".335" stop-color="#6BB5DA"/><stop offset=".384" stop-color="#52A9D4"/><stop offset=".436" stop-color="#41A0CF"/><stop offset=".491" stop-color="#369BCD"/><stop offset=".556" stop-color="#39C"/><stop offset=".606" stop-color="#3396C8"/><stop offset=".655" stop-color="#328EBC"/><stop offset=".705" stop-color="#3180A8"/><stop offset=".754" stop-color="#2F6D8C"/><stop offset=".803" stop-color="#2D5468"/><stop offset=".851" stop-color="#2A373D"/><stop offset=".871" stop-color="#292929"/></radialGradient><radialGradient id="k" cx="0" cy="0" r="1" gradientTransform="translate(16.076 18.337) scale(40.5907)" gradientUnits="userSpaceOnUse"><stop stop-color="#E6E6E6"/><stop offset=".104" stop-color="#D6D6D6"/><stop offset=".307" stop-color="#ADADAD"/><stop offset=".588" stop-color="#6C6C6C"/><stop offset=".933" stop-color="#121212"/><stop offset="1"/></radialGradient><linearGradient id="a" x1="-6.519" x2="88.841" y1="-4.771" y2="87.378" gradientUnits="userSpaceOnUse"><stop stop-color="#DFF4FF"/><stop offset=".098" stop-color="#D6EAF5"/><stop offset=".268" stop-color="#BFD0D9"/><stop offset=".488" stop-color="#98A5AC"/><stop offset=".747" stop-color="#646B6E"/><stop offset="1" stop-color="#2B2B2B"/></linearGradient><linearGradient id="c" x1="77.818" x2="17.084" y1="76.727" y2="18.037" gradientUnits="userSpaceOnUse"><stop stop-color="#DFF4FF"/><stop offset=".086" stop-color="#D6EAF5"/><stop offset=".233" stop-color="#BED0D9"/><stop offset=".424" stop-color="#96A4AC"/><stop offset=".652" stop-color="#5F686D"/><stop offset=".907" stop-color="#1A1D1E"/><stop offset="1"/></linearGradient><linearGradient id="l" x1="39.681" x2="79.265" y1="8.202" y2="46.453" gradientUnits="userSpaceOnUse"><stop stop-color="#F0F4FF"/><stop offset=".109" stop-color="#EBEFF9"/><stop offset=".247" stop-color="#DCE0EA"/><stop offset=".403" stop-color="#C4C7CF"/><stop offset=".57" stop-color="#A2A4AB"/><stop offset=".747" stop-color="#76777C"/><stop offset=".929" stop-color="#414243"/><stop offset="1" stop-color="#2B2B2B"/></linearGradient><linearGradient id="m" x1="7.552" x2="47.136" y1="40.497" y2="78.749" gradientUnits="userSpaceOnUse"><stop stop-color="#F0F4FF"/><stop offset=".109" stop-color="#EBEFF9"/><stop offset=".247" stop-color="#DCE0EA"/><stop offset=".403" stop-color="#C4C7CF"/><stop offset=".57" stop-color="#A2A4AB"/><stop offset=".747" stop-color="#76777C"/><stop offset=".929" stop-color="#414243"/><stop offset="1" stop-color="#2B2B2B"/></linearGradient><linearGradient id="n" x1="26.702" x2="47.228" y1="26.857" y2="46.692" gradientUnits="userSpaceOnUse"><stop stop-color="#C2D7E8"/><stop offset=".134" stop-color="#BACFE1"/><stop offset=".343" stop-color="#A4BACD"/><stop offset=".6" stop-color="#8098AC"/><stop offset=".894" stop-color="#4E697F"/><stop offset="1" stop-color="#3A566D"/></linearGradient><linearGradient id="o" x1="16.422" x2="55.608" y1="31.717" y2="69.584" gradientUnits="userSpaceOnUse"><stop stop-color="#F0F4FF"/><stop offset=".097" stop-color="#E8EBF6"/><stop offset=".257" stop-color="#D1D4DD"/><stop offset=".459" stop-color="#ABAEB5"/><stop offset=".695" stop-color="#78797D"/><stop offset=".958" stop-color="#363637"/><stop offset="1" stop-color="#2B2B2B"/></linearGradient><linearGradient id="p" x1="45.305" x2="59.05" y1="45.764" y2="59.046" gradientUnits="userSpaceOnUse"><stop stop-color="#D9DEF0"/><stop offset=".123" stop-color="#D4DAEC"/><stop offset=".263" stop-color="#C7CFE2"/><stop offset=".411" stop-color="#B0BCD1"/><stop offset=".566" stop-color="#90A1B8"/><stop offset=".725" stop-color="#677F99"/><stop offset=".885" stop-color="#355674"/><stop offset=".972" stop-color="#173D5D"/></linearGradient><linearGradient id="q" x1="31.244" x2="70.387" y1="17.346" y2="55.172" gradientUnits="userSpaceOnUse"><stop stop-color="#F0F4FF"/><stop offset=".109" stop-color="#EBEFF9"/><stop offset=".247" stop-color="#DCE0EA"/><stop offset=".403" stop-color="#C4C7CF"/><stop offset=".57" stop-color="#A2A4AB"/><stop offset=".747" stop-color="#76777C"/><stop offset=".929" stop-color="#414243"/><stop offset="1" stop-color="#2B2B2B"/></linearGradient></defs></svg>