<svg width="90" height="90" viewBox="0 0 90 90" fill="none" xmlns="http://www.w3.org/2000/svg">
<circle cx="45" cy="45" r="45" fill="#F5F5F5"/>
<path d="M60.0587 38.5948C58.9732 41.6162 56.9999 44.2537 54.3884 46.1737C51.7768 48.0937 48.6442 49.2101 45.3867 49.3816C42.1292 49.5532 38.893 48.7722 36.0874 47.1375C33.2818 45.5027 31.0326 43.0877 29.6244 40.1976C28.2162 37.3075 27.7121 34.0721 28.1759 30.9007C28.6397 27.7292 30.0506 24.7641 32.2301 22.3801C34.4096 19.9961 37.2598 18.3004 40.4205 17.5073C43.5812 16.7142 46.9103 16.8594 49.987 17.9245C52.0308 18.6314 53.9127 19.727 55.5252 21.1486C57.1376 22.5702 58.449 24.2899 59.3844 26.2096C60.3197 28.1293 60.8607 30.2112 60.9764 32.3363C61.0921 34.4614 60.7803 36.5881 60.0587 38.5948Z" fill="url(#paint0_linear_214_40)"/>
<path d="M60.9951 59.5955V61.2386C60.9951 64.3523 53.6352 66.9055 44.5195 66.9391C35.4038 66.9726 28.0244 64.4673 28 61.3536V59.7201L60.9951 59.5955Z" fill="url(#paint1_linear_214_40)"/>
<path d="M60.9951 59.5955C60.9951 62.714 53.6304 65.2672 44.5195 65.296C35.4087 65.3247 28 62.829 28 59.7201C28 56.6111 35.3696 54.0483 44.4854 54.0148C53.6011 53.9813 60.9854 56.4818 60.9951 59.5955Z" fill="url(#paint2_linear_214_40)"/>
<path d="M28 72.1222C28 71.6671 35.3892 71.2168 44.5 71.2168C53.6108 71.2168 60.9951 71.6671 60.9951 72.1222V73.0803C60.9951 73.5305 53.6108 73.9808 44.5 73.9808C35.3892 73.9808 28 73.5497 28 73.0994V72.1222Z" fill="url(#paint3_linear_214_40)"/>
<defs>
<linearGradient id="paint0_linear_214_40" x1="40.4787" y1="38.5079" x2="64.9807" y2="5.0125" gradientUnits="userSpaceOnUse">
<stop stop-color="#DB1E33"/>
<stop offset="1" stop-color="#F57E21"/>
</linearGradient>
<linearGradient id="paint1_linear_214_40" x1="50.0862" y1="63.2064" x2="64.3127" y2="63.5869" gradientUnits="userSpaceOnUse">
<stop stop-color="#A11C34"/>
<stop offset="1" stop-color="#C22034"/>
</linearGradient>
<linearGradient id="paint2_linear_214_40" x1="42.4262" y1="60.6701" x2="76.2862" y2="43.4488" gradientUnits="userSpaceOnUse">
<stop stop-color="#DB1E33"/>
<stop offset="0.87" stop-color="#F38523"/>
<stop offset="1" stop-color="#F79421"/>
</linearGradient>
<linearGradient id="paint3_linear_214_40" x1="-187281" y1="70.5343" x2="-188455" y2="629.855" gradientUnits="userSpaceOnUse">
<stop stop-color="#A11C34"/>
<stop offset="1" stop-color="#C22034"/>
</linearGradient>
</defs>
</svg>
