<svg xmlns="http://www.w3.org/2000/svg" width="90" height="90" fill="none"><circle cx="45" cy="45" r="45" fill="#50B848"/><path fill="#FEF25A" d="M47.74 22v11.318L56.952 22h-9.21Zm-19.832 5.385c.642-1.033 1.333-1.847 2.288-2.613l.726-.493a8.328 8.328 0 0 1 2.073-.811 9.25 9.25 0 0 1 1.371-.145 8.36 8.36 0 0 1 1.809.255c.436.14.83.296 1.245.492.94.519 1.655 1.103 2.375 1.893l.54.683c.794 1.161 1.307 2.312 1.686 3.656l.205.914c.027.146.05.29.067.43V22H26.5v9.672c.196-1.067.51-2.467.991-3.505l.417-.782Zm35.627-3.82-15.794 19.41v4.404c.018-.142.042-.285.066-.429l.204-.912c.38-1.345.894-2.497 1.686-3.659l.541-.686a9.362 9.362 0 0 1 1.99-1.674c.398-.223.785-.404 1.201-.573a7.698 7.698 0 0 1 2.708-.377l.909.133c.76.19 1.382.438 2.064.816.379.234.72.481 1.068.758 1.027.922 1.742 1.903 2.368 3.124l.357.823c.29.777.496 1.92.632 2.688V23.564Z"/><path fill="#FEF25A" d="M55.669 55.691c-2.229 0-4.044-2.845-4.044-6.336 0-3.49 1.815-6.335 4.044-6.335 2.23 0 4.049 2.845 4.049 6.335 0 3.492-1.818 6.336-4.05 6.336Zm0-14.324c-3.157 0-5.73 3.587-5.73 7.988 0 4.4 2.574 7.99 5.73 7.99 3.155 0 5.731-3.59 5.731-7.99.003-4.399-2.576-7.987-5.731-7.987Z"/><path fill="#FEF25A" d="m48.011 52.677-.204-.916c-.024-.146-.048-.288-.066-.427v9.648h15.794v-9.6c-.2 1.069-.511 2.392-.99 3.432l-.422.783c-.642 1.03-1.33 1.84-2.285 2.61l-.728.49a8.143 8.143 0 0 1-2.065.814c-.47.083-.9.129-1.376.145a8.207 8.207 0 0 1-1.81-.255c-.436-.14-.831-.297-1.245-.49a8.971 8.971 0 0 1-2.376-1.893l-.541-.688c-.792-1.158-1.303-2.311-1.686-3.653ZM42.294 35.6c-.018.142-.04.284-.067.43l-.205.913c-.379 1.345-.892 2.497-1.685 3.656l-.542.686a9.388 9.388 0 0 1-1.992 1.677c-.394.218-.78.4-1.201.57a7.474 7.474 0 0 1-2.702.373l-.905-.125a8.148 8.148 0 0 1-2.074-.818 11.473 11.473 0 0 1-1.064-.76c-1.03-.925-1.743-1.899-2.366-3.124-.5-1.146-.769-2.226-.991-3.463v23.798L42.294 40.01v-4.408Z"/><path fill="#FEF25A" d="M34.366 39.958c-2.229 0-4.05-2.844-4.05-6.333 0-3.49 1.821-6.34 4.05-6.34 2.226 0 4.04 2.85 4.04 6.34 0 3.49-1.814 6.333-4.04 6.333Zm0-14.32c-3.156 0-5.732 3.585-5.732 7.986 0 4.398 2.576 7.985 5.732 7.985 3.153 0 5.726-3.587 5.726-7.985 0-4.4-2.573-7.987-5.726-7.987Zm7.928 24.028-9.21 11.316h9.21V49.666ZM63.078 22h-4.439L26.976 60.982h4.373L63.078 22ZM46.38 58.299h-2.71v2.683h2.71V58.3Z"/><path fill="#FEF25A" d="M64.901 58.299v2.683c1.852 0 3.356 1.484 3.356 3.314 0 1.831-1.505 3.315-3.356 3.315-1.363 0-2.608-.305-5.196-.94-5.014-1.229-11.187-2.745-16.131-3.958-8.886-2.177-17.037.293-17.071 6.065h2.709c0-2.146 4.156-3.57 13.058-1.39l16.393 4.022c3.829.939 6.967.713 9.222-.362l.008.008c2.256-1.095 3.806-3.388 3.806-6.035 0-3.714-3.045-6.722-6.798-6.722Z"/></svg>