<svg width="90" height="90" viewBox="0 0 90 90" fill="none" xmlns="http://www.w3.org/2000/svg">
<circle cx="45" cy="45" r="45" fill="#3A913F"/>
<path d="M48.0264 20C49.1338 20.2193 50.2522 20.3838 51.3377 20.6689C54.6053 21.5351 57.4342 23.1853 59.7916 25.614C61.1459 27.0066 61.1294 29.1776 59.8246 30.625C58.6239 31.9572 56.4419 32.1601 54.9781 31.0581C54.5066 30.7017 54.1119 30.2522 53.6459 29.8904C50.159 27.193 46.2939 26.5406 42.2094 28.136C38.1195 29.7314 35.6469 32.829 35.0055 37.182C34.046 43.6732 38.3497 49.4244 44.8465 50.3399C48.5307 50.8608 51.7764 49.7424 54.4738 47.1546C56.4035 45.307 59.386 45.784 60.4715 48.1305C61.1075 49.5066 60.8443 51.1184 59.7533 52.1985C55.5593 56.3323 50.5099 58.1963 44.6491 57.6425C36.5131 56.875 30.0439 51.2665 28.114 43.4046C27.8618 42.3684 27.7796 41.2884 27.6151 40.2303C27.5877 40.0658 27.5384 39.9014 27.5 39.7369V38.0264C27.5822 37.4506 27.67 36.8695 27.7467 36.2939C28.7116 28.8322 34.2818 22.5 41.5406 20.6579C42.6371 20.3783 43.7555 20.2193 44.8684 20H48.0264ZM32.6316 70C32.5329 69.9561 32.4397 69.9013 32.3355 69.8739C30.5811 69.375 29.6107 67.9276 29.8465 66.1567C30.0603 64.5175 31.4309 63.3279 33.1798 63.3114C35.4166 63.2949 37.6535 63.3059 39.8849 63.3059C45.9101 63.3059 51.9408 63.3004 57.966 63.3059C59.4079 63.3059 60.5263 63.9145 61.1349 65.2413C61.727 66.5296 61.579 67.818 60.5921 68.8378C60.0933 69.3585 59.3256 69.6216 58.6788 70H32.6316Z" fill="white"/>
</svg>
