<svg xmlns="http://www.w3.org/2000/svg" width="90" height="90" fill="none"><circle cx="45" cy="45" r="45" fill="#F5F5F5"/><path fill="#F27007" d="M50.425 27.37c-3.1.62-5.58 3.72-4.96 7.44-8.525-2.945-19.22-2.48-26.66-1.085-1.705.31-3.255.775-4.495 1.085-.31.155-.31.465 0 .62 11.47 2.635 15.965 8.525 24.8 10.075-6.355 8.835-6.045 19.995-5.27 22.63.155.62 3.1 4.65 4.805 6.2.155.155.465.155.62.155.31 0 .62-.31.62-.62-.155-10.23 1.085-17.05 4.34-18.135 2.015-.775 3.1-1.085 3.565-1.24 8.68-2.79 7.905-13.33 7.905-17.05-.155-6.2 2.945-7.905 5.425-8.37l12.555-2.48c1.085-.155 1.705-.155 2.015-.155h.155c0-.31-.465-.62-1.24-.62h-.155c-.31 0-.465 0-.775.155l-13.02 2.48c-1.705.31-3.1.465-3.565.31-.775-.465-3.875-2.015-6.665-1.395Z"/></svg>