<svg width="90" height="90" fill="none" xmlns="http://www.w3.org/2000/svg"><circle cx="45" cy="45" r="45" fill="#F5F5F5"/><g clip-path="url(#a)" fill="#008A53"><path d="M43.87 47.135a16.326 16.326 0 0 1-6.186 7.093c-4.706 3.088-7.523 4.817-11.475 4.323-3.952-.494-.988-6.911-2.711-9.134-1.724-2.223-3.953-5.429-.865-6.664 3.088-1.235 11.845-1.358 10.586-2.464-1.258-1.106-8.34-6.046-7.628-9.257.712-3.212 5.676-2.588 7.529-4.811 1.852-2.223 5.287-6.634 7.898-2.1 2.612 4.535 2.853 7.405 2.853 7.405s.588 1.488 1.047-.053c.458-1.541 1.658-7.381 5.152-9.099 3.493-1.717 5.881 4.747 8.128 5.494 2.246.746 5.264.458 5.205 4.634-.06 4.176-7.84 6.81-7.44 8.528.4 1.717 1.658-.859 9.786.97 8.129 1.83-1.176 6.582-.746 11.557.429 4.976-1.142 6.14-5.294 5.076-4.152-1.065-11.904-7.017-14.592-11.175l-1.246-.323Z"/><path d="M43.87 47.135s-.305 3.393 1.006 5.681c1.312 2.288 2.73 5.588 1.07 8.487-.952 1.67-1.493 2.535-1.764 2.94a.553.553 0 0 0 .106.748l1.512 1.27a.519.519 0 0 0 .794-.153c.74-1.4 2.57-5.11 2.47-7.399-.212-4.593-3.447-7.316-3.447-9.328a18.24 18.24 0 0 1 .63-3.075l-1.97-.436-.406 1.265Z"/><path d="M44.5 80A35.5 35.5 0 1 1 80 44.5 35.542 35.542 0 0 1 44.5 80Zm0-68.647A33.147 33.147 0 1 0 77.647 44.5 33.183 33.183 0 0 0 44.5 11.353Z"/></g><defs><clipPath id="a"><path fill="#fff" transform="translate(9 9)" d="M0 0h71v71H0z"/></clipPath></defs></svg>