<svg width="90" height="90" fill="none" xmlns="http://www.w3.org/2000/svg"><circle cx="45" cy="45" r="45" fill="#005E9C"/><path d="m48.653 79.99 5.176-12.426h-6.147c-3.154 0-4.238-2.268-3.494-4.294L52.89 41.62s.799-1.65-.647-2.463c-1.566-.888-2.391.742-2.391.742L33.925 65.014c-.44.742-1.908 2.592-4.286 1.523-2.378-1.07-1.618-3.565-1.453-3.954l8.34-19.875s.851-1.925-.045-3.351c-.828-1.335-1.834-1.49-2.805-1.52h-4.484L23 52.493l.123-21.81L41.066 10l-5.772 13.81h7.118a3.026 3.026 0 0 1 2.559 1.42c.52.848.647 2.015.087 3.366l-8.92 21.665c-.281.648-.391 1.837.884 2.41a1.716 1.716 0 0 0 2.264-.687l15.581-25.31c1.055-1.733 2.608-2.721 4.475-1.827 2.232 1.076 1.679 3.308 1.43 4.05l-7.927 19.928c-1.643 4.06 1.556 4.74 2.954 4.74h3.692l6.063-14.853.446 22.16L48.653 79.99Z" fill="#fff"/></svg>