<svg xmlns="http://www.w3.org/2000/svg" width="90" height="90" fill="none"><circle cx="45" cy="45" r="45" fill="#C1AD70"/><g fill="#fff" clip-path="url(#a)"><path d="M60.057 17.898a30.745 30.745 0 0 0-8.006-3.087h-.02v8.463a22.807 22.807 0 1 1-14.084 0v-8.468a31.003 31.003 0 1 0 22.11 3.087v.005Z"/><path d="M37.947 14.806v29.587a4.013 4.013 0 0 1-8.025 0V17.91a30.755 30.755 0 0 1 8.025-3.104ZM60.058 17.898v26.495a4.014 4.014 0 0 1-8.027 0V14.806h.02c2.8.651 5.495 1.692 8.007 3.092ZM44.674 14H44.6a3.698 3.698 0 0 0-3.624 3.697v26.696a4.014 4.014 0 0 0 8.027 0V14h-4.328Zm.343 2.452a1.238 1.238 0 1 1-.009 0h.01Z"/></g><defs><clipPath id="a"><path fill="#fff" d="M14 14h62v62H14z"/></clipPath></defs></svg>