<svg width="90" height="90" fill="none" xmlns="http://www.w3.org/2000/svg"><circle cx="45" cy="45" r="45" fill="#32499E"/><g clip-path="url(#a)" fill="#fff"><path d="M74.72 46.368a29.465 29.465 0 0 1-4.718 15.99 29.795 29.795 0 0 1-12.67 10.937 30.074 30.074 0 0 1-16.613 2.423 29.972 29.972 0 0 1-15.305-6.856 29.611 29.611 0 0 1-9.157-13.966 29.41 29.41 0 0 1-.114-16.661 29.603 29.603 0 0 1 8.965-14.089 29.967 29.967 0 0 1 15.21-7.06 10.67 10.67 0 0 1 4.574.294 10.616 10.616 0 0 1 4.02 2.185l1.025 1.018 18.095 17.95-6.926 6.727a1.626 1.626 0 0 1-2.278 0l-9.906-9.834-3.692-3.659a.542.542 0 0 0-.761 0l-5.787 5.753-8.54 8.474a.533.533 0 0 0 0 .755L44.48 60.975a.542.542 0 0 0 .76 0L59.488 46.84a1.626 1.626 0 0 1 1.144-.472h14.09Z"/><path d="M41.791 16.309a9.246 9.246 0 0 1 5.34 0 13.204 13.204 0 0 1 5.117 3.047c.686.638 17.533 17.398 17.533 17.398l6.22-6.01-11.59-11.543s-9.102-9.433-22.62-2.892Z"/></g><defs><clipPath id="a"><path fill="#fff" transform="translate(15 14)" d="M0 0h61v62H0z"/></clipPath></defs></svg>