<svg width="90" height="90" fill="none" xmlns="http://www.w3.org/2000/svg"><circle cx="45" cy="45" r="45" fill="#3277B6"/><g clip-path="url(#a)" fill="#fff"><path d="M45.004 50.997a17.136 17.136 0 0 0-15.06 8.95l15.06 15.061 15.044-15.06a17.11 17.11 0 0 0-15.044-8.951Z"/><path d="M45.004 45.087A23.004 23.004 0 0 1 64.357 55.64l10.651-10.635L45.004 15 15 45.004 25.643 55.64a22.995 22.995 0 0 1 19.361-10.552Zm0-24.411 24.32 24.328-4.684 4.693-19.636-19.653L25.36 49.688l-4.684-4.684 24.328-24.328Z"/></g><defs><clipPath id="a"><path fill="#fff" transform="translate(15 15)" d="M0 0h60v60H0z"/></clipPath></defs></svg>