<svg width="90" height="90" fill="none" xmlns="http://www.w3.org/2000/svg"><circle cx="45" cy="45" r="45" fill="#2B6CA8"/><path d="m55.2 29.44-4.48 2.38v4.48H46.8v4.2h3.92v12.6c0 3.36 1.96 5.74 5.04 5.88 1.4 0 2.8-.28 4.06-.98l1.12-4.34-.14.14c-.98.7-2.24 1.12-3.36 1.12-1.54 0-2.24-.7-2.24-2.52V40.5h4.62v-4.2H55.2v-6.86Zm-27.58 6.58c-2.94 0-5.88.98-8.12 2.94-1.12 1.12-2.1 2.38-2.66 3.92S16 45.96 16 47.5s.28 3.22.84 4.62c.56 1.54 1.54 2.8 2.66 3.92 2.24 1.96 5.18 3.08 8.12 2.94 1.54 0 3.08-.28 4.34-.98 1.26-.7 2.52-1.54 3.5-2.8l.14-.14-2.66-3.22-.14.14c-.7.7-1.54 1.4-2.52 1.82-.98.42-1.96.7-2.94.7s-1.82-.14-2.8-.56c-.84-.42-1.68-.84-2.38-1.54-.7-.7-1.12-1.54-1.54-2.38-.28-.84-.42-1.82-.42-2.8 0-.98.14-1.82.42-2.8.28-.84.84-1.68 1.54-2.38.7-.7 1.4-1.26 2.38-1.54.84-.42 1.82-.56 2.8-.42.98 0 2.1.28 2.94.7.98.42 1.82.98 2.52 1.82l.14.14 2.66-3.08v.14c-.98-1.26-2.1-2.24-3.5-2.8-1.4-.7-2.94-.98-4.48-.98Zm10.64.28h4.48v22.26h-4.48V36.3Zm26.18 0h4.62v22.26h-4.48l-.14-22.26Z" fill="#fff"/><path d="M71.72 32.38c-2.1-2.94-4.76-5.32-7.98-7C60.52 23.7 57.16 23 53.66 23s-7.14.84-10.22 2.52c-3.22 1.68-5.88 4.06-7.98 7l-.28.28h5.32c1.68-1.82 3.64-3.22 6.02-4.2 2.38-.98 4.62-1.54 7.14-1.54 2.52 0 4.9.56 7.14 1.54 2.24.98 4.34 2.38 6.02 4.2H72l-.28-.42Z" fill="#FF0100"/></svg>