<svg width="90" height="90" viewBox="0 0 90 90" fill="none" xmlns="http://www.w3.org/2000/svg">
<circle cx="45" cy="45" r="45" fill="#F5F5F5"/>
<path d="M19.0935 52.4624L76 53.7007L67.9971 59.9888L19.0974 60L19.0935 52.4624Z" fill="#CECECE"/>
<path d="M43.2276 30.9652L45.5881 40.2654L44.851 39.6109L28.4256 59.6467L23.2106 53.9424L42.4866 30.3145L43.2276 30.9652Z" fill="#CECECE"/>
<path d="M46.1606 27.7227L19.1209 60L14 54.002L39.9418 23.0372L46.1606 27.7227Z" fill="#469B50"/>
<path d="M63.5741 51.3877H53.4891L54.3321 50.8597L37.6401 31.021L44.7098 27.5515L64.4132 50.8597L63.5741 51.3877Z" fill="#469B50"/>
<path d="M76 53.7007H65.915L59.5197 46.3081L39.9418 23.0372L49.9013 23L69.6047 46.3081L76 53.7007Z" fill="black"/>
<path d="M76 53.7007H33.2368L39.2831 46.3081H69.6048L76 53.7007Z" fill="black"/>
</svg>
