<svg width="90" height="90" fill="none" xmlns="http://www.w3.org/2000/svg"><circle cx="45" cy="45" r="45" fill="#F5F5F5"/><path d="M31.515 20.06s-.29 0 0 0L20.06 39.78l-3.625 6.09-.435.58L26.73 65.3c-.145-.435-.435-.87-.435-1.015-.435-1.015-.58-2.61-.58-3.77.145-3.625 2.175-7.25 3.19-8.845 2.32-4.06 6.815-11.6 6.815-11.6s4.495-7.685 6.815-11.6c1.015-1.74 3.19-5.075 6.09-7.25 1.015-.87 2.61-1.305 3.625-1.305h6.525c-.29.145-27.26.145-27.26.145Z" fill="url(#a)"/><path d="M70.375 52.395c-.58.87-1.74 1.885-2.9 2.61-3.19 1.595-7.395 1.595-9.28 1.595h-26.68c-1.885 0-5.945-.145-9.28-1.74-1.305-.58-2.32-1.45-2.9-2.61-.435-.58-1.45-2.32-2.755-4.64l2.755 4.64 10.15 17.835h30.74l13.34-23.345c-1.305 2.755-2.465 5.075-3.19 5.655ZM16 46.885c.145.145.435.58.435.87l-.435-.87Z" fill="url(#b)"/><path d="M51.815 20.06c-1.015.145-2.61.58-3.625 1.305-1.305.87-2.32 1.885-3.335 2.9 1.305 1.45 2.32 3.19 2.755 4.06 2.32 4.06 6.815 11.6 6.815 11.6s4.495 7.685 6.815 11.6c1.015 1.74 2.9 5.22 3.19 8.845 0 1.45-.145 2.755-.58 3.77-.145.58-1.45 2.9-2.9 5.51L74 46.74 58.485 20.06h-6.67" fill="url(#c)"/><defs><radialGradient id="a" cx="0" cy="0" r="1" gradientUnits="userSpaceOnUse" gradientTransform="translate(50.034 20.033) scale(43.6833)"><stop stop-color="#FFDF4F"/><stop offset=".137" stop-color="#FFD137"/><stop offset=".322" stop-color="#FFC31A"/><stop offset=".44" stop-color="#FEBE10"/><stop offset=".609" stop-color="#FCBA12"/><stop offset=".754" stop-color="#F5AF15"/><stop offset=".891" stop-color="#ED9F18"/><stop offset=".9" stop-color="#ED9D19"/><stop offset="1" stop-color="#E0861A"/></radialGradient><radialGradient id="b" cx="0" cy="0" r="1" gradientUnits="userSpaceOnUse" gradientTransform="translate(19.09 52.06) scale(44.5647)"><stop stop-color="#FFDF4F"/><stop offset=".137" stop-color="#FFD137"/><stop offset=".322" stop-color="#FFC31A"/><stop offset=".44" stop-color="#FEBE10"/><stop offset=".609" stop-color="#FCBA12"/><stop offset=".754" stop-color="#F5AF15"/><stop offset=".891" stop-color="#ED9F18"/><stop offset=".9" stop-color="#ED9D19"/><stop offset="1" stop-color="#E0861A"/></radialGradient><radialGradient id="c" cx="0" cy="0" r="1" gradientUnits="userSpaceOnUse" gradientTransform="translate(63.747 64.24) scale(44.7028)"><stop stop-color="#FFDF4F"/><stop offset=".137" stop-color="#FFD137"/><stop offset=".322" stop-color="#FFC31A"/><stop offset=".44" stop-color="#FEBE10"/><stop offset=".609" stop-color="#FCBA12"/><stop offset=".754" stop-color="#F5AF15"/><stop offset=".891" stop-color="#ED9F18"/><stop offset=".9" stop-color="#ED9D19"/><stop offset="1" stop-color="#E0861A"/></radialGradient></defs></svg>