<svg width="90" height="90" viewBox="0 0 90 90" fill="none" xmlns="http://www.w3.org/2000/svg">
<circle cx="45" cy="45" r="45" fill="#1D58B0"/>
<path d="M33.6758 21.0163C32.3576 21.5883 31.1127 22.3035 29.9592 23.1259C39.0038 19.1033 50.0439 19.3536 55.9761 21.9995C57.8436 22.8577 59.0885 23.394 59.656 24.431C53.5044 22.7862 50.868 22.4823 45.7232 22.6074C38.3996 22.7326 28.6593 25.6288 24.9426 27.8456L23.2948 29.9016C28.6593 26.7373 38.6559 24.6634 44.2035 24.4846C50.3918 24.3952 55.207 24.9673 59.6196 26.5586C59.3633 27.6849 58.7955 28.2391 57.8436 28.8112C40.1755 25.7361 29.7394 29.3654 20.3104 35.5153L19.6147 37.5535C30.1422 30.3308 43.0316 28.3284 55.4633 30.4917C51.0143 32.0471 45.6865 32.4047 41.2192 33.4236C37.4108 34.2997 35.3786 34.55 30.3071 36.2484C25.1623 37.9289 22.123 39.6632 20.2189 41.88C19.3034 42.917 18.6077 44.1326 18.4429 45.4377C18.3697 46.2066 18.4063 46.9216 18.6626 47.6011C18.864 48.2089 19.3584 48.8169 19.871 49.4247C19.2668 50.4615 18.7359 51.8023 19.6147 53.3757C19.9992 54.1087 21.0062 54.8418 21.9582 55.5389L21.6836 56.3078C21.5554 57.2194 21.4273 58.31 22.0315 59.204C23.0568 60.8488 24.3201 61.9394 26.3158 62.9762C26.627 64.3171 27.0847 65.4077 28.1284 66.3552C30.3436 68.3933 35.2688 72.2908 44.057 72.8986C50.6481 73.3276 55.3535 71.3433 57.1294 70.4672L59.2899 69.3409C55.6098 70.8069 49.4215 71.683 44.35 71.2359C36.9898 70.6281 30.4169 65.8188 29.5931 64.4244C29.8494 64.6032 30.1971 64.7284 30.4901 64.8534C39.1136 69.019 50.2271 71.2716 64.4896 65.4612L65.6614 64.3349C52.6988 68.3576 41.3657 68.2324 29.1903 61.8678C29.3184 61.26 29.5931 60.7236 30.1422 60.3124C33.2548 61.689 36.2574 62.8332 39.8826 63.5483C44.1302 64.3349 48.982 64.5137 52.9551 64.3349C56.9831 64.1561 64.9474 62.1718 68.719 60.1694C69.0669 59.8656 69.2317 59.347 69.5796 59.0073C62.2193 61.689 53.4677 62.9405 48.1949 62.5472C43.0316 62.1539 38.4545 61.5461 32.3943 58.775C33.566 58.31 34.7744 57.9167 35.9828 57.5591C39.9741 58.775 44.0386 59.508 48.8355 59.7225C53.596 59.937 64.7277 58.167 71.74 53.93C71.9597 53.3221 72.1793 52.6606 72.1793 52.6606C72.1793 52.6606 62.4392 57.8631 51.3988 57.8631C46.2358 57.8631 43.0867 57.1301 40.7431 56.558C45.9428 55.6105 52.479 54.8239 59.8392 52.9646C63.556 52.017 68.1515 49.8358 70.2387 48.0301C72.0146 46.4212 73.4062 44.3473 72.93 42.2197C72.8384 41.6476 72.0695 40.3068 71.0992 39.842C72.0146 38.6798 71.923 37.6787 71.795 36.8205C71.7034 36.1591 71.3922 35.426 71.026 34.7825C70.4218 33.9957 69.8541 33.3879 68.6824 32.6906C68.8655 31.7788 68.7373 30.8493 68.3345 30.009C67.4191 28.4536 65.7896 27.1128 62.97 25.6824C62.842 25.1104 62.4941 24.3773 61.8899 23.6443C58.3378 20.1402 52.5341 18.4418 47.6456 18.3524H46.84C41.1276 18.406 36.5321 19.6933 33.6758 21.0163V21.0163ZM61.3955 29.6871C61.835 29.2045 62.4756 28.4715 62.6406 27.8637C63.8672 28.6503 65.2403 29.8123 65.4051 31.0279C64.1235 30.5453 62.732 30.0268 61.3955 29.6871V29.6871ZM62.4756 34.9611C60.4067 34.389 58.5759 33.7098 56.1591 33.2808C57.6422 32.7085 58.6308 32.1185 59.4913 31.4214C61.4322 31.9397 63.2448 32.5835 64.7277 33.2448C64.4714 33.6203 62.9883 34.997 62.5306 34.997C62.5123 34.9792 62.4941 34.9792 62.4756 34.9611V34.9611ZM66.2473 36.4809C66.8149 36.0517 67.3275 35.5691 67.8036 35.0149C68.9754 36.016 69.3232 36.6954 68.7557 37.786C67.9684 37.2139 67.1445 36.9099 66.2473 36.4809V36.4809ZM21.7751 47.2256C18.5711 42.8096 29.6845 39.6454 31.8083 39.0017C37.2094 37.3925 43.5444 36.1948 49.2568 35.4975C53.1932 35.0149 55.2803 35.4618 58.9969 36.445C49.4215 39.0017 39.9741 39.824 30.9845 42.4701C23.7342 44.5618 21.8117 47.2256 21.7751 47.2256V47.2256ZM24.1553 49.353C27.5424 46.4926 34.4265 44.8835 36.9349 44.3294C44.9358 42.5951 52.3876 41.5045 55.4633 40.7358C59.1801 39.824 61.7801 38.9659 63.5925 38.0898C63.684 37.9648 66.6319 39.395 66.9247 39.7347C65.9361 40.557 64.5446 41.2543 63.0249 41.7728C58.4843 43.4176 50.2089 45.1518 45.833 45.8132C41.4206 46.5462 37.7221 47.1004 32.852 48.4055C30.0324 49.1564 28.1284 50.0146 26.7368 50.9264C25.7115 50.3006 25.1074 50.1218 24.1553 49.353V49.353ZM30.4352 52.8215C31.8632 52.2137 33.4195 51.7309 34.9209 51.3555C42.5374 49.4783 49.2568 49.1385 58.521 46.6357C62.97 45.4558 66.2291 44.2042 68.2613 42.6489C68.5543 42.3806 68.8655 42.1661 69.1768 41.9159C71.8681 46.0814 61.7801 49.2816 54.8775 50.7655C51.2708 51.4807 47.6638 52.1599 44.057 52.8036C39.5531 53.5367 38.0884 53.93 34.9576 54.8418C33.4195 54.198 31.8632 53.5545 30.4352 52.8215V52.8215ZM22.3244 51.5164C23.0201 51.9633 23.5328 52.303 24.3567 52.732C24.0454 53.0003 23.6609 53.2505 23.368 53.5545C22.6906 53.1612 21.9949 52.303 22.3244 51.5164ZM25.9313 55.5032C26.3707 55.1099 26.92 54.7344 27.5242 54.3411C28.824 54.9489 30.1606 55.5032 31.4239 56.0752C30.5817 56.3792 29.7761 56.7725 29.0071 57.2553C27.9635 56.6652 26.9382 56.0931 25.9313 55.5032ZM24.7961 57.6127C25.5285 58.0955 26.2609 58.4888 27.0114 58.8643C26.7002 59.2933 26.4805 59.633 26.3707 60.0801C25.2721 59.1861 24.7595 58.4531 24.7961 57.6127Z" fill="white"/>
</svg>
