<svg width="90" height="90" viewBox="0 0 90 90" fill="none" xmlns="http://www.w3.org/2000/svg">
<circle cx="45" cy="45" r="45" fill="#F5F5F5"/>
<path d="M45.0007 18.9852C39.8485 18.9804 34.8106 20.5042 30.5247 23.3636C26.2388 26.2231 22.8974 30.2897 20.9236 35.0488C18.9497 39.8079 18.432 45.0457 19.436 50.0991C20.4399 55.1526 22.9205 59.7947 26.5636 63.4378C30.2068 67.081 34.8489 69.5616 39.9024 70.5656C44.9558 71.5695 50.1936 71.0518 54.9527 69.0779C59.7118 67.104 63.7784 63.7627 66.6379 59.4768C69.4973 55.1909 71.0211 50.153 71.0163 45.0008C71.0163 41.5844 70.3434 38.2014 69.036 35.045C67.7286 31.8887 65.8123 29.0208 63.3965 26.605C60.9807 24.1892 58.1128 22.2729 54.9564 20.9655C51.8001 19.6581 48.4171 18.9852 45.0007 18.9852ZM45.0007 57.8512L32.1744 45.0008L45.0007 32.1745L57.827 45.0008L45.0007 57.8512Z" fill="#ED1C24"/>
</svg>
