<svg width="90" height="90" viewBox="0 0 90 90" fill="none" xmlns="http://www.w3.org/2000/svg">
<circle cx="45" cy="45" r="45" fill="#00247D"/>
<path d="M36.26 46.495C36.26 46.84 36.145 47.07 36.145 47.415C36.145 47.53 36.145 47.645 36.03 47.76H40.745V39.48H37.295L36.26 46.495V46.495ZM53.855 42.355C52.36 42.355 51.325 43.39 51.325 45.115C51.325 46.84 52.475 47.875 53.855 47.875C55.35 47.875 56.385 46.84 56.385 45.115C56.385 43.39 55.35 42.355 53.855 42.355Z" fill="white"/>
<path d="M58.8 22H31.2C26.14 22 22 26.14 22 31.2V68H58.8C63.86 68 68 63.86 68 58.8V31.2C68 26.14 63.86 22 58.8 22ZM46.61 54.2H42.815V51.21H33.5V54.2H29.82V47.645H32.005C32.235 47.3 32.465 46.84 32.58 46.035L34.19 35.685H44.54V47.53H46.725C46.61 47.53 46.61 54.2 46.61 54.2V54.2ZM60.18 51.21H56.385V49.83C55.58 50.75 54.545 51.44 52.935 51.44C49.83 51.44 47.415 48.795 47.415 45.115C47.415 41.32 49.83 38.79 52.935 38.79C54.43 38.79 55.58 39.48 56.385 40.4V39.02H60.065L60.18 51.21Z" fill="white"/>
</svg>
