<svg xmlns="http://www.w3.org/2000/svg" width="90" height="90" fill="none"><circle cx="45" cy="45" r="45" fill="#DB082B"/><path fill="#fff" d="M68.4 24.12h-7.08c-.48 0-.96.36-.96.84L58.2 46.08c-.12.36-1.56 11.28-12.48 11.28H34.68c-.48 0-.96.36-.96.84L33 65.4c0 .24 0 .36.24.48.12.12.24.24.48.24h11.04c19.68 0 21.96-19.44 22.08-20.16L69 24.84c0-.24 0-.36-.12-.48-.12-.24-.24-.24-.48-.24Z"/><path fill="#fff" d="M43.68 43.44h6.72c1.8 0 3.36-1.44 3.6-3.24l.24-2.64c0-.24 0-.36-.24-.48-.12-.12-.24-.24-.48-.24h-9.24C41.04 36.84 36 39 35.4 45c-.72 6 3.96 8.16 7.2 8.16h5.64c1.8 0 3.36-1.44 3.6-3.24l.24-2.52c0-.24 0-.36-.24-.48-.12-.12-.24-.24-.48-.24H43.2c-1.08 0-1.56-1.08-1.44-1.56.24-.48.36-1.68 1.92-1.68Z"/><path fill="#fff" d="M44.16 32.76H55.2c.48 0 .96-.36.96-.84l.72-7.2c0-.24 0-.36-.24-.48-.12 0-.24-.12-.36-.12H45.24c-19.68 0-21.96 19.32-22.08 20.04L21 65.28c0 .24 0 .36.24.48.12.12.24.24.48.24h7.08c.48 0 .96-.36.96-.84l2.28-21.12c-.12-.48 1.2-11.28 12.12-11.28Z"/></svg>