<svg width="90" height="90" fill="none" xmlns="http://www.w3.org/2000/svg"><circle cx="45" cy="45" r="45" fill="#6A2538"/><g clip-path="url(#a)" fill="#fff"><path d="M20 49.783a25.122 25.122 0 0 0 7.962 16.478 25.02 25.02 0 0 0 17.01 6.676 25.02 25.02 0 0 0 17.011-6.676 25.122 25.122 0 0 0 7.962-16.477H20Zm24.98 15.804a17.61 17.61 0 0 1-8.87-2.398 17.657 17.657 0 0 1-6.461-6.542H60.35a17.629 17.629 0 0 1-6.454 6.542 17.58 17.58 0 0 1-8.863 2.398h-.055ZM53.187 22.826V15h-6.862v31.868H70v-.33a25.11 25.11 0 0 0-4.625-14.55 25.026 25.026 0 0 0-12.188-9.162Zm0 17.137v-9.077a17.716 17.716 0 0 1 8.153 9.077h-8.153ZM36.813 15v7.826a25.068 25.068 0 0 0-12.18 9.168A25.15 25.15 0 0 0 20 46.538v.316h23.675V15h-6.862Zm0 24.936h-8.139a17.743 17.743 0 0 1 8.14-9.05v9.05Z"/></g><defs><clipPath id="a"><path fill="#fff" transform="translate(20 15)" d="M0 0h50v58H0z"/></clipPath></defs></svg>