<svg width="90" height="90" fill="none" xmlns="http://www.w3.org/2000/svg"><circle cx="45" cy="45" r="45" fill="#F5F5F5"/><path d="M37.937 64.12H24.021v-5.881h13.885v5.88h.031Zm2.802-8.837H21.25V70h2.77v-2.956h16.657v-11.76h.062ZM24.02 28.836l5.573-5.88v20.597H24.02V28.836ZM21.25 46.478h11.084V20h-4.126l-6.958 7.358v19.12Zm16.687-23.522h5.573v20.597h-5.573V22.956Zm-2.77 23.522H46.25V20H35.166v26.478Zm30.51 0h2.771V20h-4.187v.03l-4.187 4.403V20h-4.187l-6.897 7.358v19.12h2.771V28.836l5.573-5.88v23.522h2.77V28.836l5.573-5.88v23.522Zm-44.427 5.88h47.229v-2.955H21.25v2.955Zm36.114 5.88h8.313v5.882h-8.313v-5.881Zm-2.77 5.882H46.25v-5.881h8.344v5.88Zm2.77 2.924H68.48v-11.76h-24.97v11.76h11.085V70h2.77v-2.956Z" fill="#384249"/></svg>