<svg xmlns="http://www.w3.org/2000/svg" width="210" height="132" fill="none"><g clip-path="url(#a)"><path fill="#455961" d="M7.545 47.126c0 .075.578.905 1.257 1.81.705.906 1.258 1.786 1.258 1.912 0 .15-.88 2.49-1.937 5.206-1.056 2.69-2.565 6.539-3.37 8.55L3.32 68.252l-1.66.076-1.66.075v10.789h5.03v-5.784h18.36v5.784h5.029V68.377H25.15V47h-8.803c-4.828 0-8.802.05-8.802.126Zm11.82 13.58v8.174H14.21c-3.848 0-5.156-.075-5.156-.302 0-.276 4.653-12.273 5.76-14.863l.502-1.182H19.365v8.173ZM79.473 47.126c0 .075.503.83 1.132 1.685.855 1.182 1.131 1.785 1.131 2.465 0 .503.076.98.151 1.056.151.176 15.19-4.779 15.543-5.105.15-.126-3.647-.227-8.853-.227-5.005 0-9.104.05-9.104.126Z"/><path fill="#4EB261" d="M121.222 60.203v12.952H126.755V62.592h4.149l3.496 5.281 3.496 5.282h3.118c2.44 0 3.094-.076 2.943-.327-.126-.151-1.459-2.163-2.968-4.452-1.534-2.288-3.42-5.13-4.2-6.312l-1.433-2.188 3.898-5.86c2.138-3.244 3.974-6.086 4.125-6.338.226-.402.025-.427-2.842-.427h-3.094l-1.861 2.967c-1.031 1.61-2.515 3.924-3.269 5.13l-1.409 2.214h-4.149V47.251H121.222v12.952Z"/><path fill="#455961" d="M40.063 55.45c-.578.2-1.559.83-2.188 1.383l-1.157 1.031v-2.59l-2.188.075-2.213.075-.075 14.512c-.025 7.997.025 14.536.126 14.511.125 0 1.282-.377 2.59-.805l2.39-.804.125-5.483.126-5.458.905.604c1.434.98 3.571 1.484 5.558 1.333 4.577-.377 7.62-3.697 7.922-8.576.277-4.376-1.257-7.57-4.502-9.33-1.182-.654-1.61-.755-3.847-.805-1.786-.05-2.817.05-3.572.327Zm4.1 4.35c.452.277 1.132.906 1.509 1.434.603.78.729 1.232.805 2.741.15 2.641-.705 4.15-2.792 5.03-2.691 1.132-6.363-.629-6.866-3.27-.704-3.772 1.383-6.412 5.055-6.412 1.031 0 1.76.15 2.289.477ZM58.347 55.45c-.88.201-1.71.453-1.81.553-.302.302 1.936 3.722 2.339 3.597 1.081-.277 4.778-.302 5.583-.05 1.157.402 1.936 1.358 1.936 2.414v.805l-1.056-.202c-2.515-.477-5.986-.125-7.746.78-1.006.503-2.264 1.81-2.666 2.741-.754 1.811-.352 4.301 1.006 5.76 1.157 1.282 2.339 1.685 5.08 1.685 2.39 0 2.616-.05 4.326-.906l1.786-.88.629.604c.905.93 2.841 1.333 4.677 1.006l1.51-.252v-3.471h-.856c-.453 0-.956-.15-1.106-.326-.151-.177-.302-2.163-.353-4.703-.075-4.226-.1-4.452-.78-5.835-.804-1.66-2.187-2.792-4.048-3.345-1.585-.478-6.212-.453-8.45.025Zm7.747 10.06c.528.15.578.277.503 1.71-.076 1.484-.101 1.534-1.057 2.062-2.64 1.484-5.432.68-5.432-1.534 0-1.634 1.132-2.364 3.647-2.364.98-.025 2.012.05 2.339.126ZM77.134 55.7c-.1.101-.176 4.075-.176 8.828v8.627h2.34l2.313-.025 3.848-4.779 3.822-4.803v9.607H94.563l-.05-8.752-.075-8.727L92.3 55.6l-2.162-.075-3.874 4.829-3.898 4.828-.125-4.753-.126-4.753-2.39-.076c-1.332-.025-2.49 0-2.59.1ZM99.341 64.352v8.803h6.112c6.941 0 8.249-.227 9.632-1.61 2.113-2.112 1.459-5.86-1.182-6.941-.805-.327-.931-.629-.377-.83.553-.226 1.408-2.264 1.408-3.395 0-2.138-1.207-3.722-3.345-4.427-.955-.327-2.339-.402-6.715-.402h-5.533v8.802Zm10.664-4.627c.427.402.528 1.76.201 2.288-.352.554-1.584.83-3.596.83h-1.987v-3.52h2.49c1.936 0 2.59.1 2.892.402Zm.754 6.664c.73.579.881 1.585.302 2.39-.327.427-.729.478-3.395.553l-3.043.1V65.862h2.741c2.364 0 2.817.076 3.395.528Z"/><path fill="#4EB261" d="M150.546 55.852c-.05.176-.226 1.962-.402 3.974-.554 7.017-1.383 9.255-3.521 9.532l-1.082.15 1.635 2.138c1.811 2.415 2.012 2.49 3.949 1.308 2.012-1.232 3.294-4.401 3.822-9.33.428-4.2.126-3.798 2.742-3.798h2.263v13.58H165.485l-.05-8.877-.076-8.853-7.369-.075c-5.759-.05-7.368 0-7.444.251ZM169.76 64.352v8.803h4.502l3.848-4.804 3.848-4.829.075 4.83.051 4.803h5.03V55.525l-2.188.075-2.214.076-3.747 4.652c-2.037 2.566-3.823 4.678-3.948 4.729-.126.05-.227-1.987-.227-4.703V55.55h-5.03v8.802ZM192.068 55.726c-.1.075-.176 4.05-.176 8.802v8.627h5.282v-6.791H199.362l2.49 3.396 2.489 3.395h2.817c1.559 0 2.842-.05 2.842-.126 0-.075-1.408-2.012-3.144-4.326-1.735-2.314-3.143-4.275-3.143-4.376 0-.075 1.307-1.961 2.892-4.225 1.584-2.238 2.892-4.175 2.892-4.326 0-.125-1.182-.226-2.741-.226h-2.767l-1.836 2.666c-2.842 4.1-2.892 4.175-3.948 4.074l-.905-.075-.076-3.345-.075-3.32h-2.465c-1.358 0-2.54.075-2.616.176Z"/></g><defs><clipPath id="a"><path fill="#fff" d="M0 0h210v132H0z"/></clipPath></defs></svg>