<svg width="90" height="90" fill="none" xmlns="http://www.w3.org/2000/svg"><circle cx="45" cy="45" r="45" fill="#00563F"/><path d="M64.287 56.425c.401.287.86.46 1.434.46.86.057 1.492-.23 1.836-.747.345-.516.517-1.147.517-1.836 0-1.032-.287-1.778-.804-2.065a3.612 3.612 0 0 0-1.893-.517c-.402 0-.746.058-1.033.058v4.647h-.057Zm0-5.221a9.742 9.742 0 0 1 2.008-.23c.86 0 1.836.23 2.984.632 1.147.401 1.721 1.32 1.721 2.696 0 .976-.402 1.722-1.205 2.353-.803.574-1.893.86-3.27.86-.574-.057-.976-.057-1.263-.057h-4.934v-.574h.746c.401 0 .573-.114.573-.344 0-.057.058-.115.058-.23v-7.86c0-.115 0-.172-.058-.23-.057-.23-.229-.344-.573-.344h-.746v-.574h9.754l.057 2.525h-.688v-.574c0-.23-.287-.459-.803-.688-.517-.23-1.206-.402-1.894-.517-.746-.114-1.32-.172-1.664-.172-.23.058-.401.058-.516.115-.115.057-.172.172-.172.344v2.869h-.115Zm-12.164 5.221c.459.345 1.033.517 1.664.517.688-.058 1.205-.23 1.549-.689.401-.401.574-1.033.574-1.779 0-1.549-.804-2.295-2.353-2.295h-1.492v4.246h.058Zm0-4.934h2.065c.46-.057.804-.23 1.09-.517.287-.286.402-.688.402-1.204 0-.345-.057-.689-.23-.976-.172-.287-.401-.516-.688-.631-.287-.172-.688-.23-1.147-.23-.574 0-1.09.173-1.492.46v3.098Zm3.5.344c.86.057 1.664.287 2.295.803.688.46.975 1.148.975 2.009 0 .86-.401 1.549-1.147 2.065-.746.517-1.836.803-3.213.803-.287 0-.517-.057-.689-.057h-5.68v-.574h.746c.401 0 .573-.114.573-.344.058-.057.058-.115.058-.23v-7.86c0-.115 0-.172-.058-.23-.057-.23-.23-.344-.573-.344h-.746v-.574h3.787c.516 0 1.205 0 2.065-.057 1.779 0 2.984.23 3.615.746.631.516.975 1.09.975 1.721 0 .402-.114.803-.401 1.148-.287.344-.631.574-1.09.746-.574.114-1.033.23-1.492.23ZM38.065 56.77h4.074c.287 0 .516-.058.574-.287 0-.058.057-.115.057-.23V48.68c0-.344-.057-.573-.114-.63-.058-.058-.173-.115-.402-.115H40.99c-.286 0-.516.057-.63.172-.115.114-.23.344-.288.745-.057.115-.114.345-.172.689-.23.803-.459 1.664-.688 2.525-.287.86-.517 1.606-.804 2.352-.172.402-.344.803-.516 1.262-.172.402-.287.631-.287.689-.115.287.115.402.46.402Zm-.516-8.894v-.574h9.238v.574h-.804c-.401 0-.573.115-.573.344v7.861c0 .46.172.689.573.689h1.033v3.04h-.746v-.688c0-.344-.287-.631-.918-.86-.631-.288-1.32-.46-2.18-.632a10.33 10.33 0 0 0-2.123-.23c-.574 0-1.263.058-2.066.288-.803.172-1.492.401-2.065.63-.574.288-.861.517-.918.804l-.058.689h-.86l.229-3.041c.631.057 1.262-.46 1.894-1.492a17.567 17.567 0 0 0 1.491-3.615c.402-1.377.574-2.352.631-2.984 0-.287-.057-.459-.172-.573-.114-.115-.401-.172-.803-.172h-.803v-.058Zm32.648-3.098h-14c2.237-11.132-14.058-22.951-21.575-2.008 2.583-24.788 36.493-15.837 35.575 2.008ZM19.245 57.573h14.058c-4.82-25.132 7.746-32.935 19.336-31.271-16.869-4.016-36.033.975-33.394 31.27Z" fill="#fff"/></svg>