<svg xmlns="http://www.w3.org/2000/svg" width="90" height="90" fill="none"><circle cx="45" cy="45" r="45" fill="#F5F5F5"/><path fill="#0D923B" d="M68.993 38.752V21.184H51.291L50.227 24.1H39.765l-1.158-2.957L21 21v17.65l2.797 1.058v10.727L21 51.493V69h17.586l1.234-2.936h10.346L51.291 69h17.702V51.46l-2.92-1.1V39.783l2.92-1.03Zm-8.008-5.462-2.742 1.127v21.405l2.742 1.079v4.247h-4.244l-1.124-2.854H34.438l-1.097 2.854h-4.36V56.92l2.783-1.058V34.35l-2.783-1.011v-4.295h4.401l1.07 2.731h21.316l1.07-2.73h4.113l.034 4.246Z"/></svg>