<svg width="90" height="90" viewBox="0 0 90 90" fill="none" xmlns="http://www.w3.org/2000/svg">
<circle cx="45" cy="45" r="45" fill="#F5F5F5"/>
<g clip-path="url(#clip0_515_410)">
<path d="M37.7285 23.9999H23.2931C23.2161 23.9984 23.1409 24.0243 23.0808 24.0731C23.0206 24.1219 22.9792 24.1906 22.9638 24.2672L21.515 30.2515H35.7199C36.0156 30.2543 36.3068 30.3244 36.5722 30.4567C36.8377 30.5889 37.0704 30.7799 37.2534 31.0156C37.4364 31.2513 37.5649 31.5257 37.6294 31.8184C37.694 32.1112 37.6929 32.415 37.6264 32.7073L35.4631 41.7923H24.1361L22.819 47.6229H34.0735L31.9991 56.4104C31.8897 56.8708 31.6307 57.2803 31.264 57.573C30.8972 57.8658 30.444 58.0247 29.9774 58.0243H14.8308L13 65.5656C12.9877 65.6167 12.9868 65.67 12.9975 65.7215C13.0082 65.773 13.0301 65.8214 13.0617 65.8631C13.0934 65.9048 13.1338 65.9388 13.1801 65.9625C13.2265 65.9861 13.2774 65.999 13.3293 65.9999H30.5174C31.7322 65.9959 32.9108 65.5797 33.8655 64.8173C34.8203 64.055 35.4962 62.9905 35.7858 61.7933L43.201 31.0701C43.403 30.2289 43.414 29.3522 43.2333 28.506C43.0526 27.6599 42.6849 26.8665 42.1578 26.1856C41.6308 25.5047 40.9583 24.9542 40.191 24.5756C39.4237 24.197 38.5817 24.0001 37.7285 23.9999V23.9999Z" fill="#264683"/>
<path d="M53.5567 29.4797H71.3605L76 24H52.9508C51.5744 23.998 50.2372 24.4658 49.1544 25.3282C48.0717 26.1906 47.3062 27.3974 46.9811 28.7547L39.7667 58.8897C39.5638 59.7356 39.5528 60.6171 39.7346 61.4678C39.9163 62.3186 40.286 63.1164 40.8158 63.801C41.3456 64.4857 42.0217 65.0394 42.7931 65.4203C43.5645 65.8012 44.411 65.9994 45.2689 66H45.3677C46.2617 66.0001 47.1432 65.7873 47.9414 65.3787C48.7396 64.9701 49.4321 64.3771 49.9633 63.6475C50.4945 62.9178 50.8496 62.0718 50.9999 61.1776C51.1502 60.2833 51.0916 59.3657 50.8287 58.4986C50.5659 57.6315 50.1062 56.8391 49.4867 56.1852C48.8671 55.5312 48.1049 55.0339 47.2614 54.7333C46.4179 54.4327 45.5167 54.3371 44.6302 54.4543C43.7437 54.5715 42.8966 54.8982 42.1572 55.4081L42.4305 54.2687C42.7554 52.9126 43.5199 51.7066 44.6013 50.8443C45.6827 49.982 47.0183 49.5136 48.3937 49.5141H54.3865L59.0391 44.021H49.6943C48.6074 44.0215 47.54 44.315 46.6016 44.8716C45.6632 45.4282 44.8873 46.2278 44.3535 47.1886L45.0581 44.2482C45.3828 42.8926 46.1468 41.687 47.2276 40.8248C48.3084 39.9626 49.6432 39.4938 51.018 39.4936H62.8719L67.5245 34.0239H52.2297C51.1436 34.0243 50.077 34.3174 49.1392 34.8734C48.2014 35.4294 47.4259 36.2282 46.8922 37.1881L47.5968 34.2477C47.9179 32.8891 48.6806 31.6798 49.7618 30.8148C50.843 29.9498 52.1798 29.4795 53.5567 29.4797V29.4797Z" fill="#264683"/>
</g>
<defs>
<clipPath id="clip0_515_410">
<rect width="63" height="42" fill="white" transform="translate(13 24)"/>
</clipPath>
</defs>
</svg>
