<svg width="90" height="90" fill="none" xmlns="http://www.w3.org/2000/svg"><circle cx="45" cy="45" r="45" fill="#1C27DB"/><path d="M45 15c-16.5 0-30 13.5-30 30.15S28.5 75 45 75s30-13.2 30-30.15c0-7.8-3.15-15.45-8.85-21.15C60.6 18.15 52.95 15 45 15Zm16.65 37.95c-3.15 6.75-10.05 10.8-17.4 10.5-7.05-.3-13.2-4.65-16.05-11.25-2.85-6.3-1.65-13.8 3-19.2.6-.6 1.35-.6 1.65-.15L36 36c.6.6.6 1.05.15 1.65-3.3 3.9-3.45 9.6-.75 13.65 2.7 4.05 7.95 6.15 12.9 4.65 4.8-1.5 8.1-5.85 8.1-11.1 0-2.55-.9-5.4-2.85-7.35-.3-.6-.3-1.35 0-1.65l3.3-3.15c.6-.6 1.35-.6 1.65 0 5.25 5.55 6.3 13.5 3.15 20.25Z" fill="#fff"/></svg>