<svg width="90" height="90" viewBox="0 0 90 90" fill="none" xmlns="http://www.w3.org/2000/svg">
<circle cx="45" cy="45" r="45" fill="#F5F5F5"/>
<path d="M52.02 18.405C50.805 18.27 49.32 18 48.105 18C43.38 18 38.925 19.215 34.605 21.24C30.15 23.4 26.235 26.64 23.13 30.42L29.205 36.765C30.15 35.28 31.23 34.2 32.445 32.985L29.475 30.15C32.04 27.855 34.875 25.83 37.98 24.615C40.815 23.4 44.055 22.59 47.43 22.59C48.51 22.59 49.725 22.59 50.805 22.725C61.47 24.21 68.085 34.335 66.33 45C65.385 51.075 62.01 56.745 57.285 60.93C52.56 64.845 46.62 67.41 40.275 67.41C34.2 67.41 28.125 64.845 24.75 59.985L28.935 56.745C27.99 55.665 27.315 54.45 26.91 52.965L18.54 59.445C20.295 63.225 23.265 66.465 27.045 68.895C30.555 70.92 34.875 72 39.6 72C47.025 72 54.18 68.895 59.985 64.035C65.52 59.175 69.705 52.425 71.055 44.865C72.135 38.25 70.515 31.095 66.06 25.695C62.55 21.915 57.825 19.215 52.02 18.405Z" fill="#8C261E"/>
<path d="M34.74 43.11H59.715C59.715 39.33 58.5 35.82 55.935 33.39C53.64 31.095 50.13 29.61 46.215 29.61C41.895 29.61 37.71 31.365 34.335 34.335C31.095 37.17 28.53 40.95 27.99 45.54C27.855 46.08 27.855 47.025 27.855 47.7C27.855 51.075 28.935 54.045 30.96 56.34C32.985 58.635 35.685 60.255 39.06 60.795C39.735 60.93 40.68 60.93 41.355 60.93C45.27 60.93 49.185 59.445 52.425 57.15C55.665 54.585 57.96 51.345 59.31 47.43H34.065C34.2 49.05 34.74 50.535 35.685 51.75H51.885L51.75 52.02C51.615 52.155 51.615 52.425 51.345 52.425C50.13 53.64 48.645 54.72 47.025 55.53C45.405 56.205 43.785 56.61 42.165 56.61C39.33 56.61 36.63 55.53 34.74 53.505C33.255 51.885 32.58 49.725 32.58 47.43C32.58 46.89 32.58 46.35 32.715 45.675C33.255 42.57 34.875 39.735 37.17 37.71C39.465 35.685 42.57 34.47 45.675 34.47C47.43 34.47 49.05 34.875 50.67 35.685C52.155 36.36 53.235 37.71 53.91 39.06H37.98C36.495 40.005 35.415 41.49 34.74 43.11V43.11Z" fill="#8C261E"/>
</svg>
