<svg width="90" height="90" fill="none" xmlns="http://www.w3.org/2000/svg"><circle cx="45" cy="45" r="45" fill="#264796"/><path fill-rule="evenodd" clip-rule="evenodd" d="M48.399 32.371a6.555 6.555 0 0 0-2.368-2.347c.653 0 1.306 0 1.96.08.163.73.245 1.458.408 2.267 0 0 0-.08 0 0Zm20.088 1.377-.653-.405c-.245-.162-.572-.324-.817-.486.98-.728 2.124-1.457 3.349-1.943-.736.89-1.307 1.862-1.879 2.834Zm-29.152 3.319c2.286-.486 4.246-.648 6.532-.486.164.08.082.243-.081.324-.817.486-4.328 1.052-6.451.162Zm-20.579 12.79c-.653-.971-1.061-2.024-1.388-3.076 0-.243-.081-.405-.081-.648-.082-.566-.082-1.133-.082-1.78 0-.405.082-.73.163-1.053.245-.971.653-1.862 1.143-2.752.164-.243.327-.486.49-.648a21.286 21.286 0 0 1 1.797-2.024 41.392 41.392 0 0 1 1.96-1.619 34.588 34.588 0 0 1 5.39-2.914c.326-.162.652-.243.98-.405 1.714-.648 3.429-1.133 5.225-1.538.735-.162 1.389-.324 2.124-.405-2.858 1.862-2.369 4.29.49 5.748-4.084.648-10.453 3.562-11.188 8.58-3.348.244-6.533 1.215-7.023 4.534Zm27.03 3.238c-2.94-2.024-6.125-3.562-5.798-7.528.327-2.267 2.45-3.077 4.9-3.157 2.613.161 4.41.647 5.96 2.59.082.243.246.405.246.648.735 3.076-2.613 5.828-5.308 7.447Zm14.617.162c-.327-1.943-1.062-4.776-4.001-7.286 3.674-4.938 4.817-7.285 7.92-10.847l.817-.81c.735.405 1.47.81 2.205 1.295-2.695 5.748-4.981 11.658-6.941 17.648Zm-12.25.89c-.489-.161-.979-.404-1.469-.566 2.613-1.781 6.206-4.776 5.471-8.095-.326-1.053-.735-1.862-1.715-2.51 1.307.243 3.92 2.105 5.063 2.915-2.123 2.509-4.654 6.233-7.35 8.257Zm-12.901.81c-.327-.08-.654-.162-.98-.162-4.736-1.133-6.206-3.805-5.635-7.933 3.92.243 11.596 2.833 7.105 7.69l-.409.405h-.081Zm.816 0c2.123-1.457 2.613-3.319 1.47-5.343-1.796-2.671-5.226-3.48-8.492-4.128.571-3.805 4.98-6.881 8.819-8.095 3.021.89 6.206 1.133 9.064-.162.572-.243.572-.648.082-1.053-1.797-.89-6.533-.162-8.656.243h-.082c-.163-.162-.327-.243-.49-.405-1.633-1.538-2.123-3.724-.163-5.18.163-.082.327-.244.571-.325a51.88 51.88 0 0 1 4.982-.485h.245c1.551.405 2.94 1.133 4.001 2.267.817 1.052 1.307 2.185 1.878 3.319.164.08.409.161.572.242a22.679 22.679 0 0 1-1.225-5.666c-.408-.162 3.675.243 4.165.323.571.081 1.224.162 1.796.324 1.715.324 3.512.729 5.226 1.215 1.388.485 2.777.971 4.083 1.619.245.08.49.242.735.323-2.94 2.753-5.634 7.124-8.819 11.415-1.388-1.053-2.94-2.024-4.573-2.753-1.062-.485-2.205-.81-3.43-1.052-4.246-1.052-11.514-.486-10.289 4.938 1.062 3.32 4.247 5.343 7.431 6.962-2.45 1.052-6.043 1.862-8.9 1.457Zm12.984-.486c1.633-1.214 6.696-7.771 7.023-8.095 3.185 2.915 4.165 7.043 3.675 9.876-4.41.162-8.085-.81-10.698-1.78Zm14.209 2.186c1.307-6.88 3.511-13.195 6.124-19.752.572.486 1.062.971 1.634 1.538.408.486.408.486.898 1.052.49.648.49.648.653.972.327.647.654 1.295.899 1.943.326 1.052.49 2.104.408 3.238a12.464 12.464 0 0 1-.408 1.861c-.082.162-.164.405-.245.567-.49 1.053-1.062 1.943-1.797 2.914-.327.324-.572.648-.898.972a17.597 17.597 0 0 1-2.695 2.186c-.98.647-2.041 1.214-3.103 1.78-.898.486-.898.486-1.47.73Zm-27.111 2.51c-1.633-.324-3.185-.729-4.736-1.134-2.042-.647-3.92-1.376-5.798-2.347-.817-.405-1.552-.89-2.287-1.377-.98-.647-1.96-1.376-2.776-2.266-.817-2.267.49-5.343 5.063-5.424-.327 3.4 1.306 6.314 4.491 8.095 4.736 2.348 10.78 1.62 15.352-.566.408-.162.408-.162.327-.162.245.08 1.715.647 1.96.647-2.94 2.267-7.513 4.29-11.596 4.534Zm3.266.485c3.512-.728 6.533-2.347 9.065-4.695 3.184 1.214 7.43 2.186 11.024 1.781l-.49 1.457c-.164.081-.898.243-1.633.405-5.88 1.376-11.841 1.7-17.966 1.052ZM44.234 62c-3.92-.081-7.676-.648-11.432-1.538-.49-.162-.98-.243-1.47-.405-.898-.162-.898-.162-1.47-.243-.49-.08-.49-.08-1.388-.324a41.56 41.56 0 0 1-1.633-.485c-1.062-.405-2.042-.81-3.022-1.376-.245-.162-.408-.243-.653-.405-.653-.405-1.225-.89-1.797-1.376-.408-.405-.816-.81-1.143-1.296-1.061-.89-1.96-1.78-2.776-2.833a3.526 3.526 0 0 0-.49-.567c-.245-.323-.245-.323-.653-1.052-.572-1.052-.899-2.186-1.225-3.319 0-.243-.082-.486-.082-.81V44.433l.082-.647c0-.243.081-.486.081-.729.327-1.457.899-2.671 1.715-3.967.817-1.214 1.797-2.266 2.94-3.319.327-.242.653-.485.98-.81 1.061-.809 2.205-1.456 3.348-2.185a41.446 41.446 0 0 1 4.328-1.943c.572-.162 1.143-.404 1.715-.566.408-.162.816-.243 1.306-.405.654-.162 1.388-.324 2.205-.567 1.633-.405 3.267-.647 4.9-.89.571-.081 1.143-.162 1.715-.162L44.969 28h1.225c1.307 0 2.613.081 3.92.162 2.368.243 4.736.567 7.104 1.052.735.162 1.552.405 2.287.567a52.676 52.676 0 0 1 5.39 1.943c.816.405.816.405 1.388.647 1.143-.89 2.368-1.7 3.674-2.347.817-.405 1.715-.81 2.532-1.215-2.287 5.586-2.287 5.586-2.45 5.991l.98.81a18.587 18.587 0 0 1 1.796 1.78c.49.567.49.567.898 1.134.654.89 1.144 1.862 1.552 2.833.245.729.408 1.457.572 2.186 0 .162 0 .324.081.486 0 .728 0 .728.082.728v.972c-.082.971-.327 1.942-.653 2.833-.327.729-.735 1.457-1.143 2.186-.409.647-.899 1.214-1.389 1.78-.245.243-.49.567-.816.81-.327.243-.572.567-.899.81-.734.647-1.551 1.214-2.368 1.78-.408.243-.898.486-1.306.81a37.634 37.634 0 0 1-4.083 1.943 77.96 77.96 0 0 1-4.002 1.376c-.49.162-.98.243-1.47.405-1.96.486-3.92.81-5.96 1.052-.817.081-1.716.162-2.532.243-.898.081-1.715.081-2.613.081-.735.162-1.633.162-2.532.162Z" fill="#fff"/></svg>