<svg width="90" height="90" fill="none" xmlns="http://www.w3.org/2000/svg"><circle cx="45" cy="45" r="45" fill="#FDA329"/><path fill-rule="evenodd" clip-rule="evenodd" d="M21.654 30.15c-1.243 0-2.485.22-3.654.73v18.196c5.042 2.046 10.742-.439 12.788-5.48 2.045-5.043-.439-10.742-5.48-12.715a12.51 12.51 0 0 0-1.628-.492 9.18 9.18 0 0 0-2.026-.239Zm23.31.073c-5.408 0-9.792 4.384-9.792 9.792 0 5.407 4.384 9.79 9.791 9.79 5.408 0 9.792-4.383 9.792-9.79 0-5.408-4.384-9.792-9.792-9.792ZM18 53.46h54v7.38H18v-7.38Zm51.92-23.174a9.796 9.796 0 0 0-1.646-.136c-1.243 0-2.485.293-3.727.73a9.793 9.793 0 0 0-5.407 12.788 9.793 9.793 0 0 0 12.787 5.408V30.88a8.593 8.593 0 0 0-2.007-.595Z" fill="#fff"/></svg>