<svg width="90" height="90" viewBox="0 0 90 90" fill="none" xmlns="http://www.w3.org/2000/svg">
<circle cx="45" cy="45" r="45" fill="#F5F5F5"/>
<path d="M46.08 27.1L51.82 31.72C52.66 30.6 53.36 29.62 54.2 28.36L48.46 23.74C47.76 25 46.92 26.12 46.08 27.1ZM65.26 36.9C64.56 38.16 63.72 39.28 63.02 40.26L68.76 44.88C69.6 43.76 70.3 42.78 71 41.52L65.26 36.9Z" fill="#B4241C"/>
<path d="M42.86 30.88L48.6 35.5C49.58 34.52 50.42 33.68 51.4 32.42L45.52 27.8C44.82 29.06 43.84 30.04 42.86 30.88V30.88ZM62.32 40.96C61.34 42.08 60.5 43.06 59.52 44.04L65.26 48.66C66.24 47.68 67.08 46.84 68.06 45.58L62.32 40.96Z" fill="#C23F31"/>
<path d="M40.9 32.56C40.2 33.12 39.5 33.54 38.8 34.1L44.68 38.72L44.82 38.58C45.94 37.88 46.92 37.04 48.04 36.2L42.3 31.58C41.74 31.86 41.32 32.28 40.9 32.56V32.56ZM58.96 44.6C58.54 45.02 57.98 45.3 57.56 45.72C56.86 46.28 56.16 46.7 55.46 47.26L61.2 51.88L61.34 51.74C62.46 51.04 63.44 50.2 64.56 49.36L58.96 44.6V44.6Z" fill="#DA8C97"/>
<path d="M34.1801 36.62L40.0601 41.24L43.8401 39.14L38.1001 34.66C36.8401 35.22 35.5801 35.92 34.1801 36.62V36.62ZM54.7601 47.68C53.6401 48.38 52.3801 49.08 50.8401 49.64L56.7201 54.26L60.5001 52.16L54.7601 47.68Z" fill="#EDCDCD"/>
<path d="M29 38.86L34.6 43.34C34.74 43.34 34.88 43.2 35.02 43.2C36.42 42.78 37.68 42.22 39.08 41.52L33.2 37.04C31.94 37.6 30.68 38.3 29 38.86ZM50 50.2C48.6 50.9 47.34 51.46 45.8 52.02L51.4 56.5C51.54 56.5 51.68 56.36 51.82 56.36C53.22 55.94 54.48 55.38 55.88 54.68L50 50.2Z" fill="#DA8D8D"/>
<path d="M26.2 40.12C25.36 40.4 24.52 40.82 23.96 41.24L29.7 45.86C30.96 45.02 32.22 44.32 33.76 43.9L28.16 39.42C27.46 39.56 26.9 39.84 26.2 40.12V40.12ZM44.82 52.44C44.12 52.72 43.56 53 43 53.28C42.16 53.56 41.32 53.98 40.76 54.4L46.5 59.02C47.76 58.18 49.02 57.48 50.56 57.06C50.56 56.92 44.82 52.44 44.82 52.44V52.44Z" fill="#C52E1A"/>
<path d="M20.04 44.46L25.78 49.08C26.76 47.96 27.74 47.12 28.86 46.28L23.12 41.66C22 42.5 20.88 43.48 20.04 44.46V44.46ZM39.92 54.82C38.8 55.66 37.82 56.64 36.84 57.62L42.58 62.24C43.56 61.12 44.54 60.28 45.66 59.44L39.92 54.82V54.82Z" fill="#A6201C"/>
<path d="M17.1 48.52L22.98 53C23.68 51.74 24.52 50.62 25.22 49.64L19.48 45.02C18.64 46.28 17.8 47.4 17.1 48.52V48.52ZM36.28 58.18C35.44 59.3 34.6 60.28 34.04 61.54L39.78 66.02C40.48 64.76 41.32 63.64 42.02 62.66L36.28 58.18V58.18Z" fill="#A01F1C"/>
<path d="M15 53.14L20.74 57.76C20.88 57.06 21.16 56.08 21.58 55.24C21.86 54.68 22.14 54.26 22.42 53.7L16.82 49.36C16.12 50.62 15.56 51.74 15 53.14H15ZM33.48 62.38C32.78 63.64 32.22 64.76 31.66 66.3L37.4 70.92C37.54 70.22 37.82 69.24 38.24 68.4C38.52 67.84 38.8 67.42 39.08 66.86L33.48 62.38V62.38Z" fill="#791D19"/>
<path d="M54.48 33.68C55.32 32.56 56.02 31.58 56.72 30.32L62.46 34.94C61.76 36.2 60.92 37.32 60.22 38.3C60.22 38.16 54.48 33.68 54.48 33.68V33.68Z" fill="#DFAF1F"/>
<path d="M51.26 37.32C52.24 36.34 53.08 35.5 54.06 34.24L59.8 38.86C58.82 39.98 57.98 40.96 57 41.94L51.26 37.32Z" fill="#F0D24F"/>
<path d="M47.2 40.54C48.04 39.98 48.74 39.56 49.3 39C49.72 38.72 50.28 38.3 50.7 37.88L56.44 42.5C55.32 43.48 54.34 44.18 53.22 44.88L53.08 45.02L47.2 40.54Z" fill="#F6DA82"/>
<path d="M42.4399 43.06C43.9799 42.36 45.0999 41.66 46.3599 41.1L52.0999 45.72C50.8399 46.56 49.5799 47.26 48.3199 47.82L42.4399 43.06V43.06Z" fill="#FFF8BE"/>
<path d="M37.4 45.44C38.94 44.74 40.34 44.18 41.6 43.62L47.48 48.24C46.08 48.94 44.82 49.5 43.42 49.92C43.28 49.92 43.14 50.06 43 50.06C43 49.92 37.4 45.44 37.4 45.44Z" fill="#F6DE73"/>
<path d="M32.22 47.68C32.92 47.26 33.76 46.84 34.46 46.56C35.16 46.28 35.86 46 36.28 45.72L41.88 50.2C40.34 50.76 39.08 51.46 37.82 52.16C37.96 52.16 32.22 47.68 32.22 47.68V47.68Z" fill="#E4A922"/>
<path d="M28.3 51.04C29.28 49.92 30.26 49.08 31.38 48.24L37.12 52.86C36 53.7 35.02 54.54 34.04 55.66C34.18 55.52 28.3 51.04 28.3 51.04V51.04Z" fill="#C6972C"/>
<path d="M25.5 54.96C26.2 53.84 27.04 52.58 27.74 51.6L33.48 56.22C32.64 57.2 31.8 58.32 31.24 59.58L25.5 54.96Z" fill="#C48422"/>
<path d="M29.14 64.34L23.4 59.72C23.96 58.32 24.52 57.06 25.08 55.8L30.68 60.28C30.4 60.7 30.12 61.26 29.84 61.82C29.7 62.66 29.28 63.64 29.14 64.34Z" fill="#B86821"/>
<path d="M57.28 29.76C57.98 28.64 58.82 27.38 59.24 25.98L64.98 30.6C64.42 31.86 63.58 33.12 63.16 34.24C63.16 34.1 57.28 29.76 57.28 29.76V29.76Z" fill="#D9A41F"/>
<path d="M59.66 25.14C60.36 23.88 60.78 22.48 61.2 21.08L66.94 25.7C66.52 27.1 65.96 28.5 65.26 29.62L59.66 25.14V25.14Z" fill="#D5931F"/>
</svg>
