<svg width="90" height="90" viewBox="0 0 90 90" fill="none" xmlns="http://www.w3.org/2000/svg">
<circle cx="45" cy="45" r="45" fill="#015289"/>
<path d="M43.2174 24.8586C43.2174 24.8586 46.0399 26.6901 44.173 28.9906C42.3061 31.2911 40.97 31.8396 40.8196 33.3261C40.8196 33.3261 39.5366 31.9813 41.2089 30.0878C42.8811 28.1943 44.4739 27.1768 43.2174 24.8586ZM45.217 28.8224C45.217 28.8224 45.0754 30.3 42.7572 31.698C40.4391 33.096 41.5274 33.6269 41.5009 33.5119C41.4742 33.3967 44.7393 33.1845 45.217 28.8224ZM40.3594 24.0356C40.3594 24.0356 41.5185 23.8321 41.5892 24.3983C41.7574 25.7963 40.1912 26.9466 38.4305 28.4507C36.3159 30.2646 36.5812 30.8574 36.5547 30.9636C36.5281 31.0697 35.1302 29.4859 36.8379 27.8668C36.8467 27.8668 39.802 25.7167 40.3594 24.0356V24.0356ZM39.9968 24.0357L36.0594 27.858C36.0594 27.858 35.7496 24.8143 39.9968 24.0357V24.0357ZM70.3895 63.4357H64.8949C64.7342 63.4231 64.5836 63.3523 64.4713 63.2368C64.3589 63.1211 64.2925 62.9685 64.2844 62.8075V47.0405C64.2844 42.413 63.5589 40.8469 60.8336 40.8469C59.0199 40.8469 56.3566 42.3953 54.118 44.3241V62.8075C54.11 62.9685 54.0435 63.1211 53.9311 63.2368C53.8189 63.3523 53.6683 63.4231 53.5075 63.4357H47.9775C47.8169 63.4231 47.6662 63.3523 47.5539 63.2368C47.4415 63.1211 47.3751 62.9685 47.367 62.8075V36.2636C47.3751 36.1026 47.4415 35.95 47.5539 35.8345C47.6662 35.7189 47.8169 35.6481 47.9775 35.6354H53.0563C53.217 35.6481 53.3676 35.7189 53.4799 35.8345C53.5923 35.95 53.6587 36.1026 53.6667 36.2636V38.918C56.4274 36.5114 59.648 34.8036 62.7714 34.8036C68.2836 34.8036 71 38.0155 71 44.9169V62.8075C70.9901 62.9679 70.9231 63.1195 70.8111 63.2347C70.6991 63.35 70.5495 63.4212 70.3895 63.4357ZM33.9978 24.4868C32.8542 24.2444 31.6893 24.1169 30.5204 24.1063C22.6634 24.1063 21 28.5303 21 33.9984V62.8074C21.0099 62.9679 21.0769 63.1194 21.1889 63.2346C21.3009 63.3499 21.4505 63.4211 21.6105 63.4356H27.0963C27.2579 63.4231 27.4095 63.3528 27.5233 63.2373C27.6372 63.1219 27.7054 62.9692 27.7156 62.8074V40.7494H31.6884C31.85 40.7369 32.0017 40.6665 32.1155 40.5511C32.2293 40.4356 32.2975 40.283 32.3077 40.1212V36.2458C32.2994 36.0834 32.2317 35.9296 32.1176 35.8139C32.0034 35.698 31.8506 35.6282 31.6884 35.6176H27.7245V34.0073C27.7245 30.6362 28.7154 29.5833 31.3079 29.5833C31.7409 29.5867 32.1729 29.6252 32.5997 29.6983C32.7607 29.7025 32.9192 29.6584 33.0548 29.5717C33.1905 29.485 33.297 29.3595 33.3606 29.2116C33.4226 28.955 34.1127 26.4068 34.4401 25.2035C34.4725 25.0501 34.4446 24.8901 34.3623 24.7567C34.2799 24.6232 34.1494 24.5266 33.9978 24.4868V24.4868ZM45.1549 62.8075V36.2635C45.1435 36.0954 45.0778 35.9354 44.9678 35.8078C44.8576 35.6801 44.7091 35.5916 44.5444 35.5556C41.3109 35.1828 38.0451 35.1828 34.8116 35.5556C34.6476 35.5899 34.4994 35.6766 34.3893 35.8027C34.279 35.929 34.213 36.0876 34.2011 36.2546V40.1301C34.2057 40.2881 34.2724 40.438 34.3866 40.5473C34.5009 40.6565 34.6535 40.7164 34.8116 40.714C36.0238 40.6255 37.2449 40.5725 38.4659 40.5547V62.8075C38.476 62.9693 38.5444 63.1219 38.6581 63.2374C38.7719 63.3528 38.9236 63.4231 39.0852 63.4356H44.5798C44.7335 63.4134 44.8746 63.3387 44.9795 63.2242C45.0844 63.1097 45.1463 62.9625 45.1549 62.8075Z" fill="white"/>
</svg>
