<svg xmlns="http://www.w3.org/2000/svg" width="90" height="90" fill="none"><circle cx="45" cy="45" r="45" fill="#F5F5F5"/><path fill="#E92314" d="M68 64.32c-5.175-1.61-13.685-2.645-23.23-2.645-9.315 0-17.595 1.035-22.77 2.53V68h46v-3.68ZM45 42.585c9.315 0 18.055 4.945 23 10.005v-3.795c-5.29-7.59-13.685-12.535-23-12.535s-17.71 4.945-23 12.535v3.795c4.945-5.175 13.34-9.66 23-10.005.115 0 .115 0 0 0Z"/><path fill="#E92314" d="M45 55.235c9.43 0 17.25 2.07 23 4.945v-3.91c-5.75-4.485-13.57-7.245-23-7.475-9.43.345-17.25 3.22-23 7.59v3.795c5.865-2.76 13.57-4.945 23-4.945Z"/><path fill="#000" d="M68 45.46c-5.175-9.66-13.685-15.87-23.23-15.87-9.315 0-17.48 5.98-22.77 15.065V22h46v23.46Z"/></svg>