<svg width="90" height="90" fill="none" xmlns="http://www.w3.org/2000/svg"><circle cx="45" cy="45" r="45" fill="#0D356C"/><path d="M33.676 21.016a20.418 20.418 0 0 0-3.717 2.11c9.045-4.023 20.085-3.772 26.017-1.126 1.868.858 3.113 1.394 3.68 2.431-6.152-1.645-8.788-1.949-13.933-1.823-7.323.125-17.064 3.02-20.78 5.238l-1.648 2.056c5.364-3.165 15.36-5.239 20.908-5.417 6.189-.09 11.004.482 15.417 2.074-.257 1.126-.825 1.68-1.776 2.252-17.669-3.075-28.105.555-37.534 6.704l-.695 2.038c10.527-7.222 23.417-9.224 35.848-7.061-4.449 1.555-9.776 1.913-14.244 2.932-3.808.876-5.84 1.126-10.912 2.824-5.145 1.681-8.184 3.415-10.088 5.632-.916 1.037-1.611 2.253-1.776 3.558-.073.769-.037 1.484.22 2.163.201.608.695 1.216 1.208 1.824-.604 1.037-1.135 2.377-.256 3.95.384.734 1.391 1.467 2.343 2.164l-.274.769c-.129.911-.257 2.002.348 2.896 1.025 1.645 2.288 2.736 4.284 3.772.311 1.341.769 2.432 1.812 3.38 2.216 2.037 7.14 5.935 15.929 6.543 6.591.429 11.296-1.556 13.072-2.432l2.16-1.126c-3.68 1.466-9.867 2.342-14.939 1.895-7.36-.608-13.933-5.417-14.757-6.812.256.18.604.304.897.43 8.624 4.165 19.737 6.418 34 .607l1.171-1.126c-12.962 4.023-24.295 3.897-36.47-2.467.127-.608.402-1.144.951-1.556 3.113 1.377 6.115 2.521 9.74 3.236 4.248.787 9.1.966 13.073.787 4.028-.179 11.992-2.163 15.764-4.166.348-.303.513-.822.86-1.162-7.36 2.682-16.111 3.934-21.384 3.54-5.163-.393-9.74-1-15.8-3.772a42.218 42.218 0 0 1 3.588-1.216c3.991 1.216 8.056 1.949 12.853 2.163 4.76.215 15.892-1.555 22.904-5.792.22-.608.44-1.27.44-1.27s-9.74 5.203-20.781 5.203c-5.163 0-8.312-.733-10.656-1.305 5.2-.947 11.736-1.734 19.096-3.593 3.717-.948 8.313-3.13 10.4-4.935 1.776-1.609 3.167-3.683 2.691-5.81-.092-.572-.86-1.913-1.83-2.378.915-1.162.823-2.163.695-3.021-.092-.662-.403-1.395-.769-2.038-.604-.787-1.172-1.395-2.344-2.092a4.24 4.24 0 0 0-.347-2.682c-.916-1.555-2.545-2.896-5.365-4.326-.128-.573-.476-1.306-1.08-2.039-3.552-3.504-9.356-5.202-14.244-5.291h-.806c-5.712.053-10.308 1.34-13.164 2.663Zm27.72 8.671c.439-.483 1.08-1.216 1.245-1.823 1.226.786 2.6 1.948 2.764 3.164-1.281-.483-2.673-1.001-4.01-1.34Zm1.08 5.274c-2.07-.572-3.9-1.251-6.317-1.68 1.483-.572 2.472-1.162 3.332-1.86 1.941.519 3.754 1.163 5.237 1.824-.257.375-1.74 1.752-2.197 1.752-.019-.018-.037-.018-.055-.036Zm3.771 1.52a9.936 9.936 0 0 0 1.557-1.466c1.171 1.001 1.52 1.68.952 2.771-.788-.572-1.612-.876-2.509-1.305ZM21.775 47.226c-3.204-4.416 7.91-7.58 10.033-8.224 5.401-1.61 11.736-2.807 17.449-3.505 3.936-.482 6.023-.035 9.74.948-9.575 2.557-19.023 3.379-28.012 6.025-7.25 2.092-9.173 4.756-9.21 4.756Zm2.38 2.127c3.387-2.86 10.271-4.47 12.78-5.023 8-1.735 15.453-2.825 18.528-3.594 3.717-.912 6.317-1.77 8.13-2.646.091-.125 3.039 1.305 3.332 1.645-.989.822-2.38 1.52-3.9 2.038-4.54 1.645-12.816 3.379-17.192 4.04-4.412.733-8.11 1.287-12.981 2.593-2.82.75-4.724 1.609-6.115 2.52-1.025-.625-1.63-.804-2.582-1.573Zm6.28 3.468c1.428-.607 2.985-1.09 4.486-1.465 7.616-1.878 14.336-2.217 23.6-4.72 4.449-1.18 7.708-2.432 9.74-3.987.293-.268.605-.483.916-.733 2.691 4.166-7.397 7.366-14.3 8.85a575.813 575.813 0 0 1-10.82 2.038c-4.504.733-5.969 1.126-9.1 2.038-1.538-.644-3.094-1.287-4.522-2.02Zm-8.11-1.305c.695.447 1.208.787 2.032 1.216-.312.268-.696.519-.989.823-.677-.394-1.373-1.252-1.044-2.039Zm3.606 3.987c.44-.393.989-.769 1.593-1.162 1.3.608 2.637 1.162 3.9 1.734-.842.304-1.648.698-2.417 1.18-1.044-.59-2.069-1.162-3.076-1.752Zm-1.135 2.11c.733.483 1.465.876 2.215 1.251-.31.43-.53.769-.64 1.216-1.099-.894-1.611-1.627-1.575-2.467Z" fill="#fff"/></svg>