<svg width="90" height="90" viewBox="0 0 90 90" fill="none" xmlns="http://www.w3.org/2000/svg">
<g clip-path="url(#clip0_2698_5172)">
<circle cx="45" cy="45" r="45" fill="#F5F5F5"/>
<path d="M19 70.5L28.7789 61.2426V33.6009C28.7789 30.2631 31.3866 29.2982 34.7766 29.2982H60.9841L70.1111 19.5193C62.3314 19.4759 44.0084 19.5193 32.9512 19.5193C20.5646 19.5193 19.0435 28.9505 19 33.6009V70.5Z" fill="#005090"/>
<path d="M34.7766 49.6382H39.8616L48.8582 40.3809H34.7766V49.6382Z" fill="#54BD06"/>
<path d="M35.1677 61.2432L25.6496 70.3702C32.5165 70.4571 47.3435 70.3702 57.4636 70.3702C67.1121 70.3702 70.3718 62.8079 70.5021 56.419V40.512H55.2471L46.2505 50.0301H60.8536V56.6798C60.8536 60.0176 57.5505 61.1129 55.899 61.2432H35.1677Z" fill="#54BD06"/>
</g>
<defs>
<clipPath id="clip0_2698_5172">
<rect width="90" height="90" fill="white"/>
</clipPath>
</defs>
</svg>
