<svg width="90" height="90" viewBox="0 0 90 90" fill="none" xmlns="http://www.w3.org/2000/svg">
<circle cx="45" cy="45" r="45" fill="#245CB4"/>
<path d="M62.2121 20.364H33.3316V62.0408H36.5122V49.9813C36.5122 49.9813 41.5944 36.7949 52.4677 31.6797V66.5905H26.6328C25.7554 66.5905 24.914 66.2379 24.2936 65.6103C23.6732 64.9826 23.3246 64.1313 23.3246 63.2437V27.6763C23.3246 27.237 23.4102 26.802 23.5765 26.3961C23.7428 25.9903 23.9866 25.6215 24.2938 25.3111C24.601 25.0006 24.9657 24.7544 25.3671 24.5866C25.7684 24.4188 26.1985 24.3327 26.6328 24.3332H30.0422V20.364H26.2127C24.3993 20.364 22.6601 21.0928 21.3778 22.3902C20.0955 23.6875 19.3751 25.447 19.3751 27.2817V63.7104C19.3751 65.5451 20.0955 67.3046 21.3778 68.6019C22.6601 69.8992 24.3993 70.6281 26.2127 70.6281H62.2196C63.1175 70.6281 64.0067 70.4491 64.8362 70.1015C65.6658 69.7538 66.4196 69.2443 67.0545 68.6019C67.6894 67.9596 68.1931 67.197 68.5367 66.3577C68.8803 65.5184 69.0572 64.6188 69.0572 63.7104V27.2817C69.0572 26.3726 68.8801 25.4724 68.536 24.6327C68.1919 23.7929 67.6876 23.0299 67.0519 22.3875C66.4161 21.745 65.6615 21.2356 64.831 20.8884C64.0006 20.5412 63.1107 20.363 62.2121 20.364V20.364ZM65.1002 63.2437C65.1002 64.1313 64.7516 64.9826 64.1312 65.6103C63.5108 66.2379 62.6694 66.5905 61.792 66.5905H56.541V26.4165C56.541 26.4165 43.8373 29.3156 36.5197 42.2099V24.3332H61.792C62.2263 24.3327 62.6564 24.4188 63.0577 24.5866C63.4591 24.7544 63.8238 25.0006 64.131 25.3111C64.4382 25.6215 64.682 25.9903 64.8483 26.3961C65.0146 26.802 65.1002 27.237 65.1002 27.6763V63.2437Z" fill="white"/>
</svg>
