<svg width="90" height="90" viewBox="0 0 90 90" fill="none" xmlns="http://www.w3.org/2000/svg">
<circle cx="45" cy="45" r="45" fill="#F5F5F5"/>
<g clip-path="url(#clip0_214_3084)">
<path fill-rule="evenodd" clip-rule="evenodd" d="M60.5959 29.1398C58.1036 28.572 55.5542 28.2837 52.9962 28.2805C44.6449 28.2805 37.6298 30.5477 33.5099 34.2044C27.2278 39.6896 23.9894 48.6669 30.6148 55.2308C26.7806 53.974 23.2273 52.0033 20.1478 49.4257C18.835 48.2596 17.7869 46.8336 17.0721 45.2409C16.3574 43.6481 15.992 41.9247 16 40.1833C16.1127 37.0362 17.2152 34.0013 19.1549 31.4984C21.5045 28.5484 24.5672 26.2257 28.063 24.7426C32.5252 22.8898 37.3252 21.9565 42.1674 22C48.5574 21.8634 54.8842 23.2695 60.5959 26.0956V29.1398Z" fill="#C4053F"/>
<path fill-rule="evenodd" clip-rule="evenodd" d="M58.4895 45.449V53.2653C53.3488 50.0291 48.2824 46.7654 43.1324 43.5292C42.0038 42.998 41.0983 42.0962 40.5714 40.9786H54.4902C58.4338 41.0792 58.4338 43.4286 58.5266 45.449" fill="#C4053F"/>
<path fill-rule="evenodd" clip-rule="evenodd" d="M72 47.6613V62.1238C65.3427 64.8267 58.1908 66.1463 50.9919 66C43.3366 66 34.3821 62.4712 25.1215 55.8616H25.0472C31.7561 58.7505 35.6255 59.3538 42.3808 60.0486C51.0754 60.1766 56.0027 58.9333 61.6351 55.5691V40.942H61.8486L72 47.643" fill="#C4053F"/>
</g>
<defs>
<clipPath id="clip0_214_3084">
<rect width="56" height="44" fill="white" transform="translate(16 22)"/>
</clipPath>
</defs>
</svg>
