<svg width="90" height="90" fill="none" xmlns="http://www.w3.org/2000/svg"><g clip-path="url(#a)"><circle cx="45" cy="45" r="45" fill="#F5F5F5"/><path d="M24.004 30.151c3.005 2.812 5.802 5.414 6.759 6.31.583.554 2.018 1.9 3.215 3.006a401.628 401.628 0 0 1 3.29 3.08 60.619 60.619 0 0 0 1.689 1.556c.3.269.553.553.538.658 0 .09-2.063 2.063-4.59 4.366-2.527 2.318-6.46 5.937-8.748 8.045L22 61h10.108l1.197-1.166c.658-.628 2.751-2.632 4.635-4.442 1.9-1.809 4.127-3.962 4.98-4.785.837-.822 1.615-1.51 1.72-1.54.164-.03 6.25 5.638 11.543 10.767L57.38 61h10.468l-.524-.508c-.284-.27-3.813-3.514-7.85-7.193-9.914-9.077-9.555-8.748-9.48-8.792.074-.06 1.704-1.57 4.47-4.157 1.107-1.032 4.068-3.784 6.58-6.101 2.512-2.333 4.8-4.471 5.084-4.74L66.65 29H56.631l-.896.852c-.494.464-3.14 3.036-5.877 5.713l-4.98 4.844-2.945-2.9a1965.41 1965.41 0 0 0-5.787-5.698L33.305 29H22.763l1.24 1.151Z" fill="#1E1E24"/><path fill="#0029FF" d="M70.722 52.395h8.893v8.594h-8.893z"/></g><defs><clipPath id="a"><path fill="#fff" d="M0 0h90v90H0z"/></clipPath></defs></svg>