<svg width="90" height="90" fill="none" xmlns="http://www.w3.org/2000/svg"><circle cx="45" cy="45" r="45" fill="#C8102E"/><path d="M45 20.25c-16.095 0-29 12.325-29 27.695 0 5.22 1.595 10.295 4.495 14.645h13.92c-2.9-2.175-5.075-5.365-6.235-8.845-1.015-3.48-1.015-7.25.145-10.73 1.16-3.48 3.48-6.525 6.38-8.7C37.75 32.14 41.23 30.98 45 30.98c3.625 0 7.25 1.16 10.295 3.335s5.22 5.22 6.38 8.7c1.16 3.48 1.16 7.25.145 10.73-1.015 3.48-3.19 6.67-6.235 8.845h13.92c2.9-4.35 4.35-9.425 4.495-14.645 0-15.37-12.905-27.695-29-27.695Z" fill="#fff"/><path d="M35.575 52.585a8.88 8.88 0 0 0 3.625 4.93C40.94 58.82 42.97 59.4 45 59.4s4.205-.725 5.8-1.885c1.74-1.305 2.9-2.9 3.625-4.93h-18.85Z" fill="#fff"/></svg>