<svg width="90" height="90" fill="none" xmlns="http://www.w3.org/2000/svg"><circle cx="45" cy="45" r="45" fill="#F5F5F5"/><path d="m48.51 18-.135.675s0 .405-.27 1.215v.135c-.27 1.08-.675 2.7-1.35 4.32-.54 1.485-1.35 2.97-2.025 3.78-1.08-1.215-2.025-3.375-2.565-5.4-.27-1.08-.675-2.025-.81-2.835-.135-.675-.27-1.215-.27-1.215V18H36.9v.81c.54 4.725 2.97 10.395 7.155 13.23h1.485c4.185-2.835 6.615-8.505 7.155-13.23V18H48.51Zm22.815 30.78.675.135V53.1l-.81-.135c-4.725-.54-10.395-2.97-13.23-7.155v-1.485c2.835-4.185 8.505-6.615 13.23-7.155l.81-.135v4.185l-.675.135s-.405.135-1.215.27a19.29 19.29 0 0 0-2.835.81c-2.025.675-4.185 1.62-5.4 2.565.81.81 2.295 1.485 3.78 2.025 1.62.675 3.375 1.08 4.455 1.35.81.405 1.215.405 1.215.405Zm-52.65-7.155L18 41.49v-4.185l.81.135c4.725.54 10.395 2.97 13.23 7.155v1.485c-2.835 4.185-8.505 6.615-13.23 7.155L18 53.1v-4.185l.675-.135s.405 0 1.215-.135c.675-.135 1.755-.405 2.835-.675 1.89-.675 4.185-1.62 5.4-2.565-.81-.81-2.295-1.485-3.78-2.025a40.37 40.37 0 0 0-3.915-1.215c-.135 0-.27-.135-.54-.135-.81-.405-1.215-.405-1.215-.405Zm22.41 29.7V72H36.9l.135-.81c.54-4.725 2.97-10.53 7.155-13.23h1.485c4.185 2.835 6.615 8.505 7.155 13.23l.135.81h-4.05l-.135-.675s-.135-.405-.27-1.215a19.29 19.29 0 0 0-.81-2.835c-.675-2.025-1.62-4.185-2.565-5.4-.81.81-1.485 2.295-2.025 3.78-.54 1.35-.945 2.835-1.215 3.915 0 .135-.135.405-.135.54-.54.81-.675 1.215-.675 1.215ZM66.6 28.26l-.54.27s-.405.27-.945.675h-.135c-.945.675-2.43 1.62-3.915 2.295-1.485.675-2.97 1.08-4.05 1.215 0-1.62.945-3.78 1.89-5.67.405-.945.945-1.62 1.215-2.295l.135-.27c.405-.675.675-.945.675-.945l.27-.54-2.97-2.97-.54.675c-2.97 3.78-5.265 9.45-4.32 14.445l.945.945c4.86.945 10.8-1.35 14.445-4.32l.675-.54-2.835-2.97ZM23.535 60.93l-.405.27-2.97-2.97.675-.54c3.645-2.97 9.45-5.265 14.445-4.32l.945.945c.945 4.995-1.35 10.665-4.32 14.445l-.54.675-2.97-2.97.405-.405s.27-.405.675-.945l.135-.27c.405-.675.81-1.35 1.215-2.295.945-1.89 1.89-4.05 1.89-5.67-1.08 0-2.565.54-4.05 1.215-1.485.675-2.97 1.62-3.915 2.16h-.135c-.675.27-1.08.675-1.08.675Zm38.07 5.67-.405-.54s-.27-.405-.675-.945c-.675-.945-1.485-2.43-2.16-4.05-.675-1.485-1.215-2.97-1.215-4.05 1.62 0 3.78.945 5.67 2.025.945.405 1.62.945 2.295 1.215l.27.135c.675.405.945.675.945.675l.54.27 2.97-2.97-.54-.675c-3.78-2.97-9.45-5.265-14.445-4.32l-.945.945c-.945 4.86 1.35 10.8 4.32 14.445l.54.675 2.835-2.835ZM29.07 23.535l-.27-.54 2.835-2.97.54.675c2.97 3.645 5.265 9.45 4.32 14.445l-.945 1.08c-4.86.945-10.665-1.35-14.445-4.32l-.675-.54 2.97-2.97.54.27s.405.27.945.675l.27.135c.675.405 1.35.81 2.295 1.215 1.89.945 4.05 1.89 5.67 2.025 0-1.08-.54-2.565-1.215-4.05-.675-1.485-1.485-2.97-2.16-3.915v-.135c-.405-.675-.675-1.08-.675-1.08Z" fill="#EE151F"/><path d="M44.73 27.855c-1.08-1.08-2.16-3.915-2.565-5.4A26.993 26.993 0 0 1 41.085 18S39.6 25.56 44.73 32.04C49.86 25.56 48.51 18 48.51 18s-.27 2.025-1.08 4.455c-1.08 3.51-2.295 4.995-2.7 5.4 0 0 .135 0 0 0Zm-22.14 19.98c1.485-.405 4.32-1.62 5.4-2.565-.27-.27-1.62-1.485-5.4-2.565C20.16 41.76 18 41.49 18 41.49s7.56-1.485 14.04 3.78C25.56 50.4 18 48.915 18 48.915s2.16-.27 4.59-1.08Zm44.955-5.265c-1.485.405-4.32 1.62-5.4 2.565h.135c.405.27 1.89 1.485 5.4 2.565 2.43.81 4.455 1.08 4.455 1.08s-7.56 1.485-14.04-3.78c6.48-5.265 14.04-3.78 14.04-3.78s-2.16.54-4.59 1.35ZM47.43 67.545c-.405-1.485-1.62-4.32-2.565-5.4-.27.27-1.485 1.62-2.565 5.4-.81 2.43-1.08 4.455-1.08 4.455S39.735 64.44 45 57.96C50.265 64.44 48.78 72 48.78 72s-.54-2.025-1.35-4.455Zm9.45-34.83c0-1.62 1.215-4.32 1.89-5.67 1.215-2.295 2.43-4.05 2.43-4.05s-6.345 4.32-7.29 12.69c8.235-.945 12.555-7.425 12.555-7.425s-1.62 1.215-3.915 2.43c-3.105 1.62-4.995 1.89-5.67 2.025.135 0 0 0 0 0ZM30.825 62.55c.675-1.35 1.89-4.185 1.89-5.67-.27 0-2.295.135-5.67 2.025-2.16 1.08-3.915 2.295-3.915 2.295s4.32-6.345 12.69-7.29c-.945 8.235-7.29 12.69-7.29 12.69s1.08-1.755 2.295-4.05Zm26.46-5.67c1.62 0 4.32 1.215 5.67 2.025 2.295 1.215 3.915 2.43 3.915 2.43s-4.32-6.345-12.69-7.29c.945 8.235 7.29 12.555 7.29 12.555s-1.215-1.755-2.295-3.915c-1.755-3.51-1.89-5.535-1.89-5.805ZM27.45 30.825c1.35.675 4.185 1.89 5.67 2.025v-.135c0-.675-.27-2.565-2.025-5.67-1.08-2.295-2.295-4.05-2.295-4.05s6.345 4.32 7.425 12.69c-8.235-.945-12.69-7.29-12.69-7.29s1.62 1.215 3.915 2.43Z" fill="#CF151C"/></svg>