<svg width="90" height="90" viewBox="0 0 90 90" fill="none" xmlns="http://www.w3.org/2000/svg">
<circle cx="45" cy="45" r="45" fill="#F5F5F5"/>
<g clip-path="url(#clip0_227_334)">
<path d="M45 12C38.4732 12 32.093 13.9354 26.6662 17.5615C21.2394 21.1876 17.0097 26.3415 14.512 32.3714C12.0143 38.4014 11.3608 45.0366 12.6341 51.438C13.9074 57.8394 17.0504 63.7194 21.6655 68.3345C26.2806 72.9497 32.1607 76.0926 38.562 77.3659C44.9634 78.6392 51.5986 77.9857 57.6286 75.488C63.6585 72.9903 68.8124 68.7606 72.4385 63.3338C76.0646 57.907 78 51.5268 78 45C78 36.2479 74.5232 27.8542 68.3345 21.6655C62.1458 15.4768 53.7522 12 45 12V12ZM45 72.3972C39.5814 72.3972 34.2844 70.7904 29.779 67.7799C25.2735 64.7695 21.762 60.4906 19.6883 55.4844C17.6147 50.4783 17.0721 44.9696 18.1293 39.6551C19.1864 34.3405 21.7957 29.4588 25.6273 25.6273C29.4589 21.7957 34.3406 19.1864 39.6551 18.1293C44.9696 17.0721 50.4783 17.6147 55.4845 19.6883C60.4906 21.7619 64.7695 25.2735 67.7799 29.7789C70.7904 34.2844 72.3972 39.5814 72.3972 45C72.3972 52.2662 69.5107 59.2348 64.3727 64.3727C59.2348 69.5107 52.2662 72.3972 45 72.3972Z" fill="#D43630"/>
<path d="M44.0329 27.2744H27.5245V42.7238H37.3712V47.5929H27.5245V62.4088H44.0329V57.5396H32.3937V52.4621H42.5571V37.5379H32.2936V32.3519H44.0329V27.2744Z" fill="#D43630"/>
<path d="M46.3673 27.2744H62.8756V42.7238H53.029V47.5929H62.8756V62.4088H46.3673V57.5396H58.0065V52.4621H47.8431V37.5379H58.1066V32.3519H46.3673V27.2744Z" fill="#D43630"/>
</g>
<defs>
<clipPath id="clip0_227_334">
<rect width="66" height="66" fill="white" transform="translate(12 12)"/>
</clipPath>
</defs>
</svg>
