<svg width="90" height="90" viewBox="0 0 90 90" fill="none" xmlns="http://www.w3.org/2000/svg">
<circle cx="45" cy="45" r="45" fill="#F5F5F5"/>
<path d="M24.5551 24.41L30.5001 30.355C34.4151 26.585 39.6351 24.265 45.1451 24.265C50.6551 24.265 55.8751 26.44 59.7901 30.355L65.7351 24.41C60.2251 19.045 52.6851 16 45.1451 16C37.4601 16 30.0651 19.045 24.5551 24.41Z" fill="#B91C6B"/>
<path d="M38.185 55.295C40.215 56.6 42.68 57.325 45 57.325C48.335 57.325 51.38 56.02 53.845 53.7C56.165 51.38 57.47 48.19 57.47 45C57.47 42.535 56.745 40.07 55.44 38.04C54.135 36.01 52.105 34.415 49.93 33.545C47.755 32.675 45.145 32.385 42.825 32.82C40.505 33.255 38.185 34.415 36.445 36.155C34.705 37.895 33.4 40.07 32.965 42.535C32.53 44.855 32.675 47.465 33.69 49.64C34.56 51.96 36.01 53.845 38.185 55.295V55.295Z" fill="#106E53"/>
<path d="M64.14 52.975C63.125 55.44 61.675 57.905 59.645 59.79C57.76 61.675 55.44 63.125 52.975 64.14C50.51 65.155 47.755 65.735 45.145 65.735C42.535 65.735 39.78 65.155 37.315 64.14C34.85 63.125 32.53 61.675 30.645 59.79C28.76 57.905 27.165 55.44 26.15 52.975C25.135 50.51 24.41 47.755 24.41 45H16C16 52.685 19.19 60.08 24.41 65.445C29.92 70.955 37.315 74 45 74C52.685 74 60.08 70.955 65.59 65.445C71.1 59.935 74 52.685 74 45H65.735C65.88 47.61 65.155 50.51 64.14 52.975V52.975Z" fill="#106E53"/>
</svg>
