<svg width="90" height="90" viewBox="0 0 90 90" fill="none" xmlns="http://www.w3.org/2000/svg">
<circle cx="45" cy="45" r="45" fill="#E77128"/>
<path d="M55.4017 53.6845C55.1672 54.0103 54.9457 54.3554 54.6851 54.6681C52.197 57.6709 48.9337 58.8303 45.1167 58.6674C43.2408 58.5893 41.417 58.2636 39.8473 57.1498C37.6261 55.567 36.382 53.3393 36.2518 50.6687C36.0694 46.9104 36.1149 43.1391 36.0694 39.3742C36.0629 38.8401 36.0694 38.3124 36.0694 37.7459C35.5417 37.6546 35.0468 37.6025 34.5647 37.4853C33.1056 37.1205 32.3501 36.1239 32.3501 34.6193C32.3501 33.6097 32.3501 32.5936 32.3566 31.584C32.3631 30.62 32.6367 30.2813 33.6072 30.3008C37.1507 30.3594 40.6875 30.4701 44.2244 30.5548C44.778 30.5679 45.0321 30.9 45.0776 31.4081C45.1102 31.825 45.1037 32.2483 45.1037 32.6717C45.1167 37.3681 45.1167 42.0643 45.1427 46.7606C45.1427 47.2882 45.234 47.8288 45.3577 48.3434C45.9178 50.6883 48.1716 51.6783 50.4578 50.5449C52.7311 49.4182 53.8905 47.464 54.2813 45.028C54.4181 44.1747 54.4507 43.2954 54.4572 42.4226C54.4767 38.9378 54.4637 35.4465 54.4702 31.9617C54.4702 30.7828 54.7373 30.5288 55.9032 30.5288C58.1243 30.5288 60.3455 30.5223 62.5665 30.5353C63.5762 30.5418 63.7391 30.7177 63.7456 31.7338C63.7586 34.717 63.7391 37.6937 63.7651 40.6769C63.8042 45.5686 63.8628 50.4603 63.9215 55.3521C63.928 55.9708 64.0061 56.5831 63.9996 57.2018C63.9931 57.8728 63.6283 58.2376 62.9443 58.2376C61.2314 58.2376 59.5118 58.2506 57.7987 58.231C56.9844 58.2245 56.3722 57.775 56.1182 57.039C55.8576 56.2574 55.7534 55.4171 55.6101 54.5965C55.558 54.3163 55.6036 54.0233 55.6036 53.7366C55.5385 53.7106 55.4668 53.6976 55.4017 53.6845V53.6845ZM31.9919 54.0363C31.9984 56.7915 29.7903 59.0062 27.022 59.0192C24.2147 59.0387 21.987 56.772 22.0001 53.9125C22.0131 51.2159 24.2472 48.9817 26.9308 48.9817C29.8033 48.9752 31.9854 51.1573 31.9919 54.0363Z" fill="white"/>
</svg>
