<svg xmlns="http://www.w3.org/2000/svg" width="90" height="90" fill="none"><circle cx="45" cy="45" r="45" fill="#F5F5F5"/><path fill="#0D3F74" d="M29.593 17C27.055 17 25 19.034 25 21.545c0 2.514 2.055 4.548 4.593 4.548 2.534 0 4.587-2.034 4.587-4.548 0-2.51-2.053-4.545-4.587-4.545ZM25.487 28.317h8.207v35.352h-8.207V28.317ZM55.42 63.585C64.825 62.935 69 58.592 69 52.406c0-7.676-7.212-9.595-13.718-10.908-6.507-1.313-8.265-2.02-8.265-4.243 0-1.564 1.465-3.18 5.862-3.18 3.75 0 6.683 1.31 9.319 3.635l5.92-4.949c-3.867-3.485-8.556-5.556-14.946-5.556-8.091 0-14.655 3.94-14.655 10.353 0 6.97 5.276 9.041 12.837 10.556 7.738 1.515 9.146 2.526 9.146 4.799 0 2.674-2.286 3.837-7.152 3.837-3.928 0-7.621-1.163-10.494-4.039l-5.92 4.543c2.765 3.508 7.802 5.852 13.71 6.326-1.358.743-2.306 2.103-2.306 3.695 0 1.847 1.264 3.84 3.354 4.001 0 0 .762 0 1.313-.115.551-.113 1.115-.285 1.38-.32.269-.034.246.31.2.689-.048.381-.21 1.193-1.059 2.435-.846 1.24-1.554 1.776-1.335 1.938.313.238 1.482-.012 1.72-.219 2.019-1.761 3.945-4.727 4.109-7.379a5.113 5.113 0 0 0-2.6-4.72Z"/></svg>