<svg width="90" height="90" fill="none" xmlns="http://www.w3.org/2000/svg"><circle cx="45" cy="45" r="45" fill="#768086"/><path d="M55.65 39.45h5.1V58.2h9.15V39.45H75V31.5H55.65v7.95ZM21.45 50.1H15v8.1h9.15c.45 0 .9 0 1.2-.15 1.35-.15 2.55-.9 3.6-1.95.9-1.05 1.5-2.4 1.5-3.75V31.5h-9v18.6Zm33-1.5c0-.75 0-1.35-.15-2.1h-2.85c0 .6.15 1.2.15 1.95s-.15 1.2-.15 1.8l-10.5-8.85C39.6 40.2 39 39.45 39 37.65c0-3.6 2.25-3.6 5.1-3.6 3.9 0 4.5.75 4.5 4.05v1.5h3v-1.5c0-5.7-2.7-6.75-7.5-6.75-5.25 0-8.1 1.05-8.1 6.3 0 3 .6 3.75 2.4 5.25-3.3.9-5.4.9-5.4 7.35 0 8.4 4.2 8.25 10.2 8.25 4.35 0 8.4 0 9.9-3.45l3.9 3.3 1.65-2.1-4.65-3.9c.45-1.2.6-2.55.45-3.75ZM43.5 55.65c-6.3 0-7.05-.45-7.05-5.7 0-4.35.45-4.65 4.35-5.7l10.5 8.7c-.9 3.15-4.95 2.7-7.8 2.7Z" fill="#fff"/></svg>