<svg width="90" height="90" viewBox="0 0 90 90" fill="none" xmlns="http://www.w3.org/2000/svg">
<circle cx="45" cy="45" r="45" fill="#991E66"/>
<g clip-path="url(#clip0_613_289)">
<path fill-rule="evenodd" clip-rule="evenodd" d="M47.3848 38.4841C45.6382 37.1622 43.4779 36.4706 41.2695 36.5261C35.8453 36.5261 31.4473 41.1312 31.4473 46.7597C31.4473 52.3881 35.8453 56.9932 41.2695 56.9932C43.4774 57.0606 45.6402 56.373 47.3848 55.0488V56.6248H52.6555V36.9082H47.3848V38.4841ZM42.0584 52.2994C40.761 52.2602 39.5173 51.7839 38.5382 50.9511C37.5591 50.1183 36.9047 48.9803 36.686 47.7299C36.4672 46.4796 36.6975 45.1937 37.3379 44.0904C37.9783 42.987 38.9893 42.1339 40.1997 41.6757C41.4101 41.2175 42.7453 41.1823 43.9792 41.5762C45.213 41.97 46.2696 42.7687 46.9698 43.8368C47.6701 44.9049 47.9709 46.1767 47.8213 47.4368C47.6718 48.6969 47.081 49.8677 46.1492 50.7507C45.608 51.2631 44.967 51.6642 44.2644 51.9302C43.5617 52.1962 42.8116 52.3218 42.0584 52.2994V52.2994ZM73.7171 56.6726H78.9947V40.8106H73.7171V56.6726ZM72.67 35.7211C72.6654 34.799 73.0264 33.911 73.6771 33.2432C74.3278 32.5755 75.2178 32.1799 76.1604 32.1394C75.5873 31.957 74.9899 31.8581 74.3873 31.846C67.9019 31.7846 63.5807 37.7883 63.5807 45.1905V56.6726H58.3101V36.8877H63.5598V39.2073C65.7239 32.9512 70.5408 30.9113 74.4012 30.9796C77.6963 31.0478 79.986 32.958 79.986 35.7006C79.986 40.4763 72.656 40.4763 72.656 35.7006L72.67 35.7211ZM31.9778 36.9082L21.0805 46.8006L31.9359 56.6589H24.5291L16.2776 49.4681V56.6657H11.007V31.2115H16.2776V44.5833L24.5361 36.9082H31.9778Z" fill="white"/>
<path fill-rule="evenodd" clip-rule="evenodd" d="M21.7298 33.2105H23.0074V32.6442H21.7298V31.7914H23.126V31.2252H21.0736V34.6841H23.1679V34.1179H21.7019V33.2241L21.7298 33.2105ZM25.716 34.152C26.0051 34.152 26.2866 34.0611 26.5188 33.8927L26.7561 34.3498C26.4447 34.6173 26.0394 34.7566 25.6252 34.7387C25.1392 34.7387 24.6731 34.55 24.3294 34.2142C23.9858 33.8783 23.7927 33.4228 23.7927 32.9478C23.7927 32.4729 23.9858 32.0173 24.3294 31.6815C24.6731 31.3456 25.1392 31.157 25.6252 31.157C26.0161 31.1415 26.399 31.2678 26.7003 31.5117L26.428 31.962C26.1939 31.7996 25.9122 31.7158 25.6252 31.7232C25.4659 31.7225 25.3082 31.7544 25.1623 31.817C25.0164 31.8796 24.8856 31.9714 24.7784 32.0865C24.6711 32.2016 24.5898 32.3375 24.5396 32.4853C24.4895 32.6331 24.4717 32.7895 24.4873 32.9444C24.4772 33.105 24.502 33.2658 24.5601 33.4164C24.6181 33.5669 24.7082 33.7037 24.8242 33.8178C24.9403 33.9318 25.0798 34.0206 25.2335 34.0782C25.3872 34.1358 25.5516 34.1609 25.716 34.152V34.152ZM28.1104 31.9211C27.9499 34.0087 27.5869 34.1247 27.3216 34.0906V34.6909C28.0197 34.7865 28.4734 34.459 28.6829 32.46L28.7667 31.7778H29.8138V34.6705H30.3862V31.2115H28.1453L28.0965 31.8938L28.1104 31.9211ZM32.0756 33.6949V31.2115H31.4543V34.6705H31.9779L33.8348 32.2144V34.6705H34.4282V31.2115H33.9047L32.0477 33.6949H32.0756ZM38.917 31.157C38.6739 31.1474 38.4313 31.1871 38.2046 31.2734C37.9779 31.3598 37.7719 31.491 37.5995 31.6588C37.4271 31.8266 37.2921 32.0274 37.2029 32.2487C37.1136 32.4699 37.0721 32.7068 37.081 32.9444C37.0699 33.1823 37.11 33.4198 37.1985 33.6416C37.287 33.8635 37.4221 34.0648 37.5951 34.2325C37.768 34.4002 37.975 34.5307 38.2027 34.6156C38.4304 34.7004 38.6737 34.7377 38.917 34.725C39.3835 34.6969 39.8214 34.496 40.1415 34.1632C40.4616 33.8305 40.6398 33.3909 40.6398 32.9342C40.6398 32.4775 40.4616 32.0379 40.1415 31.7052C39.8214 31.3724 39.3835 31.1715 38.917 31.1433V31.157ZM38.917 34.152C38.667 34.1643 38.4189 34.1029 38.205 33.9758C37.9911 33.8487 37.8212 33.6617 37.7173 33.4391C37.6134 33.2165 37.5804 32.9685 37.6224 32.7273C37.6644 32.4861 37.7796 32.2628 37.953 32.0864C38.1264 31.9099 38.3501 31.7884 38.595 31.7377C38.8399 31.6869 39.0947 31.7092 39.3265 31.8017C39.5583 31.8942 39.7563 32.0525 39.8949 32.2563C40.0335 32.46 40.1062 32.6998 40.1038 32.9444C40.1156 33.1019 40.0934 33.2601 40.0386 33.4086C39.9838 33.5572 39.8977 33.6928 39.7858 33.8067C39.6738 33.9206 39.5386 34.0102 39.389 34.0696C39.2393 34.1291 39.0785 34.1572 38.917 34.152ZM42.6588 32.5214C42.5 32.5224 42.3414 32.5338 42.1841 32.5555V31.7914H43.6292V31.2252H41.5349V34.6841H42.4564C43.329 34.6841 43.8177 34.2748 43.8177 33.5584C43.8185 33.4143 43.7882 33.2717 43.7287 33.1399C43.6692 33.008 43.582 32.8899 43.4726 32.7933C43.3632 32.6967 43.2341 32.6238 43.0939 32.5793C42.9537 32.5348 42.8054 32.5197 42.6588 32.5351V32.5214ZM42.575 34.1247H42.1841V33.1559C42.3258 33.1455 42.4682 33.1455 42.6099 33.1559C43.0428 33.1559 43.2312 33.3742 43.2312 33.6676C43.2312 33.961 43.0358 34.1861 42.575 34.1861V34.1247ZM46.1493 33.2309L44.9625 31.1842H44.2016L45.8072 33.8109L45.3744 34.6568H46.0306L47.7968 31.1842H47.1476L46.1353 33.2309H46.1493ZM50.0237 32.8489C50.1832 32.787 50.3192 32.6783 50.413 32.5378C50.5067 32.3974 50.5537 32.2319 50.5473 32.0643C50.5473 31.5868 50.2332 31.2047 49.3815 31.2047C49.0324 31.2047 48.5647 31.2047 48.3623 31.2047V34.65H49.3536C50.1005 34.65 50.666 34.3225 50.666 33.6267C50.6778 33.439 50.619 33.2536 50.5007 33.1054C50.3825 32.9571 50.2128 32.8562 50.0237 32.8216V32.8489ZM48.9766 31.7778H49.3745C49.7026 31.7778 49.926 31.9279 49.926 32.2144C49.9276 32.2797 49.9147 32.3445 49.8882 32.4044C49.8617 32.4643 49.8221 32.5178 49.7723 32.5613C49.7225 32.6047 49.6637 32.6371 49.5998 32.6562C49.5359 32.6752 49.4686 32.6805 49.4024 32.6715H48.9836V31.7914L48.9766 31.7778ZM49.3885 34.1247H48.9766V33.1559H49.4164C49.8143 33.1559 50.0377 33.306 50.0377 33.5926C50.0377 33.8791 49.8003 34.0974 49.3745 34.0974L49.3885 34.1247ZM52.5858 32.3713C52.4509 32.3645 52.3157 32.3645 52.1809 32.3713V31.2115H51.5526V34.6705H52.4391C53.3816 34.6705 53.9052 34.2134 53.9052 33.4834C53.9052 32.7534 53.4863 32.3713 52.5788 32.3713H52.5858ZM52.5229 34.1179H52.1809V32.9444H52.5369C52.9697 32.9444 53.235 33.1218 53.235 33.5107C53.235 33.8995 52.9418 34.1179 52.488 34.1179H52.5229ZM54.7568 33.9951C54.706 33.9901 54.6547 33.9959 54.6064 34.0121C54.5581 34.0282 54.5139 34.0543 54.4769 34.0886C54.4398 34.1229 54.4107 34.1646 54.3915 34.2108C54.3724 34.2571 54.3637 34.3068 54.3659 34.3567C54.3581 34.4317 54.3808 34.5067 54.4291 34.5654C54.4775 34.6241 54.5476 34.6619 54.6242 34.6705C54.648 34.6743 54.6725 34.6726 54.6955 34.6655C54.7186 34.6584 54.7396 34.6461 54.7568 34.6295C54.7694 34.7101 54.7521 34.7924 54.708 34.8615C54.677 34.9225 54.6339 34.9769 54.5811 35.0214C54.5284 35.0659 54.4671 35.0997 54.4008 35.1208L54.5544 35.3868C54.7436 35.3401 54.9107 35.2312 55.0276 35.0784C55.1445 34.9257 55.2042 34.7383 55.1966 34.5477C55.1966 34.227 55.0151 33.9951 54.7429 33.9951H54.7568ZM56.7255 31.7778H57.8703V34.6705H58.4917V31.7914H59.6575V31.2252H56.7115V31.7914L56.7255 31.7778ZM61.675 31.157C61.4315 31.1485 61.1888 31.1888 60.9619 31.2754C60.7349 31.362 60.5284 31.493 60.3552 31.6604C60.1819 31.8278 60.0455 32.0281 59.9543 32.2489C59.8632 32.4697 59.8192 32.7064 59.825 32.9444C59.8151 33.1814 59.8557 33.4179 59.9442 33.6387C60.0327 33.8596 60.1672 34.0601 60.3391 34.2275C60.5111 34.3949 60.7168 34.5256 60.9431 34.6112C61.1695 34.6969 61.4116 34.7356 61.654 34.725C62.1205 34.6969 62.5584 34.496 62.8786 34.1632C63.1987 33.8305 63.3769 33.3909 63.3769 32.9342C63.3769 32.4775 63.1987 32.0379 62.8786 31.7052C62.5584 31.3724 62.1205 31.1715 61.654 31.1433L61.675 31.157ZM61.675 34.152C61.4248 34.1656 61.1761 34.1055 60.9613 33.9792C60.7465 33.853 60.5755 33.6666 60.4705 33.4442C60.3656 33.2218 60.3314 32.9736 60.3726 32.732C60.4138 32.4904 60.5284 32.2665 60.7015 32.0894C60.8745 31.9122 61.0981 31.79 61.3432 31.7386C61.5882 31.6873 61.8434 31.7091 62.0756 31.8013C62.3078 31.8935 62.5063 32.0518 62.6452 32.2557C62.7842 32.4595 62.8572 32.6995 62.8548 32.9444C62.8666 33.1019 62.8444 33.2601 62.7896 33.4086C62.7348 33.5572 62.6487 33.6928 62.5368 33.8067C62.4248 33.9206 62.2896 34.0102 62.14 34.0696C61.9903 34.1291 61.8295 34.1572 61.668 34.152H61.675Z" fill="white"/>
</g>
<defs>
<clipPath id="clip0_613_289">
<rect width="69" height="26" fill="white" transform="translate(11 31)"/>
</clipPath>
</defs>
</svg>
