<svg width="90" height="90" fill="none" xmlns="http://www.w3.org/2000/svg"><circle cx="45" cy="45" r="45" fill="#4B66A9"/><path d="M25.765 20v3.71h36.681c3.138 0 3.27 3.222 3.27 3.222H67V20H25.765Z" fill="#fff"/><path d="M61.95 33.26h1.285v-6.93H22v3.709h36.68c3.139 0 3.27 3.22 3.27 3.22Z" fill="#fff"/><path d="M49.24 34.755c1.279-1.102 2.51-.875 2.51-.875v-1.45H41.047l.018 1.598c.785-.03 1.92.183 2.123 1.014.202.831-.574 1.38-.574 1.38l-16.85 14.793v-15.34c0-1.904 1.932-1.537 1.932-1.537V32.43H22V70h3.765V55.93L32.99 70h2.194l-8.108-15.82 1.706-1.502L37.388 70h7.74L33.936 48.26S47.96 35.85 49.24 34.754Z" fill="#fff"/><path d="M63.004 47.535C61.286 45.63 59.848 45 56.32 45H39.887l-4.123 3.629h14.715s4.455-.237 6.033 5.663c0 0-2.367-2.83-5.708-2.83H37.149l1.996 3.648H44.5s4.997-.239 5.737 5.331C50.977 66.011 46.85 70 46.85 70h1.393s4.22-3.713 3.502-9.9c-.72-6.188-4.801-6.236-4.801-6.236v-.618h2.877s4.04-.286 4.92 6.901C55.62 67.335 50.617 70 50.617 70h4.688l2.6-2.333s3.944-1.332 6.128-4.19c2.183-2.856 2.035-6.471 1.942-8.367-.094-1.895-1.254-5.67-2.971-7.575ZM58.13 66.1c1.67-5.092.18-9.191.18-9.191-.465-9.042-7.242-10.088-7.242-10.088v-.43h4.503c1.485 0 5.895 2.39 5.802 10.477-.093 8.089-3.243 9.227-3.243 9.227v.005Z" fill="#fff"/></svg>