<?xml version="1.0" standalone="no"?>
<!DOCTYPE svg PUBLIC "-//W3C//DTD SVG 20010904//EN"
 "http://www.w3.org/TR/2001/REC-SVG-20010904/DTD/svg10.dtd">
<svg version="1.0" xmlns="http://www.w3.org/2000/svg"
 width="250.000000pt" height="120.000000pt" viewBox="0 0 250.000000 120.000000"
 preserveAspectRatio="xMidYMid meet">

<g transform="translate(0.000000,120.000000) scale(0.100000,-0.100000)"
fill="#000000" stroke="none">
<path d="M448 872 c4 -49 35 -97 56 -85 6 3 7 2 3 -2 -4 -5 36 -53 90 -107
l98 -98 72 72 c40 39 70 74 68 77 -7 12 114 12 135 1 32 -17 60 -70 60 -113 0
-35 -9 -47 -97 -138 -53 -54 -100 -99 -106 -99 -5 0 -29 20 -54 45 -25 24 -50
42 -56 38 -6 -3 -8 -2 -4 3 3 5 -1 18 -9 29 -14 18 -21 13 -137 -103 l-122
-123 55 3 c43 2 54 6 52 18 -2 8 0 12 4 8 4 -5 36 20 71 53 l64 62 38 -37 c20
-20 41 -33 46 -29 4 5 5 3 2 -3 -3 -6 7 -24 24 -40 l29 -28 115 114 c64 63
124 133 135 156 59 121 -30 264 -166 264 -73 0 -101 -13 -166 -78 l-58 -56
-28 27 c-16 15 -32 24 -37 20 -4 -5 -5 -3 -2 3 8 14 -36 57 -48 47 -4 -5 -5
-3 -2 3 3 6 -24 40 -61 77 l-67 67 3 -48z"/>
<path d="M1252 748 c8 -13 31 -51 52 -85 l37 -62 -51 -81 c-27 -45 -50 -83
-50 -86 0 -2 12 -4 28 -4 23 0 32 9 60 60 18 33 37 62 41 64 4 3 24 -24 44
-60 33 -56 41 -64 67 -64 l29 0 -49 80 c-28 44 -50 85 -50 91 0 7 20 45 45 85
25 39 45 74 45 78 0 3 -11 6 -24 6 -19 0 -33 -13 -61 -60 -20 -33 -40 -60 -44
-60 -4 0 -22 27 -41 60 -29 52 -38 60 -63 60 -28 0 -29 -1 -15 -22z"/>
<path d="M1560 600 l0 -170 26 0 26 0 -4 130 c-2 72 -1 130 2 130 3 0 27 -58
54 -130 36 -98 53 -130 66 -130 12 0 29 33 66 130 27 72 51 130 54 130 3 0 3
-58 1 -130 l-3 -130 26 0 26 0 0 170 0 170 -33 0 -34 0 -48 -130 c-27 -71 -52
-130 -55 -130 -3 0 -28 59 -55 130 l-48 130 -34 0 -33 0 0 -170z"/>
<path d="M1980 600 l0 -170 70 0 c112 0 170 36 170 105 0 63 -58 105 -145 105
l-45 0 0 40 0 40 80 0 c79 0 80 0 80 25 l0 25 -105 0 -105 0 0 -170z m174 -26
c9 -8 16 -26 16 -39 0 -39 -25 -55 -86 -55 l-54 0 0 55 0 55 54 0 c36 0 60 -5
70 -16z"/>
<path d="M439 431 l-164 -160 50 0 50 -1 133 133 c72 72 134 135 137 138 3 3
-6 16 -19 28 l-23 22 -164 -160z"/>
</g>
</svg>
