<svg width="90" height="90" fill="none" xmlns="http://www.w3.org/2000/svg"><circle cx="45" cy="45" r="45" fill="#F5F5F5"/><path d="M68 22H22v46h46V22Z" fill="#335497"/><path d="M65.447 24.748H24.852v41.147h40.595V24.748Z" fill="#F5F5F5"/><path d="M25.634 25.75h39.02v39.1h-39.02v-39.1Z" fill="#335497"/><path d="M26.841 33.994h3.255v-6.302h32.73v35.535H30.037v-1.886h-3.254l.058-27.347Z" fill="#F5F5F5"/><path d="M28.405 35.455h12.72c-4.13 4.071-8.2 8.13-12.26 12.19 4.06 4.175 8.13 8.35 12.26 12.512h-12.72V35.455Z" fill="#335497"/><path d="M43.781 35.374h2.61c-4.277 4.06-8.578 8.165-12.833 12.26 4.255 4.209 8.556 8.417 12.834 12.65h-2.61c-4.31-4.21-8.591-8.426-12.846-12.65 4.29-4.095 8.533-8.2 12.845-12.26Zm3.945 5.118h13.317v19.723H47.726v-.219c.29.018.583.018.874 0 6.175.035 11.235-3.645 11.235-8.245s-5.06-8.338-11.235-8.338h-.874v-2.92Z" fill="#335497"/><path d="M48.542 46.127c1.783 0 3.197 2.68 3.197 6.015 0 3.335-1.414 5.991-3.197 5.991-1.782 0-3.22-2.725-3.22-6.026 0-3.3 1.403-5.991 3.22-5.98Z" fill="#B4966A"/><path d="M47.875 46.07c1.771 0 3.197 2.68 3.197 6.014 0 3.335-1.426 5.992-3.197 5.992-1.77 0-3.22-2.726-3.22-6.026s1.438-6.05 3.22-5.98Z" fill="url(#a)"/><defs><linearGradient id="a" x1="42.551" y1="44.46" x2="53.211" y2="59.686" gradientUnits="userSpaceOnUse"><stop stop-color="#B4966A"/><stop offset=".5" stop-color="#FEF0C7"/><stop offset="1" stop-color="#B4966A"/></linearGradient></defs></svg>