<svg width="90" height="90" viewBox="0 0 90 90" fill="none" xmlns="http://www.w3.org/2000/svg">
<circle cx="45" cy="45" r="45" fill="#F5F5F5"/>
<path d="M68 22H22V68H68V22Z" fill="#335497"/>
<path d="M65.447 24.7484H24.8521V65.8954H65.447V24.7484Z" fill="#F5F5F5"/>
<path d="M25.6343 25.7491H64.6538V64.8491H25.6343V25.7491Z" fill="#335497"/>
<path d="M26.8415 33.9943H30.096V27.6923H62.8251V63.2273H30.0385V61.3413H26.7841L26.8415 33.9943Z" fill="#F5F5F5"/>
<path d="M28.4053 35.4552H41.1243C36.9958 39.5262 32.9248 43.5857 28.8653 47.6452C32.9248 51.8197 36.9958 55.9942 41.1243 60.1572H28.4053V35.4552V35.4552Z" fill="#335497"/>
<path d="M43.7813 35.3745H46.3918C42.1138 39.434 37.8128 43.5395 33.5578 47.6335C37.8128 51.8425 42.1138 56.0515 46.3918 60.2835H43.7813C39.4726 56.0745 35.1908 51.8578 30.9358 47.6335C35.2253 43.5395 39.4688 39.434 43.7813 35.3745V35.3745ZM47.7257 40.4922H61.0427V60.2147H47.7257V59.9962C48.0166 60.0144 48.3086 60.0144 48.5997 59.9962C54.7752 60.0307 59.8352 56.3507 59.8352 51.7507C59.8352 47.1507 54.7752 43.4132 48.5997 43.4132H47.7257V40.4922V40.4922Z" fill="#335497"/>
<path d="M48.5421 46.1273C50.3246 46.1273 51.7391 48.8068 51.7391 52.1418C51.7391 55.4768 50.3246 58.1333 48.5421 58.1333C46.7596 58.1333 45.3221 55.4078 45.3221 52.1073C45.3221 48.8068 46.7251 46.1158 48.5421 46.1273V46.1273Z" fill="#B4966A"/>
<path d="M47.8752 46.0696C49.6462 46.0696 51.0722 48.7491 51.0722 52.0841C51.0722 55.4191 49.6462 58.0756 47.8752 58.0756C46.1042 58.0756 44.6552 55.3501 44.6552 52.0496C44.6552 48.7491 46.0927 46.0006 47.8752 46.0696Z" fill="url(#paint0_linear_215_3281)"/>
<defs>
<linearGradient id="paint0_linear_215_3281" x1="42.5507" y1="44.4596" x2="53.2112" y2="59.6856" gradientUnits="userSpaceOnUse">
<stop stop-color="#B4966A"/>
<stop offset="0.5" stop-color="#FEF0C7"/>
<stop offset="1" stop-color="#B4966A"/>
</linearGradient>
</defs>
</svg>
