<svg width="90" height="90" fill="none" xmlns="http://www.w3.org/2000/svg"><circle cx="45" cy="45" r="45" fill="#8AC14B"/><path d="m64.16 35.56 3.2-7.04c-3.68 0-6.56.16-8.48.64-1.76.48-3.36.96-4.64 1.76-1.12.96-2.56 2.56-4.32 4.32-2.24 2.72-3.84 4.32-4.64 4.96-.64.64-1.6.96-2.56.96l5.44-12.64H38.08l-14.4 33.12h10.08l5.76-12.96c.96 0 1.6.16 1.76.64.16.48.48 1.76.64 3.68l.16 8.48h11.36l-.48-8.96c-.16-2.56-.48-4.32-.96-5.44-.64-1.12-1.44-2.08-2.72-2.56 1.44-.48 2.56-.96 3.2-1.76.96-.64 2.08-1.76 3.2-3.2 1.12-1.44 2.24-2.56 3.36-3.2 1.12-.64 2.56-.96 4.32-.96h.48v.16h.32Z" fill="#fff"/></svg>