<svg width="90" height="90" fill="none" xmlns="http://www.w3.org/2000/svg"><circle cx="45" cy="45" r="45" fill="#F5F5F5"/><path d="M51.768 16.162V10.7l-3.38 3.023-2.557-3.023-2.562 3.023-3.356-3.023v5.494a29.487 29.487 0 0 1 6.016-.63c1.953 0 3.914.206 5.839.598Zm-6.046 2.298 1.355 1.393-1.355 1.404-1.353-1.404 1.353-1.393Zm33.15 24.985.128-.747h-2.01c-.923 0-1.355.33-1.489 1.275-.133.962-.335 2.077-.626 3.677-.274 1.497-1.096 1.608-2.452 1.612.624-9.75-4.922-18.646-13.586-23.121-.974-.503-1.898-.892-3.047-1.322l-.087.258c1.024.46 2.062.97 3.035 1.581 7.999 5.057 11.884 14.009 10.296 22.604-1.517.001-2.424-.018-2.715-1.612-.292-1.6-.492-2.715-.63-3.677-.13-.944-.56-1.275-1.483-1.275H62.19l.13.747h1.302c.022.145.052.307.08.483l-1.297-.002.13.75h1.289c.025.156.056.317.083.48H62.62l.13.747h1.279c.217 1.27.437 2.546.55 3.068.227 1.116.671 2.778 3.795 2.883l-.001.009a21.798 21.798 0 0 1-2.328 5.02c-6.133 9.684-19.051 12.401-28.692 6.195-4.064-2.616-6.846-6.67-8.027-11.172-.004-.019-.006-.037-.014-.052 3.039-.138 3.474-1.775 3.704-2.883.109-.522.33-1.798.545-3.065l1.28-.003.131-.746h-1.288c.03-.164.055-.325.083-.48h1.287l.133-.75h-1.296c.028-.176.054-.337.079-.482h1.303l.126-.747h-2.014c-.922 0-1.354.33-1.485 1.275-.137.962-.335 2.077-.626 3.677-.276 1.494-1.093 1.608-2.448 1.612-.475-4.13.377-8.449 2.847-12.274 4.599-6.793 12.863-9.112 20.031-6.933l-5.921-6.174 5.923-6.079a27.78 27.78 0 0 0-13.656.486c-4.17 1.294-7.983 3.636-10.774 7.04-6.056 6.583-8.106 17.174-5.582 25.832 2.358 8.667 9.5 16.008 18.37 18.095 4.06 1.038 8.38.976 12.448-.066l.06.242c-4.088 1.12-8.461 1.262-12.617.277-9.065-1.97-16.67-9.138-19.261-18.07-2.196-7.069-1.622-15.134 1.835-21.684l-.258-.169a27.068 27.068 0 0 0-3.873 8.725 28.505 28.505 0 0 0-.542 10.752c-1.522.004-2.437-.013-2.729-1.612-.293-1.6-.491-2.715-.625-3.677-.134-.944-.565-1.275-1.487-1.275H11l.13.747h1.3c.024.145.05.307.081.483l-1.296-.002.13.75h1.288c.026.156.053.317.082.48h-1.29l.132.747h1.284c.215 1.27.434 2.546.542 3.068.24 1.155.697 2.892 4.105 2.892h.855c.024.105.049.206.075.313C20.91 62.214 28.79 70.549 39.692 73.038c14.37 3.29 28.727-5.444 32.131-19.772.112-.465.212-.933.3-1.403h.393c3.403 0 3.866-1.737 4.102-2.892.11-.522.33-1.798.545-3.065l1.282-.003.129-.746H77.29c.026-.164.055-.325.08-.48h1.29l.132-.75h-1.3l.082-.482h1.299Z" fill="#FFB400"/></svg>