<svg xmlns="http://www.w3.org/2000/svg" width="90" height="90" fill="none"><circle cx="45" cy="45" r="45" fill="#A3003A"/><path fill="#fff" d="M35.64 51.3c.9.36 2.34.72 3.6 1.26.36 0 .72.36.9.36.18 0 .72.36.72.72.36.36.36.72.36.9v.9c0 .72-.36 1.26-.36 1.98 0 .36 0 .72.36.9.36.36.36.72.72.72l1.98.9c.36 0 .36.36.36.36s.36.36.36.72 0 .36-.36.72l-.36.36c-.72.36-1.26.72-1.98.72-.36 0-.9 0-1.26-.36s-.9-.72-1.26-.36-.36.72-.36.9c0 .36.36.72.36.72.36.72.9.9 1.62.9.72 0 1.26 0 1.62-.36.72-.72 1.62-.9 2.52-.9.9 0 1.98.36 2.52.9.72.36 1.26.72 1.98.36.72 0 1.26-.36 1.62-.9.36-.36.36-.36.36-.72s0-.72-.36-.9c-.36 0-.36-.36-.72 0-.36 0-.72 0-.72.36-.36.36-.9.36-1.26.36-.72 0-1.26-.36-1.62-.72-.36 0-.36-.36-.36-.36 0-.36-.36-.36-.36-.72s0-.36.36-.72l.36-.36 1.98-.9c.36-.36.72-.36.9-.9.36-.36.36-.72 0-1.26 0-.72-.36-.9-.36-1.62v-.9c0-.36.36-.72.36-.9.36-.36.36-.72.72-.72.36-.36.72-.36.9-.36.9-.36 1.62-.72 2.52-.9.9-.36 1.98-.9 2.52-1.98.72-.9.9-1.98.9-2.88 0-.9-.36-1.26-.9-1.26h-4.5c-1.98 0-2.34 0-2.88 1.98-.9 2.88-2.34 5.58-1.26 8.82 0 .36.36.36.36.72v.72c0 .36-.36.36-.36.72-.36 0-.36.36-.72.36-.9.36-1.98.36-2.88.36-1.98-.36-2.34-.9-1.62-2.88.36-.72.36-1.26.36-1.98-.36-2.52-.9-5.22-2.34-7.38l-.36-.36h-6.48s-.36 0-.36.36c0 0 0 .36-.36.36v-.36c0 .9.36 1.98.72 2.88.18.72.72 1.26 1.8 1.62Zm15.48-2.52c.72-.36 1.26-.72 2.34-.72h.36s.36 0 .36.36v.72l-.9.9c-.54.36-1.26.36-1.62.36l-.9-.72c0-.36.36-.72.36-.9Zm-15.3-.36c.36-.36.36-.36.72-.36.72.36 1.62.36 2.34.72.36.36.36.72.72.9-.36.36-.72.36-.9.72-.72 0-.9 0-1.26-.36s-.9-.72-1.26-.9l-.36-.72Z"/><path fill="#fff" d="M25.92 55.8s0 .36.36.36.36.36.36.36h1.62c.36 0 .9.36 1.26.72 1.62 1.26 2.88 3.24 3.6 5.58.18.36.18.54.9 1.26 2.52 4.5 6.12 7.2 11.34 7.2s8.82-2.52 11.34-7.2c.36-.72.72-1.26.72-1.26.72-1.62 1.62-2.88 2.52-4.5.36-.72.9-.9 1.62-1.26.72-.36 1.26-.36 1.98 0h.36s.36 0 .36-.36l.36-.36v-1.62c.36-1.62 0-1.98-1.62-1.62h-1.26c-.36 0-.36-.36-.72-.36 0 0-.36-.36-.36-.72-.36-.36-.36-.72-.36-.9v-.9c.36-.72.72-1.26.72-1.98 1.26-2.52 1.62-5.76.72-8.82-.54-.72-.54-1.44-.54-1.98s.36-1.26.72-1.62c.36-.36.36-.72.36-.9.36-.9.36-1.98.36-2.52 0-.9-.36-1.98-.9-2.52-.72-1.26-1.26-2.52-2.34-3.96-.36-.36-.36-.72-.36-.9 0-.36.36-.72.36-.9.9-1.62 1.26-3.96-.9-4.5h-1.62c-.36.36-.72.36-.9.72-.36.36-.36.72-.72.9v1.26c0 .36.36.9.72 1.26.36.72.72 1.62.72 2.34 0 .9-.36 1.62-.9 2.34-1.62 1.62-2.52 3.6-3.6 5.58-.36.36-.72.36-.9.36-.9-.36-1.62-.72-2.52-.9-2.88-.9-6.12-.9-8.82.36-.72.36-1.26.72-1.98.72-.72-.36-.9-.9-.9-1.62-.72-.9-1.26-1.62-1.62-2.52-.36-.36-.72-.9-.9-1.26-.72-.72-.9-1.26-1.26-2.34 0-.9.36-1.62.72-2.52.36-.36.36-.72.36-1.26 0-.72 0-1.26-.36-1.98s0-.9-.72-1.26h-1.62l-.36.36c-2.88-.18-2.52 1.98-1.62 3.24.36.36.72.9.72 1.62 0 .72-.36.9-.72 1.62-.9 1.26-1.62 2.52-2.34 3.96-.36.9-.72 1.62-.72 2.52 0 .9.36 1.98.9 2.52.36.36.72.9.72 1.62 0 .72 0 1.26-.36 1.62-.9 2.88-.72 6.12.72 8.82.72.72.72 1.62.9 2.34v.9c0 .36-.36.72-.72.9 0 .36-.36.36-.72.72H26.1c-.36 0-.36 0-.36.36l-.36.36V54c0 .72 0 .9.36 1.62v.18h.18Zm3.24-1.98c.72-.72.9-.9 1.62-1.26.36-.36.72-.72.72-.9v-.9c-.36-1.26-.72-2.34-.9-3.6-.9-1.98-1.26-4.5-.9-6.84.36-1.26.72-1.62 1.98-1.26 1.26.36 2.88.36 4.14.36h.72c.36 0 .36-.36.36-.36 0-.36-.36-.36-.72-.36-.72 0-1.26 0-1.98-.36-2.88-.36-4.5-1.26-5.76-4.86 0-.72-.36-.9 0-1.62.36-.72.36-.9.72-1.62.72-1.26 1.62-2.52 2.52-3.96 1.62 2.34 3.24 4.14 4.5 6.12.36.72.72 1.26.9 2.34v.36l.36.36h.36c.9-.36 1.62-.72 2.52-.9 1.26-.72 2.88-.9 4.5-.9s2.88.36 4.5.9c.9.36 1.62.72 2.52.9.72.36.9 0 .9-.36.72-1.98 1.98-3.6 3.24-5.22.72-.9 1.26-1.98 2.34-2.88.9 1.62 1.98 2.88 2.52 4.5.36.36.36.9.36 1.62 0 .72 0 .9-.36 1.62-.36 1.26-.9 2.34-1.98 3.24-.72 0-1.98.36-3.24.36-.72 0-1.26 0-1.98.36-.36 0-.72.36-.72.36.36.36.36.36.72.36 1.62 0 2.88 0 4.5-.36s1.98-.36 1.98 1.26c.36 2.34 0 4.5-.9 6.84-.36 1.26-.72 2.34-.9 3.6v.9c0 .36.36.72.72.9.72.36.9.9 1.62 1.26.72.72.72.9 0 1.26-1.62.9-3.24 2.52-3.96 4.5-.9 1.62-1.62 3.6-2.52 5.22-.9 1.62-2.34 2.88-3.96 3.96-1.62.9-3.24 1.26-5.22 1.26-5.22 0-8.46-2.52-10.62-7.2-.72-.9-.9-2.34-1.62-3.24-.72-1.98-2.34-3.6-3.96-4.5-.36-.18-.36-.54.36-1.26Z"/></svg>