<svg width="90" height="90" fill="none" xmlns="http://www.w3.org/2000/svg"><g clip-path="url(#a)"><circle cx="45" cy="45" r="45" fill="#EFEFEF"/><path d="M32.197 39.218v2.51h.887c1.073 0 1.541-.082 1.892-.33.736-.509.825-1.733.165-2.325-.358-.33-.599-.398-1.479-.426l-.846-.027v-1.362h2.339v-.551h-2.958v2.511Zm2.38.151c.248.18.44.537.44.812 0 .255-.248.674-.481.812-.152.09-.372.117-.957.117h-.763v-1.94l.777.02c.66.028.798.049.984.18ZM37.328 38.117c-.632.22-1.128.895-1.19 1.61-.144 1.59 1.658 2.642 2.903 1.686l.31-.234v.275c0 .275 0 .275.275.275h.275v-3.646h-.275c-.268 0-.275.007-.275.24.007.152-.01.265-.03.265-.028 0-.156-.113-.287-.223-.392-.344-1.135-.454-1.706-.248Zm1.232.578c.983.447 1.032 1.864.082 2.36a1.34 1.34 0 0 1-1.953-1.039c-.097-.736.55-1.451 1.32-1.451.152 0 .4.062.55.13ZM40.878 39.885l.02 1.81H41.485v-1.548h1.85l.007.77v.777H43.925l.021-1.81.014-1.801h-.62v1.513h-1.856v-1.513h-.62l.014 1.802ZM44.923 39.906v1.823h.585v-1.61l.839.805.839.805h.344c.193 0 .35-.014.35-.028s-.426-.447-.942-.956l-.949-.929.62-.577c.343-.317.756-.702.928-.86l.31-.296h-.805l-.764.722-.77.716v-1.438h-.585v1.823ZM51.251 43.132c0 .213-.35.509-.873.722-1.417.592-1.837 1.128-1.837 2.38 0 .688.103 1.005.468 1.397.371.406.722.564 1.273.564.584 0 .921-.11 1.279-.427.365-.323.55-.763.543-1.3-.013-1.245-1.3-1.995-2.462-1.43-.152.068-.282.116-.296.103-.076-.07.55-.475 1.073-.702.702-.303 1.011-.502 1.183-.764.172-.261.165-.399-.041-.53-.206-.137-.31-.137-.31-.013Zm-.24 2.442c.688.399.701 1.383.02 1.885-.123.096-.33.151-.584.172-1.218.082-1.789-1.287-.833-2.002.365-.268.984-.296 1.397-.055ZM32.245 43.153c-.028.02-.048.812-.048 1.754 0 1.032-.028 1.837-.076 2.016-.103.42-.337.653-.647.653-.233 0-.24.007-.24.275v.276h.337c.46 0 .743-.207 1.004-.723.136-.271.208-.57.212-.874l.015-1.176.028-1.63H34.949V48.127h.55v-5.022h-1.603c-.888 0-1.63.02-1.651.048ZM79.455 43.827v.24h1.926v-.48h-1.926v.24ZM37.858 44.48c-.929.193-1.479.881-1.479 1.872 0 .612.248 1.141.688 1.479.764.577 2.009.474 2.614-.22l.227-.255-.213-.13c-.269-.166-.29-.166-.489.047-.46.502-1.479.489-1.926-.014-.11-.13-.337-.536-.337-.612 0-.02.695-.034 1.548-.034h1.548v-.261c0-.386-.172-.915-.406-1.232-.351-.481-1.142-.763-1.775-.64Zm1.011.702c.275.193.461.433.523.688l.041.193h-2.497l.041-.159c.076-.247.406-.626.66-.75.345-.178.943-.165 1.232.028ZM45.7 44.48c-1.245.255-1.885 1.582-1.3 2.731.323.647.887.984 1.658.984 1.08 0 1.809-.681 1.878-1.754.027-.4 0-.55-.124-.846-.344-.798-1.266-1.28-2.112-1.115Zm.929.647c.426.227.777.777.763 1.224-.014.523-.399 1.073-.866 1.232-.4.13-.943.048-1.245-.186-.303-.248-.565-.722-.565-1.039 0-.474.365-1.039.791-1.231.276-.124.888-.124 1.122 0ZM54.078 44.487a1.834 1.834 0 0 0-1.355 1.142c-.124.358-.117 1.032.014 1.417.145.427.612.895 1.039 1.04.378.13 1.032.144 1.41.027.254-.076.95-.62.95-.736 0-.028-.11-.11-.242-.186l-.24-.13-.159.185c-.35.42-1.066.53-1.63.247-.316-.165-.619-.53-.619-.75 0-.123.09-.13 1.52-.13h1.527l-.034-.433c-.096-1.17-1.06-1.92-2.18-1.693Zm1.032.702c.269.179.544.557.544.743 0 .124-.076.13-1.204.13-1.314 0-1.314 0-1.108-.398.214-.406.62-.633 1.15-.633.288 0 .446.041.618.158ZM58.646 44.446c-.105.01-.165.015-.323.069-.159.053-.4.144-.571.275l-.31.24v-.24c0-.234-.007-.24-.275-.24h-.275v5.02h.55v-1.946l.159.145c.488.46 1.417.564 2.05.233 1.34-.701 1.32-2.703-.028-3.343-.337-.158-.744-.241-.977-.213Zm.674.681c.124.048.324.2.44.337a1.297 1.297 0 0 1-1.086 2.167c-.454-.034-.77-.22-1.032-.592-.13-.2-.165-.33-.165-.701 0-.386.027-.502.186-.743.11-.158.31-.344.447-.42.31-.165.887-.185 1.21-.048ZM62.718 44.487c-.942.151-1.554.997-1.472 2.022.055.723.406 1.225 1.073 1.534.317.145.434.166.93.138.336-.02.646-.076.776-.145.234-.123.709-.564.709-.66 0-.027-.11-.11-.24-.186-.242-.123-.242-.123-.352.028-.426.612-1.678.543-2.125-.11-.344-.502-.358-.495 1.341-.495h1.514v-.33c0-1.184-.97-1.995-2.154-1.796Zm1.012.709c.282.165.378.295.522.674l.07.192h-1.239c-1.156 0-1.238-.007-1.238-.124 0-.199.371-.66.626-.79.358-.173.922-.152 1.259.047ZM40.795 46.331v1.795h1.053c1.142 0 1.39-.061 1.65-.42.283-.384.214-1.017-.137-1.3l-.165-.13.145-.2c.288-.385.172-1.052-.227-1.348-.172-.13-.31-.144-1.26-.165l-1.059-.02v1.788Zm1.981-1.121c.2.137.207.509.007.688-.117.103-.275.137-.79.151l-.647.028V45.1h.64c.467 0 .68.027.79.11Zm.193 1.582c.138.13.165.213.138.358-.09.357-.262.426-1.046.426h-.715v-.963h.722c.688 0 .736.007.901.179ZM65.147 44.584c0 .02.323.399.722.846.399.44.722.819.722.84 0 .02-.357.446-.79.942l-.792.914h.358l.364-.006.654-.77.653-.771V48.126h.62V46.58l.653.777.653.77h.324c.186 0 .33-.013.33-.04 0-.021-.337-.427-.757-.909-.412-.474-.756-.887-.756-.908 0-.027.33-.413.736-.867l.736-.818-.344-.02c-.337-.021-.337-.021-.716.412a81.97 81.97 0 0 1-.632.709l-.255.275-.007-.709v-.702h-.585v1.411l-.619-.709-.619-.702h-.323c-.186 0-.33.014-.33.035ZM70.237 46.338v1.788h.585v-1.478h1.891v1.479h.62v-3.578h-.62v1.479h-1.891V44.55h-.585v1.789ZM74.296 46.338v1.788h.894c.763 0 .942-.02 1.17-.137a1.105 1.105 0 0 0 .006-1.974c-.254-.131-.406-.159-.915-.159h-.605V44.55h-.55v1.789Zm1.919.24a.775.775 0 0 1 .185.358c.035.186.007.255-.165.434-.2.2-.234.206-.798.206h-.591V46.393l.619.027c.502.014.64.049.75.159ZM77.391 46.338v1.788h.55V44.55h-.55v1.789ZM78.905 46.338v1.788h.261c.248-.006.275-.034 1.218-1.258l.963-1.252.02 1.252.014 1.258h.62V44.55h-.262c-.262 0-.275.014-1.225 1.239-.522.68-.977 1.238-1.004 1.238-.028 0-.055-.557-.055-1.238v-1.239h-.55v1.789Z" fill="#345163"/><path fill-rule="evenodd" clip-rule="evenodd" d="m20.925 41.536 5.334-5.76v11.257H15.835l1.691-1.826h-2.129l-1.922 2.076a.781.781 0 0 0 .573 1.312H27.04c.43 0 .78-.35.78-.781v-14.03c0-.71-.87-1.052-1.354-.53l-7.67 8.282h2.13Z" fill="#1EAAA2"/><path fill-rule="evenodd" clip-rule="evenodd" d="m22.994 33.211-9.487 9.637a.781.781 0 0 0 .556 1.33h8.194c.19-.183.377-.349.546-.499.556-.493.93-.824.679-1.063h-7.554l7.779-7.903v.02a3.24 3.24 0 0 0 .183-.362v-1.154c-.116-.376-.578-.186-.896-.006Z" fill="#FECA8C"/></g><defs><clipPath id="a"><path fill="#fff" d="M0 0h90v90H0z"/></clipPath></defs></svg>