<svg width="90" height="90" fill="none" xmlns="http://www.w3.org/2000/svg"><g clip-path="url(#a)"><circle cx="45" cy="45" r="45" fill="#EFEFEF"/><path fill-rule="evenodd" clip-rule="evenodd" d="m41.866 45.687 14.8-15.982v31.234H27.742l4.691-5.066h-5.907l-5.335 5.761c-1.285 1.388-.301 3.64 1.59 3.64h36.05c1.198 0 2.168-.97 2.168-2.167V24.175c0-1.971-2.418-2.92-3.758-1.473L35.96 45.687h5.907Z" fill="#1EAAA2"/><path fill-rule="evenodd" clip-rule="evenodd" d="M47.601 21.588 21.28 48.327c-1.348 1.37-.378 3.687 1.545 3.687H45.56c.53-.507 1.048-.966 1.518-1.383 1.541-1.368 2.576-2.285 1.881-2.95l-.001-.001h-20.96l21.586-21.927v.054a8.93 8.93 0 0 0 .509-1.004V21.6c-.324-1.045-1.61-.512-2.492-.013Z" fill="#FECA8C"/></g><defs><clipPath id="a"><path fill="#fff" d="M0 0h90v90H0z"/></clipPath></defs></svg>