<svg width="90" height="90" viewBox="0 0 90 90" fill="none" xmlns="http://www.w3.org/2000/svg">
<circle cx="45" cy="45" r="45" fill="#F5F5F5"/>
<path d="M45.1993 20.9C43.0284 20.9891 40.9684 22.2304 39.8751 24.1081L21.1042 56.3258C20.2534 57.8103 20.0271 59.572 20.4751 61.2234C20.9232 62.8747 22.0088 64.2803 23.4933 65.1312C24.9777 65.982 26.7394 66.2083 28.3907 65.7604C30.0419 65.3122 31.4477 64.2267 32.2985 62.7422L45.3358 40.1487C45.8478 32.3332 45.1993 27.1261 45.1993 20.9Z" fill="#00A1DE"/>
<path d="M69.5673 56.326L51.0012 24.1764C50.4486 23.228 49.6635 22.4359 48.7201 21.8746C47.7767 21.3134 46.7061 21.0015 45.6088 20.9683C45.8477 26.3607 44.1413 28.0671 43.2881 36.5994L58.4414 62.9469C59.2916 64.4133 60.685 65.486 62.32 65.933C63.955 66.3801 65.7002 66.1656 67.1784 65.336C68.6329 64.406 69.681 62.9595 70.1116 61.2875C70.5423 59.6158 70.3235 57.8428 69.4992 56.326" fill="#0039A6"/>
<path d="M48.6121 21.7874C47.6919 21.2662 46.6645 20.9627 45.6088 20.9H45.131C44.0699 20.9306 43.035 21.2364 42.1276 21.7874C41.3926 22.2086 40.7476 22.7705 40.2297 23.441C39.7117 24.1115 39.3309 24.8774 39.1091 25.6951C38.8872 26.5128 38.8286 27.3662 38.9367 28.2065C39.0448 29.0469 39.3172 29.8577 39.7386 30.5926L45.3357 40.2852L50.9329 30.5926C51.3686 29.8648 51.6544 29.0569 51.7735 28.2171C51.8927 27.3771 51.8425 26.5217 51.6264 25.7014C51.4102 24.881 51.032 24.1122 50.5144 23.44C49.9968 22.7679 49.35 22.206 48.6121 21.7874Z" fill="#002C77"/>
<path d="M52.0252 59.6024C52.0252 60.9118 51.6368 62.1919 50.9093 63.2807C50.1819 64.3696 49.1478 65.2183 47.9379 65.7194C46.7281 66.2205 45.3969 66.3516 44.1125 66.0961C42.8281 65.8407 41.6484 65.2101 40.7224 64.2841C39.7964 63.3581 39.1658 62.1784 38.9104 60.894C38.6548 59.6097 38.786 58.2784 39.2871 57.0687C39.7882 55.8587 40.6369 54.8247 41.7256 54.0972C42.8144 53.3697 44.0947 52.9813 45.4041 52.9813C47.1602 52.9813 48.8442 53.6789 50.0858 54.9205C51.3276 56.1623 52.0252 57.8463 52.0252 59.6024Z" fill="#EEAF30"/>
</svg>
