<svg width="90" height="90" fill="none" xmlns="http://www.w3.org/2000/svg"><circle cx="45" cy="45" r="45" fill="#003869"/><path d="M74.605 54.3a28.63 28.63 0 0 1-3.255 6.975c-12.09-1.085-24.335.93-35.34 5.89l1.24-8.68c11.935-4.495 24.645-5.89 37.355-4.185ZM76 44.845c0 2.325-.155 4.34-.62 6.51-12.865-1.705-25.885-.155-37.82 4.65l1.085-7.595A78.382 78.382 0 0 1 76 44.845Zm-1.24-8.525c.465 1.86.93 3.72 1.085 5.58-12.4-1.86-25.11-.465-36.89 4.03l.93-6.51c11.16-3.875 23.095-4.96 34.875-3.41v.31Zm-4.34-9.145c1.24 1.86 2.325 3.72 3.255 5.89-11.315-1.395-22.785 0-33.48 3.875l.93-6.2c9.455-3.1 19.375-4.185 29.295-3.565Zm-8.06-7.75c2.325 1.55 4.34 3.41 6.2 5.425-9.3-.465-18.445.93-27.28 3.72l.775-6.045c6.665-1.86 13.485-2.945 20.305-3.1 0-.155 0 0 0 0ZM45 14c5.115 0 10.23 1.24 14.725 3.72-5.89.465-11.625 1.705-17.36 3.41l.775-5.425c-6.665.465-13.02 3.255-17.98 7.75-4.96 4.65-8.06 10.695-8.99 17.36-.93 6.665.465 13.485 4.03 19.22 3.565 5.735 8.835 10.23 15.19 12.4l.465-3.255c10.695-4.495 22.475-6.51 34.1-5.58-3.255 4.185-7.44 7.595-12.245 9.61-4.805 2.17-10.075 2.945-15.345 2.48-5.27-.465-10.23-2.325-14.725-5.27-4.34-2.945-7.905-6.975-10.23-11.78-2.325-4.65-3.41-9.92-3.255-15.19.31-5.27 1.86-10.385 4.65-14.88 2.79-4.495 6.665-8.215 11.315-10.695C34.46 15.395 39.73 14 45 14Z" fill="#fff"/></svg>