<svg width="90" height="90" viewBox="0 0 90 90" fill="none" xmlns="http://www.w3.org/2000/svg">
<circle cx="45" cy="45" r="45" fill="#00B956"/>
<path d="M48.5444 16.1076V46.0223C48.5444 47.4211 47.4704 48.3896 46.1815 48.3896H42.637C42.4222 48.3896 42.3148 48.6048 42.3148 48.7124V73.7848C43.1741 73.7848 44.0333 74 45 74C61.0037 74 74 60.9796 74 44.9462C74 30.2041 62.937 17.8293 48.5444 16.1076ZM47.9 60.872C45.8593 60.872 44.3556 59.1503 44.3556 57.321C44.3556 55.2764 46.0741 53.7699 47.9 53.7699C49.9407 53.7699 51.4444 55.4917 51.4444 57.321C51.6593 59.2579 49.9407 60.872 47.9 60.872ZM56.3852 60.872C54.3444 60.872 52.8407 59.1503 52.8407 57.321C52.8407 55.2764 54.5593 53.7699 56.3852 53.7699C58.4259 53.7699 59.9296 55.4917 59.9296 57.321C59.9296 59.1503 58.5333 60.872 56.3852 60.872ZM64.9778 60.872C62.937 60.872 61.4333 59.1503 61.4333 57.321C61.4333 55.2764 63.1519 53.7699 64.9778 53.7699C67.0185 53.7699 68.5222 55.4917 68.5222 57.321C68.5222 59.1503 67.0185 60.872 64.9778 60.872Z" fill="white"/>
<path d="M45 16C28.9963 16 16 29.0204 16 45.0538C16 59.1503 25.7741 70.6642 38.8778 73.3544V47.2059C38.8778 46.0223 39.9519 45.0538 41.0259 44.8386H44.5704C44.7852 44.8386 44.8926 44.6234 44.8926 44.5158L45 16ZM39.4148 39.8887C37.3741 39.8887 35.8704 38.167 35.8704 36.3377C35.8704 34.2931 37.5889 32.7866 39.4148 32.7866C41.4556 32.7866 42.9593 34.5083 42.9593 36.3377C42.9593 38.167 41.3481 39.8887 39.4148 39.8887Z" fill="white"/>
</svg>
