<svg width="90" height="90" fill="none" xmlns="http://www.w3.org/2000/svg"><circle cx="45" cy="45" r="45" fill="#F5F5F5"/><path d="M79.234 45c0 18.922-15.312 34.234-34.234 34.234-18.922 0-34.234-15.312-34.234-34.234 0-18.922 15.312-34.234 34.234-34.234 18.922 0 34.234 15.312 34.234 34.234ZM45 12.844A32.069 32.069 0 0 0 12.844 45c0 17.828 14.437 32.156 32.156 32.156 17.828 0 32.156-14.437 32.156-32.156A32.069 32.069 0 0 0 45 12.844Z" fill="url(#a)"/><path d="M45 12.844A32.069 32.069 0 0 0 12.844 45c0 17.828 14.437 32.156 32.156 32.156 17.828 0 32.156-14.437 32.156-32.156A32.069 32.069 0 0 0 45 12.844Zm0 62.234c-16.625 0-30.078-13.453-30.078-30.078S28.375 14.922 45 14.922 75.078 28.375 75.078 45 61.625 75.078 45 75.078Z" fill="url(#b)"/><path opacity=".4" d="M45 79.234c18.922 0 34.234-15.312 34.234-34.234 0-18.922-15.312-34.234-34.234-34.234-18.922 0-34.234 15.312-34.234 34.234 0 18.922 15.312 34.234 34.234 34.234ZM45 10c19.25 0 35 15.75 35 35S64.25 80 45 80 10 64.25 10 45s15.75-35 35-35Z" fill="url(#c)"/><path d="M12.406 45.11c0-17.938 14.547-32.704 32.594-32.704S77.594 27.062 77.594 45.11c0 17.938-14.547 32.485-32.594 32.485S12.406 63.047 12.406 45.109Zm10.172-22.532c-5.797 5.797-9.406 13.781-9.406 22.531 0 8.75 3.61 16.735 9.297 22.422C28.266 73.22 36.25 76.828 45 76.828c8.75 0 16.734-3.5 22.422-9.297 5.797-5.687 9.297-13.672 9.297-22.422s-3.61-16.734-9.297-22.53A31.394 31.394 0 0 0 45 13.171c-8.75 0-16.734 3.61-22.422 9.406Z" fill="#fff"/><path opacity=".4" d="M45 75.188c-8.094 0-15.64-3.172-21.328-8.86-5.688-5.687-8.86-13.234-8.86-21.328s3.172-15.64 8.86-21.328c5.687-5.688 13.234-8.86 21.328-8.86s15.64 3.172 21.328 8.86c5.688 5.687 8.86 13.234 8.86 21.328s-3.172 15.64-8.86 21.328c-5.687 5.688-13.234 8.86-21.328 8.86Zm0-.876c7.766 0 15.203-3.062 20.672-8.53 5.578-5.579 8.531-12.907 8.531-20.673 0-7.765-3.062-15.203-8.531-20.672-5.578-5.578-12.906-8.53-20.672-8.53s-15.203 3.062-20.672 8.53c-5.578 5.36-8.64 12.797-8.64 20.563 0 7.766 3.062 15.203 8.53 20.672 5.579 5.578 13.016 8.64 20.782 8.64Z" fill="url(#d)"/><path d="M71.578 59.219c-.547-.438-21.656-17.172-21.656-17.172L45 13.937c-.328.11-.766.438-.984.876l-3.5 27.343L18.75 58.891s-.438.547-.656.875c-.11.218-.11.547-.11.875l26.907-11.047L71.797 60.64c.219-.547 0-1.094-.219-1.422Z" fill="#fff"/><path d="M45.219 45.875 45 50.906l24.719 9.953c.875.438 1.531.22 2.187-.218l-26.36-14.875c-.108-.11-.327 0-.327.109Z" fill="#565F64"/><path d="M45.219 45.875s1.422 2.516 3.062 4.266c2.297 2.515 5.36 4.265 5.36 4.265l16.078 6.453c.875.438 1.531.22 2.187-.218l-26.36-14.875c-.108-.11-.327 0-.327.109Z" fill="url(#e)"/><path d="M71.797 59.656c0-.11-.11-.218-.219-.437L49.047 42.703l-3.063 1.969s.22.11.328 0c.329-.11.985-.219 1.641 0 .547.219 23.844 15.094 23.844 14.984 0 .11 0 .11 0 0Z" fill="#A4AAAE" fill-opacity=".6"/><path d="m71.031 58.672-21-16.625-.984.656 22.531 16.625c-.11-.219-.328-.437-.547-.656Z" fill="#333E46"/><path d="m45.547 44.234-.11.11s0 .218.22.11c.109-.11 3.28-1.75 4.374-2.407l-3.828-26.25c-.11-.985-.547-1.422-1.312-1.75l.437 30.406.219-.219Z" fill="#565F64"/><path d="M43.688 15.797v1.422L41.28 41.39c0 .328.11.656.438.875l1.422 1.093.984-26.687.11-2.078c-.329.219-.438.656-.547 1.203Zm-1.313 28-1.313-1.094L18.86 58.781s-.656.438-.765.875l.765-.437 23.297-14.657c.438-.218.547-.437.219-.765Z" fill="#A4AAAE" fill-opacity=".6"/><path d="M44.672 45.875c0-.11-.11-.219-.219-.11L17.984 60.75c.657.438 1.313.547 2.188.219l24.719-9.953-.22-5.141Z" fill="#565F64"/><path d="m45.438 44.344.109-.11-.11.11s0 .11.11.11h.11c.109-.11 3.28-1.75 4.374-2.407l-.437-3.172-3.39-23.078c0-.438-.11-.766-.329-.985 0 0 1.64 22.094 1.64 24.5 0 3.172-2.078 5.032-2.078 5.032Z" fill="url(#f)"/><path d="M44.672 45.875c0-.11-.11-.219-.219-.11L17.984 60.75c.657.438 1.313.547 2.188.219l24.719-9.953-.22-5.141Z" fill="url(#g)" fill-opacity=".8"/><path opacity=".8" d="m20.172 60.86 24.719-9.954-.22-4.812c-.437 1.312-1.202 2.734-3.28 3.828-1.532.875-16.188 8.094-21.438 10.61-.328.218-.765.327-.984.437.437.218.765.11 1.203-.11Z" fill="url(#h)"/><path d="m45.547 44.234-.11.11s0 .218.22.11c.109-.11 3.28-1.75 4.374-2.407l-3.828-26.25c-.11-.985-.547-1.422-1.312-1.75l.437 30.406.219-.219Z" fill="url(#i)"/><path d="m45.547 44.234-.11.11s0 .218.22.11c.109-.11 3.28-1.75 4.374-2.407l-3.828-26.25c-.11-.985-.547-1.422-1.312-1.75l.437 30.406.219-.219Z" fill="url(#j)"/><path d="M15.578 58.563c-.765-1.75-5.14-10.282-.328-26.688h-1.86c-.984 3.281-1.75 5.25-2.187 8.203 0 0-.219 1.094-.328 2.297-.11 1.203-.11 1.86-.11 2.625 0 6.563 1.641 10.39 1.641 10.39 1.75 5.47 4.813 10.391 8.969 14.11 3.61 3.172 9.188 5.578 13.781 6.453-.765-.11-13.89-5.687-19.578-17.39Z" fill="url(#k)"/><path d="M45.438 45.656h-.985c.11 0 .219 0 .219.11l.219 5.03H45l.219-5.03c0-.11.11-.22.218-.11Z" fill="url(#l)"/><path d="M55.938 12.516C67.421 16.89 78.25 28.922 78.25 44.125c0 18.375-14.656 33.36-33.25 33.36v1.75c18.594 0 34.234-15.313 34.234-34.235 0-15.094-9.625-27.781-23.296-32.484Z" fill="url(#m)"/><path d="M74.313 32.094C66.656 14.484 49.374 13.5 48.39 13.39h-.11c13.235 2.406 21.657 11.046 24.61 20.125v.109c1.312 3.5 1.968 7.219 2.078 11.266.11 3.828-.766 8.093-2.406 12.03-.11.548-.22 1.204-.329 1.204h1.75c5.25-9.844 2.954-19.797.329-26.031Z" fill="url(#n)"/><path d="M12.406 45.11c0-17.938 14.547-32.704 32.594-32.704S77.594 27.062 77.594 45.11c0 17.938-14.547 32.485-32.594 32.485S12.406 63.047 12.406 45.109Zm10.172-22.532c-5.797 5.797-9.406 13.781-9.406 22.531 0 8.75 3.61 16.735 9.297 22.422C28.266 73.22 36.25 76.828 45 76.828c8.75 0 16.734-3.5 22.422-9.297 5.797-5.687 9.297-13.672 9.297-22.422s-3.61-16.734-9.297-22.53A31.394 31.394 0 0 0 45 13.171c-8.75 0-16.734 3.61-22.422 9.406Z" fill="#FBFBFB"/><path d="m18.64 59 22.313-16.078c1.203.656 3.172 1.531 3.39 1.531.22.11.22-.11.22-.11l-2.735-2.296c-.328-.219-.437-.547-.437-.875l2.625-26.36c-.11.11-.11.329-.22.438-.108.219-.108.328-.108.547l-3.829 26.36-21 16.515c-.109.11-.218.219-.218.328Z" fill="#333F47"/><defs><linearGradient id="h" x1="32.74" y1="55.833" x2="32.084" y2="54.192" gradientUnits="userSpaceOnUse"><stop stop-color="#02131F"/><stop offset=".1" stop-color="#02131F"/><stop offset="1" stop-color="#02131F" stop-opacity="0"/></linearGradient><linearGradient id="a" x1="18.748" y1="23.013" x2="71.252" y2="66.987" gradientUnits="userSpaceOnUse"><stop stop-color="#fff"/><stop offset=".1" stop-color="#CDD0D0"/><stop offset=".2" stop-color="#A5ACAF"/><stop offset=".3" stop-color="#98A0A4"/><stop offset=".4" stop-color="#828A8F"/><stop offset=".5" stop-color="#667075"/><stop offset=".6" stop-color="#535C63"/><stop offset=".7" stop-color="#475158"/><stop offset=".8" stop-color="#434D54"/><stop offset="1" stop-color="#475157"/></linearGradient><linearGradient id="c" x1="56.962" y1="77.881" x2="33.009" y2="12.039" gradientUnits="userSpaceOnUse"><stop stop-color="#E1E3E1"/><stop offset=".1" stop-color="#C1C5C4"/><stop offset=".3" stop-color="#9BA1A2"/><stop offset=".5" stop-color="#7D8487"/><stop offset=".7" stop-color="#687074" stop-opacity="0"/><stop offset=".8" stop-color="#5B6469" stop-opacity="0"/><stop offset="1" stop-color="#576065" stop-opacity="0"/></linearGradient><linearGradient id="d" x1="29.907" y1="18.86" x2="60.093" y2="71.139" gradientUnits="userSpaceOnUse"><stop stop-color="#E1E3E1"/><stop offset=".1" stop-color="#C1C5C4"/><stop offset=".3" stop-color="#9BA1A2"/><stop offset=".5" stop-color="#7D8487"/><stop offset=".7" stop-color="#687074" stop-opacity="0"/><stop offset=".8" stop-color="#5B6469" stop-opacity="0"/><stop offset="1" stop-color="#576065" stop-opacity="0"/></linearGradient><linearGradient id="e" x1="58.659" y1="53.086" x2="56.799" y2="56.149" gradientUnits="userSpaceOnUse"><stop stop-color="#27343C"/><stop offset="1" stop-color="#00111E" stop-opacity="0"/></linearGradient><linearGradient id="f" x1="53.291" y1="41.841" x2="50.228" y2="36.919" gradientUnits="userSpaceOnUse"><stop offset=".1" stop-color="#02131F"/><stop offset=".9" stop-color="#02131F" stop-opacity="0"/></linearGradient><linearGradient id="g" x1="44.98" y1="49.742" x2="40.387" y2="51.055" gradientUnits="userSpaceOnUse"><stop offset=".2" stop-color="#02131F"/><stop offset=".9" stop-color="#02131F" stop-opacity="0"/></linearGradient><linearGradient id="b" x1="20.359" y1="24.283" x2="69.578" y2="65.627" gradientUnits="userSpaceOnUse"><stop stop-color="#0B1F2A"/><stop offset=".2" stop-color="#333F47"/><stop offset=".5" stop-color="#81898D"/><stop offset=".7" stop-color="#B3B8B8"/><stop offset=".8" stop-color="#DEE0DD"/><stop offset="1" stop-color="#FBFBFB"/></linearGradient><linearGradient id="i" x1="48.94" y1="28.828" x2="45.221" y2="29.265" gradientUnits="userSpaceOnUse"><stop offset=".3" stop-color="#02131F"/><stop offset=".8" stop-color="#02131F" stop-opacity="0"/></linearGradient><linearGradient id="j" x1="49.056" y1="28.765" x2="46.539" y2="29.094" gradientUnits="userSpaceOnUse"><stop offset=".4" stop-color="#27343C"/><stop offset="1" stop-color="#3B474E" stop-opacity="0"/></linearGradient><linearGradient id="k" x1="9.606" y1="45.909" x2="40.122" y2="63.518" gradientUnits="userSpaceOnUse"><stop stop-color="#25323B" stop-opacity="0"/><stop offset=".1" stop-color="#27343C"/></linearGradient><linearGradient id="l" x1="44.945" y1="50.906" x2="44.945" y2="45.656" gradientUnits="userSpaceOnUse"><stop offset=".3" stop-color="#A5ABAF"/><stop offset="1" stop-color="#A5ABAF" stop-opacity="0"/></linearGradient><linearGradient id="m" x1="62.117" y1="12.516" x2="62.117" y2="79.234" gradientUnits="userSpaceOnUse"><stop stop-color="#6B7378"/><stop offset=".2" stop-color="#333F47"/><stop offset=".5" stop-color="#27343C"/><stop offset=".8" stop-color="#333F47"/><stop offset="1" stop-color="#434D54"/></linearGradient><linearGradient id="n" x1="72.66" y1="18.852" x2="57.894" y2="40.508" gradientUnits="userSpaceOnUse"><stop offset=".7" stop-color="#49545B"/><stop offset=".8" stop-color="#fff" stop-opacity="0"/></linearGradient></defs></svg>