<svg xmlns="http://www.w3.org/2000/svg" width="90" height="90" fill="none"><circle cx="45" cy="45" r="45" fill="#004785"/><path fill="#fff" d="M46.242 16c15.376.567 27.66 13.245 27.758 28.785a29.11 29.11 0 0 1-8.37 20.561A29.012 29.012 0 0 1 45.215 74a29.01 29.01 0 0 1-20.553-8.36A29.109 29.109 0 0 1 16 45.182a29.112 29.112 0 0 1 7.956-20.134A29.016 29.016 0 0 1 43.596 16l.032 8.244a20.84 20.84 0 0 0-13.881 6.603 20.909 20.909 0 0 0-5.598 14.335 20.823 20.823 0 0 0 2.095 8.947 20.786 20.786 0 0 0 5.74 7.168l7.865-20.752-5.462.04s-1.077-.218-1.692.293l-1.294 1.248s-.106-3.42.048-3.777c.154-.438.59-3.867 2.112-5.618 1.538-1.686 3.99-1.921 3.99-1.921l17.48-.122-2.525 2.635 6.07 27.463a20.782 20.782 0 0 0 5.355-7.148 20.817 20.817 0 0 0 1.863-8.74 20.9 20.9 0 0 0-5.748-14.207 20.831 20.831 0 0 0-13.885-6.447L46.242 16Zm-6.676 17.112c.526 0 .97.405.97.908 0 .494-.428.908-.954.908-.534.008-.971-.397-.971-.892 0-.51.42-.916.955-.924Z"/></svg>