<svg width="90" height="90" fill="none" xmlns="http://www.w3.org/2000/svg"><circle cx="45" cy="45" r="45" fill="url(#a)"/><path d="M50.945 36.3s2.32-7.54 3.77-10.44c1.45-2.9 3.19-5.945 5.365-5.945 2.175 0 2.03.87 2.755.725 1.015-.145.87-2.465-3.48-2.465-4.495 0-7.685 2.32-9.86 7.105S42.97 42.825 42.1 45.58c-1.015 2.755-3.915 6.38-6.815 6.38-2.9 0-3.625-3.045-3.335-5.51.435-3.77 4.205-7.975 7.685-8.99 3.48-1.015 3.19-3.335-.435-2.61-3.625.725-12.76 4.205-12.76 11.745 0 7.54 9.715 10.005 13.05 5.8-.29 1.45-.58 2.755-1.45 5.075-1.595 4.35-4.205 12.18-6.235 12.18-2.03 0-3.045-.145-3.915-.58-.87-.58-2.175 1.015-.58 1.595 1.595.58 6.38 2.465 8.99 0 2.755-2.465 4.495-4.785 6.38-11.165 2.03-6.38 4.64-13.05 6.235-16.82 1.595-3.77 3.48-5.8 5.8-5.8s4.205 2.755 3.48 6.815c-.725 3.915-5.075 7.25-8.265 7.395-3.19.145-2.32 3.045.725 2.465 2.9-.58 7.54-2.175 9.715-4.205 2.175-2.03 3.48-4.495 3.48-8.845-.145-3.915-3.77-6.525-7.395-6.525-3.625 0-5.51 2.32-5.51 2.32Z" fill="#fff"/><defs><linearGradient id="a" x1="0" y1="45" x2="90" y2="45" gradientUnits="userSpaceOnUse"><stop stop-color="#C94B28"/><stop offset="1" stop-color="#7B1931"/></linearGradient></defs></svg>