<svg xmlns="http://www.w3.org/2000/svg" width="90" height="90" fill="none"><circle cx="45" cy="45" r="45" fill="#F5F5F5"/><path fill="#93130A" d="M24 24.005h5.04v36.879c3.29.006 6.58.003 9.87.003 3.354-10.055 6.705-20.108 10.053-30.16 3.44-.006 6.878-.003 10.317-.003.003 9.518 0 19.036.003 28.556-4.225 0-8.45.003-12.672-.003.556-1.68 1.117-3.36 1.677-5.039 1.96.006 3.919.003 5.879.003V35.837l-1.452.002C49.366 45.895 46.009 55.945 42.665 66H24V24.005Z"/><path fill="#93130A" d="M30.655 24c1.7.009 3.4.006 5.101.006.006 8.317 0 16.637.003 24.957 2.802-8.306 5.56-16.626 8.324-24.943 7.305-.035 14.612-.005 21.916-.014V66H44.367c.566-1.703 1.136-3.406 1.703-5.11 4.938-.008 9.875 0 14.816-.002v-31.77c-4.336-.003-8.672.006-13.008-.003-3.354 10.058-6.746 20.105-10.088 30.166-2.382-.003-4.763 0-7.144 0 .006-11.761-.009-23.52.009-35.281Z"/></svg>