<svg width="90" height="90" fill="none" xmlns="http://www.w3.org/2000/svg"><circle cx="45" cy="45" r="45" fill="#287EFF"/><path d="M18.543 28.164a9.62 9.62 0 0 1 9.62-9.621h33.873a9.62 9.62 0 0 1 9.621 9.62v33.878a9.62 9.62 0 0 1-9.62 9.62H28.163a9.62 9.62 0 0 1-9.621-9.62V28.164Z" fill="#287EFF"/><path d="M62.04 72.2H28.165C22.56 72.2 18 67.64 18 62.036V28.164C18 22.56 22.56 18 28.164 18h33.872C67.64 18 72.2 22.56 72.2 28.164V62.04c.005 5.6-4.555 10.159-10.16 10.159ZM28.165 19.086c-5.006 0-9.078 4.072-9.078 9.078V62.04c0 5.006 4.072 9.078 9.078 9.078h33.872c5.006 0 9.078-4.072 9.078-9.078V28.164c0-5.006-4.072-9.078-9.078-9.078H28.164Z" fill="#F8FAFF"/><path fill-rule="evenodd" clip-rule="evenodd" d="M31.55 31.55h5.42v5.42h5.42v5.42h5.42v5.42h-5.42v5.42h-5.42v5.42h-5.42V47.81h5.42v-5.42h-5.42V31.55Zm16.26 21.68v-5.42h5.42v5.42h-5.42Zm5.42 0h5.42v5.42h-5.42v-5.42Zm-5.42 0h-5.42v5.42h5.42v-5.42Zm5.42-5.42v-5.42h-5.42v-5.42h-5.42v-5.42h10.84v5.42h5.42v10.84h-5.42Z" fill="#fff"/></svg>