<svg xmlns="http://www.w3.org/2000/svg" width="90" height="90" fill="none"><circle cx="45" cy="45" r="45" fill="#F5F5F5"/><path fill="#FBB839" d="M60.559 24c-7.428 0-13.442 6.032-13.442 13.482 0 7.45 6.014 13.498 13.442 13.498C67.986 50.98 74 44.93 74 37.482 74 30.032 67.986 24 60.559 24Zm0 21.459c-4.388 0-7.937-3.577-7.937-7.977s3.55-7.96 7.937-7.96c4.387 0 7.936 3.56 7.936 7.96s-3.549 7.977-7.936 7.977Z"/><path fill="#148BAE" d="m30.998 48.953-6.836-11.026H18v26.056h5.603V47.09l7.247 11.026h.148l7.312-11.141V64h5.685V37.943H37.85l-6.852 11.01Z"/></svg>