<svg width="90" height="90" viewBox="0 0 90 90" fill="none" xmlns="http://www.w3.org/2000/svg">
<circle cx="45" cy="45" r="45" fill="#F5F5F5"/>
<path d="M60.5586 24C53.1314 24 47.1173 30.0322 47.1173 37.4817C47.1173 44.9312 53.1314 50.9799 60.5586 50.9799C67.9859 50.9799 74 44.9312 74 37.4817C74 30.0322 67.9859 24 60.5586 24ZM60.5586 45.4586C56.1713 45.4586 52.622 41.8822 52.622 37.4817C52.622 33.0812 56.1713 29.5212 60.5586 29.5212C64.946 29.5212 68.4953 33.0812 68.4953 37.4817C68.4953 41.8822 64.946 45.4586 60.5586 45.4586Z" fill="#FBB839"/>
<path d="M30.9977 48.9526L24.162 37.9266H18V63.9835H23.6033V47.0902L30.8498 58.1162H30.9977L38.3099 46.9749V64H43.9953V37.9431H37.8498L30.9977 48.9526Z" fill="#148BAE"/>
</svg>
