<svg width="90" height="90" viewBox="0 0 90 90" fill="none" xmlns="http://www.w3.org/2000/svg">
<circle cx="45" cy="45" r="45" fill="#F5F5F5"/>
<path d="M45 16.5C50.7 16.5 56.1 18.15 60.9 21.3C65.55 24.45 69.3 28.95 71.4 34.05C73.5 39.3 74.1 45 73.05 50.55C72 56.1 69.3 61.2 65.25 65.25C59.85 70.65 52.65 73.65 45 73.65C37.35 73.65 30.15 70.65 24.75 65.25C19.35 59.85 16.35 52.65 16.35 45C16.35 37.35 19.35 30.15 24.75 24.75C27.45 22.05 30.6 19.95 34.05 18.6C37.5 17.1 41.25 16.5 45 16.5ZM45 15C39 15 33.3 16.8 28.35 20.1C23.4 23.4 19.5 28.05 17.25 33.6C15 39 14.4 45 15.6 50.85C16.8 56.7 19.65 61.95 23.85 66.15C28.05 70.35 33.45 73.2 39.15 74.4C44.85 75.6 51 75 56.55 72.75C62.1 70.5 66.75 66.6 70.05 61.65C73.2 56.7 75 51 75 45C75 37.05 71.85 29.4 66.15 23.85C60.6 18.15 52.95 15 45 15Z" fill="#FF0500"/>
<path d="M28.8 34.65V53.4L41.55 40.65V34.65L35.25 28.35L28.8 34.65ZM52.8 28.35H39L45.3 34.65V40.65L52.2 47.7L59.1 40.65V34.65L52.8 28.35Z" fill="#FF0500"/>
<path d="M50.7 49.05L43.5 41.85L25.05 60.15H39.45L50.7 49.05ZM60.9 41.7L42.3 60.15H60.75V41.7H60.9Z" fill="#FF0500"/>
<path d="M43.5 43.95L28.65 58.65H39L48.6 49.05L43.5 43.95Z" fill="url(#paint0_linear_216_3427)"/>
<path d="M43.5 43.95V41.85L25.05 60.15L28.65 58.65L43.5 43.95Z" fill="url(#paint1_linear_216_3427)"/>
<path d="M59.4 45.3L60.9 41.7L42.3 60.15L45.9 58.65C46.05 58.65 59.4 45.3 59.4 45.3Z" fill="url(#paint2_linear_216_3427)"/>
<path d="M59.4 58.65V45.3L46.05 58.65H59.4Z" fill="url(#paint3_linear_216_3427)"/>
<defs>
<linearGradient id="paint0_linear_216_3427" x1="45.99" y1="46.53" x2="31.275" y2="61.245" gradientUnits="userSpaceOnUse">
<stop stop-color="#F9F6F1"/>
<stop offset="1" stop-color="#C8B67F"/>
</linearGradient>
<linearGradient id="paint1_linear_216_3427" x1="43.9611" y1="42.4011" x2="25.6611" y2="60.7161" gradientUnits="userSpaceOnUse">
<stop stop-color="#F7F4EC"/>
<stop offset="1" stop-color="#CAB880"/>
</linearGradient>
<linearGradient id="paint2_linear_216_3427" x1="3993.19" y1="3992.71" x2="3765.52" y2="3765.03" gradientUnits="userSpaceOnUse">
<stop stop-color="#F7F4EC"/>
<stop offset="1" stop-color="#CAB880"/>
</linearGradient>
<linearGradient id="paint3_linear_216_3427" x1="2869.15" y1="2871.73" x2="2752.74" y2="2755.18" gradientUnits="userSpaceOnUse">
<stop stop-color="#F9F6F1"/>
<stop offset="1" stop-color="#C8B67F"/>
</linearGradient>
</defs>
</svg>
