<svg xmlns="http://www.w3.org/2000/svg" width="90" height="90" fill="none"><g clip-path="url(#a)"><circle cx="45" cy="45" r="45" fill="#EFEFEF"/><mask id="b" width="44" height="44" x="23" y="23" maskUnits="userSpaceOnUse" style="mask-type:luminance"><path fill="#fff" d="M67 23H23v44h44V23Z"/></mask><g mask="url(#b)"><path fill="#FF0032" d="M67 23H23v44h44V23Z"/><path fill="#fff" d="M52.312 26.384v2.025h4.428v8.127h2.475v-8.127h4.419v-2.025H52.312ZM36.392 26.384l-3.24 6.714-3.231-6.714h-3.537v10.152h2.484v-7.263l3.159 6.138h2.259l3.158-6.138v7.263h2.475V26.384h-3.527ZM61.159 60.232c-.063.405-.225.738-.486.99-.243.234-.576.405-.99.504-.405.09-1.008.144-1.638.144-.657 0-1.233-.08-1.728-.252a2.121 2.121 0 0 1-1.116-.846c-.27-.396-.405-.972-.405-1.719v-1.035c0-.738.135-1.314.405-1.719.27-.396.639-.684 1.116-.846.486-.17 1.07-.252 1.728-.252.63 0 1.233.054 1.638.144.414.1.747.261.99.504.26.252.423.585.486.99h2.474c-.072-.837-.35-1.548-.845-2.124-.45-.522-1.08-.9-1.863-1.134-.756-.225-1.755-.342-2.88-.342-1.188 0-2.214.171-3.06.504a3.927 3.927 0 0 0-1.98 1.692c-.441.747-.666 1.755-.684 2.98v.116l.135.01-.135.008V58.666c.018 1.224.243 2.232.684 2.98a3.927 3.927 0 0 0 1.98 1.691c.846.333 1.872.504 3.06.504 1.125 0 2.124-.117 2.88-.342.783-.234 1.404-.612 1.863-1.134.495-.567.783-1.287.846-2.124h-2.475v-.009Z"/></g></g><defs><clipPath id="a"><path fill="#fff" d="M0 0h90v90H0z"/></clipPath></defs></svg>