<svg width="90" height="90" viewBox="0 0 90 90" fill="none" xmlns="http://www.w3.org/2000/svg">
<circle cx="45" cy="45" r="45" fill="#F5F5F5"/>
<path d="M15.15 46.65C15.3 51.6 16.95 56.55 19.8 60.9C22.2 58.8 32.85 57.3 45.15 57.3C57.45 57.3 68.1 58.8 70.5 60.9C73.2 56.55 74.85 51.6 75 46.5C71.25 48.9 59.25 50.55 45.15 50.55C30.6 50.55 18.75 48.9 15.15 46.65V46.65Z" fill="url(#paint0_radial_230_665)"/>
<path d="M21.9 63.9C32.25 76.65 50.85 78.75 63.6 68.25C65.25 66.9 66.75 65.4 67.95 63.9C63.6 65.4 54.75 66.6 44.85 66.6C34.95 66.3 26.1 65.4 21.9 63.9V63.9Z" fill="url(#paint1_radial_230_665)"/>
<path d="M68.1 26.1C62.4 19.05 53.85 15 44.85 15H44.7C35.7 15 27.3 19.05 21.6 26.1C25.95 24.45 34.8 23.4 44.85 23.4C54.9 23.4 63.9 24.6 68.1 26.1Z" fill="url(#paint2_radial_230_665)"/>
<path d="M70.35 29.1C67.95 31.2 57.45 32.85 45 32.85C32.55 32.85 21.9 31.35 19.65 29.1C16.95 33.45 15.3 38.4 15 43.5C18.6 41.25 30.6 39.45 44.85 39.45C59.1 39.45 71.25 41.25 74.7 43.5V43.35C74.55 38.1 73.05 33.45 70.35 29.1V29.1Z" fill="url(#paint3_radial_230_665)"/>
<defs>
<radialGradient id="paint0_radial_230_665" cx="0" cy="0" r="1" gradientUnits="userSpaceOnUse" gradientTransform="translate(44.8439 20.1504) scale(56.2524)">
<stop stop-color="#FAC39D"/>
<stop offset="0.24" stop-color="#F08436"/>
<stop offset="0.48" stop-color="#EC6707"/>
<stop offset="0.73" stop-color="#EC6508"/>
<stop offset="1" stop-color="#E74011"/>
</radialGradient>
<radialGradient id="paint1_radial_230_665" cx="0" cy="0" r="1" gradientUnits="userSpaceOnUse" gradientTransform="translate(44.8439 20.1504) scale(56.2524)">
<stop stop-color="#FAC39D"/>
<stop offset="0.24" stop-color="#F08436"/>
<stop offset="0.48" stop-color="#EC6707"/>
<stop offset="0.73" stop-color="#EC6508"/>
<stop offset="1" stop-color="#E74011"/>
</radialGradient>
<radialGradient id="paint2_radial_230_665" cx="0" cy="0" r="1" gradientUnits="userSpaceOnUse" gradientTransform="translate(44.8438 20.1504) scale(56.2524)">
<stop stop-color="#FAC39D"/>
<stop offset="0.24" stop-color="#F08436"/>
<stop offset="0.48" stop-color="#EC6707"/>
<stop offset="0.73" stop-color="#EC6508"/>
<stop offset="1" stop-color="#E74011"/>
</radialGradient>
<radialGradient id="paint3_radial_230_665" cx="0" cy="0" r="1" gradientUnits="userSpaceOnUse" gradientTransform="translate(44.8439 20.1504) scale(56.2524)">
<stop stop-color="#FAC39D"/>
<stop offset="0.24" stop-color="#F08436"/>
<stop offset="0.48" stop-color="#EC6707"/>
<stop offset="0.73" stop-color="#EC6508"/>
<stop offset="1" stop-color="#E74011"/>
</radialGradient>
</defs>
</svg>
