<svg xmlns="http://www.w3.org/2000/svg" width="90" height="90" fill="none"><circle cx="45" cy="45" r="45" fill="#008036"/><path fill="#fff" d="M65.445 24.555c-4.06-4.06-9.135-6.815-14.935-7.975C45 15.42 39.2 16 33.835 18.175a27.555 27.555 0 0 0-12.905 10.73C17.595 33.69 16 39.2 16 45c0 3.77.725 7.54 2.32 11.02 1.595 3.48 3.625 6.67 6.235 9.425 2.755 2.61 5.8 4.785 9.425 6.235C37.605 73.13 41.23 74 45 74c5.655 0 11.31-1.595 16.095-4.93 4.785-3.335 8.41-7.685 10.73-12.905A28.456 28.456 0 0 0 73.42 39.49c-1.16-5.8-3.915-11.02-7.975-14.935Zm5.22 25.375c-1.015 5.075-3.48 9.715-7.105 13.34-3.625 3.625-8.265 6.09-13.34 7.105-5.075 1.015-10.295.435-15.08-1.45a24.205 24.205 0 0 1-11.6-9.57c-2.755-4.35-4.35-9.28-4.35-14.5 0-6.96 2.755-13.485 7.685-18.415S38.185 18.9 45 18.9c5.075 0 10.295 1.45 14.5 4.35 4.205 2.9 7.685 6.96 9.57 11.745 2.03 4.64 2.465 9.86 1.595 14.935Z"/><path fill="#fff" d="M53.99 42.825c1.595-.435 3.19-1.45 4.35-2.755 1.015-1.45 1.595-3.045 1.595-4.785v-.145c0-2.175-.87-4.06-2.32-5.51a8.005 8.005 0 0 0-5.655-2.32h-3.625v.58c.87 0 1.595.435 2.32.87.58.58 1.015 1.45 1.015 2.32v27.695L42.68 31.95c-.435-1.45-1.305-2.61-2.61-3.48-1.16-.87-2.755-1.305-4.205-1.16h-5.22v.58h.145c.87 0 1.595.435 2.175.87.58.58 1.015 1.45 1.015 2.175v27.55c0 .87-.29 1.595-1.015 2.175-.58.58-1.45.87-2.175.87h-.145v.87h9.425v-.87h-1.16c-.29 0-.87-.145-1.16-.29-.29-.145-.725-.435-1.015-.58-.29-.29-.435-.58-.725-1.015-.29-.435-.29-.725-.29-1.305V36.3l5.945 17.255c.87 2.61 3.625 8.99 10.295 8.99 2.61 0 5.075-1.015 6.96-2.9 1.885-1.885 2.9-4.35 2.9-6.96v-.29c0-2.32-.725-4.35-2.175-6.09-1.45-1.74-3.48-2.9-5.655-3.48Z"/></svg>