<svg width="90" height="90" viewBox="0 0 90 90" fill="none" xmlns="http://www.w3.org/2000/svg">
<circle cx="45" cy="45" r="45" fill="#F5F5F5"/>
<path d="M42.83 31.36H46.085L39.42 51.975H36.32L42.83 31.36ZM48.1 36.785H51.2L44.535 57.245H41.59L48.1 36.785ZM28.88 51.975H30.12L33.22 42.21L35.7 49.96L37.405 44.845L34.305 35.7C34.46 35.545 28.88 51.975 28.88 51.975ZM35.08 33.53L35.7 31.825L38.49 41.435L37.87 43.295L35.08 33.53V33.53ZM66.39 40.04C66.545 40.505 66.545 40.66 66.545 41.28H75.845C75.845 40.815 75.845 40.815 75.69 40.195C72.59 40.04 69.49 40.04 66.39 40.04Z" fill="#0063AB"/>
<path d="M75.535 38.9549H66.08C65.925 38.6449 65.77 38.1799 65.46 37.8699C65.305 37.5599 64.685 36.9399 64.685 36.7849H67.785C67.785 36.3199 67.63 36.1649 67.63 36.0099C64.375 27.1749 57.71 18.3399 43.76 17.8749C25.935 17.8749 15.24 30.8949 14.775 45.3099H14.155C14.31 28.4149 26.4 14.4649 43.76 13.9999C58.33 13.5349 72.125 22.6799 75.535 38.9549Z" fill="#0063AB"/>
<path d="M40.505 51.975L47.17 31.36H48.1L41.59 52.13L40.505 51.975V51.975ZM45.775 57.245L52.285 36.785H53.525L47.015 57.245H45.775ZM53.68 39.265C53.835 38.645 54.145 37.56 54.455 36.63H62.05C66.7 37.405 66.235 45.775 61.12 46.705C64.995 49.65 61.585 56.78 57.4 56.78H48.1C48.255 56.315 48.565 55.54 48.72 55.075C51.51 54.92 54.145 55.075 56.935 55.075C60.5 53.06 61.12 49.185 59.105 46.705C64.53 45 62.825 39.11 60.965 39.11C58.02 39.265 56.315 39.42 53.68 39.265V39.265Z" fill="#0063AB"/>
<path d="M48.875 54.3C49.03 53.99 49.185 53.37 49.34 53.06H55.23C56.625 52.44 56.935 51.045 56.625 49.805H50.27C50.58 49.03 50.89 47.945 51.2 47.015H57.71C59.725 48.255 58.795 53.37 56.315 54.145L48.875 54.3ZM51.51 46.085H58.02C59.88 45.775 61.12 43.76 61.275 42.52C61.275 41.9 60.965 40.815 60.345 40.66H53.215L52.905 41.435H59.415C60.345 42.365 59.415 44.845 57.71 45H51.665L51.51 46.085V46.085ZM23.765 52.13L30.43 31.36H34.46L27.95 51.975L23.765 52.13ZM49.03 33.84L49.805 31.36H52.905L52.13 33.995L49.03 33.84ZM53.06 33.84L53.835 31.36H55.075L54.3 33.995L53.06 33.84ZM48.41 35.7L48.72 34.77H51.82L51.51 35.7H48.41ZM52.595 35.7L52.905 34.77H54.145L53.835 35.7H52.595ZM43.915 28.57L44.69 26.09H47.79L47.015 28.725L43.915 28.57ZM47.945 28.57L48.72 26.09H49.805L49.03 28.725L47.945 28.57ZM43.295 30.43L43.605 29.5H46.705L46.395 30.43H43.295ZM47.325 30.43L47.635 29.5H48.565L48.255 30.43H47.325ZM23.92 48.1L24.23 46.86H14V48.1H23.92Z" fill="#0063AB"/>
<path d="M14.465 49.3399H23.61C23.3 50.4249 22.99 51.5099 22.68 52.1299H21.905C22.06 52.4399 22.06 52.5949 22.06 52.7499C24.85 61.7399 31.05 70.8849 45 72.1249C62.67 73.0549 74.295 60.6549 75.38 46.3949H76C74.915 63.1349 62.05 76.3099 44.845 75.9999C30.12 75.5349 16.945 65.7699 14.465 49.3399V49.3399Z" fill="#0063AB"/>
</svg>
