<svg xmlns="http://www.w3.org/2000/svg" width="90" height="90" fill="none"><circle cx="45" cy="45" r="45" fill="#000"/><g fill="#fff" clip-path="url(#a)"><path d="M36.697 61.242v1.482c0 5.432-.278 5.723-5.675 4.974-.667-.09-1.768-1.196-1.718-1.732.934-9.346-3.24-17.495-6.114-25.873a43.023 43.023 0 0 1-2.157-15.7c.056-1.66.69-2.292 2.363-2.343 5.297-.167 5.558-.2 5.225 5.03-.434 6.786 2.862 12.526 4.608 18.72 1.384 5.091 4.296 9.836 3.468 15.443ZM74 56.223a11.525 11.525 0 0 1-3.288 8.117 11.398 11.398 0 0 1-8.024 3.425c-.733 0-1.473.028-2.223 0-6.025-.112-4.741.984-6.965-5.215-.556-1.587-.139-2.358 1.579-2.347h6.381c3.046-.05 4.575-1.386 4.547-3.913-.028-2.526-1.59-3.862-4.63-3.912-2.863-.05-5.726-.095-8.588 0-1.929.073-2.78-.738-3.624-2.504-1.801-3.795-1.023-7.266.344-10.888 1.668-4.471 3.246-8.943 4.57-13.532.75-2.57 1.94-3.582 4.657-3.454 4.597.235 4.586.056 3.069 4.471a1994.378 1994.378 0 0 0-5.309 15.65c-.227.682-.317 1.41-.589 2.672 2.49 0 4.597-.033 6.704 0a11.397 11.397 0 0 1 8.034 3.358A11.523 11.523 0 0 1 74 56.223Z"/><path d="M50.399 63.652c1.356 4.119 1.317 4.13-3.335 4.13-2.502.704-3.675-.822-4.447-3.404-1.796-5.801-3.891-11.514-5.698-17.327a7.119 7.119 0 0 1-.083-4.046c1.951-6.165 4.174-12.263 6.131-18.434.606-1.883 1.54-2.57 3.519-2.537 5.402.072 5.397 0 3.64 5.114-1.756 5.114-3.64 10.38-5.241 15.65a8.136 8.136 0 0 0 .078 4.51c1.69 5.484 3.635 10.889 5.436 16.344Z"/></g><defs><clipPath id="a"><path fill="#fff" d="M21 22h53v46H21z"/></clipPath></defs></svg>