<svg xmlns="http://www.w3.org/2000/svg" width="90" height="90" fill="none"><circle cx="45" cy="45" r="45" fill="#F5F5F5"/><g fill="#123A92" clip-path="url(#a)"><path d="m62.24 68-8.89-17.17H36.17l-8.676 16.98-1.194-.918A28.214 28.214 0 0 1 17.98 57 27.752 27.752 0 0 1 15 44.493c0-4.339 1.02-8.619 2.98-12.505a28.214 28.214 0 0 1 8.32-9.894l1.194-.905 8.702 16.974H53.35L62.239 21l1.188.881a28.264 28.264 0 0 1 8.517 9.956A27.791 27.791 0 0 1 75 44.5c0 4.398-1.047 8.735-3.057 12.663a28.264 28.264 0 0 1-8.518 9.956L62.24 68ZM34.634 48.383h20.239l8.204 15.866a25.69 25.69 0 0 0 6.962-8.836A25.3 25.3 0 0 0 72.518 44.5a25.3 25.3 0 0 0-2.478-10.913 25.69 25.69 0 0 0-6.962-8.836l-8.204 15.86H34.635l-7.987-15.627a25.671 25.671 0 0 0-6.76 8.766 25.292 25.292 0 0 0-2.4 10.75c0 3.712.818 7.38 2.4 10.75a25.671 25.671 0 0 0 6.76 8.766l7.987-15.634Z"/><path d="m31.291 21.184 6.384 12.672h14.352L58 21.184H31.291ZM31.291 67.982l6.384-12.673h14.352L58 67.982H31.291Z"/></g><defs><clipPath id="a"><path fill="#fff" d="M15 21h60v47H15z"/></clipPath></defs></svg>