<svg width="90" height="90" viewBox="0 0 90 90" fill="none" xmlns="http://www.w3.org/2000/svg">
<circle cx="45" cy="45" r="45" fill="#F5F5F5"/>
<path d="M33.3 41.685H20.43C20.43 41.685 20.235 42.855 20.235 44.22V46.755C20.235 48.315 20.43 49.29 20.43 49.29H33.3V41.685ZM61.575 42.855H43.44V26.865H38.37V63.135H43.44V47.73H61.575V63.135H66.84V45V26.865H61.575V42.855Z" fill="white"/>
<path d="M43.44 42.855H61.575V26.865H66.84V45V63.135H61.575V47.73H43.44V63.135H38.37V26.865H43.44V42.855Z" fill="#002569"/>
<path d="M20.235 45.975V46.56H33.3V44.025H20.235V45.975Z" fill="#002569"/>
<path d="M33.3001 41.685V26.865H22.3801L20.4301 41.685H33.3001ZM20.4301 49.095C21.4051 53.58 23.7451 57.09 27.6451 60.015C29.4001 61.575 31.5451 62.55 33.1051 63.33V49.095H20.4301Z" fill="#C60C2E"/>
</svg>
