<svg xmlns="http://www.w3.org/2000/svg" width="90" height="90" fill="none"><circle cx="45" cy="45" r="45" fill="#F5F5F5"/><path fill="#005191" d="M47.73 66.501c2.941.31 6.908-2.133 11.92-7.716a166.229 166.229 0 0 0 10.295-12.738v18.961c-.252 2.094-2.11 3.742-4.373 3.742H29.346c2.806-2.54 5.825-6.204 8.554-10.411 2.748-4.207 3.212-5.487 5.147-9.675.774-.29 3.019-1.027 4.702-1.473-2.032 4.09-4.14 9.209-4.334 12.195-.368 4.168 1.374 6.824 4.315 7.115ZM37.3 50.564s-3.541 6.805-6.038 9.985c-1.393 1.687-6.695 10.353-10.372 7.561-3.541-3.528 5.534-10.818 7.334-12.059 3.096-2.443 9.076-5.487 9.076-5.487ZM24.567 26.737C21.219 29.45 20 32.204 20 32.204v-6.747c0-2.307 2.012-4.207 4.45-4.207h34.426s-2.012.155-3.947 2.23c-1.104 1.182-4.625 6.068-8.476 5.06-3.832-1.008-3.077-4.169-6.89-5.215-3.811-1.047-10.933.116-14.996 3.412Zm35.683-2.21c1.819-1.319 1.239-2.947-.077-3.277h5.398c2.013 0 3.716 1.318 4.238 3.083-3.038-.291-8.088 1.628-12.075 6.553-4.044 5.002-7.45 11.09-7.45 11.09s-3.135.91-4.76 1.395c.503-1.066 2.786-5.448 6.618-10.896 3.25-4.614 6.56-6.824 8.108-7.949ZM39.7 45.038C33.622 46.88 24.121 51.766 20 57.31V38.796c1.49 2.249 3.464 3.587 6.018 4.188 3.232.659 6.463.174 9.347-1.416a15.456 15.456 0 0 0 3.56-2.675c2.148-2.152 1.374-4.711-.387-5.235-1.76-.504-3.464.66-4.334 2.055-.89 1.416-2.052 3.141-5.825 3.141-1.896 0-4.141-1.202-4.722-3.916-.948-4.13 4.335-8.395 9.115-9.113 7.72-1.182 5.766 3.936 9.462 6.495.93.679 3.367 1.513 5.593-.019-1.18 1.667-6.193 9.364-8.128 12.738Zm22.446-14.076c2.284-2.578 5.98-4.343 7.547-2.462 1.548 1.9-3.115 5.642-6.134 7.503-3 1.861-5.902 3.47-8.379 4.517 1.548-2.869 5.34-7.697 6.966-9.558Zm1.297 9.268c1.8-1.222 4.722-3.47 6.502-5.235v7.27c-1.393 1.687-9.405 10.683-12.733 13.746-5.67 5.215-9.482 4.44-8.011-1.027a43.733 43.733 0 0 1 3.754-9.326c1.916-.756 6.753-2.87 10.488-5.428Z"/></svg>