<svg width="90" height="90" fill="none" xmlns="http://www.w3.org/2000/svg"><circle cx="45" cy="45" r="45" fill="#F5F5F5"/><g clip-path="url(#a)" fill="#194B8C"><path d="M34.916 19s.054 0 0 .045c-.738.763-4.668 5.003 4.847 3.404 10.43-1.796 25.733-6.287 28.517.36 2.783 6.645-2.89 12.043-8.43 14.522v-.045c.444-.664 3.192-5.03.498-6.583-2.926-1.689-16.344.207-19.883 1.05-3.54.845-11.987 4.41-14.228-.107-2.57-4.949 3.886-10.392 8.68-12.646ZM35.103 36.065c0-.045 0-.099-.053-.072-1.779 1.15-12.45 9.305-13.908 20.38-1.307 9.95 6.518 16.57 16.184 15.492 9.666-1.078 18.55-11.056 20.132-19.732 1.583-8.676-1.965-12.934-8.892-13.014-5.762-.063-10.51 3.44-11.916 4.598-.062.045 0 .126.063.099 1.876-.988 8.723-4.24 12.929-1.518 4.908 3.17.382 9.88-1.992 13.086-2.374 3.207-8.439 8.21-14.343 6.664-5.905-1.544-11.258-9.924 1.796-25.983Z"/></g><defs><clipPath id="a"><path fill="#fff" transform="translate(21 19)" d="M0 0h48v53H0z"/></clipPath></defs></svg>