<svg width="90" height="90" fill="none" xmlns="http://www.w3.org/2000/svg"><circle cx="45" cy="45" r="45" fill="#008D5C"/><path d="M44.17 31.963v26.971h-6.352V47.876H25.351v11.058H19V31.963h6.351v10.634h12.467V31.963h6.351Zm17.5 27.434c-2.797 0-5.332-.591-7.606-1.773-2.248-1.207-4.025-2.864-5.332-4.97-1.28-2.133-1.92-4.534-1.92-7.206 0-2.671.64-5.06 1.92-7.166 1.307-2.133 3.084-3.79 5.332-4.971 2.274-1.207 4.822-1.811 7.645-1.811 2.378 0 4.522.41 6.43 1.233 1.934.822 3.554 2.004 4.861 3.545l-4.077 3.699c-1.856-2.106-4.156-3.16-6.9-3.16-1.7 0-3.215.373-4.548 1.118a7.88 7.88 0 0 0-3.136 3.044c-.732 1.31-1.098 2.8-1.098 4.47 0 1.669.366 3.159 1.098 4.469A8.15 8.15 0 0 0 57.475 53c1.333.72 2.849 1.08 4.548 1.08 2.744 0 5.044-1.067 6.9-3.199l4.077 3.7c-1.307 1.566-2.927 2.76-4.862 3.582-1.934.823-4.09 1.234-6.468 1.234Z" fill="#FFD503"/></svg>