<svg width="90" height="90" viewBox="0 0 90 90" fill="none" xmlns="http://www.w3.org/2000/svg">
<circle cx="45" cy="45" r="45" fill="#F5F5F5"/>
<path d="M14.6278 62.1009H66.1915V17.3C12.6506 63.8422 20.402 57.1355 14.6278 62.1009Z" fill="#00858B"/>
<path d="M52.8342 43.6886V46.8678C54.2608 48.6877 58.5859 57.6074 51.4973 56.4615L51.5086 59.8092C62.4168 60.5732 59.4621 52.6981 57.44 46.8678L61.7763 46.879V59.8092L65.2926 59.7643L65.3263 43.7111H52.8342V43.6886V43.6886Z" fill="black"/>
<path d="M52.5425 46.9461V43.7219H41.5558V60.0673H51.318C52.9582 60.0673 53.2839 57.6408 53.0817 56.4949C53.0368 56.1241 51.026 49.7096 50.4193 49.7096H47.1277C47.2176 49.9904 47.667 50.5184 47.667 50.7881C48.3747 52.2035 50.1384 55.8882 48.9139 56.6858H44.9146V46.9572H52.5425V46.9461V46.9461Z" fill="black"/>
<path d="M65.866 35.9033L70 28.4664L48.9925 33.1284C55.2611 32.9936 59.8782 33.4767 65.866 35.9033ZM33.3777 37.1619C39.5451 34.1287 46.0607 33.331 49.0153 33.1514C48.521 33.2413 34.0854 36.8923 33.3777 37.1619V37.1619Z" fill="#D7B369"/>
<path d="M33.6806 36.9924C28.5691 39.5427 23.9521 43.3284 24.4351 47.9119C25.3113 51.3944 29.4566 53.5962 36.8486 55.0454C37.0732 55.0454 36.7587 55.5734 36.7587 55.5284C30.9956 55.1352 10.6511 54.0793 8.04485 49.361C7.08996 45.1034 21.5705 40.5199 33.6806 36.9924Z" fill="#D7B369"/>
<path d="M50.0484 47.5865V44.3624H38.9829V60.7078H48.4531C50.0933 60.7078 50.6437 58.2812 50.4414 57.1353C50.3517 55.5514 48.3296 50.6309 47.8464 50.35H44.555C45.038 51.8329 47.9588 56.4051 46.3411 57.4498L42.3419 57.4162V47.5977H50.0484V47.5865Z" fill="white"/>
<path d="M51.071 44.4641V47.6657C52.3517 49.3171 56.4184 57.3494 51.2059 57.3494L51.2395 60.6183C58.9909 60.6296 57.1935 52.8444 54.8568 47.6544L59.6088 47.6657V60.6408H62.9564L62.9453 44.3966L51.071 44.4641V44.4641Z" fill="white"/>
</svg>
