<svg xmlns="http://www.w3.org/2000/svg" width="90" height="90" fill="none"><circle cx="45" cy="45" r="45" fill="#F5F5F5"/><path fill="#2F9A41" d="M39.268 26.069c-4.466 0-8.364 1.276-11.767 3.828.85-.851 1.772-1.63 2.765-2.41 4.324-3.12 9.073-4.182 14.318-3.403 5.245.85 9.427 3.403 12.546 7.655 3.118 4.324 4.252 9.073 3.402 14.39-.142 1.063-.425 2.126-.709 3.047 1.63-2.339 2.694-5.103 3.19-8.151.354-2.197.354-4.253.07-6.308 1.49 3.33 1.915 6.875 1.276 10.703-.85 5.245-3.402 9.427-7.725 12.545-4.04 2.907-8.577 4.112-13.539 3.474a13.26 13.26 0 0 1-.212-2.41c-.142-3.119.425-6.025 1.63-8.719l-2.056-.425c-3.19 3.898-4.678 8.364-4.536 13.467 0 .638.07 1.206.142 1.773-2.552-.922-4.891-2.41-7.018-4.537-3.756-3.757-5.6-8.293-5.6-13.609 0-5.316 1.915-9.853 5.6-13.61 3.757-3.756 8.294-5.599 13.61-5.599 1.063 0 2.126.071 3.118.213-2.551-1.276-5.387-1.914-8.505-1.914Zm4.11 36.787c1.276.496 2.623.851 4.04 1.064 5.459.85 10.35-.284 14.815-3.545 4.395-3.26 7.088-7.584 7.939-12.97.85-5.388-.284-10.35-3.473-14.815-1.914-2.623-4.253-4.678-7.018-6.025-.07-.07-.141-.213-.212-.283-3.19-4.466-7.514-7.16-12.971-8.01-5.458-.85-10.35.284-14.815 3.544-3.969 2.906-6.52 6.663-7.655 11.341-3.119 3.615-4.678 7.868-4.678 12.83 0 5.528 1.914 10.206 5.812 14.105 3.615 3.615 7.939 5.529 12.971 5.812.355 2.198.993 4.253 2.056 6.096h8.08c-2.48-2.623-4.11-5.67-4.89-9.144Z"/></svg>