<svg xmlns="http://www.w3.org/2000/svg" width="90" height="90" fill="none"><circle cx="45" cy="45" r="45" fill="#00BEF0"/><g fill="#fff" clip-path="url(#a)"><path d="M73 44.92a28.337 28.337 0 0 1-5.682 16.794A27.512 27.512 0 0 1 53.047 72l-2.974-9.239a18.354 18.354 0 0 0 9.465-6.926 19.109 19.109 0 0 0 0-22.253 18.354 18.354 0 0 0-9.465-6.927l3.13-9.233a29.681 29.681 0 0 1 14.329 10.514A29.251 29.251 0 0 1 73 44.92ZM38.505 62.553l-3.131 9.025a29.147 29.147 0 0 1-14.088-10.494C17.686 56.257 16 50.377 16 44.29a28.158 28.158 0 0 1 5.468-16.795A29.215 29.215 0 0 1 35.562 17l3.13 9.025a19.057 19.057 0 0 0-9.23 6.927 17.47 17.47 0 0 0-3.366 11.129 18.201 18.201 0 0 0 3.131 11.332 17.439 17.439 0 0 0 9.278 7.14Z"/></g><defs><clipPath id="a"><path fill="#fff" d="M16 17h57v55H16z"/></clipPath></defs></svg>