<svg width="90" height="90" fill="none" xmlns="http://www.w3.org/2000/svg"><circle cx="45" cy="45" r="45" fill="#F5F5F5"/><g clip-path="url(#a)" fill="#1D5096"><path d="M50.578 16.06c-.893 3.736-1.781 7.44-2.69 11.231-1.493 0-2.974-.052-4.45.013-1.611.072-3.245.114-4.823.413-3.733.713-6.194 3.098-7.83 6.483-1.324 2.73-1.864 5.694-2.584 8.604-.55 2.225-1.214 4.44-1.504 6.713a21.95 21.95 0 0 0-.018 6.111c.545 3.486 3.286 5.836 6.907 6.238 1.843.207 3.708.21 5.7.313l-2.544 10.715c-1.782-.19-3.13-1.012-4.326-2.195a6541.249 6541.249 0 0 0-20.56-20.508c-2.767-2.75-2.383-7.488.763-9.709 10.66-7.472 21.315-14.944 31.966-22.416 1.685-1.186 3.443-2.164 5.599-2.048.1-.003.204.018.394.041ZM38.29 72.959c.864-3.504 1.71-6.972 2.6-10.434.048-.196.443-.426.68-.431 1.62-.04 3.244.06 4.858-.044a26.433 26.433 0 0 0 4.71-.625c3.866-.966 6.345-3.615 7.505-7.348 1.123-3.615 1.934-7.333 2.817-11.02a52.069 52.069 0 0 0 1.16-5.939c.327-2.745-.587-5.138-2.6-7.018s-4.507-2.74-7.243-2.799c-1.079-.025-2.155 0-3.351 0 .91-3.767 1.801-7.428 2.702-11.162 1.619.137 2.858.92 3.942 1.973 1.171 1.139 2.29 2.324 3.43 3.494 5.966 6.114 11.93 12.229 17.891 18.344 2.036 2.1 2.153 4.586.255 6.81-.555.634-1.183 1.2-1.87 1.683A18798.345 18798.345 0 0 1 44.28 70.968c-1.662 1.188-3.461 2.001-5.535 2.032a4.263 4.263 0 0 1-.456-.041Z"/><path d="M60.659 35.03c-.445-3.073-2.83-5.296-6.296-5.846-4.367-.698-8.78-.29-13.175-.259a9.734 9.734 0 0 0-1.446.155c-4.27.656-6.957 3.243-8.235 7.29-.962 3.038-1.652 6.168-2.44 9.26-.609 2.384-1.192 4.77-1.156 7.267.056 4.087 2.415 6.8 6.449 7.092 2.336.168 4.69.031 7.036.031 2.428 0 4.866.15 7.279-.033 3.443-.258 6.057-2.027 7.652-5.164.497-.97.89-1.992 1.174-3.047 1.056-4.04 2.125-8.082 3.013-12.161.318-1.508.367-3.06.145-4.586ZM47.01 41.326l-2.545 10.328a2.138 2.138 0 0 1-.414.822 2.068 2.068 0 0 1-2.495.574c-.619-.286-.764-.813-.637-1.432.566-2.526 1.14-5.048 1.723-7.568.471-2.017.942-4.033 1.474-6.034a5.66 5.66 0 0 1 .837-1.826c.463-.645 1.43-.803 2.138-.498.707.305.812.953.865 1.663-.323 1.324-.623 2.657-.947 3.97Z"/></g><defs><clipPath id="a"><path fill="#fff" transform="translate(10 16)" d="M0 0h69v57H0z"/></clipPath></defs></svg>