<svg width="90" height="90" fill="none" xmlns="http://www.w3.org/2000/svg"><circle cx="45" cy="45" r="45" fill="#F5F5F5"/><path d="M32.24 45c0-2.61.725-5.075 2.175-7.105 1.45-2.175 3.48-3.77 5.8-4.785 2.32-1.015 4.93-1.16 7.395-.725 2.465.435 4.785 1.74 6.67 3.48 1.885 1.74 3.045 4.06 3.48 6.67.435 2.465.29 5.075-.725 7.395-1.015 2.32-2.61 4.35-4.785 5.8a12.781 12.781 0 0 1-7.105 2.175c-3.48 0-6.67-1.305-9.135-3.77S32.24 48.48 32.24 45Z" fill="#4FAE2E"/><path d="M53.99 28.76c0-1.45.435-2.9 1.305-4.06.87-1.16 2.03-2.175 3.335-2.755 1.305-.58 2.9-.725 4.205-.435a7.394 7.394 0 0 1 3.77 2.03 7.394 7.394 0 0 1 2.03 3.77c.29 1.45.145 2.9-.435 4.205-.58 1.305-1.45 2.465-2.755 3.335-1.16.87-2.61 1.305-4.06 1.305-2.03 0-3.77-.725-5.22-2.175-1.305-1.45-2.175-3.335-2.175-5.22Z" fill="#016438"/><path d="M16 45c0-7.685 3.045-15.08 8.555-20.445C29.92 19.045 37.315 16 45 16v10.585c-3.625 0-7.25 1.015-10.295 3.045-3.045 2.03-5.365 4.93-6.815 8.265-1.45 3.335-1.74 7.105-1.015 10.73.725 3.625 2.465 6.96 5.075 9.425 2.61 2.61 5.945 4.35 9.57 5.075 3.625.725 7.395.29 10.73-1.16 3.335-1.45 6.235-3.77 8.265-6.815 2.03-3.045 3.045-6.67 3.045-10.295H74c0 3.77-.725 7.54-2.175 11.165-1.45 3.48-3.625 6.67-6.235 9.425-2.755 2.755-5.945 4.785-9.425 6.235C52.685 73.13 48.915 74 45 74c-3.77 0-7.54-.725-11.165-2.175-3.48-1.45-6.67-3.625-9.425-6.235-2.755-2.755-4.785-5.945-6.235-9.425C16.725 52.54 16 48.77 16 45Z" fill="#016438"/></svg>