<svg xmlns="http://www.w3.org/2000/svg" width="90" height="90" fill="none"><circle cx="45" cy="45" r="45" fill="#E61B25"/><path fill="#005BFF" fill-rule="evenodd" d="M90 45c0 14.391-6.755 27.204-17.267 35.441A44.804 44.804 0 0 1 45 90c-7.197 0-14-1.69-20.032-4.694C10.168 77.937 0 62.656 0 45 0 30.609 6.755 17.796 17.267 9.559A44.804 44.804 0 0 1 45 0c7.197 0 14 1.69 20.032 4.694C79.832 12.063 90 27.344 90 45Z" clip-rule="evenodd"/><path fill="#F91155" fill-rule="evenodd" d="m40.217 89.749 4.056-40.841.534-7.53 1.602-2.151L52.82 36l8.01 1.613.535 4.84L84.112 67.27a45.214 45.214 0 0 1-11.38 13.171A44.804 44.804 0 0 1 45 90c-1.616 0-3.212-.085-4.783-.251Z" clip-rule="evenodd"/><path fill="#fff" fill-rule="evenodd" d="M15.54 44.221a8.092 8.092 0 0 0-4.34 2.153 7.952 7.952 0 0 0-2.306 4.228 7.824 7.824 0 0 0 .574 4.755 7.878 7.878 0 0 0 3.244 3.54 8.044 8.044 0 0 0 4.724 1.027 8.1 8.1 0 0 0 4.475-1.86 7.97 7.97 0 0 0 2.586-4.068 7.83 7.83 0 0 0-.25-4.785A7.862 7.862 0 0 0 20.8 45.18a8.04 8.04 0 0 0-5.26-.959Zm2.852 11.715a4.317 4.317 0 0 1-2.604.221 4.244 4.244 0 0 1-2.237-1.32 4.174 4.174 0 0 1-1.033-2.368 4.202 4.202 0 0 1 .559-2.528 4.29 4.29 0 0 1 1.94-1.742 4.319 4.319 0 0 1 2.597-.303 4.25 4.25 0 0 1 2.28 1.25A4.175 4.175 0 0 1 21 51.48c.12.92-.072 1.855-.543 2.66a4.29 4.29 0 0 1-2.066 1.796Zm8.257-14.35a1.888 1.888 0 0 0-1.223 1.035 1.839 1.839 0 0 0 .034 1.587c.393.795 1.341 1.157 2.207.927l5.024-1.338L27.595 56.1a.524.524 0 0 0 .335.703.54.54 0 0 0 .291.005l12.265-3.267c.865-.23 1.508-1.017 1.453-1.903a1.825 1.825 0 0 0-.76-1.393 1.865 1.865 0 0 0-1.575-.29l-6.121 1.63 5.092-12.293a.528.528 0 0 0-.339-.71.544.544 0 0 0-.294-.004l-11.293 3.008Zm49.019-13.013c-.38.203-.68.529-.85.923-.17.393-.199.832-.082 1.242l1.582 5.939-11.782-5.063a.539.539 0 0 0-.733.626l3.266 12.262c.103.414.346.78.69 1.037.342.257.764.39 1.196.378a1.888 1.888 0 0 0 1.424-.757 1.846 1.846 0 0 0 .303-1.57l-1.596-5.99 11.782 5.063a.54.54 0 0 0 .727-.332.525.525 0 0 0 .006-.293L78.323 29.73a1.827 1.827 0 0 0-1.043-1.21 1.878 1.878 0 0 0-1.612.052Zm-24.517 9.94c4.12-1.097 7.772.234 8.285 2.158.512 1.924-1.994 4.895-6.114 5.992-4.12 1.098-7.773-.233-8.285-2.157-.513-1.924 1.993-4.895 6.114-5.992Zm-.95-3.566c-5.965 1.589-9.888 6.298-8.764 10.518 1.124 4.22 6.87 6.354 12.835 4.765 5.964-1.589 9.887-6.298 8.763-10.518-1.124-4.22-6.87-6.354-12.834-4.765Z" clip-rule="evenodd"/></svg>