<svg width="90" height="90" viewBox="0 0 90 90" fill="none" xmlns="http://www.w3.org/2000/svg">
<circle cx="45" cy="45" r="45" fill="#DD002E"/>
<path d="M23.55 28.17V61.83H29.655V33.45H37.08V61.83H43.185V28.17H23.55ZM67.935 50.445C67.77 46.65 66.45 39.225 56.88 39.225L56.715 39.06H53.91V33.615H64.635V28.17H48.135V61.83H57.375C58.86 61.83 60.345 61.5 61.665 61.005C62.985 60.51 64.14 59.52 65.13 58.53C66.12 57.375 66.945 56.22 67.44 54.735C67.935 53.415 68.1 51.93 67.935 50.445V50.445ZM56.055 56.385C55.395 56.385 53.91 56.055 53.91 56.055V44.175H55.065C58.2 44.175 61.665 43.845 61.665 50.115C61.665 56.055 57.87 56.385 56.055 56.385V56.385Z" fill="white"/>
</svg>
