<svg width="90" height="90" fill="none" xmlns="http://www.w3.org/2000/svg"><circle cx="45" cy="45" r="45" fill="#C11F3E"/><path d="M60.98 48.695c-1.904.861-4.364 3.099-4.364 3.099s.13-.979.196-1.436c.392-2.74 1.24-5.414 2.153-8.023 1.566-4.24 4.631-9.916.717-10.764-1.5-.327-3.196-.13-3.196-.13s.522-2.415 2.61-2.675c1.435-.196 4.24-.327 6.066-.457 3.262-.261 4.306-1.957 3.653-3.98-1.109-3.196-7.567-1.891-15.721-1.37-8.938.588-18.527 2.284-21.202 3.067-4.632 1.37-6.784 2.413-6.458 4.37.326 2.349 3.131 2.218 5.61 1.762 2.022-.392 7.828-1.5 11.808-2.023 5.675-.717 8.154-.913 8.154-.913s-2.74 8.155-5.545 15.722c-1.174 3.196-3.588 9.85-6.132 14.352-1.5 2.544-3.392 4.11-7.11 4.175-4.437.065-7.177-2.87-8.286-6.72-.913-3.261-.13-6.719 2.545-7.893 2.479-1.174 5.284-.13 5.284-.13s-.13.652-.979.978c-.457.13-2.153.457-2.414.587-.978.326-1.76 1.761-.456 3.262 2.022 2.218 5.806 1.696 7.763.26 1.957-1.434 3.523-4.826 2.479-7.501-1.044-2.675-4.371-3.458-7.633-3.458-5.088.066-8.872 2.284-10.503 5.937-1.565 3.588-1.565 9.785 1.696 14.352 2.936 4.175 8.024 5.675 11.482 5.48 3.066-.131 5.74-1.11 7.763-2.806 2.87-2.413 5.219-7.371 7.567-13.438 2.283-5.676 4.175-10.96 4.175-10.96s-.978 5.154-1.435 8.48c-.587 4.502-.457 8.09-.13 9.199.391 1.37 1.5 2.153 2.74 2.348 1.304.196 2.087-.782 3-1.957 3.262-4.11 3.797-4.018 5.284-5.088 3.288-2.361 1.853-7.078-1.18-5.708Z" fill="#fff"/></svg>