<svg xmlns="http://www.w3.org/2000/svg" width="90" height="90" fill="none"><circle cx="45" cy="45" r="45" fill="#058B8C"/><path fill="#fff" fill-rule="evenodd" d="M25.445 39.526c-2.253.22-7.556 1.496-7.556 5.282.044 4.182 6.717 4.754 9.059 4.71 4.242-.132 8.75-2.113 12.506-4.798v-.748c-3.756-3.478-9.634-4.842-14.009-4.446Zm19.533 10.872h-.089a8.135 8.135 0 0 0-.972 2.29c-.132.66-.22 1.276-.177 1.98.089.484.177.968.398 1.409l.619.748.088.044h.177l.133-.044.618-.748c.221-.44.31-.88.398-1.409.044-.704 0-1.32-.133-1.98-.22-.837-.486-1.585-.972-2.29h-.088Zm22.007 5.37-.044-.132c-1.68.177-4.508.133-6.187-.088a26.145 26.145 0 0 1-5.7-1.584v.132c.044.968.044 1.937 0 2.905a14.114 14.114 0 0 1-.62 3.081c4.066-.836 8.883-2.113 12.55-4.313Zm-43.97-.043.044-.133c1.68.177 4.463.133 6.143-.087a26.161 26.161 0 0 0 5.7-1.585v.132c-.044.968-.044 1.937.044 2.905.089 1.056.31 2.113.62 3.081-4.067-.792-8.928-2.069-12.551-4.313Zm30.05-21.085.088.176c4.11-1.056 9.148-1.717 13.39-1.056l.044-.177c-3.226-2.42-8.13-3.697-12.064-4.49-.31 1.937-.84 3.786-1.458 5.547Zm-16.13 0-.133.176c-4.11-1.056-9.147-1.717-13.345-1.056l-.044-.177c3.226-2.42 8.13-3.697 12.064-4.49.265 1.937.795 3.786 1.458 5.547Zm7.998-2.157h.133c.663-1.32 1.105-3.081 1.282-4.578-.442-.044-.884-.044-1.326-.044-.442 0-.884 0-1.326.044.133 1.54.575 3.301 1.238 4.578Zm19.621 7.043c2.254.22 7.557 1.496 7.513 5.282-.044 4.182-6.717 4.754-9.06 4.71-4.241-.132-8.705-2.113-12.505-4.798v-.748c3.756-3.478 9.633-4.842 14.052-4.446Zm-9.678 4.71c2.343 1.276 4.95 2.069 7.513 2.377 1.149.132 6.806.176 6.806-2.025 0-1.937-4.552-2.377-5.966-2.465-2.917-.088-5.657.616-8.352 1.893v.22Zm-3.358 5.458.486-.704c3.624 2.157 7.336 3.521 11.446 3.61 5.17.22 9.103-1.585 11.754-5.503l.663.528C73.614 59.598 55.981 63.735 47.894 64l-.176-.792c5.347-1.981 5.789-8.144 3.8-13.514Zm-6.32-3.742c2.033 1.937 3.315 4.623 3.58 7.66.089 2.817-.884 5.942-3.402 6.646l-.398.044-.398-.044c-2.519-.704-3.491-3.785-3.402-6.646.265-3.082 1.546-5.767 3.579-7.66h.442Zm4.11-20.82c-.574 4.446-1.723 8.76-4.065 12.281h-.53c-2.342-3.521-3.491-7.835-4.066-12.281a71.234 71.234 0 0 1 8.662 0Zm-10.87 24.562c-1.945 5.326-1.547 11.533 3.8 13.514l-.133.792c-7.998-.088-25.542-4.05-28.017-16.507l.707-.396c3.226 4.05 7.204 5.81 11.711 5.502 4.11-.132 7.866-1.496 11.445-3.61l.487.705Zm-10.96-13.205c-5.656 0-10.65 1.98-12.948 6.998l-.53-.352c.177-11.048 14.539-16.242 23.421-17.563.663 4.886 2.166 9.244 4.508 13.294l.75 1.232-.132.22-1.06-.528c-4.552-2.069-9.192-3.301-14.009-3.301Zm35 0c-4.817.176-9.457 1.232-13.965 3.3l-1.016.53-.221-.22.795-1.233c2.342-4.05 3.8-8.408 4.508-13.294C62.61 27.421 75.469 31.647 76 43.136l-.53.351c-2.873-5.282-6.496-6.998-12.993-6.998Zm-27.399 7.747a21.371 21.371 0 0 1-7.512 2.377c-1.194.132-6.762.176-6.806-2.025 0-1.937 4.596-2.377 5.966-2.465 2.916-.088 5.656.616 8.352 1.893v.22Z" clip-rule="evenodd"/></svg>