<svg width="90" height="90" viewBox="0 0 90 90" fill="none" xmlns="http://www.w3.org/2000/svg">
<circle cx="45" cy="45" r="45" fill="#F5F5F5"/>
<path fill-rule="evenodd" clip-rule="evenodd" d="M37.5228 24C48.8566 24 58.0469 33.4041 58.0469 45.0007C58.0469 56.5945 48.8566 66 37.5242 66C26.1917 66 17 56.5945 17 45.0007C17 33.4041 26.1917 24 37.5228 24ZM50.3671 61.3786H62.6751L65.2018 54.7188H55.7181C54.4065 57.2854 52.5845 59.5524 50.3656 61.3786H50.3671ZM57.7676 48.4636H67.5742L70.1009 41.8066H57.8125C58.1386 44.0151 58.1234 46.2612 57.7676 48.465V48.4636ZM55.8557 35.5542H72.4733L75 28.8958H50.6871C52.8396 30.7397 54.5981 33.0049 55.8557 35.5542V35.5542ZM30.2612 61.3786H50.3656C52.585 59.5526 54.4075 57.2856 55.7195 54.7188H32.7879L30.2598 61.3786H30.2612ZM50.6885 28.8944C52.8405 30.7384 54.5985 33.0037 55.8557 35.5528H40.0607L42.5861 28.8944H50.6885V28.8944ZM57.8125 41.8066C58.1386 44.0151 58.1234 46.2612 57.7676 48.465H35.1603L37.687 41.8066H57.8125Z" fill="#EC6608"/>
</svg>
