<svg width="90" height="90" viewBox="0 0 90 90" fill="none" xmlns="http://www.w3.org/2000/svg">
<circle cx="45" cy="45" r="45" fill="#F5F5F5"/>
<path d="M60.5288 25.5263L54.0837 14.8163C53.9336 14.5671 53.7216 14.361 53.4684 14.218C53.2151 14.0749 52.9291 13.9999 52.6383 14H37.0574C36.6651 14.0007 36.2797 14.1029 35.9387 14.2968C35.5977 14.4907 35.3128 14.7696 35.1116 15.1063L18.4985 42.9167C18.1704 43.4666 17.9981 44.0954 18 44.7357C18.002 45.376 18.1782 46.0038 18.5097 46.5516L35.5323 74.6687C35.7798 75.0775 36.1286 75.4156 36.5449 75.6502C36.9612 75.8849 37.431 76.0083 37.9089 76.0085H53.8187C54.1758 76.0083 54.5274 75.92 54.8422 75.7514C55.1571 75.5829 55.4255 75.3392 55.6236 75.0421L61.383 66.403H41.4177C41.2246 66.403 41.0347 66.3531 40.8666 66.2579C40.6986 66.1628 40.558 66.0257 40.4587 65.86L28.6119 46.1245C28.4516 45.8588 28.3669 45.5545 28.3669 45.2442C28.3669 44.934 28.4516 44.6296 28.6119 44.364L39.6008 26.1795C39.7016 26.0125 39.8438 25.8743 40.0135 25.7781C40.1832 25.6818 40.3748 25.6309 40.5699 25.6301L60.5288 25.5263Z" fill="#BA4452"/>
<path d="M42.6296 27.7824L52.0221 43.5171H70.8061L66.7811 36.6866L61.8435 36.6922L63.7726 40.1417H55.0612L49.916 31.1959H58.7442L60.2063 33.4177H64.5917L61.383 27.7824H42.6296Z" fill="#68757C"/>
<path d="M47.6951 51.8922L50.4284 47.5078L39.7221 29.5688L30.7244 45.0042L41.7726 63.3388L44.3354 59.1249L35.5081 44.5465L39.3969 37.8262L47.6951 51.8922Z" fill="#68757C"/>
<path d="M69.1762 50.5988L71.6019 46.7693H54.7498L45.2406 63.3398H62.0788C62.2 63.3397 62.3192 63.3096 62.4259 63.2522C62.5326 63.1948 62.6235 63.1119 62.6903 63.0108L68.2413 54.62C68.2826 54.5579 68.3063 54.4858 68.3098 54.4114C68.3133 54.3369 68.2965 54.2629 68.2612 54.1972C68.2259 54.1316 68.1734 54.0767 68.1093 54.0386C68.0453 54.0005 67.9721 53.9804 67.8976 53.9807H55.643L57.4961 50.5969L69.1762 50.5988ZM62.5977 56.727L60.1136 60.4332H51.9405L54.0475 56.727H62.5977Z" fill="#68757C"/>
</svg>
