<svg xmlns="http://www.w3.org/2000/svg" width="90" height="90" fill="none"><circle cx="45" cy="45" r="45" fill="#F5F5F5"/><path fill="#B0CA44" d="M38.92 69.48 51.88 77v-7.68c10.56-3.04 18.4-12.8 18.4-24.32 0-9.92-5.76-18.72-14.24-22.72l-2.4 6.88c5.6 3.04 9.44 8.96 9.44 15.84 0 7.52-4.64 13.92-11.2 16.64V33.8L38.92 69.48Z"/><path fill="#494A52" d="M38.28 20.68C27.56 23.56 19.72 33.32 19.72 45c0 9.92 5.76 18.72 14.24 22.72l2.4-6.88c-5.6-3.04-9.28-8.96-9.28-15.84 0-7.52 4.64-13.92 11.2-16.64V56.2l12.96-35.52L38.28 13v7.68Z"/></svg>