<svg width="90" height="90" fill="none" xmlns="http://www.w3.org/2000/svg"><circle cx="45" cy="45" r="45" fill="#F5F5F5"/><path d="M69 62.983C69 66.27 66.33 69 63.026 69H26.974C23.67 68.93 21 66.271 21 62.983V27.017C21 23.727 23.67 21 26.974 21h35.982c3.303 0 5.974 2.729 5.974 6.017v35.966H69Z" fill="#B49F64"/><path d="M44.965 41.991A2.993 2.993 0 0 1 47.987 45a2.993 2.993 0 0 1-3.022 3.008A2.993 2.993 0 0 1 41.943 45c.07-1.68 1.406-3.009 3.022-3.009Zm4.498-6.017a2.993 2.993 0 0 0-3.022 3.008 2.993 2.993 0 0 0 3.022 3.009 2.993 2.993 0 0 0 3.022-3.009 2.993 2.993 0 0 0-3.022-3.008Zm-8.996 0a2.993 2.993 0 0 0-3.022 3.008 2.993 2.993 0 0 0 3.022 3.009 2.993 2.993 0 0 0 3.022-3.009 2.993 2.993 0 0 0-3.022-3.008Zm13.494-6.018a2.993 2.993 0 0 1 3.022 3.009 2.993 2.993 0 0 1-3.022 3.009 2.993 2.993 0 0 1-3.022-3.01c.07-1.678 1.405-3.008 3.022-3.008Zm-8.996 0a2.993 2.993 0 0 1 3.022 3.009 2.993 2.993 0 0 1-3.022 3.009 2.993 2.993 0 0 1-3.022-3.01c.07-1.678 1.406-3.008 3.022-3.008Zm-5.973 3.009a2.993 2.993 0 0 1-3.022 3.009 2.993 2.993 0 0 1-3.022-3.01 2.993 2.993 0 0 1 3.022-3.008 2.993 2.993 0 0 1 3.022 3.009Zm10.471 14.974a2.993 2.993 0 0 0-3.022 3.008 2.993 2.993 0 0 0 3.022 3.01 2.993 2.993 0 0 0 3.022-3.01c0-1.609-1.335-3.008-3.022-3.008Zm-8.996 0a2.993 2.993 0 0 0-3.022 3.008 2.993 2.993 0 0 0 3.022 3.01 2.993 2.993 0 0 0 3.022-3.01c0-1.609-1.335-3.008-3.022-3.008Zm13.494 6.017a2.993 2.993 0 0 1 3.022 3.009c0 1.61-1.335 3.009-3.022 3.009-1.687 0-3.022-1.4-3.022-3.01.07-1.678 1.405-3.008 3.022-3.008Zm-8.996 0a2.993 2.993 0 0 1 3.022 3.009c0 1.61-1.335 3.009-3.022 3.009-1.687 0-3.022-1.4-3.022-3.01.07-1.678 1.406-3.008 3.022-3.008Zm-8.995 0a2.993 2.993 0 0 1 3.022 3.009c0 1.61-1.336 3.009-3.022 3.009-1.687 0-3.022-1.4-3.022-3.01.07-1.678 1.405-3.008 3.022-3.008Z" fill="#fff"/></svg>