<svg width="90" height="90" fill="none" xmlns="http://www.w3.org/2000/svg"><circle cx="45" cy="45" r="45" fill="#FF8C00"/><path d="M62.1 54.294c.139.936-.156 1.324-.453 1.324-.323 0-.732-.379-1.21-1.129-.475-.738-.645-1.585-.412-2.016.154-.282.48-.406.89-.251.79.3 1.1 1.513 1.184 2.072Zm-4.383 2.04c.95.804 1.238 1.759.735 2.432-.279.369-.732.573-1.274.573a2.257 2.257 0 0 1-1.452-.527c-.862-.753-1.116-1.978-.552-2.673.22-.273.577-.422 1.008-.422.521 0 1.067.22 1.535.617Zm-1.588 7.75c4.09 0 8.529 1.402 13.441 5.756.493.438 1.148-.105.72-.648-4.829-6.097-9.295-7.257-13.748-8.237-5.446-1.2-8.25-4.264-10.203-7.632-.388-.67-.562-.552-.599.31a18.978 18.978 0 0 0 .267 3.815c-.22.009-.44.006-.664.006-7.793 0-14.11-6.317-14.11-14.11 0-7.794 6.317-14.112 14.11-14.112 7.794 0 14.11 6.318 14.11 14.111 0 .555-.027 1.104-.09 1.64-1.029-.185-3.057-.207-4.48-.083-.537.046-.46.295-.056.369 4.664.843 7.868 3.734 8.603 8.978.015.121.173.158.235.053a21.24 21.24 0 0 0 3.021-10.957C66.692 31.558 57.134 22 45.346 22S24 31.558 24 43.346s9.558 21.346 21.346 21.346c3.126 0 6.23-.607 10.783-.607Z" fill="#fff"/></svg>