<svg xmlns="http://www.w3.org/2000/svg" width="90" height="90" fill="none"><circle cx="45" cy="45" r="45" fill="#FFED00"/><path fill="#FFED00" d="M22.584 22.584h44.784v44.784H22.584V22.584Z"/><path fill="#000" d="M69 69H21V21h48v48Zm-1.584-46.416H22.584v44.784h44.784V22.584h.048Z"/><path fill="#000" d="M45 50.472 31.224 64.2 25.8 58.776 39.528 45 36.6 42.12v-5.664l-1.92-2.016v4.944L33 41.112 25.944 34.2l-1.728 1.68c.03-3.098 1.27-6.06 3.456-8.256 3.456-3.312 7.2-1.824 8.4-.528l7.008 7.008-1.68 1.776 3.6 3.6 3.696-3.696-1.776-1.728L53.88 27a6 6 0 0 1 8.4.528 12 12 0 0 1 3.504 8.256l-1.728-1.728-6.96 7.104-1.728-1.728V34.44L53.4 36.456v5.664L50.472 45 64.2 58.776 58.824 64.2 45 50.472Z"/></svg>