<svg width="90" height="90" viewBox="0 0 90 90" fill="none" xmlns="http://www.w3.org/2000/svg">
<circle cx="45" cy="45" r="45" fill="#F5F5F5"/>
<path d="M74 55.1596L73.5477 51.5826C73.0128 45.5715 70.8114 39.8306 67.1894 35.0037C64.0252 31.0719 59.8608 28.0673 55.1315 26.3032V16L51.6239 16.3829C45.594 16.9196 39.8362 19.136 35.0037 22.7825C31.0738 25.9447 28.0635 30.1035 26.29 34.8272H16L16.4241 38.4043C16.9665 44.4248 19.1942 50.1694 22.85 54.9832C26.0104 58.9206 30.1767 61.9327 34.9079 63.6968V74L38.47 73.5759C44.4792 73.0372 50.2201 70.8358 55.0489 67.2175C58.9862 64.0571 61.9984 59.8908 63.7625 55.1596H74V55.1596ZM51.0365 62.1898C48.1444 64.3931 44.7907 65.9113 41.2269 66.6301V45.4326H34.8423V56.7098C32.1098 55.3548 29.7057 53.418 27.7989 51.0365C25.605 48.1407 24.0924 44.787 23.3736 41.2269H44.5824V34.8272H33.2921C34.6471 32.0985 36.5839 29.6982 38.9654 27.7989C41.8537 25.6013 45.2036 24.0887 48.7619 23.3736V44.8452H55.1615V33.279C57.8902 34.6358 60.2887 36.5707 62.1898 38.9523C64.3893 41.8443 65.9038 45.1999 66.6151 48.7619H45.609V55.1615H56.7079C55.3529 57.8884 53.4161 60.2887 51.0365 62.1898Z" fill="#00863E"/>
</svg>
