<svg width="90" height="90" viewBox="0 0 90 90" fill="none" xmlns="http://www.w3.org/2000/svg">
<circle cx="45" cy="45" r="45" fill="#F5F5F5"/>
<path d="M23.645 52.83V49.995H30.26V46.62H20V64.44H28.505L31.07 61.875V55.53L28.37 52.965C28.37 52.83 23.645 52.83 23.645 52.83V52.83ZM27.29 60.93H23.645V56.205H27.29V60.93ZM35.795 46.485L32.15 64.305H35.795L36.605 60.12H41.33L42.14 64.305H45.785L42.14 46.485H35.795V46.485ZM37.28 56.745L38.63 49.995H39.305L40.655 56.745H37.28ZM55.505 53.775H51.05V46.485H47.405V64.305H51.05V57.285H55.505V64.305H59.15V46.485H55.505V53.775ZM70.76 55.26L73.865 46.485H70.085L67.655 53.505H65.63V46.485H61.85V64.305H65.63V57.015H67.52L70.085 64.305H74L70.76 55.26Z" fill="#525455"/>
<path d="M33.095 43.515H36.74V29.07H41.465V25.695H33.095V43.515ZM20.135 25.695V43.515H23.78V39.06H28.505L31.205 36.495V28.395L28.505 25.695H20.135V25.695ZM27.425 35.55H23.645V29.07H27.29V35.55H27.425ZM46.19 29.07H51.455V25.695H45.11L42.545 28.26V40.95L45.11 43.515H51.455V40.005H46.19V29.07Z" fill="#990032"/>
</svg>
