<svg xmlns="http://www.w3.org/2000/svg" width="90" height="90" fill="none"><circle cx="45" cy="45" r="45" fill="#F5F5F5"/><path fill="#555D63" d="M24.281 23.596c1.726-.345 4.143-.596 7.563-.596 3.452 0 5.9.753 7.563 2.29 1.569 1.444 2.636 3.83 2.636 6.654s-.816 5.209-2.26 6.81c-1.914 2.102-4.738 3.012-8.033 3.012-.722 0-1.38-.032-1.914-.126v10.293H24.28V23.596Zm5.523 13.055c.471.125 1.067.157 1.883.157 2.981 0 4.802-1.758 4.802-4.676 0-2.636-1.57-4.237-4.362-4.237-1.13 0-1.915.126-2.323.251v8.505ZM50.117 23.22v11.046h9.195V23.22h5.585v28.745h-5.585v-12.02h-9.195v12.02H44.5V23.22h5.617Z"/><path fill="#F68C28" d="M64.75 61.25h-40.5V68h40.5v-6.75Z"/></svg>