<svg width="90" height="90" fill="none" xmlns="http://www.w3.org/2000/svg"><circle cx="45" cy="45" r="45" fill="#F5F5F5"/><path d="M68.93 64.909H13l5.07-16.523H74L68.93 64.91Z" fill="#00B2C3"/><path d="M36.859 42.192V31.856h4.56v3.42h2.096v-3.42h4.552v10.336h-4.552v-3.427h-2.097v3.427h-4.56Zm22.554-5.753 1.731-4.583H56.7l-1.388 3.42h-.808v-3.42h-4.56v10.336h4.56v-3.427h1.083l1.387 3.427h4.553l-2.113-5.753Zm10.195-3.443a3.919 3.919 0 0 0-2.974 1.224 2.57 2.57 0 0 1 1.525-2.174c1.525-.646 3.294-.197 4.575-1.284V27a12.71 12.71 0 0 1-3.05.669c-1.54.16-3.025.654-4.354 1.444-1.852 1.163-3.172 3.04-3.172 6.939 0 5.046 2.928 6.467 5.948 6.467 3.02 0 5.627-1.52 5.627-4.81 0-3.177-1.898-4.705-4.14-4.705l.015-.008Zm-1.655 6.042c-1.098 0-1.357-.858-1.357-1.52 0-.66.26-1.52 1.357-1.52 1.098 0 1.335.836 1.335 1.52s-.26 1.52-1.335 1.52ZM35.28 37.024c0-2.538-1.144-4.94-3.767-5.426l-.213-.038c-.152 0-.313-.038-.473-.046h-.617a4.142 4.142 0 0 0-3.058 1.566l-.427-1.224h-3.584v14.44h4.575v-4.734c.353.308.762.546 1.205.699.519.193 1.07.283 1.624.266 3.31 0 4.75-2.668 4.75-5.51l-.015.007Zm-6.268 1.87a1.529 1.529 0 0 1-1.341-.76v-2.28a1.583 1.583 0 0 1 1.341-.76c1.098 0 1.579.95 1.579 1.87.007.113.007.228 0 .342a1.564 1.564 0 0 1-1.525 1.52" fill="#2C384A"/></svg>