<svg width="90" height="90" fill="none" xmlns="http://www.w3.org/2000/svg"><circle cx="45" cy="45" r="45" fill="#555857"/><path d="M35.034 62V27.09h13.773c2.648 0 4.903.507 6.767 1.518 1.864 1 3.284 2.392 4.261 4.176.989 1.773 1.483 3.818 1.483 6.136 0 2.319-.5 4.364-1.5 6.137-1 1.773-2.449 3.153-4.346 4.142-1.887.989-4.17 1.483-6.853 1.483h-8.778v-5.915h7.585c1.42 0 2.591-.244 3.511-.733.932-.5 1.626-1.187 2.08-2.062.466-.887.699-1.904.699-3.052 0-1.159-.233-2.17-.699-3.034-.455-.875-1.148-1.55-2.08-2.028-.931-.489-2.113-.733-3.545-.733h-4.977V62h-7.38Z" fill="#fff"/></svg>