<svg width="90" height="90" fill="none" xmlns="http://www.w3.org/2000/svg"><g clip-path="url(#a)"><circle cx="45" cy="45" r="45" fill="#EFEFEF"/><path d="m49.77 37-8.623 1.127v2.556l8.622-.768V37Z" fill="#E40038"/><path d="M23.424 46.31c0 1.55.461 2.09 1.944 2.09 1.482 0 1.937-.526 1.937-2.09 0-1.564-.447-2.09-1.938-2.09-1.49 0-1.943.531-1.943 2.09Zm-2.603-.024c0-2.843 1.58-4.141 4.546-4.141 2.968 0 4.558 1.298 4.558 4.141 0 2.844-1.58 4.19-4.558 4.19-2.977 0-4.546-1.346-4.546-4.19ZM48.137 42.858l-6.99-4.739v2.554l2.18 1.474.428.264a2.678 2.678 0 0 0-1.534.395c-1.077.65-1.635 1.793-1.635 3.483 0 2.843 1.58 4.189 4.55 4.189 2.969 0 4.567-1.348 4.567-4.192 0-1.645-.545-2.77-1.566-3.428Zm-3.002 5.53c-1.482 0-1.945-.527-1.945-2.091s.463-2.09 1.945-2.09c1.483 0 1.935.526 1.935 2.09 0 1.564-.445 2.103-1.935 2.103v-.013ZM16.334 42.129c-1.07.02-2.09.462-2.835 1.23v-1.054H11V53h2.483v-3.8a4.052 4.052 0 0 0 2.843 1.222c2.351 0 3.642-1.276 3.642-4.149s-1.29-4.144-3.634-4.144Zm-.89 6.221c-1.482 0-1.945-.526-1.945-2.09 0-1.564.463-2.09 1.945-2.09 1.483 0 1.935.526 1.935 2.09 0 1.564-.445 2.09-1.935 2.09ZM66.772 42.324v2.898H63.48v-2.898H60.98v7.846h2.499V47.23h3.293v2.939h2.499v-7.846h-2.499ZM50.551 46.273c0 2.872 1.293 4.15 3.641 4.15a4.047 4.047 0 0 0 2.844-1.222v.971h2.483v-7.859H57.02v1.053a4.055 4.055 0 0 0-2.84-1.237c-2.336 0-3.629 1.277-3.629 4.144Zm2.588 0c0-1.559.445-2.09 1.935-2.09s1.946.526 1.946 2.09c0 1.564-.463 2.09-1.946 2.09-1.482 0-1.935-.552-1.935-2.103v.013ZM37.173 47.27c-.192.82-.721 1.13-1.843 1.13-1.482 0-1.943-.526-1.943-2.09 0-1.564.461-2.09 1.943-2.09 1.13 0 1.659.305 1.843 1.129l2.607-.198c-.39-2.053-1.912-3.006-4.455-3.006-2.972 0-4.547 1.298-4.547 4.141 0 2.844 1.567 4.19 4.547 4.19 2.538 0 4.047-.975 4.447-3.01l-2.599-.195ZM79.844 50.17l-3.954-4.12 3.744-3.726h-3.091l-3.355 3.407v-3.407h-2.454v7.846h2.454V46.557l3.444 3.613h3.212Z" fill="#00234D"/></g><defs><clipPath id="a"><path fill="#fff" d="M0 0h90v90H0z"/></clipPath></defs></svg>