<svg width="90" height="90" viewBox="0 0 90 90" fill="none" xmlns="http://www.w3.org/2000/svg">
<g clip-path="url(#clip0_807_2673)">
<circle cx="45" cy="45" r="45" fill="#EFEFEF"/>
<path d="M49.7692 37L41.1465 38.1269V40.6834L49.7692 39.9146V37Z" fill="#E40038"/>
<path d="M23.4245 46.3099C23.4245 47.8606 23.8852 48.4004 25.3675 48.4004C26.8498 48.4004 27.3053 47.8738 27.3053 46.3099C27.3053 44.746 26.8578 44.2194 25.3675 44.2194C23.8773 44.2194 23.4245 44.7512 23.4245 46.3099ZM20.8206 46.2862C20.8206 43.4427 22.4003 42.1447 25.3675 42.1447C28.3348 42.1447 29.9251 43.4427 29.9251 46.2862C29.9251 49.1297 28.3453 50.4751 25.3675 50.4751C22.3898 50.4751 20.8206 49.1297 20.8206 46.2862Z" fill="#00234D"/>
<path d="M48.1366 42.8581L41.1463 38.119V40.6728L43.3264 42.1472L43.7555 42.4105C43.2157 42.3843 42.6806 42.522 42.2206 42.8055C41.1437 43.4558 40.5856 44.5985 40.5856 46.2888C40.5856 49.1323 42.1653 50.4777 45.1352 50.4777C48.105 50.4777 49.7032 49.1297 49.7032 46.2861C49.7032 44.6406 49.1582 43.5163 48.1366 42.8581ZM45.1352 48.3872C43.6529 48.3872 43.1895 47.8606 43.1895 46.2967C43.1895 44.7327 43.6529 44.2062 45.1352 44.2062C46.6175 44.2062 47.0703 44.7327 47.0703 46.2967C47.0703 47.8606 46.6254 48.4003 45.1352 48.4003V48.3872Z" fill="#00234D"/>
<path d="M16.3342 42.1288C15.2639 42.1491 14.2449 42.591 13.4986 43.3584V42.3053H11V53H13.4828V49.2008C14.2317 49.9682 15.2542 50.4075 16.3263 50.4224C18.6775 50.4224 19.9676 49.1455 19.9676 46.273C19.9676 43.4005 18.6775 42.1288 16.3342 42.1288ZM15.4443 48.3503C13.962 48.3503 13.4986 47.8237 13.4986 46.2598C13.4986 44.6959 13.962 44.1693 15.4443 44.1693C16.9266 44.1693 17.3794 44.6959 17.3794 46.2598C17.3794 47.8237 16.9345 48.3503 15.4443 48.3503Z" fill="#00234D"/>
<path d="M66.7722 42.3236V45.2224H63.4786V42.3236H60.98V50.1696H63.4786V47.2313H66.7722V50.1696H69.2708V42.3236H66.7722Z" fill="#00234D"/>
<path d="M50.551 46.273C50.551 49.1455 51.8438 50.4224 54.1923 50.4224C55.2646 50.408 56.2873 49.9686 57.0358 49.2008V50.1723H59.5188V42.3132H57.02V43.3663C56.2743 42.594 55.2526 42.149 54.1791 42.1288C51.8438 42.1288 50.551 43.4058 50.551 46.273ZM53.1392 46.273C53.1392 44.7143 53.5841 44.1825 55.0743 44.1825C56.5645 44.1825 57.02 44.7091 57.02 46.273C57.02 47.8369 56.5566 48.3635 55.0743 48.3635C53.592 48.3635 53.1392 47.8106 53.1392 46.2598V46.273Z" fill="#00234D"/>
<path d="M37.1733 47.2709C36.9811 48.0897 36.4519 48.4004 35.3303 48.4004C33.848 48.4004 33.3873 47.8738 33.3873 46.3099C33.3873 44.746 33.848 44.2194 35.3303 44.2194C36.4598 44.2194 36.989 44.5248 37.1733 45.3489L39.7799 45.1514C39.3902 43.0978 37.8684 42.1447 35.3251 42.1447C32.3526 42.1447 30.7781 43.4427 30.7781 46.2862C30.7781 49.1297 32.3446 50.4751 35.3251 50.4751C37.8631 50.4751 39.3718 49.5009 39.772 47.4657L37.1733 47.2709Z" fill="#00234D"/>
<path d="M79.8442 50.1696L75.8896 46.0491L79.6339 42.3236H76.5428L73.1884 45.7306V42.3236H70.7345V50.1696H73.1884V47.4261V46.7469V46.5573L76.6323 50.1696H79.8442Z" fill="#00234D"/>
</g>
<defs>
<clipPath id="clip0_807_2673">
<rect width="90" height="90" fill="white"/>
</clipPath>
</defs>
</svg>
