<svg width="90" height="90" viewBox="0 0 90 90" fill="none" xmlns="http://www.w3.org/2000/svg">
<circle cx="45" cy="45" r="45" fill="#F5F5F5"/>
<g clip-path="url(#clip0_233_900)">
<path d="M56.7754 45C56.7717 40.5442 58.0033 36.1747 60.3334 32.377C62.6634 28.5793 66.0007 25.5021 69.9742 23.4875C65.5822 18.3775 59.7314 14.7349 53.2082 13.0492C46.6851 11.3635 39.8023 11.7156 33.4852 14.0581C27.168 16.4007 21.7193 20.6213 17.8714 26.1528C14.0235 31.6843 11.9609 38.2614 11.9609 45C11.9609 51.7386 14.0235 58.3157 17.8714 63.8472C21.7193 69.3787 27.168 73.5994 33.4852 75.9419C39.8023 78.2844 46.6851 78.6365 53.2082 76.9508C59.7314 75.2651 65.5822 71.6225 69.9742 66.5125C66.0007 64.4979 62.6634 61.4207 60.3334 57.623C58.0033 53.8253 56.7717 49.4558 56.7754 45V45Z" fill="#459A48"/>
<path d="M31.2345 63.3426V39.9875C31.2345 39.9875 29.8367 24.557 48.2274 24.1382C48.5813 24.1321 48.9328 24.1972 49.261 24.3297C49.5892 24.4622 49.8875 24.6593 50.1381 24.9093C50.3886 25.1593 50.5864 25.4571 50.7196 25.7851C50.8528 26.113 50.9188 26.4644 50.9136 26.8184V26.8184C50.9105 27.507 50.6401 28.1674 50.1593 28.6603C49.6785 29.1532 49.0251 29.4399 48.3369 29.46C44.356 29.6339 37.1221 31.3928 37.1221 41.9139V63.3426C37.1204 64.1264 36.8084 64.8776 36.2543 65.4318C35.7002 65.986 34.9491 66.2982 34.1655 66.2999C33.3858 66.2931 32.6403 65.9785 32.0914 65.4246C31.5425 64.8708 31.2345 64.1225 31.2345 63.3426V63.3426Z" fill="white"/>
</g>
<defs>
<clipPath id="clip0_233_900">
<rect width="58" height="66" fill="white" transform="translate(12 12)"/>
</clipPath>
</defs>
</svg>
