<svg width="90" height="90" fill="none" xmlns="http://www.w3.org/2000/svg"><circle cx="45" cy="45" r="45" fill="#414042"/><path d="M45 14c-6.2 0-12.09 1.86-17.205 5.27-5.115 3.41-9.145 8.215-11.47 13.95a30.419 30.419 0 0 0-1.705 17.825c1.24 6.045 4.185 11.47 8.525 15.81 4.34 4.34 9.92 7.285 15.81 8.525 5.89 1.24 12.245.62 17.98-1.705 5.735-2.325 10.54-6.355 13.95-11.47C74.14 57.09 76 51.2 76 45c0-8.215-3.255-16.12-9.145-21.855C61.12 17.255 53.215 14 45 14Zm0 58.745c-5.425 0-10.85-1.705-15.345-4.65a29.491 29.491 0 0 1-10.23-12.4c-2.17-4.96-2.635-10.695-1.55-15.965 1.085-5.58 3.72-10.385 7.595-14.26 3.875-3.875 8.835-6.51 14.26-7.595 5.425-1.085 11.005-.465 15.965 1.55 4.96 2.015 9.455 5.735 12.4 10.23 3.1 4.495 4.65 9.92 4.65 15.5 0 7.285-2.945 14.415-8.215 19.53-5.115 5.27-12.245 8.06-19.53 8.06Z" fill="#fff"/><path d="M51.82 56.005c2.635 2.79 2.17 7.905 1.395 10.23 0 .155 0 .155-.155.31 0 .155-.155.155-.31.155-1.395.465-3.255.93-4.03 1.085 4.03-3.565 4.65-8.68 3.1-11.78Zm14.57-3.255a26.75 26.75 0 0 0-11.47-5.735c4.34 2.17 7.75 5.58 9.92 9.92a20.834 20.834 0 0 0 1.86-3.72v-.31c-.155 0-.155-.155-.31-.155Zm1.705-7.595c0-.155 0-.31-.155-.31-1.24-.465-2.635-.93-3.875-1.395.31-.155.62-.31.775-.62.155-.31.31-.465.465-.93a10.94 10.94 0 0 1-4.34.93c2.635 1.085 5.115 2.48 7.285 4.185-.155-.62-.155-1.24-.155-1.86Z" fill="#fff"/><path d="M55.54 53.37c.93.31 1.86.31 2.79 0-3.72-.93-5.89-6.355-14.57-7.13-.31 0-1.24.155-.775-.775 1.24-1.24 2.48-2.325 3.875-3.255-.62 0-3.565.31-4.34.31-.775 0-1.085-.155-1.085-.775 0 0-1.705 1.55-.93 2.48.155.155.465.155.93 0s1.085-.31 1.55-.465h.155v.155l-.93 1.395c-.155.465-.31.775.62.93 2.48.775 4.96 1.86 7.285 3.255 2.48 1.55 4.495 3.565 5.89 6.2 1.395 2.48 2.015 5.425 2.015 8.215 1.085-.775 2.325-1.705 3.255-2.635.155-.155.155-.465.155-.465-1.24-2.945-3.255-5.58-5.89-7.44Z" fill="#fff"/><path d="M65.15 34.615c-.465-.31-2.945-1.86-3.565-2.17-.465-.31-.93-.62-1.24-1.085a2.99 2.99 0 0 1-.465-1.55c.155-1.55-.93-3.72-3.875-6.355v.775c-.93-.775-2.015-1.395-3.255-1.55 0 0 .31-.93.31-1.55s-.31-1.24-1.085-.775c-3.72 1.55-9.765 1.55-16.12 7.75.775-2.015 2.17-3.875 3.875-5.27-1.55.31-3.1.93-4.65 1.55-.465.155-.775.62-1.085.93-2.325 3.565-3.875 7.595-4.495 11.78-.62-2.945-.465-6.045 0-9.145a20.38 20.38 0 0 0-3.41 3.875c-.31.465-.62.93-.62 1.55 0 4.495.93 8.835 2.635 12.865-2.48-2.015-4.34-6.2-5.27-8.525-.62 1.86-1.085 3.875-1.24 5.89 0 .775.31 1.705.775 2.325 2.48 4.34 6.2 7.905 10.54 10.385-2.635-.31-7.905-3.255-10.54-5.425.465 2.015 1.24 3.875 2.17 5.58.465.775 1.085 1.395 2.015 1.705C30.895 60.5 35.7 61.74 40.66 61.43c-3.72 1.395-7.75 1.55-11.625.62.62.62 1.395 1.24 2.17 1.86 1.705 1.24 3.72 2.17 5.735 2.635 4.96.93 11.16-2.635 9.61-9.145-.31.62-.62 1.085-1.085 1.55-.465.465-1.085.775-1.705.93 2.48-2.48 2.17-6.355-2.015-6.82a31.704 31.704 0 0 0-5.425 0c-.465 0-1.085 0-1.55-.155a3.375 3.375 0 0 1-1.24-.775l2.48-.31c1.395-.62 2.79-.93 4.34-.93-.155-.31-.62-.93-2.635-.31-.31.155-.775.155-1.085 0-.31-.155-.62-.31-.93-.62 2.015.465 2.635-1.705 4.495-.465.31.31.93.31.775-.31-.155-.31-.465-.62-.62-.775-.31-.155-.62-.31-1.085-.155-1.86-.31-3.72-.155-5.425.465-.775.31-1.395.93-2.015 1.395 0-.93.155-3.565 1.395-4.805 1.86-1.085 3.875-1.86 6.045-2.015-.155-.155-.155-.465-.155-.62 0-.155 0-.465.155-.62.62-.775 2.48-2.015 13.33-2.015l-.93.93c2.325.155 4.65.62 6.82 1.395.31.155.93.31 1.55-.93.31-.31 0-.31-.62-.775.155-.155.155-.465.155-.62 0-.31-.31-.31-.31-.155-.31.31-1.085.31-1.24-.155a1.587 1.587 0 0 0-.775-.93c-.31-.31-.775-.465-1.24-.465.31-.31.775-.62 1.24-.62a2.15 2.15 0 0 1 1.395 0s.155.465.465.31c.31-.155.62-.465.93-.155.155.155.155.465.155.62-.155.31 0 .31.31.155l.62-.62c.465.155.93.155 1.395 0 .465-.155.775-.465 1.085-.775.31-.31.465-.775.62-1.24.775-.465 1.24-1.24.93-1.395Zm-20.77-.465 1.395-.465c.465-.155.93-.155.465.31-1.085 1.55-1.085 4.65.465 5.27-.93 0-2.015.155-2.945.31-.155-1.395 0-2.945.31-4.34-.62.31-1.395.62-1.705.775-.155-2.945 2.48-7.905 5.735-9.145-2.015 1.86-3.41 4.495-3.72 7.285Zm6.975-12.09c-.31.62-1.24 1.55-.93 2.325-.465.155-1.085.31-1.55.62-.31.31-.465 0-.31-.31.465-1.085 1.395-2.015 2.48-2.79.465-.31.62 0 .31.155Zm6.975 8.525c-.155.465-.155.62-.62.465-.155-.155-.465-.155-.775-.31s-.31-.155-.31.155c.31.465.465 1.085.31 1.705-.62-1.085-1.24-2.17-2.17-2.945.775-.155 1.705 0 2.48.31.31.155.775.155.93-1.395.465.62.465 1.395.155 2.015Z" fill="#fff"/></svg>