<svg width="90" height="90" fill="none" xmlns="http://www.w3.org/2000/svg"><circle cx="45" cy="45" r="45" fill="#19502E"/><path d="M44.63 74C28.953 74 16.2 61.254 16.2 45.586c0-9.01 4.132-17.29 11.335-22.716l.302-.225V10h16.312v7.164c.155 0 .318-.008.473-.008 15.676 0 28.422 12.753 28.422 28.43C73.052 61.254 60.298 74 44.63 74Z" fill="#19502E"/><path d="m40.645 18.536.783-.768v-5.93h.892v8.784l-5.916 5.814V11.838h.891v9.977l.784-.767v-9.21h.891v8.334l.783-.76v-7.574h.892v6.698Zm-5.939 3.28-.783-.768v-9.21h-.9v8.334l-.775-.768v-7.566h-.899v6.698l-.783-.768v-5.93h-.891v8.784l5.923 5.814V11.838h-.892v9.978Zm1.698 9.497 5.915-5.823V21.77l-5.915 5.791v3.753Zm0 14.73 5.915-5.815v-3.953l-5.915 5.79v3.978Zm5.915-15.676-5.915 5.815v-3.753l5.915-5.784v3.722Zm0 4.876-5.915 5.815v-3.752l5.915-5.784v3.721Zm-12.644 4.985 5.923 5.815v-3.977l-5.923-5.791v3.953Zm0-14.73 5.923 5.815V27.56l-5.923-5.791v3.73Zm5.923 10.684-5.923-5.815v-3.722l5.923 5.784v3.753Zm-5.923-.939 5.923 5.815v-3.752l-5.923-5.792v3.73Zm21.506 3.07h13.77c.402 0 .743.342.736.76v.465c0 .42-.334.76-.745.76h-2.116v.652h1.054v.914h-1.054v.946h1.054v1.745h-1.054v-.791H61.26v.79h-1.055V42.81h1.055v-.946h-1.055v-.914h1.055v-.652H50.553a3.02 3.02 0 0 1 .48 1.636 3.107 3.107 0 0 1-3.108 3.101 3.1 3.1 0 0 1-3.101-3.1c0-.675.217-1.296.581-1.8a.988.988 0 0 1 0-1.659 3.075 3.075 0 0 1-.581-1.798 3.1 3.1 0 0 1 3.1-3.101 3.107 3.107 0 0 1 3.11 3.1c0 .605-.179 1.164-.481 1.637h.628Zm-3.256 5.21c.884 0 1.605-.713 1.605-1.597 0-.65-.752-2.201-.752-2.201v-.846s.752-1.558.752-2.21c0-.883-.721-1.604-1.605-1.604-.876 0-1.597.721-1.597 1.605 0 .325.093.628.263.876l.45.76a1.332 1.332 0 0 0 0 1.992l-.45.752c-.17.248-.263.55-.263.876a1.6 1.6 0 0 0 1.597 1.597Z" fill="#FFCB05"/><path d="M44.63 18.993c-.427 0-.853.008-1.272.031v1.814a23.06 23.06 0 0 1 1.272-.03c13.684 0 24.778 11.094 24.778 24.785 0 13.677-11.094 24.771-24.778 24.771-13.692-.008-24.786-11.102-24.786-24.778 0-7.598 3.419-14.397 8.8-18.94v-2.31c-6.443 4.852-10.606 12.559-10.606 21.25 0 14.676 11.908 26.577 26.592 26.577s26.592-11.901 26.592-26.577c-.008-14.684-11.908-26.593-26.592-26.593ZM24.294 40.298V36.43s.628 2.14 3 4.527c.766.766 1.65 1.623 2.753 2.693v.002h.002v.001l.002.001c.693.673 1.474 1.431 2.368 2.304.083.081.173.166.268.256 1.036.978 2.663 2.514 2.663 6.008v4.272c-.388-.954-.683-1.504-2.396-3.179l-2.89-2.842a8999.619 8999.619 0 0 1-3.235-3.182c-.922-.922-2.535-3.295-2.535-6.993Zm5.753 12.904c.695.675 1.477 1.433 2.372 2.307.08.079.168.16.26.246 1.035.972 2.671 2.508 2.678 6.019V66.3l-.028-.07c-.375-.923-.696-1.716-2.367-3.349-.07-.077-5.59-5.473-6.133-6-.852-.97-2.535-3.326-2.535-7.017v-3.341s.628 1.605 3 3.985c.766.766 1.65 1.622 2.753 2.693Zm34.562 4.525c-.364.597-.76 1.17-1.17 1.736v-5.31h1.17v3.574Zm2.24-4.87c.171-.51.319-1.03.45-1.557h-3.86v.953h.589c1.023-.023 2.17-.039 2.822.605Zm-26.74-1.681h1.048v10.59H40.11v-10.59Zm-2.402-2.047h3.45c.891 0 1.511.186 1.884.535.364.34.527.969.527 1.86v9.9c0 .9-.17 1.52-.527 1.87-.55.542-1.559.542-2.396.542-.186-.015-.364-.015-.527-.015v4.69l.27.05c.257.047.513.094.776.128v-3.853c1.59 0 2.636-.543 3.125-1.628v5.737h.34c.218 0 .443 0 .66-.008V51.71c0-.914.186-1.55.527-1.915.349-.364.97-.542 1.853-.542.122 0 .25-.003.385-.005.857-.016 1.916-.036 2.5.547.348.365.51 1.008.51 1.915v5.079h-2.372v-5.42H47.67v17.398c.341-.039.682-.093 1.023-.155V57.804h2.373v10.25c.488-.14.969-.295 1.442-.466v-9.38c0-1.063.256-1.861 1.333-2.226l-1.194-6.52h2.396l.403 7.125h.295l.403-7.125h2.527l-1.349 6.52c1.132.396 1.35 1.093 1.35 2.225v6.063a23.25 23.25 0 0 0 2.007-1.698V49.408h7.017c.046-.31.093-.636.131-.954h-16.42l.232 1.179c-.519-.954-1.504-1.435-2.946-1.435H47.67c-1.737 0-2.799.69-3.202 2.07-.372-1.442-1.473-2.163-3.303-2.163h-4.496v19.452c.34.124.69.24 1.039.35V49.128Zm21.8 7.49-1.131-1.079 1.132-5.845v6.923Zm-3.387 9.318a28.41 28.41 0 0 1-1.078.574v-8.598h1.078v8.024Z" fill="#fff"/></svg>