<svg width="90" height="90" fill="none" xmlns="http://www.w3.org/2000/svg"><circle cx="45" cy="45" r="45" fill="#F5F5F5"/><g clip-path="url(#a)"><path d="M18.862 65.33c-.765-1.14-1.51-2.168-2.175-3.252a30.405 30.405 0 0 1-4.043-10.551c-.628-3.475-.891-6.979-.351-10.554.445-2.946 1.062-5.8 2.192-8.544a33.005 33.005 0 0 1 15.58-16.977c3.193-1.63 6.543-2.873 10.133-3.143 2.933-.222 5.92-.475 8.833-.165 5.957.635 11.347 2.91 16.122 6.608 4.849 3.745 8.34 8.522 10.6 14.193a29.458 29.458 0 0 1 2.049 9.005c.088 1.333.27 2.675.196 4-.182 2.864-.508 5.717-1.354 8.477a33.462 33.462 0 0 1-4.848 9.93 32.556 32.556 0 0 1-13.061 10.77c-2.471 1.136-5.023 2.063-7.67 2.453-2.767.377-5.561.509-8.35.394-2.13-.065-4.248-.591-6.364-.948-.165-.027-.393-.368-.393-.568-.027-2.227-.017-4.455-.017-6.858 1.124.314 2.114.666 3.14.858 3.045.573 6.06.912 9.214.461a26.545 26.545 0 0 0 11.887-4.731c5.005-3.574 8.332-8.416 9.986-14.338a26.395 26.395 0 0 0 .377-12.128 26.336 26.336 0 0 0-5.087-11.005 25.896 25.896 0 0 0-12.02-8.648 24.484 24.484 0 0 0-10.123-1.38c-5.186.425-9.906 2.103-14.091 5.322-4.575 3.523-7.64 8.035-9.331 13.525-.8 2.587-1.363 5.284-1.1 7.949.613 6.188.16 12.378.33 18.562 0 .296 0 .591-.015.887-.01.06-.067.109-.246.396Z" fill="#153F65"/><path d="M63.106 45.61c0 1.182-.347 3.532-.661 4.504-1.053 3.264-2.772 6.11-5.386 8.366-1.86 1.607-3.926 2.92-6.258 3.576-2.395.674-4.85 1.021-7.421.75a18.854 18.854 0 0 1-6.52-1.91c-.86-.429-.945-.167-.941.572 0 2.463 0 5.593.01 8.055-.261 0-6.929-4.857-8.637-6.19V44.917a19.765 19.765 0 0 1 .944-6.154c.046-.144.095-.284.146-.426.753-2.096 1.99-3.88 3.474-5.567 2.455-2.795 5.496-4.47 9.02-5.356a18.029 18.029 0 0 1 10.68.637 16.575 16.575 0 0 1 6.005 3.722c1.963 1.86 3.533 4.019 4.334 6.657.383 1.261 1.174 3.105 1.211 7.18Zm-28.761-.756c.149 6.364 5.054 10.9 10.992 10.921 5.032.018 11.164-4.254 10.571-12.163-.18-2.415-1.342-4.571-3.14-6.292-2.51-2.388-5.39-3.59-8.923-3.182-4.662.54-9.437 4.915-9.5 10.716Z" fill="#4997CE"/></g><defs><clipPath id="a"><path fill="#fff" transform="translate(12 12)" d="M0 0h66v66H0z"/></clipPath></defs></svg>