<svg xmlns="http://www.w3.org/2000/svg" width="90" height="90" fill="none"><circle cx="45" cy="45" r="45" fill="#0999D5"/><path fill="#fff" d="M59.715 38.925v-6.21c0-3.375-2.7-6.21-6.21-6.21-3.375 0-6.075 2.835-6.075 6.21v6.21h-4.995c0-6.75-5.535-12.15-12.15-12.15C23.4 26.64 18 32.175 18 38.925s5.535 12.15 12.15 12.15v6.21c0 3.375 2.7 6.21 6.21 6.21s6.21-2.7 6.21-6.21v-6.21h4.995c0 6.75 5.535 12.15 12.15 12.15 6.75 0 12.15-5.535 12.15-12.15s-5.535-12.15-12.15-12.15Zm-31.995 0a2.42 2.42 0 0 1 2.43-2.43c1.35 0 2.565.945 2.565 2.43 0 1.485-1.08 2.43-2.43 2.43-1.485 0-2.565-1.08-2.565-2.43Zm31.995 14.58a2.42 2.42 0 0 1-2.43-2.43 2.42 2.42 0 0 1 2.43-2.43 2.42 2.42 0 0 1 2.43 2.43 2.42 2.42 0 0 1-2.43 2.43Zm7.29-17.01c2.7 0 4.995-2.16 4.995-4.995s-2.16-4.995-4.995-4.995c-2.7 0-4.995 2.16-4.995 4.995s2.295 4.995 4.995 4.995Z"/></svg>