<svg width="90" height="90" viewBox="0 0 90 90" fill="none" xmlns="http://www.w3.org/2000/svg">
<circle cx="45" cy="45" r="45" fill="url(#paint0_linear_529_289)"/>
<path d="M66.3657 28.6857C67.6483 30.3747 68.7341 32.2096 69.6011 34.1537L45.0066 52.6201L34.7278 46.0572V38.1618L45.0066 44.7247L66.3657 28.6857Z" fill="white"/>
<path d="M24.2377 45.5C24.2377 45.1457 24.2462 44.7938 24.2631 44.4438L18.0339 44.1329C18.0127 44.5864 18 45.0443 18 45.5064C17.9974 49.1169 18.6946 52.6922 20.0517 56.0275C21.4088 59.3629 23.3991 62.3924 25.9084 64.9424L30.3269 60.4441C28.3954 58.4847 26.863 56.1556 25.818 53.591C24.773 51.0264 24.236 48.2766 24.2377 45.5Z" fill="white"/>
<path d="M45.0009 24.3518C45.3485 24.3518 45.694 24.3648 46.0375 24.382L46.3492 18.0351C45.9026 18.0135 45.4531 18.0027 45.0009 18.0027C41.4544 17.9983 37.9423 18.7074 34.6659 20.0894C31.3894 21.4714 28.4133 23.499 25.9083 26.0557L30.3268 30.5562C32.2506 28.5882 34.5375 27.0269 37.0558 25.9621C39.5741 24.8973 42.2741 24.3501 45.0009 24.3518Z" fill="white"/>
<path d="M45.0009 66.6486C44.6532 66.6486 44.3076 66.6486 43.9621 66.6205L43.6504 72.9653C44.0984 72.9883 44.5487 72.9999 45.0009 72.9999C48.5458 73.0036 52.0562 72.294 55.331 70.9117C58.6057 69.5293 61.5799 67.5015 64.083 64.9447L59.6729 60.4464C57.7487 62.4134 55.4621 63.9739 52.9443 65.0382C50.4265 66.1026 47.727 66.6499 45.0009 66.6486Z" fill="white"/>
<path d="M56.7047 28.042L61.9543 24.1008C57.1561 20.1433 51.1666 17.989 44.9925 18V24.3513C49.1733 24.346 53.2571 25.6329 56.7047 28.042Z" fill="white"/>
<path d="M72 45.5C72.0033 43.8478 71.8614 42.1984 71.5758 40.5719L65.7644 44.9342C65.7644 45.1222 65.7644 45.31 65.7644 45.5C65.7659 48.4549 65.1578 51.3772 63.9796 54.0773C62.8012 56.7775 61.079 59.1953 58.9246 61.1741L63.1163 65.8928C65.9172 63.3173 68.1554 60.1711 69.6858 56.6581C71.2163 53.1449 72.0047 49.3434 72 45.5Z" fill="white"/>
<path d="M45.0011 66.6486C42.0998 66.6497 39.2306 66.03 36.5793 64.8299C33.9281 63.6299 31.5539 61.8759 29.6104 59.6819L24.9799 63.9492C27.5081 66.8025 30.597 69.0826 34.0461 70.6419C37.4951 72.2009 41.2274 73.0044 45.0011 72.9998V66.6486Z" fill="white"/>
<path d="M31.0775 29.8258L26.888 25.1072C24.0862 27.6822 21.8472 30.8283 20.316 34.3414C18.7849 37.8545 17.9958 41.6561 18 45.4999H24.2377C24.2364 42.5451 24.8446 39.6229 26.0229 36.9227C27.2012 34.2227 28.9232 31.8048 31.0775 29.8258Z" fill="white"/>
<defs>
<linearGradient id="paint0_linear_529_289" x1="17.5" y1="10" x2="78.5" y2="75.5" gradientUnits="userSpaceOnUse">
<stop stop-color="#33BBB1"/>
<stop offset="1" stop-color="#0F7F8B"/>
</linearGradient>
</defs>
</svg>
