<svg width="90" height="90" fill="none" xmlns="http://www.w3.org/2000/svg"><circle cx="45" cy="45" r="45" fill="#F5F5F5"/><path d="M29.17 39.851a8.19 8.19 0 0 0-3.872 3.183 6.959 6.959 0 0 0-1.061 3.373 4.052 4.052 0 0 0 2.588 4.052c1.053.502 2.15.903 3.278 1.2.36.095 1.061.328 1.422.424.755.16 1.426.59 1.888 1.209a1.868 1.868 0 0 1-.488 1.962 3.882 3.882 0 0 1-2.249.987c-.61.042-1.222.01-1.825-.096a2.237 2.237 0 0 1-1.58-1.06 4.062 4.062 0 0 1-.191-1.984h-4.933a6.472 6.472 0 0 0 .605 4.89c.308.487.712.906 1.188 1.23a8.296 8.296 0 0 0 4.848 1.231 14.057 14.057 0 0 0 4.593-.763 8.988 8.988 0 0 0 1.835-.987 7.881 7.881 0 0 0 2.292-2.334 8.71 8.71 0 0 0 1.198-3.044 4.795 4.795 0 0 0-.275-2.96 3.629 3.629 0 0 0-.828-1.06c-.933-.86-2.121-1.412-4.837-2.123-1.92-.53-2.6-.837-3.023-1.251a.912.912 0 0 1-.287-.637c.004-.441.166-.866.456-1.199.254-.324.597-.567.987-.7a4.774 4.774 0 0 1 2.673-.074c.294.079.566.224.796.425.226.201.39.462.477.753.074.374.074.76 0 1.135H39.8a6.163 6.163 0 0 0-.34-3.66 3.692 3.692 0 0 0-.901-1.23 6.555 6.555 0 0 0-3.586-1.602c-.703-.09-1.412-.13-2.121-.117-1.26.1-2.5.379-3.681.827Zm14.225-.466L38.802 59.91h5.304c5.718 0 5.41 0 6.514-.19a7.33 7.33 0 0 0 3.691-1.634 7.499 7.499 0 0 0 2.25-3.384c.196-.537.342-1.091.434-1.655a4.318 4.318 0 0 0-.679-3.331 3.893 3.893 0 0 0-1.57-1.114s.817-.467 1.124-.7a7.43 7.43 0 0 0 1.125-1.061 5.844 5.844 0 0 0 1.21-2.673c.413-2.419-.542-3.968-2.928-4.551a6.437 6.437 0 0 0-1.56-.223l-10.322-.01Zm8.487 4.243a1.134 1.134 0 0 1 .806.445c.193.251.288.565.265.88a2.78 2.78 0 0 1-.509 1.539c-.34.437-.813.75-1.347.891-.781.095-1.569.127-2.355.095H46.62l.86-3.893h2.057c.732-.01 1.772-.01 2.345.032v.01Zm-1.517 7.362a1.655 1.655 0 0 1 1.58 1.103c.106.407.106.834 0 1.241a2.684 2.684 0 0 1-2.185 2.206c-.87.107-4.943.064-4.943.064l1.06-4.625 4.488.01Zm6.588 8.932h4.975L66.5 39.469h-4.975l-4.572 20.453Z" fill="#0A3E86"/><path d="M57.42 25c-4.902 0-12.73 1.846-19.095 4.243A61.528 61.528 0 0 0 19.59 40.202c-.625.54-4.158 3.893-5.59 6.906a51.432 51.432 0 0 1 8.041-6.471 70.247 70.247 0 0 1 29.82-10.492c6.206-.605 11.987.499 14.554 2.122 6.79 4.349 2.631 10.799 2.588 10.958.51-.53 4.997-4.7 4.997-10.226 0-2.42-1.803-4.795-4.466-6.1C65.588 25 62.713 25 57.419 25Z" fill="#FC121B"/></svg>