<svg width="90" height="90" fill="none" xmlns="http://www.w3.org/2000/svg"><circle cx="45" cy="45" r="45" fill="#164883"/><path d="m14 59.701 8.587 5.865c5.236-1.047 27.019-5.446 27.019-13.195 0-7.75-6.493-9.635-12.148-12.986-5.655-3.351-8.378-5.027-8.378-7.959 0-2.932 2.723-5.655 7.959-7.33l3.351-.838c-4.608.628-13.404 2.513-13.404 8.378 0 5.864 18.012 11.31 18.012 19.897C44.998 60.12 14 59.7 14 59.7Z" fill="#fff"/><path d="M32.012 31.217c0-3.98 4.19-6.284 7.54-7.54-4.398 1.047-9.844 3.35-9.844 7.75 0 4.397 3.77 5.026 8.169 7.54 4.398 2.513 12.148 7.33 12.148 13.404 0 6.073-4.818 7.33-14.243 10.472l-12.566 3.142 7.12 4.607s23.878-6.911 23.878-16.546c0-16.127-22.202-17.384-22.202-22.83Z" fill="#fff"/><path d="M54.004 27.237a4.201 4.201 0 0 1-4.189 4.19h-1.047v2.094h1.047c3.351.125 6.158-2.514 6.283-5.865v-.419a6.078 6.078 0 0 0-6.073-6.073H43.74v14.87h2.095V23.258h4.189c2.199 0 3.979 1.78 3.979 3.98Z" fill="#fff"/><path d="M50.025 18.65h-8.797v17.384h2.094v-15.29h6.703a6.498 6.498 0 0 1 6.492 6.493 6.695 6.695 0 0 1-6.702 6.703h-1.047v2.094h1.047c4.817-.691 8.148-5.152 7.456-9.949-.544-3.79-3.477-6.807-7.246-7.435Zm15.289 30.788v-10.89a4.17 4.17 0 0 0-3.77-4.19 4.406 4.406 0 0 0-4.189 4.19v10.89h1.885v-11.1a2.093 2.093 0 0 1 2.283-1.885h.02a1.885 1.885 0 0 1 1.676 2.073v10.912h2.095Zm8.587 0v-10.89a4.41 4.41 0 0 0-3.98-4.19c-1.11.021-2.157.461-2.931 1.257a4.658 4.658 0 0 0-1.257 2.932v10.891h2.094v-11.1a2.093 2.093 0 0 1 2.283-1.885h.021a2.11 2.11 0 0 1 1.676 2.094v10.891H73.9Z" fill="#fff"/><path d="M69.922 32.054a6.575 6.575 0 0 0-4.398 1.466 6.717 6.717 0 0 0-9.425 1.048 6.752 6.752 0 0 0-1.467 4.189v10.681h2.095v-10.89a4.594 4.594 0 0 1 4.398-4.608c1.76.02 3.351.984 4.19 2.513a4.589 4.589 0 0 1 3.979-2.514c2.43-.125 4.482 1.76 4.607 4.169v11.33h2.095V38.757c.126-3.519-2.576-6.472-6.074-6.703Z" fill="#fff"/></svg>