<svg width="90" height="90" viewBox="0 0 90 90" fill="none" xmlns="http://www.w3.org/2000/svg">
<circle cx="45" cy="45" r="45" fill="#60CD18"/>
<path d="M30.1037 37.4075L26.5151 40.0715C24.82 38.6222 22.6311 38.3382 21.4312 38.3382C20.2313 38.3382 18.9343 38.6843 18.7443 39.5544C18.5529 40.3983 19.3422 41.0546 20.6974 41.42C22.2427 41.8337 23.6506 42.2005 25.8187 42.8155C29.0425 43.7297 31.2466 45.1168 31.2466 48.331C31.2466 52.7628 27.2891 55.0601 21.9875 55.0601C16.6858 55.0601 13.0736 52.3146 12 51.0336L15.7939 48.2138C18.4585 50.5235 20.3118 50.8489 21.8612 50.8489C23.6382 50.8489 25.3 50.4697 25.5136 49.47C25.687 48.6675 25.017 48.0291 23.5036 47.6774C21.7905 47.2844 20.345 46.9687 18.7318 46.5468C14.3595 45.4064 13.1264 42.8788 13.1264 40.6092C13.1264 37.4833 16.0533 34.2732 21.4062 34.2732C26.8952 34.2732 30.1092 37.3992 30.1092 37.3992L30.1037 37.4075V37.4075ZM52.9829 34.5862H36.9798V54.4713H53.2719V49.8878H42.5991V46.686H49.9511V42.3011H42.5991V39.1297H52.9791L52.9829 34.5862V34.5862ZM32.8391 59.0588H34.0876V30H32.8391V59.0588ZM55.3733 59.0588H56.6221V30H55.3733V59.0588ZM59.5067 54.4713H72.3574C75.7936 54.4713 78.5778 52.4126 78.5778 49.1156C78.5778 46.5439 76.8839 44.841 74.5101 44.0868C74.4346 44.0705 74.3577 44.0608 74.28 44.0578C74.3577 44.0508 74.4346 44.0374 74.5101 44.0179C75.8698 43.4828 77.3766 42.0584 77.3766 39.633C77.3766 36.5566 74.6384 34.5945 71.2588 34.5945H59.5067V54.4713ZM65.153 38.7284H69.6418C70.6747 38.7284 71.5115 39.5392 71.5115 40.4713C71.5115 41.4035 70.6793 42.217 69.6418 42.217H65.153V38.7284ZM70.643 50.0532H65.153V46.4281H70.643C71.1139 46.4464 71.5598 46.6453 71.8865 46.9831C72.2132 47.3209 72.3959 47.7713 72.3959 48.24C72.3959 48.7087 72.2132 49.1591 71.8865 49.4969C71.5598 49.8347 71.1139 50.0336 70.643 50.0519V50.0532V50.0532Z" fill="white"/>
</svg>
