<svg width="90" height="90" fill="none" xmlns="http://www.w3.org/2000/svg"><circle cx="45" cy="45" r="45" fill="url(#a)"/><path d="M45.006 14H45c-1.042 1.247-6.559 9.066-11.423 21.258-1.279 3.661-3.612 11.66-4.003 19.384-.037.82-.062 1.639-.074 2.451v1.868c.1 7.787 1.359 14.836 1.917 17.039 0-3.115.075-13.49 2.557-22.04C36.45 45.416 41.172 35.53 45 30.505c4.151 5.256 9.35 16.692 11.188 23.505 1.836 6.856 2.798 15.593 2.395 21.81 1.117-3.611 1.998-9.649 2.159-15.363.155-5.672-.577-15.364-4.157-25.466C52.998 24.89 46.06 15.253 45.006 14Z" fill="#fff"/><path d="M37.672 51.447c-.831 2.203-2.333 7.024-2.587 11.684-.298 5.647.763 11.293 1.19 12.869 0-1.874.044-8.129 1.651-13.285 1.595-5.156 4.648-11.1 7.124-14.135 2.68 3.171 6.037 10.059 7.222 14.16 1.185 4.133 1.812 9.394 1.552 13.142.72-2.172 1.29-5.814 1.396-9.258.099-3.419-.373-9.257-2.687-15.345-2.327-6.087-6.813-11.9-7.483-12.645-.664.744-4.232 5.454-7.378 12.813Z" fill="#fff"/><defs><linearGradient id="a" x1="45" y1="0" x2="45" y2="90" gradientUnits="userSpaceOnUse"><stop stop-color="#1992CC"/><stop offset="1" stop-color="#0275B8"/></linearGradient></defs></svg>