<svg width="90" height="90" viewBox="0 0 90 90" fill="none" xmlns="http://www.w3.org/2000/svg">
<circle cx="45" cy="45" r="45" fill="#F5F5F5"/>
<g clip-path="url(#clip0_610_289)">
<path d="M52.2009 39.5339C52.1416 39.5978 52.0702 39.6493 51.9909 39.6854C51.9117 39.7214 51.8261 39.7414 51.7391 39.7441C51.6521 39.7468 51.5655 39.7323 51.4841 39.7012C51.4028 39.6702 51.3284 39.6233 51.2652 39.5632C49.7754 38.143 47.7972 37.3547 45.7428 37.3624C41.4001 37.3624 37.8796 40.7822 37.8796 45.0004C37.8796 49.2187 41.4001 52.6384 45.7428 52.6384C47.846 52.6473 49.8673 51.8207 51.3657 50.3391C51.4875 50.2202 51.6505 50.1531 51.8204 50.152C51.9904 50.1508 52.1542 50.2157 52.2776 50.3329L54.4198 52.3543C54.4851 52.4157 54.5372 52.4897 54.5731 52.572C54.609 52.6542 54.6279 52.7429 54.6286 52.8327C54.6293 52.9225 54.6119 53.0115 54.5773 53.0943C54.5427 53.1772 54.4918 53.252 54.4275 53.3145C52.1664 55.4921 49.0233 56.842 45.5473 56.842C38.6604 56.842 33.0775 51.5403 33.0775 45.0004C33.0775 38.4605 38.6604 33.1588 45.5473 33.1588C48.8921 33.1588 51.9294 34.4094 54.169 36.4446C54.2338 36.5038 54.2861 36.5754 54.323 36.6552C54.3599 36.7349 54.3805 36.8213 54.3838 36.9092C54.3871 36.997 54.3729 37.0847 54.3421 37.167C54.3113 37.2493 54.2644 37.3247 54.2043 37.3886L52.2009 39.5339Z" fill="#101734"/>
<path d="M56.8389 33.2365C55.2643 31.6183 53.3798 30.3368 51.2989 29.469C49.218 28.6013 46.9836 28.1653 44.7304 28.1874C35.5534 28.2644 28.1067 35.8223 28.1259 45.0366C28.1435 53.4985 34.3876 60.4935 42.5039 61.647C42.5922 61.6596 42.677 61.6899 42.7535 61.7359C42.83 61.782 42.8965 61.8429 42.9492 61.9152C43.0018 61.9874 43.0396 62.0695 43.0602 62.1566C43.0808 62.2437 43.0838 62.3341 43.0691 62.4224L42.4264 66.2726C42.3981 66.4454 42.3034 66.6002 42.1628 66.7038C42.0222 66.8075 41.8467 66.8517 41.674 66.827C31.0573 65.2723 22.9042 56.0943 22.9042 45.0034C22.9042 32.8223 32.7401 22.9466 44.8731 22.9466C47.7688 22.9429 50.6366 23.5158 53.3103 24.6321C55.9841 25.7485 58.4107 27.3861 60.4499 29.4503C60.5683 29.5711 60.6354 29.7332 60.6373 29.9026C60.6391 30.072 60.5756 30.2355 60.4599 30.3589L57.7793 33.2273C57.719 33.2915 57.6465 33.3428 57.5661 33.3781C57.4856 33.4135 57.3989 33.4322 57.3111 33.433C57.2232 33.4339 57.1361 33.4169 57.055 33.3832C56.9739 33.3494 56.9004 33.2995 56.8389 33.2365Z" fill="url(#paint0_linear_610_289)"/>
<path d="M46.6741 13.8978C46.674 13.6677 46.5846 13.4467 46.425 13.2817C46.2653 13.1167 46.0479 13.0206 45.8189 13.0138C45.5052 13.0045 45.1892 12.9999 44.8732 12.9999C27.27 12.9999 13.0001 27.3272 13.0001 45.0003C13.0001 62.6734 27.2661 76.9999 44.8732 76.9999C50.7742 77.01 56.5612 75.3676 61.5836 72.2572C61.7788 72.1365 61.9195 71.9442 61.9758 71.7211C62.0321 71.4979 61.9995 71.2616 61.885 71.0621L59.884 67.5808C59.8247 67.4778 59.7454 67.3878 59.6508 67.3162C59.5562 67.2447 59.4482 67.193 59.3332 67.1642C59.2183 67.1355 59.0987 67.1302 58.9817 67.1489C58.8647 67.1676 58.7526 67.2097 58.6522 67.2728C54.6189 69.795 49.9735 71.1576 45.2222 71.2123C41.7815 71.2646 38.3646 70.6324 35.1687 69.3521C31.9727 68.0717 29.0609 66.1686 26.6013 63.7526C24.1417 61.3366 22.183 58.4555 20.8383 55.2755C19.4935 52.0956 18.7894 48.6797 18.7664 45.2251C18.6421 30.6414 30.3778 18.7829 44.8732 18.7829C45.1718 18.7829 45.4689 18.788 45.7644 18.7983C45.8824 18.8023 45.9999 18.7824 46.1101 18.7399C46.2203 18.6974 46.3208 18.633 46.4056 18.5507C46.4905 18.4684 46.558 18.3697 46.6041 18.2606C46.6503 18.1516 46.6741 18.0343 46.6741 17.9158V13.8978Z" fill="url(#paint1_linear_610_289)"/>
</g>
<defs>
<linearGradient id="paint0_linear_610_289" x1="39.5556" y1="25.8927" x2="46.2095" y2="63.1818" gradientUnits="userSpaceOnUse">
<stop stop-color="#DA3F54"/>
<stop offset="0.98" stop-color="#FBBD32"/>
</linearGradient>
<linearGradient id="paint1_linear_610_289" x1="13.0001" y1="45.0003" x2="62.0001" y2="45.0003" gradientUnits="userSpaceOnUse">
<stop offset="0.01" stop-color="#3D63F8"/>
<stop offset="1" stop-color="#8CBAFB"/>
</linearGradient>
<clipPath id="clip0_610_289">
<rect width="49" height="64" fill="white" transform="translate(13 13)"/>
</clipPath>
</defs>
</svg>
