<svg width="90" height="90" fill="none" xmlns="http://www.w3.org/2000/svg"><circle cx="45" cy="45" r="45" fill="#F5F5F5"/><path d="M48.875 33.75c.75-2.875 1.625-6.625 2.5-9.5 6.875 1.625 13 2.75 18-.375C68.25 23 67.25 22 66.125 21.125c-3.875 3.875-12 2.5-22.625.375-10.125-1.75-21 6-22 16.5-.375 3.375.625 6.125 2.75 8.125-13.5 21.5 14.125 33.625 28.625 17.375-.375-.625-.75-1.375-1.125-2.125C42 78.5 17.875 68.25 27.125 48.25c4.25 2.375 9.25 3.125 14.875 1.625L41.125 53c-.625 1-1.625 1.625-2.625 2.375 1.625 0 3.375-.25 5 0 25.375 4 30.375-22 5.375-21.625ZM26 43.5c-3.875-9.625 6.25-21.75 17.5-21.25 3.625.5 4.5 1.5 4.5 3.625-.625 2.5-1.375 5.375-2 7.875-7 0-14.875 2.375-20 9.75Zm16.125 5.375c-5.875 1.625-10 .875-13.875-2.625 4.25-7.75 9.375-11.5 17.5-11.75-1.125 4.625-2.375 9.75-3.625 14.375ZM49.375 55c-3.875-.25-5.125-1-5.5-2.375.375-1.25.625-2.625 1-3.75 3.25-1 5.25-3 7.125-7.25-.5-.375-1-.5-1.5-.875-1.125 4.125-2.375 6.375-5.375 7.25 1.125-4.375 2.375-9.125 3.5-13.625 15.875.125 17.5 18.875.75 20.625Z" fill="#3B2A98"/></svg>