<svg width="90" height="90" fill="none" xmlns="http://www.w3.org/2000/svg"><g clip-path="url(#a)"><circle cx="45" cy="45" r="45" fill="#F7F7F7"/><g clip-path="url(#b)" fill-rule="evenodd" clip-rule="evenodd"><path d="M90 45c0 14.391-6.755 27.204-17.267 35.441A44.804 44.804 0 0 1 45 90c-7.197 0-14-1.69-20.032-4.694C10.168 77.937 0 62.656 0 45 0 30.609 6.755 17.796 17.267 9.559A44.804 44.804 0 0 1 45 0c7.197 0 14 1.69 20.032 4.694C79.832 12.063 90 27.344 90 45Z" fill="#fff"/><path d="M90 45c0 14.391-6.755 27.204-17.267 35.441A44.804 44.804 0 0 1 45 90c-7.197 0-14-1.69-20.032-4.694C10.168 77.937 0 62.656 0 45 0 30.609 6.755 17.796 17.267 9.559A44.804 44.804 0 0 1 45 0c7.197 0 14 1.69 20.032 4.694C79.832 12.063 90 27.344 90 45Z" fill="#E61B25"/><path d="M76.035 67.726c-.451 4.656-1.816 9.118-3.302 12.815A44.804 44.804 0 0 1 45 90.101c-7.197 0-14-1.69-20.032-4.695 6.247-2.087 13.159-5.102 20.107-9.46C67.814 61.69 65.16 41.24 45.699 42.23c0 0 8.274-2.342 16.235.572S77.18 55.914 76.035 67.726Z" fill="#F7F7F7"/><path d="M44.3 47.771s-8.273 2.342-16.234-.572c-7.961-2.914-15.246-13.112-14.101-24.924.451-4.656 1.816-9.118 3.302-12.816A44.804 44.804 0 0 1 45-.1c7.197 0 14 1.69 20.032 4.694-6.247 2.087-13.158 5.103-20.107 9.46C22.186 28.31 24.84 48.76 44.301 47.77Z" fill="#F7F7F7"/></g></g><defs><clipPath id="a"><path fill="#fff" d="M0 0h90v90H0z"/></clipPath><clipPath id="b"><path fill="#fff" d="M0 0h90v90H0z"/></clipPath></defs></svg>