<svg xmlns="http://www.w3.org/2000/svg" width="90" height="90" fill="none"><circle cx="45" cy="45" r="45" fill="#F5F5F5"/><path fill="#00528E" d="M68.35 19.192c-.265-.397-3.975 1.458-3.975 1.458.132 0 .132-.133.132-.133.663-.53 1.988-1.06 1.458-1.59-.265-.264-.663-.132-2.12.663-.663.398-4.108 1.855-7.685 3.445-3.047 1.325-8.347 3.578-8.877 4.24l-.133.133s0 .132-.133.132c-.265.398-.397 1.06-.53 1.855v.265c-.265 1.06-.397 2.385-.662 3.842C45.162 37.875 44.5 44.5 44.5 44.5s-.133 4.505-.53 6.625c-.133.398-.133.663-.265.928 0 .132-.133.265-.133.397a2.885 2.885 0 0 1-.662 1.06c-.795.928-2.915.663-3.445.53-1.325-.133-2.65-1.06-2.783-1.325-.132-.265-1.06-1.458-2.252-1.59-.398 0-1.722.265-2.252.265-.53 0-1.193-.663-1.855-.795-.53-.133-1.723.53-1.723.53s2.915 1.06 3.313 1.59c.397.53 1.192 1.722 2.252 2.252 1.06.53 4.77 4.638 4.77 4.638s.795.795 1.987 1.855c-1.06.398-2.252.663-3.444.795-8.348.927-15.503-4.505-16.43-12.72-.265-1.855-.133-3.577.397-5.3.53-1.987 1.325-3.975 2.65-5.697 2.518-3.18 5.963-5.168 10.07-5.566 2.517-.264 5.035.133 7.288.928 0-.265 0-.53-.133-.795-2.252-.927-4.77-1.192-7.288-.927-4.107.53-7.817 2.517-10.467 5.697-1.855 2.252-3.048 4.903-3.313 7.818-.132.397-.132.662-.132 1.192-.133.928-.133 2.782.133 3.843.927 8.215 8.612 14.31 17.092 13.25 1.723-.266 3.445-.663 5.035-1.458 1.192.927 2.65 1.855 4.24 2.517 3.975 1.723 8.878 1.855 9.938 1.988 2.252.265 4.24 3.18 4.902 3.71.663.53 4.902-.397 4.902-.397s-.264-.795-.53-1.988c-.132-1.06-1.457-1.59-1.59-1.855-.265-.265-5.697-2.783-6.625-3.313-.794-.53-1.987-1.722-3.18-3.577-1.192-1.855-.662-3.313-.53-3.71.266-.398.663-.398.928-.928s.133-.53 0-.794c0-.266.133-.398.265-.796.265-.397.133-.397.133-.397l.132-.53c.133-.53 0 0 .133-.265l.132-.265s0-.265.133-.398c.132-.132-.133-.397-.133-.53.133-.264.133-.264.133-.662.132-.398 0-.265.132-.663 0-.397.133-.264.397-.53.265-.264-.264-.53-.264-.53s0-.264.397-.927c.398-.795 0 0 .133-.398.132-.397-.133-.662-.266-.927-.132-.397.133-.265.133-.662l.133-.398c.132-.398.132-.53.132-.53l-.265-.795.133-.265c.132-.265 0-.663 0-.663l-.398-.927s0-.398.133-.663c.132-.264-.265-1.192-.265-1.192l.264-.927-.264-1.458-.265-1.193s-.133-1.855-.133-2.517c0-.663 0-1.59.133-2.517.132-.928 2.915-2.12 3.18-2.65.132-.398-1.855.264-1.855.264s3.444-.927 3.71-1.457c.132-.398-2.253.133-2.253.133-.265.132 0 0 0 0 .927-.265 3.445-.796 4.24-1.59.928-.796-1.722-.265-2.12-.133.398-.133 3.313-.927 3.71-1.723.265-.53-2.12-.132-2.12-.132 1.192-.265 2.65-.662 3.445-1.192 1.722-.796 1.855-1.458 1.457-1.723-.397-.265-3.18.795-3.18.795-.132 0-.132 0-.132.133.133 0 .133-.133.133-.133.794-.265 1.722-.662 2.252-1.06 1.192-.53 2.65-1.457 2.12-1.988Zm-4.505 1.723c.133-.133.265-.133.398-.265-.133.133-.265.265-.398.265Z"/><path fill="#00A1E9" d="M60.93 18c-.265-.265-2.12.53-2.12.53s-10.733 5.168-15.503 7.685c-1.06.53-2.252 1.457-2.252 3.047 0 5.3 1.06 12.986 1.59 17.093.53 4.108.927 5.698.795 5.83 0-.133.265-.53.397-1.193.398-2.12.53-6.624.53-6.624s.663-6.626 1.325-10.998c.398-2.915.795-5.3 1.458-6.227.397-.663 9.01-4.24 10.6-5.035 1.855-.796 2.12-1.06 2.12-1.723.132-.398-1.855.265-1.855.265s1.722-.927 2.385-1.325c.53-.398.927-.927.53-1.325ZM25.155 37.212l2.782-3.975-3.445 3.313-1.59-5.432.265 5.697-2.915-1.855 2.518 2.65-3.445.928 3.71-.265-3.047 4.24 3.577-3.445 1.457 5.167-.264-5.167 2.65 1.722-2.65-2.65 3.577-1.06-3.18.133Z"/></svg>