<svg width="90" height="90" fill="none" xmlns="http://www.w3.org/2000/svg"><circle cx="45" cy="45" r="45" fill="#2664A4"/><g clip-path="url(#a)" fill="#fff"><path d="m52.553 58.34 15.813 9.44a33.064 33.064 0 0 0 7.586-13.274l-15.66-9.072-14.967 8.894-15.129-9.032-16.144 9.432a33.155 33.155 0 0 0 7.665 13.208l15.787-9.597v18.767a31.645 31.645 0 0 0 15.05-.027V58.34ZM68.588 22.464l-16.035 9.548V12.89a31.717 31.717 0 0 0-15.172 0v19.123l-15.865-9.726A33.122 33.122 0 0 0 14 35.454l15.285 9.059 16.04-9.65 15.952 9.65L76 35.654a33.076 33.076 0 0 0-7.412-13.19Z"/><path d="m30.964 44.513 14.426-8.37 14.09 8.606a9.265 9.265 0 0 1-4.751-.52c-2.66-.983-4.247-1.62-7.7-.116-3.453 1.503-3.562 2.712-7.128 2.668-3.566-.044-8.937-2.268-8.937-2.268Z"/></g><defs><clipPath id="a"><path fill="#fff" transform="translate(14 12)" d="M0 0h62v66H0z"/></clipPath></defs></svg>