<svg width="90" height="90" fill="none" xmlns="http://www.w3.org/2000/svg"><circle cx="45" cy="45" r="45" fill="#F5F5F5"/><path d="m37.68 51.54 6.725-.006c1.3 0 2.453-.36 3.337-.963.942-.607 1.647-1.508 2.066-2.532l3.46-9.452-6.489.003c-1.293 0-2.442.24-3.38.848-1.004.603-1.85 1.742-2.106 2.588L37.68 51.54Z" fill="#FDB913"/><path d="m54.89 46.135-1.39 3.492c-.595 1.326-1.675 2.771-2.374 3.254-1.36 1.022-3.307 1.926-5.43 1.931l-12.86.012L36.315 44l1.39-3.493c.596-1.325 1.674-2.77 2.368-3.255 1.368-1.02 3.306-1.928 5.43-1.928l12.113-.013-2.725 10.823ZM75 30H34.293c-2.245 0-5.249.645-7.741 2.394-2.29 1.687-2.73 3.248-3.612 5.059-.149.358-.43.84-.558 1.264l-5.526 16.117L15 60.136h41.912c2.24-.004 5.246-.644 7.74-2.394 2.28-1.687 2.733-3.253 3.604-5.057.152-.364.437-.846.564-1.265L75 30.1h-.037L75 30Z" fill="#004282"/></svg>