<svg width="90" height="90" fill="none" xmlns="http://www.w3.org/2000/svg"><circle cx="45" cy="45" r="45" fill="#DB0334"/><path d="M46.885 37.17c.58 0 1.16-.29 1.74-.435l19.43-7.25c-2.61-4.205-9.86-12.615-21.025-13.34C46.305 16 45.435 16 44.565 16c-10.73 0-18.995 4.785-24.215 13.34C16.725 34.85 16 40.505 16 44.71c0 2.9.29 5.075.58 6.09.29 2.465 1.595 5.075 2.32 5.51.435.29 1.16.58 1.885.58.435 0 1.015-.145 1.45-.29l19.285-7.25c-.58-1.015-1.74-3.045-3.915-7.685-3.48-7.395-4.785-11.89-5.075-15.225.145-.435.145-.725.145-.87 0-1.015.58-2.03 1.595-2.03 1.305.145 2.465 1.16 3.77 2.465 2.465 2.465 5.945 8.265 7.105 9.86.435 1.015 1.015 1.305 1.74 1.305Z" fill="#fff"/><path d="M42.97 52.83c-.58 0-1.16.145-1.74.435L21.8 60.66c2.61 4.205 9.86 12.47 21.025 13.34.87.145 1.595.145 2.465.145 10.73 0 18.995-4.785 24.36-13.34C73.13 55.295 74 49.64 74 45.145c0-2.9-.29-4.93-.58-5.945-.29-2.465-1.595-5.075-2.465-5.51-.435-.29-1.16-.58-2.03-.58-.435 0-1.015.145-1.45.29L48.19 40.65c.58 1.015 1.74 3.045 3.915 7.685 3.48 7.395 4.785 11.745 5.075 15.225v.725c0 1.015-.58 2.03-1.45 2.03-1.305-.145-2.465-1.16-3.77-2.465-2.465-2.465-5.945-8.265-7.105-9.86-.435-.87-1.16-1.16-1.885-1.16Z" fill="#fff"/></svg>