<svg xmlns="http://www.w3.org/2000/svg" width="90" height="90" fill="none"><circle cx="45" cy="45" r="45" fill="#841B39"/><g fill="#fff" clip-path="url(#a)"><path d="M67 21s-2.897 2.453-9.881 1.277c-6.985-1.177-20.277-1.249-27.963 8.951 0 0 28.56 12.055 37.844 18.634v-3.536s-8.796-5.397-16.367-9.227c0 0 5.886-4.023 16.367 1.67V21Zm0 45.549s-28.743-15.117-42.416-19.24c0 0 1.586 9.423 8.183 14.333 6.597 4.91 15.27 6.773 22.654 6.283 7.384-.49 8.384-.936 11.579.075v-1.451ZM27.18 34.253S57.616 46.819 67 52.806v3.926S38.212 41.213 25.745 36.897a14.1 14.1 0 0 1 1.434-2.644Zm-2.457 6.37S46.837 48.586 67 59.875v3.746S45.778 51.389 24.419 43.333c0-.01.082-1.14.304-2.71Zm4.433-9.395a17.445 17.445 0 0 0-1.977 3.025S20.69 31.7 16 30.72v-4.027s8.86 2.684 13.156 4.535Zm-3.411 5.669a21.502 21.502 0 0 0-1.022 3.726L16 37.902v-4.105l9.745 3.1Z"/><path d="M24.419 43.323c-.02 1.33.034 2.661.165 3.986L16 44.64v-4.288l8.419 2.971Z"/></g><defs><clipPath id="a"><path fill="#fff" d="M16 21h51v47H16z"/></clipPath></defs></svg>