<svg width="90" height="90" fill="none" xmlns="http://www.w3.org/2000/svg"><circle cx="45" cy="45" r="45" fill="#F5F5F5"/><path d="M50.8 16.58v15.08H45c-3.48 0-6.96 1.45-9.425 3.915C33.11 38.04 31.66 41.52 31.66 45c0 3.48 1.45 6.96 3.915 9.425C38.04 56.89 41.52 58.34 45 58.34h5.8v15.08c6.525-1.305 12.47-4.785 16.675-10.005C71.68 58.05 74 51.67 74 45s-2.32-13.195-6.525-18.27c-4.205-5.22-10.15-8.845-16.675-10.15Z" fill="#003791"/><path d="M45 62.98c-4.64-.145-9.135-2.03-12.47-5.51-3.335-3.335-5.075-7.83-5.075-12.615S29.34 35.72 32.53 32.24c3.335-3.19 7.83-5.22 12.47-5.365h1.16V16H45c-7.685 0-15.08 3.045-20.445 8.555C19.045 29.92 16 37.315 16 45c0 7.685 3.045 15.08 8.555 20.445C29.92 70.955 37.315 74 45 74h1.16V62.98H45Z" fill="#FF4B5F"/></svg>