<svg width="90" height="90" viewBox="0 0 90 90" fill="none" xmlns="http://www.w3.org/2000/svg">
<g clip-path="url(#clip0_3212_2789)">
<circle cx="45" cy="45" r="45" fill="#F5F5F5"/>
<mask id="mask0_3212_2789" style="mask-type:luminance" maskUnits="userSpaceOnUse" x="32" y="14" width="27" height="62">
<path d="M58.4288 14H32.7932V76H58.4288V14Z" fill="white"/>
</mask>
<g mask="url(#mask0_3212_2789)">
<path d="M37.1492 75.8769C35.5688 75.8769 34.0505 74.9913 33.3164 73.4781C32.3207 71.3868 33.2167 68.902 35.3324 67.9055C44.2293 63.76 49.9677 54.7552 49.9677 45C49.9677 35.2448 44.2293 26.24 35.3449 22.0821C33.2293 21.098 32.3333 18.6008 33.3287 16.5095C34.3244 14.4182 36.8505 13.5325 38.9661 14.5166C44.7033 17.1984 49.5689 21.4178 53.0159 26.7197C56.5505 32.1695 58.4288 38.4925 58.4288 45C58.4288 51.5074 56.5505 57.8305 53.0033 63.2679C49.5563 68.5698 44.6908 72.7893 38.9538 75.471C38.3812 75.754 37.759 75.8769 37.1492 75.8769Z" fill="#9638E3"/>
</g>
</g>
<defs>
<clipPath id="clip0_3212_2789">
<rect width="90" height="90" fill="white"/>
</clipPath>
</defs>
</svg>
