<svg width="90" height="90" viewBox="0 0 90 90" fill="none" xmlns="http://www.w3.org/2000/svg">
<circle cx="45" cy="45" r="45" fill="#F5F5F5"/>
<g clip-path="url(#clip0_517_710)">
<path d="M54.9805 36.4954C55.0002 40.7471 56.6982 44.818 59.7031 47.8175C62.708 50.817 66.7752 52.5009 71.0149 52.5009C70.9952 48.2491 69.2971 44.1782 66.2922 41.1787C63.2873 38.1792 59.2202 36.4953 54.9805 36.4954V36.4954Z" fill="#4BA55A"/>
<path d="M71 20H35.0344C30.7818 20 26.7034 21.6942 23.6964 24.7098C20.6893 27.7254 19 31.8155 19 36.0803L19 36.1401H51.0353C51.0353 36.1177 51.0353 36.099 51.0353 36.0803H54.9805C54.9805 31.8181 56.6678 27.7303 59.6716 24.7151C62.6754 21.6999 66.75 20.004 71 20V20Z" fill="#27669F"/>
<path d="M35.0344 52.5046C35.0147 48.2529 33.3167 44.182 30.3118 41.1825C27.3069 38.183 23.2397 36.4991 19 36.4991C19.0197 40.7509 20.7178 44.8218 23.7227 47.8213C26.7276 50.8208 30.7947 52.5047 35.0344 52.5046V52.5046Z" fill="#27669F"/>
<path d="M19 68.9888H54.9805C57.0862 68.9888 59.1712 68.5728 61.1166 67.7647C63.062 66.9566 64.8296 65.7721 66.3185 64.2789C67.8075 62.7858 68.9886 61.0131 69.7944 59.0621C70.6002 57.1112 71.0149 55.0202 71.0149 52.9085C71.0149 52.9085 71.0149 52.8673 71.0149 52.8486H38.9647C38.9647 52.8486 38.9647 52.8898 38.9647 52.9085H35.0344C35.0344 57.1732 33.3451 61.2633 30.338 64.2789C27.331 67.2946 23.2526 68.9888 19 68.9888V68.9888Z" fill="#4BA55A"/>
</g>
<defs>
<clipPath id="clip0_517_710">
<rect width="52" height="49" fill="white" transform="translate(19 20)"/>
</clipPath>
</defs>
</svg>
