<svg width="90" height="90" viewBox="0 0 90 90" fill="none" xmlns="http://www.w3.org/2000/svg">
<circle cx="45" cy="45" r="45" fill="#F5F5F5"/>
<g clip-path="url(#clip0_613_309)">
<path d="M50.3856 30.0861C51.2009 31.7359 49.5774 33.367 47.9307 32.5456C47.6428 32.3997 47.409 32.1655 47.2634 31.8771C46.4482 30.2273 48.0716 28.5962 49.7183 29.4176C50.0069 29.5626 50.2409 29.7971 50.3856 30.0861V30.0861Z" fill="#98377A"/>
<path d="M57.5665 30.0861C58.3817 31.7359 56.7594 33.367 55.1115 32.5456C54.8233 32.4006 54.5896 32.1661 54.4454 31.8771C53.6302 30.2273 55.2524 28.5962 56.8992 29.4176C57.1877 29.5626 57.4218 29.7971 57.5665 30.0861Z" fill="#98377A"/>
<path d="M71.0001 46.7751V21.6284C71.0001 20.4011 70.5135 19.224 69.6473 18.3561C68.7812 17.4881 67.6064 17.0003 66.3813 17H38.4487C37.2235 17.0003 36.0486 17.488 35.1822 18.356C34.3159 19.2239 33.829 20.401 33.8287 21.6284V46.7751C33.829 48.0026 34.3159 49.1797 35.1822 50.0476C36.0486 50.9155 37.2235 51.4033 38.4487 51.4036H58.8406C60.8309 56.0005 71.0001 55.5338 71.0001 55.5338C71.0001 55.5338 68.2411 54.2189 67.476 51.2717C68.4812 51.0258 69.3749 50.449 70.0138 49.6337C70.6528 48.8184 71.0001 47.8117 71.0001 46.7751V46.7751ZM40.2386 43.4044V24.9992C40.238 24.5806 40.4032 24.1789 40.698 23.8822C40.9928 23.5856 41.393 23.4183 41.8108 23.4171H63.0215C63.4391 23.4171 63.8395 23.5832 64.1348 23.8791C64.4301 24.1749 64.596 24.5761 64.596 24.9945V24.9945V43.4033C64.5961 43.6104 64.5556 43.8156 64.4766 44.007C64.3976 44.1985 64.2817 44.3724 64.1356 44.519C63.9895 44.6656 63.8161 44.7819 63.6251 44.8613C63.4341 44.9408 63.2294 44.9817 63.0226 44.9819H41.8143C41.3966 44.9819 40.996 44.8157 40.7006 44.5199C40.4051 44.2241 40.2389 43.8229 40.2386 43.4044V43.4044Z" fill="#98377A"/>
<path d="M47.3659 54.3356V59.8636C47.3653 60.0708 47.3239 60.2759 47.2441 60.4671C47.1644 60.6584 47.0478 60.832 46.901 60.978C46.7542 61.1241 46.5802 61.2397 46.3888 61.3184C46.1974 61.397 45.9924 61.4371 45.7855 61.4363H26.9844C26.7775 61.4368 26.5725 61.3964 26.3812 61.3175C26.1898 61.2386 26.0159 61.1227 25.8692 60.9764C25.7226 60.8302 25.6061 60.6564 25.5265 60.4651C25.4469 60.2737 25.4057 60.0685 25.4053 59.8612V43.3309C25.4053 42.9125 25.5712 42.5113 25.8664 42.2155C26.1617 41.9197 26.5622 41.7535 26.9798 41.7535H30.9603V35.3364H23.6234C22.3992 35.337 21.2252 35.8245 20.3594 36.6917C19.4936 37.5588 19.0068 38.7348 19.0059 39.9614V63.2296C19.0062 64.2661 19.3536 65.2725 19.9925 66.0878C20.6315 66.903 21.5249 67.4799 22.5299 67.7262C21.7648 70.6699 19.0059 71.9871 19.0059 71.9871C19.0059 71.9871 29.175 72.4538 31.1665 67.8569H49.1605C49.7672 67.857 50.3679 67.7375 50.9284 67.505C51.4889 67.2725 51.9982 66.9317 52.4272 66.502C52.8562 66.0723 53.1966 65.5621 53.4287 65.0007C53.6609 64.4392 53.7804 63.8374 53.7804 63.2296V54.3356H47.3659Z" fill="#139595"/>
<path d="M29.4568 47.4344C29.4568 47.9074 29.6442 48.3611 29.9778 48.6958C30.3115 49.0305 30.7641 49.2189 31.2363 49.2195C31.4702 49.2198 31.7018 49.1739 31.918 49.0845C32.1341 48.995 32.3306 48.8637 32.4961 48.6982C32.6615 48.5326 32.7928 48.3359 32.8824 48.1195C32.972 47.9031 33.0181 47.671 33.0181 47.4367C33.0182 47.2024 32.9723 46.9704 32.883 46.7539C32.7937 46.5374 32.6626 46.3407 32.4974 46.1749C32.3321 46.0092 32.1359 45.8776 31.9199 45.7879C31.704 45.6981 31.4724 45.6518 31.2386 45.6516V45.6516C30.7667 45.6516 30.3142 45.8392 29.9803 46.1733C29.6464 46.5073 29.4586 46.9605 29.458 47.4332L29.4568 47.4344Z" fill="#139595"/>
<path d="M39.4501 55.6541H34.5006V58.8381H39.4501V55.6541Z" fill="#139595"/>
<path d="M59.9935 34.9363C58.7486 35.8848 56.2878 36.7576 53.0933 36.7576C49.8989 36.7576 47.4369 35.8848 46.1931 34.9363H43.4727C44.1586 37.3794 48.1974 39.2532 53.0922 39.2532C57.9869 39.2532 62.0245 37.3736 62.7105 34.9363H59.9935Z" fill="#98377A"/>
</g>
<defs>
<clipPath id="clip0_613_309">
<rect width="52" height="55" fill="white" transform="translate(19 17)"/>
</clipPath>
</defs>
</svg>
