<svg xmlns="http://www.w3.org/2000/svg" width="90" height="90" fill="none"><circle cx="45" cy="45" r="45" fill="#AABC48"/><path fill="#006636" d="M43.49 18c-4.05 0-8.1.81-11.745 2.565-3.645 1.755-6.885 4.185-9.45 7.29-.675.81 0 1.35.945.945 3.78-1.755 7.965-2.7 12.015-2.565 5.535 0 10.935 2.16 14.85 6.075 3.915 3.915 6.21 9.18 6.21 14.58 0 2.025-.405 4.05-1.215 5.805-.81 1.89-1.89 3.51-3.375 4.995-1.485 1.35-3.105 2.565-4.995 3.375a15.085 15.085 0 0 1-5.94 1.215c-2.97 0-5.67-1.08-7.83-3.105-2.025-2.025-3.24-4.725-3.24-7.56 0-1.89.81-3.78 2.16-5.13s3.24-2.16 5.13-2.16c.54 0 1.215.135 1.755.27.54.27 1.08.54 1.485.945.405.405.81.945.945 1.485.27.54.405 1.08.405 1.755 0 .405-.135.675-.27 1.08-.135.27-.405.675-.54.81-.27.27-.54.405-.945.54-.27.135-.675.135-1.08.135-.945 0-1.35.54-.54 1.35.405.405.945.81 1.485.945.54.27 1.215.405 1.755.405 1.89 0 3.78-.81 5.13-2.16s2.16-3.24 2.16-5.13c0-2.835-1.215-5.535-3.24-7.56-2.025-2.025-4.86-3.105-7.83-3.105-4.185 0-8.1 1.62-10.935 4.455-2.835 2.835-4.59 6.75-4.59 10.8 0 5.4 2.295 10.665 6.21 14.58C32.285 69.84 37.685 72 43.22 72c3.645.135 7.425-.405 10.8-1.755 3.51-1.35 6.615-3.24 9.315-5.805 2.7-2.565 4.725-5.535 6.21-8.91 1.485-3.375 2.16-6.885 2.16-10.53 0-3.645-.81-7.155-2.16-10.53-1.485-3.375-3.51-6.345-6.21-8.91-2.7-2.565-5.805-4.455-9.315-5.805C50.915 18.54 47.27 18 43.49 18c0 .135 0 0 0 0Z"/></svg>