<svg xmlns="http://www.w3.org/2000/svg" width="90" height="90" fill="none"><circle cx="45" cy="45" r="45" fill="#FCE527"/><path fill="#fff" d="M76.155 42.93 77 40.275l-2.75.087a6.423 6.423 0 0 1-3.571-1.248h.371a4.436 4.436 0 0 0 3.951-2.466l1.209-2.583a21.242 21.242 0 0 1-2.837-.166 4.432 4.432 0 0 1-2.315-1.399 4.36 4.36 0 0 0-3.16-1.382c-.466 0-.933.079-1.383.22.063-.213.119-.426.158-.647a5.867 5.867 0 0 0-1.2-4.322L63.385 23.8l-1.28 3.003a2.698 2.698 0 0 1-.908 1.066 5.575 5.575 0 0 0-1.517-2.829 6.806 6.806 0 0 0-4.93-2.054c-.325 0-.649.024-.965.071l-2.497.49a8.38 8.38 0 0 1 1.012-2.37l1.374-2.141-3.46.323-1.106-2.37-2.134 1.162L45 16.2l-1.975 1.952-2.134-1.107-1.106 2.315-3.46-.395 1.374 2.15a8.38 8.38 0 0 1 1.012 2.37l-2.37-.466h-.08a7.033 7.033 0 0 0-.995-.071 6.805 6.805 0 0 0-4.93 2.054 5.57 5.57 0 0 0-1.534 2.868 2.697 2.697 0 0 1-.892-1.035l-1.288-3.026-2.102 2.576a5.928 5.928 0 0 0-1.177 4.306c.04.221.095.434.158.648a4.6 4.6 0 0 0-1.383-.221 4.36 4.36 0 0 0-3.16 1.382 4.468 4.468 0 0 1-2.292 1.399c-.948.142-1.912.197-2.876.166l1.177 2.623a4.436 4.436 0 0 0 3.951 2.465h.371a6.45 6.45 0 0 1-3.524 1.24L13 40.276l.845 2.655a5.534 5.534 0 0 0 4.583 3.88 4.393 4.393 0 0 1-2.37 3.239l-2.118.861 1.138 1.983a5.042 5.042 0 0 0 4.29 2.315c.45 0 .901-.047 1.344-.142.11.482.252.964.41 1.43a4.9 4.9 0 0 1 .08 3.24l-1.028 2.157 2.3.608c.513.135 1.05.198 1.58.198.38 0 .75-.04 1.122-.127.268-.063.537-.142.79-.245.292.53.664 1.02 1.082 1.454 1.47 1.51 3.556 2.276 6.203 2.276h1.888l-3.895 1.62 2.955 1.461a41.392 41.392 0 0 0 3.65 1.58l-.355 1.028 1.02.466a16.039 16.039 0 0 0 5.3 1.098h2.426a15.913 15.913 0 0 0 5.279-1.106l.987-.458-.347-1.027a39.37 39.37 0 0 0 3.69-1.636l2.9-1.406-3.888-1.58h1.896c2.647 0 4.74-.79 6.203-2.276a6.69 6.69 0 0 0 1.082-1.454c.253.103.522.182.79.245.372.087.743.126 1.122.126a6.66 6.66 0 0 0 1.58-.197l2.307-.609-1.003-2.117a4.84 4.84 0 0 1 .04-3.319c.165-.482.3-.971.41-1.461.443.095.901.142 1.352.142a5.014 5.014 0 0 0 4.298-2.37l1.122-1.96-2.086-.853a4.392 4.392 0 0 1-2.37-3.24 5.543 5.543 0 0 0 4.582-3.887l-.031.063Z"/><path fill="#FCE527" d="M54.497 51.321H35.534v7.111c0 2.923 2.11 4.74 5.23 4.74 2.608 0 3.296.104 4.26 1.067a3.16 3.16 0 0 1 2.37-1.011v-.11l.6-1.85-1.019-1.114c-.41.127-.837.174-1.264.15a10.17 10.17 0 0 1-1.896-.197h-.198c-.087 0-.087 0-.11.047l-.119.198-.213.356-.411-.095-1.825-.427-.253.411v.047l.221.245-.094.316a3.298 3.298 0 0 1-.704 1.035l-.458.49-.419-.521-.308-.387a1.584 1.584 0 0 1-.221-1.517l-.514.213-.229-.506-.126-.355a1.735 1.735 0 0 1 .576-2.094l1.47-.79 1.398.276c0-.134.088-.616.127-.735h-.079l-.79.3-.79-.537a.412.412 0 0 1 0-.584l.75-1.138-1.904-2.37 2.852 1.122.198-.237.395-.474.45.426a.88.88 0 0 1 .237.427c.79.316 2.252 1.24 2.37 2.742l-.45.181a.528.528 0 0 0 .214.182l2.086.205.19-.055a3.36 3.36 0 0 1 1.114-.213c.379 0 .75.087 1.09.253.15-.056.316-.087.474-.095h.103c1.114 0 1.675.837 2.117 1.501l.23.332c.386.553.9 1.359.924 1.39l.229.356-.285.332c-.26.348-.671.545-1.106.545a3.04 3.04 0 0 1-.38 0 1.785 1.785 0 0 1-.33-.103c0 .111 0 .245-.064.356l-.324 1.865a4.467 4.467 0 0 0 3.58-4.56l-.009-7.142Zm-18.986-.577h14.767a2.376 2.376 0 0 1-.537-2.37 2.573 2.573 0 0 1-.553-.364c-.577.427-2.37 1.707-2.797 2.031l-.095.063-5.8-1.027h-.118c-.19.008-.38.008-.57 0a.557.557 0 0 1-.544.443h-.095a.582.582 0 0 1-.474-.656v-.127a2.306 2.306 0 0 1-.909-2.37v-.103l.087-.063s.11-.08.26-.166l-.418-.063a.292.292 0 0 1-.237-.332.28.28 0 0 1 .324-.237h.008l1.003.158.095-3.532 1.494-1.58.932 1.96-.98 3.397.885.142c.158.032.26.174.237.332a.281.281 0 0 1-.284.237h-.048l-.719-.118v.055a.768.768 0 0 0 .348.324l4.417.07 1.13-1.113a2.366 2.366 0 0 1-1.58-1.968 2.306 2.306 0 0 1-1.257-1.153 2.364 2.364 0 0 1-.103-1.58 5.21 5.21 0 0 1-1.84-1.233H34.98c.316.774.498 1.596.53 2.426v8.517Z"/><path fill="#222220" d="M41.571 54.426c-.095 0-.182.071-.19.166v.008a.193.193 0 0 0 .174.205h.008c.11 0 .19-.087.19-.19 0-.11-.08-.189-.182-.189ZM41.563 54.418c.008 0 .008.008.008.008.008 0 .008-.008.016-.008h-.024Zm12.91 12.958-1.09-.418.3-1.13.332-1.233a25.491 25.491 0 0 1-4.67 1.841c-.79.221-1.358.324-1.358.324v.798c-.972.158-1.952.245-2.94.253h-.086a19.252 19.252 0 0 1-2.94-.253v-.79s-.577-.11-1.367-.332a25.494 25.494 0 0 1-4.67-1.841l.325 1.233.308 1.13-1.099.418-1.185.45a31.714 31.714 0 0 0 5.08 2.103l-.418 1.137a15.778 15.778 0 0 0 5.981 1.035h.048a15.778 15.778 0 0 0 5.98-1.035l-.41-1.138a31.932 31.932 0 0 0 5.073-2.101l-1.194-.45Zm-18.82.522 1.77-.593-.53-1.738a23.622 23.622 0 0 0 3.603 1.438l-.869 2.37a22.236 22.236 0 0 1-3.974-1.477Zm9.394 3.642-.04-.031a19.834 19.834 0 0 1-5.143-.704l1.067-2.891c1.327.331 2.694.513 4.069.521h.087a17.616 17.616 0 0 0 4.069-.521l1.067 2.891c-1.683.474-3.43.72-5.176.735Zm5.389-2.117v-.024l-.87-2.37c1.241-.38 2.442-.861 3.604-1.438l-.53 1.738 1.794.6a21.932 21.932 0 0 1-3.998 1.494ZM45 22.276a8.239 8.239 0 0 1 4.993 1.525c.23-1.17.664-2.291 1.288-3.31l-1.793.205-.932-2-1.81.933L45 17.9l-1.746 1.73-1.81-.932-.932 1.999-1.794-.206a10.027 10.027 0 0 1 1.288 3.311A8.239 8.239 0 0 1 45 22.276Zm-4.567-.885.498.056.213-.45.624-1.344 1.162.6.45.23.364-.332L45 18.878l1.256 1.273.364.355.45-.229 1.154-.6.632 1.343.213.45.498-.055.474-.055c-.19.434-.355.884-.49 1.343a9.978 9.978 0 0 0-9.094 0c-.135-.459-.3-.909-.49-1.343l.466.031Zm28.002 17.193-.213-.26c-1.47-1.873-2.868-3.65-5.365-4.465.103-.087.205-.166.316-.237a4.702 4.702 0 0 0 2.291-3.16 4.687 4.687 0 0 0-.948-3.382l-.79-.988-.498 1.178c0 .07-.877 1.96-2.647 1.96h-.521a4.298 4.298 0 0 0-1.233-3.351 5.643 5.643 0 0 0-4.06-1.69c-.285 0-.57.023-.846.062l-1.21.237.751.988c.585.79 1.114 2.157.49 2.892-.3.26-.64.466-1.011.608-.79.372-1.928.901-1.928 2.229 0 .86.672 1.761 1.88 2.528 3.564 2.26 5.768 4.59 6.724 7.214 1.478 3.998-.45 6.273-2.323 7.474l-.837.538.735.671a4.218 4.218 0 0 0 2.323.996h.719c.734 0 1.461-.103 2.165-.316-.174.308-.387.6-.617.869a5.28 5.28 0 0 1-4.282 1.833h-.703l-.056.703a3.329 3.329 0 0 0 1.178 2.56c.197.174.419.316.655.427a6.157 6.157 0 0 0-1.856 4.33c0 .893-.206 1.777-.593 2.583l-.79 1.185h1.406c2.323 0 4.101-.64 5.334-1.911a6.053 6.053 0 0 0 1.39-2.37 3.734 3.734 0 0 0 2.426.884 5.64 5.64 0 0 0 1.264-.15l.9-.237-.394-.838a5.949 5.949 0 0 1 0-4.148c.292-.87.498-1.77.608-2.686a4.942 4.942 0 0 0 2.3.537 3.803 3.803 0 0 0 3.247-1.73l.434-.79-.79-.332c-2.646-1.099-3.231-4.054-3.35-5.65.261.056.522.087.79.095l.222.15c2.876 0 3.84-2.931 3.88-3.058l.323-1.035h-1.082a7.715 7.715 0 0 1-5.808-2.947Zm2.694 6.242h-.11a3.056 3.056 0 0 1-1.636-.45s-.418 5.713 3.84 7.482v.024a2.992 2.992 0 0 1-2.544 1.343 3.577 3.577 0 0 1-2.995-1.311 11.2 11.2 0 0 1-.647 3.95 6.71 6.71 0 0 0 0 4.74 4.498 4.498 0 0 1-1.075.135c-.221 0-.45-.023-.664-.079a3.114 3.114 0 0 1-2.228-2.046s.166 5.483-6.226 5.483h-.047a6.281 6.281 0 0 0 .727-2.97c.276-4.054 3.026-4.63 3.026-4.63a4.831 4.831 0 0 1-2.11-.79 2.6 2.6 0 0 1-.924-1.944 6.042 6.042 0 0 0 4.843-2.094 6.174 6.174 0 0 0 1.414-2.924 5.508 5.508 0 0 1-3.547 1.099h-.648a3.43 3.43 0 0 1-1.873-.79c2.434-1.58 4.14-4.283 2.631-8.384-1.216-3.287-4.132-5.744-7.063-7.593-.972-.6-1.557-1.28-1.557-1.865 0-1.374 1.952-1.414 2.758-2.37.924-1.075.347-2.813-.459-3.856.23-.04.467-.055.696-.055a4.803 4.803 0 0 1 3.508 1.462 3.446 3.446 0 0 1 .932 3.452l.427.087c.26.048.521.072.79.08h.174c2.315 0 3.358-2.426 3.358-2.426s2.465 3.034-1.162 5.404c-.624.403-.9.79-.79 1.185l.056.261.26.047c2.631.712 3.95 2.529 5.586 4.591a8.51 8.51 0 0 0 6.393 3.24h.047s-.79 2.512-3.16 2.512Z"/><path fill="#222220" d="M66.057 34.215a7.239 7.239 0 0 1 2.252 2.014 4.227 4.227 0 0 0 1.848 1.58c.285.096.593.143.893.143a3.236 3.236 0 0 0 2.868-1.762l.459-1.027-1.114-.063a5.335 5.335 0 0 1-3.082-1.762 3.171 3.171 0 0 0-2.3-1.02 3.612 3.612 0 0 0-1.903.577l-1.027.72 1.106.6Zm1.849-1.13-.024.008c.671 0 1.304.292 1.754.79a6.055 6.055 0 0 0 3.58 1.991 2.473 2.473 0 0 1-2.166 1.304c-.22 0-.442-.04-.655-.11-1.28-.435-1.73-2.371-3.951-3.54.434-.285.94-.435 1.462-.443ZM66.578 44.4l-.015-.016c-.648-5.215-4.433-8.984-8.644-11.268-.388-.213-.751-.387-1.099-.553a6.07 6.07 0 0 0 4.946-1.161s-2.441 1.794-7.435.166c1.383.9 4.07 2.165 6.527 4.22 6.131 5.388 1.746 10.65 1.746 10.65a6.451 6.451 0 0 0 1.651-6.78 12.614 12.614 0 0 1 1.786 7.167c-.174 4.14-2.473 7.76-4.843 10.643a7.108 7.108 0 0 0-1.407 3.113 9.489 9.489 0 0 1 1.802-3.073c2.567-3.01 4.74-6.132 5.048-10.628.27.79 1.36 3.09 3.098 3.951 0 0-2.18-1.312-3.16-6.431Zm-32.71 19.27a6.215 6.215 0 0 1-.593-2.583 6.164 6.164 0 0 0-1.865-4.33c.237-.11.458-.253.656-.426a3.329 3.329 0 0 0 1.177-2.56l-.047-.704h-.712a5.298 5.298 0 0 1-4.274-1.833 6.177 6.177 0 0 1-.616-.869c.703.213 1.43.316 2.165.316h.719a4.242 4.242 0 0 0 2.33-.995l.735-.672-.837-.537c-1.88-1.201-3.8-3.477-2.323-7.475.956-2.6 3.16-4.946 6.755-7.206 1.21-.79 1.873-1.667 1.873-2.528 0-1.328-1.114-1.857-1.928-2.228a3.386 3.386 0 0 1-1.011-.609c-.633-.735-.103-2.133.49-2.892l.79-.987-1.217-.237a5.017 5.017 0 0 0-.846-.064 5.598 5.598 0 0 0-4.116 1.628 4.299 4.299 0 0 0-1.272 3.358h-.474c-1.778 0-2.616-1.88-2.647-1.96l-.498-1.177-.79.988a4.717 4.717 0 0 0-.94 3.382 4.69 4.69 0 0 0 2.283 3.16c.11.071.221.15.316.237-2.497.79-3.895 2.592-5.365 4.465l-.213.268a7.73 7.73 0 0 1-5.815 2.947h-1.083l.332 1.035c0 .127.996 3.058 3.88 3.058h.142c.268-.008.53-.04.79-.095-.119 1.58-.703 4.551-3.358 5.65l-.79.331.434.79a3.804 3.804 0 0 0 3.248 1.731 4.914 4.914 0 0 0 2.291-.537c.11.916.316 1.817.608 2.686a5.948 5.948 0 0 1 0 4.148l-.395.838.901.237c.41.095.838.15 1.264.15a3.734 3.734 0 0 0 2.426-.885c.276.885.75 1.699 1.39 2.37 1.241 1.272 3.019 1.904 5.334 1.912h1.406l-.71-1.295Zm-.68.443c-6.392 0-6.234-5.483-6.234-5.483a3.114 3.114 0 0 1-2.229 2.046 2.673 2.673 0 0 1-.663.08c-.364 0-.72-.048-1.067-.135a6.71 6.71 0 0 0 0-4.74 11.2 11.2 0 0 1-.64-3.952 3.577 3.577 0 0 1-2.995 1.312h-.039a3.003 3.003 0 0 1-2.552-1.351c4.259-1.77 3.84-7.483 3.84-7.483-.49.3-1.059.459-1.636.45h-.086c-2.37 0-3.161-2.512-3.161-2.512h.047a8.492 8.492 0 0 0 6.4-3.231c1.628-2.063 2.955-3.88 5.587-4.591l.26-.047.056-.261c.07-.403-.206-.79-.79-1.185-3.627-2.37-1.162-5.405-1.162-5.405s1.027 2.426 3.358 2.426h.11a5.26 5.26 0 0 0 .79-.08l.427-.086a3.43 3.43 0 0 1 .933-3.453 4.804 4.804 0 0 1 3.508-1.462c.229 0 .466.016.695.056-.79 1.05-1.375 2.789-.45 3.855.79.925 2.75.965 2.75 2.37 0 .586-.546 1.265-1.517 1.873-2.94 1.85-5.855 4.307-7.064 7.593-1.51 4.101.197 6.827 2.63 8.384-.529.442-1.184.719-1.872.79h-.656a5.509 5.509 0 0 1-3.547-1.098 6.236 6.236 0 0 0 1.406 2.923 6.082 6.082 0 0 0 4.852 2.094 2.6 2.6 0 0 1-.925 1.944 4.833 4.833 0 0 1-2.11.79s2.758.56 3.058 4.63a6.28 6.28 0 0 0 .727 2.97l-.04-.03Z"/><path fill="#222220" d="M18.942 37.944h.008c.3 0 .608-.047.893-.142a4.228 4.228 0 0 0 1.848-1.58 7.123 7.123 0 0 1 2.244-2.015l1.107-.593-1.028-.719a3.606 3.606 0 0 0-1.896-.576 3.149 3.149 0 0 0-2.3 1.027 5.358 5.358 0 0 1-3.073 1.762l-1.114.055.45 1.027a3.231 3.231 0 0 0 2.86 1.754Zm1.422-4.061a2.338 2.338 0 0 1 1.746-.79c.514.008 1.02.166 1.454.442-2.236 1.194-2.702 3.106-3.95 3.54a1.99 1.99 0 0 1-.649.11 2.466 2.466 0 0 1-2.18-1.31 6.054 6.054 0 0 0 3.579-1.992Zm3.61 12.974a12.551 12.551 0 0 1 1.787-7.167 6.45 6.45 0 0 0 1.65 6.78s-4.392-5.263 1.747-10.651c2.457-2.055 5.136-3.319 6.519-4.22-4.994 1.628-7.435-.165-7.435-.165a6.054 6.054 0 0 0 4.938 1.161 28.69 28.69 0 0 0-1.098.553c-4.212 2.291-8.02 6.06-8.644 11.275v-.04c-.98 5.12-3.16 6.432-3.16 6.432 1.73-.853 2.828-3.16 3.088-3.95.293 4.503 2.49 7.624 5.057 10.627a9.635 9.635 0 0 1 1.802 3.073 7.078 7.078 0 0 0-1.423-3.097c-2.37-2.884-4.661-6.503-4.827-10.611Zm19.58-9.513a1.282 1.282 0 0 1 1.051-.348v1.493a2.227 2.227 0 0 1-.284 1.051h1.493a2.228 2.228 0 0 1-.285-1.05v-1.494c.38-.047.767.079 1.043.348v-1.035h-3.018v1.035Zm-.624-7.167h-.016c.23.198.498.356.79.45l.19.088v-.98L42.14 29c.087.49.371.916.79 1.177Zm4.164-.008-.008.008c.419-.26.703-.687.79-1.177l-1.754.735v.972l.182-.087c.292-.095.56-.253.79-.45Z"/><path fill="#222220" d="M50.239 26.21c0-1.477-2.49-2.804-5.231-2.804-2.742 0-5.23 1.327-5.23 2.805l.055.363 1.098 6.321-1.098.64-2.868 1.628s-.64.332-.94.53c-1.083.79-1.313 1.848-.688 2.306a2.149 2.149 0 0 1 2.188-1.833 2.839 2.839 0 0 1 2.268 1.233c.158.19.3.395.427.6.166.27.331.506.497.735h-7.316a7.923 7.923 0 0 1 1.05 3.477v16.253c0 3.95 3.027 5.807 6.322 5.807 2.528 0 2.868-.119 4.258 1.272 1.391-1.39 1.73-1.272 4.26-1.272 3.27 0 6.32-1.873 6.32-5.807V42.227a7.926 7.926 0 0 1 1.051-3.477h-7.395c.165-.23.331-.466.497-.735a8.16 8.16 0 0 1 .427-.6 2.866 2.866 0 0 1 2.276-1.233 2.15 2.15 0 0 1 2.188 1.833c.632-.45.403-1.58-.687-2.307-.293-.205-.933-.53-.933-.53l-2.844-1.674-1.098-.64 1.098-6.321.047-.332Zm-9.403.728 3.856 1.303v6.053l-2.837-1.502-1.019-5.854ZM34.981 39.8h6.645a5.104 5.104 0 0 0 1.841 1.232c-.15.522-.11 1.083.103 1.58.253.53.703.941 1.256 1.154a2.365 2.365 0 0 0 1.58 1.968c-.474.482-.94.932-1.13 1.114l-4.416-.071a.768.768 0 0 1-.348-.324v-.056l.719.119h.047c.143 0 .261-.095.285-.237a.292.292 0 0 0-.237-.332l-.885-.142.98-3.398-.933-1.96-1.493 1.581-.095 3.532-1.003-.158a.28.28 0 0 0-.332.229v.008c-.024.158.079.3.237.332l.419.063c-.15.087-.253.15-.261.166l-.087.063v.103a2.32 2.32 0 0 0 .909 2.37v.127c-.048.308.166.6.474.655h.094c.261 0 .49-.181.546-.442.19.008.371.008.56 0h.12l5.79 1.05.096-.062c.458-.324 2.22-1.58 2.797-2.031.166.142.355.269.553.363a2.377 2.377 0 0 0 .537 2.37H35.511v-8.54a7.14 7.14 0 0 0-.53-2.426Zm13.78 7.814c-.6.443-2.078 1.517-2.615 1.896l-5.255-.916v-.142a5.03 5.03 0 0 0 .143-1.083l4.424.071.087-.087c.071-.07 1.47-1.422 2.18-2.204.19.237.412.435.665.593-.127.648.007 1.319.37 1.872Zm-8.778-.948v.024c.118.221.292.41.505.537-.008.324-.04.64-.094.956 0 .071 0 .142-.056.213v.111c-.363 0-.719-.055-1.066-.166a1.706 1.706 0 0 1-.886-1.746 2.19 2.19 0 0 1 .949-.371.658.658 0 0 1 .648.442Zm-.546-1.05.088-3.343.79-.79.482 1.003-.94 3.256-.42-.127Zm9.284 17.603h-.758l.593-1.936c.094-.268-.395-.616-.601-.924.482.292.98.553 1.493.79 0 .063-.727 2.07-.727 2.07Zm2.031-2.165L50.689 61l-.411 2.133c-.26 0-.537.056-.79.071l.434-2.054c.127-.608-1.509-.79-2.315-1.999a2.53 2.53 0 0 1-1.888.577 9.566 9.566 0 0 1-1.778-.19 1.98 1.98 0 0 0-.308 0 .662.662 0 0 0-.608.324l-.119.198-2.252-.546-.537.933a.324.324 0 0 0 .04.41l.15.167c-.15.292-.34.56-.57.79l-.331-.411c-.253-.411-.23-.94.055-1.328l.885-1.493 1.889.285-.293-.672c-.395-.885.206-2.015.269-2.663 0 .198-.206.237-.411.237h-.545a.344.344 0 0 0-.127 0l-.513.308-.403-.371a.287.287 0 0 1 .055-.348l.932-1.05-1.106-1.288 1.58.79.475-.57c.126.127.07.46.07.46a2.52 2.52 0 0 1 1.913 2.512v.229c.158.253.41.426.695.498l2.141.213a7.359 7.359 0 0 1 1.304-.276c.38 0 .759.118 1.075.323a1 1 0 0 1 .513-.173h.071c.956 0 1.36.869 1.873 1.58.387.545.909 1.367.909 1.367a.8.8 0 0 1-.664.355 1.637 1.637 0 0 1-.277 0c-1.027-.19-1.177-2.307-1.762-2.473h-.095a.307.307 0 0 0-.268.166c.268.72.11 1.011.403 1.58.213.34.482.648.79.909 0 0-.04.316-.087.545Zm-11.512-2.07h-.016l.095.245c-.063.213-.79.522-.79.522l-.158-.348a1.168 1.168 0 0 1 .38-1.39l1.192-.728 1.272.269a1.13 1.13 0 0 0 .221.703l-1.335-.253-.79.553a.339.339 0 0 0-.071.427Zm15.28-.514a4.46 4.46 0 0 1-3.594 4.552l.363-1.913c0-.11.04-.244.056-.355.11.047.22.079.331.103.127.008.253.008.38 0 .434 0 .845-.198 1.106-.546l.284-.331-.237-.324s-.529-.838-.924-1.391l-.221-.332c-.443-.663-1.004-1.501-2.118-1.501h-.103c-.158.008-.324.04-.474.095a2.48 2.48 0 0 0-1.09-.253c-.38.008-.759.079-1.114.213l-.19.056-2.086-.206a.527.527 0 0 1-.213-.182l.45-.181c-.126-1.51-1.58-2.434-2.37-2.742a.88.88 0 0 0-.237-.427l-.45-.426-.395.474-.198.237-2.923-1.201 1.904 2.37-.75 1.138a.413.413 0 0 0 0 .585l.79.537.79-.3h.078c0 .118-.087.6-.126.735l-1.375-.238-1.47.79c-.679.49-.916 1.391-.56 2.15l.165.355.23.506.513-.213c-.19.513-.11 1.082.221 1.517l.309.395.41.521.459-.49c.3-.3.537-.648.703-1.035l.095-.316-.222-.245v-.047l.253-.411 1.825.427.411.094.222-.363.118-.197c0-.04 0-.048.11-.048h.198c.624.126 1.257.19 1.889.198.426.023.853-.024 1.264-.15l1.011 1.153-.6 1.849v.11a3.161 3.161 0 0 0-2.37 1.012c-.973-.964-1.66-1.067-4.26-1.067-3.12 0-5.23-1.825-5.23-4.74V51.36H54.52v7.111Zm.514-18.67a6.889 6.889 0 0 0-.529 2.425v5.326a1.587 1.587 0 0 1-1.248-1.438v-.245h-.237a1.687 1.687 0 0 1-1.075-.514 2.242 2.242 0 0 1-.545-1.438 1.586 1.586 0 0 0 .087 1.786c.308.387.758.648 1.248.711a2.087 2.087 0 0 0 1.794 1.746v2.608H51.21a1.832 1.832 0 0 1-.845-2.37l.126-.285-.292-.11a1.865 1.865 0 0 1-1.17-2.316l.064-.237-.222-.103a2.364 2.364 0 0 1-1.153-2.37 1.456 1.456 0 0 0-.269 1.667c-.158.182-.363.395-.592.632a1.844 1.844 0 0 1-1.462-1.738v-.197l-.182-.071a1.826 1.826 0 0 1-1.106-.917 1.806 1.806 0 0 1-.079-1.154c.158.032.316.056.474.072.158.007.324.007.482 0 1.28 0 2.497-.554 3.35-1.502l6.7.032Zm-5.12-5.389 1.296.79.324.19a3.808 3.808 0 0 0-1.762 1.05l-.055.048c-.11.119-.213.237-.316.364l-.063.079a3.67 3.67 0 0 0-.285.403l-.047.07c-.11.159-.214.333-.316.506a4.66 4.66 0 0 1-3.706 2.545 4.66 4.66 0 0 1-3.706-2.545c-.102-.173-.205-.34-.308-.505l-.063-.087-.253-.41-.07-.088a7.174 7.174 0 0 0-.309-.355l-.055-.056a3.807 3.807 0 0 0-1.762-1.05l.332-.19 1.303-.79 1.336-.79 3.563 1.935 3.564-1.872 1.358.758Zm-1.754-1.58-2.836 1.493V28.25l3.848-1.303-1.011 5.886ZM45 27.609l-4.22-1.69c.356-.854 2.015-1.58 4.22-1.58 2.205 0 3.864.726 4.22 1.58L45 27.608Z"/></svg>