<svg width="90" height="90" fill="none" xmlns="http://www.w3.org/2000/svg"><circle cx="45" cy="45" r="45" fill="#F5F5F5"/><path d="M18 40.12h11.4C34.56 49 42 56.44 50.88 61.48V73c-7.68-2.64-14.52-6.96-20.28-12.6A54.974 54.974 0 0 1 18 40.12Zm32.88 0H29.4a53.09 53.09 0 0 1-6-15.12h12.48c3.96 0 7.8 1.56 10.68 4.44 2.76 2.76 4.32 6.6 4.32 10.68ZM50.76 25c.84 3.72 2.64 7.08 5.4 9.84 2.64 2.64 6.12 4.56 9.84 5.4V25H50.76Z" fill="#00AFAA"/><path d="M50.88 40.12V61.6C42 56.44 34.56 49 29.52 40.12h21.36Z" fill="#00539B"/><path d="M66 55.24v12.48c-5.28-1.32-10.32-3.24-15.12-6v-21.6c3.96 0 7.8 1.56 10.68 4.44 2.88 2.88 4.44 6.6 4.44 10.68Z" fill="#F39A00"/></svg>