<svg width="90" height="90" viewBox="0 0 90 90" fill="none" xmlns="http://www.w3.org/2000/svg">
<g clip-path="url(#clip0_448_4013)">
<circle cx="45" cy="45" r="45" fill="#F5F5F5"/>
<path d="M30.5557 51.0313C28.9259 51.0843 27.3385 50.5057 26.1249 49.4166C25.4748 48.8244 24.965 48.0946 24.6328 47.2804C24.3007 46.4662 24.1545 45.588 24.2049 44.7101C24.1665 43.2218 24.6724 41.7707 25.6277 40.6289C26.5205 39.6015 27.7355 38.9073 29.0738 38.6596C30.7165 38.2765 32.4432 38.5279 33.9083 39.3636C34.7915 39.8504 35.53 40.5623 36.0489 41.427C36.5677 42.2917 36.8483 43.2784 36.8622 44.2867C36.9606 46.1919 36.5077 47.9052 35.0997 49.2639C33.8882 50.4122 32.2738 51.0381 30.6049 51.0067L30.5557 51.0313V51.0313ZM30.6394 41.5347C29.9937 41.4987 29.3554 41.6867 28.8324 42.067C28.3094 42.4474 27.9339 42.9967 27.7692 43.6221C27.5287 44.383 27.5287 45.1996 27.7692 45.9606C27.9156 46.4779 28.2079 46.9422 28.611 47.298C29.0141 47.6537 29.5112 47.886 30.0427 47.9669C30.5742 48.0479 31.1178 47.9742 31.6086 47.7546C32.0994 47.535 32.5166 47.1788 32.8105 46.7286C33.1539 46.1905 33.3497 45.5714 33.3782 44.9337C33.4068 44.296 33.267 43.6619 32.9729 43.0953C32.7668 42.6291 32.4272 42.2344 31.997 41.961C31.5668 41.6877 31.0653 41.5479 30.5557 41.5593L30.6394 41.5347V41.5347ZM57.3077 45.9409C56.6972 45.9753 56.1212 46.0196 55.4812 46.0541V50.7409H52.0351V38.8664H55.4123V43.2529C56.1473 43.3165 56.8878 43.2566 57.6031 43.0756C58.0255 42.9524 58.4095 42.723 58.7177 42.4093C59.0263 42.0956 59.2494 41.7081 59.3655 41.2836C59.592 40.5009 59.6855 39.6836 59.8578 38.8221H62.9938C63.0578 41.2836 62.5754 43.4301 60.2418 44.7593C60.3403 44.9366 60.4043 45.0793 60.4978 45.2221C61.4825 46.8221 62.4178 48.4221 63.3778 50.0369C63.4891 50.2603 63.5861 50.4905 63.6683 50.7261H60.0695C59.1391 49.1556 58.2135 47.5409 57.2831 45.9261L57.3077 45.9409V45.9409ZM72.5446 43.6221C72.5687 43.2812 72.5687 42.939 72.5446 42.5981C72.4969 42.3334 72.3733 42.0883 72.1887 41.8925C72.0046 41.6968 71.7673 41.5588 71.5058 41.4953C70.6039 41.1984 69.6469 41.1059 68.7046 41.2246C67.8204 41.2821 66.9559 41.5112 66.1594 41.899C66.0166 41.0522 65.8689 40.2498 65.7114 39.4375C66.4001 39.1048 67.1327 38.8727 67.8874 38.7482C69.4569 38.4255 71.078 38.4474 72.6382 38.8122C74.3022 39.2307 75.4689 40.1907 75.7889 41.9482C75.8554 42.388 75.8815 42.8329 75.8677 43.2775V47.7082C75.9317 48.619 76.0105 48.6929 76.9409 48.8603V50.7507C76.0218 51.0527 75.0258 51.0249 74.1249 50.6719C73.8871 50.5494 73.6818 50.3721 73.5263 50.1547C73.3707 49.9373 73.2688 49.686 73.2289 49.4215C73.2018 49.2951 73.1851 49.1667 73.1797 49.0375C72.0425 50.6719 70.4277 51.0707 68.6357 50.9722C66.6369 50.859 65.1009 49.4953 64.8105 47.9298C64.3477 45.355 65.6572 43.435 68.2566 43.0313C69.9354 42.7901 70.4031 42.9033 72.5298 43.6221H72.5446V43.6221ZM72.52 45.8769C71.9809 45.5128 71.3601 45.2878 70.7132 45.2221C70.3854 45.1555 70.0471 45.1566 69.7198 45.2251C69.3919 45.2937 69.0817 45.4284 68.808 45.6209C68.5471 45.816 68.3551 46.089 68.2591 46.4005C68.1636 46.7121 68.1695 47.0459 68.2763 47.3538C68.3659 47.6276 68.5362 47.868 68.7642 48.0437C68.9926 48.2193 69.2688 48.322 69.5563 48.3384C70.1397 48.3977 70.729 48.3097 71.2695 48.0824C71.7136 47.9341 72.0868 47.6267 72.3177 47.2195C72.5486 46.8122 72.6209 46.334 72.52 45.8769ZM46.0142 38.8516H49.3422V50.7556H45.9846V46.9501C45.3594 47.0929 44.7982 47.2553 44.2074 47.3341C42.6714 47.5409 41.2142 47.3341 39.9834 46.3495C39.0749 45.5683 38.4731 44.4902 38.2849 43.307C37.9945 41.8301 38.1717 40.3532 38.1225 38.8762H41.5932V39.403C41.5932 40.3876 41.5932 41.323 41.6425 42.2978C41.6519 42.5862 41.7187 42.8698 41.8387 43.1322C41.9589 43.3946 42.1299 43.6304 42.3421 43.8261C42.5542 44.0217 42.8031 44.1731 43.0743 44.2717C43.3455 44.3702 43.6336 44.4138 43.9218 44.3999C44.6723 44.4232 45.4096 44.1982 46.0191 43.7599L46.0142 38.8516V38.8516ZM19.848 50.7113H16.5052V41.8941H13V38.8664H23.3385V41.8596H19.848V50.7113Z" fill="#333333"/>
</g>
<defs>
<clipPath id="clip0_448_4013">
<rect width="90" height="90" fill="white"/>
</clipPath>
</defs>
</svg>
