<svg width="90" height="90" fill="none" xmlns="http://www.w3.org/2000/svg"><circle cx="45" cy="45" r="45" fill="#282830"/><path d="M45 23.297c-18.055 0-32.695 9.493-32.695 21.199 0 11.71 14.64 21.207 32.695 21.207s32.695-9.493 32.695-21.207c0-11.715-14.64-21.199-32.695-21.199Zm0 33.305c-2.686 0-4.877-5.301-5.014-11.973a57.346 57.346 0 0 0 10.028 0c-.137 6.667-2.329 11.973-5.014 11.973Zm-4.684-17.27c.73-4.716 2.553-8.063 4.684-8.063 2.131 0 3.953 3.347 4.684 8.063a52.838 52.838 0 0 1-9.368 0ZM45 26.364c-3.506 0-6.497 5.263-7.601 12.61-6.648-1.038-11.288-3.406-11.288-6.159 0-3.712 8.456-6.723 18.889-6.723s18.889 3.01 18.889 6.723c0 2.753-4.64 5.121-11.288 6.16-1.104-7.348-4.095-12.611-7.601-12.611Zm-28.007 17.34c0-3.593 1.38-6.965 3.781-9.86-.026.203-.043.41-.043.617 0 4.526 6.772 8.385 16.22 9.806-.008.328-.008.66-.008.991 0 8.437 2.36 15.582 5.62 18.007-14.33-.866-25.57-9.294-25.57-19.562Zm30.443 19.561c3.262-2.425 5.62-9.57 5.62-18.007 0-.336-.004-.663-.008-.99 9.445-1.422 16.22-5.276 16.22-9.807 0-.207-.017-.414-.042-.616 2.402 2.903 3.781 6.266 3.781 9.858 0 10.268-11.24 18.696-25.57 19.562Z" fill="#fff"/></svg>