<svg width="90" height="90" viewBox="0 0 90 90" fill="none" xmlns="http://www.w3.org/2000/svg">
<circle cx="45" cy="45" r="45" fill="#172D07"/>
<g clip-path="url(#clip0_516_524)">
<path d="M50.8422 56.859L29.3276 37.4388C28.1134 36.3378 28.6962 33.3058 29.2628 31.3191C29.3034 31.2007 29.3018 31.0722 29.2584 30.9547C29.215 30.8373 29.1323 30.7379 29.024 30.6729C28.9157 30.6079 28.7882 30.5812 28.6624 30.5971C28.5366 30.6131 28.4201 30.6707 28.332 30.7606L25.0943 33.5532L19.9301 37.9415C19.0254 38.7114 18.2964 39.6614 17.791 40.729C17.2855 41.7966 17.0151 42.9576 16.9975 44.1357C16.9799 45.3137 17.2156 46.482 17.6889 47.5638C18.1623 48.6456 18.8627 49.6164 19.7439 50.4122L44.3425 72.6489C44.6162 72.8873 44.9688 73.0189 45.334 73.0189C45.6993 73.0189 46.0519 72.8873 46.3256 72.6489L50.6641 68.9548C51.5421 68.2082 52.2495 67.2867 52.74 66.2511C53.2304 65.2155 53.4927 64.0891 53.5095 62.9463C53.5264 61.8035 53.2974 60.6702 52.8376 59.6209C52.3778 58.5717 51.6978 57.6304 50.8422 56.859V56.859Z" fill="white"/>
<path d="M64.643 55.2473L74 46.0638L63.3074 54.4734L73.83 43.7181L61.9152 53.5L72.8506 41.6117L60.5472 52.0558L71.8145 40.383L59.3898 50.7553L70.1714 38.8989L57.6333 49.8856L68.9086 37.766L56.2573 48.5612L67.6783 36.6489L54.8084 47.3165L66.3751 35.4362L53.6428 45.7447L64.8696 34.1117L51.9997 44.7234L63.704 33.0585L50.4051 43.766L62.2066 31.7101L48.8591 42.4255L60.7091 30.3617L47.5073 41.3165L59.3007 29.0851L46.6251 39.9362L58.4346 28.3032L45.16 38.6755L56.9777 27.0266L43.614 37.6064L55.545 25.6941L42.5941 36.3537L54.2337 24.5372L41.3719 35.3883L52.9467 23.3484L39.7854 33.7846L51.3359 21.8963L38.0451 32.2207L50.1865 20.867L36.8714 31.2872L48.5677 19.383L35.714 29.9308L47.2402 18.1941L35.4549 27.8564L45.9775 17.0213L35.6168 25.6782L44.8605 16.0479L44.8038 16L36.0782 23.883C35.2072 24.6307 34.506 25.551 34.0202 26.5839C33.5345 27.6168 33.2751 28.7391 33.2591 29.8775C33.2431 31.0158 33.4707 32.1448 33.9272 33.1906C34.3836 34.2364 35.0587 35.1755 35.9082 35.9468L57.4228 55.391C58.637 56.492 58.0542 59.516 57.4876 61.5027C57.4563 61.6167 57.463 61.7377 57.5067 61.8476C57.5505 61.9576 57.629 62.0508 57.7307 62.1134C57.8323 62.1761 57.9517 62.2048 58.0712 62.1954C58.1907 62.186 58.3039 62.1389 58.3942 62.0612L61.6966 59.2527L71.7497 50.3963C72.2016 49.9957 72.5963 49.5368 72.9234 49.0319L64.643 55.2473Z" fill="white"/>
</g>
<defs>
<clipPath id="clip0_516_524">
<rect width="57" height="57" fill="white" transform="translate(17 16)"/>
</clipPath>
</defs>
</svg>
