<svg xmlns="http://www.w3.org/2000/svg" width="90" height="90" fill="none"><circle cx="45" cy="45" r="45" fill="#F5F5F5"/><path fill="#A58A57" d="M64.84 52.92 45.16 33.24l-.32-.32-.32.32-19.36 19.68h1.28l18.4-18.56L63.4 52.92h1.44Z"/><path fill="#A58A57" d="M21.48 52.92 45 29.4l23.52 23.36h1.6L45 27.8 19.88 52.92h1.6ZM13 59.8h64l-3.36-3.36H16.52L13 59.8Z"/><path fill="#00345E" d="M56.36 40.92h-1.44v-7.2c1.28-.16 3.68-.16 4.16-.16.8 0 3.68.16 5.28.32 0-.32-.16-.8-.16-.96 0-.32 0-.64.16-.96-1.92.16-5.12.32-6.72.32-.64 0-3.68-.16-5.6-.32.16 1.6.16 6.56.16 9.76v6.72c-2.24 2.24-4.32 3.04-6.08 3.04-5.76 0-8.32-6.08-8.32-11.68 0-5.92 2.4-12.16 8.32-12.16 1.76 0 3.68.96 5.92 3.36h.48l.8-2.88c-2.24-1.44-4.8-1.76-7.04-1.76-4.48 0-8 2.08-9.92 5.76-1.28 0-2.88.16-4.48.16-2.56 0-6.08-.16-7.52-.16 0 .32.16.8.16.96 0 .16 0 .64-.16.96 1.92-.16 3.68-.32 5.6-.16h.48c.16 1.6.16 5.92.16 8.16 0 3.68 0 8-.16 11.04.48 0 1.28-.16 1.6-.16.16 0 .96 0 1.44.16-.16-3.2-.16-7.52-.16-11.04 0-2.24 0-6.56.16-8.16h2.4c-.64 1.92-1.12 4-.96 6.08 0 8.16 4.48 13.12 11.04 13.12 2.4 0 4.64-.64 6.72-1.92 0 .64 0 1.28-.16 1.92.48 0 1.12-.16 1.6-.16 1.28 0 3.2.16 3.68.16 4.64 0 8.16-1.92 8.16-6.08-.32-5.6-6.56-6.08-9.6-6.08Zm.96 10.24h-2.4v-8.8c5.44 0 7.84.96 7.84 4.16 0 3.04-1.92 4.64-5.44 4.64Z"/></svg>