<svg width="90" height="90" fill="none" xmlns="http://www.w3.org/2000/svg"><circle cx="45" cy="45" r="45" fill="#BC2F43"/><path d="M34.35 59.75a8.538 8.538 0 0 1-8.25-8.425V34.35a2.011 2.011 0 0 1 2.025-2.025A7.988 7.988 0 0 0 21 36.65v14.925a15.75 15.75 0 0 0 13.35 8.175Z" fill="#fff"/><path d="M28.125 32.25h5a2.5 2.5 0 0 0 0-5h-5A7.1 7.1 0 0 0 21 34.35v2.275a8.074 8.074 0 0 1 7.125-4.375ZM67.1 36.275a10.975 10.975 0 0 0-10.7-9.025H43.5v24.125a8.575 8.575 0 0 1-8.75 8.375c-.15.013-.3.013-.45 0a15.725 15.725 0 0 1-13.3-8.2 13.75 13.75 0 0 0 13.75 13.325 13.675 13.675 0 0 0 13.75-13.5V32.25h8.225A15.437 15.437 0 0 1 67.1 36.275Z" fill="#fff"/><path d="M71 51.75a13.039 13.039 0 0 0-4.35-9.6c.428-1.204.648-2.472.65-3.75a9.807 9.807 0 0 0-.2-2.1 15.537 15.537 0 0 0-10.275-4.05h-.275a5.95 5.95 0 0 1 5.7 6.075c-.001.42-.043.838-.125 1.25a6.25 6.25 0 0 1-.9 2.2 2.11 2.11 0 0 0-.08 2.566c.18.25.412.458.68.609.75.41 1.426.942 2 1.575a8.012 8.012 0 0 1 2.1 5.425 7.787 7.787 0 0 1-6.8 7.8 13.226 13.226 0 0 0 11.875-8Z" fill="#fff"/><path d="M59.15 59.75h-9.025a2.5 2.5 0 0 0 0 5h8.2A12.837 12.837 0 0 0 71 51.9v-.15a13.274 13.274 0 0 1-11.85 8Z" fill="#fff"/></svg>