<svg width="90" height="90" viewBox="0 0 90 90" fill="none" xmlns="http://www.w3.org/2000/svg">
<circle cx="45" cy="45" r="45" fill="#F5F5F5"/>
<path d="M47.2281 30.4887C47.2531 30.4636 47.2531 30.4386 47.2782 30.4135C47.7544 29.7368 47.5539 29.2356 47.2281 28.9599C47.0275 28.7845 42.391 25.9774 42.391 25.9774C42.0652 25.7519 41.8396 25.3759 41.8396 24.9248C41.8396 24.2481 42.2406 23.7218 43.1931 23.4461C46.1755 22.619 56.7017 22.193 60.2606 22.193C61.4887 22.193 63.6441 22.193 65.5489 22.2431L65.4737 22.1679C60.2356 17.7068 53.4186 15 46 15C29.4336 15 16 28.4336 16 45C16 52.2933 18.6065 58.9599 22.9173 64.1478C26.6767 58.7343 35.9999 45.3759 38.03 42.6441C40.3859 39.4861 45.7494 32.4938 46.6516 31.3158L46.7017 31.2657L47.2281 30.4887V30.4887ZM27.7043 68.7845C32.767 72.6944 39.1078 75 46 75C62.5665 75 76 61.5665 76 45C76 39.9874 74.7719 35.2507 72.5915 31.1154C73.619 30.1128 74.8221 28.5339 74.02 26.579C73.7695 26.0026 72.6166 24.6492 72.3158 24.3234L72.366 24.4487C73.0927 26.6542 71.6642 28.0326 70.6115 28.96C70.0351 29.4863 62.416 36.6542 53.4937 44.4738C45.6241 51.366 36.802 58.3584 31.7143 62.193C24.5464 67.5564 23.1429 68.3334 23.1429 68.3334C22.9424 68.4336 22.6416 68.534 22.4161 68.534C21.99 68.534 21.589 68.3334 21.3634 68.0326C21.3133 68.1328 21.3133 68.2082 21.3384 68.2583C22.1153 69.5114 23.3935 70.94 24.1203 70.94C24.3459 70.94 24.6717 70.8396 24.8722 70.7394C24.8472 70.7143 25.4236 70.4136 27.7043 68.7845V68.7845Z" fill="#E2001A"/>
<path d="M47.2781 30.4135C47.7293 29.7368 47.5538 29.2355 47.228 28.9599C47.0275 28.7844 42.391 25.9774 42.391 25.9774C42.0652 25.7518 41.8396 25.3759 41.8396 24.9248C41.8396 24.223 42.2656 23.7217 43.1929 23.4461C46.1753 22.619 56.7017 22.1929 60.2606 22.1929C61.9399 22.1929 65.2982 22.1929 67.4786 22.3182C69.9347 22.4686 71.8145 22.9949 72.2906 24.1729C73.1929 26.5037 71.6891 27.9573 70.6115 28.9348C70.0351 29.4611 62.441 36.6289 53.4937 44.4486C45.6241 51.3408 36.802 58.3333 31.7143 62.1678C24.5463 67.5313 23.1428 68.3082 23.1428 68.3082C22.9423 68.4084 22.6416 68.5087 22.3909 68.5087C21.6391 68.5087 21.0626 67.9323 21.0626 67.2054C21.0626 66.9297 21.1378 66.6541 21.2882 66.4536C21.2882 66.4536 35.4235 46.1026 37.9799 42.6441C40.5614 39.2104 46.7267 31.1403 46.7267 31.1403C46.7267 31.1403 46.8271 31.0651 47.2781 30.4135V30.4135Z" fill="#FEFEFE"/>
</svg>
