<svg xmlns="http://www.w3.org/2000/svg" width="90" height="90" fill="none"><circle cx="45" cy="45" r="45" fill="#F5F5F5"/><path fill="#164376" d="M74.51 50.802a.712.712 0 0 0-.574.3c-4.75 6.17-16.707 10.538-30.684 10.538-13.758 0-25.551-4.232-30.438-10.237-.054-.055-.027-.137.028-.191.027-.028.054-.028.082-.028.163 0 .327.055.436.192 4.641 4.995 14.769 8.435 26.48 8.435 11.11 0 20.774-3.112 25.716-7.671.3-.3.3-.792 0-1.092-.137-.137-.355-.246-.574-.218h-1.447a.889.889 0 0 0-.627.273c-4.395 4.64-13.814 7.807-24.733 7.807-15.15-.027-27.244-6.142-27.244-13.704s12.12-13.704 27.244-13.704c11.001 0 20.447 3.249 24.815 7.89a.889.889 0 0 0 .627.272h1.393c.436.028.791-.327.819-.764a.881.881 0 0 0-.219-.573c-4.94-4.614-14.66-7.753-25.825-7.753-11.765 0-21.866 3.467-26.506 8.462a.645.645 0 0 1-.437.191c-.082 0-.137-.054-.137-.136 0-.027 0-.055.027-.082 4.887-6.006 16.707-10.264 30.466-10.264 14.059 0 26.07 4.422 30.766 10.619.136.191.354.3.573.3h4.013a1.4 1.4 0 0 0 1.447-1.337c.027-.355-.11-.71-.355-.983-5.842-6.142-18.427-10.4-33.004-10.4-20.174 0-36.526 8.161-36.526 18.262 0 10.1 16.352 18.263 36.526 18.263 14.523 0 27.025-4.232 32.922-10.346a1.353 1.353 0 0 0-.11-1.939 1.454 1.454 0 0 0-.982-.354h-3.959v-.028Z"/><path fill="#164376" d="M24.389 46.489c-.027.573-.464 1.065-1.037 1.12h-.464c-.574-.055-1.01-.52-1.038-1.12v-2.566c.028-.573.464-1.065 1.038-1.12h.491c.573.055 1.01.52 1.037 1.12l-.027 2.566Zm1.392-2.539a2.249 2.249 0 0 0-2.238-2.238h-.928c-1.229-.028-2.212.955-2.239 2.184v.491c0 .164-.136.3-.3.3h-.983c-.164 0-.273-.109-.3-.273v-1.146c.027-.437-.11-.901-.41-1.229a1.193 1.193 0 0 0-.846-.245h-.218v6.852h1.474v-2.54c0-.163.136-.272.273-.3h1.01c.164 0 .273.137.3.274v.409a2.285 2.285 0 0 0 2.239 2.239h.928a2.285 2.285 0 0 0 2.238-2.239V43.95ZM32.36 47.226c0 .928.437 1.447 1.256 1.447h.218v-6.797H32.36v2.457c0 .136-.109.272-.273.272h-2.702a.274.274 0 0 1-.273-.272v-1.12c0-.928-.437-1.474-1.256-1.474h-.218v6.852h1.474v-2.484c0-.137.109-.273.273-.273h2.73c.163 0 .273.136.273.273v.819l-.028.3ZM50.46 41.848c-.601.028-1.093.519-1.12 1.12h2.13c.163 0 .272.136.3.272v5.378h1.474V43.24c0-.163.136-.273.273-.273h1.092a1.182 1.182 0 0 0 1.119-1.119h-5.269ZM61.16 44.469a.822.822 0 0 1-.764.873H58.704c-.164 0-.273-.136-.3-.3v-1.774c0-.164.136-.3.272-.3h1.584c.628 0 .9.245.9.846v.655Zm1.393-.464V43.786a1.9 1.9 0 0 0-1.884-1.938h-3.74v6.77h1.474v-1.91c0-.164.137-.273.273-.3h1.83c1.091 0 2.02-.874 2.047-1.966v-.437ZM43.47 46.49c0 1.173.956 2.156 2.13 2.156h2.894a1.182 1.182 0 0 0-1.12-1.12h-1.72c-.436-.027-.736-.41-.709-.846v-2.839a.842.842 0 0 1 .764-.873h1.529c.6-.055 1.065-.52 1.092-1.12H45.6c-1.174 0-2.13.956-2.13 2.13v2.511ZM78.413 41.848c-.164 0-.355 0-.518.028-.11.027-.164.136-.328.573 0 0-1.147 3.221-1.31 3.549-.028.082-.11.136-.219.163-.109 0-.19-.054-.218-.163-.164-.328-1.31-3.55-1.31-3.55-.192-.436-.219-.518-.328-.572-.164-.028-.355-.028-.519-.028h-1.42V48.7h.22c.818 0 1.228-.464 1.228-1.392v-2.62c0-.192.136-.246.218-.246.11 0 .218.081.273.19l1.201 3.086h1.31l1.202-3.085c.027-.11.136-.191.273-.191.081 0 .218.054.218.245v2.621c0 .928.41 1.392 1.228 1.392h.219v-6.852h-1.42ZM65.555 48.618h-1.5v-6.852h.217c.82 0 1.229.464 1.229 1.393v2.784c0 .164.246.246.41.055l2.811-4.15h1.502v6.798h-.219c-.819 0-1.228-.464-1.228-1.393v-2.702c0-.164-.246-.246-.41-.055l-2.812 4.122ZM37.11 48.618H35.61v-6.852h.218c.82 0 1.229.464 1.229 1.393v2.784c0 .164.245.246.41.055l2.81-4.15h1.502v6.798h-.218c-.819 0-1.229-.464-1.229-1.393v-2.702c0-.164-.245-.246-.409-.055l-2.812 4.122Z"/></svg>