<svg width="90" height="90" fill="none" xmlns="http://www.w3.org/2000/svg"><circle cx="45" cy="45" r="45" fill="#AB0873"/><g clip-path="url(#a)"><path d="M50.79 23.34c-.752-.372-1.127-.744-1.127-1.24v-7.133c0-.744-.751-1.24-1.69-.744-2.941 2.047-5.069 3.498-8.073 5.396-.563.186-.75.744-.75 1.489v1.488c0 .558-.564.93-.94 1.302-1.313.559-2.815.93-3.942 1.489C25.82 29.294 20 37.295 20 46.598a25.874 25.874 0 0 0 3.515 12.38 26.159 26.159 0 0 0 9.063 9.203c1.502.93 3.004 1.24 4.506-.186 3.943-3.721 8.073-7.442 12.016-11.164a3.075 3.075 0 0 0 .938-2.232V36.923c0-1.489.939-1.303 1.69-.744a13.39 13.39 0 0 1 4.548 4.608 13.246 13.246 0 0 1 1.835 6.183 12.764 12.764 0 0 1-3.567 8.931 3.075 3.075 0 0 0-.939 2.233v9.49c0 1.488 1.502 1.488 2.253.93a25.256 25.256 0 0 0 9.593-9.201A24.96 24.96 0 0 0 69 46.598c.188-11.35-8.26-20.653-18.21-23.258ZM39.15 36.55v20.096c0 1.86-1.127 1.86-3.192.185a14.689 14.689 0 0 1-3.614-4.693 14.57 14.57 0 0 1-1.455-5.726c.06-2.211.676-4.373 1.79-6.289a13.378 13.378 0 0 1 4.593-4.689c1.127-.347 2.065 0 1.877 1.117Z" fill="#fff"/></g><defs><clipPath id="a"><path fill="#fff" transform="translate(20 14)" d="M0 0h49v55H0z"/></clipPath></defs></svg>