<svg width="90" height="90" viewBox="0 0 90 90" fill="none" xmlns="http://www.w3.org/2000/svg">
<circle cx="45" cy="45" r="45" fill="#0E3263"/>
<path d="M45.814 32.646C46.338 32.5995 46.8658 32.6629 47.364 32.832V18.882H49.1C49.1 18.882 48.914 22.726 49.596 33.266C53.5627 34.1388 57.1803 36.1716 59.9887 39.1061C62.797 42.0404 64.6691 45.7437 65.3671 49.745C66.0649 53.7463 65.5569 57.8647 63.9079 61.5764C62.2588 65.2884 59.5431 68.4259 56.106 70.59C55.982 70.466 55.796 70.156 55.61 69.97C49.41 62.22 47.86 50.502 47.55 40.272C48.418 40.458 49.286 40.582 50.154 40.706C51.433 49.3586 55.3021 57.4209 61.252 63.832C63.3888 61.1778 64.4802 57.8332 64.3203 54.4294C64.1604 51.0257 62.7603 47.7982 60.384 45.356C57.7102 42.4825 54.2669 40.438 50.464 39.466C48.6573 39.0318 46.8038 38.8237 44.946 38.846C43.0889 38.841 41.2376 39.049 39.428 39.466C31.492 41.45 25.54 47.65 25.54 55.09C25.6189 58.2404 26.7054 61.2824 28.64 63.77C34.591 57.3673 38.4419 49.2978 39.676 40.644C40.5926 40.5504 41.5034 40.4055 42.404 40.21C41.97 50.44 40.482 62.034 34.344 69.784C34.1521 70.0836 33.9452 70.3733 33.724 70.652C30.3135 68.4369 27.6356 65.2613 26.0281 61.5258C24.4207 57.7904 23.9557 53.6624 24.6919 49.663C25.4282 45.6635 27.3326 41.9717 30.1648 39.0535C32.9972 36.1354 36.6304 34.1214 40.606 33.266C41.164 22.788 41.04 18.882 41.04 18.882H42.776L42.652 32.956C43.1109 32.803 43.5951 32.7398 44.078 32.77V12H45.876V32.646H45.814V32.646ZM46 40.148C46.186 49.944 46.868 62.096 50.092 70.342C50.4756 71.2545 50.9102 72.1445 51.394 73.008C49.3119 73.5891 47.1684 73.922 45.008 74C42.844 73.9623 40.6954 73.6285 38.622 73.008C39.118 71.892 39.614 70.962 40.048 70.032C43.148 61.848 43.954 49.882 44.016 40.148H46V40.148Z" fill="white"/>
</svg>
