<svg width="90" height="90" viewBox="0 0 90 90" fill="none" xmlns="http://www.w3.org/2000/svg">
<circle cx="45" cy="45" r="45" fill="#F5F5F5"/>
<path d="M16.9375 39.7275L13 37.68L44.5 27.1275L76 37.68L72.0625 39.7275L76 40.9875L72.0625 43.035L76 44.4525L72.3775 46.3425L76 47.6025L60.25 55.635V55.95C60.25 61.4625 53.1625 65.715 44.5 65.715C35.995 65.715 28.9075 61.305 28.9075 55.95V55.4775L13 47.445L16.6225 46.185L13 44.4525L16.9375 43.035L13 40.9875L16.9375 39.7275Z" fill="white"/>
<path d="M28.5924 52.485V54.06H28.7499L28.5924 52.485ZM44.4999 30.435L21.1899 38.31L28.9074 42.2475C30.3249 37.68 36.6249 34.215 44.3424 34.215C52.0599 34.215 58.5174 37.68 59.7774 42.2475L67.4949 38.31C67.6524 38.31 44.4999 30.435 44.4999 30.435Z" fill="#016350"/>
<path d="M44.5 27.1275L13 37.68L16.9375 39.7275L13 40.9875L16.9375 43.035L13 44.4525L16.6225 46.3425C16.3075 46.5 13 47.445 13 47.445L28.5925 55.32V53.9025L16.6225 48.075L18.5125 47.445L28.435 52.485V50.91L16.9375 44.925L18.985 44.295L28.435 49.02V47.2875L16.9375 41.3025L18.985 40.83L28.435 45.7125V44.1375L16.78 38.1525L44.5 28.7025L72.0625 37.995L60.25 43.8225V55.635L76 47.445L72.3775 46.185L76 44.295L72.0625 42.8775L76 40.83L72.0625 39.57L76 37.5225L44.5 27.1275V27.1275ZM60.25 49.02L69.8575 44.1375L71.7475 44.7675L60.0925 50.595C60.25 50.1225 60.25 49.4925 60.25 49.02V49.02ZM72.535 48.075L60.4075 54.2175V52.485L70.4875 47.445L72.535 48.075V48.075ZM60.25 47.2875V45.555L69.8575 40.6725L71.7475 41.3025L60.25 47.2875V47.2875Z" fill="#016350"/>
<path d="M28.5925 47.2875L28.75 45.7125H28.5925V47.2875ZM28.5925 50.595L28.75 49.02H28.5925V50.595Z" fill="#016350"/>
<path d="M44.5 60.5175C35.995 60.5175 28.9075 56.1075 28.9075 50.7525V52.485C28.9075 57.9975 35.995 62.25 44.5 62.25C53.1625 62.25 60.25 57.6825 60.25 52.485V50.7525C60.25 56.265 53.1625 60.5175 44.5 60.5175Z" fill="#D7B56D"/>
<path d="M44.5 63.9825C35.995 63.9825 28.9075 59.415 28.9075 54.2175V56.1075C28.9075 61.62 35.995 65.8725 44.5 65.8725C53.1625 65.8725 60.25 61.4625 60.25 56.1075V54.2175C60.25 59.5725 53.1625 63.9825 44.5 63.9825V63.9825Z" fill="#D7B56D"/>
<path d="M60.0925 43.665V43.98C60.0925 44.61 60.0925 45.555 59.7775 46.185C58.2025 50.595 51.9025 53.745 44.3425 53.745C35.8375 53.745 28.75 49.335 28.75 43.98V45.7125C28.75 51.225 35.8375 55.4775 44.3425 55.4775C53.005 55.4775 60.0925 51.0675 60.0925 45.7125V43.665Z" fill="#D7B56D"/>
<path d="M44.5 57.0525C35.995 57.0525 28.9075 52.6425 28.9075 47.2875V49.02C28.9075 54.5325 35.995 58.785 44.5 58.785C53.1625 58.785 60.25 54.375 60.25 49.02V47.445C60.25 52.6425 53.1625 57.0525 44.5 57.0525V57.0525Z" fill="#D7B56D"/>
<path d="M58.5175 43.8225C58.5175 41.775 57.1 39.885 55.0525 38.31V40.3575C56.155 41.3025 56.9425 42.5625 56.9425 43.8225C56.9425 45.0825 56.3125 46.185 55.0525 47.2875V49.1775C57.2575 47.9175 58.5175 45.87 58.5175 43.8225Z" fill="#D7B56D"/>
</svg>
