<svg xmlns="http://www.w3.org/2000/svg" width="90" height="90" fill="none"><circle cx="45" cy="45" r="45" fill="#F5F5F5"/><path fill="url(#a)" d="M49.875 60.5s1.25 3.5 2.5 3.625h-15c-3 0-5.75-1.75-6.625-5l-8.75-26S21.25 30 20 29.5h15.375c3 .125 5.125 1.25 6.25 5.25l8.25 25.75Z"/><path fill="#EF5145" d="M40.25 60.5S39 64 37.75 64.125h15c3 0 5.75-1.75 6.625-5l8.625-26S68.75 30 70 29.5H54.75c-3 0-5 1.125-6.125 5.125L40.25 60.5Z"/><defs><linearGradient id="a" x1="36.188" x2="36.188" y1="26.614" y2="67.244" gradientUnits="userSpaceOnUse"><stop stop-color="#F2746A"/><stop offset=".33" stop-color="#F2746A"/><stop offset=".76" stop-color="#C74A40"/><stop offset="1" stop-color="#C2453B"/></linearGradient></defs></svg>