<svg xmlns="http://www.w3.org/2000/svg" width="90" height="90" fill="none"><circle cx="45" cy="45" r="45" fill="#9D235A"/><path fill="#fff" d="M26.8 35.3c0 .13 0 .26.13.39 0 .13 0 .13.13.26l.13.13c.13.26.13.39.26.52h-.26c.26.52.52.91.78 1.43h.13l.26.26v.13l.26.26.26.26 5.59-5.59V21l-5.2 5.07-.39.52c-1.43 1.43-2.21 4.42-2.34 6.5V34c0 .26 0 .39.13.52v.52s0 .13.13.26c0 0 0-.13 0 0Zm36.66-.91v.26c0 .13 0 .13-.13.26v.91c0 .13 0 .13-.13.26 0 .13 0 .13-.13.26v.26c0 .13-.13.13-.13.26s-.13.13-.13.26l-.13.13c-.26.52-.65 1.17-1.04 1.56l-.13.13c-.13.26-.39.39-.52.52-1.56-1.3-3.64-2.08-5.72-2.08-2.34 0-4.68.91-6.37 2.6l-8.19 8.19.13-12.22 8.32-8.45c1.56-1.56 3.64-2.47 5.85-2.6h.39c2.21 0 4.16.91 5.59 2.34 1.82 1.82 2.47 4.94 2.34 7.28.13-.26.13-.13.13-.13ZM28.1 39.72c-1.17-1.17-2.08-2.73-2.34-4.29l-.13 10.14c-.13 2.47.78 4.94 2.6 6.63l11.7 11.7v-3.64l.13-.13 4.29-4.29-8.32-8.32c-4.03-3.9-7.93-7.8-7.93-7.8Zm36.27-4.03c-.39 1.56-1.17 2.99-2.34 4.03l-.13.13-20.93 20.93V73l20.8-20.8c1.82-1.82 2.73-4.42 2.6-7.02v-9.49Z"/></svg>