<svg xmlns="http://www.w3.org/2000/svg" width="90" height="90" fill="none"><circle cx="45" cy="45" r="45" fill="#067941"/><path fill="#fff" d="M31.189 23c6.052.01 12.105.005 18.158 0 2.611.043 5.362.246 7.67 1.588 1.862 1.067 3.074 3.08 3.32 5.194.29 2.196.155 4.652-1.255 6.467-.777 1.13-2.008 1.844-3.267 2.307 1.163.406 2.365.802 3.33 1.593 1.935 1.468 2.78 3.982 2.78 6.343.13 2.364-.145 4.855-1.346 6.935-1.15 1.946-3.316 3.046-5.46 3.514-1.684.42-3.436.488-5.169.478-6.231.015-12.462-.01-18.694.015-.024-.454-.053-.903-.062-1.352-.005-11.029.024-22.058-.005-33.082Zm10.821 6.323c0 2.394-.01 4.788.005 7.182 1.636-.024 3.277.043 4.909-.029 1.66-.058 2.983-1.617 3.074-3.22.053-1.061-.091-2.258-.873-3.05-.686-.68-1.69-.898-2.626-.893-1.491.005-2.988.005-4.489.01Zm.005 13.49c-.01 2.78-.014 5.566.005 8.346 1.564-.01 3.128.005 4.691-.005.787-.029 1.598-.015 2.337-.319 2.49-.82 3.185-4.348 1.703-6.337-.782-1.192-2.263-1.709-3.639-1.704-1.699.03-3.398 0-5.097.02ZM30.6 63.264c8.205 0 28.183.005 31.325.005V67H30.6v-3.736Z"/></svg>