<svg width="90" height="90" fill="none" xmlns="http://www.w3.org/2000/svg"><g clip-path="url(#a)"><circle cx="45" cy="45" r="45" fill="#F5F5F5"/><path d="M66.333 26H23.167A6.167 6.167 0 0 0 17 32.167v24.666A6.167 6.167 0 0 0 23.167 63h43.166a6.167 6.167 0 0 0 6.167-6.167V32.167A6.167 6.167 0 0 0 66.333 26Z" fill="url(#b)"/><path d="M47.14 36.456h-1.712c-3.132 0-4.779 1.588-4.779 3.926 0 2.646 1.138 3.887 3.478 5.473l1.933 1.305-5.554 8.301h-4.152l4.986-7.427c-2.87-2.055-4.477-4.05-4.477-7.428 0-4.232 2.95-7.123 8.547-7.123h5.554v21.958H47.14V36.456Z" fill="#fff"/></g><defs><linearGradient id="b" x1="17" y1="42.033" x2="72.5" y2="42.033" gradientUnits="userSpaceOnUse"><stop stop-color="#FF5C4D"/><stop offset=".4" stop-color="#EB469F"/><stop offset="1" stop-color="#8341EF"/></linearGradient><clipPath id="a"><path fill="#fff" d="M0 0h90v90H0z"/></clipPath></defs></svg>