<svg xmlns="http://www.w3.org/2000/svg" width="90" height="90" fill="none"><circle cx="45" cy="45" r="45" fill="#5AC5D0"/><path fill="#fff" d="m32 69 26.044-.035-.017-25.78C52.599 53.477 42.431 60.16 32 62.724 32.035 64.668 32 69 32 69Z"/><path fill="#fff" d="M40.328 56.022c9.83-4.968 14.569-14.039 14.569-14.039l-.035-3.04c-5.41-1.91-10.326-4.704-14.517-8.877.018 7.073-.017 25.956-.017 25.956ZM41.724 17s0 7.886-.017 9.848c2.599 2.405 3.89 3.519 6.577 5.234l.018-10.573c-3.059-1.68-4.244-2.564-6.578-4.509Z"/></svg>