<svg width="90" height="90" fill="none" xmlns="http://www.w3.org/2000/svg"><circle cx="45" cy="45" r="45" fill="#E2251D"/><path d="M38.655 19.62c0 1.485.135 1.755.81 2.295.54.405.81.81.81 1.89 0 1.08-.135 1.35-.405 1.215-.405-.135-.405.135-.405 1.485 0 1.62 0 1.62 1.62 3.105.945.81 1.755 1.35 2.025 1.35.405 0 .405-3.24 0-3.51-.405-.27-.405-2.565 0-2.565.135 0 .405.135.54.27.405.675.81-.135.81-1.62v-1.62l-2.295-1.89c-3.51-2.43-3.51-2.43-3.51-.405Zm9.72.54-2.43 2.16v4.725c0 2.565.135 4.725.27 4.86.135.135 1.35-.81 2.7-1.89l2.43-2.025v-1.755c0-1.215-.135-1.62-.405-1.62s-.54.135-.675.27-.54.54-1.08.945l-.945.675v-1.35c0-1.215.135-1.35 1.485-2.43 1.485-1.215 1.485-1.215 1.485-2.97 0-.945-.135-1.755-.27-1.755 0 0-1.215.945-2.565 2.16Zm-16.2 5.67c-.405.405-.27 8.37.135 9.045.27.405 2.565 2.43 5.13 4.59a133.453 133.453 0 0 1 4.725 4.185c0 .27-2.025 1.89-2.295 1.89-.135 0-1.755-1.35-3.645-2.97-2.16-1.89-3.645-2.835-3.915-2.7-.405.135-.405.81-.405 3.78v3.51l1.485 1.35 1.485 1.485-1.35 1.215-1.35 1.215-.135 4.725c-.135 3.105 0 4.86.27 5.4.54.945 10.8 9.45 11.205 9.315.675-.135.81-8.1.27-9.18-.27-.405-2.565-2.565-5.13-4.725-2.7-2.16-4.86-4.185-4.86-4.185 0-.135.54-.675 1.35-1.35l1.35-1.08 3.24 2.7c1.755 1.485 3.375 2.7 3.645 2.7.405 0 .54-.405.54-3.78v-3.78l-1.215-1.08-1.215-1.08.945-.81c.54-.405 1.08-1.215 1.215-1.89.405-1.485.405-8.505-.135-9.45-.405-.81-10.53-9.45-11.07-9.45 0 .135-.135.27-.27.405Zm19.575 4.185c-2.835 2.43-5.4 4.725-5.535 5.13-.135.405-.27 2.565-.27 4.725 0 3.645 0 3.915.54 4.05.54.135.54.405.54 2.025 0 1.215-.135 2.295-.54 3.105-.54.945-.54 1.755-.54 3.915 0 3.105.135 3.78.81 3.78s.54 4.725-.135 5.535c-.405.405-.54 1.215-.675 4.32-.135 4.185 0 5.4.675 5.13.81-.135 10.665-8.505 11.07-9.315.27-.405.27-3.645.27-9.18 0-7.695 0-8.505-.54-8.505-.405 0-.405 0 0-.54s.54-1.62.54-9.72c0-8.505 0-9.18-.54-9.18-.135.27-2.835 2.295-5.67 4.725Zm4.32 8.1c.405 1.62-.27 2.7-2.97 4.995-1.35 1.215-2.97 2.43-3.375 2.835l-.81.54V42.57l2.97-2.565c1.62-1.485 3.24-2.565 3.51-2.565.27 0 .54.27.675.675Zm.135 13.635c0 2.16-.54 2.835-3.645 5.535-1.62 1.35-3.105 2.565-3.375 2.565-.135 0-.27-.945-.27-2.295v-2.43l3.24-2.7c3.51-2.835 4.05-2.97 4.05-.675Z" fill="#fff"/></svg>