<svg id="Слой_1" data-name="Слой 1" xmlns="http://www.w3.org/2000/svg" viewBox="0 0 331.34 85.34"><defs><style>.cls-1{fill:none;}.cls-2{fill:#95c11f;}.cls-3{fill:#063;}.cls-4{fill:#36a9e1;}.cls-5{fill:#01432c;}.cls-6{fill:#1f801c;}.cls-7{fill:#009fe3;}</style></defs><path d="M70.92,82.72H63.55V49.42h20v6.85H70.92v7.47H81.28V70H70.92Z" transform="translate(-0.66 -24.9)"/><path d="M88.14,49.42H104V55.7H99.75V76.44h4.49v6.28H88.4V76.44h4V55.7H88.14Z" transform="translate(-0.66 -24.9)"/><path d="M137.83,49.42v33.3h-7.19l-13.19-21.4v21.4h-6.51V49.42h7.36l13,21.12V49.42Z" transform="translate(-0.66 -24.9)"/><path d="M162.38,75.54h-9.16l-1.84,7.18h-7.75l9.63-33.3h9.29l9.38,33.3h-7.71Zm-8.09-5.43h7.11L158,57Z" transform="translate(-0.66 -24.9)"/><path d="M204.45,49.42v33.3h-7.2l-13.18-21.4v21.4h-6.51V49.42h7.36l13,21.12V49.42Z" transform="translate(-0.66 -24.9)"/><path d="M231.33,81.58a29.14,29.14,0,0,1-8,1.61c-7.66,0-13.14-4.09-13.14-13.69V62.65c0-9.56,5.52-13.7,13.14-13.7a28.71,28.71,0,0,1,8,1.62L230,56.75a25.45,25.45,0,0,0-6.68-1.38c-3.89,0-5.73,3.19-5.73,7.37V69.4c0,3.9,1.54,7.37,5.73,7.37a27.58,27.58,0,0,0,6.94-1.38Z" transform="translate(-0.66 -24.9)"/><path d="M244.64,76.49h12.59v6.23h-20V49.42h20v6.24H244.64v6.89H255v6.18H244.64Z" transform="translate(-0.66 -24.9)"/><path d="M271.21,74.92v7.8h-7.7v-7.8Z" transform="translate(-0.66 -24.9)"/><path d="M289.32,71.3h-3.9V82.72h-7.37V49.42h11.48c8.78,0,12.29,2.86,12.29,11,0,5.9-2.31,9.66-5.61,10.7l7.19,11.61h-8.22Zm-3.9-6.13h4.37c3,0,4.58-1.14,4.58-4.76s-1.46-4.9-4.58-4.9h-4.37Z" transform="translate(-0.66 -24.9)"/><path d="M332,49.42V70.83c0,8.61-4.54,12.36-11.82,12.36-8.26,0-12.59-3.75-12.59-12.36V49.42h7.62V71.3c0,4,1.72,5.62,5.23,5.62s4.75-1.62,4.75-5.62V49.42Z" transform="translate(-0.66 -24.9)"/><path class="cls-1" d="M5,99.45a56.34,56.34,0,0,1,5.68-16.17,52,52,0,0,0-6,17.44C4.81,100.29,4.9,99.87,5,99.45Z" transform="translate(-0.66 -24.9)"/><path class="cls-1" d="M36.19,49.93c-.07,3.18-.14,6.68-.14,9.24.92-.47,1.81-.89,2.66-1.27V49.09C37.85,49.35,37,49.63,36.19,49.93Z" transform="translate(-0.66 -24.9)"/><path class="cls-1" d="M25.85,65.56A64.52,64.52,0,0,1,34.5,60a53.47,53.47,0,0,0-10.29,6.9C24.76,66.41,25.31,66,25.85,65.56Z" transform="translate(-0.66 -24.9)"/><path class="cls-1" d="M15.92,84.15a40.3,40.3,0,0,1,5.69-4.64A33.19,33.19,0,0,0,15.92,84.15Z" transform="translate(-0.66 -24.9)"/><path class="cls-1" d="M36.42,41.84s-.07,2.31-.16,5.4q1.64-.56,3.36-1.05l1.6-.45V56.83c2-.79,3.58-1.3,4.58-1.6V29A54.53,54.53,0,0,0,18.68,47.34,64.44,64.44,0,0,0,8.07,67.94C13.27,57.91,22,48.28,36.42,41.84Z" transform="translate(-0.66 -24.9)"/><path class="cls-2" d="M36.05,59.24c-.51.22-1,.47-1.55.73a64.52,64.52,0,0,0-8.65,5.59c-.54.41-1.09.85-1.64,1.31A59.09,59.09,0,0,0,10.68,83.28a53.26,53.26,0,0,0-5.91,17.1c2-8.39,6.32-15.2,10.72-19.28a53,53,0,0,1,12.15-13,61.74,61.74,0,0,1,11.07-6.76V57.9c-.85.38-1.74.8-2.66,1.27Z" transform="translate(-0.66 -24.9)"/><path class="cls-2" d="M46.93,25.46C24.08,31.87,9,48.67,3.22,74a111,111,0,0,0-2.38,30C.42,96.1,1,81.66,8.07,67.94a64.44,64.44,0,0,1,10.61-20.6A54.53,54.53,0,0,1,45.8,29V55.23c-1,.3-2.59.81-4.58,1.6v3.36a47,47,0,0,1,6.49-2.27l1.19-.28V24.9Z" transform="translate(-0.66 -24.9)"/><path class="cls-2" d="M10.68,83.28A59.09,59.09,0,0,1,24.21,66.87,55.4,55.4,0,0,0,10.68,83.28Z" transform="translate(-0.66 -24.9)"/><path class="cls-2" d="M36.05,59.24v-.07c-.51.25-1,.52-1.55.8C35,59.71,35.54,59.46,36.05,59.24Z" transform="translate(-0.66 -24.9)"/><path class="cls-3" d="M8.07,67.94C1,81.66.42,96.1.84,104.07v0l0,.61c0,.37.05.71.07,1,.2,2.61.47,4.23.51,4.49h.1A73,73,0,0,1,3.1,83.35a57.39,57.39,0,0,1,3.38-9.67C11.17,63.4,19.94,52.81,36.26,47.24c.09-3.09.16-5.4.16-5.4C22,48.28,13.27,57.91,8.07,67.94Z" transform="translate(-0.66 -24.9)"/><path class="cls-3" d="M26.19,77c-1,.44-1.91.94-2.87,1.49-.59.33-1.16.69-1.71,1.05a34.36,34.36,0,0,0-5.69,4.64A30.53,30.53,0,0,0,9.71,93.3a43.58,43.58,0,0,0-3.56,16.94H7c0-.11,1-18.75,19.29-21.75C26.11,85.37,26.24,79.45,26.19,77Z" transform="translate(-0.66 -24.9)"/><path class="cls-3" d="M5.56,83.89a66.68,66.68,0,0,0-1.71,9.8,74.61,74.61,0,0,0-.08,13.74,21.79,21.79,0,0,0,.39,2.79c0-.44,0-1,0-1.6,1-6.45-.54-11.5,6.52-25.34,4-7.45,8.3-11.59,13.18-16.08A56.35,56.35,0,0,1,34.5,60c.53-.28,1-.55,1.55-.8,0-2.56.07-6.06.14-9.24C20.16,55.65,9.86,67.05,5.56,83.89Z" transform="translate(-0.66 -24.9)"/><path class="cls-4" d="M39.62,46.19q-1.73.5-3.36,1.05c0,.85,0,1.75-.07,2.69.83-.3,1.66-.58,2.52-.84V57.9c.89-.4,1.73-.76,2.51-1.07V45.74Z" transform="translate(-0.66 -24.9)"/><path class="cls-5" d="M3.85,93.69a66.68,66.68,0,0,1,1.71-9.8c4.3-16.84,14.6-28.24,30.63-34,0-.94.05-1.84.07-2.69C19.94,52.81,11.17,63.4,6.48,73.68c-.07.31-.15.63-.22.95A102.47,102.47,0,0,0,3.85,93.69Z" transform="translate(-0.66 -24.9)"/><path class="cls-4" d="M21.61,79.51c.55-.36,1.12-.72,1.71-1.05,1-.55,1.92-1,2.87-1.49v-.08A30.57,30.57,0,0,0,21.61,79.51Z" transform="translate(-0.66 -24.9)"/><path class="cls-6" d="M38.71,57.9v3.42c.88-.42,1.72-.79,2.51-1.13V56.83C40.44,57.14,39.6,57.5,38.71,57.9Z" transform="translate(-0.66 -24.9)"/><path class="cls-7" d="M38.71,61.32v9.57a43.37,43.37,0,0,0-16.56,5.33A35.48,35.48,0,0,0,5,99.45c-.23,1.23-.43,2.49-.6,3.79a53.57,53.57,0,0,0-.24,7h2A43.58,43.58,0,0,1,9.71,93.3a31.49,31.49,0,0,1,6.21-9.15,33.19,33.19,0,0,1,5.69-4.64,30.57,30.57,0,0,1,4.58-2.62V77A40.49,40.49,0,0,1,40,73.31l1.21,0V60.19C40.43,60.53,39.59,60.9,38.71,61.32Z" transform="translate(-0.66 -24.9)"/><path class="cls-5" d="M6.26,74.63c.07-.32.15-.64.22-.95A57.39,57.39,0,0,0,3.1,83.35a73.15,73.15,0,0,0-1.55,26.88H4.17c-.19-1.14-.3-1.64-.4-2.8a74.61,74.61,0,0,1,.08-13.74A102.47,102.47,0,0,1,6.26,74.63Z" transform="translate(-0.66 -24.9)"/></svg>